{
	"asset":{
		"generator":"Khronos glTF Blender I/O v5.1.19",
		"version":"2.0"
	},
	"scene":0,
	"scenes":[
		{
			"name":"Scene",
			"nodes":[
				15
			]
		}
	],
	"nodes":[
		{
			"name":"lisc-s",
			"rotation":[
				-3.6776423684159454e-08,
				7.525241585426556e-08,
				0.08632943779230118,
				0.9962666630744934
			],
			"scale":[
				0.9999998807907104,
				0.9999999403953552,
				0.9999999403953552
			],
			"translation":[
				2.6830093702301383e-10,
				1.1182544231414795,
				7.275957614183426e-12
			]
		},
		{
			"name":"lisc-p",
			"rotation":[
				1.5134457953536185e-07,
				1.4450934315846098e-07,
				-0.30038192868232727,
				0.9538190364837646
			],
			"scale":[
				0.9999998807907104,
				1,
				0.9999999403953552
			],
			"translation":[
				2.6830093702301383e-10,
				1.1182544231414795,
				7.275957614183426e-12
			]
		},
		{
			"name":"lisc-l",
			"rotation":[
				-5.655620327615907e-08,
				-1.0029499719621526e-07,
				0.3592889904975891,
				0.9332263469696045
			],
			"scale":[
				0.9999999403953552,
				0.9999999403953552,
				0.9999999403953552
			],
			"translation":[
				2.6830093702301383e-10,
				1.1182544231414795,
				7.275957614183426e-12
			]
		},
		{
			"children":[
				0,
				1,
				2
			],
			"name":"kregoslup",
			"rotation":[
				0,
				1.788139627478813e-07,
				0,
				1
			],
			"scale":[
				0.9999999403953552,
				1,
				0.9999999403953552
			],
			"translation":[
				2.4920154828578234e-10,
				0.45622706413269043,
				7.275957614183426e-12
			]
		},
		{
			"name":"reka",
			"rotation":[
				0.005054166074842215,
				-0.0012752882903441787,
				-0.19865788519382477,
				0.9800550937652588
			],
			"scale":[
				1,
				1,
				0.9999998807907104
			],
			"translation":[
				-2.2091106721688902e-11,
				0.7365665435791016,
				2.229304740808402e-09
			]
		},
		{
			"children":[
				4
			],
			"name":"tlow",
			"rotation":[
				-1.615583755665284e-08,
				4.7722991780574375e-08,
				-0.7071067690849304,
				0.7071067690849304
			],
			"scale":[
				0.9999999403953552,
				0.9999998807907104,
				0.9999999403953552
			],
			"translation":[
				2.4920154828578234e-10,
				0.45622706413269043,
				7.275957614183426e-12
			]
		},
		{
			"name":"reka2",
			"rotation":[
				0.16572141647338867,
				0.7048648595809937,
				0.1650480031967163,
				0.6696723103523254
			],
			"scale":[
				1.0000001192092896,
				1,
				1.0000001192092896
			],
			"translation":[
				-2.2308199731924105e-10,
				0.7632035613059998,
				-5.966996496908905e-08
			]
		},
		{
			"children":[
				6
			],
			"name":"tlow2",
			"rotation":[
				0.5000000596046448,
				-0.5,
				0.4999999403953552,
				0.5
			],
			"scale":[
				0.9999998211860657,
				0.9999997019767761,
				0.9999999403953552
			],
			"translation":[
				0.008986471220850945,
				0.45622706413269043,
				-1.1641532182693481e-10
			]
		},
		{
			"children":[
				3,
				5,
				7
			],
			"name":"glowna",
			"rotation":[
				0,
				-0.7157031893730164,
				0,
				0.6984046101570129
			],
			"translation":[
				7.936253678053617e-05,
				-0.6466907262802124,
				0.009607363492250443
			]
		},
		{
			"name":"stopa",
			"rotation":[
				-0.45278996229171753,
				3.461694007000915e-07,
				8.807462847926217e-08,
				0.8916172385215759
			],
			"scale":[
				1,
				0.9999999403953552,
				0.9999999403953552
			],
			"translation":[
				2.7566837701442637e-11,
				0.37095531821250916,
				1.2078089639544487e-08
			]
		},
		{
			"children":[
				9
			],
			"name":"noga",
			"rotation":[
				-0.009616341441869736,
				0.6179492473602295,
				0.7861228585243225,
				0.007559373043477535
			],
			"scale":[
				1,
				0.9999998211860657,
				0.9999985098838806
			],
			"translation":[
				7.936253678053617e-05,
				-0.6466907262802124,
				0.009607363492250443
			]
		},
		{
			"name":"stopa2",
			"rotation":[
				0.4527895152568817,
				7.354159947681183e-08,
				1.094966037840095e-07,
				0.891617476940155
			],
			"translation":[
				1.4296230865795678e-10,
				0.37095531821250916,
				8.221832104027271e-10
			]
		},
		{
			"children":[
				11
			],
			"name":"noga2",
			"rotation":[
				0.009616600349545479,
				0.6179492473602295,
				-0.7861229181289673,
				0.007559244055300951
			],
			"scale":[
				0.9999999403953552,
				0.9999998211860657,
				0.9999999403953552
			],
			"translation":[
				-0.0001404652139171958,
				-0.6466907262802124,
				0.018591146916151047
			]
		},
		{
			"mesh":0,
			"name":"cialo.002",
			"skin":0
		},
		{
			"children":[
				13,
				8,
				10,
				12
			],
			"name":"Armature.001",
			"translation":[
				-0.000672459602355957,
				0.7227200269699097,
				-0.006028994917869568
			]
		},
		{
			"children":[
				14
			],
			"name":"Empty"
		}
	],
	"animations":[
		{
			"channels":[
				{
					"sampler":0,
					"target":{
						"node":8,
						"path":"translation"
					}
				},
				{
					"sampler":1,
					"target":{
						"node":8,
						"path":"rotation"
					}
				},
				{
					"sampler":2,
					"target":{
						"node":8,
						"path":"scale"
					}
				},
				{
					"sampler":3,
					"target":{
						"node":3,
						"path":"translation"
					}
				},
				{
					"sampler":4,
					"target":{
						"node":3,
						"path":"rotation"
					}
				},
				{
					"sampler":5,
					"target":{
						"node":3,
						"path":"scale"
					}
				},
				{
					"sampler":6,
					"target":{
						"node":0,
						"path":"translation"
					}
				},
				{
					"sampler":7,
					"target":{
						"node":0,
						"path":"rotation"
					}
				},
				{
					"sampler":8,
					"target":{
						"node":0,
						"path":"scale"
					}
				},
				{
					"sampler":9,
					"target":{
						"node":1,
						"path":"translation"
					}
				},
				{
					"sampler":10,
					"target":{
						"node":1,
						"path":"rotation"
					}
				},
				{
					"sampler":11,
					"target":{
						"node":1,
						"path":"scale"
					}
				},
				{
					"sampler":12,
					"target":{
						"node":2,
						"path":"translation"
					}
				},
				{
					"sampler":13,
					"target":{
						"node":2,
						"path":"rotation"
					}
				},
				{
					"sampler":14,
					"target":{
						"node":2,
						"path":"scale"
					}
				},
				{
					"sampler":15,
					"target":{
						"node":5,
						"path":"translation"
					}
				},
				{
					"sampler":16,
					"target":{
						"node":5,
						"path":"rotation"
					}
				},
				{
					"sampler":17,
					"target":{
						"node":5,
						"path":"scale"
					}
				},
				{
					"sampler":18,
					"target":{
						"node":4,
						"path":"translation"
					}
				},
				{
					"sampler":19,
					"target":{
						"node":4,
						"path":"rotation"
					}
				},
				{
					"sampler":20,
					"target":{
						"node":4,
						"path":"scale"
					}
				},
				{
					"sampler":21,
					"target":{
						"node":7,
						"path":"translation"
					}
				},
				{
					"sampler":22,
					"target":{
						"node":7,
						"path":"rotation"
					}
				},
				{
					"sampler":23,
					"target":{
						"node":7,
						"path":"scale"
					}
				},
				{
					"sampler":24,
					"target":{
						"node":6,
						"path":"translation"
					}
				},
				{
					"sampler":25,
					"target":{
						"node":6,
						"path":"rotation"
					}
				},
				{
					"sampler":26,
					"target":{
						"node":6,
						"path":"scale"
					}
				},
				{
					"sampler":27,
					"target":{
						"node":10,
						"path":"translation"
					}
				},
				{
					"sampler":28,
					"target":{
						"node":10,
						"path":"rotation"
					}
				},
				{
					"sampler":29,
					"target":{
						"node":10,
						"path":"scale"
					}
				},
				{
					"sampler":30,
					"target":{
						"node":9,
						"path":"translation"
					}
				},
				{
					"sampler":31,
					"target":{
						"node":9,
						"path":"rotation"
					}
				},
				{
					"sampler":32,
					"target":{
						"node":9,
						"path":"scale"
					}
				},
				{
					"sampler":33,
					"target":{
						"node":12,
						"path":"translation"
					}
				},
				{
					"sampler":34,
					"target":{
						"node":12,
						"path":"rotation"
					}
				},
				{
					"sampler":35,
					"target":{
						"node":12,
						"path":"scale"
					}
				},
				{
					"sampler":36,
					"target":{
						"node":11,
						"path":"translation"
					}
				},
				{
					"sampler":37,
					"target":{
						"node":11,
						"path":"rotation"
					}
				},
				{
					"sampler":38,
					"target":{
						"node":11,
						"path":"scale"
					}
				}
			],
			"name":"ArmatureAction.001",
			"samplers":[
				{
					"input":19,
					"interpolation":"STEP",
					"output":20
				},
				{
					"input":19,
					"interpolation":"STEP",
					"output":21
				},
				{
					"input":19,
					"interpolation":"STEP",
					"output":22
				},
				{
					"input":19,
					"interpolation":"STEP",
					"output":23
				},
				{
					"input":24,
					"interpolation":"LINEAR",
					"output":25
				},
				{
					"input":19,
					"interpolation":"STEP",
					"output":22
				},
				{
					"input":19,
					"interpolation":"STEP",
					"output":26
				},
				{
					"input":19,
					"interpolation":"STEP",
					"output":27
				},
				{
					"input":19,
					"interpolation":"STEP",
					"output":28
				},
				{
					"input":19,
					"interpolation":"STEP",
					"output":29
				},
				{
					"input":19,
					"interpolation":"STEP",
					"output":30
				},
				{
					"input":19,
					"interpolation":"STEP",
					"output":31
				},
				{
					"input":19,
					"interpolation":"STEP",
					"output":32
				},
				{
					"input":19,
					"interpolation":"STEP",
					"output":33
				},
				{
					"input":19,
					"interpolation":"STEP",
					"output":34
				},
				{
					"input":19,
					"interpolation":"STEP",
					"output":35
				},
				{
					"input":19,
					"interpolation":"STEP",
					"output":36
				},
				{
					"input":19,
					"interpolation":"STEP",
					"output":37
				},
				{
					"input":19,
					"interpolation":"STEP",
					"output":38
				},
				{
					"input":24,
					"interpolation":"LINEAR",
					"output":39
				},
				{
					"input":19,
					"interpolation":"STEP",
					"output":40
				},
				{
					"input":19,
					"interpolation":"STEP",
					"output":41
				},
				{
					"input":19,
					"interpolation":"STEP",
					"output":42
				},
				{
					"input":19,
					"interpolation":"STEP",
					"output":43
				},
				{
					"input":19,
					"interpolation":"STEP",
					"output":44
				},
				{
					"input":19,
					"interpolation":"STEP",
					"output":45
				},
				{
					"input":19,
					"interpolation":"STEP",
					"output":46
				},
				{
					"input":19,
					"interpolation":"STEP",
					"output":47
				},
				{
					"input":19,
					"interpolation":"STEP",
					"output":48
				},
				{
					"input":19,
					"interpolation":"STEP",
					"output":49
				},
				{
					"input":19,
					"interpolation":"STEP",
					"output":50
				},
				{
					"input":19,
					"interpolation":"STEP",
					"output":51
				},
				{
					"input":19,
					"interpolation":"STEP",
					"output":52
				},
				{
					"input":19,
					"interpolation":"STEP",
					"output":53
				},
				{
					"input":19,
					"interpolation":"STEP",
					"output":54
				},
				{
					"input":19,
					"interpolation":"STEP",
					"output":55
				},
				{
					"input":19,
					"interpolation":"STEP",
					"output":56
				},
				{
					"input":19,
					"interpolation":"STEP",
					"output":57
				},
				{
					"input":19,
					"interpolation":"STEP",
					"output":58
				}
			]
		}
	],
	"materials":[
		{
			"doubleSided":true,
			"emissiveFactor":[
				0.4999999701976776,
				0.4999999701976776,
				0.4999999701976776
			],
			"emissiveTexture":{
				"index":0,
				"texCoord":1
			},
			"name":"Material.006",
			"pbrMetallicRoughness":{
				"baseColorTexture":{
					"index":1
				},
				"metallicFactor":0,
				"roughnessFactor":0.5
			}
		},
		{
			"doubleSided":true,
			"name":"Material.002",
			"pbrMetallicRoughness":{
				"baseColorTexture":{
					"index":2
				},
				"metallicFactor":0,
				"roughnessFactor":0.5
			}
		}
	],
	"meshes":[
		{
			"name":"Sphere.003",
			"primitives":[
				{
					"attributes":{
						"POSITION":0,
						"NORMAL":1,
						"TEXCOORD_0":2,
						"TEXCOORD_1":3,
						"COLOR_0":4,
						"COLOR_1":5,
						"JOINTS_0":6,
						"WEIGHTS_0":7
					},
					"indices":8,
					"material":0
				},
				{
					"attributes":{
						"POSITION":9,
						"NORMAL":10,
						"TEXCOORD_0":11,
						"TEXCOORD_1":12,
						"COLOR_0":13,
						"COLOR_1":14,
						"JOINTS_0":15,
						"WEIGHTS_0":16
					},
					"indices":17,
					"material":1
				}
			]
		}
	],
	"textures":[
		{
			"sampler":0,
			"source":0
		},
		{
			"sampler":1,
			"source":1
		},
		{
			"sampler":1,
			"source":1
		}
	],
	"images":[
		{
			"mimeType": "image/png",
			"name": "detal-rzodkiewka",
			"uri": "../detal-rzodkiewka.png"
		},
		{
			"mimeType": "image/png",
			"name": "palette.png",
			"uri": "../../../../textures/palette.png"
		}
	],
	"skins":[
		{
			"inverseBindMatrices":18,
			"joints":[
				8,
				3,
				0,
				1,
				2,
				5,
				4,
				7,
				6,
				10,
				9,
				12,
				11
			],
			"name":"Armature.001"
		}
	],
	"accessors":[
		{
			"bufferView":0,
			"componentType":5126,
			"count":1662,
			"max":[
				0.67369544506073,
				2.7214009761810303,
				1.1545710563659668
			],
			"min":[
				-0.5702327489852905,
				-0.28002071380615234,
				-1.1298507452011108
			],
			"type":"VEC3"
		},
		{
			"bufferView":1,
			"componentType":5126,
			"count":1662,
			"type":"VEC3"
		},
		{
			"bufferView":2,
			"componentType":5126,
			"count":1662,
			"type":"VEC2"
		},
		{
			"bufferView":3,
			"componentType":5126,
			"count":1662,
			"type":"VEC2"
		},
		{
			"bufferView":4,
			"componentType":5121,
			"count":1662,
			"normalized":true,
			"type":"VEC4"
		},
		{
			"bufferView":5,
			"componentType":5123,
			"count":1662,
			"normalized":true,
			"type":"VEC4"
		},
		{
			"bufferView":6,
			"componentType":5121,
			"count":1662,
			"type":"VEC4"
		},
		{
			"bufferView":7,
			"componentType":5126,
			"count":1662,
			"type":"VEC4"
		},
		{
			"bufferView":8,
			"componentType":5123,
			"count":6492,
			"type":"SCALAR"
		},
		{
			"bufferView":9,
			"componentType":5126,
			"count":1461,
			"max":[
				-0.1043110340833664,
				0.9136239290237427,
				1.512215256690979
			],
			"min":[
				-0.6246012449264526,
				0.23870861530303955,
				-0.4381362497806549
			],
			"type":"VEC3"
		},
		{
			"bufferView":10,
			"componentType":5126,
			"count":1461,
			"type":"VEC3"
		},
		{
			"bufferView":11,
			"componentType":5126,
			"count":1461,
			"type":"VEC2"
		},
		{
			"bufferView":12,
			"componentType":5126,
			"count":1461,
			"type":"VEC2"
		},
		{
			"bufferView":13,
			"componentType":5121,
			"count":1461,
			"normalized":true,
			"type":"VEC4"
		},
		{
			"bufferView":14,
			"componentType":5123,
			"count":1461,
			"normalized":true,
			"type":"VEC4"
		},
		{
			"bufferView":15,
			"componentType":5121,
			"count":1461,
			"type":"VEC4"
		},
		{
			"bufferView":16,
			"componentType":5126,
			"count":1461,
			"type":"VEC4"
		},
		{
			"bufferView":17,
			"componentType":5123,
			"count":5760,
			"type":"SCALAR"
		},
		{
			"bufferView":18,
			"componentType":5126,
			"count":13,
			"type":"MAT4"
		},
		{
			"bufferView":19,
			"componentType":5126,
			"count":2,
			"max":[
				3.9583333333333335
			],
			"min":[
				0.041666666666666664
			],
			"type":"SCALAR"
		},
		{
			"bufferView":20,
			"componentType":5126,
			"count":2,
			"type":"VEC3"
		},
		{
			"bufferView":21,
			"componentType":5126,
			"count":2,
			"type":"VEC4"
		},
		{
			"bufferView":22,
			"componentType":5126,
			"count":2,
			"type":"VEC3"
		},
		{
			"bufferView":23,
			"componentType":5126,
			"count":2,
			"type":"VEC3"
		},
		{
			"bufferView":24,
			"componentType":5126,
			"count":95,
			"max":[
				3.9583333333333335
			],
			"min":[
				0.041666666666666664
			],
			"type":"SCALAR"
		},
		{
			"bufferView":25,
			"componentType":5126,
			"count":95,
			"type":"VEC4"
		},
		{
			"bufferView":26,
			"componentType":5126,
			"count":2,
			"type":"VEC3"
		},
		{
			"bufferView":27,
			"componentType":5126,
			"count":2,
			"type":"VEC4"
		},
		{
			"bufferView":28,
			"componentType":5126,
			"count":2,
			"type":"VEC3"
		},
		{
			"bufferView":29,
			"componentType":5126,
			"count":2,
			"type":"VEC3"
		},
		{
			"bufferView":30,
			"componentType":5126,
			"count":2,
			"type":"VEC4"
		},
		{
			"bufferView":31,
			"componentType":5126,
			"count":2,
			"type":"VEC3"
		},
		{
			"bufferView":32,
			"componentType":5126,
			"count":2,
			"type":"VEC3"
		},
		{
			"bufferView":33,
			"componentType":5126,
			"count":2,
			"type":"VEC4"
		},
		{
			"bufferView":34,
			"componentType":5126,
			"count":2,
			"type":"VEC3"
		},
		{
			"bufferView":35,
			"componentType":5126,
			"count":2,
			"type":"VEC3"
		},
		{
			"bufferView":36,
			"componentType":5126,
			"count":2,
			"type":"VEC4"
		},
		{
			"bufferView":37,
			"componentType":5126,
			"count":2,
			"type":"VEC3"
		},
		{
			"bufferView":38,
			"componentType":5126,
			"count":2,
			"type":"VEC3"
		},
		{
			"bufferView":39,
			"componentType":5126,
			"count":95,
			"type":"VEC4"
		},
		{
			"bufferView":40,
			"componentType":5126,
			"count":2,
			"type":"VEC3"
		},
		{
			"bufferView":41,
			"componentType":5126,
			"count":2,
			"type":"VEC3"
		},
		{
			"bufferView":42,
			"componentType":5126,
			"count":2,
			"type":"VEC4"
		},
		{
			"bufferView":43,
			"componentType":5126,
			"count":2,
			"type":"VEC3"
		},
		{
			"bufferView":44,
			"componentType":5126,
			"count":2,
			"type":"VEC3"
		},
		{
			"bufferView":45,
			"componentType":5126,
			"count":2,
			"type":"VEC4"
		},
		{
			"bufferView":46,
			"componentType":5126,
			"count":2,
			"type":"VEC3"
		},
		{
			"bufferView":47,
			"componentType":5126,
			"count":2,
			"type":"VEC3"
		},
		{
			"bufferView":48,
			"componentType":5126,
			"count":2,
			"type":"VEC4"
		},
		{
			"bufferView":49,
			"componentType":5126,
			"count":2,
			"type":"VEC3"
		},
		{
			"bufferView":50,
			"componentType":5126,
			"count":2,
			"type":"VEC3"
		},
		{
			"bufferView":51,
			"componentType":5126,
			"count":2,
			"type":"VEC4"
		},
		{
			"bufferView":52,
			"componentType":5126,
			"count":2,
			"type":"VEC3"
		},
		{
			"bufferView":53,
			"componentType":5126,
			"count":2,
			"type":"VEC3"
		},
		{
			"bufferView":54,
			"componentType":5126,
			"count":2,
			"type":"VEC4"
		},
		{
			"bufferView":55,
			"componentType":5126,
			"count":2,
			"type":"VEC3"
		},
		{
			"bufferView":56,
			"componentType":5126,
			"count":2,
			"type":"VEC3"
		},
		{
			"bufferView":57,
			"componentType":5126,
			"count":2,
			"type":"VEC4"
		},
		{
			"bufferView":58,
			"componentType":5126,
			"count":2,
			"type":"VEC3"
		}
	],
	"bufferViews":[
		{
			"buffer":0,
			"byteLength":19944,
			"byteOffset":0,
			"target":34962
		},
		{
			"buffer":0,
			"byteLength":19944,
			"byteOffset":19944,
			"target":34962
		},
		{
			"buffer":0,
			"byteLength":13296,
			"byteOffset":39888,
			"target":34962
		},
		{
			"buffer":0,
			"byteLength":13296,
			"byteOffset":53184,
			"target":34962
		},
		{
			"buffer":0,
			"byteLength":6648,
			"byteOffset":66480,
			"target":34962
		},
		{
			"buffer":0,
			"byteLength":13296,
			"byteOffset":73128,
			"target":34962
		},
		{
			"buffer":0,
			"byteLength":6648,
			"byteOffset":86424,
			"target":34962
		},
		{
			"buffer":0,
			"byteLength":26592,
			"byteOffset":93072,
			"target":34962
		},
		{
			"buffer":0,
			"byteLength":12984,
			"byteOffset":119664,
			"target":34963
		},
		{
			"buffer":0,
			"byteLength":17532,
			"byteOffset":132648,
			"target":34962
		},
		{
			"buffer":0,
			"byteLength":17532,
			"byteOffset":150180,
			"target":34962
		},
		{
			"buffer":0,
			"byteLength":11688,
			"byteOffset":167712,
			"target":34962
		},
		{
			"buffer":0,
			"byteLength":11688,
			"byteOffset":179400,
			"target":34962
		},
		{
			"buffer":0,
			"byteLength":5844,
			"byteOffset":191088,
			"target":34962
		},
		{
			"buffer":0,
			"byteLength":11688,
			"byteOffset":196932,
			"target":34962
		},
		{
			"buffer":0,
			"byteLength":5844,
			"byteOffset":208620,
			"target":34962
		},
		{
			"buffer":0,
			"byteLength":23376,
			"byteOffset":214464,
			"target":34962
		},
		{
			"buffer":0,
			"byteLength":11520,
			"byteOffset":237840,
			"target":34963
		},
		{
			"buffer":0,
			"byteLength":832,
			"byteOffset":249360
		},
		{
			"buffer":0,
			"byteLength":8,
			"byteOffset":250192
		},
		{
			"buffer":0,
			"byteLength":24,
			"byteOffset":250200
		},
		{
			"buffer":0,
			"byteLength":32,
			"byteOffset":250224
		},
		{
			"buffer":0,
			"byteLength":24,
			"byteOffset":250256
		},
		{
			"buffer":0,
			"byteLength":24,
			"byteOffset":250280
		},
		{
			"buffer":0,
			"byteLength":380,
			"byteOffset":250304
		},
		{
			"buffer":0,
			"byteLength":1520,
			"byteOffset":250684
		},
		{
			"buffer":0,
			"byteLength":24,
			"byteOffset":252204
		},
		{
			"buffer":0,
			"byteLength":32,
			"byteOffset":252228
		},
		{
			"buffer":0,
			"byteLength":24,
			"byteOffset":252260
		},
		{
			"buffer":0,
			"byteLength":24,
			"byteOffset":252284
		},
		{
			"buffer":0,
			"byteLength":32,
			"byteOffset":252308
		},
		{
			"buffer":0,
			"byteLength":24,
			"byteOffset":252340
		},
		{
			"buffer":0,
			"byteLength":24,
			"byteOffset":252364
		},
		{
			"buffer":0,
			"byteLength":32,
			"byteOffset":252388
		},
		{
			"buffer":0,
			"byteLength":24,
			"byteOffset":252420
		},
		{
			"buffer":0,
			"byteLength":24,
			"byteOffset":252444
		},
		{
			"buffer":0,
			"byteLength":32,
			"byteOffset":252468
		},
		{
			"buffer":0,
			"byteLength":24,
			"byteOffset":252500
		},
		{
			"buffer":0,
			"byteLength":24,
			"byteOffset":252524
		},
		{
			"buffer":0,
			"byteLength":1520,
			"byteOffset":252548
		},
		{
			"buffer":0,
			"byteLength":24,
			"byteOffset":254068
		},
		{
			"buffer":0,
			"byteLength":24,
			"byteOffset":254092
		},
		{
			"buffer":0,
			"byteLength":32,
			"byteOffset":254116
		},
		{
			"buffer":0,
			"byteLength":24,
			"byteOffset":254148
		},
		{
			"buffer":0,
			"byteLength":24,
			"byteOffset":254172
		},
		{
			"buffer":0,
			"byteLength":32,
			"byteOffset":254196
		},
		{
			"buffer":0,
			"byteLength":24,
			"byteOffset":254228
		},
		{
			"buffer":0,
			"byteLength":24,
			"byteOffset":254252
		},
		{
			"buffer":0,
			"byteLength":32,
			"byteOffset":254276
		},
		{
			"buffer":0,
			"byteLength":24,
			"byteOffset":254308
		},
		{
			"buffer":0,
			"byteLength":24,
			"byteOffset":254332
		},
		{
			"buffer":0,
			"byteLength":32,
			"byteOffset":254356
		},
		{
			"buffer":0,
			"byteLength":24,
			"byteOffset":254388
		},
		{
			"buffer":0,
			"byteLength":24,
			"byteOffset":254412
		},
		{
			"buffer":0,
			"byteLength":32,
			"byteOffset":254436
		},
		{
			"buffer":0,
			"byteLength":24,
			"byteOffset":254468
		},
		{
			"buffer":0,
			"byteLength":24,
			"byteOffset":254492
		},
		{
			"buffer":0,
			"byteLength":32,
			"byteOffset":254516
		},
		{
			"buffer":0,
			"byteLength":24,
			"byteOffset":254548
		}
	],
	"samplers":[
		{
			"magFilter":9729,
			"minFilter":9987
		},
		{
			"magFilter":9728,
			"minFilter":9984
		}
	],
	"buffers":[
		{
			"byteLength":254572,
			"uri":"rzodkiewka-kroi.bin"
		}
	]
}
