{
	"asset":{
		"generator":"Khronos glTF Blender I/O v4.5.48",
		"version":"2.0"
	},
	"scene":0,
	"scenes":[
		{
			"name":"Scene",
			"nodes":[
				0,
				1
			]
		}
	],
	"nodes":[
		{
			"mesh":0,
			"name":"Cylinder"
		},
		{
			"mesh":1,
			"name":"Circle.002"
		}
	],
	"materials":[
		{
			"doubleSided":true,
			"name":"Material.001",
			"pbrMetallicRoughness":{
				"baseColorTexture":{
					"index":0
				},
				"metallicFactor":0,
				"roughnessFactor":0.5
			}
		},
		{
			"alphaMode":"BLEND",
			"doubleSided":true,
			"name":"Material.002",
			"pbrMetallicRoughness":{
				"baseColorFactor":[
					1,
					1,
					1,
					0.7448276281356812
				],
				"baseColorTexture":{
					"index":1
				},
				"metallicFactor":0,
				"roughnessFactor":0.5
			}
		}
	],
	"meshes":[
		{
			"name":"Cylinder",
			"primitives":[
				{
					"attributes":{
						"POSITION":0,
						"NORMAL":1,
						"TEXCOORD_0":2
					},
					"indices":3,
					"material":0
				}
			]
		},
		{
			"name":"Circle.001",
			"primitives":[
				{
					"attributes":{
						"POSITION":4,
						"NORMAL":5,
						"TEXCOORD_0":6
					},
					"indices":7,
					"material":1
				}
			]
		}
	],
	"textures":[
		{
			"sampler":0,
			"source":0
		},
		{
			"sampler":0,
			"source":0
		}
	],
	"images":[
		{
			"mimeType":"image/png",
			"name":"palette",
			"uri": "../../../textures/palette.png"
		}
	],
	"accessors":[
		{
			"bufferView":0,
			"componentType":5126,
			"count":914,
			"max":[
				0.7574785351753235,
				0.06522086262702942,
				0.668925404548645
			],
			"min":[
				-0.6845555901527405,
				0.0004061628133058548,
				-0.773108720779419
			],
			"type":"VEC3"
		},
		{
			"bufferView":1,
			"componentType":5126,
			"count":914,
			"type":"VEC3"
		},
		{
			"bufferView":2,
			"componentType":5126,
			"count":914,
			"type":"VEC2"
		},
		{
			"bufferView":3,
			"componentType":5123,
			"count":2952,
			"type":"SCALAR"
		},
		{
			"bufferView":4,
			"componentType":5126,
			"count":32,
			"max":[
				0.6892203688621521,
				0.02826765738427639,
				0.6006672382354736
			],
			"min":[
				-0.6162974238395691,
				0.02826765738427639,
				-0.7048505544662476
			],
			"type":"VEC3"
		},
		{
			"bufferView":5,
			"componentType":5126,
			"count":32,
			"type":"VEC3"
		},
		{
			"bufferView":6,
			"componentType":5126,
			"count":32,
			"type":"VEC2"
		},
		{
			"bufferView":7,
			"componentType":5123,
			"count":90,
			"type":"SCALAR"
		}
	],
	"bufferViews":[
		{
			"buffer":0,
			"byteLength":10968,
			"byteOffset":0,
			"target":34962
		},
		{
			"buffer":0,
			"byteLength":10968,
			"byteOffset":10968,
			"target":34962
		},
		{
			"buffer":0,
			"byteLength":7312,
			"byteOffset":21936,
			"target":34962
		},
		{
			"buffer":0,
			"byteLength":5904,
			"byteOffset":29248,
			"target":34963
		},
		{
			"buffer":0,
			"byteLength":384,
			"byteOffset":35152,
			"target":34962
		},
		{
			"buffer":0,
			"byteLength":384,
			"byteOffset":35536,
			"target":34962
		},
		{
			"buffer":0,
			"byteLength":256,
			"byteOffset":35920,
			"target":34962
		},
		{
			"buffer":0,
			"byteLength":180,
			"byteOffset":36176,
			"target":34963
		}
	],
	"samplers":[
		{
			"magFilter":9728,
			"minFilter":9984
		}
	],
	"buffers":[
		{
			"byteLength":36356,
			"uri":"pizza_z_sosem.bin"
		}
	]
}
