{
	"asset":{
		"generator":"Khronos glTF Blender I/O v4.5.48",
		"version":"2.0"
	},
	"scene":0,
	"scenes":[
		{
			"name":"Scene",
			"nodes":[
				0
			]
		}
	],
	"nodes":[
		{
			"mesh":0,
			"name":"Cylinder"
		}
	],
	"materials":[
		{
			"doubleSided":true,
			"name":"Material.001",
			"pbrMetallicRoughness":{
				"baseColorTexture":{
					"index":0
				},
				"metallicFactor":0,
				"roughnessFactor":0.5
			}
		}
	],
	"meshes":[
		{
			"name":"Cylinder",
			"primitives":[
				{
					"attributes":{
						"POSITION":0,
						"NORMAL":1,
						"TEXCOORD_0":2
					},
					"indices":3,
					"material":0
				}
			]
		}
	],
	"textures":[
		{
			"sampler":0,
			"source":0
		}
	],
	"images":[
		{
			"mimeType":"image/png",
			"name":"palette",
			"uri": "../../../textures/palette.png"
		}
	],
	"accessors":[
		{
			"bufferView":0,
			"componentType":5126,
			"count":914,
			"max":[
				0.7574785351753235,
				0.06636370718479156,
				0.668925404548645
			],
			"min":[
				-0.6845555901527405,
				0.0015490036457777023,
				-0.773108720779419
			],
			"type":"VEC3"
		},
		{
			"bufferView":1,
			"componentType":5126,
			"count":914,
			"type":"VEC3"
		},
		{
			"bufferView":2,
			"componentType":5126,
			"count":914,
			"type":"VEC2"
		},
		{
			"bufferView":3,
			"componentType":5123,
			"count":2952,
			"type":"SCALAR"
		}
	],
	"bufferViews":[
		{
			"buffer":0,
			"byteLength":10968,
			"byteOffset":0,
			"target":34962
		},
		{
			"buffer":0,
			"byteLength":10968,
			"byteOffset":10968,
			"target":34962
		},
		{
			"buffer":0,
			"byteLength":7312,
			"byteOffset":21936,
			"target":34962
		},
		{
			"buffer":0,
			"byteLength":5904,
			"byteOffset":29248,
			"target":34963
		}
	],
	"samplers":[
		{
			"magFilter":9728,
			"minFilter":9984
		}
	],
	"buffers":[
		{
			"byteLength":35152,
			"uri":"pizza_upieczona.bin"
		}
	]
}
