{
	"asset":{
		"generator":"Khronos glTF Blender I/O v4.5.48",
		"version":"2.0"
	},
	"scene":0,
	"scenes":[
		{
			"name":"Scene",
			"nodes":[
				0,
				1,
				2
			]
		}
	],
	"nodes":[
		{
			"mesh":0,
			"name":"Cylinder"
		},
		{
			"mesh":1,
			"name":"Circle"
		},
		{
			"mesh":2,
			"name":"Circle.001"
		}
	],
	"materials":[
		{
			"doubleSided":true,
			"name":"Material.001",
			"pbrMetallicRoughness":{
				"baseColorTexture":{
					"index":0
				},
				"metallicFactor":0,
				"roughnessFactor":0.5
			}
		},
		{
			"doubleSided":true,
			"name":"Material.003",
			"pbrMetallicRoughness":{
				"baseColorTexture":{
					"index":1
				},
				"metallicFactor":0,
				"roughnessFactor":0.5
			}
		},
		{
			"alphaMode":"BLEND",
			"doubleSided":true,
			"name":"Material.002",
			"pbrMetallicRoughness":{
				"baseColorFactor":[
					1,
					1,
					1,
					0.699999988079071
				],
				"baseColorTexture":{
					"index":2
				},
				"metallicFactor":0,
				"roughnessFactor":0.5
			}
		}
	],
	"meshes":[
		{
			"name":"Cylinder",
			"primitives":[
				{
					"attributes":{
						"POSITION":0,
						"NORMAL":1,
						"TEXCOORD_0":2
					},
					"indices":3,
					"material":0
				}
			]
		},
		{
			"name":"Circle",
			"primitives":[
				{
					"attributes":{
						"POSITION":4,
						"NORMAL":5,
						"TEXCOORD_0":6
					},
					"indices":7,
					"material":1
				}
			]
		},
		{
			"name":"Circle.013",
			"primitives":[
				{
					"attributes":{
						"POSITION":8,
						"NORMAL":9,
						"TEXCOORD_0":10
					},
					"indices":11,
					"material":2
				}
			]
		}
	],
	"textures":[
		{
			"sampler":0,
			"source":0
		},
		{
			"sampler":0,
			"source":0
		},
		{
			"sampler":0,
			"source":0
		}
	],
	"images":[
		{
			"mimeType":"image/png",
			"name":"palette",
			"uri":"palette.png"
		}
	],
	"accessors":[
		{
			"bufferView":0,
			"componentType":5126,
			"count":914,
			"max":[
				0.7574785351753235,
				0.05607813596725464,
				0.668925404548645
			],
			"min":[
				-0.6845555901527405,
				-0.008736563846468925,
				-0.773108720779419
			],
			"type":"VEC3"
		},
		{
			"bufferView":1,
			"componentType":5126,
			"count":914,
			"type":"VEC3"
		},
		{
			"bufferView":2,
			"componentType":5126,
			"count":914,
			"type":"VEC2"
		},
		{
			"bufferView":3,
			"componentType":5123,
			"count":2952,
			"type":"SCALAR"
		},
		{
			"bufferView":4,
			"componentType":5126,
			"count":4721,
			"max":[
				0.6345198154449463,
				0.024407045915722847,
				0.4886685907840729
			],
			"min":[
				-0.561718225479126,
				0.014139405451714993,
				-0.5930089354515076
			],
			"type":"VEC3"
		},
		{
			"bufferView":5,
			"componentType":5126,
			"count":4721,
			"type":"VEC3"
		},
		{
			"bufferView":6,
			"componentType":5126,
			"count":4721,
			"type":"VEC2"
		},
		{
			"bufferView":7,
			"componentType":5123,
			"count":6987,
			"type":"SCALAR"
		},
		{
			"bufferView":8,
			"componentType":5126,
			"count":32,
			"max":[
				0.6892203688621521,
				0.016626805067062378,
				0.6006672382354736
			],
			"min":[
				-0.6162974238395691,
				0.016626805067062378,
				-0.7048505544662476
			],
			"type":"VEC3"
		},
		{
			"bufferView":9,
			"componentType":5126,
			"count":32,
			"type":"VEC3"
		},
		{
			"bufferView":10,
			"componentType":5126,
			"count":32,
			"type":"VEC2"
		},
		{
			"bufferView":11,
			"componentType":5123,
			"count":90,
			"type":"SCALAR"
		}
	],
	"bufferViews":[
		{
			"buffer":0,
			"byteLength":10968,
			"byteOffset":0,
			"target":34962
		},
		{
			"buffer":0,
			"byteLength":10968,
			"byteOffset":10968,
			"target":34962
		},
		{
			"buffer":0,
			"byteLength":7312,
			"byteOffset":21936,
			"target":34962
		},
		{
			"buffer":0,
			"byteLength":5904,
			"byteOffset":29248,
			"target":34963
		},
		{
			"buffer":0,
			"byteLength":56652,
			"byteOffset":35152,
			"target":34962
		},
		{
			"buffer":0,
			"byteLength":56652,
			"byteOffset":91804,
			"target":34962
		},
		{
			"buffer":0,
			"byteLength":37768,
			"byteOffset":148456,
			"target":34962
		},
		{
			"buffer":0,
			"byteLength":13974,
			"byteOffset":186224,
			"target":34963
		},
		{
			"buffer":0,
			"byteLength":384,
			"byteOffset":200200,
			"target":34962
		},
		{
			"buffer":0,
			"byteLength":384,
			"byteOffset":200584,
			"target":34962
		},
		{
			"buffer":0,
			"byteLength":256,
			"byteOffset":200968,
			"target":34962
		},
		{
			"buffer":0,
			"byteLength":180,
			"byteOffset":201224,
			"target":34963
		}
	],
	"samplers":[
		{
			"magFilter":9728,
			"minFilter":9984
		}
	],
	"buffers":[
		{
			"byteLength":201404,
			"uri":"pizza.bin"
		}
	]
}
