{
	"asset":{
		"generator":"Khronos glTF Blender I/O v4.5.48",
		"version":"2.0"
	},
	"extensionsUsed":[
		"KHR_materials_emissive_strength"
	],
	"scene":0,
	"scenes":[
		{
			"name":"Scene",
			"nodes":[
				0,
				1,
				2,
				3,
				4,
				5,
				6,
				7,
				8,
				9,
				10,
				11,
				12,
				13,
				14
			]
		}
	],
	"nodes":[
		{
			"mesh":0,
			"name":"Cylinder"
		},
		{
			"mesh":1,
			"name":"Circle.001"
		},
		{
			"mesh":2,
			"name":"Circle.002"
		},
		{
			"mesh":3,
			"name":"Sphere.005"
		},
		{
			"mesh":4,
			"name":"Sphere.001"
		},
		{
			"mesh":5,
			"name":"Sphere.002"
		},
		{
			"mesh":6,
			"name":"Sphere.003"
		},
		{
			"mesh":7,
			"name":"Circle.003"
		},
		{
			"mesh":8,
			"name":"Circle.004"
		},
		{
			"mesh":9,
			"name":"Circle.005"
		},
		{
			"mesh":10,
			"name":"Circle.006"
		},
		{
			"mesh":11,
			"name":"Circle.007"
		},
		{
			"mesh":12,
			"name":"Circle.008"
		},
		{
			"mesh":13,
			"name":"Circle.009"
		},
		{
			"mesh":14,
			"name":"Circle.010"
		}
	],
	"materials":[
		{
			"doubleSided":true,
			"name":"Material.001",
			"pbrMetallicRoughness":{
				"baseColorTexture":{
					"index":0
				},
				"metallicFactor":0,
				"roughnessFactor":0.5
			}
		},
		{
			"alphaMode":"BLEND",
			"doubleSided":true,
			"name":"Material.002",
			"pbrMetallicRoughness":{
				"baseColorFactor":[
					1,
					1,
					1,
					0.5413793325424194
				],
				"baseColorTexture":{
					"index":1
				},
				"metallicFactor":0,
				"roughnessFactor":0.5
			}
		},
		{
			"doubleSided":true,
			"name":"Material.006",
			"pbrMetallicRoughness":{
				"baseColorTexture":{
					"index":2
				},
				"metallicFactor":0,
				"roughnessFactor":0.5
			}
		},
		{
			"doubleSided":true,
			"name":"Material.007",
			"pbrMetallicRoughness":{
				"baseColorTexture":{
					"index":3
				},
				"metallicFactor":0,
				"roughnessFactor":0.5
			}
		},
		{
			"doubleSided":true,
			"name":"Material.010",
			"pbrMetallicRoughness":{
				"baseColorTexture":{
					"index":4
				},
				"metallicFactor":0,
				"roughnessFactor":0.5
			}
		},
		{
			"doubleSided":true,
			"emissiveFactor":[
				1,
				1,
				1
			],
			"emissiveTexture":{
				"index":5,
				"texCoord":1
			},
			"extensions":{
				"KHR_materials_emissive_strength":{
					"emissiveStrength":3.8999998569488525
				}
			},
			"name":"Material.011",
			"pbrMetallicRoughness":{
				"baseColorTexture":{
					"index":6
				},
				"metallicFactor":0
			}
		},
		{
			"doubleSided":true,
			"name":"Material.012",
			"pbrMetallicRoughness":{
				"baseColorTexture":{
					"index":7
				},
				"metallicFactor":0
			}
		},
		{
			"doubleSided":true,
			"emissiveFactor":[
				1,
				1,
				1
			],
			"emissiveTexture":{
				"index":8,
				"texCoord":1
			},
			"extensions":{
				"KHR_materials_emissive_strength":{
					"emissiveStrength":3.8999998569488525
				}
			},
			"name":"Material.013",
			"pbrMetallicRoughness":{
				"baseColorTexture":{
					"index":9
				},
				"metallicFactor":0
			}
		},
		{
			"doubleSided":true,
			"name":"Material.014",
			"pbrMetallicRoughness":{
				"baseColorTexture":{
					"index":10
				},
				"metallicFactor":0
			}
		},
		{
			"doubleSided":true,
			"name":"Material.015",
			"pbrMetallicRoughness":{
				"baseColorTexture":{
					"index":11
				},
				"metallicFactor":0,
				"roughnessFactor":0.5
			}
		}
	],
	"meshes":[
		{
			"name":"Cylinder",
			"primitives":[
				{
					"attributes":{
						"POSITION":0,
						"NORMAL":1,
						"TEXCOORD_0":2
					},
					"indices":3,
					"material":0
				}
			]
		},
		{
			"name":"Circle.013",
			"primitives":[
				{
					"attributes":{
						"POSITION":4,
						"NORMAL":5,
						"TEXCOORD_0":6
					},
					"indices":7,
					"material":1
				}
			]
		},
		{
			"name":"Circle.001",
			"primitives":[
				{
					"attributes":{
						"POSITION":8,
						"NORMAL":9,
						"TEXCOORD_0":10
					},
					"indices":7,
					"material":1
				}
			]
		},
		{
			"name":"Sphere.013",
			"primitives":[
				{
					"attributes":{
						"POSITION":11,
						"NORMAL":12,
						"TEXCOORD_0":13
					},
					"indices":14,
					"material":2
				}
			]
		},
		{
			"name":"Sphere.002",
			"primitives":[
				{
					"attributes":{
						"POSITION":15,
						"NORMAL":16,
						"TEXCOORD_0":17
					},
					"indices":18,
					"material":3
				}
			]
		},
		{
			"name":"Sphere.003",
			"primitives":[
				{
					"attributes":{
						"POSITION":19,
						"NORMAL":20,
						"TEXCOORD_0":21
					},
					"indices":22,
					"material":4
				}
			]
		},
		{
			"name":"Sphere.006",
			"primitives":[
				{
					"attributes":{
						"POSITION":23,
						"NORMAL":24,
						"TEXCOORD_0":25,
						"TEXCOORD_1":26
					},
					"indices":27,
					"material":5
				},
				{
					"attributes":{
						"POSITION":28,
						"NORMAL":29,
						"TEXCOORD_0":30,
						"TEXCOORD_1":31
					},
					"indices":32,
					"material":6
				},
				{
					"attributes":{
						"POSITION":33,
						"NORMAL":34,
						"TEXCOORD_0":35,
						"TEXCOORD_1":36
					},
					"indices":37,
					"material":7
				},
				{
					"attributes":{
						"POSITION":38,
						"NORMAL":39,
						"TEXCOORD_0":40,
						"TEXCOORD_1":41
					},
					"indices":42,
					"material":8
				}
			]
		},
		{
			"name":"Circle.003",
			"primitives":[
				{
					"attributes":{
						"POSITION":43,
						"NORMAL":44,
						"TEXCOORD_0":45
					},
					"indices":46,
					"material":9
				}
			]
		},
		{
			"name":"Circle.002",
			"primitives":[
				{
					"attributes":{
						"POSITION":47,
						"NORMAL":48,
						"TEXCOORD_0":49
					},
					"indices":46,
					"material":9
				}
			]
		},
		{
			"name":"Circle.004",
			"primitives":[
				{
					"attributes":{
						"POSITION":50,
						"NORMAL":51,
						"TEXCOORD_0":52
					},
					"indices":46,
					"material":9
				}
			]
		},
		{
			"name":"Circle.005",
			"primitives":[
				{
					"attributes":{
						"POSITION":53,
						"NORMAL":54,
						"TEXCOORD_0":55
					},
					"indices":46,
					"material":9
				}
			]
		},
		{
			"name":"Circle.006",
			"primitives":[
				{
					"attributes":{
						"POSITION":56,
						"NORMAL":57,
						"TEXCOORD_0":58
					},
					"indices":46,
					"material":9
				}
			]
		},
		{
			"name":"Circle.007",
			"primitives":[
				{
					"attributes":{
						"POSITION":59,
						"NORMAL":60,
						"TEXCOORD_0":61
					},
					"indices":46,
					"material":9
				}
			]
		},
		{
			"name":"Circle.008",
			"primitives":[
				{
					"attributes":{
						"POSITION":62,
						"NORMAL":63,
						"TEXCOORD_0":64
					},
					"indices":46,
					"material":9
				}
			]
		},
		{
			"name":"Circle.009",
			"primitives":[
				{
					"attributes":{
						"POSITION":65,
						"NORMAL":66,
						"TEXCOORD_0":67
					},
					"indices":46,
					"material":9
				}
			]
		}
	],
	"textures":[
		{
			"sampler":0,
			"source":0
		},
		{
			"sampler":0,
			"source":0
		},
		{
			"sampler":1,
			"source":0
		},
		{
			"sampler":1,
			"source":0
		},
		{
			"sampler":1,
			"source":0
		},
		{
			"sampler":0,
			"source":1
		},
		{
			"sampler":0,
			"source":0
		},
		{
			"sampler":1,
			"source":0
		},
		{
			"sampler":0,
			"source":1
		},
		{
			"sampler":0,
			"source":0
		},
		{
			"sampler":1,
			"source":0
		},
		{
			"sampler":1,
			"source":2
		}
	],
	"images":[
		{
			"mimeType":"image/png",
			"name":"palette",
			"uri": "../../../textures/palette.png"
		},
		{
			"mimeType":"image/png",
			"name":"piecz",
			"uri":"piecz.png"
		},
		{
			"mimeType":"image/png",
			"name":"pomidor",
			"uri":"pomidor.png"
		}
	],
	"accessors":[
		{
			"bufferView":0,
			"componentType":5126,
			"count":914,
			"max":[
				0.7574785351753235,
				0.06464944034814835,
				0.668925404548645
			],
			"min":[
				-0.6845555901527405,
				-0.0001652594655752182,
				-0.773108720779419
			],
			"type":"VEC3"
		},
		{
			"bufferView":1,
			"componentType":5126,
			"count":914,
			"type":"VEC3"
		},
		{
			"bufferView":2,
			"componentType":5126,
			"count":914,
			"type":"VEC2"
		},
		{
			"bufferView":3,
			"componentType":5123,
			"count":2952,
			"type":"SCALAR"
		},
		{
			"bufferView":4,
			"componentType":5126,
			"count":32,
			"max":[
				0.6346680521965027,
				0.027882084250450134,
				0.553123950958252
			],
			"min":[
				-0.5675169825553894,
				0.027882084250450134,
				-0.6490610837936401
			],
			"type":"VEC3"
		},
		{
			"bufferView":5,
			"componentType":5126,
			"count":32,
			"type":"VEC3"
		},
		{
			"bufferView":6,
			"componentType":5126,
			"count":32,
			"type":"VEC2"
		},
		{
			"bufferView":7,
			"componentType":5123,
			"count":90,
			"type":"SCALAR"
		},
		{
			"bufferView":8,
			"componentType":5126,
			"count":32,
			"max":[
				0.6892203688621521,
				0.027696235105395317,
				0.6006672382354736
			],
			"min":[
				-0.6162974238395691,
				0.027696235105395317,
				-0.7048505544662476
			],
			"type":"VEC3"
		},
		{
			"bufferView":9,
			"componentType":5126,
			"count":32,
			"type":"VEC3"
		},
		{
			"bufferView":10,
			"componentType":5126,
			"count":32,
			"type":"VEC2"
		},
		{
			"bufferView":11,
			"componentType":5126,
			"count":2816,
			"max":[
				0.3752247393131256,
				0.03217616304755211,
				0.4067000448703766
			],
			"min":[
				-0.37522467970848083,
				0.02924586646258831,
				-0.4751221537590027
			],
			"type":"VEC3"
		},
		{
			"bufferView":12,
			"componentType":5126,
			"count":2816,
			"type":"VEC3"
		},
		{
			"bufferView":13,
			"componentType":5126,
			"count":2816,
			"type":"VEC2"
		},
		{
			"bufferView":14,
			"componentType":5123,
			"count":9168,
			"type":"SCALAR"
		},
		{
			"bufferView":15,
			"componentType":5126,
			"count":1408,
			"max":[
				0.5853284597396851,
				0.036162007600069046,
				0.07850662618875504
			],
			"min":[
				-0.49810463190078735,
				0.0332317128777504,
				-0.13938750326633453
			],
			"type":"VEC3"
		},
		{
			"bufferView":16,
			"componentType":5126,
			"count":1408,
			"type":"VEC3"
		},
		{
			"bufferView":17,
			"componentType":5126,
			"count":1408,
			"type":"VEC2"
		},
		{
			"bufferView":18,
			"componentType":5123,
			"count":4584,
			"type":"SCALAR"
		},
		{
			"bufferView":19,
			"componentType":5126,
			"count":704,
			"max":[
				0.1415460705757141,
				0.036162007600069046,
				-0.02596057951450348
			],
			"min":[
				-0.12192045152187347,
				0.0332317128777504,
				-0.24385471642017365
			],
			"type":"VEC3"
		},
		{
			"bufferView":20,
			"componentType":5126,
			"count":704,
			"type":"VEC3"
		},
		{
			"bufferView":21,
			"componentType":5126,
			"count":704,
			"type":"VEC2"
		},
		{
			"bufferView":22,
			"componentType":5123,
			"count":2292,
			"type":"SCALAR"
		},
		{
			"bufferView":23,
			"componentType":5126,
			"count":1552,
			"max":[
				0.4243302345275879,
				0.030098045244812965,
				0.2376699298620224
			],
			"min":[
				-0.5285285115242004,
				0.02128465846180916,
				-0.36345821619033813
			],
			"type":"VEC3"
		},
		{
			"bufferView":24,
			"componentType":5126,
			"count":1552,
			"type":"VEC3"
		},
		{
			"bufferView":25,
			"componentType":5126,
			"count":1552,
			"type":"VEC2"
		},
		{
			"bufferView":26,
			"componentType":5126,
			"count":1552,
			"type":"VEC2"
		},
		{
			"bufferView":27,
			"componentType":5123,
			"count":4488,
			"type":"SCALAR"
		},
		{
			"bufferView":28,
			"componentType":5126,
			"count":632,
			"max":[
				0.3501650094985962,
				0.03028583526611328,
				0.1596219688653946
			],
			"min":[
				-0.45691388845443726,
				0.021112652495503426,
				-0.2841303050518036
			],
			"type":"VEC3"
		},
		{
			"bufferView":29,
			"componentType":5126,
			"count":632,
			"type":"VEC3"
		},
		{
			"bufferView":30,
			"componentType":5126,
			"count":632,
			"type":"VEC2"
		},
		{
			"bufferView":31,
			"componentType":5126,
			"count":632,
			"type":"VEC2"
		},
		{
			"bufferView":32,
			"componentType":5123,
			"count":1536,
			"type":"SCALAR"
		},
		{
			"bufferView":33,
			"componentType":5126,
			"count":4656,
			"max":[
				0.5273944139480591,
				0.030098043382167816,
				0.5210757255554199
			],
			"min":[
				-0.4702524244785309,
				0.021284665912389755,
				-0.6250742673873901
			],
			"type":"VEC3"
		},
		{
			"bufferView":34,
			"componentType":5126,
			"count":4656,
			"type":"VEC3"
		},
		{
			"bufferView":35,
			"componentType":5126,
			"count":4656,
			"type":"VEC2"
		},
		{
			"bufferView":36,
			"componentType":5126,
			"count":4656,
			"type":"VEC2"
		},
		{
			"bufferView":37,
			"componentType":5123,
			"count":13464,
			"type":"SCALAR"
		},
		{
			"bufferView":38,
			"componentType":5126,
			"count":1896,
			"max":[
				0.4838635325431824,
				0.030285829678177834,
				0.45452725887298584
			],
			"min":[
				-0.4267215430736542,
				0.02111264131963253,
				-0.5585257411003113
			],
			"type":"VEC3"
		},
		{
			"bufferView":39,
			"componentType":5126,
			"count":1896,
			"type":"VEC3"
		},
		{
			"bufferView":40,
			"componentType":5126,
			"count":1896,
			"type":"VEC2"
		},
		{
			"bufferView":41,
			"componentType":5126,
			"count":1896,
			"type":"VEC2"
		},
		{
			"bufferView":42,
			"componentType":5123,
			"count":4608,
			"type":"SCALAR"
		},
		{
			"bufferView":43,
			"componentType":5126,
			"count":136,
			"max":[
				-0.03373163938522339,
				0.042609915137290955,
				0.10628566145896912
			],
			"min":[
				-0.21125200390815735,
				0.032528698444366455,
				-0.05205829441547394
			],
			"type":"VEC3"
		},
		{
			"bufferView":44,
			"componentType":5126,
			"count":136,
			"type":"VEC3"
		},
		{
			"bufferView":45,
			"componentType":5126,
			"count":136,
			"type":"VEC2"
		},
		{
			"bufferView":46,
			"componentType":5123,
			"count":372,
			"type":"SCALAR"
		},
		{
			"bufferView":47,
			"componentType":5126,
			"count":136,
			"max":[
				0.2969112992286682,
				0.042609915137290955,
				0.061127372086048126
			],
			"min":[
				0.1261553168296814,
				0.032528698444366455,
				-0.10395212471485138
			],
			"type":"VEC3"
		},
		{
			"bufferView":48,
			"componentType":5126,
			"count":136,
			"type":"VEC3"
		},
		{
			"bufferView":49,
			"componentType":5126,
			"count":136,
			"type":"VEC2"
		},
		{
			"bufferView":50,
			"componentType":5126,
			"count":136,
			"max":[
				0.10473005473613739,
				0.042609915137290955,
				-0.36592796444892883
			],
			"min":[
				-0.06602591276168823,
				0.032528698444366455,
				-0.5310074687004089
			],
			"type":"VEC3"
		},
		{
			"bufferView":51,
			"componentType":5126,
			"count":136,
			"type":"VEC3"
		},
		{
			"bufferView":52,
			"componentType":5126,
			"count":136,
			"type":"VEC2"
		},
		{
			"bufferView":53,
			"componentType":5126,
			"count":136,
			"max":[
				0.10473005473613739,
				0.042609915137290955,
				0.4083349108695984
			],
			"min":[
				-0.06602591276168823,
				0.032528698444366455,
				0.2432554066181183
			],
			"type":"VEC3"
		},
		{
			"bufferView":54,
			"componentType":5126,
			"count":136,
			"type":"VEC3"
		},
		{
			"bufferView":55,
			"componentType":5126,
			"count":136,
			"type":"VEC2"
		},
		{
			"bufferView":56,
			"componentType":5126,
			"count":136,
			"max":[
				0.6249072551727295,
				0.042609915137290955,
				0.2158662974834442
			],
			"min":[
				0.45415133237838745,
				0.032528698444366455,
				0.05078679323196411
			],
			"type":"VEC3"
		},
		{
			"bufferView":57,
			"componentType":5126,
			"count":136,
			"type":"VEC3"
		},
		{
			"bufferView":58,
			"componentType":5126,
			"count":136,
			"type":"VEC2"
		},
		{
			"bufferView":59,
			"componentType":5126,
			"count":136,
			"max":[
				0.5229036211967468,
				0.042609915137290955,
				-0.33656153082847595
			],
			"min":[
				0.35214763879776,
				0.032528698444366455,
				-0.501641035079956
			],
			"type":"VEC3"
		},
		{
			"bufferView":60,
			"componentType":5126,
			"count":136,
			"type":"VEC3"
		},
		{
			"bufferView":61,
			"componentType":5126,
			"count":136,
			"type":"VEC2"
		},
		{
			"bufferView":62,
			"componentType":5126,
			"count":136,
			"max":[
				-0.348954439163208,
				0.042609915137290955,
				0.25065532326698303
			],
			"min":[
				-0.5197104215621948,
				0.032528698444366455,
				0.08557583391666412
			],
			"type":"VEC3"
		},
		{
			"bufferView":63,
			"componentType":5126,
			"count":136,
			"type":"VEC3"
		},
		{
			"bufferView":64,
			"componentType":5126,
			"count":136,
			"type":"VEC2"
		},
		{
			"bufferView":65,
			"componentType":5126,
			"count":136,
			"max":[
				-0.35973331332206726,
				0.042609915137290955,
				-0.07424524426460266
			],
			"min":[
				-0.5304892659187317,
				0.032528698444366455,
				-0.23932474851608276
			],
			"type":"VEC3"
		},
		{
			"bufferView":66,
			"componentType":5126,
			"count":136,
			"type":"VEC3"
		},
		{
			"bufferView":67,
			"componentType":5126,
			"count":136,
			"type":"VEC2"
		}
	],
	"bufferViews":[
		{
			"buffer":0,
			"byteLength":10968,
			"byteOffset":0,
			"target":34962
		},
		{
			"buffer":0,
			"byteLength":10968,
			"byteOffset":10968,
			"target":34962
		},
		{
			"buffer":0,
			"byteLength":7312,
			"byteOffset":21936,
			"target":34962
		},
		{
			"buffer":0,
			"byteLength":5904,
			"byteOffset":29248,
			"target":34963
		},
		{
			"buffer":0,
			"byteLength":384,
			"byteOffset":35152,
			"target":34962
		},
		{
			"buffer":0,
			"byteLength":384,
			"byteOffset":35536,
			"target":34962
		},
		{
			"buffer":0,
			"byteLength":256,
			"byteOffset":35920,
			"target":34962
		},
		{
			"buffer":0,
			"byteLength":180,
			"byteOffset":36176,
			"target":34963
		},
		{
			"buffer":0,
			"byteLength":384,
			"byteOffset":36356,
			"target":34962
		},
		{
			"buffer":0,
			"byteLength":384,
			"byteOffset":36740,
			"target":34962
		},
		{
			"buffer":0,
			"byteLength":256,
			"byteOffset":37124,
			"target":34962
		},
		{
			"buffer":0,
			"byteLength":33792,
			"byteOffset":37380,
			"target":34962
		},
		{
			"buffer":0,
			"byteLength":33792,
			"byteOffset":71172,
			"target":34962
		},
		{
			"buffer":0,
			"byteLength":22528,
			"byteOffset":104964,
			"target":34962
		},
		{
			"buffer":0,
			"byteLength":18336,
			"byteOffset":127492,
			"target":34963
		},
		{
			"buffer":0,
			"byteLength":16896,
			"byteOffset":145828,
			"target":34962
		},
		{
			"buffer":0,
			"byteLength":16896,
			"byteOffset":162724,
			"target":34962
		},
		{
			"buffer":0,
			"byteLength":11264,
			"byteOffset":179620,
			"target":34962
		},
		{
			"buffer":0,
			"byteLength":9168,
			"byteOffset":190884,
			"target":34963
		},
		{
			"buffer":0,
			"byteLength":8448,
			"byteOffset":200052,
			"target":34962
		},
		{
			"buffer":0,
			"byteLength":8448,
			"byteOffset":208500,
			"target":34962
		},
		{
			"buffer":0,
			"byteLength":5632,
			"byteOffset":216948,
			"target":34962
		},
		{
			"buffer":0,
			"byteLength":4584,
			"byteOffset":222580,
			"target":34963
		},
		{
			"buffer":0,
			"byteLength":18624,
			"byteOffset":227164,
			"target":34962
		},
		{
			"buffer":0,
			"byteLength":18624,
			"byteOffset":245788,
			"target":34962
		},
		{
			"buffer":0,
			"byteLength":12416,
			"byteOffset":264412,
			"target":34962
		},
		{
			"buffer":0,
			"byteLength":12416,
			"byteOffset":276828,
			"target":34962
		},
		{
			"buffer":0,
			"byteLength":8976,
			"byteOffset":289244,
			"target":34963
		},
		{
			"buffer":0,
			"byteLength":7584,
			"byteOffset":298220,
			"target":34962
		},
		{
			"buffer":0,
			"byteLength":7584,
			"byteOffset":305804,
			"target":34962
		},
		{
			"buffer":0,
			"byteLength":5056,
			"byteOffset":313388,
			"target":34962
		},
		{
			"buffer":0,
			"byteLength":5056,
			"byteOffset":318444,
			"target":34962
		},
		{
			"buffer":0,
			"byteLength":3072,
			"byteOffset":323500,
			"target":34963
		},
		{
			"buffer":0,
			"byteLength":55872,
			"byteOffset":326572,
			"target":34962
		},
		{
			"buffer":0,
			"byteLength":55872,
			"byteOffset":382444,
			"target":34962
		},
		{
			"buffer":0,
			"byteLength":37248,
			"byteOffset":438316,
			"target":34962
		},
		{
			"buffer":0,
			"byteLength":37248,
			"byteOffset":475564,
			"target":34962
		},
		{
			"buffer":0,
			"byteLength":26928,
			"byteOffset":512812,
			"target":34963
		},
		{
			"buffer":0,
			"byteLength":22752,
			"byteOffset":539740,
			"target":34962
		},
		{
			"buffer":0,
			"byteLength":22752,
			"byteOffset":562492,
			"target":34962
		},
		{
			"buffer":0,
			"byteLength":15168,
			"byteOffset":585244,
			"target":34962
		},
		{
			"buffer":0,
			"byteLength":15168,
			"byteOffset":600412,
			"target":34962
		},
		{
			"buffer":0,
			"byteLength":9216,
			"byteOffset":615580,
			"target":34963
		},
		{
			"buffer":0,
			"byteLength":1632,
			"byteOffset":624796,
			"target":34962
		},
		{
			"buffer":0,
			"byteLength":1632,
			"byteOffset":626428,
			"target":34962
		},
		{
			"buffer":0,
			"byteLength":1088,
			"byteOffset":628060,
			"target":34962
		},
		{
			"buffer":0,
			"byteLength":744,
			"byteOffset":629148,
			"target":34963
		},
		{
			"buffer":0,
			"byteLength":1632,
			"byteOffset":629892,
			"target":34962
		},
		{
			"buffer":0,
			"byteLength":1632,
			"byteOffset":631524,
			"target":34962
		},
		{
			"buffer":0,
			"byteLength":1088,
			"byteOffset":633156,
			"target":34962
		},
		{
			"buffer":0,
			"byteLength":1632,
			"byteOffset":634244,
			"target":34962
		},
		{
			"buffer":0,
			"byteLength":1632,
			"byteOffset":635876,
			"target":34962
		},
		{
			"buffer":0,
			"byteLength":1088,
			"byteOffset":637508,
			"target":34962
		},
		{
			"buffer":0,
			"byteLength":1632,
			"byteOffset":638596,
			"target":34962
		},
		{
			"buffer":0,
			"byteLength":1632,
			"byteOffset":640228,
			"target":34962
		},
		{
			"buffer":0,
			"byteLength":1088,
			"byteOffset":641860,
			"target":34962
		},
		{
			"buffer":0,
			"byteLength":1632,
			"byteOffset":642948,
			"target":34962
		},
		{
			"buffer":0,
			"byteLength":1632,
			"byteOffset":644580,
			"target":34962
		},
		{
			"buffer":0,
			"byteLength":1088,
			"byteOffset":646212,
			"target":34962
		},
		{
			"buffer":0,
			"byteLength":1632,
			"byteOffset":647300,
			"target":34962
		},
		{
			"buffer":0,
			"byteLength":1632,
			"byteOffset":648932,
			"target":34962
		},
		{
			"buffer":0,
			"byteLength":1088,
			"byteOffset":650564,
			"target":34962
		},
		{
			"buffer":0,
			"byteLength":1632,
			"byteOffset":651652,
			"target":34962
		},
		{
			"buffer":0,
			"byteLength":1632,
			"byteOffset":653284,
			"target":34962
		},
		{
			"buffer":0,
			"byteLength":1088,
			"byteOffset":654916,
			"target":34962
		},
		{
			"buffer":0,
			"byteLength":1632,
			"byteOffset":656004,
			"target":34962
		},
		{
			"buffer":0,
			"byteLength":1632,
			"byteOffset":657636,
			"target":34962
		},
		{
			"buffer":0,
			"byteLength":1088,
			"byteOffset":659268,
			"target":34962
		}
	],
	"samplers":[
		{
			"magFilter":9728,
			"minFilter":9984
		},
		{
			"magFilter":9729,
			"minFilter":9987
		}
	],
	"buffers":[
		{
			"byteLength":660356,
			"uri":"pizza_z_szynka_pieczarki_pomidor.bin"
		}
	]
}
