{
	"asset":{
		"generator":"Khronos glTF Blender I/O v4.5.48",
		"version":"2.0"
	},
	"extensionsUsed":[
		"KHR_materials_emissive_strength"
	],
	"scene":0,
	"scenes":[
		{
			"name":"Scene",
			"nodes":[
				0,
				1,
				2,
				3
			]
		}
	],
	"nodes":[
		{
			"mesh":0,
			"name":"Cylinder"
		},
		{
			"mesh":1,
			"name":"Circle.001"
		},
		{
			"mesh":2,
			"name":"Sphere.005"
		},
		{
			"mesh":3,
			"name":"Circle.002"
		}
	],
	"materials":[
		{
			"doubleSided":true,
			"name":"Material.001",
			"pbrMetallicRoughness":{
				"baseColorTexture":{
					"index":0
				},
				"metallicFactor":0,
				"roughnessFactor":0.5
			}
		},
		{
			"alphaMode":"BLEND",
			"doubleSided":true,
			"name":"Material.002",
			"pbrMetallicRoughness":{
				"baseColorFactor":[
					1,
					1,
					1,
					0.5413793325424194
				],
				"baseColorTexture":{
					"index":1
				},
				"metallicFactor":0,
				"roughnessFactor":0.5
			}
		},
		{
			"doubleSided":true,
			"emissiveFactor":[
				1,
				1,
				1
			],
			"emissiveTexture":{
				"index":2,
				"texCoord":1
			},
			"extensions":{
				"KHR_materials_emissive_strength":{
					"emissiveStrength":3.8999998569488525
				}
			},
			"name":"Material.008",
			"pbrMetallicRoughness":{
				"baseColorTexture":{
					"index":3
				},
				"metallicFactor":0
			}
		},
		{
			"doubleSided":true,
			"name":"Material.009",
			"pbrMetallicRoughness":{
				"baseColorTexture":{
					"index":4
				},
				"metallicFactor":0
			}
		},
		{
			"doubleSided":true,
			"emissiveFactor":[
				1,
				1,
				1
			],
			"emissiveTexture":{
				"index":5,
				"texCoord":1
			},
			"extensions":{
				"KHR_materials_emissive_strength":{
					"emissiveStrength":3.8999998569488525
				}
			},
			"name":"Material.004",
			"pbrMetallicRoughness":{
				"baseColorTexture":{
					"index":6
				},
				"metallicFactor":0
			}
		},
		{
			"doubleSided":true,
			"name":"Material.005",
			"pbrMetallicRoughness":{
				"baseColorTexture":{
					"index":7
				},
				"metallicFactor":0
			}
		}
	],
	"meshes":[
		{
			"name":"Cylinder",
			"primitives":[
				{
					"attributes":{
						"POSITION":0,
						"NORMAL":1,
						"TEXCOORD_0":2
					},
					"indices":3,
					"material":0
				}
			]
		},
		{
			"name":"Circle.013",
			"primitives":[
				{
					"attributes":{
						"POSITION":4,
						"NORMAL":5,
						"TEXCOORD_0":6
					},
					"indices":7,
					"material":1
				}
			]
		},
		{
			"name":"Sphere.006",
			"primitives":[
				{
					"attributes":{
						"POSITION":8,
						"NORMAL":9,
						"TEXCOORD_0":10,
						"TEXCOORD_1":11
					},
					"indices":12,
					"material":2
				},
				{
					"attributes":{
						"POSITION":13,
						"NORMAL":14,
						"TEXCOORD_0":15,
						"TEXCOORD_1":16
					},
					"indices":17,
					"material":3
				},
				{
					"attributes":{
						"POSITION":18,
						"NORMAL":19,
						"TEXCOORD_0":20,
						"TEXCOORD_1":21
					},
					"indices":22,
					"material":4
				},
				{
					"attributes":{
						"POSITION":23,
						"NORMAL":24,
						"TEXCOORD_0":25,
						"TEXCOORD_1":26
					},
					"indices":27,
					"material":5
				}
			]
		},
		{
			"name":"Circle.001",
			"primitives":[
				{
					"attributes":{
						"POSITION":28,
						"NORMAL":29,
						"TEXCOORD_0":30
					},
					"indices":7,
					"material":1
				}
			]
		}
	],
	"textures":[
		{
			"sampler":0,
			"source":0
		},
		{
			"sampler":0,
			"source":0
		},
		{
			"sampler":0,
			"source":1
		},
		{
			"sampler":0,
			"source":0
		},
		{
			"sampler":1,
			"source":0
		},
		{
			"sampler":0,
			"source":1
		},
		{
			"sampler":0,
			"source":0
		},
		{
			"sampler":1,
			"source":0
		}
	],
	"images":[
		{
			"mimeType":"image/png",
			"name":"palette",
			"uri": "../../../textures/palette.png"
		},
		{
			"mimeType":"image/png",
			"name":"piecz",
			"uri":"piecz.png"
		}
	],
	"accessors":[
		{
			"bufferView":0,
			"componentType":5126,
			"count":914,
			"max":[
				0.7574785351753235,
				0.06480816751718521,
				0.668925404548645
			],
			"min":[
				-0.6845555901527405,
				-6.532296538352966e-06,
				-0.773108720779419
			],
			"type":"VEC3"
		},
		{
			"bufferView":1,
			"componentType":5126,
			"count":914,
			"type":"VEC3"
		},
		{
			"bufferView":2,
			"componentType":5126,
			"count":914,
			"type":"VEC2"
		},
		{
			"bufferView":3,
			"componentType":5123,
			"count":2952,
			"type":"SCALAR"
		},
		{
			"bufferView":4,
			"componentType":5126,
			"count":32,
			"max":[
				0.6346680521965027,
				0.028040811419487,
				0.553123950958252
			],
			"min":[
				-0.5675169825553894,
				0.028040811419487,
				-0.6490610837936401
			],
			"type":"VEC3"
		},
		{
			"bufferView":5,
			"componentType":5126,
			"count":32,
			"type":"VEC3"
		},
		{
			"bufferView":6,
			"componentType":5126,
			"count":32,
			"type":"VEC2"
		},
		{
			"bufferView":7,
			"componentType":5123,
			"count":90,
			"type":"SCALAR"
		},
		{
			"bufferView":8,
			"componentType":5126,
			"count":1552,
			"max":[
				0.5851724743843079,
				0.03025677241384983,
				0.2376699298620224
			],
			"min":[
				-0.5285285115242004,
				0.021443385630846024,
				-0.36345821619033813
			],
			"type":"VEC3"
		},
		{
			"bufferView":9,
			"componentType":5126,
			"count":1552,
			"type":"VEC3"
		},
		{
			"bufferView":10,
			"componentType":5126,
			"count":1552,
			"type":"VEC2"
		},
		{
			"bufferView":11,
			"componentType":5126,
			"count":1552,
			"type":"VEC2"
		},
		{
			"bufferView":12,
			"componentType":5123,
			"count":4488,
			"type":"SCALAR"
		},
		{
			"bufferView":13,
			"componentType":5126,
			"count":632,
			"max":[
				0.5110072493553162,
				0.030444562435150146,
				0.1596219688653946
			],
			"min":[
				-0.45691388845443726,
				0.02127137966454029,
				-0.2841303050518036
			],
			"type":"VEC3"
		},
		{
			"bufferView":14,
			"componentType":5126,
			"count":632,
			"type":"VEC3"
		},
		{
			"bufferView":15,
			"componentType":5126,
			"count":632,
			"type":"VEC2"
		},
		{
			"bufferView":16,
			"componentType":5126,
			"count":632,
			"type":"VEC2"
		},
		{
			"bufferView":17,
			"componentType":5123,
			"count":1536,
			"type":"SCALAR"
		},
		{
			"bufferView":18,
			"componentType":5126,
			"count":4656,
			"max":[
				0.5273944139480591,
				0.03025677055120468,
				0.5210757255554199
			],
			"min":[
				-0.4702524244785309,
				0.02144339308142662,
				-0.6250742673873901
			],
			"type":"VEC3"
		},
		{
			"bufferView":19,
			"componentType":5126,
			"count":4656,
			"type":"VEC3"
		},
		{
			"bufferView":20,
			"componentType":5126,
			"count":4656,
			"type":"VEC2"
		},
		{
			"bufferView":21,
			"componentType":5126,
			"count":4656,
			"type":"VEC2"
		},
		{
			"bufferView":22,
			"componentType":5123,
			"count":13464,
			"type":"SCALAR"
		},
		{
			"bufferView":23,
			"componentType":5126,
			"count":1896,
			"max":[
				0.4838635325431824,
				0.0304445568472147,
				0.45452725887298584
			],
			"min":[
				-0.4267215430736542,
				0.021271368488669395,
				-0.5585257411003113
			],
			"type":"VEC3"
		},
		{
			"bufferView":24,
			"componentType":5126,
			"count":1896,
			"type":"VEC3"
		},
		{
			"bufferView":25,
			"componentType":5126,
			"count":1896,
			"type":"VEC2"
		},
		{
			"bufferView":26,
			"componentType":5126,
			"count":1896,
			"type":"VEC2"
		},
		{
			"bufferView":27,
			"componentType":5123,
			"count":4608,
			"type":"SCALAR"
		},
		{
			"bufferView":28,
			"componentType":5126,
			"count":32,
			"max":[
				0.6892203688621521,
				0.027854962274432182,
				0.6006672382354736
			],
			"min":[
				-0.6162974238395691,
				0.027854962274432182,
				-0.7048505544662476
			],
			"type":"VEC3"
		},
		{
			"bufferView":29,
			"componentType":5126,
			"count":32,
			"type":"VEC3"
		},
		{
			"bufferView":30,
			"componentType":5126,
			"count":32,
			"type":"VEC2"
		}
	],
	"bufferViews":[
		{
			"buffer":0,
			"byteLength":10968,
			"byteOffset":0,
			"target":34962
		},
		{
			"buffer":0,
			"byteLength":10968,
			"byteOffset":10968,
			"target":34962
		},
		{
			"buffer":0,
			"byteLength":7312,
			"byteOffset":21936,
			"target":34962
		},
		{
			"buffer":0,
			"byteLength":5904,
			"byteOffset":29248,
			"target":34963
		},
		{
			"buffer":0,
			"byteLength":384,
			"byteOffset":35152,
			"target":34962
		},
		{
			"buffer":0,
			"byteLength":384,
			"byteOffset":35536,
			"target":34962
		},
		{
			"buffer":0,
			"byteLength":256,
			"byteOffset":35920,
			"target":34962
		},
		{
			"buffer":0,
			"byteLength":180,
			"byteOffset":36176,
			"target":34963
		},
		{
			"buffer":0,
			"byteLength":18624,
			"byteOffset":36356,
			"target":34962
		},
		{
			"buffer":0,
			"byteLength":18624,
			"byteOffset":54980,
			"target":34962
		},
		{
			"buffer":0,
			"byteLength":12416,
			"byteOffset":73604,
			"target":34962
		},
		{
			"buffer":0,
			"byteLength":12416,
			"byteOffset":86020,
			"target":34962
		},
		{
			"buffer":0,
			"byteLength":8976,
			"byteOffset":98436,
			"target":34963
		},
		{
			"buffer":0,
			"byteLength":7584,
			"byteOffset":107412,
			"target":34962
		},
		{
			"buffer":0,
			"byteLength":7584,
			"byteOffset":114996,
			"target":34962
		},
		{
			"buffer":0,
			"byteLength":5056,
			"byteOffset":122580,
			"target":34962
		},
		{
			"buffer":0,
			"byteLength":5056,
			"byteOffset":127636,
			"target":34962
		},
		{
			"buffer":0,
			"byteLength":3072,
			"byteOffset":132692,
			"target":34963
		},
		{
			"buffer":0,
			"byteLength":55872,
			"byteOffset":135764,
			"target":34962
		},
		{
			"buffer":0,
			"byteLength":55872,
			"byteOffset":191636,
			"target":34962
		},
		{
			"buffer":0,
			"byteLength":37248,
			"byteOffset":247508,
			"target":34962
		},
		{
			"buffer":0,
			"byteLength":37248,
			"byteOffset":284756,
			"target":34962
		},
		{
			"buffer":0,
			"byteLength":26928,
			"byteOffset":322004,
			"target":34963
		},
		{
			"buffer":0,
			"byteLength":22752,
			"byteOffset":348932,
			"target":34962
		},
		{
			"buffer":0,
			"byteLength":22752,
			"byteOffset":371684,
			"target":34962
		},
		{
			"buffer":0,
			"byteLength":15168,
			"byteOffset":394436,
			"target":34962
		},
		{
			"buffer":0,
			"byteLength":15168,
			"byteOffset":409604,
			"target":34962
		},
		{
			"buffer":0,
			"byteLength":9216,
			"byteOffset":424772,
			"target":34963
		},
		{
			"buffer":0,
			"byteLength":384,
			"byteOffset":433988,
			"target":34962
		},
		{
			"buffer":0,
			"byteLength":384,
			"byteOffset":434372,
			"target":34962
		},
		{
			"buffer":0,
			"byteLength":256,
			"byteOffset":434756,
			"target":34962
		}
	],
	"samplers":[
		{
			"magFilter":9728,
			"minFilter":9984
		},
		{
			"magFilter":9729,
			"minFilter":9987
		}
	],
	"buffers":[
		{
			"byteLength":435012,
			"uri":"pizza_pieczarki.bin"
		}
	]
}
