{
	"asset":{
		"generator":"Khronos glTF Blender I/O v4.5.48",
		"version":"2.0"
	},
	"scene":0,
	"scenes":[
		{
			"name":"Scene",
			"nodes":[
				0,
				1,
				2,
				3,
				4,
				5
			]
		}
	],
	"nodes":[
		{
			"mesh":0,
			"name":"Cylinder"
		},
		{
			"mesh":1,
			"name":"Circle.001"
		},
		{
			"mesh":2,
			"name":"Circle.002"
		},
		{
			"mesh":3,
			"name":"Sphere.005"
		},
		{
			"mesh":4,
			"name":"Sphere.001"
		},
		{
			"mesh":5,
			"name":"Sphere.002"
		}
	],
	"materials":[
		{
			"doubleSided":true,
			"name":"Material.001",
			"pbrMetallicRoughness":{
				"baseColorTexture":{
					"index":0
				},
				"metallicFactor":0,
				"roughnessFactor":0.5
			}
		},
		{
			"alphaMode":"BLEND",
			"doubleSided":true,
			"name":"Material.002",
			"pbrMetallicRoughness":{
				"baseColorFactor":[
					1,
					1,
					1,
					0.5413793325424194
				],
				"baseColorTexture":{
					"index":1
				},
				"metallicFactor":0,
				"roughnessFactor":0.5
			}
		},
		{
			"doubleSided":true,
			"name":"Material.006",
			"pbrMetallicRoughness":{
				"baseColorTexture":{
					"index":2
				},
				"metallicFactor":0,
				"roughnessFactor":0.5
			}
		},
		{
			"doubleSided":true,
			"name":"Material.007",
			"pbrMetallicRoughness":{
				"baseColorTexture":{
					"index":3
				},
				"metallicFactor":0,
				"roughnessFactor":0.5
			}
		},
		{
			"doubleSided":true,
			"name":"Material.010",
			"pbrMetallicRoughness":{
				"baseColorTexture":{
					"index":4
				},
				"metallicFactor":0,
				"roughnessFactor":0.5
			}
		}
	],
	"meshes":[
		{
			"name":"Cylinder",
			"primitives":[
				{
					"attributes":{
						"POSITION":0,
						"NORMAL":1,
						"TEXCOORD_0":2
					},
					"indices":3,
					"material":0
				}
			]
		},
		{
			"name":"Circle.013",
			"primitives":[
				{
					"attributes":{
						"POSITION":4,
						"NORMAL":5,
						"TEXCOORD_0":6
					},
					"indices":7,
					"material":1
				}
			]
		},
		{
			"name":"Circle.001",
			"primitives":[
				{
					"attributes":{
						"POSITION":8,
						"NORMAL":9,
						"TEXCOORD_0":10
					},
					"indices":7,
					"material":1
				}
			]
		},
		{
			"name":"Sphere.013",
			"primitives":[
				{
					"attributes":{
						"POSITION":11,
						"NORMAL":12,
						"TEXCOORD_0":13
					},
					"indices":14,
					"material":2
				}
			]
		},
		{
			"name":"Sphere.002",
			"primitives":[
				{
					"attributes":{
						"POSITION":15,
						"NORMAL":16,
						"TEXCOORD_0":17
					},
					"indices":18,
					"material":3
				}
			]
		},
		{
			"name":"Sphere.003",
			"primitives":[
				{
					"attributes":{
						"POSITION":19,
						"NORMAL":20,
						"TEXCOORD_0":21
					},
					"indices":22,
					"material":4
				}
			]
		}
	],
	"textures":[
		{
			"sampler":0,
			"source":0
		},
		{
			"sampler":0,
			"source":0
		},
		{
			"sampler":1,
			"source":0
		},
		{
			"sampler":1,
			"source":0
		},
		{
			"sampler":1,
			"source":0
		}
	],
	"images":[
		{
			"mimeType":"image/png",
			"name":"palette",
			"uri": "../../../textures/palette.png"
		}
	],
	"accessors":[
		{
			"bufferView":0,
			"componentType":5126,
			"count":914,
			"max":[
				0.7574785351753235,
				0.06560180336236954,
				0.668925404548645
			],
			"min":[
				-0.6845555901527405,
				0.0007871054112911224,
				-0.773108720779419
			],
			"type":"VEC3"
		},
		{
			"bufferView":1,
			"componentType":5126,
			"count":914,
			"type":"VEC3"
		},
		{
			"bufferView":2,
			"componentType":5126,
			"count":914,
			"type":"VEC2"
		},
		{
			"bufferView":3,
			"componentType":5123,
			"count":2952,
			"type":"SCALAR"
		},
		{
			"bufferView":4,
			"componentType":5126,
			"count":32,
			"max":[
				0.6346680521965027,
				0.028834449127316475,
				0.553123950958252
			],
			"min":[
				-0.5675169825553894,
				0.028834449127316475,
				-0.6490610837936401
			],
			"type":"VEC3"
		},
		{
			"bufferView":5,
			"componentType":5126,
			"count":32,
			"type":"VEC3"
		},
		{
			"bufferView":6,
			"componentType":5126,
			"count":32,
			"type":"VEC2"
		},
		{
			"bufferView":7,
			"componentType":5123,
			"count":90,
			"type":"SCALAR"
		},
		{
			"bufferView":8,
			"componentType":5126,
			"count":32,
			"max":[
				0.6892203688621521,
				0.028648599982261658,
				0.6006672382354736
			],
			"min":[
				-0.6162974238395691,
				0.028648599982261658,
				-0.7048505544662476
			],
			"type":"VEC3"
		},
		{
			"bufferView":9,
			"componentType":5126,
			"count":32,
			"type":"VEC3"
		},
		{
			"bufferView":10,
			"componentType":5126,
			"count":32,
			"type":"VEC2"
		},
		{
			"bufferView":11,
			"componentType":5126,
			"count":2816,
			"max":[
				0.3752247393131256,
				0.0331285260617733,
				0.4067000448703766
			],
			"min":[
				-0.37522467970848083,
				0.03019823133945465,
				-0.4751221537590027
			],
			"type":"VEC3"
		},
		{
			"bufferView":12,
			"componentType":5126,
			"count":2816,
			"type":"VEC3"
		},
		{
			"bufferView":13,
			"componentType":5126,
			"count":2816,
			"type":"VEC2"
		},
		{
			"bufferView":14,
			"componentType":5123,
			"count":9168,
			"type":"SCALAR"
		},
		{
			"bufferView":15,
			"componentType":5126,
			"count":1408,
			"max":[
				0.5853284597396851,
				0.037114374339580536,
				0.07850662618875504
			],
			"min":[
				-0.49810463190078735,
				0.03418407961726189,
				-0.13938750326633453
			],
			"type":"VEC3"
		},
		{
			"bufferView":16,
			"componentType":5126,
			"count":1408,
			"type":"VEC3"
		},
		{
			"bufferView":17,
			"componentType":5126,
			"count":1408,
			"type":"VEC2"
		},
		{
			"bufferView":18,
			"componentType":5123,
			"count":4584,
			"type":"SCALAR"
		},
		{
			"bufferView":19,
			"componentType":5126,
			"count":704,
			"max":[
				0.1415460705757141,
				0.037114374339580536,
				-0.02596057951450348
			],
			"min":[
				-0.12192045152187347,
				0.034184083342552185,
				-0.24385471642017365
			],
			"type":"VEC3"
		},
		{
			"bufferView":20,
			"componentType":5126,
			"count":704,
			"type":"VEC3"
		},
		{
			"bufferView":21,
			"componentType":5126,
			"count":704,
			"type":"VEC2"
		},
		{
			"bufferView":22,
			"componentType":5123,
			"count":2292,
			"type":"SCALAR"
		}
	],
	"bufferViews":[
		{
			"buffer":0,
			"byteLength":10968,
			"byteOffset":0,
			"target":34962
		},
		{
			"buffer":0,
			"byteLength":10968,
			"byteOffset":10968,
			"target":34962
		},
		{
			"buffer":0,
			"byteLength":7312,
			"byteOffset":21936,
			"target":34962
		},
		{
			"buffer":0,
			"byteLength":5904,
			"byteOffset":29248,
			"target":34963
		},
		{
			"buffer":0,
			"byteLength":384,
			"byteOffset":35152,
			"target":34962
		},
		{
			"buffer":0,
			"byteLength":384,
			"byteOffset":35536,
			"target":34962
		},
		{
			"buffer":0,
			"byteLength":256,
			"byteOffset":35920,
			"target":34962
		},
		{
			"buffer":0,
			"byteLength":180,
			"byteOffset":36176,
			"target":34963
		},
		{
			"buffer":0,
			"byteLength":384,
			"byteOffset":36356,
			"target":34962
		},
		{
			"buffer":0,
			"byteLength":384,
			"byteOffset":36740,
			"target":34962
		},
		{
			"buffer":0,
			"byteLength":256,
			"byteOffset":37124,
			"target":34962
		},
		{
			"buffer":0,
			"byteLength":33792,
			"byteOffset":37380,
			"target":34962
		},
		{
			"buffer":0,
			"byteLength":33792,
			"byteOffset":71172,
			"target":34962
		},
		{
			"buffer":0,
			"byteLength":22528,
			"byteOffset":104964,
			"target":34962
		},
		{
			"buffer":0,
			"byteLength":18336,
			"byteOffset":127492,
			"target":34963
		},
		{
			"buffer":0,
			"byteLength":16896,
			"byteOffset":145828,
			"target":34962
		},
		{
			"buffer":0,
			"byteLength":16896,
			"byteOffset":162724,
			"target":34962
		},
		{
			"buffer":0,
			"byteLength":11264,
			"byteOffset":179620,
			"target":34962
		},
		{
			"buffer":0,
			"byteLength":9168,
			"byteOffset":190884,
			"target":34963
		},
		{
			"buffer":0,
			"byteLength":8448,
			"byteOffset":200052,
			"target":34962
		},
		{
			"buffer":0,
			"byteLength":8448,
			"byteOffset":208500,
			"target":34962
		},
		{
			"buffer":0,
			"byteLength":5632,
			"byteOffset":216948,
			"target":34962
		},
		{
			"buffer":0,
			"byteLength":4584,
			"byteOffset":222580,
			"target":34963
		}
	],
	"samplers":[
		{
			"magFilter":9728,
			"minFilter":9984
		},
		{
			"magFilter":9729,
			"minFilter":9987
		}
	],
	"buffers":[
		{
			"byteLength":227164,
			"uri":"pizza_z_szynka.bin"
		}
	]
}
