{
	"asset":{
		"generator":"Khronos glTF Blender I/O v4.4.56",
		"version":"2.0"
	},
	"scene":0,
	"scenes":[
		{
			"name":"Scene",
			"nodes":[
				0,
				1,
				2,
				3,
				4,
				5,
				6,
				7,
				8,
				9,
				10
			]
		}
	],
	"nodes":[
		{
			"mesh":0,
			"name":"Cube"
		},
		{
			"mesh":1,
			"name":"Cube.001"
		},
		{
			"mesh":2,
			"name":"Cube.002"
		},
		{
			"mesh":3,
			"name":"Cube.003"
		},
		{
			"mesh":4,
			"name":"Cylinder"
		},
		{
			"mesh":5,
			"name":"Cylinder.001"
		},
		{
			"mesh":6,
			"name":"Cylinder.002"
		},
		{
			"mesh":7,
			"name":"Cylinder.003"
		},
		{
			"mesh":8,
			"name":"Cylinder.004"
		},
		{
			"mesh":9,
			"name":"Cylinder.005"
		},
		{
			"mesh":10,
			"name":"Cube.004"
		}
	],
	"materials":[
		{
			"doubleSided":true,
			"name":"Material",
			"pbrMetallicRoughness":{
				"baseColorTexture":{
					"index":0
				},
				"metallicFactor":0,
				"roughnessFactor":0.5
			}
		}
	],
	"meshes":[
		{
			"name":"Cube.001",
			"primitives":[
				{
					"attributes":{
						"POSITION":0,
						"NORMAL":1,
						"TEXCOORD_0":2
					},
					"indices":3,
					"material":0
				}
			]
		},
		{
			"name":"Cube.002",
			"primitives":[
				{
					"attributes":{
						"POSITION":4,
						"NORMAL":5,
						"TEXCOORD_0":6
					},
					"indices":3,
					"material":0
				}
			]
		},
		{
			"name":"Cube.003",
			"primitives":[
				{
					"attributes":{
						"POSITION":7,
						"NORMAL":8,
						"TEXCOORD_0":9
					},
					"indices":3,
					"material":0
				}
			]
		},
		{
			"name":"Cube.004",
			"primitives":[
				{
					"attributes":{
						"POSITION":10,
						"NORMAL":11,
						"TEXCOORD_0":12
					},
					"indices":13,
					"material":0
				}
			]
		},
		{
			"name":"Cylinder",
			"primitives":[
				{
					"attributes":{
						"POSITION":14,
						"NORMAL":15,
						"TEXCOORD_0":16
					},
					"indices":17,
					"material":0
				}
			]
		},
		{
			"name":"Cylinder.001",
			"primitives":[
				{
					"attributes":{
						"POSITION":18,
						"NORMAL":19,
						"TEXCOORD_0":20
					},
					"indices":21,
					"material":0
				}
			]
		},
		{
			"name":"Cylinder.002",
			"primitives":[
				{
					"attributes":{
						"POSITION":22,
						"NORMAL":23,
						"TEXCOORD_0":24
					},
					"indices":25,
					"material":0
				}
			]
		},
		{
			"name":"Cylinder.003",
			"primitives":[
				{
					"attributes":{
						"POSITION":26,
						"NORMAL":27,
						"TEXCOORD_0":28
					},
					"indices":29,
					"material":0
				}
			]
		},
		{
			"name":"Cylinder.004",
			"primitives":[
				{
					"attributes":{
						"POSITION":30,
						"NORMAL":31,
						"TEXCOORD_0":32
					},
					"indices":29,
					"material":0
				}
			]
		},
		{
			"name":"Cylinder.005",
			"primitives":[
				{
					"attributes":{
						"POSITION":33,
						"NORMAL":34,
						"TEXCOORD_0":35
					},
					"indices":29,
					"material":0
				}
			]
		},
		{
			"name":"Cube.005",
			"primitives":[
				{
					"attributes":{
						"POSITION":36,
						"NORMAL":37,
						"TEXCOORD_0":38
					},
					"indices":3,
					"material":0
				}
			]
		}
	],
	"textures":[
		{
			"sampler":0,
			"source":0
		}
	],
	"images":[
		{
			"mimeType": "image/png",
			"name": "palette",
			"uri": "../../../textures/palette.png"
		}
	],
	"accessors":[
		{
			"bufferView":0,
			"componentType":5126,
			"count":96,
			"max":[
				1.7893588542938232,
				0.5615406036376953,
				1.7893588542938232
			],
			"min":[
				-1.7893588542938232,
				-0.05120307207107544,
				-1.7893588542938232
			],
			"type":"VEC3"
		},
		{
			"bufferView":1,
			"componentType":5126,
			"count":96,
			"type":"VEC3"
		},
		{
			"bufferView":2,
			"componentType":5126,
			"count":96,
			"type":"VEC2"
		},
		{
			"bufferView":3,
			"componentType":5123,
			"count":324,
			"type":"SCALAR"
		},
		{
			"bufferView":4,
			"componentType":5126,
			"count":96,
			"max":[
				1.7893588542938232,
				2.924104928970337,
				1.7893588542938232
			],
			"min":[
				-1.7893588542938232,
				2.2170727252960205,
				-1.7893588542938232
			],
			"type":"VEC3"
		},
		{
			"bufferView":5,
			"componentType":5126,
			"count":96,
			"type":"VEC3"
		},
		{
			"bufferView":6,
			"componentType":5126,
			"count":96,
			"type":"VEC2"
		},
		{
			"bufferView":7,
			"componentType":5126,
			"count":96,
			"max":[
				1.5615266561508179,
				3.389430522918701,
				1.5615266561508179
			],
			"min":[
				-1.5615266561508179,
				2.7724218368530273,
				-1.5615266561508179
			],
			"type":"VEC3"
		},
		{
			"bufferView":8,
			"componentType":5126,
			"count":96,
			"type":"VEC3"
		},
		{
			"bufferView":9,
			"componentType":5126,
			"count":96,
			"type":"VEC2"
		},
		{
			"bufferView":10,
			"componentType":5126,
			"count":384,
			"max":[
				1.5615266561508179,
				2.36769700050354,
				0.7798610925674438
			],
			"min":[
				-1.5615266561508179,
				0.4864118695259094,
				-1.5359164476394653
			],
			"type":"VEC3"
		},
		{
			"bufferView":11,
			"componentType":5126,
			"count":384,
			"type":"VEC3"
		},
		{
			"bufferView":12,
			"componentType":5126,
			"count":384,
			"type":"VEC2"
		},
		{
			"bufferView":13,
			"componentType":5123,
			"count":900,
			"type":"SCALAR"
		},
		{
			"bufferView":14,
			"componentType":5126,
			"count":134,
			"max":[
				0.3043595850467682,
				2.231426954269409,
				1.6983777284622192
			],
			"min":[
				-0.33586135506629944,
				1.816620111465454,
				1.0713509321212769
			],
			"type":"VEC3"
		},
		{
			"bufferView":15,
			"componentType":5126,
			"count":134,
			"type":"VEC3"
		},
		{
			"bufferView":16,
			"componentType":5126,
			"count":134,
			"type":"VEC2"
		},
		{
			"bufferView":17,
			"componentType":5123,
			"count":372,
			"type":"SCALAR"
		},
		{
			"bufferView":18,
			"componentType":5126,
			"count":136,
			"max":[
				0.20678186416625977,
				1.8964332342147827,
				1.6028109788894653
			],
			"min":[
				-0.23828363418579102,
				1.6633280515670776,
				1.1669176816940308
			],
			"type":"VEC3"
		},
		{
			"bufferView":19,
			"componentType":5126,
			"count":136,
			"type":"VEC3"
		},
		{
			"bufferView":20,
			"componentType":5126,
			"count":136,
			"type":"VEC2"
		},
		{
			"bufferView":21,
			"componentType":5123,
			"count":372,
			"type":"SCALAR"
		},
		{
			"bufferView":22,
			"componentType":5126,
			"count":136,
			"max":[
				0.7584989070892334,
				2.1225147247314453,
				2.0258078575134277
			],
			"min":[
				0.09285983443260193,
				1.9193898439407349,
				1.435425043106079
			],
			"type":"VEC3"
		},
		{
			"bufferView":23,
			"componentType":5126,
			"count":136,
			"type":"VEC3"
		},
		{
			"bufferView":24,
			"componentType":5126,
			"count":136,
			"type":"VEC2"
		},
		{
			"bufferView":25,
			"componentType":5123,
			"count":372,
			"type":"SCALAR"
		},
		{
			"bufferView":26,
			"componentType":5126,
			"count":136,
			"max":[
				-0.43639039993286133,
				2.8137738704681396,
				1.8734034299850464
			],
			"min":[
				-0.8814558982849121,
				2.377880334854126,
				1.6402982473373413
			],
			"type":"VEC3"
		},
		{
			"bufferView":27,
			"componentType":5126,
			"count":136,
			"type":"VEC3"
		},
		{
			"bufferView":28,
			"componentType":5126,
			"count":136,
			"type":"VEC2"
		},
		{
			"bufferView":29,
			"componentType":5123,
			"count":372,
			"type":"SCALAR"
		},
		{
			"bufferView":30,
			"componentType":5126,
			"count":136,
			"max":[
				0.7596940994262695,
				2.7318015098571777,
				1.8295667171478271
			],
			"min":[
				0.4820227324962616,
				2.459852695465088,
				1.6841349601745605
			],
			"type":"VEC3"
		},
		{
			"bufferView":31,
			"componentType":5126,
			"count":136,
			"type":"VEC3"
		},
		{
			"bufferView":32,
			"componentType":5126,
			"count":136,
			"type":"VEC2"
		},
		{
			"bufferView":33,
			"componentType":5126,
			"count":136,
			"max":[
				1.1520881652832031,
				2.7318015098571777,
				1.8295667171478271
			],
			"min":[
				0.8744168281555176,
				2.459852695465088,
				1.6841349601745605
			],
			"type":"VEC3"
		},
		{
			"bufferView":34,
			"componentType":5126,
			"count":136,
			"type":"VEC3"
		},
		{
			"bufferView":35,
			"componentType":5126,
			"count":136,
			"type":"VEC2"
		},
		{
			"bufferView":36,
			"componentType":5126,
			"count":96,
			"max":[
				0.6258424520492554,
				0.7425456047058105,
				1.6615040302276611
			],
			"min":[
				-0.6258424520492554,
				0.4860447645187378,
				0.7636697292327881
			],
			"type":"VEC3"
		},
		{
			"bufferView":37,
			"componentType":5126,
			"count":96,
			"type":"VEC3"
		},
		{
			"bufferView":38,
			"componentType":5126,
			"count":96,
			"type":"VEC2"
		}
	],
	"bufferViews":[
		{
			"buffer":0,
			"byteLength":1152,
			"byteOffset":0,
			"target":34962
		},
		{
			"buffer":0,
			"byteLength":1152,
			"byteOffset":1152,
			"target":34962
		},
		{
			"buffer":0,
			"byteLength":768,
			"byteOffset":2304,
			"target":34962
		},
		{
			"buffer":0,
			"byteLength":648,
			"byteOffset":3072,
			"target":34963
		},
		{
			"buffer":0,
			"byteLength":1152,
			"byteOffset":3720,
			"target":34962
		},
		{
			"buffer":0,
			"byteLength":1152,
			"byteOffset":4872,
			"target":34962
		},
		{
			"buffer":0,
			"byteLength":768,
			"byteOffset":6024,
			"target":34962
		},
		{
			"buffer":0,
			"byteLength":1152,
			"byteOffset":6792,
			"target":34962
		},
		{
			"buffer":0,
			"byteLength":1152,
			"byteOffset":7944,
			"target":34962
		},
		{
			"buffer":0,
			"byteLength":768,
			"byteOffset":9096,
			"target":34962
		},
		{
			"buffer":0,
			"byteLength":4608,
			"byteOffset":9864,
			"target":34962
		},
		{
			"buffer":0,
			"byteLength":4608,
			"byteOffset":14472,
			"target":34962
		},
		{
			"buffer":0,
			"byteLength":3072,
			"byteOffset":19080,
			"target":34962
		},
		{
			"buffer":0,
			"byteLength":1800,
			"byteOffset":22152,
			"target":34963
		},
		{
			"buffer":0,
			"byteLength":1608,
			"byteOffset":23952,
			"target":34962
		},
		{
			"buffer":0,
			"byteLength":1608,
			"byteOffset":25560,
			"target":34962
		},
		{
			"buffer":0,
			"byteLength":1072,
			"byteOffset":27168,
			"target":34962
		},
		{
			"buffer":0,
			"byteLength":744,
			"byteOffset":28240,
			"target":34963
		},
		{
			"buffer":0,
			"byteLength":1632,
			"byteOffset":28984,
			"target":34962
		},
		{
			"buffer":0,
			"byteLength":1632,
			"byteOffset":30616,
			"target":34962
		},
		{
			"buffer":0,
			"byteLength":1088,
			"byteOffset":32248,
			"target":34962
		},
		{
			"buffer":0,
			"byteLength":744,
			"byteOffset":33336,
			"target":34963
		},
		{
			"buffer":0,
			"byteLength":1632,
			"byteOffset":34080,
			"target":34962
		},
		{
			"buffer":0,
			"byteLength":1632,
			"byteOffset":35712,
			"target":34962
		},
		{
			"buffer":0,
			"byteLength":1088,
			"byteOffset":37344,
			"target":34962
		},
		{
			"buffer":0,
			"byteLength":744,
			"byteOffset":38432,
			"target":34963
		},
		{
			"buffer":0,
			"byteLength":1632,
			"byteOffset":39176,
			"target":34962
		},
		{
			"buffer":0,
			"byteLength":1632,
			"byteOffset":40808,
			"target":34962
		},
		{
			"buffer":0,
			"byteLength":1088,
			"byteOffset":42440,
			"target":34962
		},
		{
			"buffer":0,
			"byteLength":744,
			"byteOffset":43528,
			"target":34963
		},
		{
			"buffer":0,
			"byteLength":1632,
			"byteOffset":44272,
			"target":34962
		},
		{
			"buffer":0,
			"byteLength":1632,
			"byteOffset":45904,
			"target":34962
		},
		{
			"buffer":0,
			"byteLength":1088,
			"byteOffset":47536,
			"target":34962
		},
		{
			"buffer":0,
			"byteLength":1632,
			"byteOffset":48624,
			"target":34962
		},
		{
			"buffer":0,
			"byteLength":1632,
			"byteOffset":50256,
			"target":34962
		},
		{
			"buffer":0,
			"byteLength":1088,
			"byteOffset":51888,
			"target":34962
		},
		{
			"buffer":0,
			"byteLength":1152,
			"byteOffset":52976,
			"target":34962
		},
		{
			"buffer":0,
			"byteLength":1152,
			"byteOffset":54128,
			"target":34962
		},
		{
			"buffer":0,
			"byteLength":768,
			"byteOffset":55280,
			"target":34962
		}
	],
	"samplers":[
		{
			"magFilter":9729,
			"minFilter":9987
		}
	],
	"buffers":[
		{
			"byteLength":56048,
			"uri":"ekspres.bin"
		}
	]
}
