{
	"asset":{
		"generator":"Khronos glTF Blender I/O v4.5.48",
		"version":"2.0"
	},
	"scene":0,
	"scenes":[
		{
			"name":"Scene",
			"nodes":[
				0
			]
		}
	],
	"nodes":[
		{
			"mesh":0,
			"name":"Sphere.002"
		}
	],
	"materials":[
		{
			"doubleSided":true,
			"name":"Material.005",
			"pbrMetallicRoughness":{
				"baseColorTexture":{
					"index":0
				},
				"metallicFactor":0,
				"roughnessFactor":0.5
			}
		},
		{
			"doubleSided":true,
			"emissiveFactor":[
				0.28418846067541637,
				0.1618414049085537,
				0.007247410630083495
			],
			"name":"Material.004",
			"pbrMetallicRoughness":{
				"baseColorTexture":{
					"index":1
				},
				"metallicFactor":0,
				"roughnessFactor":0.4365559220314026
			}
		}
	],
	"meshes":[
		{
			"name":"Sphere.002",
			"primitives":[
				{
					"attributes":{
						"POSITION":0,
						"NORMAL":1,
						"TEXCOORD_0":2,
						"COLOR_0":3,
						"COLOR_1":4
					},
					"indices":5,
					"material":0
				},
				{
					"attributes":{
						"POSITION":6,
						"NORMAL":7,
						"TEXCOORD_0":8,
						"COLOR_0":9,
						"COLOR_1":10
					},
					"indices":11,
					"material":1
				}
			]
		}
	],
	"textures":[
		{
			"sampler":0,
			"source":0
		},
		{
			"sampler":0,
			"source":0
		}
	],
	"images":[
		{
			"mimeType":"image/png",
			"name":"palette",
			"uri": "../../../textures/palette.png"
		}
	],
	"accessors":[
		{
			"bufferView":0,
			"componentType":5126,
			"count":788,
			"max":[
				1.0195385217666626,
				2.040524482727051,
				2.6835861206054688
			],
			"min":[
				-1.019538402557373,
				0.004256438463926315,
				-1.2354769706726074
			],
			"type":"VEC3"
		},
		{
			"bufferView":1,
			"componentType":5126,
			"count":788,
			"type":"VEC3"
		},
		{
			"bufferView":2,
			"componentType":5126,
			"count":788,
			"type":"VEC2"
		},
		{
			"bufferView":3,
			"componentType":5121,
			"count":788,
			"normalized":true,
			"type":"VEC4"
		},
		{
			"bufferView":4,
			"componentType":5123,
			"count":788,
			"normalized":true,
			"type":"VEC4"
		},
		{
			"bufferView":5,
			"componentType":5123,
			"count":3618,
			"type":"SCALAR"
		},
		{
			"bufferView":6,
			"componentType":5126,
			"count":61,
			"max":[
				0.5167392492294312,
				1.6135131120681763,
				2.3176028728485107
			],
			"min":[
				-0.5200893878936768,
				0.5270206928253174,
				0.5071729421615601
			],
			"type":"VEC3"
		},
		{
			"bufferView":7,
			"componentType":5126,
			"count":61,
			"type":"VEC3"
		},
		{
			"bufferView":8,
			"componentType":5126,
			"count":61,
			"type":"VEC2"
		},
		{
			"bufferView":9,
			"componentType":5121,
			"count":61,
			"normalized":true,
			"type":"VEC4"
		},
		{
			"bufferView":10,
			"componentType":5123,
			"count":61,
			"normalized":true,
			"type":"VEC4"
		},
		{
			"bufferView":11,
			"componentType":5123,
			"count":171,
			"type":"SCALAR"
		}
	],
	"bufferViews":[
		{
			"buffer":0,
			"byteLength":9456,
			"byteOffset":0,
			"target":34962
		},
		{
			"buffer":0,
			"byteLength":9456,
			"byteOffset":9456,
			"target":34962
		},
		{
			"buffer":0,
			"byteLength":6304,
			"byteOffset":18912,
			"target":34962
		},
		{
			"buffer":0,
			"byteLength":3152,
			"byteOffset":25216,
			"target":34962
		},
		{
			"buffer":0,
			"byteLength":6304,
			"byteOffset":28368,
			"target":34962
		},
		{
			"buffer":0,
			"byteLength":7236,
			"byteOffset":34672,
			"target":34963
		},
		{
			"buffer":0,
			"byteLength":732,
			"byteOffset":41908,
			"target":34962
		},
		{
			"buffer":0,
			"byteLength":732,
			"byteOffset":42640,
			"target":34962
		},
		{
			"buffer":0,
			"byteLength":488,
			"byteOffset":43372,
			"target":34962
		},
		{
			"buffer":0,
			"byteLength":244,
			"byteOffset":43860,
			"target":34962
		},
		{
			"buffer":0,
			"byteLength":488,
			"byteOffset":44104,
			"target":34962
		},
		{
			"buffer":0,
			"byteLength":342,
			"byteOffset":44592,
			"target":34963
		}
	],
	"samplers":[
		{
			"magFilter":9728,
			"minFilter":9984
		}
	],
	"buffers":[
		{
			"byteLength":44936,
			"uri":"egg_cut.bin"
		}
	]
}
