{
	"asset":{
		"generator":"Khronos glTF Blender I/O v5.1.19",
		"version":"2.0"
	},
	"scene":0,
	"scenes":[
		{
			"name":"Scene",
			"nodes":[
				0,
				1,
				2,
				3,
				4,
				5,
				6,
				7,
				8
			]
		}
	],
	"nodes":[
		{
			"mesh":0,
			"name":"Cube"
		},
		{
			"mesh":1,
			"name":"Cube.001"
		},
		{
			"mesh":2,
			"name":"Cylinder"
		},
		{
			"mesh":3,
			"name":"Cylinder.001"
		},
		{
			"mesh":4,
			"name":"Cube.002"
		},
		{
			"mesh":5,
			"name":"Circle"
		},
		{
			"mesh":6,
			"name":"Circle.001"
		},
		{
			"mesh":7,
			"name":"Cube.003"
		},
		{
			"mesh":8,
			"name":"Cube.004"
		}
	],
	"materials":[
		{
			"doubleSided":true,
			"name":"Material",
			"pbrMetallicRoughness":{
				"baseColorTexture":{
					"index":0
				},
				"metallicFactor":0,
				"roughnessFactor":0.5
			}
		}
	],
	"meshes":[
		{
			"name":"Cube.001",
			"primitives":[
				{
					"attributes":{
						"POSITION":0,
						"NORMAL":1,
						"TEXCOORD_0":2
					},
					"indices":3,
					"material":0
				}
			]
		},
		{
			"name":"Cube.002",
			"primitives":[
				{
					"attributes":{
						"POSITION":4,
						"NORMAL":5,
						"TEXCOORD_0":6
					},
					"indices":3,
					"material":0
				}
			]
		},
		{
			"name":"Cylinder",
			"primitives":[
				{
					"attributes":{
						"POSITION":7,
						"NORMAL":8,
						"TEXCOORD_0":9
					},
					"indices":10,
					"material":0
				}
			]
		},
		{
			"name":"Cylinder.001",
			"primitives":[
				{
					"attributes":{
						"POSITION":11,
						"NORMAL":12,
						"TEXCOORD_0":13
					},
					"indices":14,
					"material":0
				}
			]
		},
		{
			"name":"Cube.003",
			"primitives":[
				{
					"attributes":{
						"POSITION":15,
						"NORMAL":16,
						"TEXCOORD_0":17
					},
					"indices":18,
					"material":0
				}
			]
		},
		{
			"name":"Circle",
			"primitives":[
				{
					"attributes":{
						"POSITION":19,
						"NORMAL":20,
						"TEXCOORD_0":21
					},
					"indices":22,
					"material":0
				}
			]
		},
		{
			"name":"Circle.001",
			"primitives":[
				{
					"attributes":{
						"POSITION":23,
						"NORMAL":24,
						"TEXCOORD_0":25
					},
					"indices":26,
					"material":0
				}
			]
		},
		{
			"name":"Cube.005",
			"primitives":[
				{
					"attributes":{
						"POSITION":27,
						"NORMAL":28,
						"TEXCOORD_0":29
					},
					"indices":30,
					"material":0
				}
			]
		},
		{
			"name":"Cube.006",
			"primitives":[
				{
					"attributes":{
						"POSITION":31,
						"NORMAL":32,
						"TEXCOORD_0":33
					},
					"indices":34,
					"material":0
				}
			]
		}
	],
	"textures":[
		{
			"sampler":0,
			"source":0
		}
	],
	"images":[
		{
			"mimeType": "image/png",
			"name": "palette",
			"uri": "../../../textures/palette.png"
		}
	],
	"accessors":[
		{
			"bufferView":0,
			"componentType":5126,
			"count":96,
			"max":[
				0.9654098749160767,
				0.7924344539642334,
				0.9277254343032837
			],
			"min":[
				-0.9518129825592041,
				0.09446336328983307,
				-0.9277254343032837
			],
			"type":"VEC3"
		},
		{
			"bufferView":1,
			"componentType":5126,
			"count":96,
			"type":"VEC3"
		},
		{
			"bufferView":2,
			"componentType":5126,
			"count":96,
			"type":"VEC2"
		},
		{
			"bufferView":3,
			"componentType":5123,
			"count":324,
			"type":"SCALAR"
		},
		{
			"bufferView":4,
			"componentType":5126,
			"count":96,
			"max":[
				0.7537187337875366,
				0.674637496471405,
				1.020113229751587
			],
			"min":[
				-0.7658591866493225,
				0.22646275162696838,
				0.7439123392105103
			],
			"type":"VEC3"
		},
		{
			"bufferView":5,
			"componentType":5126,
			"count":96,
			"type":"VEC3"
		},
		{
			"bufferView":6,
			"componentType":5126,
			"count":96,
			"type":"VEC2"
		},
		{
			"bufferView":7,
			"componentType":5126,
			"count":168,
			"max":[
				0.16821379959583282,
				0.614010214805603,
				1.0806010961532593
			],
			"min":[
				-0.16821379959583282,
				0.2775826156139374,
				0.7436422109603882
			],
			"type":"VEC3"
		},
		{
			"bufferView":8,
			"componentType":5126,
			"count":168,
			"type":"VEC3"
		},
		{
			"bufferView":9,
			"componentType":5126,
			"count":168,
			"type":"VEC2"
		},
		{
			"bufferView":10,
			"componentType":5123,
			"count":444,
			"type":"SCALAR"
		},
		{
			"bufferView":11,
			"componentType":5126,
			"count":544,
			"max":[
				0.828898012638092,
				0.15592992305755615,
				0.807567298412323
			],
			"min":[
				-0.8288980722427368,
				0.005348026752471924,
				-0.8075673580169678
			],
			"type":"VEC3"
		},
		{
			"bufferView":12,
			"componentType":5126,
			"count":544,
			"type":"VEC3"
		},
		{
			"bufferView":13,
			"componentType":5126,
			"count":544,
			"type":"VEC2"
		},
		{
			"bufferView":14,
			"componentType":5123,
			"count":1488,
			"type":"SCALAR"
		},
		{
			"bufferView":15,
			"componentType":5126,
			"count":96,
			"max":[
				0.7537187337875366,
				0.8685981035232544,
				0.739758312702179
			],
			"min":[
				-0.7658591866493225,
				0.42042332887649536,
				-0.7283406853675842
			],
			"type":"VEC3"
		},
		{
			"bufferView":16,
			"componentType":5126,
			"count":96,
			"type":"VEC3"
		},
		{
			"bufferView":17,
			"componentType":5126,
			"count":96,
			"type":"VEC2"
		},
		{
			"bufferView":18,
			"componentType":5123,
			"count":324,
			"type":"SCALAR"
		},
		{
			"bufferView":19,
			"componentType":5126,
			"count":272,
			"max":[
				0.5138261914253235,
				0.8977952003479004,
				0.5108506679534912
			],
			"min":[
				-0.5124112963676453,
				0.7686908841133118,
				-0.5153868198394775
			],
			"type":"VEC3"
		},
		{
			"bufferView":20,
			"componentType":5126,
			"count":272,
			"type":"VEC3"
		},
		{
			"bufferView":21,
			"componentType":5126,
			"count":272,
			"type":"VEC2"
		},
		{
			"bufferView":22,
			"componentType":5123,
			"count":768,
			"type":"SCALAR"
		},
		{
			"bufferView":23,
			"componentType":5126,
			"count":272,
			"max":[
				0.2426580935716629,
				0.9143535494804382,
				0.2426580935716629
			],
			"min":[
				-0.2426580935716629,
				0.8533118963241577,
				-0.2426580935716629
			],
			"type":"VEC3"
		},
		{
			"bufferView":24,
			"componentType":5126,
			"count":272,
			"type":"VEC3"
		},
		{
			"bufferView":25,
			"componentType":5126,
			"count":272,
			"type":"VEC2"
		},
		{
			"bufferView":26,
			"componentType":5123,
			"count":768,
			"type":"SCALAR"
		},
		{
			"bufferView":27,
			"componentType":5126,
			"count":48,
			"max":[
				0.44589853286743164,
				0.9111668467521667,
				0.45810073614120483
			],
			"min":[
				-0.4444837272167206,
				0.8064776062965393,
				-0.46263688802719116
			],
			"type":"VEC3"
		},
		{
			"bufferView":28,
			"componentType":5126,
			"count":48,
			"type":"VEC3"
		},
		{
			"bufferView":29,
			"componentType":5126,
			"count":48,
			"type":"VEC2"
		},
		{
			"bufferView":30,
			"componentType":5123,
			"count":72,
			"type":"SCALAR"
		},
		{
			"bufferView":31,
			"componentType":5126,
			"count":48,
			"max":[
				0.44697752594947815,
				0.9111668467521667,
				0.4587191939353943
			],
			"min":[
				-0.458772748708725,
				0.8064776062965393,
				-0.44703108072280884
			],
			"type":"VEC3"
		},
		{
			"bufferView":32,
			"componentType":5126,
			"count":48,
			"type":"VEC3"
		},
		{
			"bufferView":33,
			"componentType":5126,
			"count":48,
			"type":"VEC2"
		},
		{
			"bufferView":34,
			"componentType":5123,
			"count":72,
			"type":"SCALAR"
		}
	],
	"bufferViews":[
		{
			"buffer":0,
			"byteLength":1152,
			"byteOffset":0,
			"target":34962
		},
		{
			"buffer":0,
			"byteLength":1152,
			"byteOffset":1152,
			"target":34962
		},
		{
			"buffer":0,
			"byteLength":768,
			"byteOffset":2304,
			"target":34962
		},
		{
			"buffer":0,
			"byteLength":648,
			"byteOffset":3072,
			"target":34963
		},
		{
			"buffer":0,
			"byteLength":1152,
			"byteOffset":3720,
			"target":34962
		},
		{
			"buffer":0,
			"byteLength":1152,
			"byteOffset":4872,
			"target":34962
		},
		{
			"buffer":0,
			"byteLength":768,
			"byteOffset":6024,
			"target":34962
		},
		{
			"buffer":0,
			"byteLength":2016,
			"byteOffset":6792,
			"target":34962
		},
		{
			"buffer":0,
			"byteLength":2016,
			"byteOffset":8808,
			"target":34962
		},
		{
			"buffer":0,
			"byteLength":1344,
			"byteOffset":10824,
			"target":34962
		},
		{
			"buffer":0,
			"byteLength":888,
			"byteOffset":12168,
			"target":34963
		},
		{
			"buffer":0,
			"byteLength":6528,
			"byteOffset":13056,
			"target":34962
		},
		{
			"buffer":0,
			"byteLength":6528,
			"byteOffset":19584,
			"target":34962
		},
		{
			"buffer":0,
			"byteLength":4352,
			"byteOffset":26112,
			"target":34962
		},
		{
			"buffer":0,
			"byteLength":2976,
			"byteOffset":30464,
			"target":34963
		},
		{
			"buffer":0,
			"byteLength":1152,
			"byteOffset":33440,
			"target":34962
		},
		{
			"buffer":0,
			"byteLength":1152,
			"byteOffset":34592,
			"target":34962
		},
		{
			"buffer":0,
			"byteLength":768,
			"byteOffset":35744,
			"target":34962
		},
		{
			"buffer":0,
			"byteLength":648,
			"byteOffset":36512,
			"target":34963
		},
		{
			"buffer":0,
			"byteLength":3264,
			"byteOffset":37160,
			"target":34962
		},
		{
			"buffer":0,
			"byteLength":3264,
			"byteOffset":40424,
			"target":34962
		},
		{
			"buffer":0,
			"byteLength":2176,
			"byteOffset":43688,
			"target":34962
		},
		{
			"buffer":0,
			"byteLength":1536,
			"byteOffset":45864,
			"target":34963
		},
		{
			"buffer":0,
			"byteLength":3264,
			"byteOffset":47400,
			"target":34962
		},
		{
			"buffer":0,
			"byteLength":3264,
			"byteOffset":50664,
			"target":34962
		},
		{
			"buffer":0,
			"byteLength":2176,
			"byteOffset":53928,
			"target":34962
		},
		{
			"buffer":0,
			"byteLength":1536,
			"byteOffset":56104,
			"target":34963
		},
		{
			"buffer":0,
			"byteLength":576,
			"byteOffset":57640,
			"target":34962
		},
		{
			"buffer":0,
			"byteLength":576,
			"byteOffset":58216,
			"target":34962
		},
		{
			"buffer":0,
			"byteLength":384,
			"byteOffset":58792,
			"target":34962
		},
		{
			"buffer":0,
			"byteLength":144,
			"byteOffset":59176,
			"target":34963
		},
		{
			"buffer":0,
			"byteLength":576,
			"byteOffset":59320,
			"target":34962
		},
		{
			"buffer":0,
			"byteLength":576,
			"byteOffset":59896,
			"target":34962
		},
		{
			"buffer":0,
			"byteLength":384,
			"byteOffset":60472,
			"target":34962
		},
		{
			"buffer":0,
			"byteLength":144,
			"byteOffset":60856,
			"target":34963
		}
	],
	"samplers":[
		{
			"magFilter":9729,
			"minFilter":9987
		}
	],
	"buffers":[
		{
			"byteLength":61000,
			"uri":"palnik.bin"
		}
	]
}
