{
	"asset":{
		"generator":"Khronos glTF Blender I/O v4.5.48",
		"version":"2.0"
	},
	"extensionsUsed":[
		"KHR_materials_emissive_strength"
	],
	"scene":0,
	"scenes":[
		{
			"name":"Scene",
			"nodes":[
				0,
				1
			]
		}
	],
	"nodes":[
		{
			"mesh":0,
			"name":"Cube"
		},
		{
			"mesh":1,
			"name":"Cube.003"
		}
	],
	"materials":[
		{
			"doubleSided":true,
			"name":"Material.002",
			"pbrMetallicRoughness":{
				"baseColorTexture":{
					"index":0
				},
				"roughnessFactor":0.5
			}
		},
		{
			"doubleSided":true,
			"name":"Material.001",
			"pbrMetallicRoughness":{
				"baseColorTexture":{
					"index":1
				},
				"metallicFactor":0,
				"roughnessFactor":0.8999999761581421
			}
		},
		{
			"doubleSided":true,
			"name":"Material.005",
			"pbrMetallicRoughness":{
				"baseColorTexture":{
					"index":2
				},
				"roughnessFactor":0.5
			}
		},
		{
			"doubleSided":true,
			"emissiveFactor":[
				1,
				1,
				1
			],
			"emissiveTexture":{
				"index":3,
				"texCoord":1
			},
			"extensions":{
				"KHR_materials_emissive_strength":{
					"emissiveStrength":5
				}
			},
			"name":"Material.003",
			"pbrMetallicRoughness":{
				"baseColorTexture":{
					"index":4
				},
				"metallicFactor":0,
				"roughnessFactor":0.5
			}
		},
		{
			"doubleSided":true,
			"name":"Material.004",
			"pbrMetallicRoughness":{
				"baseColorTexture":{
					"index":5
				},
				"metallicFactor":0.20000000298023224,
				"roughnessFactor":0.21821308135986328
			}
		}
	],
	"meshes":[
		{
			"name":"Cube.003",
			"primitives":[
				{
					"attributes":{
						"POSITION":0,
						"NORMAL":1,
						"TEXCOORD_0":2
					},
					"indices":3,
					"material":0
				},
				{
					"attributes":{
						"POSITION":4,
						"NORMAL":5,
						"TEXCOORD_0":6
					},
					"indices":7,
					"material":1
				}
			]
		},
		{
			"name":"Cube.005",
			"primitives":[
				{
					"attributes":{
						"POSITION":8,
						"NORMAL":9,
						"TEXCOORD_0":10,
						"TEXCOORD_1":11
					},
					"indices":12,
					"material":2
				},
				{
					"attributes":{
						"POSITION":13,
						"NORMAL":14,
						"TEXCOORD_0":15,
						"TEXCOORD_1":16
					},
					"indices":17,
					"material":3
				},
				{
					"attributes":{
						"POSITION":18,
						"NORMAL":19,
						"TEXCOORD_0":20,
						"TEXCOORD_1":21
					},
					"indices":22,
					"material":4
				}
			]
		}
	],
	"textures":[
		{
			"sampler":0,
			"source":0
		},
		{
			"sampler":0,
			"source":0
		},
		{
			"sampler":0,
			"source":0
		},
		{
			"sampler":0,
			"source":1
		},
		{
			"sampler":0,
			"source":0
		},
		{
			"sampler":0,
			"source":0
		}
	],
	"images":[
		{
			"mimeType":"image/png",
			"name":"palette",
			"uri":"palette.png"
		},
		{
			"mimeType":"image/png",
			"name":"p",
			"uri":"p.png"
		}
	],
	"accessors":[
		{
			"bufferView":0,
			"componentType":5126,
			"count":9558,
			"max":[
				1.1244827508926392,
				1.3060814142227173,
				0.7361844778060913
			],
			"min":[
				-0.9247022271156311,
				-0.4538726508617401,
				-0.7361844778060913
			],
			"type":"VEC3"
		},
		{
			"bufferView":1,
			"componentType":5126,
			"count":9558,
			"type":"VEC3"
		},
		{
			"bufferView":2,
			"componentType":5126,
			"count":9558,
			"type":"VEC2"
		},
		{
			"bufferView":3,
			"componentType":5123,
			"count":14316,
			"type":"SCALAR"
		},
		{
			"bufferView":4,
			"componentType":5126,
			"count":2168,
			"max":[
				1.122310996055603,
				1.3357479572296143,
				0.09157001227140427
			],
			"min":[
				0.6043839454650879,
				1.2534688711166382,
				-0.09115678817033768
			],
			"type":"VEC3"
		},
		{
			"bufferView":5,
			"componentType":5126,
			"count":2168,
			"type":"VEC3"
		},
		{
			"bufferView":6,
			"componentType":5126,
			"count":2168,
			"type":"VEC2"
		},
		{
			"bufferView":7,
			"componentType":5123,
			"count":7740,
			"type":"SCALAR"
		},
		{
			"bufferView":8,
			"componentType":5126,
			"count":24,
			"max":[
				-1.0599796772003174,
				1.5936095714569092,
				-0.5257722735404968
			],
			"min":[
				-1.2076886892318726,
				1.460460901260376,
				-0.6713090538978577
			],
			"type":"VEC3"
		},
		{
			"bufferView":9,
			"componentType":5126,
			"count":24,
			"type":"VEC3"
		},
		{
			"bufferView":10,
			"componentType":5126,
			"count":24,
			"type":"VEC2"
		},
		{
			"bufferView":11,
			"componentType":5126,
			"count":24,
			"type":"VEC2"
		},
		{
			"bufferView":12,
			"componentType":5123,
			"count":36,
			"type":"SCALAR"
		},
		{
			"bufferView":13,
			"componentType":5126,
			"count":280,
			"max":[
				1,
				1.7303390502929688,
				1
			],
			"min":[
				-1.4662522077560425,
				-1.0000001192092896,
				-1.000991702079773
			],
			"type":"VEC3"
		},
		{
			"bufferView":14,
			"componentType":5126,
			"count":280,
			"type":"VEC3"
		},
		{
			"bufferView":15,
			"componentType":5126,
			"count":280,
			"type":"VEC2"
		},
		{
			"bufferView":16,
			"componentType":5126,
			"count":280,
			"type":"VEC2"
		},
		{
			"bufferView":17,
			"componentType":5123,
			"count":468,
			"type":"SCALAR"
		},
		{
			"bufferView":18,
			"componentType":5126,
			"count":138,
			"max":[
				-1.003199577331543,
				1.667423963546753,
				-0.05770285427570343
			],
			"min":[
				-1.2770695686340332,
				1.4103188514709473,
				-0.3575359880924225
			],
			"type":"VEC3"
		},
		{
			"bufferView":19,
			"componentType":5126,
			"count":138,
			"type":"VEC3"
		},
		{
			"bufferView":20,
			"componentType":5126,
			"count":138,
			"type":"VEC2"
		},
		{
			"bufferView":21,
			"componentType":5126,
			"count":138,
			"type":"VEC2"
		},
		{
			"bufferView":22,
			"componentType":5123,
			"count":372,
			"type":"SCALAR"
		}
	],
	"bufferViews":[
		{
			"buffer":0,
			"byteLength":114696,
			"byteOffset":0,
			"target":34962
		},
		{
			"buffer":0,
			"byteLength":114696,
			"byteOffset":114696,
			"target":34962
		},
		{
			"buffer":0,
			"byteLength":76464,
			"byteOffset":229392,
			"target":34962
		},
		{
			"buffer":0,
			"byteLength":28632,
			"byteOffset":305856,
			"target":34963
		},
		{
			"buffer":0,
			"byteLength":26016,
			"byteOffset":334488,
			"target":34962
		},
		{
			"buffer":0,
			"byteLength":26016,
			"byteOffset":360504,
			"target":34962
		},
		{
			"buffer":0,
			"byteLength":17344,
			"byteOffset":386520,
			"target":34962
		},
		{
			"buffer":0,
			"byteLength":15480,
			"byteOffset":403864,
			"target":34963
		},
		{
			"buffer":0,
			"byteLength":288,
			"byteOffset":419344,
			"target":34962
		},
		{
			"buffer":0,
			"byteLength":288,
			"byteOffset":419632,
			"target":34962
		},
		{
			"buffer":0,
			"byteLength":192,
			"byteOffset":419920,
			"target":34962
		},
		{
			"buffer":0,
			"byteLength":192,
			"byteOffset":420112,
			"target":34962
		},
		{
			"buffer":0,
			"byteLength":72,
			"byteOffset":420304,
			"target":34963
		},
		{
			"buffer":0,
			"byteLength":3360,
			"byteOffset":420376,
			"target":34962
		},
		{
			"buffer":0,
			"byteLength":3360,
			"byteOffset":423736,
			"target":34962
		},
		{
			"buffer":0,
			"byteLength":2240,
			"byteOffset":427096,
			"target":34962
		},
		{
			"buffer":0,
			"byteLength":2240,
			"byteOffset":429336,
			"target":34962
		},
		{
			"buffer":0,
			"byteLength":936,
			"byteOffset":431576,
			"target":34963
		},
		{
			"buffer":0,
			"byteLength":1656,
			"byteOffset":432512,
			"target":34962
		},
		{
			"buffer":0,
			"byteLength":1656,
			"byteOffset":434168,
			"target":34962
		},
		{
			"buffer":0,
			"byteLength":1104,
			"byteOffset":435824,
			"target":34962
		},
		{
			"buffer":0,
			"byteLength":1104,
			"byteOffset":436928,
			"target":34962
		},
		{
			"buffer":0,
			"byteLength":744,
			"byteOffset":438032,
			"target":34963
		}
	],
	"samplers":[
		{
			"magFilter":9728,
			"minFilter":9984
		}
	],
	"buffers":[
		{
			"byteLength":438776,
			"uri":"frytkownica.bin"
		}
	]
}
