{
	"asset":{
		"generator":"Khronos glTF Blender I/O v4.5.48",
		"version":"2.0"
	},
	"scene":0,
	"scenes":[
		{
			"name":"Scene",
			"nodes":[
				0
			]
		}
	],
	"nodes":[
		{
			"mesh":0,
			"name":"Icosphere.001"
		}
	],
	"materials":[
		{
			"doubleSided":true,
			"name":"Material.001",
			"pbrMetallicRoughness":{
				"baseColorTexture":{
					"index":0
				},
				"metallicFactor":0,
				"roughnessFactor":0.5
			}
		}
	],
	"meshes":[
		{
			"name":"Icosphere.001",
			"primitives":[
				{
					"attributes":{
						"POSITION":0,
						"NORMAL":1,
						"TEXCOORD_0":2
					},
					"indices":3,
					"material":0
				}
			]
		}
	],
	"textures":[
		{
			"sampler":0,
			"source":0
		}
	],
	"images":[
		{
			"mimeType":"image/png",
			"name":"palette",
			"uri": "../../../textures/palette.png"
		}
	],
	"accessors":[
		{
			"bufferView":0,
			"componentType":5126,
			"count":2245,
			"max":[
				2.6146726608276367,
				0.5172494053840637,
				0.6290252208709717
			],
			"min":[
				1.3666259050369263,
				-0.7103340029716492,
				-0.6517878174781799
			],
			"type":"VEC3"
		},
		{
			"bufferView":1,
			"componentType":5126,
			"count":2245,
			"type":"VEC3"
		},
		{
			"bufferView":2,
			"componentType":5126,
			"count":2245,
			"type":"VEC2"
		},
		{
			"bufferView":3,
			"componentType":5123,
			"count":5802,
			"type":"SCALAR"
		}
	],
	"bufferViews":[
		{
			"buffer":0,
			"byteLength":26940,
			"byteOffset":0,
			"target":34962
		},
		{
			"buffer":0,
			"byteLength":26940,
			"byteOffset":26940,
			"target":34962
		},
		{
			"buffer":0,
			"byteLength":17960,
			"byteOffset":53880,
			"target":34962
		},
		{
			"buffer":0,
			"byteLength":11604,
			"byteOffset":71840,
			"target":34963
		}
	],
	"samplers":[
		{
			"magFilter":9728,
			"minFilter":9984
		}
	],
	"buffers":[
		{
			"byteLength":83444,
			"uri":"malina.bin"
		}
	]
}
