{
	"asset":{
		"generator":"Khronos glTF Blender I/O v4.5.48",
		"version":"2.0"
	},
	"scene":0,
	"scenes":[
		{
			"name":"Scene",
			"nodes":[
				0,
				1
			]
		}
	],
	"nodes":[
		{
			"mesh":0,
			"name":"Icosphere.035"
		},
		{
			"mesh":1,
			"name":"Icosphere.002"
		}
	],
	"materials":[
		{
			"doubleSided":true,
			"name":"Material.002",
			"pbrMetallicRoughness":{
				"baseColorTexture":{
					"index":0
				},
				"metallicFactor":0,
				"roughnessFactor":0.800000011920929
			}
		},
		{
			"doubleSided":true,
			"name":"Material",
			"pbrMetallicRoughness":{
				"baseColorTexture":{
					"index":1
				},
				"metallicFactor":0,
				"roughnessFactor":0.800000011920929
			}
		}
	],
	"meshes":[
		{
			"name":"Icosphere",
			"primitives":[
				{
					"attributes":{
						"POSITION":0,
						"NORMAL":1,
						"TEXCOORD_0":2
					},
					"indices":3,
					"material":0
				}
			]
		},
		{
			"name":"Icosphere.003",
			"primitives":[
				{
					"attributes":{
						"POSITION":4,
						"NORMAL":5,
						"TEXCOORD_0":6
					},
					"indices":7,
					"material":1
				}
			]
		}
	],
	"textures":[
		{
			"sampler":0,
			"source":0
		},
		{
			"sampler":0,
			"source":0
		}
	],
	"images":[
		{
			"mimeType":"image/png",
			"name":"palette",
			"uri": "../../../textures/palette.png"
		}
	],
	"accessors":[
		{
			"bufferView":0,
			"componentType":5126,
			"count":1800,
			"max":[
				0.46133676171302795,
				0.4888507127761841,
				0.13175912201404572
			],
			"min":[
				-0.4613367021083832,
				0.0018978118896484375,
				-0.838297426700592
			],
			"type":"VEC3"
		},
		{
			"bufferView":1,
			"componentType":5126,
			"count":1800,
			"type":"VEC3"
		},
		{
			"bufferView":2,
			"componentType":5126,
			"count":1800,
			"type":"VEC2"
		},
		{
			"bufferView":3,
			"componentType":5123,
			"count":6000,
			"type":"SCALAR"
		},
		{
			"bufferView":4,
			"componentType":5126,
			"count":1224,
			"max":[
				0.4278450012207031,
				0.761509895324707,
				0.8586891889572144
			],
			"min":[
				-0.4424472451210022,
				0.0006243884563446045,
				0.15935349464416504
			],
			"type":"VEC3"
		},
		{
			"bufferView":5,
			"componentType":5126,
			"count":1224,
			"type":"VEC3"
		},
		{
			"bufferView":6,
			"componentType":5126,
			"count":1224,
			"type":"VEC2"
		},
		{
			"bufferView":7,
			"componentType":5123,
			"count":4080,
			"type":"SCALAR"
		}
	],
	"bufferViews":[
		{
			"buffer":0,
			"byteLength":21600,
			"byteOffset":0,
			"target":34962
		},
		{
			"buffer":0,
			"byteLength":21600,
			"byteOffset":21600,
			"target":34962
		},
		{
			"buffer":0,
			"byteLength":14400,
			"byteOffset":43200,
			"target":34962
		},
		{
			"buffer":0,
			"byteLength":12000,
			"byteOffset":57600,
			"target":34963
		},
		{
			"buffer":0,
			"byteLength":14688,
			"byteOffset":69600,
			"target":34962
		},
		{
			"buffer":0,
			"byteLength":14688,
			"byteOffset":84288,
			"target":34962
		},
		{
			"buffer":0,
			"byteLength":9792,
			"byteOffset":98976,
			"target":34962
		},
		{
			"buffer":0,
			"byteLength":8160,
			"byteOffset":108768,
			"target":34963
		}
	],
	"samplers":[
		{
			"magFilter":9728,
			"minFilter":9984
		}
	],
	"buffers":[
		{
			"byteLength":116928,
			"uri":"malina-cut.bin"
		}
	]
}
