{
	"asset":{
		"generator":"Khronos glTF Blender I/O v5.1.19",
		"version":"2.0"
	},
	"scene":0,
	"scenes":[
		{
			"name":"Scene",
			"nodes":[
				0,
				1,
				2,
				3
			]
		}
	],
	"nodes":[
		{
			"mesh":0,
			"name":"Circle.002"
		},
		{
			"mesh":1,
			"name":"Circle.001"
		},
		{
			"mesh":2,
			"name":"Cylinder"
		},
		{
			"mesh":3,
			"name":"Cylinder.001"
		}
	],
	"materials":[
		{
			"doubleSided":true,
			"name":"Material.001",
			"pbrMetallicRoughness":{
				"baseColorTexture":{
					"index":0
				},
				"metallicFactor":0,
				"roughnessFactor":0.5
			}
		}
	],
	"meshes":[
		{
			"name":"Circle.019",
			"primitives":[
				{
					"attributes":{
						"POSITION":0,
						"NORMAL":1,
						"TEXCOORD_0":2
					},
					"indices":3,
					"material":0
				}
			]
		},
		{
			"name":"Circle.003",
			"primitives":[
				{
					"attributes":{
						"POSITION":4,
						"NORMAL":5,
						"TEXCOORD_0":6
					},
					"indices":7,
					"material":0
				}
			]
		},
		{
			"name":"Cylinder",
			"primitives":[
				{
					"attributes":{
						"POSITION":8,
						"NORMAL":9,
						"TEXCOORD_0":10
					},
					"indices":11,
					"material":0
				}
			]
		},
		{
			"name":"Cylinder.001",
			"primitives":[
				{
					"attributes":{
						"POSITION":12,
						"NORMAL":13,
						"TEXCOORD_0":14
					},
					"indices":15,
					"material":0
				}
			]
		}
	],
	"textures":[
		{
			"sampler":0,
			"source":0
		}
	],
	"images":[
		{
			"mimeType": "image/png",
			"name": "palette",
			"uri": "../../../textures/palette.png"
		}
	],
	"accessors":[
		{
			"bufferView":0,
			"componentType":5126,
			"count":564,
			"max":[
				2.851949453353882,
				3.459404468536377,
				1.7667038440704346
			],
			"min":[
				-2.956911087036133,
				-0.027469396591186523,
				-2.5631046295166016
			],
			"type":"VEC3"
		},
		{
			"bufferView":1,
			"componentType":5126,
			"count":564,
			"type":"VEC3"
		},
		{
			"bufferView":2,
			"componentType":5126,
			"count":564,
			"type":"VEC2"
		},
		{
			"bufferView":3,
			"componentType":5123,
			"count":1524,
			"type":"SCALAR"
		},
		{
			"bufferView":4,
			"componentType":5126,
			"count":566,
			"max":[
				2.851949453353882,
				6.912954330444336,
				1.7667038440704346
			],
			"min":[
				-2.956911325454712,
				6.439561367034912,
				-2.5631048679351807
			],
			"type":"VEC3"
		},
		{
			"bufferView":5,
			"componentType":5126,
			"count":566,
			"type":"VEC3"
		},
		{
			"bufferView":6,
			"componentType":5126,
			"count":566,
			"type":"VEC2"
		},
		{
			"bufferView":7,
			"componentType":5123,
			"count":1524,
			"type":"SCALAR"
		},
		{
			"bufferView":8,
			"componentType":5126,
			"count":136,
			"max":[
				-2.1741015911102295,
				6.578614234924316,
				1.3794550895690918
			],
			"min":[
				-2.6369054317474365,
				2.9429829120635986,
				0.9166510701179504
			],
			"type":"VEC3"
		},
		{
			"bufferView":9,
			"componentType":5126,
			"count":136,
			"type":"VEC3"
		},
		{
			"bufferView":10,
			"componentType":5126,
			"count":136,
			"type":"VEC2"
		},
		{
			"bufferView":11,
			"componentType":5123,
			"count":372,
			"type":"SCALAR"
		},
		{
			"bufferView":12,
			"componentType":5126,
			"count":136,
			"max":[
				2.456929922103882,
				6.578614234924316,
				1.3794550895690918
			],
			"min":[
				1.9941259622573853,
				2.9429829120635986,
				0.9166510701179504
			],
			"type":"VEC3"
		},
		{
			"bufferView":13,
			"componentType":5126,
			"count":136,
			"type":"VEC3"
		},
		{
			"bufferView":14,
			"componentType":5126,
			"count":136,
			"type":"VEC2"
		},
		{
			"bufferView":15,
			"componentType":5123,
			"count":372,
			"type":"SCALAR"
		}
	],
	"bufferViews":[
		{
			"buffer":0,
			"byteLength":6768,
			"byteOffset":0,
			"target":34962
		},
		{
			"buffer":0,
			"byteLength":6768,
			"byteOffset":6768,
			"target":34962
		},
		{
			"buffer":0,
			"byteLength":4512,
			"byteOffset":13536,
			"target":34962
		},
		{
			"buffer":0,
			"byteLength":3048,
			"byteOffset":18048,
			"target":34963
		},
		{
			"buffer":0,
			"byteLength":6792,
			"byteOffset":21096,
			"target":34962
		},
		{
			"buffer":0,
			"byteLength":6792,
			"byteOffset":27888,
			"target":34962
		},
		{
			"buffer":0,
			"byteLength":4528,
			"byteOffset":34680,
			"target":34962
		},
		{
			"buffer":0,
			"byteLength":3048,
			"byteOffset":39208,
			"target":34963
		},
		{
			"buffer":0,
			"byteLength":1632,
			"byteOffset":42256,
			"target":34962
		},
		{
			"buffer":0,
			"byteLength":1632,
			"byteOffset":43888,
			"target":34962
		},
		{
			"buffer":0,
			"byteLength":1088,
			"byteOffset":45520,
			"target":34962
		},
		{
			"buffer":0,
			"byteLength":744,
			"byteOffset":46608,
			"target":34963
		},
		{
			"buffer":0,
			"byteLength":1632,
			"byteOffset":47352,
			"target":34962
		},
		{
			"buffer":0,
			"byteLength":1632,
			"byteOffset":48984,
			"target":34962
		},
		{
			"buffer":0,
			"byteLength":1088,
			"byteOffset":50616,
			"target":34962
		},
		{
			"buffer":0,
			"byteLength":744,
			"byteOffset":51704,
			"target":34963
		}
	],
	"samplers":[
		{
			"magFilter":9729,
			"minFilter":9987
		}
	],
	"buffers":[
		{
			"byteLength":52448,
			"uri":"event.bin"
		}
	]
}
