{
	"asset":{
		"generator":"Khronos glTF Blender I/O v5.1.19",
		"version":"2.0"
	},
	"extensionsUsed":[
		"KHR_materials_emissive_strength"
	],
	"scene":0,
	"scenes":[
		{
			"name":"Scene",
			"nodes":[
				0,
				1,
				2,
				3
			]
		}
	],
	"nodes":[
		{
			"mesh":0,
			"name":"Cylinder"
		},
		{
			"mesh":1,
			"name":"Cylinder.001"
		},
		{
			"mesh":2,
			"name":"Circle.003"
		},
		{
			"mesh":3,
			"name":"Circle.004"
		}
	],
	"materials":[
		{
			"doubleSided":true,
			"name":"Material.002",
			"pbrMetallicRoughness":{
				"baseColorTexture":{
					"index":0
				},
				"metallicFactor":0,
				"roughnessFactor":0.5
			}
		},
		{
			"doubleSided":true,
			"emissiveFactor":[
				1,
				1,
				1
			],
			"emissiveTexture":{
				"index":1,
				"texCoord":1
			},
			"extensions":{
				"KHR_materials_emissive_strength":{
					"emissiveStrength":2.499999761581421
				}
			},
			"name":"Material.001",
			"pbrMetallicRoughness":{
				"baseColorTexture":{
					"index":2
				},
				"metallicFactor":0,
				"roughnessFactor":0.5
			}
		}
	],
	"meshes":[
		{
			"name":"Cylinder",
			"primitives":[
				{
					"attributes":{
						"POSITION":0,
						"NORMAL":1,
						"TEXCOORD_0":2
					},
					"indices":3,
					"material":0
				}
			]
		},
		{
			"name":"Cylinder.001",
			"primitives":[
				{
					"attributes":{
						"POSITION":4,
						"NORMAL":5,
						"TEXCOORD_0":6
					},
					"indices":7,
					"material":0
				}
			]
		},
		{
			"name":"Circle.016",
			"primitives":[
				{
					"attributes":{
						"POSITION":8,
						"NORMAL":9,
						"TEXCOORD_0":10,
						"TEXCOORD_1":11
					},
					"indices":12,
					"material":1
				}
			]
		},
		{
			"name":"Circle.006",
			"primitives":[
				{
					"attributes":{
						"POSITION":13,
						"NORMAL":14,
						"TEXCOORD_0":15,
						"TEXCOORD_1":16
					},
					"indices":17,
					"material":1
				}
			]
		}
	],
	"textures":[
		{
			"sampler":0,
			"source":0
		},
		{
			"sampler":0,
			"source":1
		},
		{
			"sampler":0,
			"source":0
		}
	],
	"images":[
		{
			"mimeType": "image/png",
			"name": "palette",
			"uri": "../../../textures/palette.png"
		},
		{
			"mimeType":"image/png",
			"name":"detal",
			"uri":"detal.png"
		}
	],
	"accessors":[
		{
			"bufferView":0,
			"componentType":5126,
			"count":136,
			"max":[
				-2.1741015911102295,
				6.578614234924316,
				1.3794550895690918
			],
			"min":[
				-2.6369054317474365,
				2.9429829120635986,
				0.9166510701179504
			],
			"type":"VEC3"
		},
		{
			"bufferView":1,
			"componentType":5126,
			"count":136,
			"type":"VEC3"
		},
		{
			"bufferView":2,
			"componentType":5126,
			"count":136,
			"type":"VEC2"
		},
		{
			"bufferView":3,
			"componentType":5123,
			"count":372,
			"type":"SCALAR"
		},
		{
			"bufferView":4,
			"componentType":5126,
			"count":136,
			"max":[
				2.456929922103882,
				6.578614234924316,
				1.3794550895690918
			],
			"min":[
				1.9941259622573853,
				2.9429829120635986,
				0.9166510701179504
			],
			"type":"VEC3"
		},
		{
			"bufferView":5,
			"componentType":5126,
			"count":136,
			"type":"VEC3"
		},
		{
			"bufferView":6,
			"componentType":5126,
			"count":136,
			"type":"VEC2"
		},
		{
			"bufferView":7,
			"componentType":5123,
			"count":372,
			"type":"SCALAR"
		},
		{
			"bufferView":8,
			"componentType":5126,
			"count":280,
			"max":[
				2.8342180252075195,
				6.877291679382324,
				1.726598858833313
			],
			"min":[
				-2.9887900352478027,
				6.409803867340088,
				-2.4997291564941406
			],
			"type":"VEC3"
		},
		{
			"bufferView":9,
			"componentType":5126,
			"count":280,
			"type":"VEC3"
		},
		{
			"bufferView":10,
			"componentType":5126,
			"count":280,
			"type":"VEC2"
		},
		{
			"bufferView":11,
			"componentType":5126,
			"count":280,
			"type":"VEC2"
		},
		{
			"bufferView":12,
			"componentType":5123,
			"count":744,
			"type":"SCALAR"
		},
		{
			"bufferView":13,
			"componentType":5126,
			"count":280,
			"max":[
				2.8342180252075195,
				3.541130542755127,
				1.7265983819961548
			],
			"min":[
				-2.9887900352478027,
				-0.17713212966918945,
				-2.4997291564941406
			],
			"type":"VEC3"
		},
		{
			"bufferView":14,
			"componentType":5126,
			"count":280,
			"type":"VEC3"
		},
		{
			"bufferView":15,
			"componentType":5126,
			"count":280,
			"type":"VEC2"
		},
		{
			"bufferView":16,
			"componentType":5126,
			"count":280,
			"type":"VEC2"
		},
		{
			"bufferView":17,
			"componentType":5123,
			"count":744,
			"type":"SCALAR"
		}
	],
	"bufferViews":[
		{
			"buffer":0,
			"byteLength":1632,
			"byteOffset":0,
			"target":34962
		},
		{
			"buffer":0,
			"byteLength":1632,
			"byteOffset":1632,
			"target":34962
		},
		{
			"buffer":0,
			"byteLength":1088,
			"byteOffset":3264,
			"target":34962
		},
		{
			"buffer":0,
			"byteLength":744,
			"byteOffset":4352,
			"target":34963
		},
		{
			"buffer":0,
			"byteLength":1632,
			"byteOffset":5096,
			"target":34962
		},
		{
			"buffer":0,
			"byteLength":1632,
			"byteOffset":6728,
			"target":34962
		},
		{
			"buffer":0,
			"byteLength":1088,
			"byteOffset":8360,
			"target":34962
		},
		{
			"buffer":0,
			"byteLength":744,
			"byteOffset":9448,
			"target":34963
		},
		{
			"buffer":0,
			"byteLength":3360,
			"byteOffset":10192,
			"target":34962
		},
		{
			"buffer":0,
			"byteLength":3360,
			"byteOffset":13552,
			"target":34962
		},
		{
			"buffer":0,
			"byteLength":2240,
			"byteOffset":16912,
			"target":34962
		},
		{
			"buffer":0,
			"byteLength":2240,
			"byteOffset":19152,
			"target":34962
		},
		{
			"buffer":0,
			"byteLength":1488,
			"byteOffset":21392,
			"target":34963
		},
		{
			"buffer":0,
			"byteLength":3360,
			"byteOffset":22880,
			"target":34962
		},
		{
			"buffer":0,
			"byteLength":3360,
			"byteOffset":26240,
			"target":34962
		},
		{
			"buffer":0,
			"byteLength":2240,
			"byteOffset":29600,
			"target":34962
		},
		{
			"buffer":0,
			"byteLength":2240,
			"byteOffset":31840,
			"target":34962
		},
		{
			"buffer":0,
			"byteLength":1488,
			"byteOffset":34080,
			"target":34963
		}
	],
	"samplers":[
		{
			"magFilter":9729,
			"minFilter":9987
		}
	],
	"buffers":[
		{
			"byteLength":35568,
			"uri":"event-detal.bin"
		}
	]
}
