{
	"asset":{
		"generator":"Khronos glTF Blender I/O v4.4.56",
		"version":"2.0"
	},
	"extensionsUsed":[
		"KHR_materials_emissive_strength"
	],
	"scene":0,
	"scenes":[
		{
			"name":"Scene",
			"nodes":[
				0,
				1,
				2,
				3,
				4
			]
		}
	],
	"nodes":[
		{
			"mesh":0,
			"name":"Sphere.004"
		},
		{
			"mesh":1,
			"name":"Sphere.003"
		},
		{
			"mesh":2,
			"name":"Sphere.002"
		},
		{
			"mesh":3,
			"name":"Sphere.001"
		},
		{
			"mesh":4,
			"name":"Mball.015"
		}
	],
	"materials":[
		{
			"doubleSided":true,
			"emissiveFactor":[
				1,
				1,
				1
			],
			"emissiveTexture":{
				"index":0
			},
			"extensions":{
				"KHR_materials_emissive_strength":{
					"emissiveStrength":1.4999998807907104
				}
			},
			"name":"Material.003",
			"pbrMetallicRoughness":{
				"baseColorTexture":{
					"index":1
				},
				"metallicFactor":0,
				"roughnessFactor":0.5
			}
		},
		{
			"doubleSided":true,
			"emissiveFactor":[
				1,
				1,
				1
			],
			"emissiveTexture":{
				"index":0,
				"texCoord":1
			},
			"extensions":{
				"KHR_materials_emissive_strength":{
					"emissiveStrength":1.4999998807907104
				}
			},
			"name":"Material.003",
			"pbrMetallicRoughness":{
				"baseColorTexture":{
					"index":1
				},
				"metallicFactor":0,
				"roughnessFactor":0.5
			}
		}
	],
	"meshes":[
		{
			"name":"Sphere.004",
			"primitives":[
				{
					"attributes":{
						"POSITION":0,
						"NORMAL":1,
						"TEXCOORD_0":2
					},
					"indices":3,
					"material":0
				}
			]
		},
		{
			"name":"Sphere.003",
			"primitives":[
				{
					"attributes":{
						"POSITION":4,
						"NORMAL":5,
						"TEXCOORD_0":6
					},
					"indices":7,
					"material":0
				}
			]
		},
		{
			"name":"Sphere.002",
			"primitives":[
				{
					"attributes":{
						"POSITION":8,
						"NORMAL":9,
						"TEXCOORD_0":10,
						"TEXCOORD_1":11
					},
					"indices":12,
					"material":1
				}
			]
		},
		{
			"name":"Sphere.001",
			"primitives":[
				{
					"attributes":{
						"POSITION":13,
						"NORMAL":14,
						"TEXCOORD_0":15,
						"TEXCOORD_1":16
					},
					"indices":17,
					"material":1
				}
			]
		},
		{
			"name":"Mesh.002",
			"primitives":[
				{
					"attributes":{
						"POSITION":18,
						"NORMAL":19,
						"TEXCOORD_0":20
					},
					"indices":21,
					"material":0
				}
			]
		}
	],
	"textures":[
		{
			"sampler":0,
			"source":0
		},
		{
			"sampler":0,
			"source":1
		}
	],
	"images":[
		{
			"mimeType":"image/png",
			"name":"detal-owca",
			"uri":"detal-owca.png"
		},
		{
			"mimeType": "image/png",
			"name": "palette",
			"uri": "../../../textures/palette.png"
		}
	],
	"accessors":[
		{
			"bufferView":0,
			"componentType":5126,
			"count":158,
			"max":[
				0.24697059392929077,
				0.15217697620391846,
				0.19065645337104797
			],
			"min":[
				-0.40870675444602966,
				-0.25203394889831543,
				-0.1928042322397232
			],
			"type":"VEC3"
		},
		{
			"bufferView":1,
			"componentType":5126,
			"count":158,
			"type":"VEC3"
		},
		{
			"bufferView":2,
			"componentType":5126,
			"count":158,
			"type":"VEC2"
		},
		{
			"bufferView":3,
			"componentType":5123,
			"count":624,
			"type":"SCALAR"
		},
		{
			"bufferView":4,
			"componentType":5126,
			"count":756,
			"max":[
				0.15256722271442413,
				-0.18752723932266235,
				0.11591701209545135
			],
			"min":[
				-0.31429922580718994,
				-0.35193586349487305,
				-0.11595551669597626
			],
			"type":"VEC3"
		},
		{
			"bufferView":5,
			"componentType":5126,
			"count":756,
			"type":"VEC3"
		},
		{
			"bufferView":6,
			"componentType":5126,
			"count":756,
			"type":"VEC2"
		},
		{
			"bufferView":7,
			"componentType":5123,
			"count":2898,
			"type":"SCALAR"
		},
		{
			"bufferView":8,
			"componentType":5126,
			"count":453,
			"max":[
				0.358489066362381,
				0.12842215597629547,
				0.27072426676750183
			],
			"min":[
				0.22139713168144226,
				0.01252128928899765,
				-0.2707568109035492
			],
			"type":"VEC3"
		},
		{
			"bufferView":9,
			"componentType":5126,
			"count":453,
			"type":"VEC3"
		},
		{
			"bufferView":10,
			"componentType":5126,
			"count":453,
			"type":"VEC2"
		},
		{
			"bufferView":11,
			"componentType":5126,
			"count":453,
			"type":"VEC2"
		},
		{
			"bufferView":12,
			"componentType":5123,
			"count":1878,
			"type":"SCALAR"
		},
		{
			"bufferView":13,
			"componentType":5126,
			"count":287,
			"max":[
				0.43403542041778564,
				0.173190176486969,
				0.19239628314971924
			],
			"min":[
				0.14609606564044952,
				-0.21168623864650726,
				-0.1919781118631363
			],
			"type":"VEC3"
		},
		{
			"bufferView":14,
			"componentType":5126,
			"count":287,
			"type":"VEC3"
		},
		{
			"bufferView":15,
			"componentType":5126,
			"count":287,
			"type":"VEC2"
		},
		{
			"bufferView":16,
			"componentType":5126,
			"count":287,
			"type":"VEC2"
		},
		{
			"bufferView":17,
			"componentType":5123,
			"count":1212,
			"type":"SCALAR"
		},
		{
			"bufferView":18,
			"componentType":5126,
			"count":669,
			"max":[
				0.20297709107398987,
				0.20226842164993286,
				0.269591748714447
			],
			"min":[
				-0.4401739835739136,
				-0.2936497628688812,
				-0.261996865272522
			],
			"type":"VEC3"
		},
		{
			"bufferView":19,
			"componentType":5126,
			"count":669,
			"type":"VEC3"
		},
		{
			"bufferView":20,
			"componentType":5126,
			"count":669,
			"type":"VEC2"
		},
		{
			"bufferView":21,
			"componentType":5123,
			"count":2970,
			"type":"SCALAR"
		}
	],
	"bufferViews":[
		{
			"buffer":0,
			"byteLength":1896,
			"byteOffset":0,
			"target":34962
		},
		{
			"buffer":0,
			"byteLength":1896,
			"byteOffset":1896,
			"target":34962
		},
		{
			"buffer":0,
			"byteLength":1264,
			"byteOffset":3792,
			"target":34962
		},
		{
			"buffer":0,
			"byteLength":1248,
			"byteOffset":5056,
			"target":34963
		},
		{
			"buffer":0,
			"byteLength":9072,
			"byteOffset":6304,
			"target":34962
		},
		{
			"buffer":0,
			"byteLength":9072,
			"byteOffset":15376,
			"target":34962
		},
		{
			"buffer":0,
			"byteLength":6048,
			"byteOffset":24448,
			"target":34962
		},
		{
			"buffer":0,
			"byteLength":5796,
			"byteOffset":30496,
			"target":34963
		},
		{
			"buffer":0,
			"byteLength":5436,
			"byteOffset":36292,
			"target":34962
		},
		{
			"buffer":0,
			"byteLength":5436,
			"byteOffset":41728,
			"target":34962
		},
		{
			"buffer":0,
			"byteLength":3624,
			"byteOffset":47164,
			"target":34962
		},
		{
			"buffer":0,
			"byteLength":3624,
			"byteOffset":50788,
			"target":34962
		},
		{
			"buffer":0,
			"byteLength":3756,
			"byteOffset":54412,
			"target":34963
		},
		{
			"buffer":0,
			"byteLength":3444,
			"byteOffset":58168,
			"target":34962
		},
		{
			"buffer":0,
			"byteLength":3444,
			"byteOffset":61612,
			"target":34962
		},
		{
			"buffer":0,
			"byteLength":2296,
			"byteOffset":65056,
			"target":34962
		},
		{
			"buffer":0,
			"byteLength":2296,
			"byteOffset":67352,
			"target":34962
		},
		{
			"buffer":0,
			"byteLength":2424,
			"byteOffset":69648,
			"target":34963
		},
		{
			"buffer":0,
			"byteLength":8028,
			"byteOffset":72072,
			"target":34962
		},
		{
			"buffer":0,
			"byteLength":8028,
			"byteOffset":80100,
			"target":34962
		},
		{
			"buffer":0,
			"byteLength":5352,
			"byteOffset":88128,
			"target":34962
		},
		{
			"buffer":0,
			"byteLength":5940,
			"byteOffset":93480,
			"target":34963
		}
	],
	"samplers":[
		{
			"magFilter":9729,
			"minFilter":9987
		}
	],
	"buffers":[
		{
			"byteLength":99420,
			"uri":"owca.bin"
		}
	]
}
