{
	"asset":{
		"generator":"Khronos glTF Blender I/O v5.1.19",
		"version":"2.0"
	},
	"scene":0,
	"scenes":[
		{
			"name":"Scene",
			"nodes":[
				0
			]
		}
	],
	"nodes":[
		{
			"mesh":0,
			"name":"Sphere.002",
			"rotation":[
				0.70710688829422,
				0,
				0,
				0.7071066498756409
			],
			"scale":[
				0.9273737072944641,
				0.9273736476898193,
				0.9273735880851746
			],
			"translation":[
				0,
				1.0224316120147705,
				0.02111276611685753
			]
		}
	],
	"animations":[
		{
			"channels":[
				{
					"sampler":0,
					"target":{
						"node":0,
						"path":"translation"
					}
				},
				{
					"sampler":1,
					"target":{
						"node":0,
						"path":"rotation"
					}
				},
				{
					"sampler":2,
					"target":{
						"node":0,
						"path":"scale"
					}
				}
			],
			"name":"Sphere.002Action",
			"samplers":[
				{
					"input":4,
					"interpolation":"STEP",
					"output":5
				},
				{
					"input":6,
					"interpolation":"LINEAR",
					"output":7
				},
				{
					"input":4,
					"interpolation":"LINEAR",
					"output":8
				}
			]
		}
	],
	"materials":[
		{
			"doubleSided":true,
			"name":"Material.001",
			"pbrMetallicRoughness":{
				"baseColorTexture":{
					"index":0
				},
				"metallicFactor":0,
				"roughnessFactor":0.5
			}
		}
	],
	"meshes":[
		{
			"name":"Sphere.001",
			"primitives":[
				{
					"attributes":{
						"POSITION":0,
						"NORMAL":1,
						"TEXCOORD_0":2
					},
					"indices":3,
					"material":0
				}
			]
		}
	],
	"textures":[
		{
			"sampler":0,
			"source":0
		}
	],
	"images":[
		{
			"mimeType":"image/png",
			"name":"palette",
			"uri":"../../../textures/palette.png"
		}
	],
	"accessors":[
		{
			"bufferView":0,
			"componentType":5126,
			"count":414,
			"max":[
				0.9999991655349731,
				0.999782145023346,
				0.9997820854187012
			],
			"min":[
				-0.9999998211860657,
				-0.020884554833173752,
				-0.0069230240769684315
			],
			"type":"VEC3"
		},
		{
			"bufferView":1,
			"componentType":5126,
			"count":414,
			"type":"VEC3"
		},
		{
			"bufferView":2,
			"componentType":5126,
			"count":414,
			"type":"VEC2"
		},
		{
			"bufferView":3,
			"componentType":5123,
			"count":1656,
			"type":"SCALAR"
		},
		{
			"bufferView":4,
			"componentType":5126,
			"count":2,
			"max":[
				0.875
			],
			"min":[
				0.041666666666666664
			],
			"type":"SCALAR"
		},
		{
			"bufferView":5,
			"componentType":5126,
			"count":2,
			"type":"VEC3"
		},
		{
			"bufferView":6,
			"componentType":5126,
			"count":21,
			"max":[
				0.875
			],
			"min":[
				0.041666666666666664
			],
			"type":"SCALAR"
		},
		{
			"bufferView":7,
			"componentType":5126,
			"count":21,
			"type":"VEC4"
		},
		{
			"bufferView":8,
			"componentType":5126,
			"count":2,
			"type":"VEC3"
		}
	],
	"bufferViews":[
		{
			"buffer":0,
			"byteLength":4968,
			"byteOffset":0,
			"target":34962
		},
		{
			"buffer":0,
			"byteLength":4968,
			"byteOffset":4968,
			"target":34962
		},
		{
			"buffer":0,
			"byteLength":3312,
			"byteOffset":9936,
			"target":34962
		},
		{
			"buffer":0,
			"byteLength":3312,
			"byteOffset":13248,
			"target":34963
		},
		{
			"buffer":0,
			"byteLength":8,
			"byteOffset":16560
		},
		{
			"buffer":0,
			"byteLength":24,
			"byteOffset":16568
		},
		{
			"buffer":0,
			"byteLength":84,
			"byteOffset":16592
		},
		{
			"buffer":0,
			"byteLength":336,
			"byteOffset":16676
		},
		{
			"buffer":0,
			"byteLength":24,
			"byteOffset":17012
		}
	],
	"samplers":[
		{
			"magFilter":9729,
			"minFilter":9987
		}
	],
	"buffers":[
		{
			"byteLength":17036,
			"uri":"kosz_zamykanie.bin"
		}
	]
}
