{
	"asset":{
		"generator":"Khronos glTF Blender I/O v4.4.56",
		"version":"2.0"
	},
	"scene":0,
	"scenes":[
		{
			"name":"Scene",
			"nodes":[
				0,
				1,
				2
			]
		}
	],
	"nodes":[
		{
			"mesh":0,
			"name":"Sphere.001",
			"rotation":[
				-8.666468784213066e-05,
				-0.6996839642524719,
				-0.7144525051116943,
				4.7926972911227494e-05
			],
			"scale":[
				0.9273734092712402,
				0.9273734092712402,
				0.927373468875885
			],
			"translation":[
				0,
				1.0224316120147705,
				0.02111276611685753
			]
		},
		{
			"mesh":1,
			"name":"Sphere.003",
			"translation":[
				0,
				1.050077199935913,
				0
			]
		},
		{
			"mesh":2,
			"name":"Cylinder.001",
			"scale":[
				1,
				1,
				1.0253747701644897
			],
			"translation":[
				0,
				0,
				0.022788137197494507
			]
		}
	],
	"animations":[
		{
			"channels":[
				{
					"sampler":0,
					"target":{
						"node":0,
						"path":"translation"
					}
				},
				{
					"sampler":1,
					"target":{
						"node":0,
						"path":"rotation"
					}
				},
				{
					"sampler":2,
					"target":{
						"node":0,
						"path":"scale"
					}
				}
			],
			"name":"Sphere.002Action.001",
			"samplers":[
				{
					"input":11,
					"interpolation":"STEP",
					"output":12
				},
				{
					"input":13,
					"interpolation":"LINEAR",
					"output":14
				},
				{
					"input":11,
					"interpolation":"STEP",
					"output":15
				}
			]
		},
		{
			"channels":[
				{
					"sampler":0,
					"target":{
						"node":1,
						"path":"translation"
					}
				},
				{
					"sampler":1,
					"target":{
						"node":1,
						"path":"rotation"
					}
				},
				{
					"sampler":2,
					"target":{
						"node":1,
						"path":"scale"
					}
				}
			],
			"name":"SphereAction.001",
			"samplers":[
				{
					"input":11,
					"interpolation":"STEP",
					"output":16
				},
				{
					"input":11,
					"interpolation":"STEP",
					"output":17
				},
				{
					"input":11,
					"interpolation":"STEP",
					"output":18
				}
			]
		},
		{
			"channels":[
				{
					"sampler":0,
					"target":{
						"node":2,
						"path":"translation"
					}
				},
				{
					"sampler":1,
					"target":{
						"node":2,
						"path":"rotation"
					}
				},
				{
					"sampler":2,
					"target":{
						"node":2,
						"path":"scale"
					}
				}
			],
			"name":"CylinderAction.001",
			"samplers":[
				{
					"input":11,
					"interpolation":"STEP",
					"output":19
				},
				{
					"input":11,
					"interpolation":"STEP",
					"output":20
				},
				{
					"input":11,
					"interpolation":"STEP",
					"output":21
				}
			]
		}
	],
	"materials":[
		{
			"doubleSided":true,
			"name":"Material.003",
			"pbrMetallicRoughness":{
				"baseColorTexture":{
					"index":0
				},
				"metallicFactor":0,
				"roughnessFactor":0.5
			}
		},
		{
			"doubleSided":true,
			"name":"Material.004",
			"pbrMetallicRoughness":{
				"baseColorTexture":{
					"index":1
				},
				"metallicFactor":0,
				"roughnessFactor":0.5
			}
		}
	],
	"meshes":[
		{
			"name":"Sphere.004",
			"primitives":[
				{
					"attributes":{
						"POSITION":0,
						"NORMAL":1,
						"TEXCOORD_0":2
					},
					"indices":3,
					"material":0
				}
			]
		},
		{
			"name":"Sphere.005",
			"primitives":[
				{
					"attributes":{
						"POSITION":4,
						"NORMAL":5,
						"TEXCOORD_0":6
					},
					"indices":3,
					"material":1
				}
			]
		},
		{
			"name":"Cylinder.001",
			"primitives":[
				{
					"attributes":{
						"POSITION":7,
						"NORMAL":8,
						"TEXCOORD_0":9
					},
					"indices":10,
					"material":1
				}
			]
		}
	],
	"textures":[
		{
			"sampler":0,
			"source":0
		},
		{
			"sampler":0,
			"source":0
		}
	],
	"images":[
		{
			"mimeType": "image/png",
			"name": "palette",
			"uri": "../../../textures/palette.png"
		}
	],
	"accessors":[
		{
			"bufferView":0,
			"componentType":5126,
			"count":412,
			"max":[
				0.9999997019767761,
				1,
				0.006831047125160694
			],
			"min":[
				-0.9999990463256836,
				-0.006827865727245808,
				-1
			],
			"type":"VEC3"
		},
		{
			"bufferView":1,
			"componentType":5126,
			"count":412,
			"type":"VEC3"
		},
		{
			"bufferView":2,
			"componentType":5126,
			"count":412,
			"type":"VEC2"
		},
		{
			"bufferView":3,
			"componentType":5123,
			"count":1656,
			"type":"SCALAR"
		},
		{
			"bufferView":4,
			"componentType":5126,
			"count":412,
			"max":[
				0.9999997019767761,
				1,
				0.006831047125160694
			],
			"min":[
				-0.9999990463256836,
				-0.006827865727245808,
				-1
			],
			"type":"VEC3"
		},
		{
			"bufferView":5,
			"componentType":5126,
			"count":412,
			"type":"VEC3"
		},
		{
			"bufferView":6,
			"componentType":5126,
			"count":412,
			"type":"VEC2"
		},
		{
			"bufferView":7,
			"componentType":5126,
			"count":274,
			"max":[
				1,
				1,
				1
			],
			"min":[
				-1,
				-1,
				-1
			],
			"type":"VEC3"
		},
		{
			"bufferView":8,
			"componentType":5126,
			"count":274,
			"type":"VEC3"
		},
		{
			"bufferView":9,
			"componentType":5126,
			"count":274,
			"type":"VEC2"
		},
		{
			"bufferView":10,
			"componentType":5123,
			"count":756,
			"type":"SCALAR"
		},
		{
			"bufferView":11,
			"componentType":5126,
			"count":2,
			"max":[
				1.6666666666666667
			],
			"min":[
				0.041666666666666664
			],
			"type":"SCALAR"
		},
		{
			"bufferView":12,
			"componentType":5126,
			"count":2,
			"type":"VEC3"
		},
		{
			"bufferView":13,
			"componentType":5126,
			"count":40,
			"max":[
				1.6666666666666667
			],
			"min":[
				0.041666666666666664
			],
			"type":"SCALAR"
		},
		{
			"bufferView":14,
			"componentType":5126,
			"count":40,
			"type":"VEC4"
		},
		{
			"bufferView":15,
			"componentType":5126,
			"count":2,
			"type":"VEC3"
		},
		{
			"bufferView":16,
			"componentType":5126,
			"count":2,
			"type":"VEC3"
		},
		{
			"bufferView":17,
			"componentType":5126,
			"count":2,
			"type":"VEC4"
		},
		{
			"bufferView":18,
			"componentType":5126,
			"count":2,
			"type":"VEC3"
		},
		{
			"bufferView":19,
			"componentType":5126,
			"count":2,
			"type":"VEC3"
		},
		{
			"bufferView":20,
			"componentType":5126,
			"count":2,
			"type":"VEC4"
		},
		{
			"bufferView":21,
			"componentType":5126,
			"count":2,
			"type":"VEC3"
		}
	],
	"bufferViews":[
		{
			"buffer":0,
			"byteLength":4944,
			"byteOffset":0,
			"target":34962
		},
		{
			"buffer":0,
			"byteLength":4944,
			"byteOffset":4944,
			"target":34962
		},
		{
			"buffer":0,
			"byteLength":3296,
			"byteOffset":9888,
			"target":34962
		},
		{
			"buffer":0,
			"byteLength":3312,
			"byteOffset":13184,
			"target":34963
		},
		{
			"buffer":0,
			"byteLength":4944,
			"byteOffset":16496,
			"target":34962
		},
		{
			"buffer":0,
			"byteLength":4944,
			"byteOffset":21440,
			"target":34962
		},
		{
			"buffer":0,
			"byteLength":3296,
			"byteOffset":26384,
			"target":34962
		},
		{
			"buffer":0,
			"byteLength":3288,
			"byteOffset":29680,
			"target":34962
		},
		{
			"buffer":0,
			"byteLength":3288,
			"byteOffset":32968,
			"target":34962
		},
		{
			"buffer":0,
			"byteLength":2192,
			"byteOffset":36256,
			"target":34962
		},
		{
			"buffer":0,
			"byteLength":1512,
			"byteOffset":38448,
			"target":34963
		},
		{
			"buffer":0,
			"byteLength":8,
			"byteOffset":39960
		},
		{
			"buffer":0,
			"byteLength":24,
			"byteOffset":39968
		},
		{
			"buffer":0,
			"byteLength":160,
			"byteOffset":39992
		},
		{
			"buffer":0,
			"byteLength":640,
			"byteOffset":40152
		},
		{
			"buffer":0,
			"byteLength":24,
			"byteOffset":40792
		},
		{
			"buffer":0,
			"byteLength":24,
			"byteOffset":40816
		},
		{
			"buffer":0,
			"byteLength":32,
			"byteOffset":40840
		},
		{
			"buffer":0,
			"byteLength":24,
			"byteOffset":40872
		},
		{
			"buffer":0,
			"byteLength":24,
			"byteOffset":40896
		},
		{
			"buffer":0,
			"byteLength":32,
			"byteOffset":40920
		},
		{
			"buffer":0,
			"byteLength":24,
			"byteOffset":40952
		}
	],
	"samplers":[
		{
			"magFilter":9729,
			"minFilter":9987
		}
	],
	"buffers":[
		{
			"byteLength":40976,
			"uri":"kosz.bin"
		}
	]
}
