{
	"asset":{
		"generator":"Khronos glTF Blender I/O v5.1.19",
		"version":"2.0"
	},
	"scene":0,
	"scenes":[
		{
			"name":"Scene",
			"nodes":[
				0
			]
		}
	],
	"nodes":[
		{
			"mesh":0,
			"name":"Sphere.002",
			"rotation":[
				0.70710688829422,
				0,
				0,
				0.7071066498756409
			],
			"scale":[
				0.9273737072944641,
				0.9273736476898193,
				0.9273735880851746
			],
			"translation":[
				0,
				1.0224316120147705,
				0.02111276611685753
			]
		}
	],
	"materials":[
		{
			"doubleSided":true,
			"name":"Material.001",
			"pbrMetallicRoughness":{
				"baseColorTexture":{
					"index":0
				},
				"metallicFactor":0,
				"roughnessFactor":0.5
			}
		}
	],
	"meshes":[
		{
			"name":"Sphere.001",
			"primitives":[
				{
					"attributes":{
						"POSITION":0,
						"NORMAL":1,
						"TEXCOORD_0":2
					},
					"indices":3,
					"material":0
				}
			]
		}
	],
	"textures":[
		{
			"sampler":0,
			"source":0
		}
	],
	"images":[
		{
			"mimeType":"image/png",
			"name":"palette",
			"uri":"../../../textures/palette.png"
		}
	],
	"accessors":[
		{
			"bufferView":0,
			"componentType":5126,
			"count":414,
			"max":[
				0.927372932434082,
				0.9271714687347412,
				0.9271714091300964
			],
			"min":[
				-0.9273735284805298,
				-0.019367782399058342,
				-0.0064202286303043365
			],
			"type":"VEC3"
		},
		{
			"bufferView":1,
			"componentType":5126,
			"count":414,
			"type":"VEC3"
		},
		{
			"bufferView":2,
			"componentType":5126,
			"count":414,
			"type":"VEC2"
		},
		{
			"bufferView":3,
			"componentType":5123,
			"count":1656,
			"type":"SCALAR"
		}
	],
	"bufferViews":[
		{
			"buffer":0,
			"byteLength":4968,
			"byteOffset":0,
			"target":34962
		},
		{
			"buffer":0,
			"byteLength":4968,
			"byteOffset":4968,
			"target":34962
		},
		{
			"buffer":0,
			"byteLength":3312,
			"byteOffset":9936,
			"target":34962
		},
		{
			"buffer":0,
			"byteLength":3312,
			"byteOffset":13248,
			"target":34963
		}
	],
	"samplers":[
		{
			"magFilter":9729,
			"minFilter":9987
		}
	],
	"buffers":[
		{
			"byteLength":16560,
			"uri":"kosz_klapa.bin"
		}
	]
}
