{
	"asset":{
		"generator":"Khronos glTF Blender I/O v5.1.19",
		"version":"2.0"
	},
	"extensionsUsed":[
		"KHR_materials_emissive_strength"
	],
	"scene":0,
	"scenes":[
		{
			"name":"Scene",
			"nodes":[
				13
			]
		}
	],
	"nodes":[
		{
			"name":"listek",
			"rotation":[
				4.8808679764533736e-08,
				1.1646130815279321e-07,
				-0.12218347191810608,
				0.9925075173377991
			],
			"translation":[
				-1.7191581491715624e-10,
				1.2881884574890137,
				1.8193843098757156e-09
			]
		},
		{
			"children":[
				0
			],
			"name":"kregoslup",
			"rotation":[
				0,
				1.1920927533992653e-07,
				0,
				1
			],
			"translation":[
				7.842348992426196e-11,
				0.5875692367553711,
				2.818836275508829e-10
			]
		},
		{
			"name":"reka-p",
			"rotation":[
				2.3226791157071602e-08,
				5.053227170037644e-08,
				-0.24139614403247833,
				0.970426619052887
			],
			"translation":[
				1.2232733936912155e-08,
				1.1784133911132812,
				-1.5727152913314058e-09
			]
		},
		{
			"children":[
				2
			],
			"name":"prawo0tlow",
			"rotation":[
				3.194233499925758e-08,
				1.492968387806215e-10,
				-0.7271378636360168,
				0.6864914298057556
			],
			"translation":[
				7.842348992426196e-11,
				0.5875692367553711,
				2.818836275508829e-10
			]
		},
		{
			"name":"reka-l",
			"rotation":[
				-9.48483176443915e-08,
				-1.2169450336330101e-08,
				0.35198479890823364,
				0.936005711555481
			],
			"scale":[
				1,
				0.9999999403953552,
				1
			],
			"translation":[
				-3.645681800890088e-08,
				1.1784138679504395,
				6.827459486657972e-09
			]
		},
		{
			"children":[
				4
			],
			"name":"tlow-l",
			"rotation":[
				-1.1858887916105232e-07,
				8.195238621055978e-08,
				0.7271377444267273,
				0.6864915490150452
			],
			"scale":[
				1,
				0.9999999403953552,
				1
			],
			"translation":[
				7.842348992426196e-11,
				0.5875692367553711,
				2.818836275508829e-10
			]
		},
		{
			"children":[
				1,
				3,
				5
			],
			"name":"glowna",
			"rotation":[
				0,
				0.7071067690849304,
				0,
				0.7071067690849304
			],
			"scale":[
				1,
				0.9999999403953552,
				1
			],
			"translation":[
				9.5367431640625e-07,
				-0.43003177642822266,
				0.01145172119140625
			]
		},
		{
			"name":"stopa-p",
			"rotation":[
				-0.4097732603549957,
				-2.8785079209114883e-08,
				5.4378642033725555e-08,
				0.912187397480011
			],
			"scale":[
				1,
				1,
				0.9999999403953552
			],
			"translation":[
				-2.6502737782152508e-09,
				0.5667420029640198,
				1.840745156300727e-08
			]
		},
		{
			"children":[
				7
			],
			"name":"miednica-p",
			"rotation":[
				-0.7964316606521606,
				-3.058357833651826e-08,
				4.0278788304703994e-08,
				0.6047285199165344
			],
			"scale":[
				1,
				0.9999999403953552,
				1
			],
			"translation":[
				9.5367431640625e-07,
				-0.43003177642822266,
				0.01145172119140625
			]
		},
		{
			"name":"stopa-l",
			"rotation":[
				0.40245428681373596,
				-5.9459665635586134e-08,
				7.65801502211616e-08,
				0.9154400825500488
			],
			"scale":[
				1,
				1,
				1.0000001192092896
			],
			"translation":[
				-8.575540277888649e-11,
				0.5717311501502991,
				9.604644191085754e-09
			]
		},
		{
			"children":[
				9
			],
			"name":"miednica-l",
			"rotation":[
				0.8053272366523743,
				7.565542148313398e-08,
				1.0277369000277758e-07,
				0.5928305983543396
			],
			"scale":[
				1,
				1,
				1.0000009536743164
			],
			"translation":[
				9.5367431640625e-07,
				-0.43003177642822266,
				0.01145172119140625
			]
		},
		{
			"mesh":0,
			"name":"cialo.003",
			"skin":0
		},
		{
			"children":[
				11,
				6,
				8,
				10
			],
			"name":"Armature.003",
			"translation":[
				-0.10832595825195312,
				0.5539727210998535,
				-0.017900466918945312
			]
		},
		{
			"children":[
				12
			],
			"name":"Empty"
		}
	],
	"animations":[
		{
			"channels":[
				{
					"sampler":0,
					"target":{
						"node":6,
						"path":"translation"
					}
				},
				{
					"sampler":1,
					"target":{
						"node":6,
						"path":"rotation"
					}
				},
				{
					"sampler":2,
					"target":{
						"node":6,
						"path":"scale"
					}
				},
				{
					"sampler":3,
					"target":{
						"node":1,
						"path":"translation"
					}
				},
				{
					"sampler":4,
					"target":{
						"node":1,
						"path":"rotation"
					}
				},
				{
					"sampler":5,
					"target":{
						"node":1,
						"path":"scale"
					}
				},
				{
					"sampler":6,
					"target":{
						"node":0,
						"path":"translation"
					}
				},
				{
					"sampler":7,
					"target":{
						"node":0,
						"path":"rotation"
					}
				},
				{
					"sampler":8,
					"target":{
						"node":0,
						"path":"scale"
					}
				},
				{
					"sampler":9,
					"target":{
						"node":3,
						"path":"translation"
					}
				},
				{
					"sampler":10,
					"target":{
						"node":3,
						"path":"rotation"
					}
				},
				{
					"sampler":11,
					"target":{
						"node":3,
						"path":"scale"
					}
				},
				{
					"sampler":12,
					"target":{
						"node":2,
						"path":"translation"
					}
				},
				{
					"sampler":13,
					"target":{
						"node":2,
						"path":"rotation"
					}
				},
				{
					"sampler":14,
					"target":{
						"node":2,
						"path":"scale"
					}
				},
				{
					"sampler":15,
					"target":{
						"node":5,
						"path":"translation"
					}
				},
				{
					"sampler":16,
					"target":{
						"node":5,
						"path":"rotation"
					}
				},
				{
					"sampler":17,
					"target":{
						"node":5,
						"path":"scale"
					}
				},
				{
					"sampler":18,
					"target":{
						"node":4,
						"path":"translation"
					}
				},
				{
					"sampler":19,
					"target":{
						"node":4,
						"path":"rotation"
					}
				},
				{
					"sampler":20,
					"target":{
						"node":4,
						"path":"scale"
					}
				},
				{
					"sampler":21,
					"target":{
						"node":8,
						"path":"translation"
					}
				},
				{
					"sampler":22,
					"target":{
						"node":8,
						"path":"rotation"
					}
				},
				{
					"sampler":23,
					"target":{
						"node":8,
						"path":"scale"
					}
				},
				{
					"sampler":24,
					"target":{
						"node":7,
						"path":"translation"
					}
				},
				{
					"sampler":25,
					"target":{
						"node":7,
						"path":"rotation"
					}
				},
				{
					"sampler":26,
					"target":{
						"node":7,
						"path":"scale"
					}
				},
				{
					"sampler":27,
					"target":{
						"node":10,
						"path":"translation"
					}
				},
				{
					"sampler":28,
					"target":{
						"node":10,
						"path":"rotation"
					}
				},
				{
					"sampler":29,
					"target":{
						"node":10,
						"path":"scale"
					}
				},
				{
					"sampler":30,
					"target":{
						"node":9,
						"path":"translation"
					}
				},
				{
					"sampler":31,
					"target":{
						"node":9,
						"path":"rotation"
					}
				},
				{
					"sampler":32,
					"target":{
						"node":9,
						"path":"scale"
					}
				}
			],
			"name":"Armature.003Action",
			"samplers":[
				{
					"input":8,
					"interpolation":"STEP",
					"output":9
				},
				{
					"input":8,
					"interpolation":"STEP",
					"output":10
				},
				{
					"input":8,
					"interpolation":"STEP",
					"output":11
				},
				{
					"input":8,
					"interpolation":"STEP",
					"output":12
				},
				{
					"input":13,
					"interpolation":"LINEAR",
					"output":14
				},
				{
					"input":8,
					"interpolation":"STEP",
					"output":15
				},
				{
					"input":8,
					"interpolation":"STEP",
					"output":16
				},
				{
					"input":8,
					"interpolation":"STEP",
					"output":17
				},
				{
					"input":8,
					"interpolation":"STEP",
					"output":15
				},
				{
					"input":8,
					"interpolation":"STEP",
					"output":18
				},
				{
					"input":8,
					"interpolation":"STEP",
					"output":19
				},
				{
					"input":8,
					"interpolation":"STEP",
					"output":11
				},
				{
					"input":8,
					"interpolation":"STEP",
					"output":20
				},
				{
					"input":13,
					"interpolation":"LINEAR",
					"output":21
				},
				{
					"input":8,
					"interpolation":"STEP",
					"output":22
				},
				{
					"input":8,
					"interpolation":"STEP",
					"output":23
				},
				{
					"input":8,
					"interpolation":"STEP",
					"output":24
				},
				{
					"input":8,
					"interpolation":"STEP",
					"output":11
				},
				{
					"input":8,
					"interpolation":"STEP",
					"output":25
				},
				{
					"input":8,
					"interpolation":"STEP",
					"output":26
				},
				{
					"input":8,
					"interpolation":"STEP",
					"output":27
				},
				{
					"input":8,
					"interpolation":"STEP",
					"output":28
				},
				{
					"input":8,
					"interpolation":"STEP",
					"output":29
				},
				{
					"input":8,
					"interpolation":"STEP",
					"output":11
				},
				{
					"input":8,
					"interpolation":"STEP",
					"output":30
				},
				{
					"input":8,
					"interpolation":"STEP",
					"output":31
				},
				{
					"input":8,
					"interpolation":"STEP",
					"output":32
				},
				{
					"input":8,
					"interpolation":"STEP",
					"output":33
				},
				{
					"input":8,
					"interpolation":"STEP",
					"output":34
				},
				{
					"input":8,
					"interpolation":"STEP",
					"output":35
				},
				{
					"input":8,
					"interpolation":"STEP",
					"output":36
				},
				{
					"input":8,
					"interpolation":"STEP",
					"output":37
				},
				{
					"input":8,
					"interpolation":"STEP",
					"output":38
				}
			]
		}
	],
	"materials":[
		{
			"doubleSided":true,
			"emissiveFactor":[
				1,
				1,
				1
			],
			"emissiveTexture":{
				"index":0,
				"texCoord":1
			},
			"extensions":{
				"KHR_materials_emissive_strength":{
					"emissiveStrength":2.3999998569488525
				}
			},
			"name":"Material.026",
			"pbrMetallicRoughness":{
				"baseColorTexture":{
					"index":1
				},
				"metallicFactor":0,
				"roughnessFactor":0.5
			}
		}
	],
	"meshes":[
		{
			"name":"Sphere.023",
			"primitives":[
				{
					"attributes":{
						"POSITION":0,
						"NORMAL":1,
						"TEXCOORD_0":2,
						"TEXCOORD_1":3,
						"JOINTS_0":4,
						"WEIGHTS_0":5
					},
					"indices":6,
					"material":0
				}
			]
		}
	],
	"textures":[
		{
			"sampler":0,
			"source":0
		},
		{
			"sampler":1,
			"source":1
		}
	],
	"images":[
		{
			"mimeType":"image/png",
			"name":"detal-pomidor",
			"uri":"../detal-pomidor.png"
		},
		{
			"mimeType": "image/png",
			"name": "palette",
			"uri": "../../../../textures/palette.png"
		}
	],
	"skins":[
		{
			"inverseBindMatrices":7,
			"joints":[
				6,
				1,
				0,
				3,
				2,
				5,
				4,
				8,
				7,
				10,
				9
			],
			"name":"Armature.003"
		}
	],
	"accessors":[
		{
			"bufferView":0,
			"componentType":5126,
			"count":3113,
			"max":[
				0.7766599655151367,
				2.556647777557373,
				1.5637965202331543
			],
			"min":[
				-0.972679615020752,
				-0.4261355400085449,
				-2.240649700164795
			],
			"type":"VEC3"
		},
		{
			"bufferView":1,
			"componentType":5126,
			"count":3113,
			"type":"VEC3"
		},
		{
			"bufferView":2,
			"componentType":5126,
			"count":3113,
			"type":"VEC2"
		},
		{
			"bufferView":3,
			"componentType":5126,
			"count":3113,
			"type":"VEC2"
		},
		{
			"bufferView":4,
			"componentType":5121,
			"count":3113,
			"type":"VEC4"
		},
		{
			"bufferView":5,
			"componentType":5126,
			"count":3113,
			"type":"VEC4"
		},
		{
			"bufferView":6,
			"componentType":5123,
			"count":11886,
			"type":"SCALAR"
		},
		{
			"bufferView":7,
			"componentType":5126,
			"count":11,
			"type":"MAT4"
		},
		{
			"bufferView":8,
			"componentType":5126,
			"count":2,
			"max":[
				3.9583333333333335
			],
			"min":[
				0.041666666666666664
			],
			"type":"SCALAR"
		},
		{
			"bufferView":9,
			"componentType":5126,
			"count":2,
			"type":"VEC3"
		},
		{
			"bufferView":10,
			"componentType":5126,
			"count":2,
			"type":"VEC4"
		},
		{
			"bufferView":11,
			"componentType":5126,
			"count":2,
			"type":"VEC3"
		},
		{
			"bufferView":12,
			"componentType":5126,
			"count":2,
			"type":"VEC3"
		},
		{
			"bufferView":13,
			"componentType":5126,
			"count":95,
			"max":[
				3.9583333333333335
			],
			"min":[
				0.041666666666666664
			],
			"type":"SCALAR"
		},
		{
			"bufferView":14,
			"componentType":5126,
			"count":95,
			"type":"VEC4"
		},
		{
			"bufferView":15,
			"componentType":5126,
			"count":2,
			"type":"VEC3"
		},
		{
			"bufferView":16,
			"componentType":5126,
			"count":2,
			"type":"VEC3"
		},
		{
			"bufferView":17,
			"componentType":5126,
			"count":2,
			"type":"VEC4"
		},
		{
			"bufferView":18,
			"componentType":5126,
			"count":2,
			"type":"VEC3"
		},
		{
			"bufferView":19,
			"componentType":5126,
			"count":2,
			"type":"VEC4"
		},
		{
			"bufferView":20,
			"componentType":5126,
			"count":2,
			"type":"VEC3"
		},
		{
			"bufferView":21,
			"componentType":5126,
			"count":95,
			"type":"VEC4"
		},
		{
			"bufferView":22,
			"componentType":5126,
			"count":2,
			"type":"VEC3"
		},
		{
			"bufferView":23,
			"componentType":5126,
			"count":2,
			"type":"VEC3"
		},
		{
			"bufferView":24,
			"componentType":5126,
			"count":2,
			"type":"VEC4"
		},
		{
			"bufferView":25,
			"componentType":5126,
			"count":2,
			"type":"VEC3"
		},
		{
			"bufferView":26,
			"componentType":5126,
			"count":2,
			"type":"VEC4"
		},
		{
			"bufferView":27,
			"componentType":5126,
			"count":2,
			"type":"VEC3"
		},
		{
			"bufferView":28,
			"componentType":5126,
			"count":2,
			"type":"VEC3"
		},
		{
			"bufferView":29,
			"componentType":5126,
			"count":2,
			"type":"VEC4"
		},
		{
			"bufferView":30,
			"componentType":5126,
			"count":2,
			"type":"VEC3"
		},
		{
			"bufferView":31,
			"componentType":5126,
			"count":2,
			"type":"VEC4"
		},
		{
			"bufferView":32,
			"componentType":5126,
			"count":2,
			"type":"VEC3"
		},
		{
			"bufferView":33,
			"componentType":5126,
			"count":2,
			"type":"VEC3"
		},
		{
			"bufferView":34,
			"componentType":5126,
			"count":2,
			"type":"VEC4"
		},
		{
			"bufferView":35,
			"componentType":5126,
			"count":2,
			"type":"VEC3"
		},
		{
			"bufferView":36,
			"componentType":5126,
			"count":2,
			"type":"VEC3"
		},
		{
			"bufferView":37,
			"componentType":5126,
			"count":2,
			"type":"VEC4"
		},
		{
			"bufferView":38,
			"componentType":5126,
			"count":2,
			"type":"VEC3"
		}
	],
	"bufferViews":[
		{
			"buffer":0,
			"byteLength":37356,
			"byteOffset":0,
			"target":34962
		},
		{
			"buffer":0,
			"byteLength":37356,
			"byteOffset":37356,
			"target":34962
		},
		{
			"buffer":0,
			"byteLength":24904,
			"byteOffset":74712,
			"target":34962
		},
		{
			"buffer":0,
			"byteLength":24904,
			"byteOffset":99616,
			"target":34962
		},
		{
			"buffer":0,
			"byteLength":12452,
			"byteOffset":124520,
			"target":34962
		},
		{
			"buffer":0,
			"byteLength":49808,
			"byteOffset":136972,
			"target":34962
		},
		{
			"buffer":0,
			"byteLength":23772,
			"byteOffset":186780,
			"target":34963
		},
		{
			"buffer":0,
			"byteLength":704,
			"byteOffset":210552
		},
		{
			"buffer":0,
			"byteLength":8,
			"byteOffset":211256
		},
		{
			"buffer":0,
			"byteLength":24,
			"byteOffset":211264
		},
		{
			"buffer":0,
			"byteLength":32,
			"byteOffset":211288
		},
		{
			"buffer":0,
			"byteLength":24,
			"byteOffset":211320
		},
		{
			"buffer":0,
			"byteLength":24,
			"byteOffset":211344
		},
		{
			"buffer":0,
			"byteLength":380,
			"byteOffset":211368
		},
		{
			"buffer":0,
			"byteLength":1520,
			"byteOffset":211748
		},
		{
			"buffer":0,
			"byteLength":24,
			"byteOffset":213268
		},
		{
			"buffer":0,
			"byteLength":24,
			"byteOffset":213292
		},
		{
			"buffer":0,
			"byteLength":32,
			"byteOffset":213316
		},
		{
			"buffer":0,
			"byteLength":24,
			"byteOffset":213348
		},
		{
			"buffer":0,
			"byteLength":32,
			"byteOffset":213372
		},
		{
			"buffer":0,
			"byteLength":24,
			"byteOffset":213404
		},
		{
			"buffer":0,
			"byteLength":1520,
			"byteOffset":213428
		},
		{
			"buffer":0,
			"byteLength":24,
			"byteOffset":214948
		},
		{
			"buffer":0,
			"byteLength":24,
			"byteOffset":214972
		},
		{
			"buffer":0,
			"byteLength":32,
			"byteOffset":214996
		},
		{
			"buffer":0,
			"byteLength":24,
			"byteOffset":215028
		},
		{
			"buffer":0,
			"byteLength":32,
			"byteOffset":215052
		},
		{
			"buffer":0,
			"byteLength":24,
			"byteOffset":215084
		},
		{
			"buffer":0,
			"byteLength":24,
			"byteOffset":215108
		},
		{
			"buffer":0,
			"byteLength":32,
			"byteOffset":215132
		},
		{
			"buffer":0,
			"byteLength":24,
			"byteOffset":215164
		},
		{
			"buffer":0,
			"byteLength":32,
			"byteOffset":215188
		},
		{
			"buffer":0,
			"byteLength":24,
			"byteOffset":215220
		},
		{
			"buffer":0,
			"byteLength":24,
			"byteOffset":215244
		},
		{
			"buffer":0,
			"byteLength":32,
			"byteOffset":215268
		},
		{
			"buffer":0,
			"byteLength":24,
			"byteOffset":215300
		},
		{
			"buffer":0,
			"byteLength":24,
			"byteOffset":215324
		},
		{
			"buffer":0,
			"byteLength":32,
			"byteOffset":215348
		},
		{
			"buffer":0,
			"byteLength":24,
			"byteOffset":215380
		}
	],
	"samplers":[
		{
			"magFilter":9729,
			"minFilter":9987
		},
		{
			"magFilter":9728,
			"minFilter":9984
		}
	],
	"buffers":[
		{
			"byteLength":215404,
			"uri":"pomidor-kroi.bin"
		}
	]
}
