{
	"asset":{
		"generator":"Khronos glTF Blender I/O v5.1.19",
		"version":"2.0"
	},
	"scene":0,
	"scenes":[
		{
			"name":"Scene",
			"nodes":[
				15
			]
		}
	],
	"nodes":[
		{
			"name":"lisc-s",
			"rotation":[
				-1.3485284000580577e-08,
				1.1250481435354232e-08,
				0.05397962033748627,
				0.998542070388794
			],
			"translation":[
				0,
				1.6352766752243042,
				-1.622902345843613e-08
			]
		},
		{
			"name":"lisc-p",
			"rotation":[
				1.1424443613350377e-07,
				8.760643765981513e-08,
				-0.34438470005989075,
				0.9388285875320435
			],
			"translation":[
				0,
				1.6352766752243042,
				-1.622902345843613e-08
			]
		},
		{
			"name":"lisc-l",
			"rotation":[
				-6.239403660401877e-08,
				-6.674837749187645e-08,
				0.3750986158847809,
				0.926984965801239
			],
			"scale":[
				0.9999999403953552,
				1,
				1
			],
			"translation":[
				0,
				1.6352766752243042,
				-1.622902345843613e-08
			]
		},
		{
			"children":[
				0,
				1,
				2
			],
			"name":"kregoslup",
			"rotation":[
				0,
				1.1920928955078125e-07,
				0,
				1
			],
			"translation":[
				0,
				0.9179627895355225,
				-1.4453689800575376e-08
			]
		},
		{
			"name":"reka-p",
			"rotation":[
				-5.3676632916221934e-08,
				-4.731113278921839e-08,
				-0.4462757706642151,
				0.8948954939842224
			],
			"translation":[
				3.1659146770834923e-07,
				0.9061316251754761,
				-9.504233844381815e-09
			]
		},
		{
			"children":[
				4
			],
			"name":"tlow-p",
			"rotation":[
				-2.2822369771802187e-08,
				-2.489949224582233e-08,
				-0.6743383407592773,
				0.7384225130081177
			],
			"scale":[
				1,
				0.9999999403953552,
				1
			],
			"translation":[
				0,
				0.9179627895355225,
				-1.4453689800575376e-08
			]
		},
		{
			"name":"reka-l",
			"rotation":[
				1.5129897334986708e-08,
				1.1679298239641867e-07,
				0.4462757706642151,
				0.8948954939842224
			],
			"translation":[
				-2.1574669517576694e-07,
				0.9061316847801208,
				-7.172363325480546e-08
			]
		},
		{
			"children":[
				6
			],
			"name":"tlow-l",
			"rotation":[
				5.5573064372538283e-08,
				-6.07756476256327e-08,
				0.6743383407592773,
				0.7384225130081177
			],
			"scale":[
				1,
				0.9999999403953552,
				1
			],
			"translation":[
				0,
				0.9179627895355225,
				-1.4453689800575376e-08
			]
		},
		{
			"children":[
				3,
				5,
				7
			],
			"name":"gl",
			"translation":[
				0,
				0,
				-1.4453689800575376e-08
			]
		},
		{
			"name":"stopa-p",
			"rotation":[
				-0.5504910945892334,
				-4.388978069869154e-08,
				1.2590367859388607e-08,
				0.8348410725593567
			],
			"translation":[
				5.9621442005664e-08,
				0.3748665452003479,
				-4.551839083433151e-08
			]
		},
		{
			"children":[
				9
			],
			"name":"noga-p",
			"rotation":[
				-0.5903217792510986,
				-0.38925597071647644,
				-0.5903217792510986,
				0.38925597071647644
			],
			"translation":[
				0,
				0,
				-1.4453689800575376e-08
			]
		},
		{
			"name":"stopa-l",
			"rotation":[
				0.5504910945892334,
				-5.639368794163602e-08,
				-4.432662681352895e-09,
				0.8348410725593567
			],
			"scale":[
				1,
				0.9999999403953552,
				1
			],
			"translation":[
				5.456518437085833e-08,
				0.3748664855957031,
				-4.0745362639427185e-09
			]
		},
		{
			"children":[
				11
			],
			"name":"noga-l",
			"rotation":[
				0.5903217792510986,
				-0.38925597071647644,
				0.5903217792510986,
				0.3892560303211212
			],
			"scale":[
				1,
				0.9999999403953552,
				1
			],
			"translation":[
				0,
				0,
				-1.4453689800575376e-08
			]
		},
		{
			"mesh":0,
			"name":"brwi.003",
			"skin":0
		},
		{
			"children":[
				13,
				8,
				10,
				12
			],
			"name":"Armature.003",
			"rotation":[
				0,
				0.7083740830421448,
				0,
				0.7058371901512146
			],
			"translation":[
				-0.9400467872619629,
				0.8534359931945801,
				0.007446803152561188
			]
		},
		{
			"children":[
				14
			],
			"name":"Empty"
		}
	],
	"animations":[
		{
			"channels":[
				{
					"sampler":0,
					"target":{
						"node":8,
						"path":"translation"
					}
				},
				{
					"sampler":1,
					"target":{
						"node":8,
						"path":"rotation"
					}
				},
				{
					"sampler":2,
					"target":{
						"node":8,
						"path":"scale"
					}
				},
				{
					"sampler":3,
					"target":{
						"node":3,
						"path":"translation"
					}
				},
				{
					"sampler":4,
					"target":{
						"node":3,
						"path":"rotation"
					}
				},
				{
					"sampler":5,
					"target":{
						"node":3,
						"path":"scale"
					}
				},
				{
					"sampler":6,
					"target":{
						"node":0,
						"path":"translation"
					}
				},
				{
					"sampler":7,
					"target":{
						"node":0,
						"path":"rotation"
					}
				},
				{
					"sampler":8,
					"target":{
						"node":0,
						"path":"scale"
					}
				},
				{
					"sampler":9,
					"target":{
						"node":1,
						"path":"translation"
					}
				},
				{
					"sampler":10,
					"target":{
						"node":1,
						"path":"rotation"
					}
				},
				{
					"sampler":11,
					"target":{
						"node":1,
						"path":"scale"
					}
				},
				{
					"sampler":12,
					"target":{
						"node":2,
						"path":"translation"
					}
				},
				{
					"sampler":13,
					"target":{
						"node":2,
						"path":"rotation"
					}
				},
				{
					"sampler":14,
					"target":{
						"node":2,
						"path":"scale"
					}
				},
				{
					"sampler":15,
					"target":{
						"node":5,
						"path":"translation"
					}
				},
				{
					"sampler":16,
					"target":{
						"node":5,
						"path":"rotation"
					}
				},
				{
					"sampler":17,
					"target":{
						"node":5,
						"path":"scale"
					}
				},
				{
					"sampler":18,
					"target":{
						"node":4,
						"path":"translation"
					}
				},
				{
					"sampler":19,
					"target":{
						"node":4,
						"path":"rotation"
					}
				},
				{
					"sampler":20,
					"target":{
						"node":4,
						"path":"scale"
					}
				},
				{
					"sampler":21,
					"target":{
						"node":7,
						"path":"translation"
					}
				},
				{
					"sampler":22,
					"target":{
						"node":7,
						"path":"rotation"
					}
				},
				{
					"sampler":23,
					"target":{
						"node":7,
						"path":"scale"
					}
				},
				{
					"sampler":24,
					"target":{
						"node":6,
						"path":"translation"
					}
				},
				{
					"sampler":25,
					"target":{
						"node":6,
						"path":"rotation"
					}
				},
				{
					"sampler":26,
					"target":{
						"node":6,
						"path":"scale"
					}
				},
				{
					"sampler":27,
					"target":{
						"node":10,
						"path":"translation"
					}
				},
				{
					"sampler":28,
					"target":{
						"node":10,
						"path":"rotation"
					}
				},
				{
					"sampler":29,
					"target":{
						"node":10,
						"path":"scale"
					}
				},
				{
					"sampler":30,
					"target":{
						"node":9,
						"path":"translation"
					}
				},
				{
					"sampler":31,
					"target":{
						"node":9,
						"path":"rotation"
					}
				},
				{
					"sampler":32,
					"target":{
						"node":9,
						"path":"scale"
					}
				},
				{
					"sampler":33,
					"target":{
						"node":12,
						"path":"translation"
					}
				},
				{
					"sampler":34,
					"target":{
						"node":12,
						"path":"rotation"
					}
				},
				{
					"sampler":35,
					"target":{
						"node":12,
						"path":"scale"
					}
				},
				{
					"sampler":36,
					"target":{
						"node":11,
						"path":"translation"
					}
				},
				{
					"sampler":37,
					"target":{
						"node":11,
						"path":"rotation"
					}
				},
				{
					"sampler":38,
					"target":{
						"node":11,
						"path":"scale"
					}
				}
			],
			"name":"Armature.003Action",
			"samplers":[
				{
					"input":10,
					"interpolation":"STEP",
					"output":11
				},
				{
					"input":10,
					"interpolation":"STEP",
					"output":12
				},
				{
					"input":10,
					"interpolation":"STEP",
					"output":13
				},
				{
					"input":10,
					"interpolation":"STEP",
					"output":14
				},
				{
					"input":15,
					"interpolation":"LINEAR",
					"output":16
				},
				{
					"input":10,
					"interpolation":"STEP",
					"output":17
				},
				{
					"input":10,
					"interpolation":"STEP",
					"output":18
				},
				{
					"input":10,
					"interpolation":"STEP",
					"output":19
				},
				{
					"input":10,
					"interpolation":"STEP",
					"output":20
				},
				{
					"input":10,
					"interpolation":"STEP",
					"output":21
				},
				{
					"input":10,
					"interpolation":"STEP",
					"output":22
				},
				{
					"input":10,
					"interpolation":"STEP",
					"output":20
				},
				{
					"input":10,
					"interpolation":"STEP",
					"output":23
				},
				{
					"input":10,
					"interpolation":"STEP",
					"output":24
				},
				{
					"input":10,
					"interpolation":"STEP",
					"output":25
				},
				{
					"input":10,
					"interpolation":"STEP",
					"output":26
				},
				{
					"input":10,
					"interpolation":"STEP",
					"output":27
				},
				{
					"input":10,
					"interpolation":"STEP",
					"output":28
				},
				{
					"input":10,
					"interpolation":"STEP",
					"output":29
				},
				{
					"input":10,
					"interpolation":"STEP",
					"output":30
				},
				{
					"input":10,
					"interpolation":"STEP",
					"output":31
				},
				{
					"input":10,
					"interpolation":"STEP",
					"output":32
				},
				{
					"input":10,
					"interpolation":"STEP",
					"output":33
				},
				{
					"input":10,
					"interpolation":"STEP",
					"output":17
				},
				{
					"input":10,
					"interpolation":"STEP",
					"output":34
				},
				{
					"input":10,
					"interpolation":"STEP",
					"output":35
				},
				{
					"input":10,
					"interpolation":"STEP",
					"output":36
				},
				{
					"input":10,
					"interpolation":"STEP",
					"output":37
				},
				{
					"input":10,
					"interpolation":"STEP",
					"output":38
				},
				{
					"input":10,
					"interpolation":"STEP",
					"output":28
				},
				{
					"input":10,
					"interpolation":"STEP",
					"output":39
				},
				{
					"input":10,
					"interpolation":"STEP",
					"output":40
				},
				{
					"input":10,
					"interpolation":"STEP",
					"output":41
				},
				{
					"input":10,
					"interpolation":"STEP",
					"output":42
				},
				{
					"input":10,
					"interpolation":"STEP",
					"output":43
				},
				{
					"input":10,
					"interpolation":"STEP",
					"output":44
				},
				{
					"input":10,
					"interpolation":"STEP",
					"output":45
				},
				{
					"input":10,
					"interpolation":"STEP",
					"output":46
				},
				{
					"input":10,
					"interpolation":"STEP",
					"output":17
				}
			]
		}
	],
	"materials":[
		{
			"doubleSided":true,
			"emissiveFactor":[
				0.4999999701976776,
				0.4999999701976776,
				0.4999999701976776
			],
			"emissiveTexture":{
				"index":0,
				"texCoord":1
			},
			"name":"Material.014",
			"pbrMetallicRoughness":{
				"baseColorTexture":{
					"index":1
				},
				"metallicFactor":0,
				"roughnessFactor":0.5
			}
		}
	],
	"meshes":[
		{
			"name":"Sphere.019",
			"primitives":[
				{
					"attributes":{
						"POSITION":0,
						"NORMAL":1,
						"TEXCOORD_0":2,
						"TEXCOORD_1":3,
						"COLOR_0":4,
						"COLOR_1":5,
						"JOINTS_0":6,
						"WEIGHTS_0":7
					},
					"indices":8,
					"material":0
				}
			]
		}
	],
	"textures":[
		{
			"sampler":0,
			"source":0
		},
		{
			"sampler":0,
			"source":1
		}
	],
	"images":[
		{
			"mimeType":"image/png",
			"name":"detal-marchewka",
			"uri":"detal-marchewka.png"
		},
		{
			"mimeType":"image/png",
			"name":"palette",
			"uri":"palette.png"
		}
	],
	"skins":[
		{
			"inverseBindMatrices":9,
			"joints":[
				8,
				3,
				0,
				1,
				2,
				5,
				4,
				7,
				6,
				10,
				9,
				12,
				11
			],
			"name":"Armature.003"
		}
	],
	"accessors":[
		{
			"bufferView":0,
			"componentType":5126,
			"count":4427,
			"max":[
				0.03489325940608978,
				4.977636337280273,
				1.323351263999939
			],
			"min":[
				-1.907512903213501,
				0.25870633125305176,
				-1.309596061706543
			],
			"type":"VEC3"
		},
		{
			"bufferView":1,
			"componentType":5126,
			"count":4427,
			"type":"VEC3"
		},
		{
			"bufferView":2,
			"componentType":5126,
			"count":4427,
			"type":"VEC2"
		},
		{
			"bufferView":3,
			"componentType":5126,
			"count":4427,
			"type":"VEC2"
		},
		{
			"bufferView":4,
			"componentType":5121,
			"count":4427,
			"normalized":true,
			"type":"VEC4"
		},
		{
			"bufferView":5,
			"componentType":5123,
			"count":4427,
			"normalized":true,
			"type":"VEC4"
		},
		{
			"bufferView":6,
			"componentType":5121,
			"count":4427,
			"type":"VEC4"
		},
		{
			"bufferView":7,
			"componentType":5126,
			"count":4427,
			"type":"VEC4"
		},
		{
			"bufferView":8,
			"componentType":5123,
			"count":13320,
			"type":"SCALAR"
		},
		{
			"bufferView":9,
			"componentType":5126,
			"count":13,
			"type":"MAT4"
		},
		{
			"bufferView":10,
			"componentType":5126,
			"count":2,
			"max":[
				1.6666666666666667
			],
			"min":[
				0.041666666666666664
			],
			"type":"SCALAR"
		},
		{
			"bufferView":11,
			"componentType":5126,
			"count":2,
			"type":"VEC3"
		},
		{
			"bufferView":12,
			"componentType":5126,
			"count":2,
			"type":"VEC4"
		},
		{
			"bufferView":13,
			"componentType":5126,
			"count":2,
			"type":"VEC3"
		},
		{
			"bufferView":14,
			"componentType":5126,
			"count":2,
			"type":"VEC3"
		},
		{
			"bufferView":15,
			"componentType":5126,
			"count":40,
			"max":[
				1.6666666666666667
			],
			"min":[
				0.041666666666666664
			],
			"type":"SCALAR"
		},
		{
			"bufferView":16,
			"componentType":5126,
			"count":40,
			"type":"VEC4"
		},
		{
			"bufferView":17,
			"componentType":5126,
			"count":2,
			"type":"VEC3"
		},
		{
			"bufferView":18,
			"componentType":5126,
			"count":2,
			"type":"VEC3"
		},
		{
			"bufferView":19,
			"componentType":5126,
			"count":2,
			"type":"VEC4"
		},
		{
			"bufferView":20,
			"componentType":5126,
			"count":2,
			"type":"VEC3"
		},
		{
			"bufferView":21,
			"componentType":5126,
			"count":2,
			"type":"VEC3"
		},
		{
			"bufferView":22,
			"componentType":5126,
			"count":2,
			"type":"VEC4"
		},
		{
			"bufferView":23,
			"componentType":5126,
			"count":2,
			"type":"VEC3"
		},
		{
			"bufferView":24,
			"componentType":5126,
			"count":2,
			"type":"VEC4"
		},
		{
			"bufferView":25,
			"componentType":5126,
			"count":2,
			"type":"VEC3"
		},
		{
			"bufferView":26,
			"componentType":5126,
			"count":2,
			"type":"VEC3"
		},
		{
			"bufferView":27,
			"componentType":5126,
			"count":2,
			"type":"VEC4"
		},
		{
			"bufferView":28,
			"componentType":5126,
			"count":2,
			"type":"VEC3"
		},
		{
			"bufferView":29,
			"componentType":5126,
			"count":2,
			"type":"VEC3"
		},
		{
			"bufferView":30,
			"componentType":5126,
			"count":2,
			"type":"VEC4"
		},
		{
			"bufferView":31,
			"componentType":5126,
			"count":2,
			"type":"VEC3"
		},
		{
			"bufferView":32,
			"componentType":5126,
			"count":2,
			"type":"VEC3"
		},
		{
			"bufferView":33,
			"componentType":5126,
			"count":2,
			"type":"VEC4"
		},
		{
			"bufferView":34,
			"componentType":5126,
			"count":2,
			"type":"VEC3"
		},
		{
			"bufferView":35,
			"componentType":5126,
			"count":2,
			"type":"VEC4"
		},
		{
			"bufferView":36,
			"componentType":5126,
			"count":2,
			"type":"VEC3"
		},
		{
			"bufferView":37,
			"componentType":5126,
			"count":2,
			"type":"VEC3"
		},
		{
			"bufferView":38,
			"componentType":5126,
			"count":2,
			"type":"VEC4"
		},
		{
			"bufferView":39,
			"componentType":5126,
			"count":2,
			"type":"VEC3"
		},
		{
			"bufferView":40,
			"componentType":5126,
			"count":2,
			"type":"VEC4"
		},
		{
			"bufferView":41,
			"componentType":5126,
			"count":2,
			"type":"VEC3"
		},
		{
			"bufferView":42,
			"componentType":5126,
			"count":2,
			"type":"VEC3"
		},
		{
			"bufferView":43,
			"componentType":5126,
			"count":2,
			"type":"VEC4"
		},
		{
			"bufferView":44,
			"componentType":5126,
			"count":2,
			"type":"VEC3"
		},
		{
			"bufferView":45,
			"componentType":5126,
			"count":2,
			"type":"VEC3"
		},
		{
			"bufferView":46,
			"componentType":5126,
			"count":2,
			"type":"VEC4"
		}
	],
	"bufferViews":[
		{
			"buffer":0,
			"byteLength":53124,
			"byteOffset":0,
			"target":34962
		},
		{
			"buffer":0,
			"byteLength":53124,
			"byteOffset":53124,
			"target":34962
		},
		{
			"buffer":0,
			"byteLength":35416,
			"byteOffset":106248,
			"target":34962
		},
		{
			"buffer":0,
			"byteLength":35416,
			"byteOffset":141664,
			"target":34962
		},
		{
			"buffer":0,
			"byteLength":17708,
			"byteOffset":177080,
			"target":34962
		},
		{
			"buffer":0,
			"byteLength":35416,
			"byteOffset":194788,
			"target":34962
		},
		{
			"buffer":0,
			"byteLength":17708,
			"byteOffset":230204,
			"target":34962
		},
		{
			"buffer":0,
			"byteLength":70832,
			"byteOffset":247912,
			"target":34962
		},
		{
			"buffer":0,
			"byteLength":26640,
			"byteOffset":318744,
			"target":34963
		},
		{
			"buffer":0,
			"byteLength":832,
			"byteOffset":345384
		},
		{
			"buffer":0,
			"byteLength":8,
			"byteOffset":346216
		},
		{
			"buffer":0,
			"byteLength":24,
			"byteOffset":346224
		},
		{
			"buffer":0,
			"byteLength":32,
			"byteOffset":346248
		},
		{
			"buffer":0,
			"byteLength":24,
			"byteOffset":346280
		},
		{
			"buffer":0,
			"byteLength":24,
			"byteOffset":346304
		},
		{
			"buffer":0,
			"byteLength":160,
			"byteOffset":346328
		},
		{
			"buffer":0,
			"byteLength":640,
			"byteOffset":346488
		},
		{
			"buffer":0,
			"byteLength":24,
			"byteOffset":347128
		},
		{
			"buffer":0,
			"byteLength":24,
			"byteOffset":347152
		},
		{
			"buffer":0,
			"byteLength":32,
			"byteOffset":347176
		},
		{
			"buffer":0,
			"byteLength":24,
			"byteOffset":347208
		},
		{
			"buffer":0,
			"byteLength":24,
			"byteOffset":347232
		},
		{
			"buffer":0,
			"byteLength":32,
			"byteOffset":347256
		},
		{
			"buffer":0,
			"byteLength":24,
			"byteOffset":347288
		},
		{
			"buffer":0,
			"byteLength":32,
			"byteOffset":347312
		},
		{
			"buffer":0,
			"byteLength":24,
			"byteOffset":347344
		},
		{
			"buffer":0,
			"byteLength":24,
			"byteOffset":347368
		},
		{
			"buffer":0,
			"byteLength":32,
			"byteOffset":347392
		},
		{
			"buffer":0,
			"byteLength":24,
			"byteOffset":347424
		},
		{
			"buffer":0,
			"byteLength":24,
			"byteOffset":347448
		},
		{
			"buffer":0,
			"byteLength":32,
			"byteOffset":347472
		},
		{
			"buffer":0,
			"byteLength":24,
			"byteOffset":347504
		},
		{
			"buffer":0,
			"byteLength":24,
			"byteOffset":347528
		},
		{
			"buffer":0,
			"byteLength":32,
			"byteOffset":347552
		},
		{
			"buffer":0,
			"byteLength":24,
			"byteOffset":347584
		},
		{
			"buffer":0,
			"byteLength":32,
			"byteOffset":347608
		},
		{
			"buffer":0,
			"byteLength":24,
			"byteOffset":347640
		},
		{
			"buffer":0,
			"byteLength":24,
			"byteOffset":347664
		},
		{
			"buffer":0,
			"byteLength":32,
			"byteOffset":347688
		},
		{
			"buffer":0,
			"byteLength":24,
			"byteOffset":347720
		},
		{
			"buffer":0,
			"byteLength":32,
			"byteOffset":347744
		},
		{
			"buffer":0,
			"byteLength":24,
			"byteOffset":347776
		},
		{
			"buffer":0,
			"byteLength":24,
			"byteOffset":347800
		},
		{
			"buffer":0,
			"byteLength":32,
			"byteOffset":347824
		},
		{
			"buffer":0,
			"byteLength":24,
			"byteOffset":347856
		},
		{
			"buffer":0,
			"byteLength":24,
			"byteOffset":347880
		},
		{
			"buffer":0,
			"byteLength":32,
			"byteOffset":347904
		}
	],
	"samplers":[
		{
			"magFilter":9728,
			"minFilter":9984
		}
	],
	"buffers":[
		{
			"byteLength":347936,
			"uri":"marchewka-siedzi.bin"
		}
	]
}
