{
	"asset":{
		"generator":"Khronos glTF Blender I/O v5.1.19",
		"version":"2.0"
	},
	"scene":0,
	"scenes":[
		{
			"name":"Scene",
			"nodes":[
				15
			]
		}
	],
	"nodes":[
		{
			"name":"lisc-s",
			"rotation":[
				-2.9973808324257334e-08,
				1.1638417873882645e-07,
				0.08632943779230118,
				0.9962666630744934
			],
			"scale":[
				0.9999998807907104,
				0.9999999403953552,
				0.9999999403953552
			],
			"translation":[
				3.4015101846307516e-10,
				1.1182544231414795,
				4.3655745685100555e-11
			]
		},
		{
			"name":"lisc-p",
			"rotation":[
				1.0911980297123591e-07,
				1.2546925631795602e-07,
				-0.30038192868232727,
				0.9538190364837646
			],
			"scale":[
				0.9999998807907104,
				1,
				0.9999999403953552
			],
			"translation":[
				3.4015101846307516e-10,
				1.1182544231414795,
				4.3655745685100555e-11
			]
		},
		{
			"name":"lisc-l",
			"rotation":[
				-1.46149190527467e-08,
				-9.680213963747519e-08,
				0.3592889904975891,
				0.9332263469696045
			],
			"scale":[
				0.9999999403953552,
				0.9999999403953552,
				0.9999999403953552
			],
			"translation":[
				3.4015101846307516e-10,
				1.1182544231414795,
				4.3655745685100555e-11
			]
		},
		{
			"children":[
				0,
				1,
				2
			],
			"name":"kregoslup",
			"rotation":[
				0,
				1.1827798118702049e-07,
				0,
				1
			],
			"scale":[
				0.9999999403953552,
				1,
				0.9999999403953552
			],
			"translation":[
				2.4920154828578234e-10,
				0.45622706413269043,
				7.275957614183426e-12
			]
		},
		{
			"name":"reka",
			"rotation":[
				0.00505418423563242,
				-0.0012751985341310501,
				-0.19865788519382477,
				0.9800550937652588
			],
			"scale":[
				1,
				1,
				0.9999998807907104
			],
			"translation":[
				-2.2091106721688902e-11,
				0.7365665435791016,
				2.229304740808402e-09
			]
		},
		{
			"children":[
				4
			],
			"name":"tlow",
			"rotation":[
				-1.615583755665284e-08,
				4.7722991780574375e-08,
				-0.7071067690849304,
				0.7071067690849304
			],
			"scale":[
				0.9999999403953552,
				0.9999998807907104,
				0.9999999403953552
			],
			"translation":[
				2.4920154828578234e-10,
				0.45622706413269043,
				7.275957614183426e-12
			]
		},
		{
			"name":"reka2",
			"rotation":[
				0.16572140157222748,
				0.7048649787902832,
				0.1650480031967163,
				0.6696723103523254
			],
			"scale":[
				1,
				1,
				0.9999999403953552
			],
			"translation":[
				-2.2663471099804156e-10,
				0.7632035613059998,
				-5.973021188765415e-08
			]
		},
		{
			"children":[
				6
			],
			"name":"tlow2",
			"rotation":[
				0.5000001192092896,
				-0.5,
				0.4999999701976776,
				0.5
			],
			"scale":[
				0.9999998211860657,
				0.9999997019767761,
				0.9999999403953552
			],
			"translation":[
				0.008986471220850945,
				0.45622706413269043,
				-1.1641532182693481e-10
			]
		},
		{
			"children":[
				3,
				5,
				7
			],
			"name":"glowna",
			"rotation":[
				0,
				-0.7157031893730164,
				0,
				0.6984046101570129
			],
			"translation":[
				7.936253678053617e-05,
				-0.6466907262802124,
				0.009607363492250443
			]
		},
		{
			"name":"stopa",
			"rotation":[
				-0.4527900218963623,
				1.8499370924018876e-07,
				5.989303986098093e-08,
				0.8916171789169312
			],
			"scale":[
				1,
				0.9999999403953552,
				0.9999998807907104
			],
			"translation":[
				9.826273128510365e-11,
				0.37095528841018677,
				-8.116330718621612e-09
			]
		},
		{
			"children":[
				9
			],
			"name":"noga",
			"rotation":[
				-0.009616437368094921,
				0.6179492473602295,
				0.7861228585243225,
				0.007559301797300577
			],
			"scale":[
				0.9999999403953552,
				0.9999997019767761,
				0.9999985098838806
			],
			"translation":[
				7.936253678053617e-05,
				-0.6466907262802124,
				0.009607363492250443
			]
		},
		{
			"name":"stopa2",
			"rotation":[
				0.4527895152568817,
				8.341445578707862e-08,
				1.1416027234645298e-07,
				0.891617476940155
			],
			"translation":[
				1.4296230865795678e-10,
				0.37095531821250916,
				8.221832104027271e-10
			]
		},
		{
			"children":[
				11
			],
			"name":"noga2",
			"rotation":[
				0.009616600349545479,
				0.6179492473602295,
				-0.7861229181289673,
				0.007559244055300951
			],
			"scale":[
				0.9999999403953552,
				0.9999998211860657,
				0.9999999403953552
			],
			"translation":[
				-0.0001404652139171958,
				-0.6466907262802124,
				0.018591146916151047
			]
		},
		{
			"mesh":0,
			"name":"cialo.002",
			"skin":0
		},
		{
			"children":[
				13,
				8,
				10,
				12
			],
			"name":"Armature.001",
			"translation":[
				-0.000672459602355957,
				0.7227200269699097,
				-0.006028994917869568
			]
		},
		{
			"children":[
				14
			],
			"name":"Empty"
		}
	],
	"animations":[
		{
			"channels":[
				{
					"sampler":0,
					"target":{
						"node":8,
						"path":"translation"
					}
				},
				{
					"sampler":1,
					"target":{
						"node":8,
						"path":"rotation"
					}
				},
				{
					"sampler":2,
					"target":{
						"node":8,
						"path":"scale"
					}
				},
				{
					"sampler":3,
					"target":{
						"node":3,
						"path":"translation"
					}
				},
				{
					"sampler":4,
					"target":{
						"node":3,
						"path":"rotation"
					}
				},
				{
					"sampler":5,
					"target":{
						"node":3,
						"path":"scale"
					}
				},
				{
					"sampler":6,
					"target":{
						"node":0,
						"path":"translation"
					}
				},
				{
					"sampler":7,
					"target":{
						"node":0,
						"path":"rotation"
					}
				},
				{
					"sampler":8,
					"target":{
						"node":0,
						"path":"scale"
					}
				},
				{
					"sampler":9,
					"target":{
						"node":1,
						"path":"translation"
					}
				},
				{
					"sampler":10,
					"target":{
						"node":1,
						"path":"rotation"
					}
				},
				{
					"sampler":11,
					"target":{
						"node":1,
						"path":"scale"
					}
				},
				{
					"sampler":12,
					"target":{
						"node":2,
						"path":"translation"
					}
				},
				{
					"sampler":13,
					"target":{
						"node":2,
						"path":"rotation"
					}
				},
				{
					"sampler":14,
					"target":{
						"node":2,
						"path":"scale"
					}
				},
				{
					"sampler":15,
					"target":{
						"node":5,
						"path":"translation"
					}
				},
				{
					"sampler":16,
					"target":{
						"node":5,
						"path":"rotation"
					}
				},
				{
					"sampler":17,
					"target":{
						"node":5,
						"path":"scale"
					}
				},
				{
					"sampler":18,
					"target":{
						"node":4,
						"path":"translation"
					}
				},
				{
					"sampler":19,
					"target":{
						"node":4,
						"path":"rotation"
					}
				},
				{
					"sampler":20,
					"target":{
						"node":4,
						"path":"scale"
					}
				},
				{
					"sampler":21,
					"target":{
						"node":7,
						"path":"translation"
					}
				},
				{
					"sampler":22,
					"target":{
						"node":7,
						"path":"rotation"
					}
				},
				{
					"sampler":23,
					"target":{
						"node":7,
						"path":"scale"
					}
				},
				{
					"sampler":24,
					"target":{
						"node":6,
						"path":"translation"
					}
				},
				{
					"sampler":25,
					"target":{
						"node":6,
						"path":"rotation"
					}
				},
				{
					"sampler":26,
					"target":{
						"node":6,
						"path":"scale"
					}
				},
				{
					"sampler":27,
					"target":{
						"node":10,
						"path":"translation"
					}
				},
				{
					"sampler":28,
					"target":{
						"node":10,
						"path":"rotation"
					}
				},
				{
					"sampler":29,
					"target":{
						"node":10,
						"path":"scale"
					}
				},
				{
					"sampler":30,
					"target":{
						"node":9,
						"path":"translation"
					}
				},
				{
					"sampler":31,
					"target":{
						"node":9,
						"path":"rotation"
					}
				},
				{
					"sampler":32,
					"target":{
						"node":9,
						"path":"scale"
					}
				},
				{
					"sampler":33,
					"target":{
						"node":12,
						"path":"translation"
					}
				},
				{
					"sampler":34,
					"target":{
						"node":12,
						"path":"rotation"
					}
				},
				{
					"sampler":35,
					"target":{
						"node":12,
						"path":"scale"
					}
				},
				{
					"sampler":36,
					"target":{
						"node":11,
						"path":"translation"
					}
				},
				{
					"sampler":37,
					"target":{
						"node":11,
						"path":"rotation"
					}
				},
				{
					"sampler":38,
					"target":{
						"node":11,
						"path":"scale"
					}
				}
			],
			"name":"ArmatureAction.001",
			"samplers":[
				{
					"input":19,
					"interpolation":"STEP",
					"output":20
				},
				{
					"input":19,
					"interpolation":"STEP",
					"output":21
				},
				{
					"input":19,
					"interpolation":"STEP",
					"output":22
				},
				{
					"input":19,
					"interpolation":"STEP",
					"output":23
				},
				{
					"input":24,
					"interpolation":"LINEAR",
					"output":25
				},
				{
					"input":19,
					"interpolation":"STEP",
					"output":26
				},
				{
					"input":19,
					"interpolation":"STEP",
					"output":27
				},
				{
					"input":19,
					"interpolation":"STEP",
					"output":28
				},
				{
					"input":19,
					"interpolation":"STEP",
					"output":29
				},
				{
					"input":19,
					"interpolation":"STEP",
					"output":30
				},
				{
					"input":19,
					"interpolation":"STEP",
					"output":31
				},
				{
					"input":19,
					"interpolation":"STEP",
					"output":32
				},
				{
					"input":19,
					"interpolation":"STEP",
					"output":33
				},
				{
					"input":19,
					"interpolation":"STEP",
					"output":34
				},
				{
					"input":19,
					"interpolation":"STEP",
					"output":35
				},
				{
					"input":19,
					"interpolation":"STEP",
					"output":36
				},
				{
					"input":19,
					"interpolation":"STEP",
					"output":37
				},
				{
					"input":19,
					"interpolation":"STEP",
					"output":38
				},
				{
					"input":19,
					"interpolation":"STEP",
					"output":39
				},
				{
					"input":19,
					"interpolation":"STEP",
					"output":40
				},
				{
					"input":19,
					"interpolation":"STEP",
					"output":41
				},
				{
					"input":19,
					"interpolation":"STEP",
					"output":42
				},
				{
					"input":19,
					"interpolation":"STEP",
					"output":43
				},
				{
					"input":19,
					"interpolation":"STEP",
					"output":44
				},
				{
					"input":19,
					"interpolation":"STEP",
					"output":45
				},
				{
					"input":19,
					"interpolation":"STEP",
					"output":46
				},
				{
					"input":19,
					"interpolation":"STEP",
					"output":47
				},
				{
					"input":19,
					"interpolation":"STEP",
					"output":48
				},
				{
					"input":19,
					"interpolation":"STEP",
					"output":49
				},
				{
					"input":19,
					"interpolation":"STEP",
					"output":50
				},
				{
					"input":19,
					"interpolation":"STEP",
					"output":51
				},
				{
					"input":19,
					"interpolation":"STEP",
					"output":52
				},
				{
					"input":19,
					"interpolation":"STEP",
					"output":53
				},
				{
					"input":19,
					"interpolation":"STEP",
					"output":54
				},
				{
					"input":19,
					"interpolation":"STEP",
					"output":55
				},
				{
					"input":19,
					"interpolation":"STEP",
					"output":56
				},
				{
					"input":19,
					"interpolation":"STEP",
					"output":57
				},
				{
					"input":19,
					"interpolation":"STEP",
					"output":58
				},
				{
					"input":19,
					"interpolation":"STEP",
					"output":59
				}
			]
		}
	],
	"materials":[
		{
			"doubleSided":true,
			"emissiveFactor":[
				0.4999999701976776,
				0.4999999701976776,
				0.4999999701976776
			],
			"emissiveTexture":{
				"index":0,
				"texCoord":1
			},
			"name":"Material.006",
			"pbrMetallicRoughness":{
				"baseColorTexture":{
					"index":1
				},
				"metallicFactor":0,
				"roughnessFactor":0.5
			}
		},
		{
			"doubleSided":true,
			"name":"Material.002",
			"pbrMetallicRoughness":{
				"baseColorTexture":{
					"index":2
				},
				"metallicFactor":0,
				"roughnessFactor":0.5
			}
		}
	],
	"meshes":[
		{
			"name":"Sphere.003",
			"primitives":[
				{
					"attributes":{
						"POSITION":0,
						"NORMAL":1,
						"TEXCOORD_0":2,
						"TEXCOORD_1":3,
						"COLOR_0":4,
						"COLOR_1":5,
						"JOINTS_0":6,
						"WEIGHTS_0":7
					},
					"indices":8,
					"material":0
				},
				{
					"attributes":{
						"POSITION":9,
						"NORMAL":10,
						"TEXCOORD_0":11,
						"TEXCOORD_1":12,
						"COLOR_0":13,
						"COLOR_1":14,
						"JOINTS_0":15,
						"WEIGHTS_0":16
					},
					"indices":17,
					"material":1
				}
			]
		}
	],
	"textures":[
		{
			"sampler":0,
			"source":0
		},
		{
			"sampler":1,
			"source":1
		},
		{
			"sampler":1,
			"source":1
		}
	],
	"images":[
		{
			"mimeType":"image/png",
			"name":"detal-rzodkiewka",
			"uri":"detal-rzodkiewka.png"
		},
		{
			"mimeType":"image/png",
			"name":"palette",
			"uri":"palette.png"
		}
	],
	"skins":[
		{
			"inverseBindMatrices":18,
			"joints":[
				8,
				3,
				0,
				1,
				2,
				5,
				4,
				7,
				6,
				10,
				9,
				12,
				11
			],
			"name":"Armature.001"
		}
	],
	"accessors":[
		{
			"bufferView":0,
			"componentType":5126,
			"count":1662,
			"max":[
				0.67369544506073,
				2.7214009761810303,
				1.1545710563659668
			],
			"min":[
				-0.5702327489852905,
				-0.28002071380615234,
				-1.1298507452011108
			],
			"type":"VEC3"
		},
		{
			"bufferView":1,
			"componentType":5126,
			"count":1662,
			"type":"VEC3"
		},
		{
			"bufferView":2,
			"componentType":5126,
			"count":1662,
			"type":"VEC2"
		},
		{
			"bufferView":3,
			"componentType":5126,
			"count":1662,
			"type":"VEC2"
		},
		{
			"bufferView":4,
			"componentType":5121,
			"count":1662,
			"normalized":true,
			"type":"VEC4"
		},
		{
			"bufferView":5,
			"componentType":5123,
			"count":1662,
			"normalized":true,
			"type":"VEC4"
		},
		{
			"bufferView":6,
			"componentType":5121,
			"count":1662,
			"type":"VEC4"
		},
		{
			"bufferView":7,
			"componentType":5126,
			"count":1662,
			"type":"VEC4"
		},
		{
			"bufferView":8,
			"componentType":5123,
			"count":6492,
			"type":"SCALAR"
		},
		{
			"bufferView":9,
			"componentType":5126,
			"count":869,
			"max":[
				-0.4784783124923706,
				0.9136239290237427,
				0.38118094205856323
			],
			"min":[
				-0.6432649493217468,
				0.5206005573272705,
				-0.4381362497806549
			],
			"type":"VEC3"
		},
		{
			"bufferView":10,
			"componentType":5126,
			"count":869,
			"type":"VEC3"
		},
		{
			"bufferView":11,
			"componentType":5126,
			"count":869,
			"type":"VEC2"
		},
		{
			"bufferView":12,
			"componentType":5126,
			"count":869,
			"type":"VEC2"
		},
		{
			"bufferView":13,
			"componentType":5121,
			"count":869,
			"normalized":true,
			"type":"VEC4"
		},
		{
			"bufferView":14,
			"componentType":5123,
			"count":869,
			"normalized":true,
			"type":"VEC4"
		},
		{
			"bufferView":15,
			"componentType":5121,
			"count":869,
			"type":"VEC4"
		},
		{
			"bufferView":16,
			"componentType":5126,
			"count":869,
			"type":"VEC4"
		},
		{
			"bufferView":17,
			"componentType":5123,
			"count":3216,
			"type":"SCALAR"
		},
		{
			"bufferView":18,
			"componentType":5126,
			"count":13,
			"type":"MAT4"
		},
		{
			"bufferView":19,
			"componentType":5126,
			"count":2,
			"max":[
				1.6666666666666667
			],
			"min":[
				0.041666666666666664
			],
			"type":"SCALAR"
		},
		{
			"bufferView":20,
			"componentType":5126,
			"count":2,
			"type":"VEC3"
		},
		{
			"bufferView":21,
			"componentType":5126,
			"count":2,
			"type":"VEC4"
		},
		{
			"bufferView":22,
			"componentType":5126,
			"count":2,
			"type":"VEC3"
		},
		{
			"bufferView":23,
			"componentType":5126,
			"count":2,
			"type":"VEC3"
		},
		{
			"bufferView":24,
			"componentType":5126,
			"count":40,
			"max":[
				1.6666666666666667
			],
			"min":[
				0.041666666666666664
			],
			"type":"SCALAR"
		},
		{
			"bufferView":25,
			"componentType":5126,
			"count":40,
			"type":"VEC4"
		},
		{
			"bufferView":26,
			"componentType":5126,
			"count":2,
			"type":"VEC3"
		},
		{
			"bufferView":27,
			"componentType":5126,
			"count":2,
			"type":"VEC3"
		},
		{
			"bufferView":28,
			"componentType":5126,
			"count":2,
			"type":"VEC4"
		},
		{
			"bufferView":29,
			"componentType":5126,
			"count":2,
			"type":"VEC3"
		},
		{
			"bufferView":30,
			"componentType":5126,
			"count":2,
			"type":"VEC3"
		},
		{
			"bufferView":31,
			"componentType":5126,
			"count":2,
			"type":"VEC4"
		},
		{
			"bufferView":32,
			"componentType":5126,
			"count":2,
			"type":"VEC3"
		},
		{
			"bufferView":33,
			"componentType":5126,
			"count":2,
			"type":"VEC3"
		},
		{
			"bufferView":34,
			"componentType":5126,
			"count":2,
			"type":"VEC4"
		},
		{
			"bufferView":35,
			"componentType":5126,
			"count":2,
			"type":"VEC3"
		},
		{
			"bufferView":36,
			"componentType":5126,
			"count":2,
			"type":"VEC3"
		},
		{
			"bufferView":37,
			"componentType":5126,
			"count":2,
			"type":"VEC4"
		},
		{
			"bufferView":38,
			"componentType":5126,
			"count":2,
			"type":"VEC3"
		},
		{
			"bufferView":39,
			"componentType":5126,
			"count":2,
			"type":"VEC3"
		},
		{
			"bufferView":40,
			"componentType":5126,
			"count":2,
			"type":"VEC4"
		},
		{
			"bufferView":41,
			"componentType":5126,
			"count":2,
			"type":"VEC3"
		},
		{
			"bufferView":42,
			"componentType":5126,
			"count":2,
			"type":"VEC3"
		},
		{
			"bufferView":43,
			"componentType":5126,
			"count":2,
			"type":"VEC4"
		},
		{
			"bufferView":44,
			"componentType":5126,
			"count":2,
			"type":"VEC3"
		},
		{
			"bufferView":45,
			"componentType":5126,
			"count":2,
			"type":"VEC3"
		},
		{
			"bufferView":46,
			"componentType":5126,
			"count":2,
			"type":"VEC4"
		},
		{
			"bufferView":47,
			"componentType":5126,
			"count":2,
			"type":"VEC3"
		},
		{
			"bufferView":48,
			"componentType":5126,
			"count":2,
			"type":"VEC3"
		},
		{
			"bufferView":49,
			"componentType":5126,
			"count":2,
			"type":"VEC4"
		},
		{
			"bufferView":50,
			"componentType":5126,
			"count":2,
			"type":"VEC3"
		},
		{
			"bufferView":51,
			"componentType":5126,
			"count":2,
			"type":"VEC3"
		},
		{
			"bufferView":52,
			"componentType":5126,
			"count":2,
			"type":"VEC4"
		},
		{
			"bufferView":53,
			"componentType":5126,
			"count":2,
			"type":"VEC3"
		},
		{
			"bufferView":54,
			"componentType":5126,
			"count":2,
			"type":"VEC3"
		},
		{
			"bufferView":55,
			"componentType":5126,
			"count":2,
			"type":"VEC4"
		},
		{
			"bufferView":56,
			"componentType":5126,
			"count":2,
			"type":"VEC3"
		},
		{
			"bufferView":57,
			"componentType":5126,
			"count":2,
			"type":"VEC3"
		},
		{
			"bufferView":58,
			"componentType":5126,
			"count":2,
			"type":"VEC4"
		},
		{
			"bufferView":59,
			"componentType":5126,
			"count":2,
			"type":"VEC3"
		}
	],
	"bufferViews":[
		{
			"buffer":0,
			"byteLength":19944,
			"byteOffset":0,
			"target":34962
		},
		{
			"buffer":0,
			"byteLength":19944,
			"byteOffset":19944,
			"target":34962
		},
		{
			"buffer":0,
			"byteLength":13296,
			"byteOffset":39888,
			"target":34962
		},
		{
			"buffer":0,
			"byteLength":13296,
			"byteOffset":53184,
			"target":34962
		},
		{
			"buffer":0,
			"byteLength":6648,
			"byteOffset":66480,
			"target":34962
		},
		{
			"buffer":0,
			"byteLength":13296,
			"byteOffset":73128,
			"target":34962
		},
		{
			"buffer":0,
			"byteLength":6648,
			"byteOffset":86424,
			"target":34962
		},
		{
			"buffer":0,
			"byteLength":26592,
			"byteOffset":93072,
			"target":34962
		},
		{
			"buffer":0,
			"byteLength":12984,
			"byteOffset":119664,
			"target":34963
		},
		{
			"buffer":0,
			"byteLength":10428,
			"byteOffset":132648,
			"target":34962
		},
		{
			"buffer":0,
			"byteLength":10428,
			"byteOffset":143076,
			"target":34962
		},
		{
			"buffer":0,
			"byteLength":6952,
			"byteOffset":153504,
			"target":34962
		},
		{
			"buffer":0,
			"byteLength":6952,
			"byteOffset":160456,
			"target":34962
		},
		{
			"buffer":0,
			"byteLength":3476,
			"byteOffset":167408,
			"target":34962
		},
		{
			"buffer":0,
			"byteLength":6952,
			"byteOffset":170884,
			"target":34962
		},
		{
			"buffer":0,
			"byteLength":3476,
			"byteOffset":177836,
			"target":34962
		},
		{
			"buffer":0,
			"byteLength":13904,
			"byteOffset":181312,
			"target":34962
		},
		{
			"buffer":0,
			"byteLength":6432,
			"byteOffset":195216,
			"target":34963
		},
		{
			"buffer":0,
			"byteLength":832,
			"byteOffset":201648
		},
		{
			"buffer":0,
			"byteLength":8,
			"byteOffset":202480
		},
		{
			"buffer":0,
			"byteLength":24,
			"byteOffset":202488
		},
		{
			"buffer":0,
			"byteLength":32,
			"byteOffset":202512
		},
		{
			"buffer":0,
			"byteLength":24,
			"byteOffset":202544
		},
		{
			"buffer":0,
			"byteLength":24,
			"byteOffset":202568
		},
		{
			"buffer":0,
			"byteLength":160,
			"byteOffset":202592
		},
		{
			"buffer":0,
			"byteLength":640,
			"byteOffset":202752
		},
		{
			"buffer":0,
			"byteLength":24,
			"byteOffset":203392
		},
		{
			"buffer":0,
			"byteLength":24,
			"byteOffset":203416
		},
		{
			"buffer":0,
			"byteLength":32,
			"byteOffset":203440
		},
		{
			"buffer":0,
			"byteLength":24,
			"byteOffset":203472
		},
		{
			"buffer":0,
			"byteLength":24,
			"byteOffset":203496
		},
		{
			"buffer":0,
			"byteLength":32,
			"byteOffset":203520
		},
		{
			"buffer":0,
			"byteLength":24,
			"byteOffset":203552
		},
		{
			"buffer":0,
			"byteLength":24,
			"byteOffset":203576
		},
		{
			"buffer":0,
			"byteLength":32,
			"byteOffset":203600
		},
		{
			"buffer":0,
			"byteLength":24,
			"byteOffset":203632
		},
		{
			"buffer":0,
			"byteLength":24,
			"byteOffset":203656
		},
		{
			"buffer":0,
			"byteLength":32,
			"byteOffset":203680
		},
		{
			"buffer":0,
			"byteLength":24,
			"byteOffset":203712
		},
		{
			"buffer":0,
			"byteLength":24,
			"byteOffset":203736
		},
		{
			"buffer":0,
			"byteLength":32,
			"byteOffset":203760
		},
		{
			"buffer":0,
			"byteLength":24,
			"byteOffset":203792
		},
		{
			"buffer":0,
			"byteLength":24,
			"byteOffset":203816
		},
		{
			"buffer":0,
			"byteLength":32,
			"byteOffset":203840
		},
		{
			"buffer":0,
			"byteLength":24,
			"byteOffset":203872
		},
		{
			"buffer":0,
			"byteLength":24,
			"byteOffset":203896
		},
		{
			"buffer":0,
			"byteLength":32,
			"byteOffset":203920
		},
		{
			"buffer":0,
			"byteLength":24,
			"byteOffset":203952
		},
		{
			"buffer":0,
			"byteLength":24,
			"byteOffset":203976
		},
		{
			"buffer":0,
			"byteLength":32,
			"byteOffset":204000
		},
		{
			"buffer":0,
			"byteLength":24,
			"byteOffset":204032
		},
		{
			"buffer":0,
			"byteLength":24,
			"byteOffset":204056
		},
		{
			"buffer":0,
			"byteLength":32,
			"byteOffset":204080
		},
		{
			"buffer":0,
			"byteLength":24,
			"byteOffset":204112
		},
		{
			"buffer":0,
			"byteLength":24,
			"byteOffset":204136
		},
		{
			"buffer":0,
			"byteLength":32,
			"byteOffset":204160
		},
		{
			"buffer":0,
			"byteLength":24,
			"byteOffset":204192
		},
		{
			"buffer":0,
			"byteLength":24,
			"byteOffset":204216
		},
		{
			"buffer":0,
			"byteLength":32,
			"byteOffset":204240
		},
		{
			"buffer":0,
			"byteLength":24,
			"byteOffset":204272
		}
	],
	"samplers":[
		{
			"magFilter":9729,
			"minFilter":9987
		},
		{
			"magFilter":9728,
			"minFilter":9984
		}
	],
	"buffers":[
		{
			"byteLength":204296,
			"uri":"rzodkiewka-siedzi.bin"
		}
	]
}
