{
	"asset":{
		"generator":"Khronos glTF Blender I/O v4.4.56",
		"version":"2.0"
	},
	"scene":0,
	"scenes":[
		{
			"name":"Scene",
			"nodes":[
				22
			]
		}
	],
	"nodes":[
		{
			"name":"lisc-s",
			"rotation":[
				-2.6671392205912525e-08,
				7.0267432761284e-08,
				0.08632934838533401,
				0.9962666630744934
			],
			"scale":[
				0.9999999403953552,
				0.9999999403953552,
				1
			],
			"translation":[
				0,
				1.5413358211517334,
				0
			]
		},
		{
			"name":"lisc-p",
			"rotation":[
				8.563064568534173e-08,
				4.449959334351661e-08,
				-0.30038177967071533,
				0.9538190364837646
			],
			"translation":[
				0,
				1.5413358211517334,
				0
			]
		},
		{
			"name":"lisc-l",
			"rotation":[
				-3.561407169172526e-08,
				-1.2999356613363489e-07,
				0.3592889606952667,
				0.9332264065742493
			],
			"scale":[
				0.9999999403953552,
				0.9999999403953552,
				1
			],
			"translation":[
				0,
				1.5413358211517334,
				0
			]
		},
		{
			"children":[
				0,
				1,
				2
			],
			"name":"kregoslup",
			"rotation":[
				0,
				1.1920928955078125e-07,
				0,
				1
			],
			"translation":[
				0,
				0.6288367509841919,
				0
			]
		},
		{
			"name":"reka",
			"rotation":[
				0.005054134409874678,
				-0.0012751186732202768,
				-0.19865810871124268,
				0.9800549745559692
			],
			"scale":[
				1,
				1,
				0.9999999403953552
			],
			"translation":[
				0,
				1.0152404308319092,
				0
			]
		},
		{
			"children":[
				4
			],
			"name":"tlow",
			"rotation":[
				-2.6692537957728746e-08,
				-2.6692537957728746e-08,
				-0.7071067690849304,
				0.7071067690849304
			],
			"translation":[
				0,
				0.6288367509841919,
				0
			]
		},
		{
			"name":"reka2",
			"rotation":[
				0.16572131216526031,
				0.704865038394928,
				0.16504786908626556,
				0.6696723103523254
			],
			"scale":[
				0.9999999403953552,
				1,
				0.9999999403953552
			],
			"translation":[
				0,
				1.0519548654556274,
				0
			]
		},
		{
			"children":[
				6
			],
			"name":"tlow2",
			"rotation":[
				0.5000000596046448,
				-0.5,
				0.5,
				0.5
			],
			"scale":[
				1,
				0.9999999403953552,
				1
			],
			"translation":[
				0.012386322021484375,
				0.6288367509841919,
				0
			]
		},
		{
			"children":[
				3,
				5,
				7
			],
			"name":"glowna"
		},
		{
			"name":"stopa",
			"rotation":[
				-0.4527891278266907,
				1.7604135393867182e-07,
				-1.0964011210035096e-07,
				0.8916176557540894
			],
			"translation":[
				-4.996003610813204e-16,
				0.511302649974823,
				-7.916241884231567e-09
			]
		},
		{
			"children":[
				9
			],
			"name":"noga",
			"rotation":[
				-0.5559144616127014,
				-0.43698862195014954,
				-0.5559145212173462,
				0.4369886517524719
			],
			"scale":[
				1.0000001192092896,
				1.0000001192092896,
				1
			]
		},
		{
			"name":"stopa2",
			"rotation":[
				0.45278918743133545,
				5.232717015246635e-08,
				1.492532106794897e-07,
				0.8916175961494446
			],
			"scale":[
				1,
				0.9999999403953552,
				1
			],
			"translation":[
				-5.10702591327572e-15,
				0.511302649974823,
				-1.6298140614878776e-09
			]
		},
		{
			"children":[
				11
			],
			"name":"noga2",
			"rotation":[
				0.5559144020080566,
				-0.43698859214782715,
				0.555914580821991,
				0.4369886815547943
			],
			"scale":[
				1.0000001192092896,
				1.000000238418579,
				1
			],
			"translation":[
				0.012386322021484375,
				0,
				0
			]
		},
		{
			"mesh":0,
			"name":"cialo.002",
			"skin":0
		},
		{
			"mesh":1,
			"name":"lisc1.001",
			"skin":0
		},
		{
			"mesh":2,
			"name":"lisc2.001",
			"skin":0
		},
		{
			"mesh":3,
			"name":"lisc3.001",
			"skin":0
		},
		{
			"mesh":4,
			"name":"nogi.001",
			"skin":0
		},
		{
			"mesh":5,
			"name":"rece.002",
			"skin":0
		},
		{
			"mesh":6,
			"name":"Sphere",
			"skin":0
		},
		{
			"mesh":7,
			"name":"Sphere.005",
			"skin":0
		},
		{
			"mesh":8,
			"name":"usta.001",
			"skin":0
		},
		{
			"children":[
				13,
				14,
				15,
				16,
				17,
				18,
				19,
				20,
				21,
				8,
				10,
				12
			],
			"name":"Armature.001",
			"translation":[
				-0.014485806226730347,
				-0.0025998950004577637,
				0
			]
		}
	],
	"materials":[
		{
			"doubleSided":true,
			"emissiveFactor":[
				0.4999999701976776,
				0.4999999701976776,
				0.4999999701976776
			],
			"emissiveTexture":{
				"index":0,
				"texCoord":1
			},
			"name":"Material.006",
			"pbrMetallicRoughness":{
				"baseColorTexture":{
					"index":1
				},
				"metallicFactor":0,
				"roughnessFactor":0.5
			}
		},
		{
			"doubleSided":true,
			"emissiveFactor":[
				0.4999999701976776,
				0.4999999701976776,
				0.4999999701976776
			],
			"emissiveTexture":{
				"index":0
			},
			"name":"Material.006",
			"pbrMetallicRoughness":{
				"baseColorTexture":{
					"index":1
				},
				"metallicFactor":0,
				"roughnessFactor":0.5
			}
		},
		{
			"doubleSided":true,
			"name":"Material.002",
			"pbrMetallicRoughness":{
				"baseColorTexture":{
					"index":2
				},
				"metallicFactor":0,
				"roughnessFactor":0.5
			}
		}
	],
	"meshes":[
		{
			"name":"Sphere.003",
			"primitives":[
				{
					"attributes":{
						"POSITION":0,
						"NORMAL":1,
						"TEXCOORD_0":2,
						"TEXCOORD_1":3,
						"COLOR_0":4,
						"COLOR_1":5,
						"JOINTS_0":6,
						"WEIGHTS_0":7
					},
					"indices":8,
					"material":0
				}
			]
		},
		{
			"name":"Circle.005",
			"primitives":[
				{
					"attributes":{
						"POSITION":10,
						"NORMAL":11,
						"TEXCOORD_0":12,
						"TEXCOORD_1":13,
						"JOINTS_0":14,
						"WEIGHTS_0":15
					},
					"indices":16,
					"material":0
				}
			]
		},
		{
			"name":"Circle.002",
			"primitives":[
				{
					"attributes":{
						"POSITION":17,
						"NORMAL":18,
						"TEXCOORD_0":19,
						"TEXCOORD_1":20,
						"JOINTS_0":21,
						"WEIGHTS_0":22
					},
					"indices":23,
					"material":0
				}
			]
		},
		{
			"name":"Circle.001",
			"primitives":[
				{
					"attributes":{
						"POSITION":24,
						"NORMAL":25,
						"TEXCOORD_0":26,
						"TEXCOORD_1":27,
						"JOINTS_0":28,
						"WEIGHTS_0":29
					},
					"indices":23,
					"material":0
				}
			]
		},
		{
			"name":"Sphere.002",
			"primitives":[
				{
					"attributes":{
						"POSITION":30,
						"NORMAL":31,
						"TEXCOORD_0":32,
						"JOINTS_0":33,
						"WEIGHTS_0":34
					},
					"indices":35,
					"material":1
				}
			]
		},
		{
			"name":"Sphere.005",
			"primitives":[
				{
					"attributes":{
						"POSITION":36,
						"NORMAL":37,
						"TEXCOORD_0":38,
						"JOINTS_0":39,
						"WEIGHTS_0":40
					},
					"indices":41,
					"material":1
				}
			]
		},
		{
			"name":"Sphere",
			"primitives":[
				{
					"attributes":{
						"POSITION":42,
						"NORMAL":43,
						"TEXCOORD_0":44,
						"COLOR_0":45,
						"COLOR_1":46,
						"JOINTS_0":47,
						"WEIGHTS_0":48
					},
					"indices":49,
					"material":2
				}
			]
		},
		{
			"name":"Sphere.008",
			"primitives":[
				{
					"attributes":{
						"POSITION":50,
						"NORMAL":51,
						"TEXCOORD_0":52,
						"JOINTS_0":53,
						"WEIGHTS_0":54
					},
					"indices":55,
					"material":2
				}
			]
		},
		{
			"name":"Cube.002",
			"primitives":[
				{
					"attributes":{
						"POSITION":56,
						"NORMAL":57,
						"TEXCOORD_0":58,
						"COLOR_0":59,
						"COLOR_1":60,
						"JOINTS_0":61,
						"WEIGHTS_0":62
					},
					"indices":63,
					"material":2
				}
			]
		}
	],
	"textures":[
		{
			"sampler":0,
			"source":0
		},
		{
			"sampler":1,
			"source":1
		},
		{
			"sampler":1,
			"source":1
		}
	],
	"images":[
		{
			"mimeType":"image/png",
			"name":"detal-rzodkiewka",
			"uri":"detal-rzodkiewka.png"
		},
		{
			"mimeType":"image/png",
			"name":"palette",
			"uri":"../../../textures/palette.png"
		}
	],
	"skins":[
		{
			"inverseBindMatrices":9,
			"joints":[
				8,
				3,
				0,
				1,
				2,
				5,
				4,
				7,
				6,
				10,
				9,
				12,
				11
			],
			"name":"Armature.001"
		}
	],
	"accessors":[
		{
			"bufferView":0,
			"componentType":5126,
			"count":524,
			"max":[
				1.0946085453033447,
				2.168423652648926,
				0.8575777411460876
			],
			"min":[
				-1.1803553104400635,
				-0.25333520770072937,
				-0.8574933409690857
			],
			"type":"VEC3"
		},
		{
			"bufferView":1,
			"componentType":5126,
			"count":524,
			"type":"VEC3"
		},
		{
			"bufferView":2,
			"componentType":5126,
			"count":524,
			"type":"VEC2"
		},
		{
			"bufferView":3,
			"componentType":5126,
			"count":524,
			"type":"VEC2"
		},
		{
			"bufferView":4,
			"componentType":5121,
			"count":524,
			"normalized":true,
			"type":"VEC4"
		},
		{
			"bufferView":5,
			"componentType":5123,
			"count":524,
			"normalized":true,
			"type":"VEC4"
		},
		{
			"bufferView":6,
			"componentType":5121,
			"count":524,
			"type":"VEC4"
		},
		{
			"bufferView":7,
			"componentType":5126,
			"count":524,
			"type":"VEC4"
		},
		{
			"bufferView":8,
			"componentType":5123,
			"count":2484,
			"type":"SCALAR"
		},
		{
			"bufferView":9,
			"componentType":5126,
			"count":13,
			"type":"MAT4"
		},
		{
			"bufferView":10,
			"componentType":5126,
			"count":340,
			"max":[
				-0.20811827480793,
				3.3411266803741455,
				0.10446548461914062
			],
			"min":[
				-1.2194454669952393,
				2.0378990173339844,
				-0.046604935079813004
			],
			"type":"VEC3"
		},
		{
			"bufferView":11,
			"componentType":5126,
			"count":340,
			"type":"VEC3"
		},
		{
			"bufferView":12,
			"componentType":5126,
			"count":340,
			"type":"VEC2"
		},
		{
			"bufferView":13,
			"componentType":5126,
			"count":340,
			"type":"VEC2"
		},
		{
			"bufferView":14,
			"componentType":5121,
			"count":340,
			"type":"VEC4"
		},
		{
			"bufferView":15,
			"componentType":5126,
			"count":340,
			"type":"VEC4"
		},
		{
			"bufferView":16,
			"componentType":5123,
			"count":1152,
			"type":"SCALAR"
		},
		{
			"bufferView":17,
			"componentType":5126,
			"count":340,
			"max":[
				0.20244091749191284,
				3.6436259746551514,
				0.18454612791538239
			],
			"min":[
				-0.612104058265686,
				2.0550243854522705,
				-0.02048582397401333
			],
			"type":"VEC3"
		},
		{
			"bufferView":18,
			"componentType":5126,
			"count":340,
			"type":"VEC3"
		},
		{
			"bufferView":19,
			"componentType":5126,
			"count":340,
			"type":"VEC2"
		},
		{
			"bufferView":20,
			"componentType":5126,
			"count":340,
			"type":"VEC2"
		},
		{
			"bufferView":21,
			"componentType":5121,
			"count":340,
			"type":"VEC4"
		},
		{
			"bufferView":22,
			"componentType":5126,
			"count":340,
			"type":"VEC4"
		},
		{
			"bufferView":23,
			"componentType":5123,
			"count":1152,
			"type":"SCALAR"
		},
		{
			"bufferView":24,
			"componentType":5126,
			"count":340,
			"max":[
				0.9638276696205139,
				3.3529083728790283,
				0.22890673577785492
			],
			"min":[
				0.010209840722382069,
				2.0034358501434326,
				0.003405868774279952
			],
			"type":"VEC3"
		},
		{
			"bufferView":25,
			"componentType":5126,
			"count":340,
			"type":"VEC3"
		},
		{
			"bufferView":26,
			"componentType":5126,
			"count":340,
			"type":"VEC2"
		},
		{
			"bufferView":27,
			"componentType":5126,
			"count":340,
			"type":"VEC2"
		},
		{
			"bufferView":28,
			"componentType":5121,
			"count":340,
			"type":"VEC4"
		},
		{
			"bufferView":29,
			"componentType":5126,
			"count":340,
			"type":"VEC4"
		},
		{
			"bufferView":30,
			"componentType":5126,
			"count":1207,
			"max":[
				0.720045804977417,
				0.05978807061910629,
				0.17798718810081482
			],
			"min":[
				-0.7484018802642822,
				-0.49341779947280884,
				-0.17798730731010437
			],
			"type":"VEC3"
		},
		{
			"bufferView":31,
			"componentType":5126,
			"count":1207,
			"type":"VEC3"
		},
		{
			"bufferView":32,
			"componentType":5126,
			"count":1207,
			"type":"VEC2"
		},
		{
			"bufferView":33,
			"componentType":5121,
			"count":1207,
			"type":"VEC4"
		},
		{
			"bufferView":34,
			"componentType":5126,
			"count":1207,
			"type":"VEC4"
		},
		{
			"bufferView":35,
			"componentType":5123,
			"count":5760,
			"type":"SCALAR"
		},
		{
			"bufferView":36,
			"componentType":5126,
			"count":1191,
			"max":[
				1.57442307472229,
				0.7227396368980408,
				0.1996995061635971
			],
			"min":[
				-1.576283574104309,
				0.32179564237594604,
				-0.19969965517520905
			],
			"type":"VEC3"
		},
		{
			"bufferView":37,
			"componentType":5126,
			"count":1191,
			"type":"VEC3"
		},
		{
			"bufferView":38,
			"componentType":5126,
			"count":1191,
			"type":"VEC2"
		},
		{
			"bufferView":39,
			"componentType":5121,
			"count":1191,
			"type":"VEC4"
		},
		{
			"bufferView":40,
			"componentType":5126,
			"count":1191,
			"type":"VEC4"
		},
		{
			"bufferView":41,
			"componentType":5123,
			"count":5760,
			"type":"SCALAR"
		},
		{
			"bufferView":42,
			"componentType":5126,
			"count":1188,
			"max":[
				0.48918986320495605,
				0.9426248073577881,
				0.8761653304100037
			],
			"min":[
				-0.5749358534812927,
				0.7365105152130127,
				0.6700510382652283
			],
			"type":"VEC3"
		},
		{
			"bufferView":43,
			"componentType":5126,
			"count":1188,
			"type":"VEC3"
		},
		{
			"bufferView":44,
			"componentType":5126,
			"count":1188,
			"type":"VEC2"
		},
		{
			"bufferView":45,
			"componentType":5121,
			"count":1188,
			"normalized":true,
			"type":"VEC4"
		},
		{
			"bufferView":46,
			"componentType":5123,
			"count":1188,
			"normalized":true,
			"type":"VEC4"
		},
		{
			"bufferView":47,
			"componentType":5121,
			"count":1188,
			"type":"VEC4"
		},
		{
			"bufferView":48,
			"componentType":5126,
			"count":1188,
			"type":"VEC4"
		},
		{
			"bufferView":49,
			"componentType":5123,
			"count":5760,
			"type":"SCALAR"
		},
		{
			"bufferView":50,
			"componentType":5126,
			"count":1180,
			"max":[
				0.523203432559967,
				1.1518055200576782,
				0.8060135841369629
			],
			"min":[
				-0.6056003570556641,
				0.9883530735969543,
				0.7116067409515381
			],
			"type":"VEC3"
		},
		{
			"bufferView":51,
			"componentType":5126,
			"count":1180,
			"type":"VEC3"
		},
		{
			"bufferView":52,
			"componentType":5126,
			"count":1180,
			"type":"VEC2"
		},
		{
			"bufferView":53,
			"componentType":5121,
			"count":1180,
			"type":"VEC4"
		},
		{
			"bufferView":54,
			"componentType":5126,
			"count":1180,
			"type":"VEC4"
		},
		{
			"bufferView":55,
			"componentType":5123,
			"count":5760,
			"type":"SCALAR"
		},
		{
			"bufferView":56,
			"componentType":5126,
			"count":253,
			"max":[
				0.14749939739704132,
				0.6733591556549072,
				0.864267110824585
			],
			"min":[
				-0.1831415444612503,
				0.6101711392402649,
				0.8302183747291565
			],
			"type":"VEC3"
		},
		{
			"bufferView":57,
			"componentType":5126,
			"count":253,
			"type":"VEC3"
		},
		{
			"bufferView":58,
			"componentType":5126,
			"count":253,
			"type":"VEC2"
		},
		{
			"bufferView":59,
			"componentType":5121,
			"count":253,
			"normalized":true,
			"type":"VEC4"
		},
		{
			"bufferView":60,
			"componentType":5123,
			"count":253,
			"normalized":true,
			"type":"VEC4"
		},
		{
			"bufferView":61,
			"componentType":5121,
			"count":253,
			"type":"VEC4"
		},
		{
			"bufferView":62,
			"componentType":5126,
			"count":253,
			"type":"VEC4"
		},
		{
			"bufferView":63,
			"componentType":5123,
			"count":834,
			"type":"SCALAR"
		}
	],
	"bufferViews":[
		{
			"buffer":0,
			"byteLength":6288,
			"byteOffset":0,
			"target":34962
		},
		{
			"buffer":0,
			"byteLength":6288,
			"byteOffset":6288,
			"target":34962
		},
		{
			"buffer":0,
			"byteLength":4192,
			"byteOffset":12576,
			"target":34962
		},
		{
			"buffer":0,
			"byteLength":4192,
			"byteOffset":16768,
			"target":34962
		},
		{
			"buffer":0,
			"byteLength":2096,
			"byteOffset":20960,
			"target":34962
		},
		{
			"buffer":0,
			"byteLength":4192,
			"byteOffset":23056,
			"target":34962
		},
		{
			"buffer":0,
			"byteLength":2096,
			"byteOffset":27248,
			"target":34962
		},
		{
			"buffer":0,
			"byteLength":8384,
			"byteOffset":29344,
			"target":34962
		},
		{
			"buffer":0,
			"byteLength":4968,
			"byteOffset":37728,
			"target":34963
		},
		{
			"buffer":0,
			"byteLength":832,
			"byteOffset":42696
		},
		{
			"buffer":0,
			"byteLength":4080,
			"byteOffset":43528,
			"target":34962
		},
		{
			"buffer":0,
			"byteLength":4080,
			"byteOffset":47608,
			"target":34962
		},
		{
			"buffer":0,
			"byteLength":2720,
			"byteOffset":51688,
			"target":34962
		},
		{
			"buffer":0,
			"byteLength":2720,
			"byteOffset":54408,
			"target":34962
		},
		{
			"buffer":0,
			"byteLength":1360,
			"byteOffset":57128,
			"target":34962
		},
		{
			"buffer":0,
			"byteLength":5440,
			"byteOffset":58488,
			"target":34962
		},
		{
			"buffer":0,
			"byteLength":2304,
			"byteOffset":63928,
			"target":34963
		},
		{
			"buffer":0,
			"byteLength":4080,
			"byteOffset":66232,
			"target":34962
		},
		{
			"buffer":0,
			"byteLength":4080,
			"byteOffset":70312,
			"target":34962
		},
		{
			"buffer":0,
			"byteLength":2720,
			"byteOffset":74392,
			"target":34962
		},
		{
			"buffer":0,
			"byteLength":2720,
			"byteOffset":77112,
			"target":34962
		},
		{
			"buffer":0,
			"byteLength":1360,
			"byteOffset":79832,
			"target":34962
		},
		{
			"buffer":0,
			"byteLength":5440,
			"byteOffset":81192,
			"target":34962
		},
		{
			"buffer":0,
			"byteLength":2304,
			"byteOffset":86632,
			"target":34963
		},
		{
			"buffer":0,
			"byteLength":4080,
			"byteOffset":88936,
			"target":34962
		},
		{
			"buffer":0,
			"byteLength":4080,
			"byteOffset":93016,
			"target":34962
		},
		{
			"buffer":0,
			"byteLength":2720,
			"byteOffset":97096,
			"target":34962
		},
		{
			"buffer":0,
			"byteLength":2720,
			"byteOffset":99816,
			"target":34962
		},
		{
			"buffer":0,
			"byteLength":1360,
			"byteOffset":102536,
			"target":34962
		},
		{
			"buffer":0,
			"byteLength":5440,
			"byteOffset":103896,
			"target":34962
		},
		{
			"buffer":0,
			"byteLength":14484,
			"byteOffset":109336,
			"target":34962
		},
		{
			"buffer":0,
			"byteLength":14484,
			"byteOffset":123820,
			"target":34962
		},
		{
			"buffer":0,
			"byteLength":9656,
			"byteOffset":138304,
			"target":34962
		},
		{
			"buffer":0,
			"byteLength":4828,
			"byteOffset":147960,
			"target":34962
		},
		{
			"buffer":0,
			"byteLength":19312,
			"byteOffset":152788,
			"target":34962
		},
		{
			"buffer":0,
			"byteLength":11520,
			"byteOffset":172100,
			"target":34963
		},
		{
			"buffer":0,
			"byteLength":14292,
			"byteOffset":183620,
			"target":34962
		},
		{
			"buffer":0,
			"byteLength":14292,
			"byteOffset":197912,
			"target":34962
		},
		{
			"buffer":0,
			"byteLength":9528,
			"byteOffset":212204,
			"target":34962
		},
		{
			"buffer":0,
			"byteLength":4764,
			"byteOffset":221732,
			"target":34962
		},
		{
			"buffer":0,
			"byteLength":19056,
			"byteOffset":226496,
			"target":34962
		},
		{
			"buffer":0,
			"byteLength":11520,
			"byteOffset":245552,
			"target":34963
		},
		{
			"buffer":0,
			"byteLength":14256,
			"byteOffset":257072,
			"target":34962
		},
		{
			"buffer":0,
			"byteLength":14256,
			"byteOffset":271328,
			"target":34962
		},
		{
			"buffer":0,
			"byteLength":9504,
			"byteOffset":285584,
			"target":34962
		},
		{
			"buffer":0,
			"byteLength":4752,
			"byteOffset":295088,
			"target":34962
		},
		{
			"buffer":0,
			"byteLength":9504,
			"byteOffset":299840,
			"target":34962
		},
		{
			"buffer":0,
			"byteLength":4752,
			"byteOffset":309344,
			"target":34962
		},
		{
			"buffer":0,
			"byteLength":19008,
			"byteOffset":314096,
			"target":34962
		},
		{
			"buffer":0,
			"byteLength":11520,
			"byteOffset":333104,
			"target":34963
		},
		{
			"buffer":0,
			"byteLength":14160,
			"byteOffset":344624,
			"target":34962
		},
		{
			"buffer":0,
			"byteLength":14160,
			"byteOffset":358784,
			"target":34962
		},
		{
			"buffer":0,
			"byteLength":9440,
			"byteOffset":372944,
			"target":34962
		},
		{
			"buffer":0,
			"byteLength":4720,
			"byteOffset":382384,
			"target":34962
		},
		{
			"buffer":0,
			"byteLength":18880,
			"byteOffset":387104,
			"target":34962
		},
		{
			"buffer":0,
			"byteLength":11520,
			"byteOffset":405984,
			"target":34963
		},
		{
			"buffer":0,
			"byteLength":3036,
			"byteOffset":417504,
			"target":34962
		},
		{
			"buffer":0,
			"byteLength":3036,
			"byteOffset":420540,
			"target":34962
		},
		{
			"buffer":0,
			"byteLength":2024,
			"byteOffset":423576,
			"target":34962
		},
		{
			"buffer":0,
			"byteLength":1012,
			"byteOffset":425600,
			"target":34962
		},
		{
			"buffer":0,
			"byteLength":2024,
			"byteOffset":426612,
			"target":34962
		},
		{
			"buffer":0,
			"byteLength":1012,
			"byteOffset":428636,
			"target":34962
		},
		{
			"buffer":0,
			"byteLength":4048,
			"byteOffset":429648,
			"target":34962
		},
		{
			"buffer":0,
			"byteLength":1668,
			"byteOffset":433696,
			"target":34963
		}
	],
	"samplers":[
		{
			"magFilter":9729,
			"minFilter":9987
		},
		{
			"magFilter":9728,
			"minFilter":9984
		}
	],
	"buffers":[
		{
			"byteLength":435364,
			"uri":"rzodkiewka-new.bin"
		}
	]
}
