{
	"asset":{
		"generator":"Khronos glTF Blender I/O v5.1.19",
		"version":"2.0"
	},
	"extensionsUsed":[
		"KHR_materials_emissive_strength"
	],
	"scene":0,
	"scenes":[
		{
			"name":"Scene",
			"nodes":[
				13
			]
		}
	],
	"nodes":[
		{
			"name":"listek",
			"rotation":[
				4.8808679764533736e-08,
				1.1646130815279321e-07,
				-0.12218347191810608,
				0.9925075173377991
			],
			"translation":[
				3.6261127434045193e-10,
				1.2881884574890137,
				3.4500229340039823e-09
			]
		},
		{
			"children":[
				0
			],
			"name":"kregoslup",
			"rotation":[
				0,
				1.1920927533992653e-07,
				0,
				1
			],
			"translation":[
				-2.0581403248343122e-10,
				0.5875692367553711,
				5.345242026777441e-10
			]
		},
		{
			"name":"reka-p",
			"rotation":[
				2.3226791157071602e-08,
				5.053227170037644e-08,
				-0.24139614403247833,
				0.970426619052887
			],
			"translation":[
				4.3703309415832337e-08,
				1.1784133911132812,
				4.3221102252744e-09
			]
		},
		{
			"children":[
				2
			],
			"name":"prawo0tlow",
			"rotation":[
				3.194233499925758e-08,
				1.492968387806215e-10,
				-0.7271378636360168,
				0.6864914298057556
			],
			"translation":[
				-2.0581403248343122e-10,
				0.5875692367553711,
				5.345242026777441e-10
			]
		},
		{
			"name":"reka-l",
			"rotation":[
				-9.48483176443915e-08,
				-1.2169450336330101e-08,
				0.35198479890823364,
				0.936005711555481
			],
			"scale":[
				1,
				0.9999999403953552,
				1
			],
			"translation":[
				3.6790815727272275e-08,
				1.1784138679504395,
				-1.6176787909216728e-08
			]
		},
		{
			"children":[
				4
			],
			"name":"tlow-l",
			"rotation":[
				-1.1858887916105232e-07,
				8.195238621055978e-08,
				0.7271377444267273,
				0.6864915490150452
			],
			"scale":[
				1,
				0.9999999403953552,
				1
			],
			"translation":[
				-2.0581403248343122e-10,
				0.5875692367553711,
				5.345242026777441e-10
			]
		},
		{
			"children":[
				1,
				3,
				5
			],
			"name":"glowna",
			"rotation":[
				0,
				0.7071067690849304,
				0,
				0.7071067690849304
			],
			"scale":[
				1,
				0.9999999403953552,
				1
			],
			"translation":[
				9.5367431640625e-07,
				-0.43003177642822266,
				0.01145172119140625
			]
		},
		{
			"name":"stopa-p",
			"rotation":[
				-0.4097732603549957,
				-2.8785079209114883e-08,
				5.4378642033725555e-08,
				0.912187397480011
			],
			"scale":[
				1,
				1,
				0.9999999403953552
			],
			"translation":[
				-3.0458213728934425e-08,
				0.5667420029640198,
				1.64831206461713e-08
			]
		},
		{
			"children":[
				7
			],
			"name":"miednica-p",
			"rotation":[
				-0.7964316606521606,
				-3.058357833651826e-08,
				4.0278788304703994e-08,
				0.6047285199165344
			],
			"scale":[
				1,
				0.9999999403953552,
				1
			],
			"translation":[
				9.5367431640625e-07,
				-0.43003177642822266,
				0.01145172119140625
			]
		},
		{
			"name":"stopa-l",
			"rotation":[
				0.40245428681373596,
				-5.9459665635586134e-08,
				7.65801502211616e-08,
				0.9154400825500488
			],
			"scale":[
				1,
				1,
				1.0000001192092896
			],
			"translation":[
				-3.398973547064088e-09,
				0.5717311501502991,
				1.741962307733047e-08
			]
		},
		{
			"children":[
				9
			],
			"name":"miednica-l",
			"rotation":[
				0.8053272366523743,
				7.565542148313398e-08,
				1.0277369000277758e-07,
				0.5928305983543396
			],
			"scale":[
				1,
				1,
				1.0000009536743164
			],
			"translation":[
				9.5367431640625e-07,
				-0.43003177642822266,
				0.01145172119140625
			]
		},
		{
			"mesh":0,
			"name":"cialo.003",
			"skin":0
		},
		{
			"children":[
				11,
				6,
				8,
				10
			],
			"name":"Armature.003",
			"translation":[
				-0.31488513946533203,
				0.4198899269104004,
				-0.02368021011352539
			]
		},
		{
			"children":[
				12
			],
			"name":"Empty"
		}
	],
	"materials":[
		{
			"doubleSided":true,
			"emissiveFactor":[
				1,
				1,
				1
			],
			"emissiveTexture":{
				"index":0,
				"texCoord":1
			},
			"extensions":{
				"KHR_materials_emissive_strength":{
					"emissiveStrength":2.3999998569488525
				}
			},
			"name":"Material.026",
			"pbrMetallicRoughness":{
				"baseColorTexture":{
					"index":1
				},
				"metallicFactor":0,
				"roughnessFactor":0.5
			}
		}
	],
	"meshes":[
		{
			"name":"Sphere.023",
			"primitives":[
				{
					"attributes":{
						"POSITION":0,
						"NORMAL":1,
						"TEXCOORD_0":2,
						"TEXCOORD_1":3,
						"JOINTS_0":4,
						"WEIGHTS_0":5
					},
					"indices":6,
					"material":0
				}
			]
		}
	],
	"textures":[
		{
			"sampler":0,
			"source":0
		},
		{
			"sampler":1,
			"source":1
		}
	],
	"images":[
		{
			"mimeType":"image/png",
			"name":"detal-pomidor",
			"uri":"detal-pomidor.png"
		},
		{
			"mimeType": "image/png",
			"name": "palette",
			"uri": "../../../textures/palette.png"
		}
	],
	"skins":[
		{
			"inverseBindMatrices":7,
			"joints":[
				6,
				1,
				0,
				3,
				2,
				5,
				4,
				8,
				7,
				10,
				9
			],
			"name":"Armature.003"
		}
	],
	"accessors":[
		{
			"bufferView":0,
			"componentType":5126,
			"count":2521,
			"max":[
				0.5701007843017578,
				2.42256498336792,
				1.5580167770385742
			],
			"min":[
				-1.1792387962341309,
				-0.560218334197998,
				-1.6236562728881836
			],
			"type":"VEC3"
		},
		{
			"bufferView":1,
			"componentType":5126,
			"count":2521,
			"type":"VEC3"
		},
		{
			"bufferView":2,
			"componentType":5126,
			"count":2521,
			"type":"VEC2"
		},
		{
			"bufferView":3,
			"componentType":5126,
			"count":2521,
			"type":"VEC2"
		},
		{
			"bufferView":4,
			"componentType":5121,
			"count":2521,
			"type":"VEC4"
		},
		{
			"bufferView":5,
			"componentType":5126,
			"count":2521,
			"type":"VEC4"
		},
		{
			"bufferView":6,
			"componentType":5123,
			"count":9342,
			"type":"SCALAR"
		},
		{
			"bufferView":7,
			"componentType":5126,
			"count":11,
			"type":"MAT4"
		}
	],
	"bufferViews":[
		{
			"buffer":0,
			"byteLength":30252,
			"byteOffset":0,
			"target":34962
		},
		{
			"buffer":0,
			"byteLength":30252,
			"byteOffset":30252,
			"target":34962
		},
		{
			"buffer":0,
			"byteLength":20168,
			"byteOffset":60504,
			"target":34962
		},
		{
			"buffer":0,
			"byteLength":20168,
			"byteOffset":80672,
			"target":34962
		},
		{
			"buffer":0,
			"byteLength":10084,
			"byteOffset":100840,
			"target":34962
		},
		{
			"buffer":0,
			"byteLength":40336,
			"byteOffset":110924,
			"target":34962
		},
		{
			"buffer":0,
			"byteLength":18684,
			"byteOffset":151260,
			"target":34963
		},
		{
			"buffer":0,
			"byteLength":704,
			"byteOffset":169944
		}
	],
	"samplers":[
		{
			"magFilter":9729,
			"minFilter":9987
		},
		{
			"magFilter":9728,
			"minFilter":9984
		}
	],
	"buffers":[
		{
			"byteLength":170648,
			"uri":"pomidor.bin"
		}
	]
}
