{
	"asset":{
		"generator":"Khronos glTF Blender I/O v4.5.48",
		"version":"2.0"
	},
	"scene":0,
	"scenes":[
		{
			"name":"Scene",
			"nodes":[
				0,
				1
			]
		}
	],
	"nodes":[
		{
			"mesh":0,
			"name":"Cube.002",
			"rotation":[
				-0.13243970274925232,
				-0.835092306137085,
				-0.22939229011535645,
				0.4821408689022064
			],
			"scale":[
				1.0499358177185059,
				1.0499358177185059,
				1.0499358177185059
			],
			"translation":[
				0,
				2.14573335647583,
				0
			]
		},
		{
			"mesh":1,
			"name":"Cube.001"
		}
	],
	"materials":[
		{
			"doubleSided":true,
			"name":"Material.002",
			"pbrMetallicRoughness":{
				"baseColorTexture":{
					"index":0
				},
				"metallicFactor":0,
				"roughnessFactor":0.5
			}
		},
		{
			"doubleSided":true,
			"name":"Material.001",
			"pbrMetallicRoughness":{
				"baseColorTexture":{
					"index":1
				},
				"metallicFactor":0,
				"roughnessFactor":0.5
			}
		}
	],
	"meshes":[
		{
			"name":"Cube.006",
			"primitives":[
				{
					"attributes":{
						"POSITION":0,
						"NORMAL":1,
						"TEXCOORD_0":2
					},
					"indices":3,
					"material":0
				}
			]
		},
		{
			"name":"Cube.001",
			"primitives":[
				{
					"attributes":{
						"POSITION":4,
						"NORMAL":5,
						"TEXCOORD_0":6
					},
					"indices":7,
					"material":1
				}
			]
		}
	],
	"textures":[
		{
			"sampler":0,
			"source":0
		},
		{
			"sampler":0,
			"source":1
		}
	],
	"images":[
		{
			"mimeType":"image/png",
			"name":"palette.png",
			"uri":"palette.png.png"
		},
		{
			"mimeType":"image/png",
			"name":"palette",
			"uri":"palette.png"
		}
	],
	"accessors":[
		{
			"bufferView":0,
			"componentType":5126,
			"count":453,
			"max":[
				0.5779865384101868,
				0.9239890575408936,
				0.7249252200126648
			],
			"min":[
				-0.5779890418052673,
				-0.12708260118961334,
				-0.26297271251678467
			],
			"type":"VEC3"
		},
		{
			"bufferView":1,
			"componentType":5126,
			"count":453,
			"type":"VEC3"
		},
		{
			"bufferView":2,
			"componentType":5126,
			"count":453,
			"type":"VEC2"
		},
		{
			"bufferView":3,
			"componentType":5123,
			"count":1842,
			"type":"SCALAR"
		},
		{
			"bufferView":4,
			"componentType":5126,
			"count":920,
			"max":[
				0.8535814881324768,
				2.2794744968414307,
				0.8535814881324768
			],
			"min":[
				-0.853581428527832,
				-0.3885737359523773,
				-0.853581428527832
			],
			"type":"VEC3"
		},
		{
			"bufferView":5,
			"componentType":5126,
			"count":920,
			"type":"VEC3"
		},
		{
			"bufferView":6,
			"componentType":5126,
			"count":920,
			"type":"VEC2"
		},
		{
			"bufferView":7,
			"componentType":5123,
			"count":3864,
			"type":"SCALAR"
		}
	],
	"bufferViews":[
		{
			"buffer":0,
			"byteLength":5436,
			"byteOffset":0,
			"target":34962
		},
		{
			"buffer":0,
			"byteLength":5436,
			"byteOffset":5436,
			"target":34962
		},
		{
			"buffer":0,
			"byteLength":3624,
			"byteOffset":10872,
			"target":34962
		},
		{
			"buffer":0,
			"byteLength":3684,
			"byteOffset":14496,
			"target":34963
		},
		{
			"buffer":0,
			"byteLength":11040,
			"byteOffset":18180,
			"target":34962
		},
		{
			"buffer":0,
			"byteLength":11040,
			"byteOffset":29220,
			"target":34962
		},
		{
			"buffer":0,
			"byteLength":7360,
			"byteOffset":40260,
			"target":34962
		},
		{
			"buffer":0,
			"byteLength":7728,
			"byteOffset":47620,
			"target":34963
		}
	],
	"samplers":[
		{
			"magFilter":9729,
			"minFilter":9987
		}
	],
	"buffers":[
		{
			"byteLength":55348,
			"uri":"carrot1.bin"
		}
	]
}
