{
	"asset":{
		"generator":"Khronos glTF Blender I/O v5.1.19",
		"version":"2.0"
	},
	"scene":0,
	"scenes":[
		{
			"name":"Scene",
			"nodes":[
				0,
				1,
				2,
				3,
				4
			]
		}
	],
	"nodes":[
		{
			"mesh":0,
			"name":"Cube.005"
		},
		{
			"mesh":1,
			"name":"Cube.006"
		},
		{
			"mesh":2,
			"name":"Cube.007"
		},
		{
			"mesh":3,
			"name":"Cylinder.006"
		},
		{
			"mesh":4,
			"name":"Cylinder.007"
		}
	],
	"materials":[
		{
			"doubleSided":true,
			"name":"Material",
			"pbrMetallicRoughness":{
				"baseColorTexture":{
					"index":0
				},
				"metallicFactor":0,
				"roughnessFactor":0.5
			}
		}
	],
	"meshes":[
		{
			"name":"Cube",
			"primitives":[
				{
					"attributes":{
						"POSITION":0,
						"NORMAL":1,
						"TEXCOORD_0":2
					},
					"indices":3,
					"material":0
				}
			]
		},
		{
			"name":"Cube.006",
			"primitives":[
				{
					"attributes":{
						"POSITION":4,
						"NORMAL":5,
						"TEXCOORD_0":6
					},
					"indices":7,
					"material":0
				}
			]
		},
		{
			"name":"Cube.007",
			"primitives":[
				{
					"attributes":{
						"POSITION":8,
						"NORMAL":9,
						"TEXCOORD_0":10
					},
					"indices":3,
					"material":0
				}
			]
		},
		{
			"name":"Cylinder.006",
			"primitives":[
				{
					"attributes":{
						"POSITION":11,
						"NORMAL":12,
						"TEXCOORD_0":13
					},
					"indices":14,
					"material":0
				}
			]
		},
		{
			"name":"Cylinder.007",
			"primitives":[
				{
					"attributes":{
						"POSITION":15,
						"NORMAL":16,
						"TEXCOORD_0":17
					},
					"indices":18,
					"material":0
				}
			]
		}
	],
	"textures":[
		{
			"sampler":0,
			"source":0
		}
	],
	"images":[
		{
			"mimeType": "image/png",
			"name": "palette",
			"uri": "../../../textures/palette.png"
		}
	],
	"accessors":[
		{
			"bufferView":0,
			"componentType":5126,
			"count":96,
			"max":[
				1.80769944190979,
				2.939122200012207,
				1.5814557075500488
			],
			"min":[
				-1.80769944190979,
				-0.0038546323776245117,
				-1.5814557075500488
			],
			"type":"VEC3"
		},
		{
			"bufferView":1,
			"componentType":5126,
			"count":96,
			"type":"VEC3"
		},
		{
			"bufferView":2,
			"componentType":5126,
			"count":96,
			"type":"VEC2"
		},
		{
			"bufferView":3,
			"componentType":5123,
			"count":324,
			"type":"SCALAR"
		},
		{
			"bufferView":4,
			"componentType":5126,
			"count":192,
			"max":[
				1.7047953605651855,
				2.1037850379943848,
				1.6785207986831665
			],
			"min":[
				-1.7047953605651855,
				0.18943512439727783,
				0.9345134496688843
			],
			"type":"VEC3"
		},
		{
			"bufferView":5,
			"componentType":5126,
			"count":192,
			"type":"VEC3"
		},
		{
			"bufferView":6,
			"componentType":5126,
			"count":192,
			"type":"VEC2"
		},
		{
			"bufferView":7,
			"componentType":5123,
			"count":648,
			"type":"SCALAR"
		},
		{
			"bufferView":8,
			"componentType":5126,
			"count":96,
			"max":[
				1.7113547325134277,
				2.6793785095214844,
				1.686658501625061
			],
			"min":[
				-1.7113547325134277,
				2.1576242446899414,
				-1.4762529134750366
			],
			"type":"VEC3"
		},
		{
			"bufferView":9,
			"componentType":5126,
			"count":96,
			"type":"VEC3"
		},
		{
			"bufferView":10,
			"componentType":5126,
			"count":96,
			"type":"VEC2"
		},
		{
			"bufferView":11,
			"componentType":5126,
			"count":272,
			"max":[
				0.27851587533950806,
				1.3032225370407104,
				1.7479275465011597
			],
			"min":[
				-0.27851584553718567,
				0.9573649168014526,
				1.4020699262619019
			],
			"type":"VEC3"
		},
		{
			"bufferView":12,
			"componentType":5126,
			"count":272,
			"type":"VEC3"
		},
		{
			"bufferView":13,
			"componentType":5126,
			"count":272,
			"type":"VEC2"
		},
		{
			"bufferView":14,
			"componentType":5123,
			"count":744,
			"type":"SCALAR"
		},
		{
			"bufferView":15,
			"componentType":5126,
			"count":134,
			"max":[
				0.17749503254890442,
				2.4395859241485596,
				1.7479275465011597
			],
			"min":[
				-0.16836249828338623,
				2.2569878101348877,
				1.4020699262619019
			],
			"type":"VEC3"
		},
		{
			"bufferView":16,
			"componentType":5126,
			"count":134,
			"type":"VEC3"
		},
		{
			"bufferView":17,
			"componentType":5126,
			"count":134,
			"type":"VEC2"
		},
		{
			"bufferView":18,
			"componentType":5123,
			"count":372,
			"type":"SCALAR"
		}
	],
	"bufferViews":[
		{
			"buffer":0,
			"byteLength":1152,
			"byteOffset":0,
			"target":34962
		},
		{
			"buffer":0,
			"byteLength":1152,
			"byteOffset":1152,
			"target":34962
		},
		{
			"buffer":0,
			"byteLength":768,
			"byteOffset":2304,
			"target":34962
		},
		{
			"buffer":0,
			"byteLength":648,
			"byteOffset":3072,
			"target":34963
		},
		{
			"buffer":0,
			"byteLength":2304,
			"byteOffset":3720,
			"target":34962
		},
		{
			"buffer":0,
			"byteLength":2304,
			"byteOffset":6024,
			"target":34962
		},
		{
			"buffer":0,
			"byteLength":1536,
			"byteOffset":8328,
			"target":34962
		},
		{
			"buffer":0,
			"byteLength":1296,
			"byteOffset":9864,
			"target":34963
		},
		{
			"buffer":0,
			"byteLength":1152,
			"byteOffset":11160,
			"target":34962
		},
		{
			"buffer":0,
			"byteLength":1152,
			"byteOffset":12312,
			"target":34962
		},
		{
			"buffer":0,
			"byteLength":768,
			"byteOffset":13464,
			"target":34962
		},
		{
			"buffer":0,
			"byteLength":3264,
			"byteOffset":14232,
			"target":34962
		},
		{
			"buffer":0,
			"byteLength":3264,
			"byteOffset":17496,
			"target":34962
		},
		{
			"buffer":0,
			"byteLength":2176,
			"byteOffset":20760,
			"target":34962
		},
		{
			"buffer":0,
			"byteLength":1488,
			"byteOffset":22936,
			"target":34963
		},
		{
			"buffer":0,
			"byteLength":1608,
			"byteOffset":24424,
			"target":34962
		},
		{
			"buffer":0,
			"byteLength":1608,
			"byteOffset":26032,
			"target":34962
		},
		{
			"buffer":0,
			"byteLength":1072,
			"byteOffset":27640,
			"target":34962
		},
		{
			"buffer":0,
			"byteLength":744,
			"byteOffset":28712,
			"target":34963
		}
	],
	"samplers":[
		{
			"magFilter":9729,
			"minFilter":9987
		}
	],
	"buffers":[
		{
			"byteLength":29456,
			"uri":"szafka.bin"
		}
	]
}
