{
	"asset":{
		"generator":"Khronos glTF Blender I/O v4.5.48",
		"version":"2.0"
	},
	"scene":0,
	"scenes":[
		{
			"name":"Scene",
			"nodes":[
				0,
				1,
				2,
				3,
				4,
				5,
				6,
				7,
				8
			]
		}
	],
	"nodes":[
		{
			"mesh":0,
			"name":"Sphere.002"
		},
		{
			"mesh":1,
			"name":"Cylinder.002"
		},
		{
			"mesh":2,
			"name":"Sphere.001"
		},
		{
			"mesh":3,
			"name":"Sphere.005"
		},
		{
			"mesh":4,
			"name":"Sphere.007"
		},
		{
			"mesh":5,
			"name":"Sphere.003"
		},
		{
			"mesh":6,
			"name":"Sphere.004"
		},
		{
			"mesh":7,
			"name":"Sphere.006"
		},
		{
			"mesh":8,
			"name":"Sphere.008"
		}
	],
	"materials":[
		{
			"doubleSided":true,
			"name":"Material.005",
			"pbrMetallicRoughness":{
				"baseColorTexture":{
					"index":0
				},
				"metallicFactor":0,
				"roughnessFactor":0.5
			}
		},
		{
			"doubleSided":true,
			"name":"Material.006",
			"pbrMetallicRoughness":{
				"baseColorTexture":{
					"index":1
				},
				"metallicFactor":0,
				"roughnessFactor":0.5
			}
		},
		{
			"doubleSided":true,
			"name":"Material.001",
			"pbrMetallicRoughness":{
				"baseColorTexture":{
					"index":2
				},
				"metallicFactor":0,
				"roughnessFactor":0.5
			}
		},
		{
			"doubleSided":true,
			"name":"Material.002",
			"pbrMetallicRoughness":{
				"baseColorTexture":{
					"index":3
				},
				"metallicFactor":0,
				"roughnessFactor":0.5
			}
		},
		{
			"doubleSided":true,
			"name":"Material",
			"pbrMetallicRoughness":{
				"baseColorTexture":{
					"index":4
				},
				"metallicFactor":0,
				"roughnessFactor":0.5
			}
		},
		{
			"doubleSided":true,
			"name":"Material.003",
			"pbrMetallicRoughness":{
				"baseColorTexture":{
					"index":5
				},
				"metallicFactor":0,
				"roughnessFactor":0.5
			}
		},
		{
			"doubleSided":true,
			"name":"Material.004",
			"pbrMetallicRoughness":{
				"baseColorTexture":{
					"index":6
				},
				"metallicFactor":0,
				"roughnessFactor":0.5
			}
		}
	],
	"meshes":[
		{
			"name":"Sphere.002",
			"primitives":[
				{
					"attributes":{
						"POSITION":0,
						"NORMAL":1,
						"TEXCOORD_0":2
					},
					"indices":3,
					"material":0
				}
			]
		},
		{
			"name":"Cylinder.002",
			"primitives":[
				{
					"attributes":{
						"POSITION":4,
						"NORMAL":5,
						"TEXCOORD_0":6
					},
					"indices":7,
					"material":1
				}
			]
		},
		{
			"name":"Sphere.001",
			"primitives":[
				{
					"attributes":{
						"POSITION":8,
						"NORMAL":9,
						"TEXCOORD_0":10
					},
					"indices":11,
					"material":0
				}
			]
		},
		{
			"name":"Sphere.005",
			"primitives":[
				{
					"attributes":{
						"POSITION":12,
						"NORMAL":13,
						"TEXCOORD_0":14
					},
					"indices":11,
					"material":0
				}
			]
		},
		{
			"name":"Sphere.007",
			"primitives":[
				{
					"attributes":{
						"POSITION":15,
						"NORMAL":16,
						"TEXCOORD_0":17
					},
					"indices":18,
					"material":2
				}
			]
		},
		{
			"name":"Sphere.008",
			"primitives":[
				{
					"attributes":{
						"POSITION":19,
						"NORMAL":20,
						"TEXCOORD_0":21
					},
					"indices":22,
					"material":3
				}
			]
		},
		{
			"name":"Sphere.009",
			"primitives":[
				{
					"attributes":{
						"POSITION":23,
						"NORMAL":24,
						"TEXCOORD_0":25
					},
					"indices":22,
					"material":4
				}
			]
		},
		{
			"name":"Sphere.010",
			"primitives":[
				{
					"attributes":{
						"POSITION":26,
						"NORMAL":27,
						"TEXCOORD_0":28
					},
					"indices":22,
					"material":5
				}
			]
		},
		{
			"name":"Sphere.011",
			"primitives":[
				{
					"attributes":{
						"POSITION":29,
						"NORMAL":30,
						"TEXCOORD_0":31
					},
					"indices":22,
					"material":6
				}
			]
		}
	],
	"textures":[
		{
			"sampler":0,
			"source":0
		},
		{
			"sampler":0,
			"source":0
		},
		{
			"sampler":0,
			"source":0
		},
		{
			"sampler":0,
			"source":0
		},
		{
			"sampler":1,
			"source":0
		},
		{
			"sampler":0,
			"source":0
		},
		{
			"sampler":0,
			"source":0
		}
	],
	"images":[
		{
			"mimeType":"image/png",
			"name":"palette",
			"uri": "../../../textures/palette.png"
		}
	],
	"accessors":[
		{
			"bufferView":0,
			"componentType":5126,
			"count":3485,
			"max":[
				1.7752474546432495,
				2.708189010620117,
				0.1652282327413559
			],
			"min":[
				-1.77684485912323,
				0.01199025847017765,
				-1.774253487586975
			],
			"type":"VEC3"
		},
		{
			"bufferView":1,
			"componentType":5126,
			"count":3485,
			"type":"VEC3"
		},
		{
			"bufferView":2,
			"componentType":5126,
			"count":3485,
			"type":"VEC2"
		},
		{
			"bufferView":3,
			"componentType":5123,
			"count":19983,
			"type":"SCALAR"
		},
		{
			"bufferView":4,
			"componentType":5126,
			"count":144,
			"max":[
				0.24814528226852417,
				3.6410880088806152,
				0.10766547918319702
			],
			"min":[
				-0.30301788449287415,
				1.2963294982910156,
				-0.11578622460365295
			],
			"type":"VEC3"
		},
		{
			"bufferView":5,
			"componentType":5126,
			"count":144,
			"type":"VEC3"
		},
		{
			"bufferView":6,
			"componentType":5126,
			"count":144,
			"type":"VEC2"
		},
		{
			"bufferView":7,
			"componentType":5123,
			"count":456,
			"type":"SCALAR"
		},
		{
			"bufferView":8,
			"componentType":5126,
			"count":665,
			"max":[
				2.4276108741760254,
				1.8941253423690796,
				3.1491987705230713
			],
			"min":[
				-1.0577025413513184,
				0.011037856340408325,
				0.9547675848007202
			],
			"type":"VEC3"
		},
		{
			"bufferView":9,
			"componentType":5126,
			"count":665,
			"type":"VEC3"
		},
		{
			"bufferView":10,
			"componentType":5126,
			"count":665,
			"type":"VEC2"
		},
		{
			"bufferView":11,
			"componentType":5123,
			"count":2616,
			"type":"SCALAR"
		},
		{
			"bufferView":12,
			"componentType":5126,
			"count":665,
			"max":[
				0.9650692939758301,
				1.8820075988769531,
				2.7986226081848145
			],
			"min":[
				-2.5202441215515137,
				-0.0010805726051330566,
				0.604191780090332
			],
			"type":"VEC3"
		},
		{
			"bufferView":13,
			"componentType":5126,
			"count":665,
			"type":"VEC3"
		},
		{
			"bufferView":14,
			"componentType":5126,
			"count":665,
			"type":"VEC2"
		},
		{
			"bufferView":15,
			"componentType":5126,
			"count":2238,
			"max":[
				1.6917692422866821,
				1.6610755920410156,
				4.603309631347656
			],
			"min":[
				-1.694228172302246,
				0.009752035140991211,
				1.8295551538467407
			],
			"type":"VEC3"
		},
		{
			"bufferView":16,
			"componentType":5126,
			"count":2238,
			"type":"VEC3"
		},
		{
			"bufferView":17,
			"componentType":5126,
			"count":2238,
			"type":"VEC2"
		},
		{
			"bufferView":18,
			"componentType":5123,
			"count":12756,
			"type":"SCALAR"
		},
		{
			"bufferView":19,
			"componentType":5126,
			"count":240,
			"max":[
				-0.4871990978717804,
				1.1658211946487427,
				1.8116284608840942
			],
			"min":[
				-1.0943405628204346,
				0.8907848596572876,
				1.4784890413284302
			],
			"type":"VEC3"
		},
		{
			"bufferView":20,
			"componentType":5126,
			"count":240,
			"type":"VEC3"
		},
		{
			"bufferView":21,
			"componentType":5126,
			"count":240,
			"type":"VEC2"
		},
		{
			"bufferView":22,
			"componentType":5123,
			"count":636,
			"type":"SCALAR"
		},
		{
			"bufferView":23,
			"componentType":5126,
			"count":240,
			"max":[
				0.3029039204120636,
				1.486000418663025,
				0.16993436217308044
			],
			"min":[
				-0.3042375147342682,
				1.0637880563735962,
				0.1545775681734085
			],
			"type":"VEC3"
		},
		{
			"bufferView":24,
			"componentType":5126,
			"count":240,
			"type":"VEC3"
		},
		{
			"bufferView":25,
			"componentType":5126,
			"count":240,
			"type":"VEC2"
		},
		{
			"bufferView":26,
			"componentType":5126,
			"count":240,
			"max":[
				1.0663402080535889,
				1.0822734832763672,
				2.047980308532715
			],
			"min":[
				0.4591987431049347,
				0.8072371482849121,
				1.7148410081863403
			],
			"type":"VEC3"
		},
		{
			"bufferView":27,
			"componentType":5126,
			"count":240,
			"type":"VEC3"
		},
		{
			"bufferView":28,
			"componentType":5126,
			"count":240,
			"type":"VEC2"
		},
		{
			"bufferView":29,
			"componentType":5126,
			"count":240,
			"max":[
				0.2634451985359192,
				1.288423776626587,
				3.3683433532714844
			],
			"min":[
				-0.3436962366104126,
				1.1141531467437744,
				2.975717067718506
			],
			"type":"VEC3"
		},
		{
			"bufferView":30,
			"componentType":5126,
			"count":240,
			"type":"VEC3"
		},
		{
			"bufferView":31,
			"componentType":5126,
			"count":240,
			"type":"VEC2"
		}
	],
	"bufferViews":[
		{
			"buffer":0,
			"byteLength":41820,
			"byteOffset":0,
			"target":34962
		},
		{
			"buffer":0,
			"byteLength":41820,
			"byteOffset":41820,
			"target":34962
		},
		{
			"buffer":0,
			"byteLength":27880,
			"byteOffset":83640,
			"target":34962
		},
		{
			"buffer":0,
			"byteLength":39966,
			"byteOffset":111520,
			"target":34963
		},
		{
			"buffer":0,
			"byteLength":1728,
			"byteOffset":151488,
			"target":34962
		},
		{
			"buffer":0,
			"byteLength":1728,
			"byteOffset":153216,
			"target":34962
		},
		{
			"buffer":0,
			"byteLength":1152,
			"byteOffset":154944,
			"target":34962
		},
		{
			"buffer":0,
			"byteLength":912,
			"byteOffset":156096,
			"target":34963
		},
		{
			"buffer":0,
			"byteLength":7980,
			"byteOffset":157008,
			"target":34962
		},
		{
			"buffer":0,
			"byteLength":7980,
			"byteOffset":164988,
			"target":34962
		},
		{
			"buffer":0,
			"byteLength":5320,
			"byteOffset":172968,
			"target":34962
		},
		{
			"buffer":0,
			"byteLength":5232,
			"byteOffset":178288,
			"target":34963
		},
		{
			"buffer":0,
			"byteLength":7980,
			"byteOffset":183520,
			"target":34962
		},
		{
			"buffer":0,
			"byteLength":7980,
			"byteOffset":191500,
			"target":34962
		},
		{
			"buffer":0,
			"byteLength":5320,
			"byteOffset":199480,
			"target":34962
		},
		{
			"buffer":0,
			"byteLength":26856,
			"byteOffset":204800,
			"target":34962
		},
		{
			"buffer":0,
			"byteLength":26856,
			"byteOffset":231656,
			"target":34962
		},
		{
			"buffer":0,
			"byteLength":17904,
			"byteOffset":258512,
			"target":34962
		},
		{
			"buffer":0,
			"byteLength":25512,
			"byteOffset":276416,
			"target":34963
		},
		{
			"buffer":0,
			"byteLength":2880,
			"byteOffset":301928,
			"target":34962
		},
		{
			"buffer":0,
			"byteLength":2880,
			"byteOffset":304808,
			"target":34962
		},
		{
			"buffer":0,
			"byteLength":1920,
			"byteOffset":307688,
			"target":34962
		},
		{
			"buffer":0,
			"byteLength":1272,
			"byteOffset":309608,
			"target":34963
		},
		{
			"buffer":0,
			"byteLength":2880,
			"byteOffset":310880,
			"target":34962
		},
		{
			"buffer":0,
			"byteLength":2880,
			"byteOffset":313760,
			"target":34962
		},
		{
			"buffer":0,
			"byteLength":1920,
			"byteOffset":316640,
			"target":34962
		},
		{
			"buffer":0,
			"byteLength":2880,
			"byteOffset":318560,
			"target":34962
		},
		{
			"buffer":0,
			"byteLength":2880,
			"byteOffset":321440,
			"target":34962
		},
		{
			"buffer":0,
			"byteLength":1920,
			"byteOffset":324320,
			"target":34962
		},
		{
			"buffer":0,
			"byteLength":2880,
			"byteOffset":326240,
			"target":34962
		},
		{
			"buffer":0,
			"byteLength":2880,
			"byteOffset":329120,
			"target":34962
		},
		{
			"buffer":0,
			"byteLength":1920,
			"byteOffset":332000,
			"target":34962
		}
	],
	"samplers":[
		{
			"magFilter":9728,
			"minFilter":9984
		},
		{
			"magFilter":9729,
			"minFilter":9987
		}
	],
	"buffers":[
		{
			"byteLength":333920,
			"uri":"apple-cut.bin"
		}
	]
}
