{
	"asset":{
		"generator":"Khronos glTF Blender I/O v4.5.48",
		"version":"2.0"
	},
	"scene":0,
	"scenes":[
		{
			"name":"Scene",
			"nodes":[
				0,
				1
			]
		}
	],
	"nodes":[
		{
			"mesh":0,
			"name":"Sphere.002"
		},
		{
			"mesh":1,
			"name":"Cylinder.002"
		}
	],
	"materials":[
		{
			"doubleSided":true,
			"name":"Material.005",
			"pbrMetallicRoughness":{
				"baseColorTexture":{
					"index":0
				},
				"metallicFactor":0,
				"roughnessFactor":0.5
			}
		},
		{
			"doubleSided":true,
			"name":"Material.006",
			"pbrMetallicRoughness":{
				"baseColorTexture":{
					"index":1
				},
				"metallicFactor":0,
				"roughnessFactor":0.5
			}
		}
	],
	"meshes":[
		{
			"name":"Sphere.002",
			"primitives":[
				{
					"attributes":{
						"POSITION":0,
						"NORMAL":1,
						"TEXCOORD_0":2
					},
					"indices":3,
					"material":0
				}
			]
		},
		{
			"name":"Cylinder.002",
			"primitives":[
				{
					"attributes":{
						"POSITION":4,
						"NORMAL":5,
						"TEXCOORD_0":6
					},
					"indices":7,
					"material":1
				}
			]
		}
	],
	"textures":[
		{
			"sampler":0,
			"source":0
		},
		{
			"sampler":0,
			"source":0
		}
	],
	"images":[
		{
			"mimeType": "image/png",
			"name": "palette",
			"uri": "../../../textures/palette.png"
		}
	],
	"accessors":[
		{
			"bufferView":0,
			"componentType":5126,
			"count":567,
			"max":[
				1.7803117036819458,
				1.274545669555664,
				1.7797120809555054
			],
			"min":[
				-1.7775949239730835,
				-1.424192190170288,
				-1.7805157899856567
			],
			"type":"VEC3"
		},
		{
			"bufferView":1,
			"componentType":5126,
			"count":567,
			"type":"VEC3"
		},
		{
			"bufferView":2,
			"componentType":5126,
			"count":567,
			"type":"VEC2"
		},
		{
			"bufferView":3,
			"componentType":5123,
			"count":2784,
			"type":"SCALAR"
		},
		{
			"bufferView":4,
			"componentType":5126,
			"count":376,
			"max":[
				0.2489880919456482,
				2.194735527038574,
				0.10657510161399841
			],
			"min":[
				-0.3020170331001282,
				-0.1395167112350464,
				-0.11509208381175995
			],
			"type":"VEC3"
		},
		{
			"bufferView":5,
			"componentType":5126,
			"count":376,
			"type":"VEC3"
		},
		{
			"bufferView":6,
			"componentType":5126,
			"count":376,
			"type":"VEC2"
		},
		{
			"bufferView":7,
			"componentType":5123,
			"count":1350,
			"type":"SCALAR"
		}
	],
	"bufferViews":[
		{
			"buffer":0,
			"byteLength":6804,
			"byteOffset":0,
			"target":34962
		},
		{
			"buffer":0,
			"byteLength":6804,
			"byteOffset":6804,
			"target":34962
		},
		{
			"buffer":0,
			"byteLength":4536,
			"byteOffset":13608,
			"target":34962
		},
		{
			"buffer":0,
			"byteLength":5568,
			"byteOffset":18144,
			"target":34963
		},
		{
			"buffer":0,
			"byteLength":4512,
			"byteOffset":23712,
			"target":34962
		},
		{
			"buffer":0,
			"byteLength":4512,
			"byteOffset":28224,
			"target":34962
		},
		{
			"buffer":0,
			"byteLength":3008,
			"byteOffset":32736,
			"target":34962
		},
		{
			"buffer":0,
			"byteLength":2700,
			"byteOffset":35744,
			"target":34963
		}
	],
	"samplers":[
		{
			"magFilter":9728,
			"minFilter":9984
		}
	],
	"buffers":[
		{
			"byteLength":38444,
			"uri":"apple1.bin"
		}
	]
}
