{
	"asset":{
		"generator":"Khronos glTF Blender I/O v4.5.48",
		"version":"2.0"
	},
	"scene":0,
	"scenes":[
		{
			"name":"Scene",
			"nodes":[
				0,
				1
			]
		}
	],
	"nodes":[
		{
			"mesh":0,
			"name":"Sphere.002"
		},
		{
			"mesh":1,
			"name":"Cylinder.002",
			"rotation":[
				0,
				1,
				0,
				0
			],
			"scale":[
				-0.11008528620004654,
				-1.192110538482666,
				-0.11008528620004654
			],
			"translation":[
				-0.2932761311531067,
				1.4721802473068237,
				-0.2955157160758972
			]
		}
	],
	"materials":[
		{
			"doubleSided":true,
			"name":"Material.005",
			"pbrMetallicRoughness":{
				"baseColorTexture":{
					"index":0
				},
				"metallicFactor":0,
				"roughnessFactor":0.5
			}
		},
		{
			"doubleSided":true,
			"name":"Material.006",
			"pbrMetallicRoughness":{
				"baseColorTexture":{
					"index":1
				},
				"metallicFactor":0,
				"roughnessFactor":0.5
			}
		}
	],
	"meshes":[
		{
			"name":"Sphere.002",
			"primitives":[
				{
					"attributes":{
						"POSITION":0,
						"NORMAL":1,
						"TEXCOORD_0":2
					},
					"indices":3,
					"material":0
				}
			]
		},
		{
			"name":"Cylinder.002",
			"primitives":[
				{
					"attributes":{
						"POSITION":4,
						"NORMAL":5,
						"TEXCOORD_0":6
					},
					"indices":7,
					"material":1
				}
			]
		}
	],
	"textures":[
		{
			"sampler":0,
			"source":0
		},
		{
			"sampler":0,
			"source":0
		}
	],
	"images":[
		{
			"mimeType": "image/png",
			"name": "palette",
			"uri": "../../../textures/palette.png"
		}
	],
	"accessors":[
		{
			"bufferView":0,
			"componentType":5126,
			"count":902,
			"max":[
				1.7803117036819458,
				1.2738834619522095,
				1.7797120809555054
			],
			"min":[
				-1.7798353433609009,
				-1.4250500202178955,
				-1.7800099849700928
			],
			"type":"VEC3"
		},
		{
			"bufferView":1,
			"componentType":5126,
			"count":902,
			"type":"VEC3"
		},
		{
			"bufferView":2,
			"componentType":5126,
			"count":902,
			"type":"VEC2"
		},
		{
			"bufferView":3,
			"componentType":5123,
			"count":4608,
			"type":"SCALAR"
		},
		{
			"bufferView":4,
			"componentType":5126,
			"count":1085,
			"max":[
				4.924781799316406,
				1.3479422330856323,
				3.6583797931671143
			],
			"min":[
				-0.07605400681495667,
				-0.6139140725135803,
				1.634065866470337
			],
			"type":"VEC3"
		},
		{
			"bufferView":5,
			"componentType":5126,
			"count":1085,
			"type":"VEC3"
		},
		{
			"bufferView":6,
			"componentType":5126,
			"count":1085,
			"type":"VEC2"
		},
		{
			"bufferView":7,
			"componentType":5123,
			"count":4608,
			"type":"SCALAR"
		}
	],
	"bufferViews":[
		{
			"buffer":0,
			"byteLength":10824,
			"byteOffset":0,
			"target":34962
		},
		{
			"buffer":0,
			"byteLength":10824,
			"byteOffset":10824,
			"target":34962
		},
		{
			"buffer":0,
			"byteLength":7216,
			"byteOffset":21648,
			"target":34962
		},
		{
			"buffer":0,
			"byteLength":9216,
			"byteOffset":28864,
			"target":34963
		},
		{
			"buffer":0,
			"byteLength":13020,
			"byteOffset":38080,
			"target":34962
		},
		{
			"buffer":0,
			"byteLength":13020,
			"byteOffset":51100,
			"target":34962
		},
		{
			"buffer":0,
			"byteLength":8680,
			"byteOffset":64120,
			"target":34962
		},
		{
			"buffer":0,
			"byteLength":9216,
			"byteOffset":72800,
			"target":34963
		}
	],
	"samplers":[
		{
			"magFilter":9728,
			"minFilter":9984
		}
	],
	"buffers":[
		{
			"byteLength":82016,
			"uri":"apple1.bin"
		}
	]
}
