{
	"asset":{
		"generator":"Khronos glTF Blender I/O v4.4.56",
		"version":"2.0"
	},
	"scene":0,
	"scenes":[
		{
			"name":"Scene",
			"nodes":[
				0,
				1
			]
		}
	],
	"nodes":[
		{
			"mesh":0,
			"name":"Plane.002"
		},
		{
			"mesh":1,
			"name":"Circle.003"
		}
	],
	"materials":[
		{
			"doubleSided":true,
			"name":"Material.012",
			"pbrMetallicRoughness":{
				"baseColorTexture":{
					"index":0
				},
				"metallicFactor":0.20000000298023224,
				"roughnessFactor":0.20000000298023224
			}
		}
	],
	"meshes":[
		{
			"name":"Plane.003",
			"primitives":[
				{
					"attributes":{
						"POSITION":0,
						"NORMAL":1,
						"TEXCOORD_0":2
					},
					"indices":3,
					"material":0
				}
			]
		},
		{
			"name":"Circle.003",
			"primitives":[
				{
					"attributes":{
						"POSITION":4,
						"NORMAL":5,
						"TEXCOORD_0":6
					},
					"indices":7,
					"material":0
				}
			]
		}
	],
	"textures":[
		{
			"sampler":0,
			"source":0
		}
	],
	"images":[
		{
			"mimeType": "image/png",
			"name": "palette",
			"uri": "../../../textures/palette.png"
		}
	],
	"accessors":[
		{
			"bufferView":0,
			"componentType":5126,
			"count":732,
			"max":[
				0.3220148980617523,
				0.8509819507598877,
				0.9285176992416382
			],
			"min":[
				-0.3220148980617523,
				0.6633118391036987,
				-0.9285176396369934
			],
			"type":"VEC3"
		},
		{
			"bufferView":1,
			"componentType":5126,
			"count":732,
			"type":"VEC3"
		},
		{
			"bufferView":2,
			"componentType":5126,
			"count":732,
			"type":"VEC2"
		},
		{
			"bufferView":3,
			"componentType":5123,
			"count":2592,
			"type":"SCALAR"
		},
		{
			"bufferView":4,
			"componentType":5126,
			"count":1340,
			"max":[
				0.7169433832168579,
				0.9550225138664246,
				0.7169433832168579
			],
			"min":[
				-0.7169433832168579,
				0,
				-0.7169433236122131
			],
			"type":"VEC3"
		},
		{
			"bufferView":5,
			"componentType":5126,
			"count":1340,
			"type":"VEC3"
		},
		{
			"bufferView":6,
			"componentType":5126,
			"count":1340,
			"type":"VEC2"
		},
		{
			"bufferView":7,
			"componentType":5123,
			"count":7296,
			"type":"SCALAR"
		}
	],
	"bufferViews":[
		{
			"buffer":0,
			"byteLength":8784,
			"byteOffset":0,
			"target":34962
		},
		{
			"buffer":0,
			"byteLength":8784,
			"byteOffset":8784,
			"target":34962
		},
		{
			"buffer":0,
			"byteLength":5856,
			"byteOffset":17568,
			"target":34962
		},
		{
			"buffer":0,
			"byteLength":5184,
			"byteOffset":23424,
			"target":34963
		},
		{
			"buffer":0,
			"byteLength":16080,
			"byteOffset":28608,
			"target":34962
		},
		{
			"buffer":0,
			"byteLength":16080,
			"byteOffset":44688,
			"target":34962
		},
		{
			"buffer":0,
			"byteLength":10720,
			"byteOffset":60768,
			"target":34962
		},
		{
			"buffer":0,
			"byteLength":14592,
			"byteOffset":71488,
			"target":34963
		}
	],
	"samplers":[
		{
			"magFilter":9728,
			"minFilter":9984
		}
	],
	"buffers":[
		{
			"byteLength":86080,
			"uri":"small_pot.bin"
		}
	]
}
