{
	"asset":{
		"generator":"Khronos glTF Blender I/O v5.1.19",
		"version":"2.0"
	},
	"scene":0,
	"scenes":[
		{
			"name":"Scene",
			"nodes":[
				0,
				1,
				2,
				3,
				4,
				5,
				6
			]
		}
	],
	"nodes":[
		{
			"mesh":0,
			"name":"Plane"
		},
		{
			"mesh":1,
			"name":"Cube"
		},
		{
			"mesh":2,
			"name":"Circle"
		},
		{
			"mesh":3,
			"name":"Plane.001"
		},
		{
			"mesh":4,
			"name":"Plane.002"
		},
		{
			"mesh":5,
			"name":"Plane.003"
		},
		{
			"mesh":6,
			"name":"Circle.001",
			"scale":[
				0.2959204912185669,
				1,
				1
			],
			"translation":[
				0.28643572330474854,
				0,
				0
			]
		}
	],
	"materials":[
		{
			"doubleSided":true,
			"name":"Material",
			"pbrMetallicRoughness":{
				"baseColorTexture":{
					"index":0
				},
				"metallicFactor":0,
				"roughnessFactor":0.5
			}
		},
		{
			"doubleSided":true,
			"name":"Material.001",
			"pbrMetallicRoughness":{
				"baseColorTexture":{
					"index":1
				},
				"metallicFactor":0,
				"roughnessFactor":0.5
			}
		}
	],
	"meshes":[
		{
			"name":"Plane",
			"primitives":[
				{
					"attributes":{
						"POSITION":0,
						"NORMAL":1,
						"TEXCOORD_0":2,
						"TEXCOORD_1":3
					},
					"indices":4,
					"material":0
				}
			]
		},
		{
			"name":"Cube.001",
			"primitives":[
				{
					"attributes":{
						"POSITION":5,
						"NORMAL":6,
						"TEXCOORD_0":7,
						"TEXCOORD_1":8
					},
					"indices":9,
					"material":1
				}
			]
		},
		{
			"name":"Circle",
			"primitives":[
				{
					"attributes":{
						"POSITION":10,
						"NORMAL":11,
						"TEXCOORD_0":12,
						"TEXCOORD_1":13
					},
					"indices":14,
					"material":1
				}
			]
		},
		{
			"name":"Plane.001",
			"primitives":[
				{
					"attributes":{
						"POSITION":15,
						"NORMAL":16,
						"TEXCOORD_0":17,
						"TEXCOORD_1":18
					},
					"indices":19,
					"material":1
				}
			]
		},
		{
			"name":"Plane.002",
			"primitives":[
				{
					"attributes":{
						"POSITION":20,
						"NORMAL":21,
						"TEXCOORD_0":22,
						"TEXCOORD_1":23
					},
					"indices":24,
					"material":1
				}
			]
		},
		{
			"name":"Plane.003",
			"primitives":[
				{
					"attributes":{
						"POSITION":25,
						"NORMAL":26,
						"TEXCOORD_0":27,
						"TEXCOORD_1":28
					},
					"indices":29,
					"material":1
				}
			]
		},
		{
			"name":"Circle.001",
			"primitives":[
				{
					"attributes":{
						"POSITION":30,
						"NORMAL":31,
						"TEXCOORD_0":32,
						"TEXCOORD_1":33
					},
					"indices":34,
					"material":1
				}
			]
		}
	],
	"textures":[
		{
			"sampler":0,
			"source":0
		},
		{
			"sampler":0,
			"source":1
		}
	],
	"images":[
		{
			"mimeType":"image/png",
			"name":"chleb",
			"uri":"chleb.png"
		},
		{
			"mimeType": "image/png",
			"name": "palette.png",
			"uri": "../../../textures/palette.png"
		}
	],
	"accessors":[
		{
			"bufferView":0,
			"componentType":5126,
			"count":4714,
			"max":[
				0.3959112763404846,
				0.5204160213470459,
				0.7992311120033264
			],
			"min":[
				-0.35564878582954407,
				-0.2477044016122818,
				-0.7992311716079712
			],
			"type":"VEC3"
		},
		{
			"bufferView":1,
			"componentType":5126,
			"count":4714,
			"type":"VEC3"
		},
		{
			"bufferView":2,
			"componentType":5126,
			"count":4714,
			"type":"VEC2"
		},
		{
			"bufferView":3,
			"componentType":5126,
			"count":4714,
			"type":"VEC2"
		},
		{
			"bufferView":4,
			"componentType":5123,
			"count":20928,
			"type":"SCALAR"
		},
		{
			"bufferView":5,
			"componentType":5126,
			"count":862,
			"max":[
				0.3629331886768341,
				0.3403712511062622,
				0.21163219213485718
			],
			"min":[
				0.32124045491218567,
				0.2667822539806366,
				-0.21163225173950195
			],
			"type":"VEC3"
		},
		{
			"bufferView":6,
			"componentType":5126,
			"count":862,
			"type":"VEC3"
		},
		{
			"bufferView":7,
			"componentType":5126,
			"count":862,
			"type":"VEC2"
		},
		{
			"bufferView":8,
			"componentType":5126,
			"count":862,
			"type":"VEC2"
		},
		{
			"bufferView":9,
			"componentType":5123,
			"count":1482,
			"type":"SCALAR"
		},
		{
			"bufferView":10,
			"componentType":5126,
			"count":32,
			"max":[
				0.39745786786079407,
				0.20108991861343384,
				0.06590958684682846
			],
			"min":[
				0.39745786786079407,
				0.05838817358016968,
				-0.06590958684682846
			],
			"type":"VEC3"
		},
		{
			"bufferView":11,
			"componentType":5126,
			"count":32,
			"type":"VEC3"
		},
		{
			"bufferView":12,
			"componentType":5126,
			"count":32,
			"type":"VEC2"
		},
		{
			"bufferView":13,
			"componentType":5126,
			"count":32,
			"type":"VEC2"
		},
		{
			"bufferView":14,
			"componentType":5123,
			"count":90,
			"type":"SCALAR"
		},
		{
			"bufferView":15,
			"componentType":5126,
			"count":565,
			"max":[
				0.20816463232040405,
				0.4927997589111328,
				-0.22804459929466248
			],
			"min":[
				0.20368175208568573,
				0.39318060874938965,
				-0.3069097697734833
			],
			"type":"VEC3"
		},
		{
			"bufferView":16,
			"componentType":5126,
			"count":565,
			"type":"VEC3"
		},
		{
			"bufferView":17,
			"componentType":5126,
			"count":565,
			"type":"VEC2"
		},
		{
			"bufferView":18,
			"componentType":5126,
			"count":565,
			"type":"VEC2"
		},
		{
			"bufferView":19,
			"componentType":5123,
			"count":1206,
			"type":"SCALAR"
		},
		{
			"bufferView":20,
			"componentType":5126,
			"count":607,
			"max":[
				0.20816463232040405,
				0.6024233102798462,
				-0.30777081847190857
			],
			"min":[
				0.20368175208568573,
				0.5028041005134583,
				-0.38663598895072937
			],
			"type":"VEC3"
		},
		{
			"bufferView":21,
			"componentType":5126,
			"count":607,
			"type":"VEC3"
		},
		{
			"bufferView":22,
			"componentType":5126,
			"count":607,
			"type":"VEC2"
		},
		{
			"bufferView":23,
			"componentType":5126,
			"count":607,
			"type":"VEC2"
		},
		{
			"bufferView":24,
			"componentType":5123,
			"count":1428,
			"type":"SCALAR"
		},
		{
			"bufferView":25,
			"componentType":5126,
			"count":630,
			"max":[
				0.20816463232040405,
				0.7076175808906555,
				-0.3963554799556732
			],
			"min":[
				0.20368175208568573,
				0.6079984307289124,
				-0.475220650434494
			],
			"type":"VEC3"
		},
		{
			"bufferView":26,
			"componentType":5126,
			"count":630,
			"type":"VEC3"
		},
		{
			"bufferView":27,
			"componentType":5126,
			"count":630,
			"type":"VEC2"
		},
		{
			"bufferView":28,
			"componentType":5126,
			"count":630,
			"type":"VEC2"
		},
		{
			"bufferView":29,
			"componentType":5123,
			"count":1536,
			"type":"SCALAR"
		},
		{
			"bufferView":30,
			"componentType":5126,
			"count":546,
			"max":[
				0.4072979688644409,
				0.10848334431648254,
				0.08608042448759079
			],
			"min":[
				0.3372979760169983,
				0.010822847485542297,
				0.016899293288588524
			],
			"type":"VEC3"
		},
		{
			"bufferView":31,
			"componentType":5126,
			"count":546,
			"type":"VEC3"
		},
		{
			"bufferView":32,
			"componentType":5126,
			"count":546,
			"type":"VEC2"
		},
		{
			"bufferView":33,
			"componentType":5126,
			"count":546,
			"type":"VEC2"
		},
		{
			"bufferView":34,
			"componentType":5123,
			"count":1728,
			"type":"SCALAR"
		}
	],
	"bufferViews":[
		{
			"buffer":0,
			"byteLength":56568,
			"byteOffset":0,
			"target":34962
		},
		{
			"buffer":0,
			"byteLength":56568,
			"byteOffset":56568,
			"target":34962
		},
		{
			"buffer":0,
			"byteLength":37712,
			"byteOffset":113136,
			"target":34962
		},
		{
			"buffer":0,
			"byteLength":37712,
			"byteOffset":150848,
			"target":34962
		},
		{
			"buffer":0,
			"byteLength":41856,
			"byteOffset":188560,
			"target":34963
		},
		{
			"buffer":0,
			"byteLength":10344,
			"byteOffset":230416,
			"target":34962
		},
		{
			"buffer":0,
			"byteLength":10344,
			"byteOffset":240760,
			"target":34962
		},
		{
			"buffer":0,
			"byteLength":6896,
			"byteOffset":251104,
			"target":34962
		},
		{
			"buffer":0,
			"byteLength":6896,
			"byteOffset":258000,
			"target":34962
		},
		{
			"buffer":0,
			"byteLength":2964,
			"byteOffset":264896,
			"target":34963
		},
		{
			"buffer":0,
			"byteLength":384,
			"byteOffset":267860,
			"target":34962
		},
		{
			"buffer":0,
			"byteLength":384,
			"byteOffset":268244,
			"target":34962
		},
		{
			"buffer":0,
			"byteLength":256,
			"byteOffset":268628,
			"target":34962
		},
		{
			"buffer":0,
			"byteLength":256,
			"byteOffset":268884,
			"target":34962
		},
		{
			"buffer":0,
			"byteLength":180,
			"byteOffset":269140,
			"target":34963
		},
		{
			"buffer":0,
			"byteLength":6780,
			"byteOffset":269320,
			"target":34962
		},
		{
			"buffer":0,
			"byteLength":6780,
			"byteOffset":276100,
			"target":34962
		},
		{
			"buffer":0,
			"byteLength":4520,
			"byteOffset":282880,
			"target":34962
		},
		{
			"buffer":0,
			"byteLength":4520,
			"byteOffset":287400,
			"target":34962
		},
		{
			"buffer":0,
			"byteLength":2412,
			"byteOffset":291920,
			"target":34963
		},
		{
			"buffer":0,
			"byteLength":7284,
			"byteOffset":294332,
			"target":34962
		},
		{
			"buffer":0,
			"byteLength":7284,
			"byteOffset":301616,
			"target":34962
		},
		{
			"buffer":0,
			"byteLength":4856,
			"byteOffset":308900,
			"target":34962
		},
		{
			"buffer":0,
			"byteLength":4856,
			"byteOffset":313756,
			"target":34962
		},
		{
			"buffer":0,
			"byteLength":2856,
			"byteOffset":318612,
			"target":34963
		},
		{
			"buffer":0,
			"byteLength":7560,
			"byteOffset":321468,
			"target":34962
		},
		{
			"buffer":0,
			"byteLength":7560,
			"byteOffset":329028,
			"target":34962
		},
		{
			"buffer":0,
			"byteLength":5040,
			"byteOffset":336588,
			"target":34962
		},
		{
			"buffer":0,
			"byteLength":5040,
			"byteOffset":341628,
			"target":34962
		},
		{
			"buffer":0,
			"byteLength":3072,
			"byteOffset":346668,
			"target":34963
		},
		{
			"buffer":0,
			"byteLength":6552,
			"byteOffset":349740,
			"target":34962
		},
		{
			"buffer":0,
			"byteLength":6552,
			"byteOffset":356292,
			"target":34962
		},
		{
			"buffer":0,
			"byteLength":4368,
			"byteOffset":362844,
			"target":34962
		},
		{
			"buffer":0,
			"byteLength":4368,
			"byteOffset":367212,
			"target":34962
		},
		{
			"buffer":0,
			"byteLength":3456,
			"byteOffset":371580,
			"target":34963
		}
	],
	"samplers":[
		{
			"magFilter":9729,
			"minFilter":9987
		}
	],
	"buffers":[
		{
			"byteLength":375036,
			"uri":"chleb2.bin"
		}
	]
}
