{
	"asset":{
		"generator":"Khronos glTF Blender I/O v4.5.48",
		"version":"2.0"
	},
	"extensionsUsed":[
		"KHR_materials_emissive_strength"
	],
	"scene":0,
	"scenes":[
		{
			"name":"Scene",
			"nodes":[
				0,
				1,
				2
			]
		}
	],
	"nodes":[
		{
			"mesh":0,
			"name":"Circle.001"
		},
		{
			"mesh":1,
			"name":"Cylinder"
		},
		{
			"mesh":2,
			"name":"Cylinder.001"
		}
	],
	"materials":[
		{
			"doubleSided":true,
			"name":"Material",
			"pbrMetallicRoughness":{
				"baseColorTexture":{
					"index":0
				},
				"metallicFactor":0,
				"roughnessFactor":0.5
			}
		},
		{
			"doubleSided":true,
			"emissiveFactor":[
				1,
				1,
				1
			],
			"emissiveTexture":{
				"index":1,
				"texCoord":1
			},
			"extensions":{
				"KHR_materials_emissive_strength":{
					"emissiveStrength":8
				}
			},
			"name":"Material.001",
			"pbrMetallicRoughness":{
				"baseColorTexture":{
					"index":2
				},
				"metallicFactor":0,
				"roughnessFactor":0.5
			}
		},
		{
			"doubleSided":true,
			"name":"Material.002",
			"pbrMetallicRoughness":{
				"baseColorTexture":{
					"index":3
				},
				"metallicFactor":0,
				"roughnessFactor":0.5
			}
		}
	],
	"meshes":[
		{
			"name":"Circle.003",
			"primitives":[
				{
					"attributes":{
						"POSITION":0,
						"NORMAL":1,
						"TEXCOORD_0":2
					},
					"indices":3,
					"material":0
				}
			]
		},
		{
			"name":"Cylinder",
			"primitives":[
				{
					"attributes":{
						"POSITION":4,
						"NORMAL":5,
						"TEXCOORD_0":6,
						"TEXCOORD_1":7
					},
					"indices":8,
					"material":1
				}
			]
		},
		{
			"name":"Cylinder.001",
			"primitives":[
				{
					"attributes":{
						"POSITION":9,
						"NORMAL":10,
						"TEXCOORD_0":11
					},
					"indices":12,
					"material":2
				}
			]
		}
	],
	"textures":[
		{
			"sampler":0,
			"source":0
		},
		{
			"sampler":1,
			"source":1
		},
		{
			"sampler":2,
			"source":0
		},
		{
			"sampler":0,
			"source":0
		}
	],
	"images":[
		{
			"mimeType": "image/png",
			"name": "palette",
			"uri": "../../../textures/palette.png"
		},
		{
			"mimeType":"image/png",
			"name":"honey",
			"uri":"honey.png"
		}
	],
	"accessors":[
		{
			"bufferView":0,
			"componentType":5126,
			"count":2152,
			"max":[
				0.956174373626709,
				1.544268250465393,
				0.850922703742981
			],
			"min":[
				-0.8429537415504456,
				1.1768540143966675,
				-0.8494870662689209
			],
			"type":"VEC3"
		},
		{
			"bufferView":1,
			"componentType":5126,
			"count":2152,
			"type":"VEC3"
		},
		{
			"bufferView":2,
			"componentType":5126,
			"count":2152,
			"type":"VEC2"
		},
		{
			"bufferView":3,
			"componentType":5123,
			"count":6690,
			"type":"SCALAR"
		},
		{
			"bufferView":4,
			"componentType":5126,
			"count":1144,
			"max":[
				1.0678682327270508,
				1.5650204420089722,
				1.06581449508667
			],
			"min":[
				-1.0696535110473633,
				-0.5670584440231323,
				-1.0683577060699463
			],
			"type":"VEC3"
		},
		{
			"bufferView":5,
			"componentType":5126,
			"count":1144,
			"type":"VEC3"
		},
		{
			"bufferView":6,
			"componentType":5126,
			"count":1144,
			"type":"VEC2"
		},
		{
			"bufferView":7,
			"componentType":5126,
			"count":1144,
			"type":"VEC2"
		},
		{
			"bufferView":8,
			"componentType":5123,
			"count":3930,
			"type":"SCALAR"
		},
		{
			"bufferView":9,
			"componentType":5126,
			"count":1242,
			"max":[
				1.0837829113006592,
				1.6142451763153076,
				1.1009291410446167
			],
			"min":[
				-1.0834856033325195,
				1.072355031967163,
				-1.1007658243179321
			],
			"type":"VEC3"
		},
		{
			"bufferView":10,
			"componentType":5126,
			"count":1242,
			"type":"VEC3"
		},
		{
			"bufferView":11,
			"componentType":5126,
			"count":1242,
			"type":"VEC2"
		},
		{
			"bufferView":12,
			"componentType":5123,
			"count":3951,
			"type":"SCALAR"
		}
	],
	"bufferViews":[
		{
			"buffer":0,
			"byteLength":25824,
			"byteOffset":0,
			"target":34962
		},
		{
			"buffer":0,
			"byteLength":25824,
			"byteOffset":25824,
			"target":34962
		},
		{
			"buffer":0,
			"byteLength":17216,
			"byteOffset":51648,
			"target":34962
		},
		{
			"buffer":0,
			"byteLength":13380,
			"byteOffset":68864,
			"target":34963
		},
		{
			"buffer":0,
			"byteLength":13728,
			"byteOffset":82244,
			"target":34962
		},
		{
			"buffer":0,
			"byteLength":13728,
			"byteOffset":95972,
			"target":34962
		},
		{
			"buffer":0,
			"byteLength":9152,
			"byteOffset":109700,
			"target":34962
		},
		{
			"buffer":0,
			"byteLength":9152,
			"byteOffset":118852,
			"target":34962
		},
		{
			"buffer":0,
			"byteLength":7860,
			"byteOffset":128004,
			"target":34963
		},
		{
			"buffer":0,
			"byteLength":14904,
			"byteOffset":135864,
			"target":34962
		},
		{
			"buffer":0,
			"byteLength":14904,
			"byteOffset":150768,
			"target":34962
		},
		{
			"buffer":0,
			"byteLength":9936,
			"byteOffset":165672,
			"target":34962
		},
		{
			"buffer":0,
			"byteLength":7902,
			"byteOffset":175608,
			"target":34963
		}
	],
	"samplers":[
		{
			"magFilter":9728,
			"minFilter":9984
		},
		{
			"magFilter":9729,
			"minFilter":9987,
			"wrapS":33071,
			"wrapT":33071
		},
		{
			"magFilter":9729,
			"minFilter":9987
		}
	],
	"buffers":[
		{
			"byteLength":183512,
			"uri":"jar1.bin"
		}
	]
}
