{
	"asset":{
		"generator":"Khronos glTF Blender I/O v4.5.48",
		"version":"2.0"
	},
	"extensionsUsed":[
		"KHR_materials_emissive_strength"
	],
	"scene":0,
	"scenes":[
		{
			"name":"Scene",
			"nodes":[
				0
			]
		}
	],
	"nodes":[
		{
			"mesh":0,
			"name":"Sphere.003"
		}
	],
	"materials":[
		{
			"doubleSided":true,
			"emissiveFactor":[
				1,
				1,
				1
			],
			"emissiveTexture":{
				"index":0,
				"texCoord":1
			},
			"extensions":{
				"KHR_materials_emissive_strength":{
					"emissiveStrength":3.8999998569488525
				}
			},
			"name":"Material.002",
			"pbrMetallicRoughness":{
				"baseColorTexture":{
					"index":1
				},
				"metallicFactor":0
			}
		},
		{
			"doubleSided":true,
			"name":"Material.003",
			"pbrMetallicRoughness":{
				"baseColorTexture":{
					"index":2
				},
				"metallicFactor":0
			}
		},
		{
			"doubleSided":true,
			"emissiveFactor":[
				1,
				1,
				1
			],
			"emissiveTexture":{
				"index":3,
				"texCoord":1
			},
			"extensions":{
				"KHR_materials_emissive_strength":{
					"emissiveStrength":2
				}
			},
			"name":"Material.001",
			"pbrMetallicRoughness":{
				"baseColorTexture":{
					"index":4
				},
				"metallicFactor":0
			}
		}
	],
	"meshes":[
		{
			"name":"Sphere.003",
			"primitives":[
				{
					"attributes":{
						"POSITION":0,
						"NORMAL":1,
						"TEXCOORD_0":2,
						"TEXCOORD_1":3
					},
					"indices":4,
					"material":0
				},
				{
					"attributes":{
						"POSITION":5,
						"NORMAL":6,
						"TEXCOORD_0":7,
						"TEXCOORD_1":8
					},
					"indices":9,
					"material":1
				},
				{
					"attributes":{
						"POSITION":10,
						"NORMAL":11,
						"TEXCOORD_0":12,
						"TEXCOORD_1":13
					},
					"indices":14,
					"material":2
				}
			]
		}
	],
	"textures":[
		{
			"sampler":0,
			"source":0
		},
		{
			"sampler":0,
			"source":1
		},
		{
			"sampler":1,
			"source":1
		},
		{
			"sampler":2,
			"source":0
		},
		{
			"sampler":0,
			"source":1
		}
	],
	"images":[
		{
			"mimeType":"image/png",
			"name":"piecz",
			"uri":"piecz.png"
		},
		{
			"mimeType":"image/png",
			"name":"palette",
			"uri":"palette.png"
		}
	],
	"accessors":[
		{
			"bufferView":0,
			"componentType":5126,
			"count":776,
			"max":[
				3.1242141723632812,
				0.26187628507614136,
				1.529902696609497
			],
			"min":[
				0.5693039894104004,
				0.009162135422229767,
				-1.4944202899932861
			],
			"type":"VEC3"
		},
		{
			"bufferView":1,
			"componentType":5126,
			"count":776,
			"type":"VEC3"
		},
		{
			"bufferView":2,
			"componentType":5126,
			"count":776,
			"type":"VEC2"
		},
		{
			"bufferView":3,
			"componentType":5126,
			"count":776,
			"type":"VEC2"
		},
		{
			"bufferView":4,
			"componentType":5123,
			"count":2244,
			"type":"SCALAR"
		},
		{
			"bufferView":5,
			"componentType":5126,
			"count":474,
			"max":[
				2.510345458984375,
				0.8201504349708557,
				1.1372606754302979
			],
			"min":[
				-0.27287158370018005,
				0.007211707532405853,
				-1.0976202487945557
			],
			"type":"VEC3"
		},
		{
			"bufferView":6,
			"componentType":5126,
			"count":474,
			"type":"VEC3"
		},
		{
			"bufferView":7,
			"componentType":5126,
			"count":474,
			"type":"VEC2"
		},
		{
			"bufferView":8,
			"componentType":5126,
			"count":474,
			"type":"VEC2"
		},
		{
			"bufferView":9,
			"componentType":5123,
			"count":1152,
			"type":"SCALAR"
		},
		{
			"bufferView":10,
			"componentType":5126,
			"count":1012,
			"max":[
				0.7059875726699829,
				1.2874692678451538,
				0.9827036261558533
			],
			"min":[
				-1.1216436624526978,
				0.0034551620483398438,
				-0.9844139814376831
			],
			"type":"VEC3"
		},
		{
			"bufferView":11,
			"componentType":5126,
			"count":1012,
			"type":"VEC3"
		},
		{
			"bufferView":12,
			"componentType":5126,
			"count":1012,
			"type":"VEC2"
		},
		{
			"bufferView":13,
			"componentType":5126,
			"count":1012,
			"type":"VEC2"
		},
		{
			"bufferView":14,
			"componentType":5123,
			"count":5106,
			"type":"SCALAR"
		}
	],
	"bufferViews":[
		{
			"buffer":0,
			"byteLength":9312,
			"byteOffset":0,
			"target":34962
		},
		{
			"buffer":0,
			"byteLength":9312,
			"byteOffset":9312,
			"target":34962
		},
		{
			"buffer":0,
			"byteLength":6208,
			"byteOffset":18624,
			"target":34962
		},
		{
			"buffer":0,
			"byteLength":6208,
			"byteOffset":24832,
			"target":34962
		},
		{
			"buffer":0,
			"byteLength":4488,
			"byteOffset":31040,
			"target":34963
		},
		{
			"buffer":0,
			"byteLength":5688,
			"byteOffset":35528,
			"target":34962
		},
		{
			"buffer":0,
			"byteLength":5688,
			"byteOffset":41216,
			"target":34962
		},
		{
			"buffer":0,
			"byteLength":3792,
			"byteOffset":46904,
			"target":34962
		},
		{
			"buffer":0,
			"byteLength":3792,
			"byteOffset":50696,
			"target":34962
		},
		{
			"buffer":0,
			"byteLength":2304,
			"byteOffset":54488,
			"target":34963
		},
		{
			"buffer":0,
			"byteLength":12144,
			"byteOffset":56792,
			"target":34962
		},
		{
			"buffer":0,
			"byteLength":12144,
			"byteOffset":68936,
			"target":34962
		},
		{
			"buffer":0,
			"byteLength":8096,
			"byteOffset":81080,
			"target":34962
		},
		{
			"buffer":0,
			"byteLength":8096,
			"byteOffset":89176,
			"target":34962
		},
		{
			"buffer":0,
			"byteLength":10212,
			"byteOffset":97272,
			"target":34963
		}
	],
	"samplers":[
		{
			"magFilter":9728,
			"minFilter":9984
		},
		{
			"magFilter":9729,
			"minFilter":9987
		},
		{
			"magFilter":9728,
			"minFilter":9984,
			"wrapS":33071,
			"wrapT":33071
		}
	],
	"buffers":[
		{
			"byteLength":107484,
			"uri":"pokrojona_pieczarka.bin"
		}
	]
}
