{
	"asset":{
		"generator":"Khronos glTF Blender I/O v4.4.56",
		"version":"2.0"
	},
	"scene":0,
	"scenes":[
		{
			"name":"Scene",
			"nodes":[
				0,
				1
			]
		}
	],
	"nodes":[
		{
			"mesh":0,
			"name":"Plane.001"
		},
		{
			"mesh":1,
			"name":"Circle.002"
		}
	],
	"materials":[
		{
			"doubleSided":true,
			"name":"Material.009",
			"pbrMetallicRoughness":{
				"baseColorTexture":{
					"index":0
				},
				"metallicFactor":0.20000000298023224,
				"roughnessFactor":0.5
			}
		}
	],
	"meshes":[
		{
			"name":"Plane.002",
			"primitives":[
				{
					"attributes":{
						"POSITION":0,
						"NORMAL":1,
						"TEXCOORD_0":2
					},
					"indices":3,
					"material":0
				}
			]
		},
		{
			"name":"Circle.002",
			"primitives":[
				{
					"attributes":{
						"POSITION":4,
						"NORMAL":5,
						"TEXCOORD_0":6
					},
					"indices":7,
					"material":0
				}
			]
		}
	],
	"textures":[
		{
			"sampler":0,
			"source":0
		}
	],
	"images":[
		{
			"mimeType":"image/png",
			"name":"palette",
			"uri":"palette.png"
		}
	],
	"accessors":[
		{
			"bufferView":0,
			"componentType":5126,
			"count":2217,
			"max":[
				2.727360248565674,
				0.4567921757698059,
				0.2357729822397232
			],
			"min":[
				1.0423023700714111,
				0.32995226979255676,
				-0.23868821561336517
			],
			"type":"VEC3"
		},
		{
			"bufferView":1,
			"componentType":5126,
			"count":2217,
			"type":"VEC3"
		},
		{
			"bufferView":2,
			"componentType":5126,
			"count":2217,
			"type":"VEC2"
		},
		{
			"bufferView":3,
			"componentType":5123,
			"count":10944,
			"type":"SCALAR"
		},
		{
			"bufferView":4,
			"componentType":5126,
			"count":962,
			"max":[
				1.1229137182235718,
				0.5123494267463684,
				1.1229137182235718
			],
			"min":[
				-1.1229137182235718,
				0,
				-1.1229137182235718
			],
			"type":"VEC3"
		},
		{
			"bufferView":5,
			"componentType":5126,
			"count":962,
			"type":"VEC3"
		},
		{
			"bufferView":6,
			"componentType":5126,
			"count":962,
			"type":"VEC2"
		},
		{
			"bufferView":7,
			"componentType":5123,
			"count":5760,
			"type":"SCALAR"
		}
	],
	"bufferViews":[
		{
			"buffer":0,
			"byteLength":26604,
			"byteOffset":0,
			"target":34962
		},
		{
			"buffer":0,
			"byteLength":26604,
			"byteOffset":26604,
			"target":34962
		},
		{
			"buffer":0,
			"byteLength":17736,
			"byteOffset":53208,
			"target":34962
		},
		{
			"buffer":0,
			"byteLength":21888,
			"byteOffset":70944,
			"target":34963
		},
		{
			"buffer":0,
			"byteLength":11544,
			"byteOffset":92832,
			"target":34962
		},
		{
			"buffer":0,
			"byteLength":11544,
			"byteOffset":104376,
			"target":34962
		},
		{
			"buffer":0,
			"byteLength":7696,
			"byteOffset":115920,
			"target":34962
		},
		{
			"buffer":0,
			"byteLength":11520,
			"byteOffset":123616,
			"target":34963
		}
	],
	"samplers":[
		{
			"magFilter":9728,
			"minFilter":9984
		}
	],
	"buffers":[
		{
			"byteLength":135136,
			"uri":"pan.bin"
		}
	]
}
