{
	"asset":{
		"generator":"Khronos glTF Blender I/O v4.4.56",
		"version":"2.0"
	},
	"scene":0,
	"scenes":[
		{
			"name":"Scene",
			"nodes":[
				0,
				1,
				2,
				3
			]
		}
	],
	"nodes":[
		{
			"mesh":0,
			"name":"Cylinder"
		},
		{
			"mesh":1,
			"name":"Circle"
		},
		{
			"mesh":2,
			"name":"Circle.001"
		},
		{
			"mesh":3,
			"name":"Circle.002"
		}
	],
	"materials":[
		{
			"doubleSided":true,
			"name":"Material",
			"pbrMetallicRoughness":{
				"baseColorTexture":{
					"index":0
				},
				"metallicFactor":0,
				"roughnessFactor":0.5
			}
		}
	],
	"meshes":[
		{
			"name":"Cylinder",
			"primitives":[
				{
					"attributes":{
						"POSITION":0,
						"NORMAL":1,
						"TEXCOORD_0":2
					},
					"indices":3,
					"material":0
				}
			]
		},
		{
			"name":"Circle",
			"primitives":[
				{
					"attributes":{
						"POSITION":4,
						"NORMAL":5,
						"TEXCOORD_0":6
					},
					"indices":7,
					"material":0
				}
			]
		},
		{
			"name":"Circle.001",
			"primitives":[
				{
					"attributes":{
						"POSITION":8,
						"NORMAL":9,
						"TEXCOORD_0":10
					},
					"indices":11,
					"material":0
				}
			]
		},
		{
			"name":"Circle.002",
			"primitives":[
				{
					"attributes":{
						"POSITION":12,
						"NORMAL":13,
						"TEXCOORD_0":14
					},
					"indices":15,
					"material":0
				}
			]
		}
	],
	"textures":[
		{
			"sampler":0,
			"source":0
		}
	],
	"images":[
		{
			"mimeType": "image/png",
			"name": "palette",
			"uri": "../../../textures/palette.png"
		}
	],
	"accessors":[
		{
			"bufferView":0,
			"componentType":5126,
			"count":272,
			"max":[
				1,
				1,
				1
			],
			"min":[
				-1,
				-1,
				-1
			],
			"type":"VEC3"
		},
		{
			"bufferView":1,
			"componentType":5126,
			"count":272,
			"type":"VEC3"
		},
		{
			"bufferView":2,
			"componentType":5126,
			"count":272,
			"type":"VEC2"
		},
		{
			"bufferView":3,
			"componentType":5123,
			"count":756,
			"type":"SCALAR"
		},
		{
			"bufferView":4,
			"componentType":5126,
			"count":168,
			"max":[
				6.089099002792864e-08,
				0.8065255880355835,
				-0.8906721472740173
			],
			"min":[
				-0.2258272022008896,
				-0.8065255880355835,
				-1.8545430898666382
			],
			"type":"VEC3"
		},
		{
			"bufferView":5,
			"componentType":5126,
			"count":168,
			"type":"VEC3"
		},
		{
			"bufferView":6,
			"componentType":5126,
			"count":168,
			"type":"VEC2"
		},
		{
			"bufferView":7,
			"componentType":5123,
			"count":444,
			"type":"SCALAR"
		},
		{
			"bufferView":8,
			"componentType":5126,
			"count":32,
			"max":[
				0.8659923672676086,
				0.6291686296463013,
				0.8659923672676086
			],
			"min":[
				-0.8659923672676086,
				0.6291686296463013,
				-0.8659923672676086
			],
			"type":"VEC3"
		},
		{
			"bufferView":9,
			"componentType":5126,
			"count":32,
			"type":"VEC3"
		},
		{
			"bufferView":10,
			"componentType":5126,
			"count":32,
			"type":"VEC2"
		},
		{
			"bufferView":11,
			"componentType":5123,
			"count":90,
			"type":"SCALAR"
		},
		{
			"bufferView":12,
			"componentType":5126,
			"count":408,
			"max":[
				0.6981644034385681,
				0.660115122795105,
				0.6585886478424072
			],
			"min":[
				-0.5032746195793152,
				0.5635153651237488,
				-0.6729720830917358
			],
			"type":"VEC3"
		},
		{
			"bufferView":13,
			"componentType":5126,
			"count":408,
			"type":"VEC3"
		},
		{
			"bufferView":14,
			"componentType":5126,
			"count":408,
			"type":"VEC2"
		},
		{
			"bufferView":15,
			"componentType":5123,
			"count":1140,
			"type":"SCALAR"
		}
	],
	"bufferViews":[
		{
			"buffer":0,
			"byteLength":3264,
			"byteOffset":0,
			"target":34962
		},
		{
			"buffer":0,
			"byteLength":3264,
			"byteOffset":3264,
			"target":34962
		},
		{
			"buffer":0,
			"byteLength":2176,
			"byteOffset":6528,
			"target":34962
		},
		{
			"buffer":0,
			"byteLength":1512,
			"byteOffset":8704,
			"target":34963
		},
		{
			"buffer":0,
			"byteLength":2016,
			"byteOffset":10216,
			"target":34962
		},
		{
			"buffer":0,
			"byteLength":2016,
			"byteOffset":12232,
			"target":34962
		},
		{
			"buffer":0,
			"byteLength":1344,
			"byteOffset":14248,
			"target":34962
		},
		{
			"buffer":0,
			"byteLength":888,
			"byteOffset":15592,
			"target":34963
		},
		{
			"buffer":0,
			"byteLength":384,
			"byteOffset":16480,
			"target":34962
		},
		{
			"buffer":0,
			"byteLength":384,
			"byteOffset":16864,
			"target":34962
		},
		{
			"buffer":0,
			"byteLength":256,
			"byteOffset":17248,
			"target":34962
		},
		{
			"buffer":0,
			"byteLength":180,
			"byteOffset":17504,
			"target":34963
		},
		{
			"buffer":0,
			"byteLength":4896,
			"byteOffset":17684,
			"target":34962
		},
		{
			"buffer":0,
			"byteLength":4896,
			"byteOffset":22580,
			"target":34962
		},
		{
			"buffer":0,
			"byteLength":3264,
			"byteOffset":27476,
			"target":34962
		},
		{
			"buffer":0,
			"byteLength":2280,
			"byteOffset":30740,
			"target":34963
		}
	],
	"samplers":[
		{
			"magFilter":9729,
			"minFilter":9987
		}
	],
	"buffers":[
		{
			"byteLength":33020,
			"uri":"kawa-mleko.bin"
		}
	]
}
