{
	"asset":{
		"generator":"Khronos glTF Blender I/O v4.4.56",
		"version":"2.0"
	},
	"scene":0,
	"scenes":[
		{
			"name":"Scene",
			"nodes":[
				0,
				1,
				2
			]
		}
	],
	"nodes":[
		{
			"mesh":0,
			"name":"Sphere.007"
		},
		{
			"mesh":1,
			"name":"Sphere.008"
		},
		{
			"mesh":2,
			"name":"Sphere.009"
		}
	],
	"materials":[
		{
			"doubleSided":true,
			"name":"Material.001",
			"pbrMetallicRoughness":{
				"baseColorTexture":{
					"index":0
				},
				"metallicFactor":0,
				"roughnessFactor":0.5
			}
		}
	],
	"meshes":[
		{
			"name":"Sphere.014",
			"primitives":[
				{
					"attributes":{
						"POSITION":0,
						"NORMAL":1,
						"TEXCOORD_0":2
					},
					"indices":3,
					"material":0
				}
			]
		},
		{
			"name":"Sphere.016",
			"primitives":[
				{
					"attributes":{
						"POSITION":4,
						"NORMAL":5,
						"TEXCOORD_0":6
					},
					"indices":7,
					"material":0
				}
			]
		},
		{
			"name":"Sphere.017",
			"primitives":[
				{
					"attributes":{
						"POSITION":8,
						"NORMAL":9,
						"TEXCOORD_0":10
					},
					"indices":11,
					"material":0
				}
			]
		}
	],
	"textures":[
		{
			"sampler":0,
			"source":0
		}
	],
	"images":[
		{
			"mimeType": "image/png",
			"name": "palette",
			"uri": "../../../textures/palette.png"
		}
	],
	"accessors":[
		{
			"bufferView":0,
			"componentType":5126,
			"count":1607,
			"max":[
				0.02845558524131775,
				0.05740988999605179,
				0.18021440505981445
			],
			"min":[
				-0.15060992538928986,
				-0.00013033300638198853,
				0.001168321818113327
			],
			"type":"VEC3"
		},
		{
			"bufferView":1,
			"componentType":5126,
			"count":1607,
			"type":"VEC3"
		},
		{
			"bufferView":2,
			"componentType":5126,
			"count":1607,
			"type":"VEC2"
		},
		{
			"bufferView":3,
			"componentType":5123,
			"count":5406,
			"type":"SCALAR"
		},
		{
			"bufferView":4,
			"componentType":5126,
			"count":1607,
			"max":[
				0.024834390729665756,
				0.06574620306491852,
				0.06362772732973099
			],
			"min":[
				-0.15362684428691864,
				0.0008928850293159485,
				-0.11197081208229065
			],
			"type":"VEC3"
		},
		{
			"bufferView":5,
			"componentType":5126,
			"count":1607,
			"type":"VEC3"
		},
		{
			"bufferView":6,
			"componentType":5126,
			"count":1607,
			"type":"VEC2"
		},
		{
			"bufferView":7,
			"componentType":5123,
			"count":5406,
			"type":"SCALAR"
		},
		{
			"bufferView":8,
			"componentType":5126,
			"count":1607,
			"max":[
				0.0238812193274498,
				0.07067088037729263,
				-0.03237423300743103
			],
			"min":[
				-0.15497250854969025,
				-0.0006610602140426636,
				-0.20489385724067688
			],
			"type":"VEC3"
		},
		{
			"bufferView":9,
			"componentType":5126,
			"count":1607,
			"type":"VEC3"
		},
		{
			"bufferView":10,
			"componentType":5126,
			"count":1607,
			"type":"VEC2"
		},
		{
			"bufferView":11,
			"componentType":5123,
			"count":5406,
			"type":"SCALAR"
		}
	],
	"bufferViews":[
		{
			"buffer":0,
			"byteLength":19284,
			"byteOffset":0,
			"target":34962
		},
		{
			"buffer":0,
			"byteLength":19284,
			"byteOffset":19284,
			"target":34962
		},
		{
			"buffer":0,
			"byteLength":12856,
			"byteOffset":38568,
			"target":34962
		},
		{
			"buffer":0,
			"byteLength":10812,
			"byteOffset":51424,
			"target":34963
		},
		{
			"buffer":0,
			"byteLength":19284,
			"byteOffset":62236,
			"target":34962
		},
		{
			"buffer":0,
			"byteLength":19284,
			"byteOffset":81520,
			"target":34962
		},
		{
			"buffer":0,
			"byteLength":12856,
			"byteOffset":100804,
			"target":34962
		},
		{
			"buffer":0,
			"byteLength":10812,
			"byteOffset":113660,
			"target":34963
		},
		{
			"buffer":0,
			"byteLength":19284,
			"byteOffset":124472,
			"target":34962
		},
		{
			"buffer":0,
			"byteLength":19284,
			"byteOffset":143756,
			"target":34962
		},
		{
			"buffer":0,
			"byteLength":12856,
			"byteOffset":163040,
			"target":34962
		},
		{
			"buffer":0,
			"byteLength":10812,
			"byteOffset":175896,
			"target":34963
		}
	],
	"samplers":[
		{
			"magFilter":9729,
			"minFilter":9987
		}
	],
	"buffers":[
		{
			"byteLength":186708,
			"uri":"ciastka.bin"
		}
	]
}
