{
	"asset":{
		"generator":"Khronos glTF Blender I/O v4.4.56",
		"version":"2.0"
	},
	"scene":0,
	"scenes":[
		{
			"name":"Scene",
			"nodes":[
				0,
				1,
				2,
				3,
				4,
				5,
				6,
				7,
				8
			]
		}
	],
	"nodes":[
		{
			"mesh":0,
			"name":"Cube.001"
		},
		{
			"mesh":1,
			"name":"Cube.002"
		},
		{
			"mesh":2,
			"name":"Cube.003"
		},
		{
			"mesh":3,
			"name":"Circle"
		},
		{
			"mesh":4,
			"name":"Circle.001"
		},
		{
			"mesh":5,
			"name":"Circle.002"
		},
		{
			"mesh":6,
			"name":"Circle.003"
		},
		{
			"mesh":7,
			"name":"Cube.004"
		},
		{
			"mesh":8,
			"name":"Cube.005"
		}
	],
	"materials":[
		{
			"doubleSided":true,
			"name":"Material",
			"pbrMetallicRoughness":{
				"baseColorTexture":{
					"index":0
				},
				"metallicFactor":0,
				"roughnessFactor":0.5
			}
		},
		{
			"doubleSided":true,
			"name":"Material.001",
			"pbrMetallicRoughness":{
				"baseColorTexture":{
					"index":1
				},
				"metallicFactor":0,
				"roughnessFactor":0.5
			}
		},
		{
			"doubleSided":true,
			"name":"Material.002",
			"pbrMetallicRoughness":{
				"baseColorTexture":{
					"index":2
				},
				"metallicFactor":0,
				"roughnessFactor":0.5
			}
		}
	],
	"meshes":[
		{
			"name":"Cube.002",
			"primitives":[
				{
					"attributes":{
						"POSITION":0,
						"NORMAL":1,
						"TEXCOORD_0":2
					},
					"indices":3,
					"material":0
				}
			]
		},
		{
			"name":"Cube.003",
			"primitives":[
				{
					"attributes":{
						"POSITION":4,
						"NORMAL":5,
						"TEXCOORD_0":6
					},
					"indices":7,
					"material":0
				}
			]
		},
		{
			"name":"Cube.004",
			"primitives":[
				{
					"attributes":{
						"POSITION":8,
						"NORMAL":9,
						"TEXCOORD_0":10
					},
					"indices":11,
					"material":0
				}
			]
		},
		{
			"name":"Circle",
			"primitives":[
				{
					"attributes":{
						"POSITION":12,
						"NORMAL":13,
						"TEXCOORD_0":14
					},
					"indices":15,
					"material":0
				}
			]
		},
		{
			"name":"Circle.001",
			"primitives":[
				{
					"attributes":{
						"POSITION":16,
						"NORMAL":17,
						"TEXCOORD_0":18
					},
					"indices":19,
					"material":0
				}
			]
		},
		{
			"name":"Circle.002",
			"primitives":[
				{
					"attributes":{
						"POSITION":20,
						"NORMAL":21,
						"TEXCOORD_0":22
					},
					"indices":23,
					"material":0
				}
			]
		},
		{
			"name":"Circle.003",
			"primitives":[
				{
					"attributes":{
						"POSITION":24,
						"NORMAL":25,
						"TEXCOORD_0":26
					},
					"indices":27,
					"material":0
				}
			]
		},
		{
			"name":"Cube.005",
			"primitives":[
				{
					"attributes":{
						"POSITION":28,
						"NORMAL":29,
						"TEXCOORD_0":30
					},
					"indices":7,
					"material":1
				}
			]
		},
		{
			"name":"Cube.006",
			"primitives":[
				{
					"attributes":{
						"POSITION":31,
						"NORMAL":32,
						"TEXCOORD_0":33
					},
					"indices":34,
					"material":2
				}
			]
		}
	],
	"textures":[
		{
			"sampler":0,
			"source":0
		},
		{
			"sampler":0,
			"source":0
		},
		{
			"sampler":0,
			"source":0
		}
	],
	"images":[
		{
			"mimeType": "image/png",
			"name": "palette",
			"uri": "../../textures/palette.png"
		}
	],
	"accessors":[
		{
			"bufferView":0,
			"componentType":5126,
			"count":1342,
			"max":[
				3.242464065551758,
				-0.4085875153541565,
				1.0879597663879395
			],
			"min":[
				-3.0266036987304688,
				-1.5841058492660522,
				-1.0881123542785645
			],
			"type":"VEC3"
		},
		{
			"bufferView":1,
			"componentType":5126,
			"count":1342,
			"type":"VEC3"
		},
		{
			"bufferView":2,
			"componentType":5126,
			"count":1342,
			"type":"VEC2"
		},
		{
			"bufferView":3,
			"componentType":5123,
			"count":2952,
			"type":"SCALAR"
		},
		{
			"bufferView":4,
			"componentType":5126,
			"count":96,
			"max":[
				3.3259212970733643,
				1.6508290767669678,
				1
			],
			"min":[
				0.30559659004211426,
				-0.34917086362838745,
				-1
			],
			"type":"VEC3"
		},
		{
			"bufferView":5,
			"componentType":5126,
			"count":96,
			"type":"VEC3"
		},
		{
			"bufferView":6,
			"componentType":5126,
			"count":96,
			"type":"VEC2"
		},
		{
			"bufferView":7,
			"componentType":5123,
			"count":324,
			"type":"SCALAR"
		},
		{
			"bufferView":8,
			"componentType":5126,
			"count":554,
			"max":[
				0.25772643089294434,
				1.4463181495666504,
				1.0599085092544556
			],
			"min":[
				-2.394838571548462,
				-0.38745492696762085,
				-1.0765105485916138
			],
			"type":"VEC3"
		},
		{
			"bufferView":9,
			"componentType":5126,
			"count":554,
			"type":"VEC3"
		},
		{
			"bufferView":10,
			"componentType":5126,
			"count":554,
			"type":"VEC2"
		},
		{
			"bufferView":11,
			"componentType":5123,
			"count":1617,
			"type":"SCALAR"
		},
		{
			"bufferView":12,
			"componentType":5126,
			"count":200,
			"max":[
				-0.6807385683059692,
				-0.7689740657806396,
				1.1501190662384033
			],
			"min":[
				-1.8788255453109741,
				-1.9670610427856445,
				0.790692925453186
			],
			"type":"VEC3"
		},
		{
			"bufferView":13,
			"componentType":5126,
			"count":200,
			"type":"VEC3"
		},
		{
			"bufferView":14,
			"componentType":5126,
			"count":200,
			"type":"VEC2"
		},
		{
			"bufferView":15,
			"componentType":5123,
			"count":564,
			"type":"SCALAR"
		},
		{
			"bufferView":16,
			"componentType":5126,
			"count":200,
			"max":[
				2.500485897064209,
				-0.7689740657806396,
				1.1501190662384033
			],
			"min":[
				1.3023988008499146,
				-1.9670610427856445,
				0.790692925453186
			],
			"type":"VEC3"
		},
		{
			"bufferView":17,
			"componentType":5126,
			"count":200,
			"type":"VEC3"
		},
		{
			"bufferView":18,
			"componentType":5126,
			"count":200,
			"type":"VEC2"
		},
		{
			"bufferView":19,
			"componentType":5123,
			"count":564,
			"type":"SCALAR"
		},
		{
			"bufferView":20,
			"componentType":5126,
			"count":200,
			"max":[
				2.500485897064209,
				-0.7689740657806396,
				-0.8005567789077759
			],
			"min":[
				1.3023988008499146,
				-1.9670610427856445,
				-1.1599829196929932
			],
			"type":"VEC3"
		},
		{
			"bufferView":21,
			"componentType":5126,
			"count":200,
			"type":"VEC3"
		},
		{
			"bufferView":22,
			"componentType":5126,
			"count":200,
			"type":"VEC2"
		},
		{
			"bufferView":23,
			"componentType":5123,
			"count":564,
			"type":"SCALAR"
		},
		{
			"bufferView":24,
			"componentType":5126,
			"count":200,
			"max":[
				-0.6807385683059692,
				-0.7689740657806396,
				-0.8005567789077759
			],
			"min":[
				-1.8788255453109741,
				-1.9670610427856445,
				-1.1599829196929932
			],
			"type":"VEC3"
		},
		{
			"bufferView":25,
			"componentType":5126,
			"count":200,
			"type":"VEC3"
		},
		{
			"bufferView":26,
			"componentType":5126,
			"count":200,
			"type":"VEC2"
		},
		{
			"bufferView":27,
			"componentType":5123,
			"count":564,
			"type":"SCALAR"
		},
		{
			"bufferView":28,
			"componentType":5126,
			"count":96,
			"max":[
				3.379767656326294,
				-0.679058313369751,
				0.3008921444416046
			],
			"min":[
				3.189295530319214,
				-0.9448567628860474,
				-0.3008921444416046
			],
			"type":"VEC3"
		},
		{
			"bufferView":29,
			"componentType":5126,
			"count":96,
			"type":"VEC3"
		},
		{
			"bufferView":30,
			"componentType":5126,
			"count":96,
			"type":"VEC2"
		},
		{
			"bufferView":31,
			"componentType":5126,
			"count":192,
			"max":[
				-2.9097611904144287,
				-0.679058313369751,
				0.6919175982475281
			],
			"min":[
				-3.100233316421509,
				-0.9448567628860474,
				-0.6919175982475281
			],
			"type":"VEC3"
		},
		{
			"bufferView":32,
			"componentType":5126,
			"count":192,
			"type":"VEC3"
		},
		{
			"bufferView":33,
			"componentType":5126,
			"count":192,
			"type":"VEC2"
		},
		{
			"bufferView":34,
			"componentType":5123,
			"count":648,
			"type":"SCALAR"
		}
	],
	"bufferViews":[
		{
			"buffer":0,
			"byteLength":16104,
			"byteOffset":0,
			"target":34962
		},
		{
			"buffer":0,
			"byteLength":16104,
			"byteOffset":16104,
			"target":34962
		},
		{
			"buffer":0,
			"byteLength":10736,
			"byteOffset":32208,
			"target":34962
		},
		{
			"buffer":0,
			"byteLength":5904,
			"byteOffset":42944,
			"target":34963
		},
		{
			"buffer":0,
			"byteLength":1152,
			"byteOffset":48848,
			"target":34962
		},
		{
			"buffer":0,
			"byteLength":1152,
			"byteOffset":50000,
			"target":34962
		},
		{
			"buffer":0,
			"byteLength":768,
			"byteOffset":51152,
			"target":34962
		},
		{
			"buffer":0,
			"byteLength":648,
			"byteOffset":51920,
			"target":34963
		},
		{
			"buffer":0,
			"byteLength":6648,
			"byteOffset":52568,
			"target":34962
		},
		{
			"buffer":0,
			"byteLength":6648,
			"byteOffset":59216,
			"target":34962
		},
		{
			"buffer":0,
			"byteLength":4432,
			"byteOffset":65864,
			"target":34962
		},
		{
			"buffer":0,
			"byteLength":3234,
			"byteOffset":70296,
			"target":34963
		},
		{
			"buffer":0,
			"byteLength":2400,
			"byteOffset":73532,
			"target":34962
		},
		{
			"buffer":0,
			"byteLength":2400,
			"byteOffset":75932,
			"target":34962
		},
		{
			"buffer":0,
			"byteLength":1600,
			"byteOffset":78332,
			"target":34962
		},
		{
			"buffer":0,
			"byteLength":1128,
			"byteOffset":79932,
			"target":34963
		},
		{
			"buffer":0,
			"byteLength":2400,
			"byteOffset":81060,
			"target":34962
		},
		{
			"buffer":0,
			"byteLength":2400,
			"byteOffset":83460,
			"target":34962
		},
		{
			"buffer":0,
			"byteLength":1600,
			"byteOffset":85860,
			"target":34962
		},
		{
			"buffer":0,
			"byteLength":1128,
			"byteOffset":87460,
			"target":34963
		},
		{
			"buffer":0,
			"byteLength":2400,
			"byteOffset":88588,
			"target":34962
		},
		{
			"buffer":0,
			"byteLength":2400,
			"byteOffset":90988,
			"target":34962
		},
		{
			"buffer":0,
			"byteLength":1600,
			"byteOffset":93388,
			"target":34962
		},
		{
			"buffer":0,
			"byteLength":1128,
			"byteOffset":94988,
			"target":34963
		},
		{
			"buffer":0,
			"byteLength":2400,
			"byteOffset":96116,
			"target":34962
		},
		{
			"buffer":0,
			"byteLength":2400,
			"byteOffset":98516,
			"target":34962
		},
		{
			"buffer":0,
			"byteLength":1600,
			"byteOffset":100916,
			"target":34962
		},
		{
			"buffer":0,
			"byteLength":1128,
			"byteOffset":102516,
			"target":34963
		},
		{
			"buffer":0,
			"byteLength":1152,
			"byteOffset":103644,
			"target":34962
		},
		{
			"buffer":0,
			"byteLength":1152,
			"byteOffset":104796,
			"target":34962
		},
		{
			"buffer":0,
			"byteLength":768,
			"byteOffset":105948,
			"target":34962
		},
		{
			"buffer":0,
			"byteLength":2304,
			"byteOffset":106716,
			"target":34962
		},
		{
			"buffer":0,
			"byteLength":2304,
			"byteOffset":109020,
			"target":34962
		},
		{
			"buffer":0,
			"byteLength":1536,
			"byteOffset":111324,
			"target":34962
		},
		{
			"buffer":0,
			"byteLength":1296,
			"byteOffset":112860,
			"target":34963
		}
	],
	"samplers":[
		{
			"magFilter":9728,
			"minFilter":9984
		}
	],
	"buffers":[
		{
			"byteLength":114156,
			"uri":"dostawczak.bin"
		}
	]
}
