{
	"asset":{
		"generator":"Khronos glTF Blender I/O v4.4.56",
		"version":"2.0"
	},
	"scene":0,
	"scenes":[
		{
			"name":"Scene",
			"nodes":[
				0,
				1
			]
		}
	],
	"nodes":[
		{
			"mesh":0,
			"name":"Plane"
		},
		{
			"mesh":1,
			"name":"Plane.001"
		}
	],
	"materials":[
		{
			"doubleSided":true,
			"name":"Material.001",
			"pbrMetallicRoughness":{
				"baseColorTexture":{
					"index":0
				},
				"metallicFactor":0,
				"roughnessFactor":0.5
			}
		}
	],
	"meshes":[
		{
			"name":"Plane",
			"primitives":[
				{
					"attributes":{
						"POSITION":0,
						"NORMAL":1,
						"TEXCOORD_0":2
					},
					"indices":3,
					"material":0
				}
			]
		},
		{
			"name":"Plane.002",
			"primitives":[
				{
					"attributes":{
						"POSITION":4,
						"NORMAL":5,
						"TEXCOORD_0":6
					},
					"indices":3,
					"material":0
				}
			]
		}
	],
	"textures":[
		{
			"sampler":0,
			"source":0
		}
	],
	"images":[
		{
			"mimeType": "image/png",
			"name": "palette",
			"uri": "../../textures/palette.png"
		}
	],
	"accessors":[
		{
			"bufferView":0,
			"componentType":5126,
			"count":1512,
			"max":[
				1.1874878406524658,
				0,
				-0.7211048603057861
			],
			"min":[
				-1.1978352069854736,
				-0.049783531576395035,
				-1.1845821142196655
			],
			"type":"VEC3"
		},
		{
			"bufferView":1,
			"componentType":5126,
			"count":1512,
			"type":"VEC3"
		},
		{
			"bufferView":2,
			"componentType":5126,
			"count":1512,
			"type":"VEC2"
		},
		{
			"bufferView":3,
			"componentType":5123,
			"count":2520,
			"type":"SCALAR"
		},
		{
			"bufferView":4,
			"componentType":5126,
			"count":1512,
			"max":[
				1.1874878406524658,
				0,
				1.169863224029541
			],
			"min":[
				-1.1978352069854736,
				-0.049783531576395035,
				0.7063859701156616
			],
			"type":"VEC3"
		},
		{
			"bufferView":5,
			"componentType":5126,
			"count":1512,
			"type":"VEC3"
		},
		{
			"bufferView":6,
			"componentType":5126,
			"count":1512,
			"type":"VEC2"
		}
	],
	"bufferViews":[
		{
			"buffer":0,
			"byteLength":18144,
			"byteOffset":0,
			"target":34962
		},
		{
			"buffer":0,
			"byteLength":18144,
			"byteOffset":18144,
			"target":34962
		},
		{
			"buffer":0,
			"byteLength":12096,
			"byteOffset":36288,
			"target":34962
		},
		{
			"buffer":0,
			"byteLength":5040,
			"byteOffset":48384,
			"target":34963
		},
		{
			"buffer":0,
			"byteLength":18144,
			"byteOffset":53424,
			"target":34962
		},
		{
			"buffer":0,
			"byteLength":18144,
			"byteOffset":71568,
			"target":34962
		},
		{
			"buffer":0,
			"byteLength":12096,
			"byteOffset":89712,
			"target":34962
		}
	],
	"samplers":[
		{
			"magFilter":9728,
			"minFilter":9984
		}
	],
	"buffers":[
		{
			"byteLength":101808,
			"uri":"opony.bin"
		}
	]
}
