{
	"asset":{
		"generator":"Khronos glTF Blender I/O v4.4.56",
		"version":"2.0"
	},
	"scene":0,
	"scenes":[
		{
			"name":"Scene",
			"nodes":[
				0
			]
		}
	],
	"nodes":[
		{
			"mesh":0,
			"name":"Cube.006"
		}
	],
	"materials":[
		{
			"doubleSided":true,
			"name":"Material.003",
			"pbrMetallicRoughness":{
				"baseColorTexture":{
					"index":0
				},
				"metallicFactor":0,
				"roughnessFactor":0.5
			}
		}
	],
	"meshes":[
		{
			"name":"Cube.007",
			"primitives":[
				{
					"attributes":{
						"POSITION":0,
						"NORMAL":1,
						"TEXCOORD_0":2
					},
					"indices":3,
					"material":0
				}
			]
		}
	],
	"textures":[
		{
			"sampler":0,
			"source":0
		}
	],
	"images":[
		{
			"mimeType": "image/png",
			"name": "palette",
			"uri": "../../textures/palette.png"
		}
	],
	"accessors":[
		{
			"bufferView":0,
			"componentType":5126,
			"count":568,
			"max":[
				0.5372762680053711,
				0.4412563443183899,
				0.30077069997787476
			],
			"min":[
				-0.5564670562744141,
				-0.6427459716796875,
				-0.3007369637489319
			],
			"type":"VEC3"
		},
		{
			"bufferView":1,
			"componentType":5126,
			"count":568,
			"type":"VEC3"
		},
		{
			"bufferView":2,
			"componentType":5126,
			"count":568,
			"type":"VEC2"
		},
		{
			"bufferView":3,
			"componentType":5123,
			"count":1524,
			"type":"SCALAR"
		}
	],
	"bufferViews":[
		{
			"buffer":0,
			"byteLength":6816,
			"byteOffset":0,
			"target":34962
		},
		{
			"buffer":0,
			"byteLength":6816,
			"byteOffset":6816,
			"target":34962
		},
		{
			"buffer":0,
			"byteLength":4544,
			"byteOffset":13632,
			"target":34962
		},
		{
			"buffer":0,
			"byteLength":3048,
			"byteOffset":18176,
			"target":34963
		}
	],
	"samplers":[
		{
			"magFilter":9728,
			"minFilter":9984
		}
	],
	"buffers":[
		{
			"byteLength":21224,
			"uri":"paczka.bin"
		}
	]
}
