{
	"asset":{
		"generator":"Khronos glTF Blender I/O v4.4.56",
		"version":"2.0"
	},
	"scene":0,
	"scenes":[
		{
			"name":"Scene",
			"nodes":[
				10,
				21
			]
		}
	],
	"nodes":[
		{
			"name":"Bone.003",
			"rotation":[
				-0.10860729217529297,
				-0.11451923102140427,
				0.4398881196975708,
				0.8840748071670532
			],
			"scale":[
				1,
				1.0000001192092896,
				0.9999999403953552
			],
			"translation":[
				1.1920928955078125e-07,
				1.9171087741851807,
				2.086162567138672e-07
			]
		},
		{
			"children":[
				0
			],
			"name":"Bone.002",
			"rotation":[
				0.22111548483371735,
				-0.3410407304763794,
				0.28013548254966736,
				0.8696684837341309
			],
			"scale":[
				1,
				1,
				0.9999998807907104
			],
			"translation":[
				5.960464477539063e-08,
				1.810806393623352,
				-1.9371509552001953e-07
			]
		},
		{
			"children":[
				1
			],
			"name":"Bone.001",
			"rotation":[
				0.36154696345329285,
				0.37002691626548767,
				0.13556937873363495,
				0.8449762463569641
			],
			"scale":[
				0.9999999403953552,
				0.9999999403953552,
				1
			],
			"translation":[
				-7.171747284928642e-08,
				0.6407721638679504,
				-1.2969042157605576e-15
			]
		},
		{
			"children":[
				2
			],
			"name":"Bone",
			"rotation":[
				-1.6543614223212817e-24,
				-3.34264815826657e-09,
				-3.342648380311175e-09,
				1
			],
			"scale":[
				0.9999999403953552,
				0.9999999403953552,
				0.9999999403953552
			],
			"translation":[
				-3.831342354487788e-08,
				-0.05131884664297104,
				0
			]
		},
		{
			"mesh":0,
			"name":"Cylinder.001",
			"skin":0
		},
		{
			"mesh":1,
			"name":"Cylinder.002",
			"skin":0
		},
		{
			"mesh":2,
			"name":"Plane.001",
			"skin":0
		},
		{
			"mesh":3,
			"name":"Sphere.001",
			"skin":0
		},
		{
			"mesh":4,
			"name":"Sphere.002",
			"skin":0
		},
		{
			"mesh":5,
			"name":"Sphere.003",
			"skin":0
		},
		{
			"children":[
				4,
				5,
				6,
				7,
				8,
				9,
				3
			],
			"name":"Armature.002",
			"rotation":[
				0,
				0,
				0.7071068286895752,
				0.7071068286895752
			],
			"scale":[
				0.32300543785095215,
				0.32300543785095215,
				0.32300543785095215
			],
			"translation":[
				-1.0543599128723145,
				0.978705644607544,
				0
			]
		},
		{
			"name":"Bone.003",
			"rotation":[
				-0.014969517476856709,
				-0.007067372556775808,
				-0.06482557207345963,
				0.9977593421936035
			],
			"scale":[
				0.9999999403953552,
				1,
				1.0000001192092896
			],
			"translation":[
				1.341104507446289e-07,
				3.5143208503723145,
				-3.5390257835388184e-07
			]
		},
		{
			"children":[
				11
			],
			"name":"Bone.002",
			"rotation":[
				0.4069215655326843,
				0.026838701218366623,
				-0.04771232604980469,
				0.9118212461471558
			],
			"scale":[
				1,
				0.9999998807907104,
				0.9999999403953552
			],
			"translation":[
				-7.195958460215479e-07,
				3.169518232345581,
				-3.0902305070412694e-07
			]
		},
		{
			"children":[
				12
			],
			"name":"Bone.001",
			"rotation":[
				0.3548802137374878,
				7.038593707875407e-08,
				-2.9546585178508167e-09,
				0.9349117875099182
			],
			"scale":[
				1,
				0.9999999403953552,
				0.9999999403953552
			],
			"translation":[
				-1.0117821602761978e-06,
				1.1856621503829956,
				2.1551355738522703e-15
			]
		},
		{
			"children":[
				13
			],
			"name":"Bone",
			"rotation":[
				0,
				-5.911088507559725e-09,
				-5.911086731202886e-09,
				1
			],
			"translation":[
				-1.023554887069622e-06,
				-5.7425296517976676e-08,
				0
			]
		},
		{
			"mesh":6,
			"name":"Cylinder.005",
			"skin":1
		},
		{
			"mesh":7,
			"name":"Cylinder.006",
			"skin":1
		},
		{
			"mesh":8,
			"name":"Plane.003",
			"skin":1
		},
		{
			"mesh":9,
			"name":"Sphere.008",
			"skin":1
		},
		{
			"mesh":10,
			"name":"Sphere.009",
			"skin":1
		},
		{
			"mesh":11,
			"name":"Sphere.010",
			"skin":1
		},
		{
			"children":[
				15,
				16,
				17,
				18,
				19,
				20,
				14
			],
			"name":"Armature.005",
			"rotation":[
				0,
				0,
				-0.7071068286895752,
				0.7071068286895752
			],
			"scale":[
				0.17856264114379883,
				0.17856264114379883,
				0.17856264114379883
			],
			"translation":[
				0.9625067710876465,
				0.9919652342796326,
				0
			]
		}
	],
	"materials":[
		{
			"doubleSided":true,
			"name":"Material",
			"pbrMetallicRoughness":{
				"baseColorTexture":{
					"index":0
				},
				"metallicFactor":0,
				"roughnessFactor":0.668181836605072
			}
		}
	],
	"meshes":[
		{
			"name":"Cylinder.003",
			"primitives":[
				{
					"attributes":{
						"POSITION":0,
						"NORMAL":1,
						"TEXCOORD_0":2,
						"JOINTS_0":3,
						"WEIGHTS_0":4
					},
					"indices":5,
					"material":0
				}
			]
		},
		{
			"name":"Cylinder.004",
			"primitives":[
				{
					"attributes":{
						"POSITION":7,
						"NORMAL":8,
						"TEXCOORD_0":9,
						"JOINTS_0":10,
						"WEIGHTS_0":11
					},
					"indices":12,
					"material":0
				}
			]
		},
		{
			"name":"Plane.002",
			"primitives":[
				{
					"attributes":{
						"POSITION":13,
						"NORMAL":14,
						"TEXCOORD_0":15,
						"COLOR_0":16,
						"COLOR_1":17,
						"JOINTS_0":18,
						"WEIGHTS_0":19
					},
					"indices":20,
					"material":0
				}
			]
		},
		{
			"name":"Sphere.011",
			"primitives":[
				{
					"attributes":{
						"POSITION":21,
						"NORMAL":22,
						"TEXCOORD_0":23,
						"JOINTS_0":24,
						"WEIGHTS_0":25
					},
					"indices":26,
					"material":0
				}
			]
		},
		{
			"name":"Sphere.012",
			"primitives":[
				{
					"attributes":{
						"POSITION":27,
						"NORMAL":28,
						"TEXCOORD_0":29,
						"JOINTS_0":30,
						"WEIGHTS_0":31
					},
					"indices":32,
					"material":0
				}
			]
		},
		{
			"name":"Sphere.013",
			"primitives":[
				{
					"attributes":{
						"POSITION":33,
						"NORMAL":34,
						"TEXCOORD_0":35,
						"JOINTS_0":36,
						"WEIGHTS_0":37
					},
					"indices":38,
					"material":0
				}
			]
		},
		{
			"name":"Cylinder.007",
			"primitives":[
				{
					"attributes":{
						"POSITION":39,
						"NORMAL":40,
						"TEXCOORD_0":41,
						"JOINTS_0":42,
						"WEIGHTS_0":43
					},
					"indices":44,
					"material":0
				}
			]
		},
		{
			"name":"Cylinder.008",
			"primitives":[
				{
					"attributes":{
						"POSITION":46,
						"NORMAL":47,
						"TEXCOORD_0":48,
						"JOINTS_0":49,
						"WEIGHTS_0":50
					},
					"indices":51,
					"material":0
				}
			]
		},
		{
			"name":"Plane.004",
			"primitives":[
				{
					"attributes":{
						"POSITION":52,
						"NORMAL":53,
						"TEXCOORD_0":54,
						"JOINTS_0":55,
						"WEIGHTS_0":56
					},
					"indices":57,
					"material":0
				}
			]
		},
		{
			"name":"Sphere.017",
			"primitives":[
				{
					"attributes":{
						"POSITION":58,
						"NORMAL":59,
						"TEXCOORD_0":60,
						"JOINTS_0":61,
						"WEIGHTS_0":62
					},
					"indices":63,
					"material":0
				}
			]
		},
		{
			"name":"Sphere.018",
			"primitives":[
				{
					"attributes":{
						"POSITION":64,
						"NORMAL":65,
						"TEXCOORD_0":66,
						"JOINTS_0":67,
						"WEIGHTS_0":68
					},
					"indices":69,
					"material":0
				}
			]
		},
		{
			"name":"Sphere.019",
			"primitives":[
				{
					"attributes":{
						"POSITION":70,
						"NORMAL":71,
						"TEXCOORD_0":72,
						"JOINTS_0":73,
						"WEIGHTS_0":74
					},
					"indices":75,
					"material":0
				}
			]
		}
	],
	"textures":[
		{
			"sampler":0,
			"source":0
		}
	],
	"images":[
		{
			"mimeType":"image/png",
			"name":"palette",
			"uri":"palette.png"
		}
	],
	"skins":[
		{
			"inverseBindMatrices":6,
			"joints":[
				3,
				2,
				1,
				0
			],
			"name":"Armature.002"
		},
		{
			"inverseBindMatrices":45,
			"joints":[
				14,
				13,
				12,
				11
			],
			"name":"Armature.005"
		}
	],
	"accessors":[
		{
			"bufferView":0,
			"componentType":5126,
			"count":136,
			"max":[
				-1.2535794973373413,
				1.0699129104614258,
				0.09120718389749527
			],
			"min":[
				-1.8573890924453735,
				0.8874984979629517,
				-0.09120718389749527
			],
			"type":"VEC3"
		},
		{
			"bufferView":1,
			"componentType":5126,
			"count":136,
			"type":"VEC3"
		},
		{
			"bufferView":2,
			"componentType":5126,
			"count":136,
			"type":"VEC2"
		},
		{
			"bufferView":3,
			"componentType":5121,
			"count":136,
			"type":"VEC4"
		},
		{
			"bufferView":4,
			"componentType":5126,
			"count":136,
			"type":"VEC4"
		},
		{
			"bufferView":5,
			"componentType":5123,
			"count":372,
			"type":"SCALAR"
		},
		{
			"bufferView":6,
			"componentType":5126,
			"count":4,
			"type":"MAT4"
		},
		{
			"bufferView":7,
			"componentType":5126,
			"count":136,
			"max":[
				-1.9166244268417358,
				1.0699129104614258,
				0.09120718389749527
			],
			"min":[
				-2.5204339027404785,
				0.8874984979629517,
				-0.09120718389749527
			],
			"type":"VEC3"
		},
		{
			"bufferView":8,
			"componentType":5126,
			"count":136,
			"type":"VEC3"
		},
		{
			"bufferView":9,
			"componentType":5126,
			"count":136,
			"type":"VEC2"
		},
		{
			"bufferView":10,
			"componentType":5121,
			"count":136,
			"type":"VEC4"
		},
		{
			"bufferView":11,
			"componentType":5126,
			"count":136,
			"type":"VEC4"
		},
		{
			"bufferView":12,
			"componentType":5123,
			"count":372,
			"type":"SCALAR"
		},
		{
			"bufferView":13,
			"componentType":5126,
			"count":566,
			"max":[
				-2.466426134109497,
				1.5610988140106201,
				0.13357385993003845
			],
			"min":[
				-2.8401432037353516,
				0.8060855865478516,
				0.06775171309709549
			],
			"type":"VEC3"
		},
		{
			"bufferView":14,
			"componentType":5126,
			"count":566,
			"type":"VEC3"
		},
		{
			"bufferView":15,
			"componentType":5126,
			"count":566,
			"type":"VEC2"
		},
		{
			"bufferView":16,
			"componentType":5121,
			"count":566,
			"normalized":true,
			"type":"VEC4"
		},
		{
			"bufferView":17,
			"componentType":5123,
			"count":566,
			"normalized":true,
			"type":"VEC4"
		},
		{
			"bufferView":18,
			"componentType":5121,
			"count":566,
			"type":"VEC4"
		},
		{
			"bufferView":19,
			"componentType":5126,
			"count":566,
			"type":"VEC4"
		},
		{
			"bufferView":20,
			"componentType":5123,
			"count":2544,
			"type":"SCALAR"
		},
		{
			"bufferView":21,
			"componentType":5126,
			"count":596,
			"max":[
				-1.0175015926361084,
				1.1254993677139282,
				0.13796965777873993
			],
			"min":[
				-1.2934409379959106,
				0.8495598435401917,
				-0.1379697471857071
			],
			"type":"VEC3"
		},
		{
			"bufferView":22,
			"componentType":5126,
			"count":596,
			"type":"VEC3"
		},
		{
			"bufferView":23,
			"componentType":5126,
			"count":596,
			"type":"VEC2"
		},
		{
			"bufferView":24,
			"componentType":5121,
			"count":596,
			"type":"VEC4"
		},
		{
			"bufferView":25,
			"componentType":5126,
			"count":596,
			"type":"VEC4"
		},
		{
			"bufferView":26,
			"componentType":5123,
			"count":2880,
			"type":"SCALAR"
		},
		{
			"bufferView":27,
			"componentType":5126,
			"count":596,
			"max":[
				-1.7394856214523315,
				1.0918195247650146,
				0.11218322813510895
			],
			"min":[
				-1.963852047920227,
				0.86745285987854,
				-0.11218330264091492
			],
			"type":"VEC3"
		},
		{
			"bufferView":28,
			"componentType":5126,
			"count":596,
			"type":"VEC3"
		},
		{
			"bufferView":29,
			"componentType":5126,
			"count":596,
			"type":"VEC2"
		},
		{
			"bufferView":30,
			"componentType":5121,
			"count":596,
			"type":"VEC4"
		},
		{
			"bufferView":31,
			"componentType":5126,
			"count":596,
			"type":"VEC4"
		},
		{
			"bufferView":32,
			"componentType":5123,
			"count":2880,
			"type":"SCALAR"
		},
		{
			"bufferView":33,
			"componentType":5126,
			"count":596,
			"max":[
				-2.3986799716949463,
				1.0909340381622314,
				0.11129780858755112
			],
			"min":[
				-2.6212756633758545,
				0.8683382868766785,
				-0.11129788309335709
			],
			"type":"VEC3"
		},
		{
			"bufferView":34,
			"componentType":5126,
			"count":596,
			"type":"VEC3"
		},
		{
			"bufferView":35,
			"componentType":5126,
			"count":596,
			"type":"VEC2"
		},
		{
			"bufferView":36,
			"componentType":5121,
			"count":596,
			"type":"VEC4"
		},
		{
			"bufferView":37,
			"componentType":5126,
			"count":596,
			"type":"VEC4"
		},
		{
			"bufferView":38,
			"componentType":5123,
			"count":2880,
			"type":"SCALAR"
		},
		{
			"bufferView":39,
			"componentType":5126,
			"count":136,
			"max":[
				2.445110321044922,
				1.0748233795166016,
				0.09120725840330124
			],
			"min":[
				1.8413008451461792,
				0.8924088478088379,
				-0.09120731800794601
			],
			"type":"VEC3"
		},
		{
			"bufferView":40,
			"componentType":5126,
			"count":136,
			"type":"VEC3"
		},
		{
			"bufferView":41,
			"componentType":5126,
			"count":136,
			"type":"VEC2"
		},
		{
			"bufferView":42,
			"componentType":5121,
			"count":136,
			"type":"VEC4"
		},
		{
			"bufferView":43,
			"componentType":5126,
			"count":136,
			"type":"VEC4"
		},
		{
			"bufferView":44,
			"componentType":5123,
			"count":372,
			"type":"SCALAR"
		},
		{
			"bufferView":45,
			"componentType":5126,
			"count":4,
			"type":"MAT4"
		},
		{
			"bufferView":46,
			"componentType":5126,
			"count":136,
			"max":[
				1.782065510749817,
				1.0748233795166016,
				0.09120731800794601
			],
			"min":[
				1.1782559156417847,
				0.8924088478088379,
				-0.09120725840330124
			],
			"type":"VEC3"
		},
		{
			"bufferView":47,
			"componentType":5126,
			"count":136,
			"type":"VEC3"
		},
		{
			"bufferView":48,
			"componentType":5126,
			"count":136,
			"type":"VEC2"
		},
		{
			"bufferView":49,
			"componentType":5121,
			"count":136,
			"type":"VEC4"
		},
		{
			"bufferView":50,
			"componentType":5126,
			"count":136,
			"type":"VEC4"
		},
		{
			"bufferView":51,
			"componentType":5123,
			"count":372,
			"type":"SCALAR"
		},
		{
			"bufferView":52,
			"componentType":5126,
			"count":592,
			"max":[
				2.7484400272369385,
				1.5119959115982056,
				0.08665484189987183
			],
			"min":[
				2.374723434448242,
				0.7569827437400818,
				0.020829586312174797
			],
			"type":"VEC3"
		},
		{
			"bufferView":53,
			"componentType":5126,
			"count":592,
			"type":"VEC3"
		},
		{
			"bufferView":54,
			"componentType":5126,
			"count":592,
			"type":"VEC2"
		},
		{
			"bufferView":55,
			"componentType":5121,
			"count":592,
			"type":"VEC4"
		},
		{
			"bufferView":56,
			"componentType":5126,
			"count":592,
			"type":"VEC4"
		},
		{
			"bufferView":57,
			"componentType":5123,
			"count":2544,
			"type":"SCALAR"
		},
		{
			"bufferView":58,
			"componentType":5126,
			"count":604,
			"max":[
				2.545952081680298,
				1.0958445072174072,
				0.11129783093929291
			],
			"min":[
				2.3233563899993896,
				0.8732486963272095,
				-0.11129787564277649
			],
			"type":"VEC3"
		},
		{
			"bufferView":59,
			"componentType":5126,
			"count":604,
			"type":"VEC3"
		},
		{
			"bufferView":60,
			"componentType":5126,
			"count":604,
			"type":"VEC2"
		},
		{
			"bufferView":61,
			"componentType":5121,
			"count":604,
			"type":"VEC4"
		},
		{
			"bufferView":62,
			"componentType":5126,
			"count":604,
			"type":"VEC4"
		},
		{
			"bufferView":63,
			"componentType":5123,
			"count":2880,
			"type":"SCALAR"
		},
		{
			"bufferView":64,
			"componentType":5126,
			"count":596,
			"max":[
				1.8885284662246704,
				1.0967299938201904,
				0.11218331009149551
			],
			"min":[
				1.6641619205474854,
				0.872363269329071,
				-0.11218323558568954
			],
			"type":"VEC3"
		},
		{
			"bufferView":65,
			"componentType":5126,
			"count":596,
			"type":"VEC3"
		},
		{
			"bufferView":66,
			"componentType":5126,
			"count":596,
			"type":"VEC2"
		},
		{
			"bufferView":67,
			"componentType":5121,
			"count":596,
			"type":"VEC4"
		},
		{
			"bufferView":68,
			"componentType":5126,
			"count":596,
			"type":"VEC4"
		},
		{
			"bufferView":69,
			"componentType":5123,
			"count":2880,
			"type":"SCALAR"
		},
		{
			"bufferView":70,
			"componentType":5126,
			"count":594,
			"max":[
				1.218117356300354,
				1.1304097175598145,
				0.13796982169151306
			],
			"min":[
				0.9421780109405518,
				0.8544701933860779,
				-0.13796961307525635
			],
			"type":"VEC3"
		},
		{
			"bufferView":71,
			"componentType":5126,
			"count":594,
			"type":"VEC3"
		},
		{
			"bufferView":72,
			"componentType":5126,
			"count":594,
			"type":"VEC2"
		},
		{
			"bufferView":73,
			"componentType":5121,
			"count":594,
			"type":"VEC4"
		},
		{
			"bufferView":74,
			"componentType":5126,
			"count":594,
			"type":"VEC4"
		},
		{
			"bufferView":75,
			"componentType":5123,
			"count":2880,
			"type":"SCALAR"
		}
	],
	"bufferViews":[
		{
			"buffer":0,
			"byteLength":1632,
			"byteOffset":0,
			"target":34962
		},
		{
			"buffer":0,
			"byteLength":1632,
			"byteOffset":1632,
			"target":34962
		},
		{
			"buffer":0,
			"byteLength":1088,
			"byteOffset":3264,
			"target":34962
		},
		{
			"buffer":0,
			"byteLength":544,
			"byteOffset":4352,
			"target":34962
		},
		{
			"buffer":0,
			"byteLength":2176,
			"byteOffset":4896,
			"target":34962
		},
		{
			"buffer":0,
			"byteLength":744,
			"byteOffset":7072,
			"target":34963
		},
		{
			"buffer":0,
			"byteLength":256,
			"byteOffset":7816
		},
		{
			"buffer":0,
			"byteLength":1632,
			"byteOffset":8072,
			"target":34962
		},
		{
			"buffer":0,
			"byteLength":1632,
			"byteOffset":9704,
			"target":34962
		},
		{
			"buffer":0,
			"byteLength":1088,
			"byteOffset":11336,
			"target":34962
		},
		{
			"buffer":0,
			"byteLength":544,
			"byteOffset":12424,
			"target":34962
		},
		{
			"buffer":0,
			"byteLength":2176,
			"byteOffset":12968,
			"target":34962
		},
		{
			"buffer":0,
			"byteLength":744,
			"byteOffset":15144,
			"target":34963
		},
		{
			"buffer":0,
			"byteLength":6792,
			"byteOffset":15888,
			"target":34962
		},
		{
			"buffer":0,
			"byteLength":6792,
			"byteOffset":22680,
			"target":34962
		},
		{
			"buffer":0,
			"byteLength":4528,
			"byteOffset":29472,
			"target":34962
		},
		{
			"buffer":0,
			"byteLength":2264,
			"byteOffset":34000,
			"target":34962
		},
		{
			"buffer":0,
			"byteLength":4528,
			"byteOffset":36264,
			"target":34962
		},
		{
			"buffer":0,
			"byteLength":2264,
			"byteOffset":40792,
			"target":34962
		},
		{
			"buffer":0,
			"byteLength":9056,
			"byteOffset":43056,
			"target":34962
		},
		{
			"buffer":0,
			"byteLength":5088,
			"byteOffset":52112,
			"target":34963
		},
		{
			"buffer":0,
			"byteLength":7152,
			"byteOffset":57200,
			"target":34962
		},
		{
			"buffer":0,
			"byteLength":7152,
			"byteOffset":64352,
			"target":34962
		},
		{
			"buffer":0,
			"byteLength":4768,
			"byteOffset":71504,
			"target":34962
		},
		{
			"buffer":0,
			"byteLength":2384,
			"byteOffset":76272,
			"target":34962
		},
		{
			"buffer":0,
			"byteLength":9536,
			"byteOffset":78656,
			"target":34962
		},
		{
			"buffer":0,
			"byteLength":5760,
			"byteOffset":88192,
			"target":34963
		},
		{
			"buffer":0,
			"byteLength":7152,
			"byteOffset":93952,
			"target":34962
		},
		{
			"buffer":0,
			"byteLength":7152,
			"byteOffset":101104,
			"target":34962
		},
		{
			"buffer":0,
			"byteLength":4768,
			"byteOffset":108256,
			"target":34962
		},
		{
			"buffer":0,
			"byteLength":2384,
			"byteOffset":113024,
			"target":34962
		},
		{
			"buffer":0,
			"byteLength":9536,
			"byteOffset":115408,
			"target":34962
		},
		{
			"buffer":0,
			"byteLength":5760,
			"byteOffset":124944,
			"target":34963
		},
		{
			"buffer":0,
			"byteLength":7152,
			"byteOffset":130704,
			"target":34962
		},
		{
			"buffer":0,
			"byteLength":7152,
			"byteOffset":137856,
			"target":34962
		},
		{
			"buffer":0,
			"byteLength":4768,
			"byteOffset":145008,
			"target":34962
		},
		{
			"buffer":0,
			"byteLength":2384,
			"byteOffset":149776,
			"target":34962
		},
		{
			"buffer":0,
			"byteLength":9536,
			"byteOffset":152160,
			"target":34962
		},
		{
			"buffer":0,
			"byteLength":5760,
			"byteOffset":161696,
			"target":34963
		},
		{
			"buffer":0,
			"byteLength":1632,
			"byteOffset":167456,
			"target":34962
		},
		{
			"buffer":0,
			"byteLength":1632,
			"byteOffset":169088,
			"target":34962
		},
		{
			"buffer":0,
			"byteLength":1088,
			"byteOffset":170720,
			"target":34962
		},
		{
			"buffer":0,
			"byteLength":544,
			"byteOffset":171808,
			"target":34962
		},
		{
			"buffer":0,
			"byteLength":2176,
			"byteOffset":172352,
			"target":34962
		},
		{
			"buffer":0,
			"byteLength":744,
			"byteOffset":174528,
			"target":34963
		},
		{
			"buffer":0,
			"byteLength":256,
			"byteOffset":175272
		},
		{
			"buffer":0,
			"byteLength":1632,
			"byteOffset":175528,
			"target":34962
		},
		{
			"buffer":0,
			"byteLength":1632,
			"byteOffset":177160,
			"target":34962
		},
		{
			"buffer":0,
			"byteLength":1088,
			"byteOffset":178792,
			"target":34962
		},
		{
			"buffer":0,
			"byteLength":544,
			"byteOffset":179880,
			"target":34962
		},
		{
			"buffer":0,
			"byteLength":2176,
			"byteOffset":180424,
			"target":34962
		},
		{
			"buffer":0,
			"byteLength":744,
			"byteOffset":182600,
			"target":34963
		},
		{
			"buffer":0,
			"byteLength":7104,
			"byteOffset":183344,
			"target":34962
		},
		{
			"buffer":0,
			"byteLength":7104,
			"byteOffset":190448,
			"target":34962
		},
		{
			"buffer":0,
			"byteLength":4736,
			"byteOffset":197552,
			"target":34962
		},
		{
			"buffer":0,
			"byteLength":2368,
			"byteOffset":202288,
			"target":34962
		},
		{
			"buffer":0,
			"byteLength":9472,
			"byteOffset":204656,
			"target":34962
		},
		{
			"buffer":0,
			"byteLength":5088,
			"byteOffset":214128,
			"target":34963
		},
		{
			"buffer":0,
			"byteLength":7248,
			"byteOffset":219216,
			"target":34962
		},
		{
			"buffer":0,
			"byteLength":7248,
			"byteOffset":226464,
			"target":34962
		},
		{
			"buffer":0,
			"byteLength":4832,
			"byteOffset":233712,
			"target":34962
		},
		{
			"buffer":0,
			"byteLength":2416,
			"byteOffset":238544,
			"target":34962
		},
		{
			"buffer":0,
			"byteLength":9664,
			"byteOffset":240960,
			"target":34962
		},
		{
			"buffer":0,
			"byteLength":5760,
			"byteOffset":250624,
			"target":34963
		},
		{
			"buffer":0,
			"byteLength":7152,
			"byteOffset":256384,
			"target":34962
		},
		{
			"buffer":0,
			"byteLength":7152,
			"byteOffset":263536,
			"target":34962
		},
		{
			"buffer":0,
			"byteLength":4768,
			"byteOffset":270688,
			"target":34962
		},
		{
			"buffer":0,
			"byteLength":2384,
			"byteOffset":275456,
			"target":34962
		},
		{
			"buffer":0,
			"byteLength":9536,
			"byteOffset":277840,
			"target":34962
		},
		{
			"buffer":0,
			"byteLength":5760,
			"byteOffset":287376,
			"target":34963
		},
		{
			"buffer":0,
			"byteLength":7128,
			"byteOffset":293136,
			"target":34962
		},
		{
			"buffer":0,
			"byteLength":7128,
			"byteOffset":300264,
			"target":34962
		},
		{
			"buffer":0,
			"byteLength":4752,
			"byteOffset":307392,
			"target":34962
		},
		{
			"buffer":0,
			"byteLength":2376,
			"byteOffset":312144,
			"target":34962
		},
		{
			"buffer":0,
			"byteLength":9504,
			"byteOffset":314520,
			"target":34962
		},
		{
			"buffer":0,
			"byteLength":5760,
			"byteOffset":324024,
			"target":34963
		}
	],
	"samplers":[
		{
			"magFilter":9729,
			"minFilter":9987
		}
	],
	"buffers":[
		{
			"byteLength":329784,
			"uri":"proteza.bin"
		}
	]
}
