{
	"asset":{
		"generator":"Khronos glTF Blender I/O v4.5.48",
		"version":"2.0"
	},
	"scene":0,
	"scenes":[
		{
			"name":"Scene",
			"nodes":[
				0
			]
		}
	],
	"nodes":[
		{
			"mesh":0,
			"name":"Torus Knot 2 x 3"
		}
	],
	"materials":[
		{
			"doubleSided":true,
			"name":"Material.008",
			"pbrMetallicRoughness":{
				"baseColorTexture":{
					"index":0
				},
				"metallicFactor":0.20000000298023224
			}
		}
	],
	"meshes":[
		{
			"name":"Mesh.002",
			"primitives":[
				{
					"attributes":{
						"POSITION":0,
						"NORMAL":1,
						"TEXCOORD_0":2
					},
					"indices":3,
					"material":0
				}
			]
		}
	],
	"textures":[
		{
			"sampler":0,
			"source":0
		}
	],
	"images":[
		{
			"mimeType":"image/png",
			"name":"palette",
			"uri":"../../../textures/palette.png"
		}
	],
	"accessors":[
		{
			"bufferView":0,
			"componentType":5126,
			"count":6244,
			"max":[
				0.7547338604927063,
				0.3688645362854004,
				0.6855087280273438
			],
			"min":[
				-0.784260094165802,
				-0.09147066622972488,
				-0.5685960054397583
			],
			"type":"VEC3"
		},
		{
			"bufferView":1,
			"componentType":5126,
			"count":6244,
			"type":"VEC3"
		},
		{
			"bufferView":2,
			"componentType":5126,
			"count":6244,
			"type":"VEC2"
		},
		{
			"bufferView":3,
			"componentType":5123,
			"count":22806,
			"type":"SCALAR"
		}
	],
	"bufferViews":[
		{
			"buffer":0,
			"byteLength":74928,
			"byteOffset":0,
			"target":34962
		},
		{
			"buffer":0,
			"byteLength":74928,
			"byteOffset":74928,
			"target":34962
		},
		{
			"buffer":0,
			"byteLength":49952,
			"byteOffset":149856,
			"target":34962
		},
		{
			"buffer":0,
			"byteLength":45612,
			"byteOffset":199808,
			"target":34963
		}
	],
	"samplers":[
		{
			"magFilter":9729,
			"minFilter":9987
		}
	],
	"buffers":[
		{
			"byteLength":245420,
			"uri":"noddle.bin"
		}
	]
}
