{
	"asset":{
		"generator":"Khronos glTF Blender I/O v4.4.56",
		"version":"2.0"
	},
	"scene":0,
	"scenes":[
		{
			"name":"Scene",
			"nodes":[
				0,
				1,
				2
			]
		}
	],
	"nodes":[
		{
			"mesh":0,
			"name":"Plane"
		},
		{
			"mesh":1,
			"name":"Sphere"
		},
		{
			"mesh":2,
			"name":"Cylinder"
		}
	],
	"materials":[
		{
			"doubleSided":true,
			"name":"Material.001",
			"pbrMetallicRoughness":{
				"baseColorTexture":{
					"index":0
				},
				"metallicFactor":0,
				"roughnessFactor":0.5
			}
		}
	],
	"meshes":[
		{
			"name":"Plane.001",
			"primitives":[
				{
					"attributes":{
						"POSITION":0,
						"NORMAL":1,
						"TEXCOORD_0":2
					},
					"indices":3,
					"material":0
				}
			]
		},
		{
			"name":"Sphere.007",
			"primitives":[
				{
					"attributes":{
						"POSITION":4,
						"NORMAL":5,
						"TEXCOORD_0":6
					},
					"indices":7,
					"material":0
				}
			]
		},
		{
			"name":"Cylinder",
			"primitives":[
				{
					"attributes":{
						"POSITION":8,
						"NORMAL":9,
						"TEXCOORD_0":10
					},
					"indices":11,
					"material":0
				}
			]
		}
	],
	"textures":[
		{
			"sampler":0,
			"source":0
		}
	],
	"images":[
		{
			"mimeType": "image/png",
			"name": "palette",
			"uri": "../../../textures/palette.png"
		}
	],
	"accessors":[
		{
			"bufferView":0,
			"componentType":5126,
			"count":1082,
			"max":[
				0.08464283496141434,
				0.14513692259788513,
				0.08189991861581802
			],
			"min":[
				-0.07915698736906052,
				-0.008884243667125702,
				-0.08189990371465683
			],
			"type":"VEC3"
		},
		{
			"bufferView":1,
			"componentType":5126,
			"count":1082,
			"type":"VEC3"
		},
		{
			"bufferView":2,
			"componentType":5126,
			"count":1082,
			"type":"VEC2"
		},
		{
			"bufferView":3,
			"componentType":5123,
			"count":4032,
			"type":"SCALAR"
		},
		{
			"bufferView":4,
			"componentType":5126,
			"count":245,
			"max":[
				0.028830511495471,
				0.18336260318756104,
				0.02645706757903099
			],
			"min":[
				-0.024006258696317673,
				0.13194312155246735,
				-0.026401080191135406
			],
			"type":"VEC3"
		},
		{
			"bufferView":5,
			"componentType":5126,
			"count":245,
			"type":"VEC3"
		},
		{
			"bufferView":6,
			"componentType":5126,
			"count":245,
			"type":"VEC2"
		},
		{
			"bufferView":7,
			"componentType":5123,
			"count":1038,
			"type":"SCALAR"
		},
		{
			"bufferView":8,
			"componentType":5126,
			"count":90,
			"max":[
				0.0039438228122889996,
				0.20094163715839386,
				0.002896703779697418
			],
			"min":[
				-0.015301322564482689,
				0.180624321103096,
				-0.00290570012293756
			],
			"type":"VEC3"
		},
		{
			"bufferView":9,
			"componentType":5126,
			"count":90,
			"type":"VEC3"
		},
		{
			"bufferView":10,
			"componentType":5126,
			"count":90,
			"type":"VEC2"
		},
		{
			"bufferView":11,
			"componentType":5123,
			"count":282,
			"type":"SCALAR"
		}
	],
	"bufferViews":[
		{
			"buffer":0,
			"byteLength":12984,
			"byteOffset":0,
			"target":34962
		},
		{
			"buffer":0,
			"byteLength":12984,
			"byteOffset":12984,
			"target":34962
		},
		{
			"buffer":0,
			"byteLength":8656,
			"byteOffset":25968,
			"target":34962
		},
		{
			"buffer":0,
			"byteLength":8064,
			"byteOffset":34624,
			"target":34963
		},
		{
			"buffer":0,
			"byteLength":2940,
			"byteOffset":42688,
			"target":34962
		},
		{
			"buffer":0,
			"byteLength":2940,
			"byteOffset":45628,
			"target":34962
		},
		{
			"buffer":0,
			"byteLength":1960,
			"byteOffset":48568,
			"target":34962
		},
		{
			"buffer":0,
			"byteLength":2076,
			"byteOffset":50528,
			"target":34963
		},
		{
			"buffer":0,
			"byteLength":1080,
			"byteOffset":52604,
			"target":34962
		},
		{
			"buffer":0,
			"byteLength":1080,
			"byteOffset":53684,
			"target":34962
		},
		{
			"buffer":0,
			"byteLength":720,
			"byteOffset":54764,
			"target":34962
		},
		{
			"buffer":0,
			"byteLength":564,
			"byteOffset":55484,
			"target":34963
		}
	],
	"samplers":[
		{
			"magFilter":9729,
			"minFilter":9987
		}
	],
	"buffers":[
		{
			"byteLength":56048,
			"uri":"babeczka.bin"
		}
	]
}
