{
	"asset":{
		"generator":"Khronos glTF Blender I/O v5.1.19",
		"version":"2.0"
	},
	"scene":0,
	"scenes":[
		{
			"name":"Scene",
			"nodes":[
				0,
				1
			]
		}
	],
	"nodes":[
		{
			"mesh":0,
			"name":"Sphere"
		},
		{
			"mesh":1,
			"name":"Sphere.001"
		}
	],
	"animations":[
		{
			"channels":[
				{
					"sampler":0,
					"target":{
						"node":0,
						"path":"rotation"
					}
				}
			],
			"name":"SphereAction",
			"samplers":[
				{
					"input":20,
					"interpolation":"LINEAR",
					"output":21
				}
			]
		},
		{
			"channels":[
				{
					"sampler":0,
					"target":{
						"node":1,
						"path":"rotation"
					}
				}
			],
			"name":"SphereAction.001",
			"samplers":[
				{
					"input":20,
					"interpolation":"LINEAR",
					"output":21
				}
			]
		}
	],
	"materials":[
		{
			"doubleSided":true,
			"name":"Material.003",
			"pbrMetallicRoughness":{
				"baseColorTexture":{
					"index":0
				},
				"metallicFactor":0.5,
				"roughnessFactor":0.5
			}
		},
		{
			"doubleSided":true,
			"name":"Material.002",
			"pbrMetallicRoughness":{
				"baseColorTexture":{
					"index":1
				},
				"metallicFactor":0.5,
				"roughnessFactor":0.5
			}
		},
		{
			"doubleSided":true,
			"name":"Material.004",
			"pbrMetallicRoughness":{
				"baseColorTexture":{
					"index":2
				},
				"metallicFactor":0.5,
				"roughnessFactor":0.30000001192092896
			}
		},
		{
			"doubleSided":true,
			"name":"Material.001",
			"pbrMetallicRoughness":{
				"baseColorTexture":{
					"index":3
				},
				"metallicFactor":0.5,
				"roughnessFactor":0.20000000298023224
			}
		},
		{
			"alphaMode":"BLEND",
			"doubleSided":true,
			"name":"Material",
			"pbrMetallicRoughness":{
				"baseColorFactor":[
					1,
					1,
					1,
					0.949999988079071
				],
				"baseColorTexture":{
					"index":4
				},
				"metallicFactor":0.30000001192092896
			}
		}
	],
	"meshes":[
		{
			"name":"Sphere",
			"primitives":[
				{
					"attributes":{
						"POSITION":0,
						"NORMAL":1,
						"TEXCOORD_0":2
					},
					"indices":3,
					"material":0
				},
				{
					"attributes":{
						"POSITION":4,
						"NORMAL":5,
						"TEXCOORD_0":6
					},
					"indices":7,
					"material":1
				},
				{
					"attributes":{
						"POSITION":8,
						"NORMAL":9,
						"TEXCOORD_0":10
					},
					"indices":11,
					"material":2
				},
				{
					"attributes":{
						"POSITION":12,
						"NORMAL":13,
						"TEXCOORD_0":14
					},
					"indices":15,
					"material":3
				}
			]
		},
		{
			"name":"Sphere.001",
			"primitives":[
				{
					"attributes":{
						"POSITION":16,
						"NORMAL":17,
						"TEXCOORD_0":18
					},
					"indices":19,
					"material":4
				}
			]
		}
	],
	"textures":[
		{
			"sampler":0,
			"source":0
		},
		{
			"sampler":0,
			"source":0
		},
		{
			"sampler":0,
			"source":0
		},
		{
			"sampler":0,
			"source":0
		},
		{
			"sampler":1,
			"source":0
		}
	],
	"images":[
		{
			"mimeType": "image/png",
			"name": "palette",
			"uri": "../../../textures/palette.png"
		}
	],
	"accessors":[
		{
			"bufferView":0,
			"componentType":5126,
			"count":977,
			"max":[
				1.0748283863067627,
				1.4174259901046753,
				2.324380874633789
			],
			"min":[
				-1.0748459100723267,
				0.2750244736671448,
				0.17467284202575684
			],
			"type":"VEC3"
		},
		{
			"bufferView":1,
			"componentType":5126,
			"count":977,
			"type":"VEC3"
		},
		{
			"bufferView":2,
			"componentType":5126,
			"count":977,
			"type":"VEC2"
		},
		{
			"bufferView":3,
			"componentType":5123,
			"count":5064,
			"type":"SCALAR"
		},
		{
			"bufferView":4,
			"componentType":5126,
			"count":1365,
			"max":[
				1,
				3.262622356414795,
				2.2876691818237305
			],
			"min":[
				-1.0007635354995728,
				-0.27381277084350586,
				-2.2904326915740967
			],
			"type":"VEC3"
		},
		{
			"bufferView":5,
			"componentType":5126,
			"count":1365,
			"type":"VEC3"
		},
		{
			"bufferView":6,
			"componentType":5126,
			"count":1365,
			"type":"VEC2"
		},
		{
			"bufferView":7,
			"componentType":5123,
			"count":4680,
			"type":"SCALAR"
		},
		{
			"bufferView":8,
			"componentType":5126,
			"count":1740,
			"max":[
				0.5836290717124939,
				2.068023204803467,
				1.8971850872039795
			],
			"min":[
				-0.5857846140861511,
				0.7003488540649414,
				0.7277698516845703
			],
			"type":"VEC3"
		},
		{
			"bufferView":9,
			"componentType":5126,
			"count":1740,
			"type":"VEC3"
		},
		{
			"bufferView":10,
			"componentType":5126,
			"count":1740,
			"type":"VEC2"
		},
		{
			"bufferView":11,
			"componentType":5123,
			"count":2760,
			"type":"SCALAR"
		},
		{
			"bufferView":12,
			"componentType":5126,
			"count":130,
			"max":[
				1.077620506286621,
				1.1467342376708984,
				-1.0308656692504883
			],
			"min":[
				0.8781236410140991,
				0.6258305907249451,
				-1.5517692565917969
			],
			"type":"VEC3"
		},
		{
			"bufferView":13,
			"componentType":5126,
			"count":130,
			"type":"VEC3"
		},
		{
			"bufferView":14,
			"componentType":5126,
			"count":130,
			"type":"VEC2"
		},
		{
			"bufferView":15,
			"componentType":5123,
			"count":372,
			"type":"SCALAR"
		},
		{
			"bufferView":16,
			"componentType":5126,
			"count":360,
			"max":[
				1.0022776126861572,
				1.0878944396972656,
				2.2546792030334473
			],
			"min":[
				-1.004561185836792,
				0.9668347835540771,
				0.24474549293518066
			],
			"type":"VEC3"
		},
		{
			"bufferView":17,
			"componentType":5126,
			"count":360,
			"type":"VEC3"
		},
		{
			"bufferView":18,
			"componentType":5126,
			"count":360,
			"type":"VEC2"
		},
		{
			"bufferView":19,
			"componentType":5123,
			"count":540,
			"type":"SCALAR"
		},
		{
			"bufferView":20,
			"componentType":5126,
			"count":1,
			"max":[
				0.041666666666666664
			],
			"min":[
				0.041666666666666664
			],
			"type":"SCALAR"
		},
		{
			"bufferView":21,
			"componentType":5126,
			"count":1,
			"type":"VEC4"
		}
	],
	"bufferViews":[
		{
			"buffer":0,
			"byteLength":11724,
			"byteOffset":0,
			"target":34962
		},
		{
			"buffer":0,
			"byteLength":11724,
			"byteOffset":11724,
			"target":34962
		},
		{
			"buffer":0,
			"byteLength":7816,
			"byteOffset":23448,
			"target":34962
		},
		{
			"buffer":0,
			"byteLength":10128,
			"byteOffset":31264,
			"target":34963
		},
		{
			"buffer":0,
			"byteLength":16380,
			"byteOffset":41392,
			"target":34962
		},
		{
			"buffer":0,
			"byteLength":16380,
			"byteOffset":57772,
			"target":34962
		},
		{
			"buffer":0,
			"byteLength":10920,
			"byteOffset":74152,
			"target":34962
		},
		{
			"buffer":0,
			"byteLength":9360,
			"byteOffset":85072,
			"target":34963
		},
		{
			"buffer":0,
			"byteLength":20880,
			"byteOffset":94432,
			"target":34962
		},
		{
			"buffer":0,
			"byteLength":20880,
			"byteOffset":115312,
			"target":34962
		},
		{
			"buffer":0,
			"byteLength":13920,
			"byteOffset":136192,
			"target":34962
		},
		{
			"buffer":0,
			"byteLength":5520,
			"byteOffset":150112,
			"target":34963
		},
		{
			"buffer":0,
			"byteLength":1560,
			"byteOffset":155632,
			"target":34962
		},
		{
			"buffer":0,
			"byteLength":1560,
			"byteOffset":157192,
			"target":34962
		},
		{
			"buffer":0,
			"byteLength":1040,
			"byteOffset":158752,
			"target":34962
		},
		{
			"buffer":0,
			"byteLength":744,
			"byteOffset":159792,
			"target":34963
		},
		{
			"buffer":0,
			"byteLength":4320,
			"byteOffset":160536,
			"target":34962
		},
		{
			"buffer":0,
			"byteLength":4320,
			"byteOffset":164856,
			"target":34962
		},
		{
			"buffer":0,
			"byteLength":2880,
			"byteOffset":169176,
			"target":34962
		},
		{
			"buffer":0,
			"byteLength":1080,
			"byteOffset":172056,
			"target":34963
		},
		{
			"buffer":0,
			"byteLength":4,
			"byteOffset":173136
		},
		{
			"buffer":0,
			"byteLength":16,
			"byteOffset":173140
		}
	],
	"samplers":[
		{
			"magFilter":9728,
			"minFilter":9984
		},
		{
			"magFilter":9729,
			"minFilter":9987
		}
	],
	"buffers":[
		{
			"byteLength":173156,
			"uri":"blender_on.bin"
		}
	]
}
