{
	"asset":{
		"generator":"Khronos glTF Blender I/O v4.5.48",
		"version":"2.0"
	},
	"scene":0,
	"scenes":[
		{
			"name":"Scene",
			"nodes":[
				0
			]
		}
	],
	"nodes":[
		{
			"mesh":0,
			"name":"Sphere"
		}
	],
	"materials":[
		{
			"doubleSided":true,
			"name":"Material.003",
			"pbrMetallicRoughness":{
				"baseColorTexture":{
					"index":0
				},
				"metallicFactor":0.5,
				"roughnessFactor":0.5
			}
		},
		{
			"doubleSided":true,
			"name":"Material.002",
			"pbrMetallicRoughness":{
				"baseColorTexture":{
					"index":1
				},
				"metallicFactor":0.5,
				"roughnessFactor":0.5
			}
		},
		{
			"doubleSided":true,
			"name":"Material.004",
			"pbrMetallicRoughness":{
				"baseColorTexture":{
					"index":2
				},
				"metallicFactor":0.5,
				"roughnessFactor":0.30000001192092896
			}
		},
		{
			"doubleSided":true,
			"name":"Material.001",
			"pbrMetallicRoughness":{
				"baseColorTexture":{
					"index":3
				},
				"metallicFactor":0.5,
				"roughnessFactor":0.20000000298023224
			}
		}
	],
	"meshes":[
		{
			"name":"Sphere",
			"primitives":[
				{
					"attributes":{
						"POSITION":0,
						"NORMAL":1,
						"TEXCOORD_0":2
					},
					"indices":3,
					"material":0
				},
				{
					"attributes":{
						"POSITION":4,
						"NORMAL":5,
						"TEXCOORD_0":6
					},
					"indices":7,
					"material":1
				},
				{
					"attributes":{
						"POSITION":8,
						"NORMAL":9,
						"TEXCOORD_0":10
					},
					"indices":11,
					"material":2
				},
				{
					"attributes":{
						"POSITION":12,
						"NORMAL":13,
						"TEXCOORD_0":14
					},
					"indices":15,
					"material":3
				}
			]
		}
	],
	"textures":[
		{
			"sampler":0,
			"source":0
		},
		{
			"sampler":0,
			"source":0
		},
		{
			"sampler":0,
			"source":0
		},
		{
			"sampler":0,
			"source":0
		}
	],
	"images":[
		{
			"mimeType":"image/png",
			"name":"palette",
			"uri":"../../../textures/palette.png"
		}
	],
	"accessors":[
		{
			"bufferView":0,
			"componentType":5126,
			"count":955,
			"max":[
				1.0748542547225952,
				1.4174259901046753,
				2.3243203163146973
			],
			"min":[
				-1.0748200416564941,
				0.2750244736671448,
				0.1746121644973755
			],
			"type":"VEC3"
		},
		{
			"bufferView":1,
			"componentType":5126,
			"count":955,
			"type":"VEC3"
		},
		{
			"bufferView":2,
			"componentType":5126,
			"count":955,
			"type":"VEC2"
		},
		{
			"bufferView":3,
			"componentType":5123,
			"count":5064,
			"type":"SCALAR"
		},
		{
			"bufferView":4,
			"componentType":5126,
			"count":1365,
			"max":[
				1,
				3.262622356414795,
				2.2876691818237305
			],
			"min":[
				-1.0007635354995728,
				-0.27381277084350586,
				-2.2904326915740967
			],
			"type":"VEC3"
		},
		{
			"bufferView":5,
			"componentType":5126,
			"count":1365,
			"type":"VEC3"
		},
		{
			"bufferView":6,
			"componentType":5126,
			"count":1365,
			"type":"VEC2"
		},
		{
			"bufferView":7,
			"componentType":5123,
			"count":4680,
			"type":"SCALAR"
		},
		{
			"bufferView":8,
			"componentType":5126,
			"count":1738,
			"max":[
				0.5668614506721497,
				2.068023204803467,
				1.8956395387649536
			],
			"min":[
				-0.575735867023468,
				0.7003488540649414,
				0.7441679239273071
			],
			"type":"VEC3"
		},
		{
			"bufferView":9,
			"componentType":5126,
			"count":1738,
			"type":"VEC3"
		},
		{
			"bufferView":10,
			"componentType":5126,
			"count":1738,
			"type":"VEC2"
		},
		{
			"bufferView":11,
			"componentType":5123,
			"count":2760,
			"type":"SCALAR"
		},
		{
			"bufferView":12,
			"componentType":5126,
			"count":130,
			"max":[
				1.077620506286621,
				1.1467342376708984,
				-1.0308656692504883
			],
			"min":[
				0.8781236410140991,
				0.6258305907249451,
				-1.5517692565917969
			],
			"type":"VEC3"
		},
		{
			"bufferView":13,
			"componentType":5126,
			"count":130,
			"type":"VEC3"
		},
		{
			"bufferView":14,
			"componentType":5126,
			"count":130,
			"type":"VEC2"
		},
		{
			"bufferView":15,
			"componentType":5123,
			"count":372,
			"type":"SCALAR"
		}
	],
	"bufferViews":[
		{
			"buffer":0,
			"byteLength":11460,
			"byteOffset":0,
			"target":34962
		},
		{
			"buffer":0,
			"byteLength":11460,
			"byteOffset":11460,
			"target":34962
		},
		{
			"buffer":0,
			"byteLength":7640,
			"byteOffset":22920,
			"target":34962
		},
		{
			"buffer":0,
			"byteLength":10128,
			"byteOffset":30560,
			"target":34963
		},
		{
			"buffer":0,
			"byteLength":16380,
			"byteOffset":40688,
			"target":34962
		},
		{
			"buffer":0,
			"byteLength":16380,
			"byteOffset":57068,
			"target":34962
		},
		{
			"buffer":0,
			"byteLength":10920,
			"byteOffset":73448,
			"target":34962
		},
		{
			"buffer":0,
			"byteLength":9360,
			"byteOffset":84368,
			"target":34963
		},
		{
			"buffer":0,
			"byteLength":20856,
			"byteOffset":93728,
			"target":34962
		},
		{
			"buffer":0,
			"byteLength":20856,
			"byteOffset":114584,
			"target":34962
		},
		{
			"buffer":0,
			"byteLength":13904,
			"byteOffset":135440,
			"target":34962
		},
		{
			"buffer":0,
			"byteLength":5520,
			"byteOffset":149344,
			"target":34963
		},
		{
			"buffer":0,
			"byteLength":1560,
			"byteOffset":154864,
			"target":34962
		},
		{
			"buffer":0,
			"byteLength":1560,
			"byteOffset":156424,
			"target":34962
		},
		{
			"buffer":0,
			"byteLength":1040,
			"byteOffset":157984,
			"target":34962
		},
		{
			"buffer":0,
			"byteLength":744,
			"byteOffset":159024,
			"target":34963
		}
	],
	"samplers":[
		{
			"magFilter":9728,
			"minFilter":9984
		}
	],
	"buffers":[
		{
			"byteLength":159768,
			"uri":"blender.bin"
		}
	]
}
