{
	"asset":{
		"generator":"Khronos glTF Blender I/O v4.5.48",
		"version":"2.0"
	},
	"scene":0,
	"scenes":[
		{
			"name":"Scene",
			"nodes":[
				0
			]
		}
	],
	"nodes":[
		{
			"mesh":0,
			"name":"Sphere",
			"translation":[
				0,
				0.9349432587623596,
				0
			]
		}
	],
	"materials":[
		{
			"doubleSided":true,
			"name":"Material.001",
			"pbrMetallicRoughness":{
				"baseColorTexture":{
					"index":0
				},
				"metallicFactor":0.10000000149011612,
				"roughnessFactor":0.20000000298023224
			}
		}
	],
	"meshes":[
		{
			"name":"Sphere",
			"primitives":[
				{
					"attributes":{
						"POSITION":0,
						"NORMAL":1,
						"TEXCOORD_0":2
					},
					"indices":3,
					"material":0
				}
			]
		}
	],
	"textures":[
		{
			"sampler":0,
			"source":0
		}
	],
	"images":[
		{
			"mimeType": "image/png",
			"name": "palette",
			"uri": "../../../textures/palette.png"
		}
	],
	"accessors":[
		{
			"bufferView":0,
			"componentType":5126,
			"count":6481,
			"max":[
				0.7005897760391235,
				-0.7014393210411072,
				0.7005897164344788
			],
			"min":[
				-0.700589656829834,
				-0.9238799214363098,
				-0.7005895972251892
			],
			"type":"VEC3"
		},
		{
			"bufferView":1,
			"componentType":5126,
			"count":6481,
			"type":"VEC3"
		},
		{
			"bufferView":2,
			"componentType":5126,
			"count":6481,
			"type":"VEC2"
		},
		{
			"bufferView":3,
			"componentType":5123,
			"count":35328,
			"type":"SCALAR"
		}
	],
	"bufferViews":[
		{
			"buffer":0,
			"byteLength":77772,
			"byteOffset":0,
			"target":34962
		},
		{
			"buffer":0,
			"byteLength":77772,
			"byteOffset":77772,
			"target":34962
		},
		{
			"buffer":0,
			"byteLength":51848,
			"byteOffset":155544,
			"target":34962
		},
		{
			"buffer":0,
			"byteLength":70656,
			"byteOffset":207392,
			"target":34963
		}
	],
	"samplers":[
		{
			"magFilter":9728,
			"minFilter":9984
		}
	],
	"buffers":[
		{
			"byteLength":278048,
			"uri":"deep_plate.bin"
		}
	]
}
