{
	"asset":{
		"generator":"Khronos glTF Blender I/O v5.1.19",
		"version":"2.0"
	},
	"scene":0,
	"scenes":[
		{
			"name":"Scene",
			"nodes":[
				7
			]
		}
	],
	"nodes":[
		{
			"name":"noz-p",
			"rotation":[
				-1.7763570511584873e-15,
				-1.1920928955078125e-07,
				2.1444311543816394e-22,
				1
			],
			"scale":[
				0.9999999403953552,
				0.9999999403953552,
				0.9999999403953552
			],
			"translation":[
				-1.6955383763672671e-09,
				1.9171080589294434,
				-3.6909888478930952e-09
			]
		},
		{
			"children":[
				0
			],
			"name":"przedramie-p",
			"rotation":[
				-1.7763568394002505e-15,
				1.1920928955078125e-07,
				1.3234891378570253e-23,
				1
			],
			"scale":[
				0.9999999403953552,
				0.9999999403953552,
				0.9999999403953552
			],
			"translation":[
				-3.5595149938671966e-08,
				1.8108067512512207,
				1.3351893812796334e-08
			]
		},
		{
			"children":[
				1
			],
			"name":"ramie-p",
			"rotation":[
				-1.7763570511584873e-15,
				-1.1920928955078125e-07,
				2.1444311543816394e-22,
				1
			],
			"scale":[
				0.9999999403953552,
				0.9999999403953552,
				0.9999999403953552
			],
			"translation":[
				-1.6955401527241065e-09,
				0.6407718658447266,
				-4.651429463820023e-09
			]
		},
		{
			"children":[
				2
			],
			"name":"bark-p",
			"rotation":[
				-1.7763570511584873e-15,
				-4.440892627896218e-16,
				2.6848474645830948e-24,
				1
			],
			"scale":[
				0.9999999403953552,
				0.9999999403953552,
				0.9999999403953552
			],
			"translation":[
				3.0299973487854004,
				3.0707125663757324,
				-0.1421852856874466
			]
		},
		{
			"mesh":0,
			"name":"Plane.001",
			"skin":0
		},
		{
			"mesh":1,
			"name":"Sphere.003",
			"skin":0
		},
		{
			"children":[
				4,
				5,
				3
			],
			"name":"Armature.002",
			"rotation":[
				0.5,
				0.5,
				0.5,
				0.5
			],
			"scale":[
				0.32300543785095215,
				0.32300543785095215,
				0.32300543785095215
			]
		},
		{
			"children":[
				6
			],
			"name":"Empty"
		}
	],
	"materials":[
		{
			"doubleSided":true,
			"name":"Material.001",
			"pbrMetallicRoughness":{
				"baseColorTexture":{
					"index":0
				},
				"metallicFactor":0,
				"roughnessFactor":0.668181836605072
			}
		}
	],
	"meshes":[
		{
			"name":"Plane.002",
			"primitives":[
				{
					"attributes":{
						"POSITION":0,
						"NORMAL":1,
						"TEXCOORD_0":2,
						"COLOR_0":3,
						"COLOR_1":4,
						"JOINTS_0":5,
						"WEIGHTS_0":6
					},
					"indices":7,
					"material":0
				}
			]
		},
		{
			"name":"Sphere.013",
			"primitives":[
				{
					"attributes":{
						"POSITION":9,
						"NORMAL":10,
						"TEXCOORD_0":11,
						"JOINTS_0":12,
						"WEIGHTS_0":13
					},
					"indices":14,
					"material":0
				}
			]
		}
	],
	"textures":[
		{
			"sampler":0,
			"source":0
		}
	],
	"images":[
		{
			"mimeType": "image/png",
			"name": "palette",
			"uri": "../../../textures/palette.png"
		}
	],
	"skins":[
		{
			"inverseBindMatrices":8,
			"joints":[
				3,
				2,
				1,
				0
			],
			"name":"Armature.002"
		}
	],
	"accessors":[
		{
			"bufferView":0,
			"componentType":5126,
			"count":566,
			"max":[
				0.0693778395652771,
				1.561098575592041,
				2.8262932300567627
			],
			"min":[
				0.03616659343242645,
				0.806085467338562,
				2.4486613273620605
			],
			"type":"VEC3"
		},
		{
			"bufferView":1,
			"componentType":5126,
			"count":566,
			"type":"VEC3"
		},
		{
			"bufferView":2,
			"componentType":5126,
			"count":566,
			"type":"VEC2"
		},
		{
			"bufferView":3,
			"componentType":5121,
			"count":566,
			"normalized":true,
			"type":"VEC4"
		},
		{
			"bufferView":4,
			"componentType":5123,
			"count":566,
			"normalized":true,
			"type":"VEC4"
		},
		{
			"bufferView":5,
			"componentType":5121,
			"count":566,
			"type":"VEC4"
		},
		{
			"bufferView":6,
			"componentType":5126,
			"count":566,
			"type":"VEC4"
		},
		{
			"bufferView":7,
			"componentType":5123,
			"count":2544,
			"type":"SCALAR"
		},
		{
			"bufferView":8,
			"componentType":5126,
			"count":4,
			"type":"MAT4"
		},
		{
			"bufferView":9,
			"componentType":5126,
			"count":2060,
			"max":[
				0.09204291552305222,
				1.1254991292953491,
				2.5753490924835205
			],
			"min":[
				-0.18389642238616943,
				0.8495596647262573,
				0.9715753793716431
			],
			"type":"VEC3"
		},
		{
			"bufferView":10,
			"componentType":5126,
			"count":2060,
			"type":"VEC3"
		},
		{
			"bufferView":11,
			"componentType":5126,
			"count":2060,
			"type":"VEC2"
		},
		{
			"bufferView":12,
			"componentType":5121,
			"count":2060,
			"type":"VEC4"
		},
		{
			"bufferView":13,
			"componentType":5126,
			"count":2060,
			"type":"VEC4"
		},
		{
			"bufferView":14,
			"componentType":5123,
			"count":9384,
			"type":"SCALAR"
		}
	],
	"bufferViews":[
		{
			"buffer":0,
			"byteLength":6792,
			"byteOffset":0,
			"target":34962
		},
		{
			"buffer":0,
			"byteLength":6792,
			"byteOffset":6792,
			"target":34962
		},
		{
			"buffer":0,
			"byteLength":4528,
			"byteOffset":13584,
			"target":34962
		},
		{
			"buffer":0,
			"byteLength":2264,
			"byteOffset":18112,
			"target":34962
		},
		{
			"buffer":0,
			"byteLength":4528,
			"byteOffset":20376,
			"target":34962
		},
		{
			"buffer":0,
			"byteLength":2264,
			"byteOffset":24904,
			"target":34962
		},
		{
			"buffer":0,
			"byteLength":9056,
			"byteOffset":27168,
			"target":34962
		},
		{
			"buffer":0,
			"byteLength":5088,
			"byteOffset":36224,
			"target":34963
		},
		{
			"buffer":0,
			"byteLength":256,
			"byteOffset":41312
		},
		{
			"buffer":0,
			"byteLength":24720,
			"byteOffset":41568,
			"target":34962
		},
		{
			"buffer":0,
			"byteLength":24720,
			"byteOffset":66288,
			"target":34962
		},
		{
			"buffer":0,
			"byteLength":16480,
			"byteOffset":91008,
			"target":34962
		},
		{
			"buffer":0,
			"byteLength":8240,
			"byteOffset":107488,
			"target":34962
		},
		{
			"buffer":0,
			"byteLength":32960,
			"byteOffset":115728,
			"target":34962
		},
		{
			"buffer":0,
			"byteLength":18768,
			"byteOffset":148688,
			"target":34963
		}
	],
	"samplers":[
		{
			"magFilter":9729,
			"minFilter":9987
		}
	],
	"buffers":[
		{
			"byteLength":167456,
			"uri":"proteza-p.bin"
		}
	]
}
