{
	"asset":{
		"generator":"Khronos glTF Blender I/O v5.1.19",
		"version":"2.0"
	},
	"scene":0,
	"scenes":[
		{
			"name":"Scene",
			"nodes":[
				0,
				1,
				2
			]
		}
	],
	"nodes":[
		{
			"mesh":0,
			"name":"Cube.001"
		},
		{
			"mesh":1,
			"name":"Cylinder"
		},
		{
			"mesh":2,
			"name":"Cube.002"
		}
	],
	"materials":[
		{
			"doubleSided":true,
			"name":"Material",
			"pbrMetallicRoughness":{
				"baseColorTexture":{
					"index":0
				},
				"metallicFactor":0,
				"roughnessFactor":0.5
			}
		}
	],
	"meshes":[
		{
			"name":"Cube.001",
			"primitives":[
				{
					"attributes":{
						"POSITION":0,
						"NORMAL":1,
						"TEXCOORD_0":2
					},
					"indices":3,
					"material":0
				}
			]
		},
		{
			"name":"Cylinder",
			"primitives":[
				{
					"attributes":{
						"POSITION":4,
						"NORMAL":5,
						"TEXCOORD_0":6
					},
					"indices":7,
					"material":0
				}
			]
		},
		{
			"name":"Cube.002",
			"primitives":[
				{
					"attributes":{
						"POSITION":8,
						"NORMAL":9,
						"TEXCOORD_0":10
					},
					"indices":3,
					"material":0
				}
			]
		}
	],
	"textures":[
		{
			"sampler":0,
			"source":0
		}
	],
	"images":[
		{
			"mimeType": "image/png",
			"name": "palette",
			"uri": "../../../textures/palette.png"
		}
	],
	"accessors":[
		{
			"bufferView":0,
			"componentType":5126,
			"count":108,
			"max":[
				1.9930294752120972,
				1,
				1.0000003576278687
			],
			"min":[
				-1.9930294752120972,
				0,
				-1.0000003576278687
			],
			"type":"VEC3"
		},
		{
			"bufferView":1,
			"componentType":5126,
			"count":108,
			"type":"VEC3"
		},
		{
			"bufferView":2,
			"componentType":5126,
			"count":108,
			"type":"VEC2"
		},
		{
			"bufferView":3,
			"componentType":5123,
			"count":204,
			"type":"SCALAR"
		},
		{
			"bufferView":4,
			"componentType":5126,
			"count":544,
			"max":[
				1.9618439674377441,
				2.762746810913086,
				0.7157281637191772
			],
			"min":[
				-1.9618440866470337,
				0.33659347891807556,
				-0.715728223323822
			],
			"type":"VEC3"
		},
		{
			"bufferView":5,
			"componentType":5126,
			"count":544,
			"type":"VEC3"
		},
		{
			"bufferView":6,
			"componentType":5126,
			"count":544,
			"type":"VEC2"
		},
		{
			"bufferView":7,
			"componentType":5123,
			"count":1488,
			"type":"SCALAR"
		},
		{
			"bufferView":8,
			"componentType":5126,
			"count":108,
			"max":[
				1.9930294752120972,
				3.105971097946167,
				1.0000003576278687
			],
			"min":[
				-1.9930294752120972,
				2.760364532470703,
				-1.0000003576278687
			],
			"type":"VEC3"
		},
		{
			"bufferView":9,
			"componentType":5126,
			"count":108,
			"type":"VEC3"
		},
		{
			"bufferView":10,
			"componentType":5126,
			"count":108,
			"type":"VEC2"
		}
	],
	"bufferViews":[
		{
			"buffer":0,
			"byteLength":1296,
			"byteOffset":0,
			"target":34962
		},
		{
			"buffer":0,
			"byteLength":1296,
			"byteOffset":1296,
			"target":34962
		},
		{
			"buffer":0,
			"byteLength":864,
			"byteOffset":2592,
			"target":34962
		},
		{
			"buffer":0,
			"byteLength":408,
			"byteOffset":3456,
			"target":34963
		},
		{
			"buffer":0,
			"byteLength":6528,
			"byteOffset":3864,
			"target":34962
		},
		{
			"buffer":0,
			"byteLength":6528,
			"byteOffset":10392,
			"target":34962
		},
		{
			"buffer":0,
			"byteLength":4352,
			"byteOffset":16920,
			"target":34962
		},
		{
			"buffer":0,
			"byteLength":2976,
			"byteOffset":21272,
			"target":34963
		},
		{
			"buffer":0,
			"byteLength":1296,
			"byteOffset":24248,
			"target":34962
		},
		{
			"buffer":0,
			"byteLength":1296,
			"byteOffset":25544,
			"target":34962
		},
		{
			"buffer":0,
			"byteLength":864,
			"byteOffset":26840,
			"target":34962
		}
	],
	"samplers":[
		{
			"magFilter":9729,
			"minFilter":9987
		}
	],
	"buffers":[
		{
			"byteLength":27704,
			"uri":"wydawka2.bin"
		}
	]
}
