{
	"asset":{
		"generator":"Khronos glTF Blender I/O v5.1.19",
		"version":"2.0"
	},
	"scene":0,
	"scenes":[
		{
			"name":"Scene",
			"nodes":[
				0
			]
		}
	],
	"nodes":[
		{
			"mesh":0,
			"name":"Cube.002"
		}
	],
	"materials":[
		{
			"doubleSided":true,
			"name":"Material",
			"pbrMetallicRoughness":{
				"baseColorTexture":{
					"index":0
				},
				"metallicFactor":0,
				"roughnessFactor":0.5
			}
		}
	],
	"meshes":[
		{
			"name":"Cube.002",
			"primitives":[
				{
					"attributes":{
						"POSITION":0,
						"NORMAL":1,
						"TEXCOORD_0":2
					},
					"indices":3,
					"material":0
				}
			]
		}
	],
	"textures":[
		{
			"sampler":0,
			"source":0
		}
	],
	"images":[
		{
			"mimeType": "image/png",
			"name": "palette",
			"uri": "../../../textures/palette.png"
		}
	],
	"accessors":[
		{
			"bufferView":0,
			"componentType":5126,
			"count":6646,
			"max":[
				2.0068838596343994,
				3.7684407234191895,
				1.0000003576278687
			],
			"min":[
				-1.9930294752120972,
				0,
				-1.0000003576278687
			],
			"type":"VEC3"
		},
		{
			"bufferView":1,
			"componentType":5126,
			"count":6646,
			"type":"VEC3"
		},
		{
			"bufferView":2,
			"componentType":5126,
			"count":6646,
			"type":"VEC2"
		},
		{
			"bufferView":3,
			"componentType":5123,
			"count":20472,
			"type":"SCALAR"
		}
	],
	"bufferViews":[
		{
			"buffer":0,
			"byteLength":79752,
			"byteOffset":0,
			"target":34962
		},
		{
			"buffer":0,
			"byteLength":79752,
			"byteOffset":79752,
			"target":34962
		},
		{
			"buffer":0,
			"byteLength":53168,
			"byteOffset":159504,
			"target":34962
		},
		{
			"buffer":0,
			"byteLength":40944,
			"byteOffset":212672,
			"target":34963
		}
	],
	"samplers":[
		{
			"magFilter":9729,
			"minFilter":9987
		}
	],
	"buffers":[
		{
			"byteLength":253616,
			"uri":"wydawka-dekor.bin"
		}
	]
}
