{
	"asset":{
		"generator":"Khronos glTF Blender I/O v5.1.19",
		"version":"2.0"
	},
	"scene":0,
	"scenes":[
		{
			"name":"Scene",
			"nodes":[
				0,
				1,
				2
			]
		}
	],
	"nodes":[
		{
			"mesh":0,
			"name":"Cube.001"
		},
		{
			"mesh":1,
			"name":"Cylinder"
		},
		{
			"mesh":2,
			"name":"Cube.002"
		}
	],
	"materials":[
		{
			"doubleSided":true,
			"name":"Material",
			"pbrMetallicRoughness":{
				"baseColorTexture":{
					"index":0
				},
				"metallicFactor":0,
				"roughnessFactor":0.5
			}
		},
		{
			"doubleSided":true,
			"emissiveFactor":[
				0.19999980926513672,
				0.19999980926513672,
				0.19999980926513672
			],
			"emissiveTexture":{
				"index":1,
				"texCoord":1
			},
			"name":"Material.003",
			"pbrMetallicRoughness":{
				"baseColorTexture":{
					"index":2
				},
				"metallicFactor":0,
				"roughnessFactor":0.5
			}
		}
	],
	"meshes":[
		{
			"name":"Cube.001",
			"primitives":[
				{
					"attributes":{
						"POSITION":0,
						"NORMAL":1,
						"TEXCOORD_0":2
					},
					"indices":3,
					"material":0
				}
			]
		},
		{
			"name":"Cylinder",
			"primitives":[
				{
					"attributes":{
						"POSITION":4,
						"NORMAL":5,
						"TEXCOORD_0":6
					},
					"indices":7,
					"material":0
				}
			]
		},
		{
			"name":"Cube.003",
			"primitives":[
				{
					"attributes":{
						"POSITION":8,
						"NORMAL":9,
						"TEXCOORD_0":10,
						"TEXCOORD_1":11
					},
					"indices":12,
					"material":1
				}
			]
		}
	],
	"textures":[
		{
			"sampler":0,
			"source":0
		},
		{
			"sampler":0,
			"source":1
		},
		{
			"sampler":0,
			"source":0
		}
	],
	"images":[
		{
			"mimeType":"image/png",
			"name":"palette",
			"uri":"palette.png"
		},
		{
			"mimeType":"image/png",
			"name":"detal",
			"uri":"detal.png"
		}
	],
	"accessors":[
		{
			"bufferView":0,
			"componentType":5126,
			"count":108,
			"max":[
				1.9930294752120972,
				1,
				1.0000003576278687
			],
			"min":[
				-1.9930294752120972,
				0,
				-1.0000003576278687
			],
			"type":"VEC3"
		},
		{
			"bufferView":1,
			"componentType":5126,
			"count":108,
			"type":"VEC3"
		},
		{
			"bufferView":2,
			"componentType":5126,
			"count":108,
			"type":"VEC2"
		},
		{
			"bufferView":3,
			"componentType":5123,
			"count":204,
			"type":"SCALAR"
		},
		{
			"bufferView":4,
			"componentType":5126,
			"count":544,
			"max":[
				1.9618439674377441,
				3.195563316345215,
				0.7157281637191772
			],
			"min":[
				-1.9618440866470337,
				0.7694100141525269,
				-0.715728223323822
			],
			"type":"VEC3"
		},
		{
			"bufferView":5,
			"componentType":5126,
			"count":544,
			"type":"VEC3"
		},
		{
			"bufferView":6,
			"componentType":5126,
			"count":544,
			"type":"VEC2"
		},
		{
			"bufferView":7,
			"componentType":5123,
			"count":1488,
			"type":"SCALAR"
		},
		{
			"bufferView":8,
			"componentType":5126,
			"count":647,
			"max":[
				2.355832099914551,
				4.7135210037231445,
				1.5922050476074219
			],
			"min":[
				-2.341698169708252,
				2.6534957885742188,
				-1.592205286026001
			],
			"type":"VEC3"
		},
		{
			"bufferView":9,
			"componentType":5126,
			"count":647,
			"type":"VEC3"
		},
		{
			"bufferView":10,
			"componentType":5126,
			"count":647,
			"type":"VEC2"
		},
		{
			"bufferView":11,
			"componentType":5126,
			"count":647,
			"type":"VEC2"
		},
		{
			"bufferView":12,
			"componentType":5123,
			"count":3018,
			"type":"SCALAR"
		}
	],
	"bufferViews":[
		{
			"buffer":0,
			"byteLength":1296,
			"byteOffset":0,
			"target":34962
		},
		{
			"buffer":0,
			"byteLength":1296,
			"byteOffset":1296,
			"target":34962
		},
		{
			"buffer":0,
			"byteLength":864,
			"byteOffset":2592,
			"target":34962
		},
		{
			"buffer":0,
			"byteLength":408,
			"byteOffset":3456,
			"target":34963
		},
		{
			"buffer":0,
			"byteLength":6528,
			"byteOffset":3864,
			"target":34962
		},
		{
			"buffer":0,
			"byteLength":6528,
			"byteOffset":10392,
			"target":34962
		},
		{
			"buffer":0,
			"byteLength":4352,
			"byteOffset":16920,
			"target":34962
		},
		{
			"buffer":0,
			"byteLength":2976,
			"byteOffset":21272,
			"target":34963
		},
		{
			"buffer":0,
			"byteLength":7764,
			"byteOffset":24248,
			"target":34962
		},
		{
			"buffer":0,
			"byteLength":7764,
			"byteOffset":32012,
			"target":34962
		},
		{
			"buffer":0,
			"byteLength":5176,
			"byteOffset":39776,
			"target":34962
		},
		{
			"buffer":0,
			"byteLength":5176,
			"byteOffset":44952,
			"target":34962
		},
		{
			"buffer":0,
			"byteLength":6036,
			"byteOffset":50128,
			"target":34963
		}
	],
	"samplers":[
		{
			"magFilter":9729,
			"minFilter":9987
		}
	],
	"buffers":[
		{
			"byteLength":56164,
			"uri":"wydawka.bin"
		}
	]
}
