{
	"asset":{
		"generator":"Khronos glTF Blender I/O v5.1.19",
		"version":"2.0"
	},
	"scene":0,
	"scenes":[
		{
			"name":"Scene",
			"nodes":[
				33
			]
		}
	],
	"nodes":[
		{
			"name":"stopa-palce-p",
			"rotation":[
				2.7008354663848877e-08,
				-5.598299601672352e-14,
				-7.310988701372464e-15,
				1
			],
			"translation":[
				1.6923110024436028e-08,
				0.5633232593536377,
				-5.589413376583252e-09
			]
		},
		{
			"children":[
				0
			],
			"name":"stopa-spod-p",
			"rotation":[
				-1.682351893350642e-07,
				-5.364844568589433e-08,
				-0.7071067690849304,
				0.7071067690849304
			],
			"translation":[
				1.3969838619232178e-09,
				0.42659425735473633,
				-7.8580342233181e-09
			]
		},
		{
			"children":[
				1
			],
			"name":"stopa-p",
			"rotation":[
				2.8472234310433016e-16,
				9.313225746154785e-10,
				1.0408714079753226e-16,
				1
			],
			"translation":[
				1.3969838619232178e-09,
				0.7382897734642029,
				-7.8580342233181e-09
			]
		},
		{
			"children":[
				2
			],
			"name":"lydka-p",
			"rotation":[
				3.7232843475010213e-09,
				9.313225746154785e-10,
				1.2224113388192848e-10,
				1
			],
			"translation":[
				1.7314143452296094e-09,
				0.6270244121551514,
				-1.8044314487042357e-08
			]
		},
		{
			"children":[
				3
			],
			"name":"udo-p",
			"rotation":[
				-0.6674326658248901,
				-6.679075426063719e-08,
				-4.154264843236888e-08,
				0.7446701526641846
			],
			"scale":[
				1,
				0.9999998807907104,
				0.9999999403953552
			],
			"translation":[
				7.597691364935599e-10,
				0.7702773213386536,
				-1.3881799532100558e-07
			]
		},
		{
			"children":[
				4
			],
			"name":"miednica-p",
			"rotation":[
				-0.5265612602233887,
				-0.47194617986679077,
				-0.5265613198280334,
				0.47194626927375793
			],
			"scale":[
				0.9999999403953552,
				0.9999999403953552,
				0.9999999403953552
			]
		},
		{
			"name":"stopa-palce-l",
			"rotation":[
				2.421438694000244e-08,
				-6.322720125240266e-14,
				-1.176170977019303e-14,
				1
			],
			"translation":[
				-1.5590293500622465e-09,
				0.5633232593536377,
				1.9923604099858494e-08
			]
		},
		{
			"children":[
				6
			],
			"name":"stopa-spod-l",
			"rotation":[
				-2.2881997097101703e-07,
				-1.2345284972070658e-07,
				-0.7071067690849304,
				0.7071067690849304
			],
			"translation":[
				-2.7939677238464355e-09,
				0.4265943765640259,
				5.413312464952469e-09
			]
		},
		{
			"children":[
				7
			],
			"name":"stopa-l",
			"rotation":[
				-1.942034260421705e-16,
				5.874705709451184e-26,
				1.127033171013194e-17,
				1
			],
			"translation":[
				-2.7939677238464355e-09,
				0.738290011882782,
				5.413312464952469e-09
			]
		},
		{
			"children":[
				8
			],
			"name":"lydka-l",
			"rotation":[
				-3.8206638373894375e-12,
				-1.3107360263883845e-18,
				1.1635255953157397e-10,
				1
			],
			"translation":[
				-2.47564635458275e-09,
				0.6270244121551514,
				5.42376366041708e-09
			]
		},
		{
			"children":[
				9
			],
			"name":"udo-l",
			"rotation":[
				0.6674326658248901,
				-1.3466129189509957e-07,
				4.341724491041532e-08,
				0.7446701526641846
			],
			"scale":[
				1,
				0.9999998807907104,
				0.9999999403953552
			],
			"translation":[
				6.387494977388997e-10,
				0.7702773809432983,
				-7.261405698955059e-08
			]
		},
		{
			"children":[
				10
			],
			"name":"miednica-l",
			"rotation":[
				0.5265612006187439,
				-0.47194617986679077,
				0.5265613794326782,
				0.47194620966911316
			],
			"scale":[
				0.9999999403953552,
				0.9999998807907104,
				0.9999999403953552
			]
		},
		{
			"name":"glowa",
			"translation":[
				0,
				0.7031326293945312,
				0
			]
		},
		{
			"children":[
				12
			],
			"name":"szyja",
			"translation":[
				0,
				0.8959269523620605,
				0
			]
		},
		{
			"name":"palce-p",
			"rotation":[
				6.611051706073567e-09,
				-2.0192285887787875e-07,
				-0.007370344828814268,
				0.9999728798866272
			],
			"scale":[
				0.9999999403953552,
				1,
				1
			],
			"translation":[
				1.7078855307772756e-07,
				0.38583487272262573,
				4.78092943012598e-09
			]
		},
		{
			"children":[
				14
			],
			"name":"dlon-p",
			"rotation":[
				-2.5648345669537775e-09,
				-1.7704914867522348e-08,
				-0.013430380262434483,
				0.9999098181724548
			],
			"scale":[
				1,
				0.9999999403953552,
				1
			],
			"translation":[
				-2.1222876966930926e-07,
				1.1998679637908936,
				9.272412171412725e-09
			]
		},
		{
			"name":"kciuk-p",
			"rotation":[
				0.32091233134269714,
				-0.0008348528645001352,
				-0.024252954870462418,
				0.9467979669570923
			],
			"scale":[
				0.9999999403953552,
				0.9999998807907104,
				0.9999999403953552
			],
			"translation":[
				-7.515773177146912e-07,
				0.42380592226982117,
				-8.549676522306981e-08
			]
		},
		{
			"children":[
				16
			],
			"name":"palce-kciuk-p",
			"rotation":[
				0.3356979489326477,
				-0.00639355881139636,
				0.005513652227818966,
				0.9419318437576294
			],
			"scale":[
				0.9999998211860657,
				0.9999998807907104,
				0.9999998807907104
			],
			"translation":[
				-2.1222876966930926e-07,
				1.1998679637908936,
				9.272412171412725e-09
			]
		},
		{
			"children":[
				15,
				17
			],
			"name":"przedramie-p",
			"rotation":[
				-3.3233036322855014e-09,
				1.8561211456713522e-09,
				0.015484368428587914,
				0.9998801350593567
			],
			"translation":[
				4.214889486320317e-07,
				1.1867637634277344,
				9.634561592974933e-09
			]
		},
		{
			"children":[
				18
			],
			"name":"ramie-p",
			"rotation":[
				1.6183895112931168e-08,
				2.245349151053233e-08,
				-0.055728729814291,
				0.998445987701416
			],
			"scale":[
				0.9999999403953552,
				0.9999999403953552,
				1
			],
			"translation":[
				4.733738023787737e-08,
				0.9017390608787537,
				1.4562147043761797e-09
			]
		},
		{
			"children":[
				19
			],
			"name":"klatka-p",
			"rotation":[
				4.3599385435300064e-08,
				5.683339665552012e-08,
				-0.6732022762298584,
				0.7394583821296692
			],
			"scale":[
				1,
				1.0000001192092896,
				1
			],
			"translation":[
				0,
				0.8959269523620605,
				0
			]
		},
		{
			"name":"palce-l",
			"rotation":[
				-3.724701613805337e-08,
				-1.3814704402648204e-07,
				0.007370347157120705,
				0.9999728798866272
			],
			"scale":[
				0.9999999403953552,
				1,
				1
			],
			"translation":[
				9.351424523629248e-08,
				0.38583460450172424,
				-7.80664777266793e-09
			]
		},
		{
			"children":[
				21
			],
			"name":"dlon-l",
			"rotation":[
				-1.1972843827479096e-09,
				-6.986137179865182e-08,
				0.013430380262434483,
				0.9999098181724548
			],
			"scale":[
				1,
				0.9999999403953552,
				1
			],
			"translation":[
				1.4761099009774625e-07,
				1.1998682022094727,
				4.524054020293988e-09
			]
		},
		{
			"name":"kciuk-l",
			"rotation":[
				-0.3202897310256958,
				-0.035665202885866165,
				-0.03143005073070526,
				0.9461261630058289
			],
			"translation":[
				-6.835907697677612e-07,
				0.4238058924674988,
				-7.450580596923828e-09
			]
		},
		{
			"children":[
				23
			],
			"name":"dlon-kciuk-l",
			"rotation":[
				0.004717044532299042,
				-0.9412997961044312,
				-0.3357100486755371,
				0.03508907929062843
			],
			"scale":[
				1,
				0.9999999403953552,
				1
			],
			"translation":[
				1.4761099009774625e-07,
				1.1998682022094727,
				4.524054020293988e-09
			]
		},
		{
			"children":[
				22,
				24
			],
			"name":"przedramie-l",
			"rotation":[
				5.712236017529904e-09,
				1.024598272891808e-08,
				-0.015484368428587914,
				0.9998801350593567
			],
			"translation":[
				-7.147318683564663e-07,
				1.1867636442184448,
				-9.344603313365951e-09
			]
		},
		{
			"children":[
				25
			],
			"name":"ramie-l",
			"rotation":[
				-1.0654303217449979e-08,
				5.129677660420384e-08,
				0.055728729814291,
				0.998445987701416
			],
			"scale":[
				0.9999999403953552,
				0.9999999403953552,
				1
			],
			"translation":[
				2.7650094125419855e-07,
				0.9017391800880432,
				-7.845528671168722e-10
			]
		},
		{
			"children":[
				26
			],
			"name":"klatka-l",
			"rotation":[
				-9.229604103211386e-08,
				9.233458797552885e-08,
				0.6732022762298584,
				0.7394583821296692
			],
			"scale":[
				1,
				1.0000001192092896,
				1
			],
			"translation":[
				0,
				0.8959269523620605,
				0
			]
		},
		{
			"children":[
				13,
				20,
				27
			],
			"name":"klatka",
			"translation":[
				0,
				1,
				0
			]
		},
		{
			"children":[
				5,
				11,
				28
			],
			"name":"kregoslup",
			"rotation":[
				0,
				-0.016409138217568398,
				0,
				0.9998653531074524
			]
		},
		{
			"mesh":0,
			"name":"Circle",
			"skin":0
		},
		{
			"mesh":1,
			"name":"Cylinder.004",
			"skin":0
		},
		{
			"mesh":2,
			"name":"Sphere.002",
			"skin":0
		},
		{
			"children":[
				30,
				31,
				32,
				29
			],
			"name":"postac",
			"translation":[
				-0.12478256225585938,
				2.0789525508880615,
				0
			]
		}
	],
	"animations":[
		{
			"channels":[
				{
					"sampler":0,
					"target":{
						"node":29,
						"path":"translation"
					}
				},
				{
					"sampler":1,
					"target":{
						"node":29,
						"path":"rotation"
					}
				},
				{
					"sampler":2,
					"target":{
						"node":29,
						"path":"scale"
					}
				},
				{
					"sampler":3,
					"target":{
						"node":5,
						"path":"translation"
					}
				},
				{
					"sampler":4,
					"target":{
						"node":5,
						"path":"rotation"
					}
				},
				{
					"sampler":5,
					"target":{
						"node":5,
						"path":"scale"
					}
				},
				{
					"sampler":6,
					"target":{
						"node":4,
						"path":"translation"
					}
				},
				{
					"sampler":7,
					"target":{
						"node":4,
						"path":"rotation"
					}
				},
				{
					"sampler":8,
					"target":{
						"node":4,
						"path":"scale"
					}
				},
				{
					"sampler":9,
					"target":{
						"node":3,
						"path":"translation"
					}
				},
				{
					"sampler":10,
					"target":{
						"node":3,
						"path":"rotation"
					}
				},
				{
					"sampler":11,
					"target":{
						"node":3,
						"path":"scale"
					}
				},
				{
					"sampler":12,
					"target":{
						"node":2,
						"path":"translation"
					}
				},
				{
					"sampler":13,
					"target":{
						"node":2,
						"path":"rotation"
					}
				},
				{
					"sampler":14,
					"target":{
						"node":2,
						"path":"scale"
					}
				},
				{
					"sampler":15,
					"target":{
						"node":1,
						"path":"translation"
					}
				},
				{
					"sampler":16,
					"target":{
						"node":1,
						"path":"rotation"
					}
				},
				{
					"sampler":17,
					"target":{
						"node":1,
						"path":"scale"
					}
				},
				{
					"sampler":18,
					"target":{
						"node":0,
						"path":"translation"
					}
				},
				{
					"sampler":19,
					"target":{
						"node":0,
						"path":"rotation"
					}
				},
				{
					"sampler":20,
					"target":{
						"node":0,
						"path":"scale"
					}
				},
				{
					"sampler":21,
					"target":{
						"node":11,
						"path":"translation"
					}
				},
				{
					"sampler":22,
					"target":{
						"node":11,
						"path":"rotation"
					}
				},
				{
					"sampler":23,
					"target":{
						"node":11,
						"path":"scale"
					}
				},
				{
					"sampler":24,
					"target":{
						"node":10,
						"path":"translation"
					}
				},
				{
					"sampler":25,
					"target":{
						"node":10,
						"path":"rotation"
					}
				},
				{
					"sampler":26,
					"target":{
						"node":10,
						"path":"scale"
					}
				},
				{
					"sampler":27,
					"target":{
						"node":9,
						"path":"translation"
					}
				},
				{
					"sampler":28,
					"target":{
						"node":9,
						"path":"rotation"
					}
				},
				{
					"sampler":29,
					"target":{
						"node":9,
						"path":"scale"
					}
				},
				{
					"sampler":30,
					"target":{
						"node":8,
						"path":"translation"
					}
				},
				{
					"sampler":31,
					"target":{
						"node":8,
						"path":"rotation"
					}
				},
				{
					"sampler":32,
					"target":{
						"node":8,
						"path":"scale"
					}
				},
				{
					"sampler":33,
					"target":{
						"node":7,
						"path":"translation"
					}
				},
				{
					"sampler":34,
					"target":{
						"node":7,
						"path":"rotation"
					}
				},
				{
					"sampler":35,
					"target":{
						"node":7,
						"path":"scale"
					}
				},
				{
					"sampler":36,
					"target":{
						"node":6,
						"path":"translation"
					}
				},
				{
					"sampler":37,
					"target":{
						"node":6,
						"path":"rotation"
					}
				},
				{
					"sampler":38,
					"target":{
						"node":6,
						"path":"scale"
					}
				},
				{
					"sampler":39,
					"target":{
						"node":28,
						"path":"translation"
					}
				},
				{
					"sampler":40,
					"target":{
						"node":28,
						"path":"rotation"
					}
				},
				{
					"sampler":41,
					"target":{
						"node":28,
						"path":"scale"
					}
				},
				{
					"sampler":42,
					"target":{
						"node":13,
						"path":"translation"
					}
				},
				{
					"sampler":43,
					"target":{
						"node":13,
						"path":"rotation"
					}
				},
				{
					"sampler":44,
					"target":{
						"node":13,
						"path":"scale"
					}
				},
				{
					"sampler":45,
					"target":{
						"node":12,
						"path":"translation"
					}
				},
				{
					"sampler":46,
					"target":{
						"node":12,
						"path":"rotation"
					}
				},
				{
					"sampler":47,
					"target":{
						"node":12,
						"path":"scale"
					}
				},
				{
					"sampler":48,
					"target":{
						"node":20,
						"path":"translation"
					}
				},
				{
					"sampler":49,
					"target":{
						"node":20,
						"path":"rotation"
					}
				},
				{
					"sampler":50,
					"target":{
						"node":20,
						"path":"scale"
					}
				},
				{
					"sampler":51,
					"target":{
						"node":19,
						"path":"translation"
					}
				},
				{
					"sampler":52,
					"target":{
						"node":19,
						"path":"rotation"
					}
				},
				{
					"sampler":53,
					"target":{
						"node":19,
						"path":"scale"
					}
				},
				{
					"sampler":54,
					"target":{
						"node":18,
						"path":"translation"
					}
				},
				{
					"sampler":55,
					"target":{
						"node":18,
						"path":"rotation"
					}
				},
				{
					"sampler":56,
					"target":{
						"node":18,
						"path":"scale"
					}
				},
				{
					"sampler":57,
					"target":{
						"node":15,
						"path":"translation"
					}
				},
				{
					"sampler":58,
					"target":{
						"node":15,
						"path":"rotation"
					}
				},
				{
					"sampler":59,
					"target":{
						"node":15,
						"path":"scale"
					}
				},
				{
					"sampler":60,
					"target":{
						"node":14,
						"path":"translation"
					}
				},
				{
					"sampler":61,
					"target":{
						"node":14,
						"path":"rotation"
					}
				},
				{
					"sampler":62,
					"target":{
						"node":14,
						"path":"scale"
					}
				},
				{
					"sampler":63,
					"target":{
						"node":17,
						"path":"translation"
					}
				},
				{
					"sampler":64,
					"target":{
						"node":17,
						"path":"rotation"
					}
				},
				{
					"sampler":65,
					"target":{
						"node":17,
						"path":"scale"
					}
				},
				{
					"sampler":66,
					"target":{
						"node":16,
						"path":"translation"
					}
				},
				{
					"sampler":67,
					"target":{
						"node":16,
						"path":"rotation"
					}
				},
				{
					"sampler":68,
					"target":{
						"node":16,
						"path":"scale"
					}
				},
				{
					"sampler":69,
					"target":{
						"node":27,
						"path":"translation"
					}
				},
				{
					"sampler":70,
					"target":{
						"node":27,
						"path":"rotation"
					}
				},
				{
					"sampler":71,
					"target":{
						"node":27,
						"path":"scale"
					}
				},
				{
					"sampler":72,
					"target":{
						"node":26,
						"path":"translation"
					}
				},
				{
					"sampler":73,
					"target":{
						"node":26,
						"path":"rotation"
					}
				},
				{
					"sampler":74,
					"target":{
						"node":26,
						"path":"scale"
					}
				},
				{
					"sampler":75,
					"target":{
						"node":25,
						"path":"translation"
					}
				},
				{
					"sampler":76,
					"target":{
						"node":25,
						"path":"rotation"
					}
				},
				{
					"sampler":77,
					"target":{
						"node":25,
						"path":"scale"
					}
				},
				{
					"sampler":78,
					"target":{
						"node":22,
						"path":"translation"
					}
				},
				{
					"sampler":79,
					"target":{
						"node":22,
						"path":"rotation"
					}
				},
				{
					"sampler":80,
					"target":{
						"node":22,
						"path":"scale"
					}
				},
				{
					"sampler":81,
					"target":{
						"node":21,
						"path":"translation"
					}
				},
				{
					"sampler":82,
					"target":{
						"node":21,
						"path":"rotation"
					}
				},
				{
					"sampler":83,
					"target":{
						"node":21,
						"path":"scale"
					}
				},
				{
					"sampler":84,
					"target":{
						"node":24,
						"path":"translation"
					}
				},
				{
					"sampler":85,
					"target":{
						"node":24,
						"path":"rotation"
					}
				},
				{
					"sampler":86,
					"target":{
						"node":24,
						"path":"scale"
					}
				},
				{
					"sampler":87,
					"target":{
						"node":23,
						"path":"translation"
					}
				},
				{
					"sampler":88,
					"target":{
						"node":23,
						"path":"rotation"
					}
				},
				{
					"sampler":89,
					"target":{
						"node":23,
						"path":"scale"
					}
				}
			],
			"name":"ArmatureAction",
			"samplers":[
				{
					"input":21,
					"interpolation":"LINEAR",
					"output":22
				},
				{
					"input":23,
					"interpolation":"STEP",
					"output":24
				},
				{
					"input":23,
					"interpolation":"STEP",
					"output":25
				},
				{
					"input":23,
					"interpolation":"STEP",
					"output":26
				},
				{
					"input":23,
					"interpolation":"STEP",
					"output":27
				},
				{
					"input":23,
					"interpolation":"STEP",
					"output":28
				},
				{
					"input":23,
					"interpolation":"STEP",
					"output":29
				},
				{
					"input":21,
					"interpolation":"LINEAR",
					"output":30
				},
				{
					"input":23,
					"interpolation":"STEP",
					"output":31
				},
				{
					"input":23,
					"interpolation":"STEP",
					"output":32
				},
				{
					"input":21,
					"interpolation":"LINEAR",
					"output":33
				},
				{
					"input":23,
					"interpolation":"STEP",
					"output":25
				},
				{
					"input":23,
					"interpolation":"STEP",
					"output":34
				},
				{
					"input":21,
					"interpolation":"LINEAR",
					"output":35
				},
				{
					"input":23,
					"interpolation":"STEP",
					"output":36
				},
				{
					"input":23,
					"interpolation":"STEP",
					"output":37
				},
				{
					"input":21,
					"interpolation":"LINEAR",
					"output":38
				},
				{
					"input":23,
					"interpolation":"STEP",
					"output":39
				},
				{
					"input":23,
					"interpolation":"STEP",
					"output":40
				},
				{
					"input":23,
					"interpolation":"STEP",
					"output":41
				},
				{
					"input":23,
					"interpolation":"STEP",
					"output":42
				},
				{
					"input":23,
					"interpolation":"STEP",
					"output":26
				},
				{
					"input":23,
					"interpolation":"STEP",
					"output":43
				},
				{
					"input":23,
					"interpolation":"STEP",
					"output":44
				},
				{
					"input":23,
					"interpolation":"STEP",
					"output":45
				},
				{
					"input":21,
					"interpolation":"LINEAR",
					"output":46
				},
				{
					"input":23,
					"interpolation":"STEP",
					"output":47
				},
				{
					"input":23,
					"interpolation":"STEP",
					"output":48
				},
				{
					"input":21,
					"interpolation":"LINEAR",
					"output":49
				},
				{
					"input":23,
					"interpolation":"STEP",
					"output":25
				},
				{
					"input":23,
					"interpolation":"STEP",
					"output":50
				},
				{
					"input":23,
					"interpolation":"STEP",
					"output":51
				},
				{
					"input":23,
					"interpolation":"STEP",
					"output":28
				},
				{
					"input":23,
					"interpolation":"STEP",
					"output":52
				},
				{
					"input":21,
					"interpolation":"LINEAR",
					"output":53
				},
				{
					"input":23,
					"interpolation":"STEP",
					"output":54
				},
				{
					"input":23,
					"interpolation":"STEP",
					"output":55
				},
				{
					"input":23,
					"interpolation":"STEP",
					"output":56
				},
				{
					"input":23,
					"interpolation":"STEP",
					"output":25
				},
				{
					"input":23,
					"interpolation":"STEP",
					"output":57
				},
				{
					"input":21,
					"interpolation":"LINEAR",
					"output":58
				},
				{
					"input":23,
					"interpolation":"STEP",
					"output":59
				},
				{
					"input":23,
					"interpolation":"STEP",
					"output":60
				},
				{
					"input":21,
					"interpolation":"LINEAR",
					"output":61
				},
				{
					"input":23,
					"interpolation":"STEP",
					"output":62
				},
				{
					"input":23,
					"interpolation":"STEP",
					"output":63
				},
				{
					"input":23,
					"interpolation":"STEP",
					"output":64
				},
				{
					"input":23,
					"interpolation":"STEP",
					"output":62
				},
				{
					"input":23,
					"interpolation":"STEP",
					"output":65
				},
				{
					"input":23,
					"interpolation":"STEP",
					"output":66
				},
				{
					"input":23,
					"interpolation":"STEP",
					"output":67
				},
				{
					"input":23,
					"interpolation":"STEP",
					"output":68
				},
				{
					"input":21,
					"interpolation":"LINEAR",
					"output":69
				},
				{
					"input":23,
					"interpolation":"STEP",
					"output":70
				},
				{
					"input":23,
					"interpolation":"STEP",
					"output":71
				},
				{
					"input":21,
					"interpolation":"LINEAR",
					"output":72
				},
				{
					"input":23,
					"interpolation":"STEP",
					"output":25
				},
				{
					"input":23,
					"interpolation":"STEP",
					"output":73
				},
				{
					"input":23,
					"interpolation":"STEP",
					"output":74
				},
				{
					"input":23,
					"interpolation":"STEP",
					"output":25
				},
				{
					"input":23,
					"interpolation":"STEP",
					"output":75
				},
				{
					"input":23,
					"interpolation":"STEP",
					"output":76
				},
				{
					"input":23,
					"interpolation":"STEP",
					"output":70
				},
				{
					"input":23,
					"interpolation":"STEP",
					"output":77
				},
				{
					"input":23,
					"interpolation":"STEP",
					"output":78
				},
				{
					"input":23,
					"interpolation":"STEP",
					"output":79
				},
				{
					"input":23,
					"interpolation":"STEP",
					"output":80
				},
				{
					"input":23,
					"interpolation":"STEP",
					"output":81
				},
				{
					"input":23,
					"interpolation":"STEP",
					"output":82
				},
				{
					"input":23,
					"interpolation":"STEP",
					"output":83
				},
				{
					"input":23,
					"interpolation":"STEP",
					"output":84
				},
				{
					"input":23,
					"interpolation":"STEP",
					"output":54
				},
				{
					"input":23,
					"interpolation":"STEP",
					"output":85
				},
				{
					"input":21,
					"interpolation":"LINEAR",
					"output":86
				},
				{
					"input":23,
					"interpolation":"STEP",
					"output":87
				},
				{
					"input":23,
					"interpolation":"STEP",
					"output":88
				},
				{
					"input":21,
					"interpolation":"LINEAR",
					"output":89
				},
				{
					"input":23,
					"interpolation":"STEP",
					"output":67
				},
				{
					"input":23,
					"interpolation":"STEP",
					"output":90
				},
				{
					"input":23,
					"interpolation":"STEP",
					"output":91
				},
				{
					"input":23,
					"interpolation":"STEP",
					"output":92
				},
				{
					"input":23,
					"interpolation":"STEP",
					"output":93
				},
				{
					"input":23,
					"interpolation":"STEP",
					"output":94
				},
				{
					"input":23,
					"interpolation":"STEP",
					"output":95
				},
				{
					"input":23,
					"interpolation":"STEP",
					"output":96
				},
				{
					"input":23,
					"interpolation":"STEP",
					"output":97
				},
				{
					"input":23,
					"interpolation":"STEP",
					"output":36
				},
				{
					"input":23,
					"interpolation":"STEP",
					"output":98
				},
				{
					"input":23,
					"interpolation":"STEP",
					"output":99
				},
				{
					"input":23,
					"interpolation":"STEP",
					"output":100
				}
			]
		}
	],
	"materials":[
		{
			"doubleSided":true,
			"name":"Material.001",
			"pbrMetallicRoughness":{
				"baseColorTexture":{
					"index":0
				},
				"metallicFactor":0,
				"roughnessFactor":0.8409091234207153
			}
		}
	],
	"meshes":[
		{
			"name":"Circle",
			"primitives":[
				{
					"attributes":{
						"POSITION":0,
						"NORMAL":1,
						"TEXCOORD_0":2,
						"JOINTS_0":3,
						"WEIGHTS_0":4
					},
					"indices":5,
					"material":0
				}
			]
		},
		{
			"name":"Cylinder.001",
			"primitives":[
				{
					"attributes":{
						"POSITION":7,
						"NORMAL":8,
						"TEXCOORD_0":9,
						"COLOR_0":10,
						"COLOR_1":11,
						"JOINTS_0":12,
						"WEIGHTS_0":13
					},
					"indices":14,
					"material":0
				}
			]
		},
		{
			"name":"Sphere.002",
			"primitives":[
				{
					"attributes":{
						"POSITION":15,
						"NORMAL":16,
						"TEXCOORD_0":17,
						"JOINTS_0":18,
						"WEIGHTS_0":19
					},
					"indices":20,
					"material":0
				}
			]
		}
	],
	"textures":[
		{
			"sampler":0,
			"source":0
		}
	],
	"images":[
		{
			"mimeType":"image/png",
			"name":"babcia",
			"uri":"babcia.png"
		}
	],
	"skins":[
		{
			"inverseBindMatrices":6,
			"joints":[
				29,
				5,
				4,
				3,
				2,
				1,
				0,
				11,
				10,
				9,
				8,
				7,
				6,
				28,
				13,
				12,
				20,
				19,
				18,
				15,
				14,
				17,
				16,
				27,
				26,
				25,
				22,
				21,
				24,
				23
			],
			"name":"postac"
		}
	],
	"accessors":[
		{
			"bufferView":0,
			"componentType":5126,
			"count":840,
			"max":[
				2.5803980827331543,
				7.5593085289001465,
				3.052184581756592
			],
			"min":[
				-2.8541815280914307,
				5.918792247772217,
				0.8904411792755127
			],
			"type":"VEC3"
		},
		{
			"bufferView":1,
			"componentType":5126,
			"count":840,
			"type":"VEC3"
		},
		{
			"bufferView":2,
			"componentType":5126,
			"count":840,
			"type":"VEC2"
		},
		{
			"bufferView":3,
			"componentType":5121,
			"count":840,
			"type":"VEC4"
		},
		{
			"bufferView":4,
			"componentType":5126,
			"count":840,
			"type":"VEC4"
		},
		{
			"bufferView":5,
			"componentType":5123,
			"count":1644,
			"type":"SCALAR"
		},
		{
			"bufferView":6,
			"componentType":5126,
			"count":30,
			"type":"MAT4"
		},
		{
			"bufferView":7,
			"componentType":5126,
			"count":2642,
			"max":[
				3.886735439300537,
				10.313277244567871,
				3.09865665435791
			],
			"min":[
				-4.086688041687012,
				0.07110977172851562,
				-2.9430387020111084
			],
			"type":"VEC3"
		},
		{
			"bufferView":8,
			"componentType":5126,
			"count":2642,
			"type":"VEC3"
		},
		{
			"bufferView":9,
			"componentType":5126,
			"count":2642,
			"type":"VEC2"
		},
		{
			"bufferView":10,
			"componentType":5121,
			"count":2642,
			"normalized":true,
			"type":"VEC4"
		},
		{
			"bufferView":11,
			"componentType":5123,
			"count":2642,
			"normalized":true,
			"type":"VEC4"
		},
		{
			"bufferView":12,
			"componentType":5121,
			"count":2642,
			"type":"VEC4"
		},
		{
			"bufferView":13,
			"componentType":5126,
			"count":2642,
			"type":"VEC4"
		},
		{
			"bufferView":14,
			"componentType":5123,
			"count":9756,
			"type":"SCALAR"
		},
		{
			"bufferView":15,
			"componentType":5126,
			"count":454,
			"max":[
				3.4921376705169678,
				11.100573539733887,
				3.0859551429748535
			],
			"min":[
				-3.77042555809021,
				4.155574798583984,
				-3.600276470184326
			],
			"type":"VEC3"
		},
		{
			"bufferView":16,
			"componentType":5126,
			"count":454,
			"type":"VEC3"
		},
		{
			"bufferView":17,
			"componentType":5126,
			"count":454,
			"type":"VEC2"
		},
		{
			"bufferView":18,
			"componentType":5121,
			"count":454,
			"type":"VEC4"
		},
		{
			"bufferView":19,
			"componentType":5126,
			"count":454,
			"type":"VEC4"
		},
		{
			"bufferView":20,
			"componentType":5123,
			"count":1770,
			"type":"SCALAR"
		},
		{
			"bufferView":21,
			"componentType":5126,
			"count":41,
			"max":[
				1.6666666666666667
			],
			"min":[
				0
			],
			"type":"SCALAR"
		},
		{
			"bufferView":22,
			"componentType":5126,
			"count":41,
			"type":"VEC3"
		},
		{
			"bufferView":23,
			"componentType":5126,
			"count":2,
			"max":[
				1.6666666666666667
			],
			"min":[
				0
			],
			"type":"SCALAR"
		},
		{
			"bufferView":24,
			"componentType":5126,
			"count":2,
			"type":"VEC4"
		},
		{
			"bufferView":25,
			"componentType":5126,
			"count":2,
			"type":"VEC3"
		},
		{
			"bufferView":26,
			"componentType":5126,
			"count":2,
			"type":"VEC3"
		},
		{
			"bufferView":27,
			"componentType":5126,
			"count":2,
			"type":"VEC4"
		},
		{
			"bufferView":28,
			"componentType":5126,
			"count":2,
			"type":"VEC3"
		},
		{
			"bufferView":29,
			"componentType":5126,
			"count":2,
			"type":"VEC3"
		},
		{
			"bufferView":30,
			"componentType":5126,
			"count":41,
			"type":"VEC4"
		},
		{
			"bufferView":31,
			"componentType":5126,
			"count":2,
			"type":"VEC3"
		},
		{
			"bufferView":32,
			"componentType":5126,
			"count":2,
			"type":"VEC3"
		},
		{
			"bufferView":33,
			"componentType":5126,
			"count":41,
			"type":"VEC4"
		},
		{
			"bufferView":34,
			"componentType":5126,
			"count":2,
			"type":"VEC3"
		},
		{
			"bufferView":35,
			"componentType":5126,
			"count":41,
			"type":"VEC4"
		},
		{
			"bufferView":36,
			"componentType":5126,
			"count":2,
			"type":"VEC3"
		},
		{
			"bufferView":37,
			"componentType":5126,
			"count":2,
			"type":"VEC3"
		},
		{
			"bufferView":38,
			"componentType":5126,
			"count":41,
			"type":"VEC4"
		},
		{
			"bufferView":39,
			"componentType":5126,
			"count":2,
			"type":"VEC3"
		},
		{
			"bufferView":40,
			"componentType":5126,
			"count":2,
			"type":"VEC3"
		},
		{
			"bufferView":41,
			"componentType":5126,
			"count":2,
			"type":"VEC4"
		},
		{
			"bufferView":42,
			"componentType":5126,
			"count":2,
			"type":"VEC3"
		},
		{
			"bufferView":43,
			"componentType":5126,
			"count":2,
			"type":"VEC4"
		},
		{
			"bufferView":44,
			"componentType":5126,
			"count":2,
			"type":"VEC3"
		},
		{
			"bufferView":45,
			"componentType":5126,
			"count":2,
			"type":"VEC3"
		},
		{
			"bufferView":46,
			"componentType":5126,
			"count":41,
			"type":"VEC4"
		},
		{
			"bufferView":47,
			"componentType":5126,
			"count":2,
			"type":"VEC3"
		},
		{
			"bufferView":48,
			"componentType":5126,
			"count":2,
			"type":"VEC3"
		},
		{
			"bufferView":49,
			"componentType":5126,
			"count":41,
			"type":"VEC4"
		},
		{
			"bufferView":50,
			"componentType":5126,
			"count":2,
			"type":"VEC3"
		},
		{
			"bufferView":51,
			"componentType":5126,
			"count":2,
			"type":"VEC4"
		},
		{
			"bufferView":52,
			"componentType":5126,
			"count":2,
			"type":"VEC3"
		},
		{
			"bufferView":53,
			"componentType":5126,
			"count":41,
			"type":"VEC4"
		},
		{
			"bufferView":54,
			"componentType":5126,
			"count":2,
			"type":"VEC3"
		},
		{
			"bufferView":55,
			"componentType":5126,
			"count":2,
			"type":"VEC3"
		},
		{
			"bufferView":56,
			"componentType":5126,
			"count":2,
			"type":"VEC4"
		},
		{
			"bufferView":57,
			"componentType":5126,
			"count":2,
			"type":"VEC3"
		},
		{
			"bufferView":58,
			"componentType":5126,
			"count":41,
			"type":"VEC4"
		},
		{
			"bufferView":59,
			"componentType":5126,
			"count":2,
			"type":"VEC3"
		},
		{
			"bufferView":60,
			"componentType":5126,
			"count":2,
			"type":"VEC3"
		},
		{
			"bufferView":61,
			"componentType":5126,
			"count":41,
			"type":"VEC4"
		},
		{
			"bufferView":62,
			"componentType":5126,
			"count":2,
			"type":"VEC3"
		},
		{
			"bufferView":63,
			"componentType":5126,
			"count":2,
			"type":"VEC3"
		},
		{
			"bufferView":64,
			"componentType":5126,
			"count":2,
			"type":"VEC4"
		},
		{
			"bufferView":65,
			"componentType":5126,
			"count":2,
			"type":"VEC3"
		},
		{
			"bufferView":66,
			"componentType":5126,
			"count":2,
			"type":"VEC4"
		},
		{
			"bufferView":67,
			"componentType":5126,
			"count":2,
			"type":"VEC3"
		},
		{
			"bufferView":68,
			"componentType":5126,
			"count":2,
			"type":"VEC3"
		},
		{
			"bufferView":69,
			"componentType":5126,
			"count":41,
			"type":"VEC4"
		},
		{
			"bufferView":70,
			"componentType":5126,
			"count":2,
			"type":"VEC3"
		},
		{
			"bufferView":71,
			"componentType":5126,
			"count":2,
			"type":"VEC3"
		},
		{
			"bufferView":72,
			"componentType":5126,
			"count":41,
			"type":"VEC4"
		},
		{
			"bufferView":73,
			"componentType":5126,
			"count":2,
			"type":"VEC3"
		},
		{
			"bufferView":74,
			"componentType":5126,
			"count":2,
			"type":"VEC4"
		},
		{
			"bufferView":75,
			"componentType":5126,
			"count":2,
			"type":"VEC3"
		},
		{
			"bufferView":76,
			"componentType":5126,
			"count":2,
			"type":"VEC4"
		},
		{
			"bufferView":77,
			"componentType":5126,
			"count":2,
			"type":"VEC3"
		},
		{
			"bufferView":78,
			"componentType":5126,
			"count":2,
			"type":"VEC4"
		},
		{
			"bufferView":79,
			"componentType":5126,
			"count":2,
			"type":"VEC3"
		},
		{
			"bufferView":80,
			"componentType":5126,
			"count":2,
			"type":"VEC3"
		},
		{
			"bufferView":81,
			"componentType":5126,
			"count":2,
			"type":"VEC4"
		},
		{
			"bufferView":82,
			"componentType":5126,
			"count":2,
			"type":"VEC3"
		},
		{
			"bufferView":83,
			"componentType":5126,
			"count":2,
			"type":"VEC3"
		},
		{
			"bufferView":84,
			"componentType":5126,
			"count":2,
			"type":"VEC4"
		},
		{
			"bufferView":85,
			"componentType":5126,
			"count":2,
			"type":"VEC3"
		},
		{
			"bufferView":86,
			"componentType":5126,
			"count":41,
			"type":"VEC4"
		},
		{
			"bufferView":87,
			"componentType":5126,
			"count":2,
			"type":"VEC3"
		},
		{
			"bufferView":88,
			"componentType":5126,
			"count":2,
			"type":"VEC3"
		},
		{
			"bufferView":89,
			"componentType":5126,
			"count":41,
			"type":"VEC4"
		},
		{
			"bufferView":90,
			"componentType":5126,
			"count":2,
			"type":"VEC3"
		},
		{
			"bufferView":91,
			"componentType":5126,
			"count":2,
			"type":"VEC4"
		},
		{
			"bufferView":92,
			"componentType":5126,
			"count":2,
			"type":"VEC3"
		},
		{
			"bufferView":93,
			"componentType":5126,
			"count":2,
			"type":"VEC3"
		},
		{
			"bufferView":94,
			"componentType":5126,
			"count":2,
			"type":"VEC4"
		},
		{
			"bufferView":95,
			"componentType":5126,
			"count":2,
			"type":"VEC3"
		},
		{
			"bufferView":96,
			"componentType":5126,
			"count":2,
			"type":"VEC3"
		},
		{
			"bufferView":97,
			"componentType":5126,
			"count":2,
			"type":"VEC4"
		},
		{
			"bufferView":98,
			"componentType":5126,
			"count":2,
			"type":"VEC3"
		},
		{
			"bufferView":99,
			"componentType":5126,
			"count":2,
			"type":"VEC4"
		},
		{
			"bufferView":100,
			"componentType":5126,
			"count":2,
			"type":"VEC3"
		}
	],
	"bufferViews":[
		{
			"buffer":0,
			"byteLength":10080,
			"byteOffset":0,
			"target":34962
		},
		{
			"buffer":0,
			"byteLength":10080,
			"byteOffset":10080,
			"target":34962
		},
		{
			"buffer":0,
			"byteLength":6720,
			"byteOffset":20160,
			"target":34962
		},
		{
			"buffer":0,
			"byteLength":3360,
			"byteOffset":26880,
			"target":34962
		},
		{
			"buffer":0,
			"byteLength":13440,
			"byteOffset":30240,
			"target":34962
		},
		{
			"buffer":0,
			"byteLength":3288,
			"byteOffset":43680,
			"target":34963
		},
		{
			"buffer":0,
			"byteLength":1920,
			"byteOffset":46968
		},
		{
			"buffer":0,
			"byteLength":31704,
			"byteOffset":48888,
			"target":34962
		},
		{
			"buffer":0,
			"byteLength":31704,
			"byteOffset":80592,
			"target":34962
		},
		{
			"buffer":0,
			"byteLength":21136,
			"byteOffset":112296,
			"target":34962
		},
		{
			"buffer":0,
			"byteLength":10568,
			"byteOffset":133432,
			"target":34962
		},
		{
			"buffer":0,
			"byteLength":21136,
			"byteOffset":144000,
			"target":34962
		},
		{
			"buffer":0,
			"byteLength":10568,
			"byteOffset":165136,
			"target":34962
		},
		{
			"buffer":0,
			"byteLength":42272,
			"byteOffset":175704,
			"target":34962
		},
		{
			"buffer":0,
			"byteLength":19512,
			"byteOffset":217976,
			"target":34963
		},
		{
			"buffer":0,
			"byteLength":5448,
			"byteOffset":237488,
			"target":34962
		},
		{
			"buffer":0,
			"byteLength":5448,
			"byteOffset":242936,
			"target":34962
		},
		{
			"buffer":0,
			"byteLength":3632,
			"byteOffset":248384,
			"target":34962
		},
		{
			"buffer":0,
			"byteLength":1816,
			"byteOffset":252016,
			"target":34962
		},
		{
			"buffer":0,
			"byteLength":7264,
			"byteOffset":253832,
			"target":34962
		},
		{
			"buffer":0,
			"byteLength":3540,
			"byteOffset":261096,
			"target":34963
		},
		{
			"buffer":0,
			"byteLength":164,
			"byteOffset":264636
		},
		{
			"buffer":0,
			"byteLength":492,
			"byteOffset":264800
		},
		{
			"buffer":0,
			"byteLength":8,
			"byteOffset":265292
		},
		{
			"buffer":0,
			"byteLength":32,
			"byteOffset":265300
		},
		{
			"buffer":0,
			"byteLength":24,
			"byteOffset":265332
		},
		{
			"buffer":0,
			"byteLength":24,
			"byteOffset":265356
		},
		{
			"buffer":0,
			"byteLength":32,
			"byteOffset":265380
		},
		{
			"buffer":0,
			"byteLength":24,
			"byteOffset":265412
		},
		{
			"buffer":0,
			"byteLength":24,
			"byteOffset":265436
		},
		{
			"buffer":0,
			"byteLength":656,
			"byteOffset":265460
		},
		{
			"buffer":0,
			"byteLength":24,
			"byteOffset":266116
		},
		{
			"buffer":0,
			"byteLength":24,
			"byteOffset":266140
		},
		{
			"buffer":0,
			"byteLength":656,
			"byteOffset":266164
		},
		{
			"buffer":0,
			"byteLength":24,
			"byteOffset":266820
		},
		{
			"buffer":0,
			"byteLength":656,
			"byteOffset":266844
		},
		{
			"buffer":0,
			"byteLength":24,
			"byteOffset":267500
		},
		{
			"buffer":0,
			"byteLength":24,
			"byteOffset":267524
		},
		{
			"buffer":0,
			"byteLength":656,
			"byteOffset":267548
		},
		{
			"buffer":0,
			"byteLength":24,
			"byteOffset":268204
		},
		{
			"buffer":0,
			"byteLength":24,
			"byteOffset":268228
		},
		{
			"buffer":0,
			"byteLength":32,
			"byteOffset":268252
		},
		{
			"buffer":0,
			"byteLength":24,
			"byteOffset":268284
		},
		{
			"buffer":0,
			"byteLength":32,
			"byteOffset":268308
		},
		{
			"buffer":0,
			"byteLength":24,
			"byteOffset":268340
		},
		{
			"buffer":0,
			"byteLength":24,
			"byteOffset":268364
		},
		{
			"buffer":0,
			"byteLength":656,
			"byteOffset":268388
		},
		{
			"buffer":0,
			"byteLength":24,
			"byteOffset":269044
		},
		{
			"buffer":0,
			"byteLength":24,
			"byteOffset":269068
		},
		{
			"buffer":0,
			"byteLength":656,
			"byteOffset":269092
		},
		{
			"buffer":0,
			"byteLength":24,
			"byteOffset":269748
		},
		{
			"buffer":0,
			"byteLength":32,
			"byteOffset":269772
		},
		{
			"buffer":0,
			"byteLength":24,
			"byteOffset":269804
		},
		{
			"buffer":0,
			"byteLength":656,
			"byteOffset":269828
		},
		{
			"buffer":0,
			"byteLength":24,
			"byteOffset":270484
		},
		{
			"buffer":0,
			"byteLength":24,
			"byteOffset":270508
		},
		{
			"buffer":0,
			"byteLength":32,
			"byteOffset":270532
		},
		{
			"buffer":0,
			"byteLength":24,
			"byteOffset":270564
		},
		{
			"buffer":0,
			"byteLength":656,
			"byteOffset":270588
		},
		{
			"buffer":0,
			"byteLength":24,
			"byteOffset":271244
		},
		{
			"buffer":0,
			"byteLength":24,
			"byteOffset":271268
		},
		{
			"buffer":0,
			"byteLength":656,
			"byteOffset":271292
		},
		{
			"buffer":0,
			"byteLength":24,
			"byteOffset":271948
		},
		{
			"buffer":0,
			"byteLength":24,
			"byteOffset":271972
		},
		{
			"buffer":0,
			"byteLength":32,
			"byteOffset":271996
		},
		{
			"buffer":0,
			"byteLength":24,
			"byteOffset":272028
		},
		{
			"buffer":0,
			"byteLength":32,
			"byteOffset":272052
		},
		{
			"buffer":0,
			"byteLength":24,
			"byteOffset":272084
		},
		{
			"buffer":0,
			"byteLength":24,
			"byteOffset":272108
		},
		{
			"buffer":0,
			"byteLength":656,
			"byteOffset":272132
		},
		{
			"buffer":0,
			"byteLength":24,
			"byteOffset":272788
		},
		{
			"buffer":0,
			"byteLength":24,
			"byteOffset":272812
		},
		{
			"buffer":0,
			"byteLength":656,
			"byteOffset":272836
		},
		{
			"buffer":0,
			"byteLength":24,
			"byteOffset":273492
		},
		{
			"buffer":0,
			"byteLength":32,
			"byteOffset":273516
		},
		{
			"buffer":0,
			"byteLength":24,
			"byteOffset":273548
		},
		{
			"buffer":0,
			"byteLength":32,
			"byteOffset":273572
		},
		{
			"buffer":0,
			"byteLength":24,
			"byteOffset":273604
		},
		{
			"buffer":0,
			"byteLength":32,
			"byteOffset":273628
		},
		{
			"buffer":0,
			"byteLength":24,
			"byteOffset":273660
		},
		{
			"buffer":0,
			"byteLength":24,
			"byteOffset":273684
		},
		{
			"buffer":0,
			"byteLength":32,
			"byteOffset":273708
		},
		{
			"buffer":0,
			"byteLength":24,
			"byteOffset":273740
		},
		{
			"buffer":0,
			"byteLength":24,
			"byteOffset":273764
		},
		{
			"buffer":0,
			"byteLength":32,
			"byteOffset":273788
		},
		{
			"buffer":0,
			"byteLength":24,
			"byteOffset":273820
		},
		{
			"buffer":0,
			"byteLength":656,
			"byteOffset":273844
		},
		{
			"buffer":0,
			"byteLength":24,
			"byteOffset":274500
		},
		{
			"buffer":0,
			"byteLength":24,
			"byteOffset":274524
		},
		{
			"buffer":0,
			"byteLength":656,
			"byteOffset":274548
		},
		{
			"buffer":0,
			"byteLength":24,
			"byteOffset":275204
		},
		{
			"buffer":0,
			"byteLength":32,
			"byteOffset":275228
		},
		{
			"buffer":0,
			"byteLength":24,
			"byteOffset":275260
		},
		{
			"buffer":0,
			"byteLength":24,
			"byteOffset":275284
		},
		{
			"buffer":0,
			"byteLength":32,
			"byteOffset":275308
		},
		{
			"buffer":0,
			"byteLength":24,
			"byteOffset":275340
		},
		{
			"buffer":0,
			"byteLength":24,
			"byteOffset":275364
		},
		{
			"buffer":0,
			"byteLength":32,
			"byteOffset":275388
		},
		{
			"buffer":0,
			"byteLength":24,
			"byteOffset":275420
		},
		{
			"buffer":0,
			"byteLength":32,
			"byteOffset":275444
		},
		{
			"buffer":0,
			"byteLength":24,
			"byteOffset":275476
		}
	],
	"samplers":[
		{
			"magFilter":9729,
			"minFilter":9987
		}
	],
	"buffers":[
		{
			"byteLength":275500,
			"uri":"babcia-chodzi.bin"
		}
	]
}
