{
	"asset":{
		"generator":"Khronos glTF Blender I/O v4.5.48",
		"version":"2.0"
	},
	"scene":0,
	"scenes":[
		{
			"name":"Scene",
			"nodes":[
				0
			]
		}
	],
	"nodes":[
		{
			"mesh":0,
			"name":"Cylinder"
		}
	],
	"materials":[
		{
			"doubleSided":true,
			"emissiveFactor":[
				0.5,
				0.5,
				0.5
			],
			"emissiveTexture":{
				"index":0,
				"texCoord":1
			},
			"name":"Material.001",
			"pbrMetallicRoughness":{
				"baseColorTexture":{
					"index":1
				},
				"metallicFactor":0.5,
				"roughnessFactor":0.5
			}
		},
		{
			"doubleSided":true,
			"name":"Material.002",
			"pbrMetallicRoughness":{
				"baseColorTexture":{
					"index":2
				},
				"metallicFactor":0.5,
				"roughnessFactor":0.5
			}
		},
		{
			"doubleSided":true,
			"name":"Material",
			"pbrMetallicRoughness":{
				"baseColorTexture":{
					"index":3
				},
				"metallicFactor":0.5,
				"roughnessFactor":0.5
			}
		}
	],
	"meshes":[
		{
			"name":"Cylinder",
			"primitives":[
				{
					"attributes":{
						"POSITION":0,
						"NORMAL":1,
						"TEXCOORD_0":2,
						"TEXCOORD_1":3
					},
					"indices":4,
					"material":0
				},
				{
					"attributes":{
						"POSITION":5,
						"NORMAL":6,
						"TEXCOORD_0":7,
						"TEXCOORD_1":8
					},
					"indices":9,
					"material":1
				},
				{
					"attributes":{
						"POSITION":10,
						"NORMAL":11,
						"TEXCOORD_0":12,
						"TEXCOORD_1":13
					},
					"indices":14,
					"material":2
				}
			]
		}
	],
	"textures":[
		{
			"sampler":0,
			"source":0
		},
		{
			"sampler":1,
			"source":1
		},
		{
			"sampler":2,
			"source":1
		},
		{
			"sampler":2,
			"source":1
		}
	],
	"images":[
		{
			"mimeType":"image/png",
			"name":"drewno",
			"uri":"drewno.png"
		},
		{
			"mimeType":"image/png",
			"name":"palette",
			"uri":"../../../textures/palette.png"
		}
	],
	"accessors":[
		{
			"bufferView":0,
			"componentType":5126,
			"count":318,
			"max":[
				2.3761444091796875,
				0.8552334308624268,
				0.059482406824827194
			],
			"min":[
				0.7997339963912964,
				0.4260839521884918,
				-0.059492919594049454
			],
			"type":"VEC3"
		},
		{
			"bufferView":1,
			"componentType":5126,
			"count":318,
			"type":"VEC3"
		},
		{
			"bufferView":2,
			"componentType":5126,
			"count":318,
			"type":"VEC2"
		},
		{
			"bufferView":3,
			"componentType":5126,
			"count":318,
			"type":"VEC2"
		},
		{
			"bufferView":4,
			"componentType":5123,
			"count":1152,
			"type":"SCALAR"
		},
		{
			"bufferView":5,
			"componentType":5126,
			"count":346,
			"max":[
				-0.8431127071380615,
				0.6305885314941406,
				0.24591080844402313
			],
			"min":[
				-1.0867750644683838,
				0.5327268838882446,
				-0.24586111307144165
			],
			"type":"VEC3"
		},
		{
			"bufferView":6,
			"componentType":5126,
			"count":346,
			"type":"VEC3"
		},
		{
			"bufferView":7,
			"componentType":5126,
			"count":346,
			"type":"VEC2"
		},
		{
			"bufferView":8,
			"componentType":5126,
			"count":346,
			"type":"VEC2"
		},
		{
			"bufferView":9,
			"componentType":5123,
			"count":1356,
			"type":"SCALAR"
		},
		{
			"bufferView":10,
			"componentType":5126,
			"count":747,
			"max":[
				0.9114854335784912,
				0.6297701597213745,
				0.911484956741333
			],
			"min":[
				-0.9114847183227539,
				0.11199614405632019,
				-0.9114848971366882
			],
			"type":"VEC3"
		},
		{
			"bufferView":11,
			"componentType":5126,
			"count":747,
			"type":"VEC3"
		},
		{
			"bufferView":12,
			"componentType":5126,
			"count":747,
			"type":"VEC2"
		},
		{
			"bufferView":13,
			"componentType":5126,
			"count":747,
			"type":"VEC2"
		},
		{
			"bufferView":14,
			"componentType":5123,
			"count":3312,
			"type":"SCALAR"
		}
	],
	"bufferViews":[
		{
			"buffer":0,
			"byteLength":3816,
			"byteOffset":0,
			"target":34962
		},
		{
			"buffer":0,
			"byteLength":3816,
			"byteOffset":3816,
			"target":34962
		},
		{
			"buffer":0,
			"byteLength":2544,
			"byteOffset":7632,
			"target":34962
		},
		{
			"buffer":0,
			"byteLength":2544,
			"byteOffset":10176,
			"target":34962
		},
		{
			"buffer":0,
			"byteLength":2304,
			"byteOffset":12720,
			"target":34963
		},
		{
			"buffer":0,
			"byteLength":4152,
			"byteOffset":15024,
			"target":34962
		},
		{
			"buffer":0,
			"byteLength":4152,
			"byteOffset":19176,
			"target":34962
		},
		{
			"buffer":0,
			"byteLength":2768,
			"byteOffset":23328,
			"target":34962
		},
		{
			"buffer":0,
			"byteLength":2768,
			"byteOffset":26096,
			"target":34962
		},
		{
			"buffer":0,
			"byteLength":2712,
			"byteOffset":28864,
			"target":34963
		},
		{
			"buffer":0,
			"byteLength":8964,
			"byteOffset":31576,
			"target":34962
		},
		{
			"buffer":0,
			"byteLength":8964,
			"byteOffset":40540,
			"target":34962
		},
		{
			"buffer":0,
			"byteLength":5976,
			"byteOffset":49504,
			"target":34962
		},
		{
			"buffer":0,
			"byteLength":5976,
			"byteOffset":55480,
			"target":34962
		},
		{
			"buffer":0,
			"byteLength":6624,
			"byteOffset":61456,
			"target":34963
		}
	],
	"samplers":[
		{
			"magFilter":9729,
			"minFilter":9987,
			"wrapS":33071,
			"wrapT":33071
		},
		{
			"magFilter":9729,
			"minFilter":9987
		},
		{
			"magFilter":9728,
			"minFilter":9984
		}
	],
	"buffers":[
		{
			"byteLength":68080,
			"uri":"wok.bin"
		}
	]
}
