{
	"asset":{
		"generator":"Khronos glTF Blender I/O v4.4.56",
		"version":"2.0"
	},
	"scene":0,
	"scenes":[
		{
			"name":"Scene",
			"nodes":[
				0,
				1,
				2,
				3
			]
		}
	],
	"nodes":[
		{
			"mesh":0,
			"name":"Plane"
		},
		{
			"mesh":1,
			"name":"Circle.005"
		},
		{
			"mesh":2,
			"name":"Circle.001"
		},
		{
			"mesh":3,
			"name":"Circle"
		}
	],
	"materials":[
		{
			"doubleSided":true,
			"name":"Material.004",
			"pbrMetallicRoughness":{
				"baseColorTexture":{
					"index":0
				},
				"metallicFactor":0
			}
		},
		{
			"doubleSided":true,
			"name":"Material.005",
			"pbrMetallicRoughness":{
				"baseColorTexture":{
					"index":1
				},
				"metallicFactor":0
			}
		},
		{
			"doubleSided":true,
			"name":"Material.003",
			"pbrMetallicRoughness":{
				"baseColorTexture":{
					"index":2
				},
				"metallicFactor":0.20000000298023224,
				"roughnessFactor":0.20000000298023224
			}
		},
		{
			"doubleSided":true,
			"name":"Material.002",
			"pbrMetallicRoughness":{
				"baseColorTexture":{
					"index":3
				},
				"metallicFactor":0.20000000298023224,
				"roughnessFactor":0.20000000298023224
			}
		}
	],
	"meshes":[
		{
			"name":"Plane.001",
			"primitives":[
				{
					"attributes":{
						"POSITION":0,
						"NORMAL":1,
						"TEXCOORD_0":2
					},
					"indices":3,
					"material":0
				}
			]
		},
		{
			"name":"Circle.005",
			"primitives":[
				{
					"attributes":{
						"POSITION":4,
						"NORMAL":5,
						"TEXCOORD_0":6
					},
					"indices":7,
					"material":1
				}
			]
		},
		{
			"name":"Circle.001",
			"primitives":[
				{
					"attributes":{
						"POSITION":8,
						"NORMAL":9,
						"TEXCOORD_0":10
					},
					"indices":11,
					"material":2
				}
			]
		},
		{
			"name":"Circle",
			"primitives":[
				{
					"attributes":{
						"POSITION":12,
						"NORMAL":13,
						"TEXCOORD_0":14
					},
					"indices":15,
					"material":3
				}
			]
		}
	],
	"textures":[
		{
			"sampler":0,
			"source":0
		},
		{
			"sampler":1,
			"source":0
		},
		{
			"sampler":0,
			"source":0
		},
		{
			"sampler":0,
			"source":0
		}
	],
	"images":[
		{
			"mimeType":"image/png",
			"name":"palette",
			"uri":"../../../textures/palette.png"
		}
	],
	"accessors":[
		{
			"bufferView":0,
			"componentType":5126,
			"count":744,
			"max":[
				0.4101754128932953,
				1.5921003818511963,
				1.1716381311416626
			],
			"min":[
				-0.4101754128932953,
				1.3782497644424438,
				-1.1716378927230835
			],
			"type":"VEC3"
		},
		{
			"bufferView":1,
			"componentType":5126,
			"count":744,
			"type":"VEC3"
		},
		{
			"bufferView":2,
			"componentType":5126,
			"count":744,
			"type":"VEC2"
		},
		{
			"bufferView":3,
			"componentType":5123,
			"count":2592,
			"type":"SCALAR"
		},
		{
			"bufferView":4,
			"componentType":5126,
			"count":512,
			"max":[
				0.10032077878713608,
				2.2922379970550537,
				0.10032081604003906
			],
			"min":[
				-0.10032080113887787,
				2.082392454147339,
				-0.10032080113887787
			],
			"type":"VEC3"
		},
		{
			"bufferView":5,
			"componentType":5126,
			"count":512,
			"type":"VEC3"
		},
		{
			"bufferView":6,
			"componentType":5126,
			"count":512,
			"type":"VEC2"
		},
		{
			"bufferView":7,
			"componentType":5123,
			"count":2496,
			"type":"SCALAR"
		},
		{
			"bufferView":8,
			"componentType":5126,
			"count":975,
			"max":[
				0.8941529989242554,
				2.082392454147339,
				0.8941529989242554
			],
			"min":[
				-0.8941529989242554,
				1.6300816535949707,
				-0.8941529989242554
			],
			"type":"VEC3"
		},
		{
			"bufferView":9,
			"componentType":5126,
			"count":975,
			"type":"VEC3"
		},
		{
			"bufferView":10,
			"componentType":5126,
			"count":975,
			"type":"VEC2"
		},
		{
			"bufferView":11,
			"componentType":5123,
			"count":4800,
			"type":"SCALAR"
		},
		{
			"bufferView":12,
			"componentType":5126,
			"count":1369,
			"max":[
				0.9023690223693848,
				1.6782724857330322,
				0.9023690223693848
			],
			"min":[
				-0.9023690819740295,
				0,
				-0.9023690819740295
			],
			"type":"VEC3"
		},
		{
			"bufferView":13,
			"componentType":5126,
			"count":1369,
			"type":"VEC3"
		},
		{
			"bufferView":14,
			"componentType":5126,
			"count":1369,
			"type":"VEC2"
		},
		{
			"bufferView":15,
			"componentType":5123,
			"count":7296,
			"type":"SCALAR"
		}
	],
	"bufferViews":[
		{
			"buffer":0,
			"byteLength":8928,
			"byteOffset":0,
			"target":34962
		},
		{
			"buffer":0,
			"byteLength":8928,
			"byteOffset":8928,
			"target":34962
		},
		{
			"buffer":0,
			"byteLength":5952,
			"byteOffset":17856,
			"target":34962
		},
		{
			"buffer":0,
			"byteLength":5184,
			"byteOffset":23808,
			"target":34963
		},
		{
			"buffer":0,
			"byteLength":6144,
			"byteOffset":28992,
			"target":34962
		},
		{
			"buffer":0,
			"byteLength":6144,
			"byteOffset":35136,
			"target":34962
		},
		{
			"buffer":0,
			"byteLength":4096,
			"byteOffset":41280,
			"target":34962
		},
		{
			"buffer":0,
			"byteLength":4992,
			"byteOffset":45376,
			"target":34963
		},
		{
			"buffer":0,
			"byteLength":11700,
			"byteOffset":50368,
			"target":34962
		},
		{
			"buffer":0,
			"byteLength":11700,
			"byteOffset":62068,
			"target":34962
		},
		{
			"buffer":0,
			"byteLength":7800,
			"byteOffset":73768,
			"target":34962
		},
		{
			"buffer":0,
			"byteLength":9600,
			"byteOffset":81568,
			"target":34963
		},
		{
			"buffer":0,
			"byteLength":16428,
			"byteOffset":91168,
			"target":34962
		},
		{
			"buffer":0,
			"byteLength":16428,
			"byteOffset":107596,
			"target":34962
		},
		{
			"buffer":0,
			"byteLength":10952,
			"byteOffset":124024,
			"target":34962
		},
		{
			"buffer":0,
			"byteLength":14592,
			"byteOffset":134976,
			"target":34963
		}
	],
	"samplers":[
		{
			"magFilter":9728,
			"minFilter":9984
		},
		{
			"magFilter":9729,
			"minFilter":9987
		}
	],
	"buffers":[
		{
			"byteLength":149568,
			"uri":"bigger_pot.bin"
		}
	]
}
