{
	"asset":{
		"generator":"Khronos glTF Blender I/O v4.5.48",
		"version":"2.0"
	},
	"scene":0,
	"scenes":[
		{
			"name":"Scene",
			"nodes":[
				0,
				1,
				2,
				3
			]
		}
	],
	"nodes":[
		{
			"mesh":0,
			"name":"Cube.002"
		},
		{
			"mesh":1,
			"name":"Cube.001"
		},
		{
			"mesh":2,
			"name":"Cube.003"
		},
		{
			"mesh":3,
			"name":"Cube.004"
		}
	],
	"materials":[
		{
			"doubleSided":true,
			"name":"Material.001",
			"pbrMetallicRoughness":{
				"baseColorTexture":{
					"index":0
				},
				"metallicFactor":0,
				"roughnessFactor":0.5
			}
		}
	],
	"meshes":[
		{
			"name":"Cube.003",
			"primitives":[
				{
					"attributes":{
						"POSITION":0,
						"NORMAL":1,
						"TEXCOORD_0":2
					},
					"indices":3,
					"material":0
				}
			]
		},
		{
			"name":"Cube.001",
			"primitives":[
				{
					"attributes":{
						"POSITION":4,
						"NORMAL":5,
						"TEXCOORD_0":6
					},
					"indices":7,
					"material":0
				}
			]
		},
		{
			"name":"Cube.002",
			"primitives":[
				{
					"attributes":{
						"POSITION":8,
						"NORMAL":9,
						"TEXCOORD_0":10
					},
					"indices":11,
					"material":0
				}
			]
		},
		{
			"name":"Cube.004",
			"primitives":[
				{
					"attributes":{
						"POSITION":12,
						"NORMAL":13,
						"TEXCOORD_0":14
					},
					"indices":15,
					"material":0
				}
			]
		}
	],
	"textures":[
		{
			"sampler":0,
			"source":0
		}
	],
	"images":[
		{
			"mimeType":"image/png",
			"name":"palette",
			"uri": "../../../textures/palette.png"
		}
	],
	"accessors":[
		{
			"bufferView":0,
			"componentType":5126,
			"count":1154,
			"max":[
				-0.3271217346191406,
				1.7790242433547974,
				0.9848408102989197
			],
			"min":[
				-1.768611192703247,
				0.008351802825927734,
				-0.9902213215827942
			],
			"type":"VEC3"
		},
		{
			"bufferView":1,
			"componentType":5126,
			"count":1154,
			"type":"VEC3"
		},
		{
			"bufferView":2,
			"componentType":5126,
			"count":1154,
			"type":"VEC2"
		},
		{
			"bufferView":3,
			"componentType":5123,
			"count":6444,
			"type":"SCALAR"
		},
		{
			"bufferView":4,
			"componentType":5126,
			"count":1023,
			"max":[
				2.4631900787353516,
				1.6649391651153564,
				0.9692580103874207
			],
			"min":[
				0.9399567246437073,
				0.00614774227142334,
				-0.9685900211334229
			],
			"type":"VEC3"
		},
		{
			"bufferView":5,
			"componentType":5126,
			"count":1023,
			"type":"VEC3"
		},
		{
			"bufferView":6,
			"componentType":5126,
			"count":1023,
			"type":"VEC2"
		},
		{
			"bufferView":7,
			"componentType":5123,
			"count":5778,
			"type":"SCALAR"
		},
		{
			"bufferView":8,
			"componentType":5126,
			"count":391,
			"max":[
				1.7725977897644043,
				1.4590421915054321,
				0.4780598282814026
			],
			"min":[
				0.4455854296684265,
				0.00530165433883667,
				-1.5025041103363037
			],
			"type":"VEC3"
		},
		{
			"bufferView":9,
			"componentType":5126,
			"count":391,
			"type":"VEC3"
		},
		{
			"bufferView":10,
			"componentType":5126,
			"count":391,
			"type":"VEC2"
		},
		{
			"bufferView":11,
			"componentType":5123,
			"count":1500,
			"type":"SCALAR"
		},
		{
			"bufferView":12,
			"componentType":5126,
			"count":408,
			"max":[
				0.4802526831626892,
				1.5206503868103027,
				1.4008804559707642
			],
			"min":[
				-0.8148923516273499,
				0.010020852088928223,
				-0.5838186740875244
			],
			"type":"VEC3"
		},
		{
			"bufferView":13,
			"componentType":5126,
			"count":408,
			"type":"VEC3"
		},
		{
			"bufferView":14,
			"componentType":5126,
			"count":408,
			"type":"VEC2"
		},
		{
			"bufferView":15,
			"componentType":5123,
			"count":1494,
			"type":"SCALAR"
		}
	],
	"bufferViews":[
		{
			"buffer":0,
			"byteLength":13848,
			"byteOffset":0,
			"target":34962
		},
		{
			"buffer":0,
			"byteLength":13848,
			"byteOffset":13848,
			"target":34962
		},
		{
			"buffer":0,
			"byteLength":9232,
			"byteOffset":27696,
			"target":34962
		},
		{
			"buffer":0,
			"byteLength":12888,
			"byteOffset":36928,
			"target":34963
		},
		{
			"buffer":0,
			"byteLength":12276,
			"byteOffset":49816,
			"target":34962
		},
		{
			"buffer":0,
			"byteLength":12276,
			"byteOffset":62092,
			"target":34962
		},
		{
			"buffer":0,
			"byteLength":8184,
			"byteOffset":74368,
			"target":34962
		},
		{
			"buffer":0,
			"byteLength":11556,
			"byteOffset":82552,
			"target":34963
		},
		{
			"buffer":0,
			"byteLength":4692,
			"byteOffset":94108,
			"target":34962
		},
		{
			"buffer":0,
			"byteLength":4692,
			"byteOffset":98800,
			"target":34962
		},
		{
			"buffer":0,
			"byteLength":3128,
			"byteOffset":103492,
			"target":34962
		},
		{
			"buffer":0,
			"byteLength":3000,
			"byteOffset":106620,
			"target":34963
		},
		{
			"buffer":0,
			"byteLength":4896,
			"byteOffset":109620,
			"target":34962
		},
		{
			"buffer":0,
			"byteLength":4896,
			"byteOffset":114516,
			"target":34962
		},
		{
			"buffer":0,
			"byteLength":3264,
			"byteOffset":119412,
			"target":34962
		},
		{
			"buffer":0,
			"byteLength":2988,
			"byteOffset":122676,
			"target":34963
		}
	],
	"samplers":[
		{
			"magFilter":9729,
			"minFilter":9987
		}
	],
	"buffers":[
		{
			"byteLength":125664,
			"uri":"potato-cut.bin"
		}
	]
}
