{
	"asset":{
		"generator":"Khronos glTF Blender I/O v4.5.48",
		"version":"2.0"
	},
	"scene":0,
	"scenes":[
		{
			"name":"Scene",
			"nodes":[
				0,
				1,
				2,
				3,
				4,
				5,
				6,
				7,
				8
			]
		}
	],
	"nodes":[
		{
			"mesh":0,
			"name":"Cube"
		},
		{
			"mesh":1,
			"name":"Cube.001"
		},
		{
			"mesh":2,
			"name":"Cube.002"
		},
		{
			"mesh":3,
			"name":"Cube.003"
		},
		{
			"mesh":4,
			"name":"Cube.004"
		},
		{
			"mesh":5,
			"name":"Cube.005"
		},
		{
			"mesh":6,
			"name":"Cube.006"
		},
		{
			"mesh":7,
			"name":"Cube.007"
		},
		{
			"mesh":8,
			"name":"Cube.008"
		}
	],
	"materials":[
		{
			"doubleSided":true,
			"name":"Material",
			"pbrMetallicRoughness":{
				"baseColorTexture":{
					"index":0
				},
				"metallicFactor":0,
				"roughnessFactor":0.5
			}
		}
	],
	"meshes":[
		{
			"name":"Cube.001",
			"primitives":[
				{
					"attributes":{
						"POSITION":0,
						"NORMAL":1,
						"TEXCOORD_0":2
					},
					"indices":3,
					"material":0
				}
			]
		},
		{
			"name":"Cube.002",
			"primitives":[
				{
					"attributes":{
						"POSITION":4,
						"NORMAL":5,
						"TEXCOORD_0":6
					},
					"indices":7,
					"material":0
				}
			]
		},
		{
			"name":"Cube.003",
			"primitives":[
				{
					"attributes":{
						"POSITION":8,
						"NORMAL":9,
						"TEXCOORD_0":10
					},
					"indices":11,
					"material":0
				}
			]
		},
		{
			"name":"Cube.004",
			"primitives":[
				{
					"attributes":{
						"POSITION":12,
						"NORMAL":13,
						"TEXCOORD_0":14
					},
					"indices":15,
					"material":0
				}
			]
		},
		{
			"name":"Cube.005",
			"primitives":[
				{
					"attributes":{
						"POSITION":16,
						"NORMAL":17,
						"TEXCOORD_0":18
					},
					"indices":19,
					"material":0
				}
			]
		},
		{
			"name":"Cube.006",
			"primitives":[
				{
					"attributes":{
						"POSITION":20,
						"NORMAL":21,
						"TEXCOORD_0":22
					},
					"indices":23,
					"material":0
				}
			]
		},
		{
			"name":"Cube.007",
			"primitives":[
				{
					"attributes":{
						"POSITION":24,
						"NORMAL":25,
						"TEXCOORD_0":26
					},
					"indices":27,
					"material":0
				}
			]
		},
		{
			"name":"Cube.008",
			"primitives":[
				{
					"attributes":{
						"POSITION":28,
						"NORMAL":29,
						"TEXCOORD_0":30
					},
					"indices":31,
					"material":0
				}
			]
		},
		{
			"name":"Cube.009",
			"primitives":[
				{
					"attributes":{
						"POSITION":32,
						"NORMAL":33,
						"TEXCOORD_0":34
					},
					"indices":31,
					"material":0
				}
			]
		}
	],
	"textures":[
		{
			"sampler":0,
			"source":0
		}
	],
	"images":[
		{
			"mimeType":"image/png",
			"name":"palette",
			"uri":"palette.png"
		}
	],
	"accessors":[
		{
			"bufferView":0,
			"componentType":5126,
			"count":372,
			"max":[
				0.2176506519317627,
				0.7043052911758423,
				0.856347382068634
			],
			"min":[
				-0.5475293397903442,
				-1.0421278476715088,
				-0.8662357926368713
			],
			"type":"VEC3"
		},
		{
			"bufferView":1,
			"componentType":5126,
			"count":372,
			"type":"VEC3"
		},
		{
			"bufferView":2,
			"componentType":5126,
			"count":372,
			"type":"VEC2"
		},
		{
			"bufferView":3,
			"componentType":5123,
			"count":900,
			"type":"SCALAR"
		},
		{
			"bufferView":4,
			"componentType":5126,
			"count":96,
			"max":[
				0.1408100724220276,
				1.096147060394287,
				0.1408100724220276
			],
			"min":[
				-0.1408100724220276,
				-0.3964287042617798,
				-0.1408100724220276
			],
			"type":"VEC3"
		},
		{
			"bufferView":5,
			"componentType":5126,
			"count":96,
			"type":"VEC3"
		},
		{
			"bufferView":6,
			"componentType":5126,
			"count":96,
			"type":"VEC2"
		},
		{
			"bufferView":7,
			"componentType":5123,
			"count":132,
			"type":"SCALAR"
		},
		{
			"bufferView":8,
			"componentType":5126,
			"count":96,
			"max":[
				0.19927194714546204,
				1.0064600706100464,
				-0.06794571876525879
			],
			"min":[
				-0.19927194714546204,
				-0.5044883489608765,
				-0.49487143754959106
			],
			"type":"VEC3"
		},
		{
			"bufferView":9,
			"componentType":5126,
			"count":96,
			"type":"VEC3"
		},
		{
			"bufferView":10,
			"componentType":5126,
			"count":96,
			"type":"VEC2"
		},
		{
			"bufferView":11,
			"componentType":5123,
			"count":132,
			"type":"SCALAR"
		},
		{
			"bufferView":12,
			"componentType":5126,
			"count":96,
			"max":[
				0.24369637668132782,
				1.0649261474609375,
				0.5153596997261047
			],
			"min":[
				-0.24369637668132782,
				-0.4488697648048401,
				-0.028598949313163757
			],
			"type":"VEC3"
		},
		{
			"bufferView":13,
			"componentType":5126,
			"count":96,
			"type":"VEC3"
		},
		{
			"bufferView":14,
			"componentType":5126,
			"count":96,
			"type":"VEC2"
		},
		{
			"bufferView":15,
			"componentType":5123,
			"count":132,
			"type":"SCALAR"
		},
		{
			"bufferView":16,
			"componentType":5126,
			"count":96,
			"max":[
				-0.1674271821975708,
				1.2276747226715088,
				0.8423914909362793
			],
			"min":[
				-0.449047327041626,
				-0.2845759987831116,
				0.2756371796131134
			],
			"type":"VEC3"
		},
		{
			"bufferView":17,
			"componentType":5126,
			"count":96,
			"type":"VEC3"
		},
		{
			"bufferView":18,
			"componentType":5126,
			"count":96,
			"type":"VEC2"
		},
		{
			"bufferView":19,
			"componentType":5123,
			"count":132,
			"type":"SCALAR"
		},
		{
			"bufferView":20,
			"componentType":5126,
			"count":96,
			"max":[
				-0.17186972498893738,
				1.3802661895751953,
				0.47843730449676514
			],
			"min":[
				-0.45348986983299255,
				-0.13294214010238647,
				0.015929028391838074
			],
			"type":"VEC3"
		},
		{
			"bufferView":21,
			"componentType":5126,
			"count":96,
			"type":"VEC3"
		},
		{
			"bufferView":22,
			"componentType":5126,
			"count":96,
			"type":"VEC2"
		},
		{
			"bufferView":23,
			"componentType":5123,
			"count":132,
			"type":"SCALAR"
		},
		{
			"bufferView":24,
			"componentType":5126,
			"count":96,
			"max":[
				-0.15581971406936646,
				1.3479886054992676,
				0.09599867463111877
			],
			"min":[
				-0.43743985891342163,
				-0.146298348903656,
				-0.19487208127975464
			],
			"type":"VEC3"
		},
		{
			"bufferView":25,
			"componentType":5126,
			"count":96,
			"type":"VEC3"
		},
		{
			"bufferView":26,
			"componentType":5126,
			"count":96,
			"type":"VEC2"
		},
		{
			"bufferView":27,
			"componentType":5123,
			"count":132,
			"type":"SCALAR"
		},
		{
			"bufferView":28,
			"componentType":5126,
			"count":96,
			"max":[
				-0.1831636130809784,
				1.2852363586425781,
				-0.010641008615493774
			],
			"min":[
				-0.46478375792503357,
				-0.22805309295654297,
				-0.5521762371063232
			],
			"type":"VEC3"
		},
		{
			"bufferView":29,
			"componentType":5126,
			"count":96,
			"type":"VEC3"
		},
		{
			"bufferView":30,
			"componentType":5126,
			"count":96,
			"type":"VEC2"
		},
		{
			"bufferView":31,
			"componentType":5123,
			"count":132,
			"type":"SCALAR"
		},
		{
			"bufferView":32,
			"componentType":5126,
			"count":96,
			"max":[
				-0.2017325460910797,
				1.1163994073867798,
				-0.231519877910614
			],
			"min":[
				-0.4833526909351349,
				-0.38625848293304443,
				-0.9017202258110046
			],
			"type":"VEC3"
		},
		{
			"bufferView":33,
			"componentType":5126,
			"count":96,
			"type":"VEC3"
		},
		{
			"bufferView":34,
			"componentType":5126,
			"count":96,
			"type":"VEC2"
		}
	],
	"bufferViews":[
		{
			"buffer":0,
			"byteLength":4464,
			"byteOffset":0,
			"target":34962
		},
		{
			"buffer":0,
			"byteLength":4464,
			"byteOffset":4464,
			"target":34962
		},
		{
			"buffer":0,
			"byteLength":2976,
			"byteOffset":8928,
			"target":34962
		},
		{
			"buffer":0,
			"byteLength":1800,
			"byteOffset":11904,
			"target":34963
		},
		{
			"buffer":0,
			"byteLength":1152,
			"byteOffset":13704,
			"target":34962
		},
		{
			"buffer":0,
			"byteLength":1152,
			"byteOffset":14856,
			"target":34962
		},
		{
			"buffer":0,
			"byteLength":768,
			"byteOffset":16008,
			"target":34962
		},
		{
			"buffer":0,
			"byteLength":264,
			"byteOffset":16776,
			"target":34963
		},
		{
			"buffer":0,
			"byteLength":1152,
			"byteOffset":17040,
			"target":34962
		},
		{
			"buffer":0,
			"byteLength":1152,
			"byteOffset":18192,
			"target":34962
		},
		{
			"buffer":0,
			"byteLength":768,
			"byteOffset":19344,
			"target":34962
		},
		{
			"buffer":0,
			"byteLength":264,
			"byteOffset":20112,
			"target":34963
		},
		{
			"buffer":0,
			"byteLength":1152,
			"byteOffset":20376,
			"target":34962
		},
		{
			"buffer":0,
			"byteLength":1152,
			"byteOffset":21528,
			"target":34962
		},
		{
			"buffer":0,
			"byteLength":768,
			"byteOffset":22680,
			"target":34962
		},
		{
			"buffer":0,
			"byteLength":264,
			"byteOffset":23448,
			"target":34963
		},
		{
			"buffer":0,
			"byteLength":1152,
			"byteOffset":23712,
			"target":34962
		},
		{
			"buffer":0,
			"byteLength":1152,
			"byteOffset":24864,
			"target":34962
		},
		{
			"buffer":0,
			"byteLength":768,
			"byteOffset":26016,
			"target":34962
		},
		{
			"buffer":0,
			"byteLength":264,
			"byteOffset":26784,
			"target":34963
		},
		{
			"buffer":0,
			"byteLength":1152,
			"byteOffset":27048,
			"target":34962
		},
		{
			"buffer":0,
			"byteLength":1152,
			"byteOffset":28200,
			"target":34962
		},
		{
			"buffer":0,
			"byteLength":768,
			"byteOffset":29352,
			"target":34962
		},
		{
			"buffer":0,
			"byteLength":264,
			"byteOffset":30120,
			"target":34963
		},
		{
			"buffer":0,
			"byteLength":1152,
			"byteOffset":30384,
			"target":34962
		},
		{
			"buffer":0,
			"byteLength":1152,
			"byteOffset":31536,
			"target":34962
		},
		{
			"buffer":0,
			"byteLength":768,
			"byteOffset":32688,
			"target":34962
		},
		{
			"buffer":0,
			"byteLength":264,
			"byteOffset":33456,
			"target":34963
		},
		{
			"buffer":0,
			"byteLength":1152,
			"byteOffset":33720,
			"target":34962
		},
		{
			"buffer":0,
			"byteLength":1152,
			"byteOffset":34872,
			"target":34962
		},
		{
			"buffer":0,
			"byteLength":768,
			"byteOffset":36024,
			"target":34962
		},
		{
			"buffer":0,
			"byteLength":264,
			"byteOffset":36792,
			"target":34963
		},
		{
			"buffer":0,
			"byteLength":1152,
			"byteOffset":37056,
			"target":34962
		},
		{
			"buffer":0,
			"byteLength":1152,
			"byteOffset":38208,
			"target":34962
		},
		{
			"buffer":0,
			"byteLength":768,
			"byteOffset":39360,
			"target":34962
		}
	],
	"samplers":[
		{
			"magFilter":9729,
			"minFilter":9987
		}
	],
	"buffers":[
		{
			"byteLength":40128,
			"uri":"frytki.bin"
		}
	]
}
