{
	"asset":{
		"generator":"Khronos glTF Blender I/O v4.4.56",
		"version":"2.0"
	},
	"scene":0,
	"scenes":[
		{
			"name":"Scene",
			"nodes":[
				0
			]
		}
	],
	"nodes":[
		{
			"mesh":0,
			"name":"Mball.014",
			"scale":[
				0.9146634936332703,
				0.9146634936332703,
				0.9146634936332703
			]
		}
	],
	"materials":[
		{
			"doubleSided":true,
			"name":"Material",
			"pbrMetallicRoughness":{
				"baseColorTexture":{
					"index":0
				},
				"metallicFactor":0,
				"roughnessFactor":0.5
			}
		}
	],
	"meshes":[
		{
			"name":"Mesh",
			"primitives":[
				{
					"attributes":{
						"POSITION":0,
						"NORMAL":1,
						"TEXCOORD_0":2
					},
					"indices":3,
					"material":0
				}
			]
		}
	],
	"textures":[
		{
			"sampler":0,
			"source":0
		}
	],
	"images":[
		{
			"mimeType": "image/png",
			"name": "palette",
			"uri": "../../textures/palette.png"
		}
	],
	"accessors":[
		{
			"bufferView":0,
			"componentType":5126,
			"count":2159,
			"max":[
				8.171459197998047,
				3.388333320617676,
				2.673433303833008
			],
			"min":[
				-3.039217472076416,
				-3.6986162662506104,
				-2.62394380569458
			],
			"type":"VEC3"
		},
		{
			"bufferView":1,
			"componentType":5126,
			"count":2159,
			"type":"VEC3"
		},
		{
			"bufferView":2,
			"componentType":5126,
			"count":2159,
			"type":"VEC2"
		},
		{
			"bufferView":3,
			"componentType":5123,
			"count":9618,
			"type":"SCALAR"
		}
	],
	"bufferViews":[
		{
			"buffer":0,
			"byteLength":25908,
			"byteOffset":0,
			"target":34962
		},
		{
			"buffer":0,
			"byteLength":25908,
			"byteOffset":25908,
			"target":34962
		},
		{
			"buffer":0,
			"byteLength":17272,
			"byteOffset":51816,
			"target":34962
		},
		{
			"buffer":0,
			"byteLength":19236,
			"byteOffset":69088,
			"target":34963
		}
	],
	"samplers":[
		{
			"magFilter":9729,
			"minFilter":9987
		}
	],
	"buffers":[
		{
			"byteLength":88324,
			"uri":"chmura.bin"
		}
	]
}
