{
	"asset":{
		"generator":"Khronos glTF Blender I/O v4.4.56",
		"version":"2.0"
	},
	"scene":0,
	"scenes":[
		{
			"name":"Scene",
			"nodes":[
				0
			]
		}
	],
	"nodes":[
		{
			"mesh":0,
			"name":"Mball.014"
		}
	],
	"materials":[
		{
			"doubleSided":true,
			"name":"Material.001",
			"pbrMetallicRoughness":{
				"baseColorTexture":{
					"index":0
				},
				"metallicFactor":0,
				"roughnessFactor":0.5
			}
		}
	],
	"meshes":[
		{
			"name":"Mesh",
			"primitives":[
				{
					"attributes":{
						"POSITION":0,
						"NORMAL":1,
						"TEXCOORD_0":2
					},
					"indices":3,
					"material":0
				}
			]
		}
	],
	"textures":[
		{
			"sampler":0,
			"source":0
		}
	],
	"images":[
		{
			"mimeType": "image/png",
			"name": "palette",
			"uri": "../../textures/palette.png"
		}
	],
	"accessors":[
		{
			"bufferView":0,
			"componentType":5126,
			"count":2109,
			"max":[
				2.0551435947418213,
				6.474216461181641,
				5.366094589233398
			],
			"min":[
				-2.513179302215576,
				-0.007956981658935547,
				-4.890011310577393
			],
			"type":"VEC3"
		},
		{
			"bufferView":1,
			"componentType":5126,
			"count":2109,
			"type":"VEC3"
		},
		{
			"bufferView":2,
			"componentType":5126,
			"count":2109,
			"type":"VEC2"
		},
		{
			"bufferView":3,
			"componentType":5123,
			"count":8982,
			"type":"SCALAR"
		}
	],
	"bufferViews":[
		{
			"buffer":0,
			"byteLength":25308,
			"byteOffset":0,
			"target":34962
		},
		{
			"buffer":0,
			"byteLength":25308,
			"byteOffset":25308,
			"target":34962
		},
		{
			"buffer":0,
			"byteLength":16872,
			"byteOffset":50616,
			"target":34962
		},
		{
			"buffer":0,
			"byteLength":17964,
			"byteOffset":67488,
			"target":34963
		}
	],
	"samplers":[
		{
			"magFilter":9728,
			"minFilter":9984
		}
	],
	"buffers":[
		{
			"byteLength":85452,
			"uri":"chmura-dziura.bin"
		}
	]
}
