{
	"asset":{
		"generator":"Khronos glTF Blender I/O v5.1.19",
		"version":"2.0"
	},
	"scene":0,
	"scenes":[
		{
			"name":"Scene",
			"nodes":[
				0,
				1,
				2,
				3
			]
		}
	],
	"nodes":[
		{
			"mesh":0,
			"name":"Cylinder"
		},
		{
			"mesh":1,
			"name":"Plane"
		},
		{
			"mesh":2,
			"name":"Plane.001"
		},
		{
			"mesh":3,
			"name":"Plane.002"
		}
	],
	"materials":[
		{
			"doubleSided":true,
			"name":"Material.001",
			"pbrMetallicRoughness":{
				"baseColorTexture":{
					"index":0
				},
				"metallicFactor":0,
				"roughnessFactor":0.5
			}
		},
		{
			"doubleSided":true,
			"name":"Material",
			"pbrMetallicRoughness":{
				"baseColorTexture":{
					"index":1
				},
				"metallicFactor":0,
				"roughnessFactor":0.5
			}
		}
	],
	"meshes":[
		{
			"name":"Cylinder",
			"primitives":[
				{
					"attributes":{
						"POSITION":0,
						"NORMAL":1,
						"TEXCOORD_0":2
					},
					"indices":3,
					"material":0
				}
			]
		},
		{
			"name":"Plane",
			"primitives":[
				{
					"attributes":{
						"POSITION":4,
						"NORMAL":5,
						"TEXCOORD_0":6
					},
					"indices":7,
					"material":1
				},
				{
					"attributes":{
						"POSITION":8,
						"NORMAL":9,
						"TEXCOORD_0":10
					},
					"indices":11,
					"material":0
				}
			]
		},
		{
			"name":"Plane.001",
			"primitives":[
				{
					"attributes":{
						"POSITION":12,
						"NORMAL":13,
						"TEXCOORD_0":14
					},
					"indices":15,
					"material":0
				}
			]
		},
		{
			"name":"Plane.003",
			"primitives":[
				{
					"attributes":{
						"POSITION":16,
						"NORMAL":17,
						"TEXCOORD_0":18
					},
					"indices":15,
					"material":0
				}
			]
		}
	],
	"textures":[
		{
			"sampler":0,
			"source":0
		},
		{
			"sampler":0,
			"source":1
		}
	],
	"images":[
		{
			"mimeType":"image/png",
			"name":"palette",
			"uri":"palette.png"
		},
		{
			"mimeType":"image/jpeg",
			"name":"54e3621b-89d8-4583-bb2b-561909322c29",
			"uri":"54e3621b-89d8-4583-bb2b-561909322c29.jpg"
		}
	],
	"accessors":[
		{
			"bufferView":0,
			"componentType":5126,
			"count":134,
			"max":[
				0.10876418650150299,
				1.588080883026123,
				0.10876418650150299
			],
			"min":[
				-0.10876418650150299,
				-0.013116598129272461,
				-0.10876418650150299
			],
			"type":"VEC3"
		},
		{
			"bufferView":1,
			"componentType":5126,
			"count":134,
			"type":"VEC3"
		},
		{
			"bufferView":2,
			"componentType":5126,
			"count":134,
			"type":"VEC2"
		},
		{
			"bufferView":3,
			"componentType":5123,
			"count":372,
			"type":"SCALAR"
		},
		{
			"bufferView":4,
			"componentType":5126,
			"count":8,
			"max":[
				1.0491819381713867,
				1.566083312034607,
				0.024628447368741035
			],
			"min":[
				0.14642393589019775,
				0.9255224466323853,
				-0.014516934752464294
			],
			"type":"VEC3"
		},
		{
			"bufferView":5,
			"componentType":5126,
			"count":8,
			"type":"VEC3"
		},
		{
			"bufferView":6,
			"componentType":5126,
			"count":8,
			"type":"VEC2"
		},
		{
			"bufferView":7,
			"componentType":5123,
			"count":12,
			"type":"SCALAR"
		},
		{
			"bufferView":8,
			"componentType":5126,
			"count":16,
			"max":[
				1.0491819381713867,
				1.566083312034607,
				0.024628447368741035
			],
			"min":[
				0.14642393589019775,
				0.9255224466323853,
				-0.014516934752464294
			],
			"type":"VEC3"
		},
		{
			"bufferView":9,
			"componentType":5126,
			"count":16,
			"type":"VEC3"
		},
		{
			"bufferView":10,
			"componentType":5126,
			"count":16,
			"type":"VEC2"
		},
		{
			"bufferView":11,
			"componentType":5123,
			"count":24,
			"type":"SCALAR"
		},
		{
			"bufferView":12,
			"componentType":5126,
			"count":24,
			"max":[
				0.20014089345932007,
				1.5465800762176514,
				0.024070607498288155
			],
			"min":[
				0.027844302356243134,
				1.4243252277374268,
				0.0015206634998321533
			],
			"type":"VEC3"
		},
		{
			"bufferView":13,
			"componentType":5126,
			"count":24,
			"type":"VEC3"
		},
		{
			"bufferView":14,
			"componentType":5126,
			"count":24,
			"type":"VEC2"
		},
		{
			"bufferView":15,
			"componentType":5123,
			"count":36,
			"type":"SCALAR"
		},
		{
			"bufferView":16,
			"componentType":5126,
			"count":24,
			"max":[
				0.20014089345932007,
				1.087273120880127,
				0.024070607498288155
			],
			"min":[
				0.027844302356243134,
				0.9650183320045471,
				0.0015206634998321533
			],
			"type":"VEC3"
		},
		{
			"bufferView":17,
			"componentType":5126,
			"count":24,
			"type":"VEC3"
		},
		{
			"bufferView":18,
			"componentType":5126,
			"count":24,
			"type":"VEC2"
		}
	],
	"bufferViews":[
		{
			"buffer":0,
			"byteLength":1608,
			"byteOffset":0,
			"target":34962
		},
		{
			"buffer":0,
			"byteLength":1608,
			"byteOffset":1608,
			"target":34962
		},
		{
			"buffer":0,
			"byteLength":1072,
			"byteOffset":3216,
			"target":34962
		},
		{
			"buffer":0,
			"byteLength":744,
			"byteOffset":4288,
			"target":34963
		},
		{
			"buffer":0,
			"byteLength":96,
			"byteOffset":5032,
			"target":34962
		},
		{
			"buffer":0,
			"byteLength":96,
			"byteOffset":5128,
			"target":34962
		},
		{
			"buffer":0,
			"byteLength":64,
			"byteOffset":5224,
			"target":34962
		},
		{
			"buffer":0,
			"byteLength":24,
			"byteOffset":5288,
			"target":34963
		},
		{
			"buffer":0,
			"byteLength":192,
			"byteOffset":5312,
			"target":34962
		},
		{
			"buffer":0,
			"byteLength":192,
			"byteOffset":5504,
			"target":34962
		},
		{
			"buffer":0,
			"byteLength":128,
			"byteOffset":5696,
			"target":34962
		},
		{
			"buffer":0,
			"byteLength":48,
			"byteOffset":5824,
			"target":34963
		},
		{
			"buffer":0,
			"byteLength":288,
			"byteOffset":5872,
			"target":34962
		},
		{
			"buffer":0,
			"byteLength":288,
			"byteOffset":6160,
			"target":34962
		},
		{
			"buffer":0,
			"byteLength":192,
			"byteOffset":6448,
			"target":34962
		},
		{
			"buffer":0,
			"byteLength":72,
			"byteOffset":6640,
			"target":34963
		},
		{
			"buffer":0,
			"byteLength":288,
			"byteOffset":6712,
			"target":34962
		},
		{
			"buffer":0,
			"byteLength":288,
			"byteOffset":7000,
			"target":34962
		},
		{
			"buffer":0,
			"byteLength":192,
			"byteOffset":7288,
			"target":34962
		}
	],
	"samplers":[
		{
			"magFilter":9729,
			"minFilter":9987
		}
	],
	"buffers":[
		{
			"byteLength":7480,
			"uri":"flaga.bin"
		}
	]
}
