{
	"asset":{
		"generator":"Khronos glTF Blender I/O v4.5.48",
		"version":"2.0"
	},
	"scene":0,
	"scenes":[
		{
			"name":"Scene",
			"nodes":[
				0,
				1,
				2,
				3
			]
		}
	],
	"nodes":[
		{
			"mesh":0,
			"name":"Cylinder"
		},
		{
			"mesh":1,
			"name":"Plane"
		},
		{
			"mesh":2,
			"name":"Plane.001"
		},
		{
			"mesh":3,
			"name":"Plane.002"
		}
	],
	"materials":[
		{
			"doubleSided":true,
			"name":"Material",
			"pbrMetallicRoughness":{
				"baseColorTexture":{
					"index":0
				},
				"metallicFactor":0,
				"roughnessFactor":0.5
			}
		}
	],
	"meshes":[
		{
			"name":"Cylinder",
			"primitives":[
				{
					"attributes":{
						"POSITION":0,
						"NORMAL":1,
						"TEXCOORD_0":2
					},
					"indices":3,
					"material":0
				}
			]
		},
		{
			"name":"Plane",
			"primitives":[
				{
					"attributes":{
						"POSITION":4,
						"NORMAL":5,
						"TEXCOORD_0":6
					},
					"indices":7,
					"material":0
				}
			]
		},
		{
			"name":"Plane.001",
			"primitives":[
				{
					"attributes":{
						"POSITION":8,
						"NORMAL":9,
						"TEXCOORD_0":10
					},
					"indices":11,
					"material":0
				}
			]
		},
		{
			"name":"Plane.002",
			"primitives":[
				{
					"attributes":{
						"POSITION":12,
						"NORMAL":13,
						"TEXCOORD_0":14
					},
					"indices":11,
					"material":0
				}
			]
		}
	],
	"textures":[
		{
			"sampler":0,
			"source":0
		}
	],
	"images":[
		{
			"mimeType": "image/png",
			"name": "palette",
			"uri": "../../textures/palette.png"
		}
	],
	"accessors":[
		{
			"bufferView":0,
			"componentType":5126,
			"count":134,
			"max":[
				0.10876418650150299,
				1.588080883026123,
				0.10876418650150299
			],
			"min":[
				-0.10876418650150299,
				-0.013116598129272461,
				-0.10876418650150299
			],
			"type":"VEC3"
		},
		{
			"bufferView":1,
			"componentType":5126,
			"count":134,
			"type":"VEC3"
		},
		{
			"bufferView":2,
			"componentType":5126,
			"count":134,
			"type":"VEC2"
		},
		{
			"bufferView":3,
			"componentType":5123,
			"count":372,
			"type":"SCALAR"
		},
		{
			"bufferView":4,
			"componentType":5126,
			"count":24,
			"max":[
				1.0491819381713867,
				1.566083312034607,
				0.06531693786382675
			],
			"min":[
				0.14642393589019775,
				0.9255224466323853,
				-0.038500264286994934
			],
			"type":"VEC3"
		},
		{
			"bufferView":5,
			"componentType":5126,
			"count":24,
			"type":"VEC3"
		},
		{
			"bufferView":6,
			"componentType":5126,
			"count":24,
			"type":"VEC2"
		},
		{
			"bufferView":7,
			"componentType":5123,
			"count":36,
			"type":"SCALAR"
		},
		{
			"bufferView":8,
			"componentType":5126,
			"count":4,
			"max":[
				0.20014089345932007,
				1.5465800762176514,
				0.022054096683859825
			],
			"min":[
				0.027844302356243134,
				1.4243252277374268,
				0.022054092958569527
			],
			"type":"VEC3"
		},
		{
			"bufferView":9,
			"componentType":5126,
			"count":4,
			"type":"VEC3"
		},
		{
			"bufferView":10,
			"componentType":5126,
			"count":4,
			"type":"VEC2"
		},
		{
			"bufferView":11,
			"componentType":5123,
			"count":6,
			"type":"SCALAR"
		},
		{
			"bufferView":12,
			"componentType":5126,
			"count":4,
			"max":[
				0.20014089345932007,
				1.0610907077789307,
				0.022054096683859825
			],
			"min":[
				0.027844302356243134,
				0.9388359189033508,
				0.022054092958569527
			],
			"type":"VEC3"
		},
		{
			"bufferView":13,
			"componentType":5126,
			"count":4,
			"type":"VEC3"
		},
		{
			"bufferView":14,
			"componentType":5126,
			"count":4,
			"type":"VEC2"
		}
	],
	"bufferViews":[
		{
			"buffer":0,
			"byteLength":1608,
			"byteOffset":0,
			"target":34962
		},
		{
			"buffer":0,
			"byteLength":1608,
			"byteOffset":1608,
			"target":34962
		},
		{
			"buffer":0,
			"byteLength":1072,
			"byteOffset":3216,
			"target":34962
		},
		{
			"buffer":0,
			"byteLength":744,
			"byteOffset":4288,
			"target":34963
		},
		{
			"buffer":0,
			"byteLength":288,
			"byteOffset":5032,
			"target":34962
		},
		{
			"buffer":0,
			"byteLength":288,
			"byteOffset":5320,
			"target":34962
		},
		{
			"buffer":0,
			"byteLength":192,
			"byteOffset":5608,
			"target":34962
		},
		{
			"buffer":0,
			"byteLength":72,
			"byteOffset":5800,
			"target":34963
		},
		{
			"buffer":0,
			"byteLength":48,
			"byteOffset":5872,
			"target":34962
		},
		{
			"buffer":0,
			"byteLength":48,
			"byteOffset":5920,
			"target":34962
		},
		{
			"buffer":0,
			"byteLength":32,
			"byteOffset":5968,
			"target":34962
		},
		{
			"buffer":0,
			"byteLength":12,
			"byteOffset":6000,
			"target":34963
		},
		{
			"buffer":0,
			"byteLength":48,
			"byteOffset":6012,
			"target":34962
		},
		{
			"buffer":0,
			"byteLength":48,
			"byteOffset":6060,
			"target":34962
		},
		{
			"buffer":0,
			"byteLength":32,
			"byteOffset":6108,
			"target":34962
		}
	],
	"samplers":[
		{
			"magFilter":9729,
			"minFilter":9987
		}
	],
	"buffers":[
		{
			"byteLength":6140,
			"uri":"flaga.bin"
		}
	]
}
