{
	"asset":{
		"generator":"Khronos glTF Blender I/O v5.1.19",
		"version":"2.0"
	},
	"scene":0,
	"scenes":[
		{
			"name":"Scene",
			"nodes":[
				0
			]
		}
	],
	"nodes":[
		{
			"mesh":0,
			"name":"Circle.001"
		}
	],
	"materials":[
		{
			"doubleSided":true,
			"name":"Material.001",
			"pbrMetallicRoughness":{
				"baseColorTexture":{
					"index":0
				},
				"metallicFactor":0,
				"roughnessFactor":0.5
			}
		}
	],
	"meshes":[
		{
			"name":"Circle.001",
			"primitives":[
				{
					"attributes":{
						"POSITION":0,
						"NORMAL":1,
						"TEXCOORD_0":2
					},
					"indices":3,
					"material":0
				}
			]
		}
	],
	"textures":[
		{
			"sampler":0,
			"source":0
		}
	],
    "images":[
		{
			"mimeType": "image/png",
			"name": "palette",
			"uri": "../../textures/palette.png"
		}
	],
	"accessors":[
		{
			"bufferView":0,
			"componentType":5126,
			"count":400,
			"max":[
				0.4694068431854248,
				0.8870255947113037,
				0.47083863615989685
			],
			"min":[
				-0.47227025032043457,
				0.016153305768966675,
				-0.47083863615989685
			],
			"type":"VEC3"
		},
		{
			"bufferView":1,
			"componentType":5126,
			"count":400,
			"type":"VEC3"
		},
		{
			"bufferView":2,
			"componentType":5126,
			"count":400,
			"type":"VEC2"
		},
		{
			"bufferView":3,
			"componentType":5123,
			"count":1116,
			"type":"SCALAR"
		}
	],
	"bufferViews":[
		{
			"buffer":0,
			"byteLength":4800,
			"byteOffset":0,
			"target":34962
		},
		{
			"buffer":0,
			"byteLength":4800,
			"byteOffset":4800,
			"target":34962
		},
		{
			"buffer":0,
			"byteLength":3200,
			"byteOffset":9600,
			"target":34962
		},
		{
			"buffer":0,
			"byteLength":2232,
			"byteOffset":12800,
			"target":34963
		}
	],
	"samplers":[
		{
			"magFilter":9729,
			"minFilter":9987
		}
	],
	"buffers":[
		{
			"byteLength":15032,
			"uri":"krzeslo.bin"
		}
	]
}
