{
	"asset":{
		"generator":"Khronos glTF Blender I/O v4.4.56",
		"version":"2.0"
	},
	"scene":0,
	"scenes":[
		{
			"name":"Scene",
			"nodes":[
				0,
				1,
				2,
				3,
				4,
				5,
				6,
				7,
				8
			]
		}
	],
	"nodes":[
		{
			"mesh":0,
			"name":"Cylinder.001"
		},
		{
			"mesh":1,
			"name":"Cylinder"
		},
		{
			"mesh":2,
			"name":"Cube.002"
		},
		{
			"mesh":3,
			"name":"Cube.003"
		},
		{
			"mesh":4,
			"name":"Circle.001"
		},
		{
			"mesh":5,
			"name":"Circle"
		},
		{
			"mesh":6,
			"name":"Cylinder.002"
		},
		{
			"mesh":7,
			"name":"Circle.002"
		},
		{
			"mesh":8,
			"name":"Circle.003"
		}
	],
	"materials":[
		{
			"doubleSided":true,
			"name":"Material.001",
			"pbrMetallicRoughness":{
				"baseColorTexture":{
					"index":0
				},
				"metallicFactor":0,
				"roughnessFactor":0.5
			}
		},
		{
			"doubleSided":true,
			"name":"Material.002",
			"pbrMetallicRoughness":{
				"baseColorTexture":{
					"index":1
				},
				"metallicFactor":0,
				"roughnessFactor":0.5
			}
		}
	],
	"meshes":[
		{
			"name":"Cylinder.002",
			"primitives":[
				{
					"attributes":{
						"POSITION":0,
						"NORMAL":1,
						"TEXCOORD_0":2
					},
					"indices":3,
					"material":0
				}
			]
		},
		{
			"name":"Cylinder.001",
			"primitives":[
				{
					"attributes":{
						"POSITION":4,
						"NORMAL":5,
						"TEXCOORD_0":6
					},
					"indices":3,
					"material":0
				}
			]
		},
		{
			"name":"Cube.003",
			"primitives":[
				{
					"attributes":{
						"POSITION":7,
						"NORMAL":8,
						"TEXCOORD_0":9
					},
					"indices":10,
					"material":0
				}
			]
		},
		{
			"name":"Cube.004",
			"primitives":[
				{
					"attributes":{
						"POSITION":11,
						"NORMAL":12,
						"TEXCOORD_0":13
					},
					"indices":14,
					"material":0
				}
			]
		},
		{
			"name":"Circle.001",
			"primitives":[
				{
					"attributes":{
						"POSITION":15,
						"NORMAL":16,
						"TEXCOORD_0":17
					},
					"indices":18,
					"material":0
				}
			]
		},
		{
			"name":"Circle",
			"primitives":[
				{
					"attributes":{
						"POSITION":19,
						"NORMAL":20,
						"TEXCOORD_0":21
					},
					"indices":18,
					"material":0
				}
			]
		},
		{
			"name":"Cylinder.003",
			"primitives":[
				{
					"attributes":{
						"POSITION":22,
						"NORMAL":23,
						"TEXCOORD_0":24
					},
					"indices":3,
					"material":1
				}
			]
		},
		{
			"name":"Circle.002",
			"primitives":[
				{
					"attributes":{
						"POSITION":25,
						"NORMAL":26,
						"TEXCOORD_0":27
					},
					"indices":18,
					"material":1
				}
			]
		},
		{
			"name":"Circle.003",
			"primitives":[
				{
					"attributes":{
						"POSITION":28,
						"NORMAL":29,
						"TEXCOORD_0":30
					},
					"indices":18,
					"material":1
				}
			]
		}
	],
	"textures":[
		{
			"sampler":0,
			"source":0
		},
		{
			"sampler":0,
			"source":0
		}
	],
	"images":[
		{
			"mimeType": "image/png",
			"name": "palette",
			"uri": "../../textures/palette.png"
		}
	],
	"accessors":[
		{
			"bufferView":0,
			"componentType":5126,
			"count":136,
			"max":[
				-2.1669278144836426,
				1.6274023056030273,
				0.1440698653459549
			],
			"min":[
				-2.4550676345825195,
				0.8346516489982605,
				-0.1440698653459549
			],
			"type":"VEC3"
		},
		{
			"bufferView":1,
			"componentType":5126,
			"count":136,
			"type":"VEC3"
		},
		{
			"bufferView":2,
			"componentType":5126,
			"count":136,
			"type":"VEC2"
		},
		{
			"bufferView":3,
			"componentType":5123,
			"count":372,
			"type":"SCALAR"
		},
		{
			"bufferView":4,
			"componentType":5126,
			"count":136,
			"max":[
				0.21266049146652222,
				1.9149110317230225,
				0.21094295382499695
			],
			"min":[
				-0.20922541618347168,
				0.9182770848274231,
				-0.21094295382499695
			],
			"type":"VEC3"
		},
		{
			"bufferView":5,
			"componentType":5126,
			"count":136,
			"type":"VEC3"
		},
		{
			"bufferView":6,
			"componentType":5126,
			"count":136,
			"type":"VEC2"
		},
		{
			"bufferView":7,
			"componentType":5126,
			"count":96,
			"max":[
				0.598647952079773,
				0.9588203430175781,
				0.598647952079773
			],
			"min":[
				-0.598647952079773,
				0.7547866702079773,
				-0.598647952079773
			],
			"type":"VEC3"
		},
		{
			"bufferView":8,
			"componentType":5126,
			"count":96,
			"type":"VEC3"
		},
		{
			"bufferView":9,
			"componentType":5126,
			"count":96,
			"type":"VEC2"
		},
		{
			"bufferView":10,
			"componentType":5123,
			"count":324,
			"type":"SCALAR"
		},
		{
			"bufferView":11,
			"componentType":5126,
			"count":96,
			"max":[
				1.246293067932129,
				2.1950571537017822,
				1.246293067932129
			],
			"min":[
				-1.246293067932129,
				1.884779453277588,
				-1.246293067932129
			],
			"type":"VEC3"
		},
		{
			"bufferView":12,
			"componentType":5126,
			"count":96,
			"type":"VEC3"
		},
		{
			"bufferView":13,
			"componentType":5126,
			"count":96,
			"type":"VEC2"
		},
		{
			"bufferView":14,
			"componentType":5123,
			"count":324,
			"type":"SCALAR"
		},
		{
			"bufferView":15,
			"componentType":5126,
			"count":132,
			"max":[
				-2.006068468093872,
				0.835224986076355,
				0.3164866268634796
			],
			"min":[
				-2.6390416622161865,
				0.778257429599762,
				-0.3164866268634796
			],
			"type":"VEC3"
		},
		{
			"bufferView":16,
			"componentType":5126,
			"count":132,
			"type":"VEC3"
		},
		{
			"bufferView":17,
			"componentType":5126,
			"count":132,
			"type":"VEC2"
		},
		{
			"bufferView":18,
			"componentType":5123,
			"count":372,
			"type":"SCALAR"
		},
		{
			"bufferView":19,
			"componentType":5126,
			"count":132,
			"max":[
				-1.8517165184020996,
				1.6491296291351318,
				0.47083863615989685
			],
			"min":[
				-2.793393611907959,
				1.5643787384033203,
				-0.47083863615989685
			],
			"type":"VEC3"
		},
		{
			"bufferView":20,
			"componentType":5126,
			"count":132,
			"type":"VEC3"
		},
		{
			"bufferView":21,
			"componentType":5126,
			"count":132,
			"type":"VEC2"
		},
		{
			"bufferView":22,
			"componentType":5126,
			"count":136,
			"max":[
				2.2574756145477295,
				1.6274023056030273,
				0.1440698653459549
			],
			"min":[
				1.9693357944488525,
				0.8346516489982605,
				-0.1440698653459549
			],
			"type":"VEC3"
		},
		{
			"bufferView":23,
			"componentType":5126,
			"count":136,
			"type":"VEC3"
		},
		{
			"bufferView":24,
			"componentType":5126,
			"count":136,
			"type":"VEC2"
		},
		{
			"bufferView":25,
			"componentType":5126,
			"count":132,
			"max":[
				2.4183349609375,
				0.835224986076355,
				0.3164866268634796
			],
			"min":[
				1.7853617668151855,
				0.778257429599762,
				-0.3164866268634796
			],
			"type":"VEC3"
		},
		{
			"bufferView":26,
			"componentType":5126,
			"count":132,
			"type":"VEC3"
		},
		{
			"bufferView":27,
			"componentType":5126,
			"count":132,
			"type":"VEC2"
		},
		{
			"bufferView":28,
			"componentType":5126,
			"count":132,
			"max":[
				2.5726871490478516,
				1.6491296291351318,
				0.47083863615989685
			],
			"min":[
				1.631009817123413,
				1.5643787384033203,
				-0.47083863615989685
			],
			"type":"VEC3"
		},
		{
			"bufferView":29,
			"componentType":5126,
			"count":132,
			"type":"VEC3"
		},
		{
			"bufferView":30,
			"componentType":5126,
			"count":132,
			"type":"VEC2"
		}
	],
	"bufferViews":[
		{
			"buffer":0,
			"byteLength":1632,
			"byteOffset":0,
			"target":34962
		},
		{
			"buffer":0,
			"byteLength":1632,
			"byteOffset":1632,
			"target":34962
		},
		{
			"buffer":0,
			"byteLength":1088,
			"byteOffset":3264,
			"target":34962
		},
		{
			"buffer":0,
			"byteLength":744,
			"byteOffset":4352,
			"target":34963
		},
		{
			"buffer":0,
			"byteLength":1632,
			"byteOffset":5096,
			"target":34962
		},
		{
			"buffer":0,
			"byteLength":1632,
			"byteOffset":6728,
			"target":34962
		},
		{
			"buffer":0,
			"byteLength":1088,
			"byteOffset":8360,
			"target":34962
		},
		{
			"buffer":0,
			"byteLength":1152,
			"byteOffset":9448,
			"target":34962
		},
		{
			"buffer":0,
			"byteLength":1152,
			"byteOffset":10600,
			"target":34962
		},
		{
			"buffer":0,
			"byteLength":768,
			"byteOffset":11752,
			"target":34962
		},
		{
			"buffer":0,
			"byteLength":648,
			"byteOffset":12520,
			"target":34963
		},
		{
			"buffer":0,
			"byteLength":1152,
			"byteOffset":13168,
			"target":34962
		},
		{
			"buffer":0,
			"byteLength":1152,
			"byteOffset":14320,
			"target":34962
		},
		{
			"buffer":0,
			"byteLength":768,
			"byteOffset":15472,
			"target":34962
		},
		{
			"buffer":0,
			"byteLength":648,
			"byteOffset":16240,
			"target":34963
		},
		{
			"buffer":0,
			"byteLength":1584,
			"byteOffset":16888,
			"target":34962
		},
		{
			"buffer":0,
			"byteLength":1584,
			"byteOffset":18472,
			"target":34962
		},
		{
			"buffer":0,
			"byteLength":1056,
			"byteOffset":20056,
			"target":34962
		},
		{
			"buffer":0,
			"byteLength":744,
			"byteOffset":21112,
			"target":34963
		},
		{
			"buffer":0,
			"byteLength":1584,
			"byteOffset":21856,
			"target":34962
		},
		{
			"buffer":0,
			"byteLength":1584,
			"byteOffset":23440,
			"target":34962
		},
		{
			"buffer":0,
			"byteLength":1056,
			"byteOffset":25024,
			"target":34962
		},
		{
			"buffer":0,
			"byteLength":1632,
			"byteOffset":26080,
			"target":34962
		},
		{
			"buffer":0,
			"byteLength":1632,
			"byteOffset":27712,
			"target":34962
		},
		{
			"buffer":0,
			"byteLength":1088,
			"byteOffset":29344,
			"target":34962
		},
		{
			"buffer":0,
			"byteLength":1584,
			"byteOffset":30432,
			"target":34962
		},
		{
			"buffer":0,
			"byteLength":1584,
			"byteOffset":32016,
			"target":34962
		},
		{
			"buffer":0,
			"byteLength":1056,
			"byteOffset":33600,
			"target":34962
		},
		{
			"buffer":0,
			"byteLength":1584,
			"byteOffset":34656,
			"target":34962
		},
		{
			"buffer":0,
			"byteLength":1584,
			"byteOffset":36240,
			"target":34962
		},
		{
			"buffer":0,
			"byteLength":1056,
			"byteOffset":37824,
			"target":34962
		}
	],
	"samplers":[
		{
			"magFilter":9729,
			"minFilter":9987
		}
	],
	"buffers":[
		{
			"byteLength":38880,
			"uri":"stolik.bin"
		}
	]
}
