{
	"asset":{
		"generator":"Khronos glTF Blender I/O v4.5.48",
		"version":"2.0"
	},
	"scene":0,
	"scenes":[
		{
			"name":"Scene",
			"nodes":[
				0,
				1,
				2,
				3,
				4
			]
		}
	],
	"nodes":[
		{
			"mesh":0,
			"name":"Sphere"
		},
		{
			"mesh":1,
			"name":"Cube.002"
		},
		{
			"mesh":2,
			"name":"Circle"
		},
		{
			"mesh":3,
			"name":"Circle.001"
		},
		{
			"mesh":4,
			"name":"Circle.002"
		}
	],
	"materials":[
		{
			"doubleSided":true,
			"name":"Material.001",
			"pbrMetallicRoughness":{
				"baseColorTexture":{
					"index":0
				},
				"metallicFactor":0,
				"roughnessFactor":0.5
			}
		},
		{
			"doubleSided":true,
			"name":"Material.004",
			"pbrMetallicRoughness":{
				"baseColorTexture":{
					"index":1
				},
				"metallicFactor":0,
				"roughnessFactor":0.5
			}
		},
		{
			"doubleSided":true,
			"name":"Material.010",
			"pbrMetallicRoughness":{
				"baseColorTexture":{
					"index":2
				},
				"metallicFactor":0,
				"roughnessFactor":0.5
			}
		},
		{
			"doubleSided":true,
			"name":"Material.011",
			"pbrMetallicRoughness":{
				"baseColorTexture":{
					"index":3
				},
				"metallicFactor":0,
				"roughnessFactor":0.5
			}
		}
	],
	"meshes":[
		{
			"name":"Sphere.001",
			"primitives":[
				{
					"attributes":{
						"POSITION":0,
						"NORMAL":1,
						"TEXCOORD_0":2
					},
					"indices":3,
					"material":0
				}
			]
		},
		{
			"name":"Cube.002",
			"primitives":[
				{
					"attributes":{
						"POSITION":4,
						"NORMAL":5,
						"TEXCOORD_0":6
					},
					"indices":7,
					"material":1
				}
			]
		},
		{
			"name":"Circle.001",
			"primitives":[
				{
					"attributes":{
						"POSITION":8,
						"NORMAL":9,
						"TEXCOORD_0":10
					},
					"indices":11,
					"material":2
				}
			]
		},
		{
			"name":"Circle.002",
			"primitives":[
				{
					"attributes":{
						"POSITION":12,
						"NORMAL":13,
						"TEXCOORD_0":14
					},
					"indices":11,
					"material":3
				}
			]
		},
		{
			"name":"Circle.003",
			"primitives":[
				{
					"attributes":{
						"POSITION":15,
						"NORMAL":16,
						"TEXCOORD_0":17
					},
					"indices":11,
					"material":2
				}
			]
		}
	],
	"textures":[
		{
			"sampler":0,
			"source":0
		},
		{
			"sampler":0,
			"source":0
		},
		{
			"sampler":0,
			"source":1
		},
		{
			"sampler":0,
			"source":1
		}
	],
	"images":[
		{
			"mimeType":"image/png",
			"name":"palette",
			"uri": "../../../textures/palette.png"
		},
		{
			"mimeType":"image/png",
			"name":"pomidor",
			"uri":"pomidor.png"
		}
	],
	"accessors":[
		{
			"bufferView":0,
			"componentType":5126,
			"count":352,
			"max":[
				0.13639135658740997,
				0.0445282980799675,
				0.06162654608488083
			],
			"min":[
				-0.1519380658864975,
				-1.2271106243133545e-05,
				-0.06162658706307411
			],
			"type":"VEC3"
		},
		{
			"bufferView":1,
			"componentType":5126,
			"count":352,
			"type":"VEC3"
		},
		{
			"bufferView":2,
			"componentType":5126,
			"count":352,
			"type":"VEC2"
		},
		{
			"bufferView":3,
			"componentType":5123,
			"count":1530,
			"type":"SCALAR"
		},
		{
			"bufferView":4,
			"componentType":5126,
			"count":566,
			"max":[
				0.09092072397470474,
				0.051003336906433105,
				0.049446020275354385
			],
			"min":[
				-0.0918293371796608,
				0.043985866010189056,
				-0.049446020275354385
			],
			"type":"VEC3"
		},
		{
			"bufferView":5,
			"componentType":5126,
			"count":566,
			"type":"VEC3"
		},
		{
			"bufferView":6,
			"componentType":5126,
			"count":566,
			"type":"VEC2"
		},
		{
			"bufferView":7,
			"componentType":5123,
			"count":1974,
			"type":"SCALAR"
		},
		{
			"bufferView":8,
			"componentType":5126,
			"count":136,
			"max":[
				0.11185956001281738,
				0.05556274205446243,
				0.04795470088720322
			],
			"min":[
				0.04121438413858414,
				0.05147773027420044,
				-0.017402833327651024
			],
			"type":"VEC3"
		},
		{
			"bufferView":9,
			"componentType":5126,
			"count":136,
			"type":"VEC3"
		},
		{
			"bufferView":10,
			"componentType":5126,
			"count":136,
			"type":"VEC2"
		},
		{
			"bufferView":11,
			"componentType":5123,
			"count":372,
			"type":"SCALAR"
		},
		{
			"bufferView":12,
			"componentType":5126,
			"count":136,
			"max":[
				-0.048091791570186615,
				0.05556274205446243,
				0.04431900382041931
			],
			"min":[
				-0.11775829643011093,
				0.05147773027420044,
				-0.02196398749947548
			],
			"type":"VEC3"
		},
		{
			"bufferView":13,
			"componentType":5126,
			"count":136,
			"type":"VEC3"
		},
		{
			"bufferView":14,
			"componentType":5126,
			"count":136,
			"type":"VEC2"
		},
		{
			"bufferView":15,
			"componentType":5126,
			"count":136,
			"max":[
				0.03249563276767731,
				0.05556274205446243,
				0.009702835232019424
			],
			"min":[
				-0.03943750262260437,
				0.05147773027420044,
				-0.05445981025695801
			],
			"type":"VEC3"
		},
		{
			"bufferView":16,
			"componentType":5126,
			"count":136,
			"type":"VEC3"
		},
		{
			"bufferView":17,
			"componentType":5126,
			"count":136,
			"type":"VEC2"
		}
	],
	"bufferViews":[
		{
			"buffer":0,
			"byteLength":4224,
			"byteOffset":0,
			"target":34962
		},
		{
			"buffer":0,
			"byteLength":4224,
			"byteOffset":4224,
			"target":34962
		},
		{
			"buffer":0,
			"byteLength":2816,
			"byteOffset":8448,
			"target":34962
		},
		{
			"buffer":0,
			"byteLength":3060,
			"byteOffset":11264,
			"target":34963
		},
		{
			"buffer":0,
			"byteLength":6792,
			"byteOffset":14324,
			"target":34962
		},
		{
			"buffer":0,
			"byteLength":6792,
			"byteOffset":21116,
			"target":34962
		},
		{
			"buffer":0,
			"byteLength":4528,
			"byteOffset":27908,
			"target":34962
		},
		{
			"buffer":0,
			"byteLength":3948,
			"byteOffset":32436,
			"target":34963
		},
		{
			"buffer":0,
			"byteLength":1632,
			"byteOffset":36384,
			"target":34962
		},
		{
			"buffer":0,
			"byteLength":1632,
			"byteOffset":38016,
			"target":34962
		},
		{
			"buffer":0,
			"byteLength":1088,
			"byteOffset":39648,
			"target":34962
		},
		{
			"buffer":0,
			"byteLength":744,
			"byteOffset":40736,
			"target":34963
		},
		{
			"buffer":0,
			"byteLength":1632,
			"byteOffset":41480,
			"target":34962
		},
		{
			"buffer":0,
			"byteLength":1632,
			"byteOffset":43112,
			"target":34962
		},
		{
			"buffer":0,
			"byteLength":1088,
			"byteOffset":44744,
			"target":34962
		},
		{
			"buffer":0,
			"byteLength":1632,
			"byteOffset":45832,
			"target":34962
		},
		{
			"buffer":0,
			"byteLength":1632,
			"byteOffset":47464,
			"target":34962
		},
		{
			"buffer":0,
			"byteLength":1088,
			"byteOffset":49096,
			"target":34962
		}
	],
	"samplers":[
		{
			"magFilter":9729,
			"minFilter":9987
		}
	],
	"buffers":[
		{
			"byteLength":50184,
			"uri":"kanapka_pomidor_ser.bin"
		}
	]
}
