{
	"asset":{
		"generator":"Khronos glTF Blender I/O v4.5.48",
		"version":"2.0"
	},
	"scene":0,
	"scenes":[
		{
			"name":"Scene",
			"nodes":[
				0,
				1,
				2,
				3,
				4,
				5
			]
		}
	],
	"nodes":[
		{
			"mesh":0,
			"name":"Sphere"
		},
		{
			"mesh":1,
			"name":"Sphere.003"
		},
		{
			"mesh":2,
			"name":"Sphere.004"
		},
		{
			"mesh":3,
			"name":"Circle"
		},
		{
			"mesh":4,
			"name":"Circle.001"
		},
		{
			"mesh":5,
			"name":"Circle.002"
		}
	],
	"materials":[
		{
			"doubleSided":true,
			"name":"Material.001",
			"pbrMetallicRoughness":{
				"baseColorTexture":{
					"index":0
				},
				"metallicFactor":0,
				"roughnessFactor":0.5
			}
		},
		{
			"doubleSided":true,
			"name":"Material.008",
			"pbrMetallicRoughness":{
				"baseColorTexture":{
					"index":1
				},
				"metallicFactor":0,
				"roughnessFactor":0.5
			}
		},
		{
			"doubleSided":true,
			"name":"Material.009",
			"pbrMetallicRoughness":{
				"baseColorTexture":{
					"index":2
				},
				"metallicFactor":0,
				"roughnessFactor":0.5
			}
		},
		{
			"doubleSided":true,
			"name":"Material.010",
			"pbrMetallicRoughness":{
				"baseColorTexture":{
					"index":3
				},
				"metallicFactor":0,
				"roughnessFactor":0.5
			}
		},
		{
			"doubleSided":true,
			"name":"Material.011",
			"pbrMetallicRoughness":{
				"baseColorTexture":{
					"index":4
				},
				"metallicFactor":0,
				"roughnessFactor":0.5
			}
		}
	],
	"meshes":[
		{
			"name":"Sphere.001",
			"primitives":[
				{
					"attributes":{
						"POSITION":0,
						"NORMAL":1,
						"TEXCOORD_0":2
					},
					"indices":3,
					"material":0
				}
			]
		},
		{
			"name":"Sphere.016",
			"primitives":[
				{
					"attributes":{
						"POSITION":4,
						"NORMAL":5,
						"TEXCOORD_0":6
					},
					"indices":7,
					"material":1
				}
			]
		},
		{
			"name":"Sphere.017",
			"primitives":[
				{
					"attributes":{
						"POSITION":8,
						"NORMAL":9,
						"TEXCOORD_0":10
					},
					"indices":7,
					"material":2
				}
			]
		},
		{
			"name":"Circle.001",
			"primitives":[
				{
					"attributes":{
						"POSITION":11,
						"NORMAL":12,
						"TEXCOORD_0":13
					},
					"indices":14,
					"material":3
				}
			]
		},
		{
			"name":"Circle.002",
			"primitives":[
				{
					"attributes":{
						"POSITION":15,
						"NORMAL":16,
						"TEXCOORD_0":17
					},
					"indices":14,
					"material":4
				}
			]
		},
		{
			"name":"Circle.003",
			"primitives":[
				{
					"attributes":{
						"POSITION":18,
						"NORMAL":19,
						"TEXCOORD_0":20
					},
					"indices":14,
					"material":3
				}
			]
		}
	],
	"textures":[
		{
			"sampler":0,
			"source":0
		},
		{
			"sampler":0,
			"source":0
		},
		{
			"sampler":0,
			"source":0
		},
		{
			"sampler":0,
			"source":1
		},
		{
			"sampler":0,
			"source":1
		}
	],
	"images":[
		{
			"mimeType":"image/png",
			"name":"palette",
			"uri": "../../../textures/palette.png"
		},
		{
			"mimeType":"image/png",
			"name":"pomidor",
			"uri":"pomidor.png"
		}
	],
	"accessors":[
		{
			"bufferView":0,
			"componentType":5126,
			"count":352,
			"max":[
				0.13639135658740997,
				0.04483012109994888,
				0.06162654608488083
			],
			"min":[
				-0.1519380658864975,
				0.00028955191373825073,
				-0.06162658706307411
			],
			"type":"VEC3"
		},
		{
			"bufferView":1,
			"componentType":5126,
			"count":352,
			"type":"VEC3"
		},
		{
			"bufferView":2,
			"componentType":5126,
			"count":352,
			"type":"VEC2"
		},
		{
			"bufferView":3,
			"componentType":5123,
			"count":1530,
			"type":"SCALAR"
		},
		{
			"bufferView":4,
			"componentType":5126,
			"count":384,
			"max":[
				0.11979028582572937,
				0.051779381930828094,
				0.045827947556972504
			],
			"min":[
				0.020220590755343437,
				0.04495358467102051,
				-0.03981446474790573
			],
			"type":"VEC3"
		},
		{
			"bufferView":5,
			"componentType":5126,
			"count":384,
			"type":"VEC3"
		},
		{
			"bufferView":6,
			"componentType":5126,
			"count":384,
			"type":"VEC2"
		},
		{
			"bufferView":7,
			"componentType":5123,
			"count":2292,
			"type":"SCALAR"
		},
		{
			"bufferView":8,
			"componentType":5126,
			"count":384,
			"max":[
				-0.03726993501186371,
				0.051779381930828094,
				0.04016968607902527
			],
			"min":[
				-0.13825955986976624,
				0.04495358467102051,
				-0.04397272318601608
			],
			"type":"VEC3"
		},
		{
			"bufferView":9,
			"componentType":5126,
			"count":384,
			"type":"VEC3"
		},
		{
			"bufferView":10,
			"componentType":5126,
			"count":384,
			"type":"VEC2"
		},
		{
			"bufferView":11,
			"componentType":5126,
			"count":136,
			"max":[
				0.09054519981145859,
				0.05595017597079277,
				0.05293962359428406
			],
			"min":[
				0.018612060695886612,
				0.05186516046524048,
				-0.011223020032048225
			],
			"type":"VEC3"
		},
		{
			"bufferView":12,
			"componentType":5126,
			"count":136,
			"type":"VEC3"
		},
		{
			"bufferView":13,
			"componentType":5126,
			"count":136,
			"type":"VEC2"
		},
		{
			"bufferView":14,
			"componentType":5123,
			"count":372,
			"type":"SCALAR"
		},
		{
			"bufferView":15,
			"componentType":5126,
			"count":136,
			"max":[
				-0.028687981888651848,
				0.05595017597079277,
				0.04585768282413483
			],
			"min":[
				-0.09986838698387146,
				0.05186516046524048,
				-0.018821852281689644
			],
			"type":"VEC3"
		},
		{
			"bufferView":16,
			"componentType":5126,
			"count":136,
			"type":"VEC3"
		},
		{
			"bufferView":17,
			"componentType":5126,
			"count":136,
			"type":"VEC2"
		},
		{
			"bufferView":18,
			"componentType":5126,
			"count":136,
			"max":[
				0.027828969061374664,
				0.04892920330166817,
				0.011189949698746204
			],
			"min":[
				-0.03862718120217323,
				0.044844187796115875,
				-0.05841074511408806
			],
			"type":"VEC3"
		},
		{
			"bufferView":19,
			"componentType":5126,
			"count":136,
			"type":"VEC3"
		},
		{
			"bufferView":20,
			"componentType":5126,
			"count":136,
			"type":"VEC2"
		}
	],
	"bufferViews":[
		{
			"buffer":0,
			"byteLength":4224,
			"byteOffset":0,
			"target":34962
		},
		{
			"buffer":0,
			"byteLength":4224,
			"byteOffset":4224,
			"target":34962
		},
		{
			"buffer":0,
			"byteLength":2816,
			"byteOffset":8448,
			"target":34962
		},
		{
			"buffer":0,
			"byteLength":3060,
			"byteOffset":11264,
			"target":34963
		},
		{
			"buffer":0,
			"byteLength":4608,
			"byteOffset":14324,
			"target":34962
		},
		{
			"buffer":0,
			"byteLength":4608,
			"byteOffset":18932,
			"target":34962
		},
		{
			"buffer":0,
			"byteLength":3072,
			"byteOffset":23540,
			"target":34962
		},
		{
			"buffer":0,
			"byteLength":4584,
			"byteOffset":26612,
			"target":34963
		},
		{
			"buffer":0,
			"byteLength":4608,
			"byteOffset":31196,
			"target":34962
		},
		{
			"buffer":0,
			"byteLength":4608,
			"byteOffset":35804,
			"target":34962
		},
		{
			"buffer":0,
			"byteLength":3072,
			"byteOffset":40412,
			"target":34962
		},
		{
			"buffer":0,
			"byteLength":1632,
			"byteOffset":43484,
			"target":34962
		},
		{
			"buffer":0,
			"byteLength":1632,
			"byteOffset":45116,
			"target":34962
		},
		{
			"buffer":0,
			"byteLength":1088,
			"byteOffset":46748,
			"target":34962
		},
		{
			"buffer":0,
			"byteLength":744,
			"byteOffset":47836,
			"target":34963
		},
		{
			"buffer":0,
			"byteLength":1632,
			"byteOffset":48580,
			"target":34962
		},
		{
			"buffer":0,
			"byteLength":1632,
			"byteOffset":50212,
			"target":34962
		},
		{
			"buffer":0,
			"byteLength":1088,
			"byteOffset":51844,
			"target":34962
		},
		{
			"buffer":0,
			"byteLength":1632,
			"byteOffset":52932,
			"target":34962
		},
		{
			"buffer":0,
			"byteLength":1632,
			"byteOffset":54564,
			"target":34962
		},
		{
			"buffer":0,
			"byteLength":1088,
			"byteOffset":56196,
			"target":34962
		}
	],
	"samplers":[
		{
			"magFilter":9729,
			"minFilter":9987
		}
	],
	"buffers":[
		{
			"byteLength":57284,
			"uri":"kanapka_szynka_pomidor.bin"
		}
	]
}
