{
	"asset":{
		"generator":"Khronos glTF Blender I/O v4.5.48",
		"version":"2.0"
	},
	"scene":0,
	"scenes":[
		{
			"name":"Scene",
			"nodes":[
				0,
				1,
				2,
				3,
				4,
				5
			]
		}
	],
	"nodes":[
		{
			"mesh":0,
			"name":"Sphere"
		},
		{
			"mesh":1,
			"name":"Cube.002"
		},
		{
			"mesh":2,
			"name":"Sphere.003"
		},
		{
			"mesh":3,
			"name":"Sphere.004"
		},
		{
			"mesh":4,
			"name":"Circle"
		},
		{
			"mesh":5,
			"name":"Circle.001"
		}
	],
	"materials":[
		{
			"doubleSided":true,
			"name":"Material.001",
			"pbrMetallicRoughness":{
				"baseColorTexture":{
					"index":0
				},
				"metallicFactor":0,
				"roughnessFactor":0.5
			}
		},
		{
			"doubleSided":true,
			"name":"Material.004",
			"pbrMetallicRoughness":{
				"baseColorTexture":{
					"index":1
				},
				"metallicFactor":0,
				"roughnessFactor":0.5
			}
		},
		{
			"doubleSided":true,
			"name":"Material.008",
			"pbrMetallicRoughness":{
				"baseColorTexture":{
					"index":2
				},
				"metallicFactor":0,
				"roughnessFactor":0.5
			}
		},
		{
			"doubleSided":true,
			"name":"Material.009",
			"pbrMetallicRoughness":{
				"baseColorTexture":{
					"index":3
				},
				"metallicFactor":0,
				"roughnessFactor":0.5
			}
		},
		{
			"doubleSided":true,
			"name":"Material.010",
			"pbrMetallicRoughness":{
				"baseColorTexture":{
					"index":4
				},
				"metallicFactor":0,
				"roughnessFactor":0.5
			}
		},
		{
			"doubleSided":true,
			"name":"Material.011",
			"pbrMetallicRoughness":{
				"baseColorTexture":{
					"index":5
				},
				"metallicFactor":0,
				"roughnessFactor":0.5
			}
		}
	],
	"meshes":[
		{
			"name":"Sphere.001",
			"primitives":[
				{
					"attributes":{
						"POSITION":0,
						"NORMAL":1,
						"TEXCOORD_0":2
					},
					"indices":3,
					"material":0
				}
			]
		},
		{
			"name":"Cube.002",
			"primitives":[
				{
					"attributes":{
						"POSITION":4,
						"NORMAL":5,
						"TEXCOORD_0":6
					},
					"indices":7,
					"material":1
				}
			]
		},
		{
			"name":"Sphere.016",
			"primitives":[
				{
					"attributes":{
						"POSITION":8,
						"NORMAL":9,
						"TEXCOORD_0":10
					},
					"indices":11,
					"material":2
				}
			]
		},
		{
			"name":"Sphere.017",
			"primitives":[
				{
					"attributes":{
						"POSITION":12,
						"NORMAL":13,
						"TEXCOORD_0":14
					},
					"indices":11,
					"material":3
				}
			]
		},
		{
			"name":"Circle.001",
			"primitives":[
				{
					"attributes":{
						"POSITION":15,
						"NORMAL":16,
						"TEXCOORD_0":17
					},
					"indices":18,
					"material":4
				}
			]
		},
		{
			"name":"Circle.002",
			"primitives":[
				{
					"attributes":{
						"POSITION":19,
						"NORMAL":20,
						"TEXCOORD_0":21
					},
					"indices":18,
					"material":5
				}
			]
		}
	],
	"textures":[
		{
			"sampler":0,
			"source":0
		},
		{
			"sampler":0,
			"source":0
		},
		{
			"sampler":0,
			"source":0
		},
		{
			"sampler":0,
			"source":0
		},
		{
			"sampler":0,
			"source":1
		},
		{
			"sampler":0,
			"source":1
		}
	],
	"images":[
		{
			"mimeType":"image/png",
			"name":"palette",
			"uri": "../../../textures/palette.png"
		},
		{
			"mimeType":"image/png",
			"name":"pomidor",
			"uri":"pomidor.png"
		}
	],
	"accessors":[
		{
			"bufferView":0,
			"componentType":5126,
			"count":352,
			"max":[
				0.13639135658740997,
				0.044830143451690674,
				0.06162654608488083
			],
			"min":[
				-0.1519380658864975,
				0.0002895742654800415,
				-0.06162658706307411
			],
			"type":"VEC3"
		},
		{
			"bufferView":1,
			"componentType":5126,
			"count":352,
			"type":"VEC3"
		},
		{
			"bufferView":2,
			"componentType":5126,
			"count":352,
			"type":"VEC2"
		},
		{
			"bufferView":3,
			"componentType":5123,
			"count":1530,
			"type":"SCALAR"
		},
		{
			"bufferView":4,
			"componentType":5126,
			"count":566,
			"max":[
				0.09092072397470474,
				0.05130518227815628,
				0.049446020275354385
			],
			"min":[
				-0.0918293371796608,
				0.04428771138191223,
				-0.049446020275354385
			],
			"type":"VEC3"
		},
		{
			"bufferView":5,
			"componentType":5126,
			"count":566,
			"type":"VEC3"
		},
		{
			"bufferView":6,
			"componentType":5126,
			"count":566,
			"type":"VEC2"
		},
		{
			"bufferView":7,
			"componentType":5123,
			"count":1974,
			"type":"SCALAR"
		},
		{
			"bufferView":8,
			"componentType":5126,
			"count":384,
			"max":[
				0.09408731758594513,
				0.05799347534775734,
				0.04568834602832794
			],
			"min":[
				-0.00778551772236824,
				0.051167674362659454,
				-0.03767790272831917
			],
			"type":"VEC3"
		},
		{
			"bufferView":9,
			"componentType":5126,
			"count":384,
			"type":"VEC3"
		},
		{
			"bufferView":10,
			"componentType":5126,
			"count":384,
			"type":"VEC2"
		},
		{
			"bufferView":11,
			"componentType":5123,
			"count":2292,
			"type":"SCALAR"
		},
		{
			"bufferView":12,
			"componentType":5126,
			"count":384,
			"max":[
				-0.028888743370771408,
				0.05799347534775734,
				0.04568834602832794
			],
			"min":[
				-0.13076157867908478,
				0.051167674362659454,
				-0.03767790272831917
			],
			"type":"VEC3"
		},
		{
			"bufferView":13,
			"componentType":5126,
			"count":384,
			"type":"VEC3"
		},
		{
			"bufferView":14,
			"componentType":5126,
			"count":384,
			"type":"VEC2"
		},
		{
			"bufferView":15,
			"componentType":5126,
			"count":136,
			"max":[
				0.0760316252708435,
				0.06186836212873459,
				0.04649913311004639
			],
			"min":[
				0.004098489880561829,
				0.0577833466231823,
				-0.017663512378931046
			],
			"type":"VEC3"
		},
		{
			"bufferView":16,
			"componentType":5126,
			"count":136,
			"type":"VEC3"
		},
		{
			"bufferView":17,
			"componentType":5126,
			"count":136,
			"type":"VEC2"
		},
		{
			"bufferView":18,
			"componentType":5123,
			"count":372,
			"type":"SCALAR"
		},
		{
			"bufferView":19,
			"componentType":5126,
			"count":136,
			"max":[
				-0.02212434634566307,
				0.06186836212873459,
				0.04649913311004639
			],
			"min":[
				-0.09405748546123505,
				0.0577833466231823,
				-0.017663512378931046
			],
			"type":"VEC3"
		},
		{
			"bufferView":20,
			"componentType":5126,
			"count":136,
			"type":"VEC3"
		},
		{
			"bufferView":21,
			"componentType":5126,
			"count":136,
			"type":"VEC2"
		}
	],
	"bufferViews":[
		{
			"buffer":0,
			"byteLength":4224,
			"byteOffset":0,
			"target":34962
		},
		{
			"buffer":0,
			"byteLength":4224,
			"byteOffset":4224,
			"target":34962
		},
		{
			"buffer":0,
			"byteLength":2816,
			"byteOffset":8448,
			"target":34962
		},
		{
			"buffer":0,
			"byteLength":3060,
			"byteOffset":11264,
			"target":34963
		},
		{
			"buffer":0,
			"byteLength":6792,
			"byteOffset":14324,
			"target":34962
		},
		{
			"buffer":0,
			"byteLength":6792,
			"byteOffset":21116,
			"target":34962
		},
		{
			"buffer":0,
			"byteLength":4528,
			"byteOffset":27908,
			"target":34962
		},
		{
			"buffer":0,
			"byteLength":3948,
			"byteOffset":32436,
			"target":34963
		},
		{
			"buffer":0,
			"byteLength":4608,
			"byteOffset":36384,
			"target":34962
		},
		{
			"buffer":0,
			"byteLength":4608,
			"byteOffset":40992,
			"target":34962
		},
		{
			"buffer":0,
			"byteLength":3072,
			"byteOffset":45600,
			"target":34962
		},
		{
			"buffer":0,
			"byteLength":4584,
			"byteOffset":48672,
			"target":34963
		},
		{
			"buffer":0,
			"byteLength":4608,
			"byteOffset":53256,
			"target":34962
		},
		{
			"buffer":0,
			"byteLength":4608,
			"byteOffset":57864,
			"target":34962
		},
		{
			"buffer":0,
			"byteLength":3072,
			"byteOffset":62472,
			"target":34962
		},
		{
			"buffer":0,
			"byteLength":1632,
			"byteOffset":65544,
			"target":34962
		},
		{
			"buffer":0,
			"byteLength":1632,
			"byteOffset":67176,
			"target":34962
		},
		{
			"buffer":0,
			"byteLength":1088,
			"byteOffset":68808,
			"target":34962
		},
		{
			"buffer":0,
			"byteLength":744,
			"byteOffset":69896,
			"target":34963
		},
		{
			"buffer":0,
			"byteLength":1632,
			"byteOffset":70640,
			"target":34962
		},
		{
			"buffer":0,
			"byteLength":1632,
			"byteOffset":72272,
			"target":34962
		},
		{
			"buffer":0,
			"byteLength":1088,
			"byteOffset":73904,
			"target":34962
		}
	],
	"samplers":[
		{
			"magFilter":9729,
			"minFilter":9987
		}
	],
	"buffers":[
		{
			"byteLength":74992,
			"uri":"kanapka.bin"
		}
	]
}
