{
	"asset":{
		"generator":"Khronos glTF Blender I/O v4.5.48",
		"version":"2.0"
	},
	"scene":0,
	"scenes":[
		{
			"name":"Scene",
			"nodes":[
				0,
				1,
				2,
				3,
				4,
				5,
				6
			]
		}
	],
	"nodes":[
		{
			"mesh":0,
			"name":"Sphere"
		},
		{
			"mesh":1,
			"name":"Cube.002"
		},
		{
			"mesh":2,
			"name":"Sphere.003"
		},
		{
			"mesh":3,
			"name":"Sphere.004"
		},
		{
			"mesh":4,
			"name":"Sphere.002"
		},
		{
			"mesh":5,
			"name":"Sphere.001"
		},
		{
			"mesh":6,
			"name":"Sphere.005"
		}
	],
	"materials":[
		{
			"doubleSided":true,
			"name":"Material.001",
			"pbrMetallicRoughness":{
				"baseColorTexture":{
					"index":0
				},
				"metallicFactor":0,
				"roughnessFactor":0.5
			}
		},
		{
			"doubleSided":true,
			"name":"Material.004",
			"pbrMetallicRoughness":{
				"baseColorTexture":{
					"index":1
				},
				"metallicFactor":0,
				"roughnessFactor":0.5
			}
		},
		{
			"doubleSided":true,
			"name":"Material.008",
			"pbrMetallicRoughness":{
				"baseColorTexture":{
					"index":2
				},
				"metallicFactor":0,
				"roughnessFactor":0.5
			}
		},
		{
			"doubleSided":true,
			"name":"Material.009",
			"pbrMetallicRoughness":{
				"baseColorTexture":{
					"index":3
				},
				"metallicFactor":0,
				"roughnessFactor":0.5
			}
		},
		{
			"doubleSided":true,
			"name":"Material.005",
			"pbrMetallicRoughness":{
				"baseColorTexture":{
					"index":4
				},
				"metallicFactor":0,
				"roughnessFactor":0.5
			}
		},
		{
			"doubleSided":true,
			"emissiveFactor":[
				0.28418846067541637,
				0.1618414049085537,
				0.007247410630083495
			],
			"name":"Material.002",
			"pbrMetallicRoughness":{
				"baseColorTexture":{
					"index":5
				},
				"metallicFactor":0,
				"roughnessFactor":0.4365559220314026
			}
		}
	],
	"meshes":[
		{
			"name":"Sphere.001",
			"primitives":[
				{
					"attributes":{
						"POSITION":0,
						"NORMAL":1,
						"TEXCOORD_0":2
					},
					"indices":3,
					"material":0
				}
			]
		},
		{
			"name":"Cube.002",
			"primitives":[
				{
					"attributes":{
						"POSITION":4,
						"NORMAL":5,
						"TEXCOORD_0":6
					},
					"indices":7,
					"material":1
				}
			]
		},
		{
			"name":"Sphere.016",
			"primitives":[
				{
					"attributes":{
						"POSITION":8,
						"NORMAL":9,
						"TEXCOORD_0":10
					},
					"indices":11,
					"material":2
				}
			]
		},
		{
			"name":"Sphere.017",
			"primitives":[
				{
					"attributes":{
						"POSITION":12,
						"NORMAL":13,
						"TEXCOORD_0":14
					},
					"indices":11,
					"material":3
				}
			]
		},
		{
			"name":"Sphere.002",
			"primitives":[
				{
					"attributes":{
						"POSITION":15,
						"NORMAL":16,
						"TEXCOORD_0":17,
						"COLOR_0":18,
						"COLOR_1":19
					},
					"indices":20,
					"material":4
				},
				{
					"attributes":{
						"POSITION":21,
						"NORMAL":22,
						"TEXCOORD_0":23,
						"COLOR_0":24,
						"COLOR_1":25
					},
					"indices":26,
					"material":5
				}
			]
		},
		{
			"name":"Sphere.003",
			"primitives":[
				{
					"attributes":{
						"POSITION":27,
						"NORMAL":28,
						"TEXCOORD_0":29,
						"COLOR_0":30,
						"COLOR_1":31
					},
					"indices":20,
					"material":4
				},
				{
					"attributes":{
						"POSITION":32,
						"NORMAL":33,
						"TEXCOORD_0":34,
						"COLOR_0":35,
						"COLOR_1":36
					},
					"indices":26,
					"material":5
				}
			]
		},
		{
			"name":"Sphere.004",
			"primitives":[
				{
					"attributes":{
						"POSITION":37,
						"NORMAL":38,
						"TEXCOORD_0":39,
						"COLOR_0":40,
						"COLOR_1":41
					},
					"indices":20,
					"material":4
				},
				{
					"attributes":{
						"POSITION":42,
						"NORMAL":43,
						"TEXCOORD_0":44,
						"COLOR_0":45,
						"COLOR_1":46
					},
					"indices":26,
					"material":5
				}
			]
		}
	],
	"textures":[
		{
			"sampler":0,
			"source":0
		},
		{
			"sampler":0,
			"source":0
		},
		{
			"sampler":0,
			"source":0
		},
		{
			"sampler":0,
			"source":0
		},
		{
			"sampler":1,
			"source":0
		},
		{
			"sampler":1,
			"source":0
		}
	],
	"images":[
		{
			"mimeType":"image/png",
			"name":"palette",
			"uri": "../../../textures/palette.png"
		}
	],
	"accessors":[
		{
			"bufferView":0,
			"componentType":5126,
			"count":352,
			"max":[
				0.13639135658740997,
				0.04456382989883423,
				0.06162654608488083
			],
			"min":[
				-0.1519380658864975,
				2.326071262359619e-05,
				-0.06162658706307411
			],
			"type":"VEC3"
		},
		{
			"bufferView":1,
			"componentType":5126,
			"count":352,
			"type":"VEC3"
		},
		{
			"bufferView":2,
			"componentType":5126,
			"count":352,
			"type":"VEC2"
		},
		{
			"bufferView":3,
			"componentType":5123,
			"count":1530,
			"type":"SCALAR"
		},
		{
			"bufferView":4,
			"componentType":5126,
			"count":566,
			"max":[
				0.09092072397470474,
				0.051038868725299835,
				0.049446020275354385
			],
			"min":[
				-0.0918293371796608,
				0.044021397829055786,
				-0.049446020275354385
			],
			"type":"VEC3"
		},
		{
			"bufferView":5,
			"componentType":5126,
			"count":566,
			"type":"VEC3"
		},
		{
			"bufferView":6,
			"componentType":5126,
			"count":566,
			"type":"VEC2"
		},
		{
			"bufferView":7,
			"componentType":5123,
			"count":1974,
			"type":"SCALAR"
		},
		{
			"bufferView":8,
			"componentType":5126,
			"count":384,
			"max":[
				0.09408731758594513,
				0.05743125453591347,
				0.04568834602832794
			],
			"min":[
				-0.00778551772236824,
				0.05060545355081558,
				-0.03767790272831917
			],
			"type":"VEC3"
		},
		{
			"bufferView":9,
			"componentType":5126,
			"count":384,
			"type":"VEC3"
		},
		{
			"bufferView":10,
			"componentType":5126,
			"count":384,
			"type":"VEC2"
		},
		{
			"bufferView":11,
			"componentType":5123,
			"count":2292,
			"type":"SCALAR"
		},
		{
			"bufferView":12,
			"componentType":5126,
			"count":384,
			"max":[
				-0.028888743370771408,
				0.05743125453591347,
				0.04568834602832794
			],
			"min":[
				-0.13076157867908478,
				0.05060545355081558,
				-0.03767790272831917
			],
			"type":"VEC3"
		},
		{
			"bufferView":13,
			"componentType":5126,
			"count":384,
			"type":"VEC3"
		},
		{
			"bufferView":14,
			"componentType":5126,
			"count":384,
			"type":"VEC2"
		},
		{
			"bufferView":15,
			"componentType":5126,
			"count":157,
			"max":[
				-0.060213103890419006,
				0.06920120120048523,
				0.024141088128089905
			],
			"min":[
				-0.12951070070266724,
				0.057206109166145325,
				-0.044678229838609695
			],
			"type":"VEC3"
		},
		{
			"bufferView":16,
			"componentType":5126,
			"count":157,
			"type":"VEC3"
		},
		{
			"bufferView":17,
			"componentType":5126,
			"count":157,
			"type":"VEC2"
		},
		{
			"bufferView":18,
			"componentType":5121,
			"count":157,
			"normalized":true,
			"type":"VEC4"
		},
		{
			"bufferView":19,
			"componentType":5123,
			"count":157,
			"normalized":true,
			"type":"VEC4"
		},
		{
			"bufferView":20,
			"componentType":5123,
			"count":642,
			"type":"SCALAR"
		},
		{
			"bufferView":21,
			"componentType":5126,
			"count":31,
			"max":[
				-0.07701917737722397,
				0.06930989027023315,
				0.007369793951511383
			],
			"min":[
				-0.11294494569301605,
				0.06926947832107544,
				-0.02799534611403942
			],
			"type":"VEC3"
		},
		{
			"bufferView":22,
			"componentType":5126,
			"count":31,
			"type":"VEC3"
		},
		{
			"bufferView":23,
			"componentType":5126,
			"count":31,
			"type":"VEC2"
		},
		{
			"bufferView":24,
			"componentType":5121,
			"count":31,
			"normalized":true,
			"type":"VEC4"
		},
		{
			"bufferView":25,
			"componentType":5123,
			"count":31,
			"normalized":true,
			"type":"VEC4"
		},
		{
			"bufferView":26,
			"componentType":5123,
			"count":87,
			"type":"SCALAR"
		},
		{
			"bufferView":27,
			"componentType":5126,
			"count":157,
			"max":[
				0.10271216928958893,
				0.06920120120048523,
				0.048231109976768494
			],
			"min":[
				0.0334145687520504,
				0.057206109166145325,
				-0.020588207989931107
			],
			"type":"VEC3"
		},
		{
			"bufferView":28,
			"componentType":5126,
			"count":157,
			"type":"VEC3"
		},
		{
			"bufferView":29,
			"componentType":5126,
			"count":157,
			"type":"VEC2"
		},
		{
			"bufferView":30,
			"componentType":5121,
			"count":157,
			"normalized":true,
			"type":"VEC4"
		},
		{
			"bufferView":31,
			"componentType":5123,
			"count":157,
			"normalized":true,
			"type":"VEC4"
		},
		{
			"bufferView":32,
			"componentType":5126,
			"count":31,
			"max":[
				0.08590609580278397,
				0.06930989027023315,
				0.03145981580018997
			],
			"min":[
				0.04998032748699188,
				0.06926947832107544,
				-0.003905324265360832
			],
			"type":"VEC3"
		},
		{
			"bufferView":33,
			"componentType":5126,
			"count":31,
			"type":"VEC3"
		},
		{
			"bufferView":34,
			"componentType":5126,
			"count":31,
			"type":"VEC2"
		},
		{
			"bufferView":35,
			"componentType":5121,
			"count":31,
			"normalized":true,
			"type":"VEC4"
		},
		{
			"bufferView":36,
			"componentType":5123,
			"count":31,
			"normalized":true,
			"type":"VEC4"
		},
		{
			"bufferView":37,
			"componentType":5126,
			"count":157,
			"max":[
				0.020751915872097015,
				0.06920120120048523,
				0.03570684418082237
			],
			"min":[
				-0.04854568466544151,
				0.057206109166145325,
				-0.03311247378587723
			],
			"type":"VEC3"
		},
		{
			"bufferView":38,
			"componentType":5126,
			"count":157,
			"type":"VEC3"
		},
		{
			"bufferView":39,
			"componentType":5126,
			"count":157,
			"type":"VEC2"
		},
		{
			"bufferView":40,
			"componentType":5121,
			"count":157,
			"normalized":true,
			"type":"VEC4"
		},
		{
			"bufferView":41,
			"componentType":5123,
			"count":157,
			"normalized":true,
			"type":"VEC4"
		},
		{
			"bufferView":42,
			"componentType":5126,
			"count":31,
			"max":[
				0.003945842385292053,
				0.06930989027023315,
				0.01893555000424385
			],
			"min":[
				-0.03197992593050003,
				0.06926947832107544,
				-0.016429590061306953
			],
			"type":"VEC3"
		},
		{
			"bufferView":43,
			"componentType":5126,
			"count":31,
			"type":"VEC3"
		},
		{
			"bufferView":44,
			"componentType":5126,
			"count":31,
			"type":"VEC2"
		},
		{
			"bufferView":45,
			"componentType":5121,
			"count":31,
			"normalized":true,
			"type":"VEC4"
		},
		{
			"bufferView":46,
			"componentType":5123,
			"count":31,
			"normalized":true,
			"type":"VEC4"
		}
	],
	"bufferViews":[
		{
			"buffer":0,
			"byteLength":4224,
			"byteOffset":0,
			"target":34962
		},
		{
			"buffer":0,
			"byteLength":4224,
			"byteOffset":4224,
			"target":34962
		},
		{
			"buffer":0,
			"byteLength":2816,
			"byteOffset":8448,
			"target":34962
		},
		{
			"buffer":0,
			"byteLength":3060,
			"byteOffset":11264,
			"target":34963
		},
		{
			"buffer":0,
			"byteLength":6792,
			"byteOffset":14324,
			"target":34962
		},
		{
			"buffer":0,
			"byteLength":6792,
			"byteOffset":21116,
			"target":34962
		},
		{
			"buffer":0,
			"byteLength":4528,
			"byteOffset":27908,
			"target":34962
		},
		{
			"buffer":0,
			"byteLength":3948,
			"byteOffset":32436,
			"target":34963
		},
		{
			"buffer":0,
			"byteLength":4608,
			"byteOffset":36384,
			"target":34962
		},
		{
			"buffer":0,
			"byteLength":4608,
			"byteOffset":40992,
			"target":34962
		},
		{
			"buffer":0,
			"byteLength":3072,
			"byteOffset":45600,
			"target":34962
		},
		{
			"buffer":0,
			"byteLength":4584,
			"byteOffset":48672,
			"target":34963
		},
		{
			"buffer":0,
			"byteLength":4608,
			"byteOffset":53256,
			"target":34962
		},
		{
			"buffer":0,
			"byteLength":4608,
			"byteOffset":57864,
			"target":34962
		},
		{
			"buffer":0,
			"byteLength":3072,
			"byteOffset":62472,
			"target":34962
		},
		{
			"buffer":0,
			"byteLength":1884,
			"byteOffset":65544,
			"target":34962
		},
		{
			"buffer":0,
			"byteLength":1884,
			"byteOffset":67428,
			"target":34962
		},
		{
			"buffer":0,
			"byteLength":1256,
			"byteOffset":69312,
			"target":34962
		},
		{
			"buffer":0,
			"byteLength":628,
			"byteOffset":70568,
			"target":34962
		},
		{
			"buffer":0,
			"byteLength":1256,
			"byteOffset":71196,
			"target":34962
		},
		{
			"buffer":0,
			"byteLength":1284,
			"byteOffset":72452,
			"target":34963
		},
		{
			"buffer":0,
			"byteLength":372,
			"byteOffset":73736,
			"target":34962
		},
		{
			"buffer":0,
			"byteLength":372,
			"byteOffset":74108,
			"target":34962
		},
		{
			"buffer":0,
			"byteLength":248,
			"byteOffset":74480,
			"target":34962
		},
		{
			"buffer":0,
			"byteLength":124,
			"byteOffset":74728,
			"target":34962
		},
		{
			"buffer":0,
			"byteLength":248,
			"byteOffset":74852,
			"target":34962
		},
		{
			"buffer":0,
			"byteLength":174,
			"byteOffset":75100,
			"target":34963
		},
		{
			"buffer":0,
			"byteLength":1884,
			"byteOffset":75276,
			"target":34962
		},
		{
			"buffer":0,
			"byteLength":1884,
			"byteOffset":77160,
			"target":34962
		},
		{
			"buffer":0,
			"byteLength":1256,
			"byteOffset":79044,
			"target":34962
		},
		{
			"buffer":0,
			"byteLength":628,
			"byteOffset":80300,
			"target":34962
		},
		{
			"buffer":0,
			"byteLength":1256,
			"byteOffset":80928,
			"target":34962
		},
		{
			"buffer":0,
			"byteLength":372,
			"byteOffset":82184,
			"target":34962
		},
		{
			"buffer":0,
			"byteLength":372,
			"byteOffset":82556,
			"target":34962
		},
		{
			"buffer":0,
			"byteLength":248,
			"byteOffset":82928,
			"target":34962
		},
		{
			"buffer":0,
			"byteLength":124,
			"byteOffset":83176,
			"target":34962
		},
		{
			"buffer":0,
			"byteLength":248,
			"byteOffset":83300,
			"target":34962
		},
		{
			"buffer":0,
			"byteLength":1884,
			"byteOffset":83548,
			"target":34962
		},
		{
			"buffer":0,
			"byteLength":1884,
			"byteOffset":85432,
			"target":34962
		},
		{
			"buffer":0,
			"byteLength":1256,
			"byteOffset":87316,
			"target":34962
		},
		{
			"buffer":0,
			"byteLength":628,
			"byteOffset":88572,
			"target":34962
		},
		{
			"buffer":0,
			"byteLength":1256,
			"byteOffset":89200,
			"target":34962
		},
		{
			"buffer":0,
			"byteLength":372,
			"byteOffset":90456,
			"target":34962
		},
		{
			"buffer":0,
			"byteLength":372,
			"byteOffset":90828,
			"target":34962
		},
		{
			"buffer":0,
			"byteLength":248,
			"byteOffset":91200,
			"target":34962
		},
		{
			"buffer":0,
			"byteLength":124,
			"byteOffset":91448,
			"target":34962
		},
		{
			"buffer":0,
			"byteLength":248,
			"byteOffset":91572,
			"target":34962
		}
	],
	"samplers":[
		{
			"magFilter":9729,
			"minFilter":9987
		},
		{
			"magFilter":9728,
			"minFilter":9984
		}
	],
	"buffers":[
		{
			"byteLength":91820,
			"uri":"kanapka_z_jajkiem.bin"
		}
	]
}
