{
	"asset":{
		"generator":"Khronos glTF Blender I/O v4.5.48",
		"version":"2.0"
	},
	"scene":0,
	"scenes":[
		{
			"name":"Scene",
			"nodes":[
				0,
				1,
				2,
				3,
				4,
				5,
				6,
				7,
				8
			]
		}
	],
	"nodes":[
		{
			"mesh":0,
			"name":"Sphere"
		},
		{
			"mesh":1,
			"name":"Sphere.001"
		},
		{
			"mesh":2,
			"name":"Cube"
		},
		{
			"mesh":3,
			"name":"NurbsPath.009"
		},
		{
			"mesh":4,
			"name":"Circle"
		},
		{
			"mesh":5,
			"name":"Circle.001"
		},
		{
			"mesh":6,
			"name":"Torus Knot 2 x 3"
		},
		{
			"mesh":7,
			"name":"Circle.002"
		},
		{
			"mesh":8,
			"name":"Circle.003"
		}
	],
	"materials":[
		{
			"doubleSided":true,
			"name":"Material.001",
			"pbrMetallicRoughness":{
				"baseColorTexture":{
					"index":0
				},
				"metallicFactor":0.10000000149011612,
				"roughnessFactor":0.10000000149011612
			}
		},
		{
			"alphaMode":"BLEND",
			"doubleSided":true,
			"name":"Material.002",
			"pbrMetallicRoughness":{
				"baseColorFactor":[
					1,
					1,
					1,
					0.800000011920929
				],
				"baseColorTexture":{
					"index":1
				},
				"metallicFactor":0.10000000149011612,
				"roughnessFactor":0.10000000149011612
			}
		},
		{
			"doubleSided":true,
			"name":"egg",
			"pbrMetallicRoughness":{
				"baseColorTexture":{
					"index":2
				},
				"metallicFactor":0
			}
		},
		{
			"doubleSided":true,
			"name":"yellow",
			"pbrMetallicRoughness":{
				"baseColorTexture":{
					"index":3
				},
				"metallicFactor":0
			}
		},
		{
			"doubleSided":true,
			"name":"Material.009",
			"pbrMetallicRoughness":{
				"baseColorTexture":{
					"index":4
				},
				"metallicFactor":0.07612456381320953,
				"roughnessFactor":0.2785467207431793
			}
		},
		{
			"doubleSided":true,
			"name":"Material.005",
			"pbrMetallicRoughness":{
				"baseColorTexture":{
					"index":5
				},
				"metallicFactor":0,
				"roughnessFactor":0.5
			}
		},
		{
			"doubleSided":true,
			"name":"Material.004",
			"pbrMetallicRoughness":{
				"baseColorTexture":{
					"index":6
				},
				"metallicFactor":0,
				"roughnessFactor":0.5
			}
		},
		{
			"doubleSided":true,
			"name":"Material.008",
			"pbrMetallicRoughness":{
				"baseColorTexture":{
					"index":7
				},
				"metallicFactor":0.20000000298023224
			}
		},
		{
			"doubleSided":true,
			"name":"Material.006",
			"pbrMetallicRoughness":{
				"baseColorTexture":{
					"index":8
				},
				"metallicFactor":0,
				"roughnessFactor":0.4000000059604645
			}
		},
		{
			"doubleSided":true,
			"name":"Material.007",
			"pbrMetallicRoughness":{
				"baseColorTexture":{
					"index":9
				},
				"metallicFactor":0,
				"roughnessFactor":0.4000000059604645
			}
		}
	],
	"meshes":[
		{
			"name":"Sphere.001",
			"primitives":[
				{
					"attributes":{
						"POSITION":0,
						"NORMAL":1,
						"TEXCOORD_0":2
					},
					"indices":3,
					"material":0
				}
			]
		},
		{
			"name":"Sphere.002",
			"primitives":[
				{
					"attributes":{
						"POSITION":4,
						"NORMAL":5,
						"TEXCOORD_0":6
					},
					"indices":7,
					"material":1
				}
			]
		},
		{
			"name":"Cube.001",
			"primitives":[
				{
					"attributes":{
						"POSITION":8,
						"NORMAL":9,
						"TEXCOORD_0":10
					},
					"indices":11,
					"material":2
				},
				{
					"attributes":{
						"POSITION":12,
						"NORMAL":13,
						"TEXCOORD_0":14
					},
					"indices":15,
					"material":3
				}
			]
		},
		{
			"name":"Mesh.001",
			"primitives":[
				{
					"attributes":{
						"POSITION":16,
						"NORMAL":17,
						"TEXCOORD_0":18
					},
					"indices":19,
					"material":4
				}
			]
		},
		{
			"name":"Circle",
			"primitives":[
				{
					"attributes":{
						"POSITION":20,
						"NORMAL":21,
						"TEXCOORD_0":22
					},
					"indices":23,
					"material":5
				},
				{
					"attributes":{
						"POSITION":24,
						"NORMAL":25,
						"TEXCOORD_0":26
					},
					"indices":27,
					"material":6
				}
			]
		},
		{
			"name":"Circle.001",
			"primitives":[
				{
					"attributes":{
						"POSITION":28,
						"NORMAL":29,
						"TEXCOORD_0":30
					},
					"indices":31,
					"material":5
				},
				{
					"attributes":{
						"POSITION":32,
						"NORMAL":33,
						"TEXCOORD_0":34
					},
					"indices":35,
					"material":6
				}
			]
		},
		{
			"name":"Mesh.002",
			"primitives":[
				{
					"attributes":{
						"POSITION":36,
						"NORMAL":37,
						"TEXCOORD_0":38
					},
					"indices":39,
					"material":7
				}
			]
		},
		{
			"name":"Circle.002",
			"primitives":[
				{
					"attributes":{
						"POSITION":40,
						"NORMAL":41,
						"TEXCOORD_0":42
					},
					"indices":43,
					"material":8
				}
			]
		},
		{
			"name":"Circle.003",
			"primitives":[
				{
					"attributes":{
						"POSITION":44,
						"NORMAL":45,
						"TEXCOORD_0":46
					},
					"indices":47,
					"material":9
				}
			]
		}
	],
	"textures":[
		{
			"sampler":0,
			"source":0
		},
		{
			"sampler":0,
			"source":0
		},
		{
			"sampler":0,
			"source":0
		},
		{
			"sampler":0,
			"source":0
		},
		{
			"sampler":0,
			"source":0
		},
		{
			"sampler":0,
			"source":0
		},
		{
			"sampler":0,
			"source":0
		},
		{
			"sampler":1,
			"source":0
		},
		{
			"sampler":0,
			"source":0
		},
		{
			"sampler":1,
			"source":0
		}
	],
	"images":[
		{
			"mimeType":"image/png",
			"name":"palette",
			"uri":"../../../textures/palette.png"
		}
	],
	"accessors":[
		{
			"bufferView":0,
			"componentType":5126,
			"count":1446,
			"max":[
				1.0606743097305298,
				1.0914769172668457,
				1.0606741905212402
			],
			"min":[
				-1.0606741905212402,
				0.00546872615814209,
				-1.0606744289398193
			],
			"type":"VEC3"
		},
		{
			"bufferView":1,
			"componentType":5126,
			"count":1446,
			"type":"VEC3"
		},
		{
			"bufferView":2,
			"componentType":5126,
			"count":1446,
			"type":"VEC2"
		},
		{
			"bufferView":3,
			"componentType":5123,
			"count":6528,
			"type":"SCALAR"
		},
		{
			"bufferView":4,
			"componentType":5126,
			"count":32,
			"max":[
				0.9288504123687744,
				0.8948812484741211,
				0.9288503527641296
			],
			"min":[
				-0.9288502931594849,
				0.8948811888694763,
				-0.928850531578064
			],
			"type":"VEC3"
		},
		{
			"bufferView":5,
			"componentType":5126,
			"count":32,
			"type":"VEC3"
		},
		{
			"bufferView":6,
			"componentType":5126,
			"count":32,
			"type":"VEC2"
		},
		{
			"bufferView":7,
			"componentType":5123,
			"count":90,
			"type":"SCALAR"
		},
		{
			"bufferView":8,
			"componentType":5126,
			"count":567,
			"max":[
				0.19190609455108643,
				1.3688468933105469,
				0.9624704718589783
			],
			"min":[
				-0.8636012077331543,
				0.6541079878807068,
				0.2683185935020447
			],
			"type":"VEC3"
		},
		{
			"bufferView":9,
			"componentType":5126,
			"count":567,
			"type":"VEC3"
		},
		{
			"bufferView":10,
			"componentType":5126,
			"count":567,
			"type":"VEC2"
		},
		{
			"bufferView":11,
			"componentType":5123,
			"count":3024,
			"type":"SCALAR"
		},
		{
			"bufferView":12,
			"componentType":5126,
			"count":598,
			"max":[
				0.12331914901733398,
				1.2011287212371826,
				0.8601889610290527
			],
			"min":[
				-0.763660192489624,
				0.7216238379478455,
				0.3242267072200775
			],
			"type":"VEC3"
		},
		{
			"bufferView":13,
			"componentType":5126,
			"count":598,
			"type":"VEC3"
		},
		{
			"bufferView":14,
			"componentType":5126,
			"count":598,
			"type":"VEC2"
		},
		{
			"bufferView":15,
			"componentType":5123,
			"count":3120,
			"type":"SCALAR"
		},
		{
			"bufferView":16,
			"componentType":5126,
			"count":1038,
			"max":[
				0.9283910393714905,
				1.1390342712402344,
				0.8075383305549622
			],
			"min":[
				0.1483009308576584,
				0.5302538871765137,
				-0.1460762470960617
			],
			"type":"VEC3"
		},
		{
			"bufferView":17,
			"componentType":5126,
			"count":1038,
			"type":"VEC3"
		},
		{
			"bufferView":18,
			"componentType":5126,
			"count":1038,
			"type":"VEC2"
		},
		{
			"bufferView":19,
			"componentType":5123,
			"count":2760,
			"type":"SCALAR"
		},
		{
			"bufferView":20,
			"componentType":5126,
			"count":572,
			"max":[
				0.3688720762729645,
				1.1261693239212036,
				0.7895057201385498
			],
			"min":[
				-0.04140571877360344,
				0.8128477931022644,
				0.47702449560165405
			],
			"type":"VEC3"
		},
		{
			"bufferView":21,
			"componentType":5126,
			"count":572,
			"type":"VEC3"
		},
		{
			"bufferView":22,
			"componentType":5126,
			"count":572,
			"type":"VEC2"
		},
		{
			"bufferView":23,
			"componentType":5123,
			"count":2088,
			"type":"SCALAR"
		},
		{
			"bufferView":24,
			"componentType":5126,
			"count":610,
			"max":[
				0.2938900589942932,
				1.070024013519287,
				0.7031320333480835
			],
			"min":[
				0.056423161178827286,
				0.9050878286361694,
				0.5295972228050232
			],
			"type":"VEC3"
		},
		{
			"bufferView":25,
			"componentType":5126,
			"count":610,
			"type":"VEC3"
		},
		{
			"bufferView":26,
			"componentType":5126,
			"count":610,
			"type":"VEC2"
		},
		{
			"bufferView":27,
			"componentType":5123,
			"count":3024,
			"type":"SCALAR"
		},
		{
			"bufferView":28,
			"componentType":5126,
			"count":573,
			"max":[
				-0.5115103125572205,
				1.1737971305847168,
				0.3833477795124054
			],
			"min":[
				-0.8979538083076477,
				0.7968883514404297,
				0.1370760202407837
			],
			"type":"VEC3"
		},
		{
			"bufferView":29,
			"componentType":5126,
			"count":573,
			"type":"VEC3"
		},
		{
			"bufferView":30,
			"componentType":5126,
			"count":573,
			"type":"VEC2"
		},
		{
			"bufferView":31,
			"componentType":5123,
			"count":2082,
			"type":"SCALAR"
		},
		{
			"bufferView":32,
			"componentType":5126,
			"count":611,
			"max":[
				-0.5925725698471069,
				1.1089564561843872,
				0.31157997250556946
			],
			"min":[
				-0.8054437637329102,
				0.8926273584365845,
				0.17432749271392822
			],
			"type":"VEC3"
		},
		{
			"bufferView":33,
			"componentType":5126,
			"count":611,
			"type":"VEC3"
		},
		{
			"bufferView":34,
			"componentType":5126,
			"count":611,
			"type":"VEC2"
		},
		{
			"bufferView":35,
			"componentType":5123,
			"count":3030,
			"type":"SCALAR"
		},
		{
			"bufferView":36,
			"componentType":5126,
			"count":3557,
			"max":[
				0.8760983943939209,
				1.0833314657211304,
				0.45785418152809143
			],
			"min":[
				-0.9020501375198364,
				0.5523836016654968,
				-0.8586525321006775
			],
			"type":"VEC3"
		},
		{
			"bufferView":37,
			"componentType":5126,
			"count":3557,
			"type":"VEC3"
		},
		{
			"bufferView":38,
			"componentType":5126,
			"count":3557,
			"type":"VEC2"
		},
		{
			"bufferView":39,
			"componentType":5123,
			"count":13680,
			"type":"SCALAR"
		},
		{
			"bufferView":40,
			"componentType":5126,
			"count":958,
			"max":[
				0.2785465717315674,
				1.0014363527297974,
				0.5150533318519592
			],
			"min":[
				-0.016916275024414062,
				0.8272637724876404,
				0.21669642627239227
			],
			"type":"VEC3"
		},
		{
			"bufferView":41,
			"componentType":5126,
			"count":958,
			"type":"VEC3"
		},
		{
			"bufferView":42,
			"componentType":5126,
			"count":958,
			"type":"VEC2"
		},
		{
			"bufferView":43,
			"componentType":5123,
			"count":4608,
			"type":"SCALAR"
		},
		{
			"bufferView":44,
			"componentType":5126,
			"count":948,
			"max":[
				-0.09876096248626709,
				0.9809596538543701,
				-0.34519100189208984
			],
			"min":[
				-0.3894693851470947,
				0.8167282342910767,
				-0.6532604098320007
			],
			"type":"VEC3"
		},
		{
			"bufferView":45,
			"componentType":5126,
			"count":948,
			"type":"VEC3"
		},
		{
			"bufferView":46,
			"componentType":5126,
			"count":948,
			"type":"VEC2"
		},
		{
			"bufferView":47,
			"componentType":5123,
			"count":4608,
			"type":"SCALAR"
		}
	],
	"bufferViews":[
		{
			"buffer":0,
			"byteLength":17352,
			"byteOffset":0,
			"target":34962
		},
		{
			"buffer":0,
			"byteLength":17352,
			"byteOffset":17352,
			"target":34962
		},
		{
			"buffer":0,
			"byteLength":11568,
			"byteOffset":34704,
			"target":34962
		},
		{
			"buffer":0,
			"byteLength":13056,
			"byteOffset":46272,
			"target":34963
		},
		{
			"buffer":0,
			"byteLength":384,
			"byteOffset":59328,
			"target":34962
		},
		{
			"buffer":0,
			"byteLength":384,
			"byteOffset":59712,
			"target":34962
		},
		{
			"buffer":0,
			"byteLength":256,
			"byteOffset":60096,
			"target":34962
		},
		{
			"buffer":0,
			"byteLength":180,
			"byteOffset":60352,
			"target":34963
		},
		{
			"buffer":0,
			"byteLength":6804,
			"byteOffset":60532,
			"target":34962
		},
		{
			"buffer":0,
			"byteLength":6804,
			"byteOffset":67336,
			"target":34962
		},
		{
			"buffer":0,
			"byteLength":4536,
			"byteOffset":74140,
			"target":34962
		},
		{
			"buffer":0,
			"byteLength":6048,
			"byteOffset":78676,
			"target":34963
		},
		{
			"buffer":0,
			"byteLength":7176,
			"byteOffset":84724,
			"target":34962
		},
		{
			"buffer":0,
			"byteLength":7176,
			"byteOffset":91900,
			"target":34962
		},
		{
			"buffer":0,
			"byteLength":4784,
			"byteOffset":99076,
			"target":34962
		},
		{
			"buffer":0,
			"byteLength":6240,
			"byteOffset":103860,
			"target":34963
		},
		{
			"buffer":0,
			"byteLength":12456,
			"byteOffset":110100,
			"target":34962
		},
		{
			"buffer":0,
			"byteLength":12456,
			"byteOffset":122556,
			"target":34962
		},
		{
			"buffer":0,
			"byteLength":8304,
			"byteOffset":135012,
			"target":34962
		},
		{
			"buffer":0,
			"byteLength":5520,
			"byteOffset":143316,
			"target":34963
		},
		{
			"buffer":0,
			"byteLength":6864,
			"byteOffset":148836,
			"target":34962
		},
		{
			"buffer":0,
			"byteLength":6864,
			"byteOffset":155700,
			"target":34962
		},
		{
			"buffer":0,
			"byteLength":4576,
			"byteOffset":162564,
			"target":34962
		},
		{
			"buffer":0,
			"byteLength":4176,
			"byteOffset":167140,
			"target":34963
		},
		{
			"buffer":0,
			"byteLength":7320,
			"byteOffset":171316,
			"target":34962
		},
		{
			"buffer":0,
			"byteLength":7320,
			"byteOffset":178636,
			"target":34962
		},
		{
			"buffer":0,
			"byteLength":4880,
			"byteOffset":185956,
			"target":34962
		},
		{
			"buffer":0,
			"byteLength":6048,
			"byteOffset":190836,
			"target":34963
		},
		{
			"buffer":0,
			"byteLength":6876,
			"byteOffset":196884,
			"target":34962
		},
		{
			"buffer":0,
			"byteLength":6876,
			"byteOffset":203760,
			"target":34962
		},
		{
			"buffer":0,
			"byteLength":4584,
			"byteOffset":210636,
			"target":34962
		},
		{
			"buffer":0,
			"byteLength":4164,
			"byteOffset":215220,
			"target":34963
		},
		{
			"buffer":0,
			"byteLength":7332,
			"byteOffset":219384,
			"target":34962
		},
		{
			"buffer":0,
			"byteLength":7332,
			"byteOffset":226716,
			"target":34962
		},
		{
			"buffer":0,
			"byteLength":4888,
			"byteOffset":234048,
			"target":34962
		},
		{
			"buffer":0,
			"byteLength":6060,
			"byteOffset":238936,
			"target":34963
		},
		{
			"buffer":0,
			"byteLength":42684,
			"byteOffset":244996,
			"target":34962
		},
		{
			"buffer":0,
			"byteLength":42684,
			"byteOffset":287680,
			"target":34962
		},
		{
			"buffer":0,
			"byteLength":28456,
			"byteOffset":330364,
			"target":34962
		},
		{
			"buffer":0,
			"byteLength":27360,
			"byteOffset":358820,
			"target":34963
		},
		{
			"buffer":0,
			"byteLength":11496,
			"byteOffset":386180,
			"target":34962
		},
		{
			"buffer":0,
			"byteLength":11496,
			"byteOffset":397676,
			"target":34962
		},
		{
			"buffer":0,
			"byteLength":7664,
			"byteOffset":409172,
			"target":34962
		},
		{
			"buffer":0,
			"byteLength":9216,
			"byteOffset":416836,
			"target":34963
		},
		{
			"buffer":0,
			"byteLength":11376,
			"byteOffset":426052,
			"target":34962
		},
		{
			"buffer":0,
			"byteLength":11376,
			"byteOffset":437428,
			"target":34962
		},
		{
			"buffer":0,
			"byteLength":7584,
			"byteOffset":448804,
			"target":34962
		},
		{
			"buffer":0,
			"byteLength":9216,
			"byteOffset":456388,
			"target":34963
		}
	],
	"samplers":[
		{
			"magFilter":9728,
			"minFilter":9984
		},
		{
			"magFilter":9729,
			"minFilter":9987
		}
	],
	"buffers":[
		{
			"byteLength":465604,
			"uri":"ramen.bin"
		}
	]
}
