{
	"asset":{
		"generator":"Khronos glTF Blender I/O v5.1.19",
		"version":"2.0"
	},
	"scene":0,
	"scenes":[
		{
			"name":"Scene",
			"nodes":[
				0,
				1,
				19
			]
		}
	],
	"nodes":[
		{
			"mesh":0,
			"name":"Cube.008",
			"translation":[
				1.782881736755371,
				1.5083484649658203,
				0
			]
		},
		{
			"mesh":1,
			"name":"Circle.007"
		},
		{
			"name":"reka-p",
			"rotation":[
				1.4780318635665424e-10,
				-8.053022781950858e-08,
				0.004014520440250635,
				0.9999919533729553
			],
			"translation":[
				-3.8750126662989715e-08,
				0.3771648108959198,
				2.0134987011033445e-08
			]
		},
		{
			"children":[
				2
			],
			"name":"klatka-p",
			"rotation":[
				1.5454320489993734e-08,
				1.54543009500685e-08,
				-0.7071067690849304,
				0.7071067690849304
			],
			"scale":[
				0.9999998211860657,
				0.9999998211860657,
				0.9999999403953552
			],
			"translation":[
				1.7171791455439234e-07,
				0.19190877676010132,
				-3.3708147384459153e-10
			]
		},
		{
			"name":"kapelusz",
			"rotation":[
				0,
				-1.4210856409267898e-14,
				0,
				1
			],
			"scale":[
				0.9999999403953552,
				0.9999999403953552,
				0.9999999403953552
			],
			"translation":[
				1.7171791455439234e-07,
				0.448377400636673,
				-3.3708147384459153e-10
			]
		},
		{
			"children":[
				4
			],
			"name":"gora",
			"rotation":[
				0,
				-1.4210856409267898e-14,
				0,
				1
			],
			"scale":[
				0.9999999403953552,
				0.9999999403953552,
				0.9999999403953552
			],
			"translation":[
				1.7171791455439234e-07,
				0.19190877676010132,
				-3.3708147384459153e-10
			]
		},
		{
			"name":"reka-l",
			"rotation":[
				-1.0097419586828951e-28,
				5.962445648322046e-09,
				7.331474333958223e-22,
				1
			],
			"scale":[
				0.9999999403953552,
				1,
				0.9999999403953552
			],
			"translation":[
				7.065128926342368e-09,
				0.37716493010520935,
				-3.547849569685013e-09
			]
		},
		{
			"children":[
				6
			],
			"name":"klatka-l",
			"rotation":[
				0.5000000596046448,
				-0.5,
				0.5,
				0.5
			],
			"scale":[
				0.9999997615814209,
				0.9999997019767761,
				0.9999998211860657
			],
			"translation":[
				1.7171791455439234e-07,
				0.19190874695777893,
				-3.3708147384459153e-10
			]
		},
		{
			"children":[
				3,
				5,
				7
			],
			"name":"glowna",
			"rotation":[
				0,
				-1.4210856409267898e-14,
				0,
				1
			],
			"scale":[
				0.9999999403953552,
				0.9999999403953552,
				0.9999999403953552
			],
			"translation":[
				1.7171791455439234e-07,
				0,
				-3.3708147384459153e-10
			]
		},
		{
			"name":"noga-p",
			"rotation":[
				-0.3151664733886719,
				1.0115155646417406e-07,
				-7.576296212619127e-08,
				0.9490364193916321
			],
			"scale":[
				1,
				0.9999999403953552,
				1
			],
			"translation":[
				2.8709754573696955e-08,
				0.21892942488193512,
				8.476327195694466e-08
			]
		},
		{
			"children":[
				9
			],
			"name":"miednica-p",
			"rotation":[
				-0.585974931716919,
				-0.3957692086696625,
				-0.5859750509262085,
				0.39576929807662964
			],
			"scale":[
				0.9999999403953552,
				0.9999999403953552,
				0.9999998807907104
			],
			"translation":[
				1.7171791455439234e-07,
				0,
				-3.3708147384459153e-10
			]
		},
		{
			"name":"noga-l",
			"rotation":[
				0.31516656279563904,
				2.7714006023416005e-07,
				5.9256954898501135e-08,
				0.9490363597869873
			],
			"scale":[
				1,
				0.9999998807907104,
				0.9999998807907104
			],
			"translation":[
				2.9453035566007202e-08,
				0.21892976760864258,
				1.5403639253008805e-08
			]
		},
		{
			"children":[
				11
			],
			"name":"miednica-l",
			"rotation":[
				0.5859749913215637,
				-0.39576929807662964,
				0.5859749913215637,
				0.39576926827430725
			],
			"scale":[
				0.9999999403953552,
				1.000000238418579,
				0.9999998807907104
			],
			"translation":[
				1.7171791455439234e-07,
				0,
				-3.3708147384459153e-10
			]
		},
		{
			"mesh":2,
			"name":"brwi.001",
			"skin":0
		},
		{
			"mesh":3,
			"name":"Cube.007",
			"skin":0
		},
		{
			"mesh":4,
			"name":"Sphere.003",
			"skin":0
		},
		{
			"mesh":5,
			"name":"Sphere.004",
			"skin":0
		},
		{
			"mesh":6,
			"name":"Sphere.005",
			"skin":0
		},
		{
			"mesh":7,
			"name":"usta.001",
			"skin":0
		},
		{
			"children":[
				13,
				14,
				15,
				16,
				17,
				18,
				8,
				10,
				12
			],
			"name":"Armature.002",
			"rotation":[
				0,
				-1,
				0,
				1.6292069915380125e-07
			],
			"scale":[
				0.8117275238037109,
				0.8117275238037109,
				0.8117275238037109
			],
			"translation":[
				2.5250940322875977,
				0.08594492077827454,
				-0.16616296768188477
			]
		}
	],
	"animations":[
		{
			"channels":[
				{
					"sampler":0,
					"target":{
						"node":0,
						"path":"translation"
					}
				},
				{
					"sampler":1,
					"target":{
						"node":0,
						"path":"rotation"
					}
				},
				{
					"sampler":2,
					"target":{
						"node":0,
						"path":"scale"
					}
				}
			],
			"name":"Cube.008Action",
			"samplers":[
				{
					"input":63,
					"interpolation":"STEP",
					"output":64
				},
				{
					"input":65,
					"interpolation":"LINEAR",
					"output":66
				},
				{
					"input":63,
					"interpolation":"STEP",
					"output":67
				}
			]
		},
		{
			"channels":[
				{
					"sampler":0,
					"target":{
						"node":1,
						"path":"translation"
					}
				},
				{
					"sampler":1,
					"target":{
						"node":1,
						"path":"rotation"
					}
				},
				{
					"sampler":2,
					"target":{
						"node":1,
						"path":"scale"
					}
				}
			],
			"name":"CircleAction.001",
			"samplers":[
				{
					"input":68,
					"interpolation":"LINEAR",
					"output":69
				},
				{
					"input":68,
					"interpolation":"LINEAR",
					"output":70
				},
				{
					"input":68,
					"interpolation":"LINEAR",
					"output":71
				}
			]
		},
		{
			"channels":[
				{
					"sampler":0,
					"target":{
						"node":8,
						"path":"translation"
					}
				},
				{
					"sampler":1,
					"target":{
						"node":8,
						"path":"rotation"
					}
				},
				{
					"sampler":2,
					"target":{
						"node":8,
						"path":"scale"
					}
				},
				{
					"sampler":3,
					"target":{
						"node":3,
						"path":"translation"
					}
				},
				{
					"sampler":4,
					"target":{
						"node":3,
						"path":"rotation"
					}
				},
				{
					"sampler":5,
					"target":{
						"node":3,
						"path":"scale"
					}
				},
				{
					"sampler":6,
					"target":{
						"node":2,
						"path":"translation"
					}
				},
				{
					"sampler":7,
					"target":{
						"node":2,
						"path":"rotation"
					}
				},
				{
					"sampler":8,
					"target":{
						"node":2,
						"path":"scale"
					}
				},
				{
					"sampler":9,
					"target":{
						"node":5,
						"path":"translation"
					}
				},
				{
					"sampler":10,
					"target":{
						"node":5,
						"path":"rotation"
					}
				},
				{
					"sampler":11,
					"target":{
						"node":5,
						"path":"scale"
					}
				},
				{
					"sampler":12,
					"target":{
						"node":4,
						"path":"translation"
					}
				},
				{
					"sampler":13,
					"target":{
						"node":4,
						"path":"rotation"
					}
				},
				{
					"sampler":14,
					"target":{
						"node":4,
						"path":"scale"
					}
				},
				{
					"sampler":15,
					"target":{
						"node":7,
						"path":"translation"
					}
				},
				{
					"sampler":16,
					"target":{
						"node":7,
						"path":"rotation"
					}
				},
				{
					"sampler":17,
					"target":{
						"node":7,
						"path":"scale"
					}
				},
				{
					"sampler":18,
					"target":{
						"node":6,
						"path":"translation"
					}
				},
				{
					"sampler":19,
					"target":{
						"node":6,
						"path":"rotation"
					}
				},
				{
					"sampler":20,
					"target":{
						"node":6,
						"path":"scale"
					}
				},
				{
					"sampler":21,
					"target":{
						"node":10,
						"path":"translation"
					}
				},
				{
					"sampler":22,
					"target":{
						"node":10,
						"path":"rotation"
					}
				},
				{
					"sampler":23,
					"target":{
						"node":10,
						"path":"scale"
					}
				},
				{
					"sampler":24,
					"target":{
						"node":9,
						"path":"translation"
					}
				},
				{
					"sampler":25,
					"target":{
						"node":9,
						"path":"rotation"
					}
				},
				{
					"sampler":26,
					"target":{
						"node":9,
						"path":"scale"
					}
				},
				{
					"sampler":27,
					"target":{
						"node":12,
						"path":"translation"
					}
				},
				{
					"sampler":28,
					"target":{
						"node":12,
						"path":"rotation"
					}
				},
				{
					"sampler":29,
					"target":{
						"node":12,
						"path":"scale"
					}
				},
				{
					"sampler":30,
					"target":{
						"node":11,
						"path":"translation"
					}
				},
				{
					"sampler":31,
					"target":{
						"node":11,
						"path":"rotation"
					}
				},
				{
					"sampler":32,
					"target":{
						"node":11,
						"path":"scale"
					}
				},
				{
					"sampler":33,
					"target":{
						"node":19,
						"path":"translation"
					}
				},
				{
					"sampler":34,
					"target":{
						"node":19,
						"path":"rotation"
					}
				},
				{
					"sampler":35,
					"target":{
						"node":19,
						"path":"scale"
					}
				}
			],
			"name":"Armature.002Action",
			"samplers":[
				{
					"input":72,
					"interpolation":"STEP",
					"output":73
				},
				{
					"input":72,
					"interpolation":"STEP",
					"output":74
				},
				{
					"input":72,
					"interpolation":"STEP",
					"output":67
				},
				{
					"input":72,
					"interpolation":"STEP",
					"output":75
				},
				{
					"input":72,
					"interpolation":"STEP",
					"output":76
				},
				{
					"input":72,
					"interpolation":"STEP",
					"output":77
				},
				{
					"input":72,
					"interpolation":"STEP",
					"output":78
				},
				{
					"input":79,
					"interpolation":"LINEAR",
					"output":80
				},
				{
					"input":72,
					"interpolation":"STEP",
					"output":67
				},
				{
					"input":72,
					"interpolation":"STEP",
					"output":81
				},
				{
					"input":72,
					"interpolation":"STEP",
					"output":74
				},
				{
					"input":72,
					"interpolation":"STEP",
					"output":67
				},
				{
					"input":72,
					"interpolation":"STEP",
					"output":82
				},
				{
					"input":79,
					"interpolation":"LINEAR",
					"output":83
				},
				{
					"input":72,
					"interpolation":"STEP",
					"output":84
				},
				{
					"input":72,
					"interpolation":"STEP",
					"output":85
				},
				{
					"input":72,
					"interpolation":"STEP",
					"output":86
				},
				{
					"input":72,
					"interpolation":"STEP",
					"output":87
				},
				{
					"input":72,
					"interpolation":"STEP",
					"output":88
				},
				{
					"input":72,
					"interpolation":"STEP",
					"output":89
				},
				{
					"input":72,
					"interpolation":"STEP",
					"output":90
				},
				{
					"input":72,
					"interpolation":"STEP",
					"output":73
				},
				{
					"input":72,
					"interpolation":"STEP",
					"output":91
				},
				{
					"input":72,
					"interpolation":"STEP",
					"output":92
				},
				{
					"input":72,
					"interpolation":"STEP",
					"output":93
				},
				{
					"input":72,
					"interpolation":"STEP",
					"output":94
				},
				{
					"input":72,
					"interpolation":"STEP",
					"output":95
				},
				{
					"input":72,
					"interpolation":"STEP",
					"output":73
				},
				{
					"input":72,
					"interpolation":"STEP",
					"output":96
				},
				{
					"input":72,
					"interpolation":"STEP",
					"output":97
				},
				{
					"input":72,
					"interpolation":"STEP",
					"output":98
				},
				{
					"input":72,
					"interpolation":"STEP",
					"output":99
				},
				{
					"input":72,
					"interpolation":"STEP",
					"output":67
				},
				{
					"input":79,
					"interpolation":"LINEAR",
					"output":100
				},
				{
					"input":72,
					"interpolation":"STEP",
					"output":101
				},
				{
					"input":72,
					"interpolation":"STEP",
					"output":102
				}
			]
		},
		{
			"channels":[
				{
					"sampler":0,
					"target":{
						"node":8,
						"path":"translation"
					}
				},
				{
					"sampler":1,
					"target":{
						"node":8,
						"path":"rotation"
					}
				},
				{
					"sampler":2,
					"target":{
						"node":8,
						"path":"scale"
					}
				},
				{
					"sampler":3,
					"target":{
						"node":3,
						"path":"translation"
					}
				},
				{
					"sampler":4,
					"target":{
						"node":3,
						"path":"rotation"
					}
				},
				{
					"sampler":5,
					"target":{
						"node":3,
						"path":"scale"
					}
				},
				{
					"sampler":6,
					"target":{
						"node":2,
						"path":"translation"
					}
				},
				{
					"sampler":7,
					"target":{
						"node":2,
						"path":"rotation"
					}
				},
				{
					"sampler":8,
					"target":{
						"node":2,
						"path":"scale"
					}
				},
				{
					"sampler":9,
					"target":{
						"node":5,
						"path":"translation"
					}
				},
				{
					"sampler":10,
					"target":{
						"node":5,
						"path":"rotation"
					}
				},
				{
					"sampler":11,
					"target":{
						"node":5,
						"path":"scale"
					}
				},
				{
					"sampler":12,
					"target":{
						"node":4,
						"path":"translation"
					}
				},
				{
					"sampler":13,
					"target":{
						"node":4,
						"path":"rotation"
					}
				},
				{
					"sampler":14,
					"target":{
						"node":4,
						"path":"scale"
					}
				},
				{
					"sampler":15,
					"target":{
						"node":7,
						"path":"translation"
					}
				},
				{
					"sampler":16,
					"target":{
						"node":7,
						"path":"rotation"
					}
				},
				{
					"sampler":17,
					"target":{
						"node":7,
						"path":"scale"
					}
				},
				{
					"sampler":18,
					"target":{
						"node":6,
						"path":"translation"
					}
				},
				{
					"sampler":19,
					"target":{
						"node":6,
						"path":"rotation"
					}
				},
				{
					"sampler":20,
					"target":{
						"node":6,
						"path":"scale"
					}
				},
				{
					"sampler":21,
					"target":{
						"node":10,
						"path":"translation"
					}
				},
				{
					"sampler":22,
					"target":{
						"node":10,
						"path":"rotation"
					}
				},
				{
					"sampler":23,
					"target":{
						"node":10,
						"path":"scale"
					}
				},
				{
					"sampler":24,
					"target":{
						"node":9,
						"path":"translation"
					}
				},
				{
					"sampler":25,
					"target":{
						"node":9,
						"path":"rotation"
					}
				},
				{
					"sampler":26,
					"target":{
						"node":9,
						"path":"scale"
					}
				},
				{
					"sampler":27,
					"target":{
						"node":12,
						"path":"translation"
					}
				},
				{
					"sampler":28,
					"target":{
						"node":12,
						"path":"rotation"
					}
				},
				{
					"sampler":29,
					"target":{
						"node":12,
						"path":"scale"
					}
				},
				{
					"sampler":30,
					"target":{
						"node":11,
						"path":"translation"
					}
				},
				{
					"sampler":31,
					"target":{
						"node":11,
						"path":"rotation"
					}
				},
				{
					"sampler":32,
					"target":{
						"node":11,
						"path":"scale"
					}
				},
				{
					"sampler":33,
					"target":{
						"node":19,
						"path":"rotation"
					}
				},
				{
					"sampler":34,
					"target":{
						"node":19,
						"path":"scale"
					}
				},
				{
					"sampler":35,
					"target":{
						"node":19,
						"path":"translation"
					}
				}
			],
			"name":"Armature.002Action.001",
			"samplers":[
				{
					"input":103,
					"interpolation":"STEP",
					"output":73
				},
				{
					"input":103,
					"interpolation":"STEP",
					"output":74
				},
				{
					"input":103,
					"interpolation":"STEP",
					"output":67
				},
				{
					"input":103,
					"interpolation":"STEP",
					"output":75
				},
				{
					"input":103,
					"interpolation":"STEP",
					"output":76
				},
				{
					"input":103,
					"interpolation":"STEP",
					"output":77
				},
				{
					"input":103,
					"interpolation":"STEP",
					"output":78
				},
				{
					"input":104,
					"interpolation":"LINEAR",
					"output":105
				},
				{
					"input":103,
					"interpolation":"STEP",
					"output":67
				},
				{
					"input":103,
					"interpolation":"STEP",
					"output":81
				},
				{
					"input":103,
					"interpolation":"STEP",
					"output":74
				},
				{
					"input":103,
					"interpolation":"STEP",
					"output":67
				},
				{
					"input":103,
					"interpolation":"STEP",
					"output":82
				},
				{
					"input":104,
					"interpolation":"LINEAR",
					"output":106
				},
				{
					"input":103,
					"interpolation":"STEP",
					"output":84
				},
				{
					"input":103,
					"interpolation":"STEP",
					"output":85
				},
				{
					"input":103,
					"interpolation":"STEP",
					"output":86
				},
				{
					"input":103,
					"interpolation":"STEP",
					"output":87
				},
				{
					"input":103,
					"interpolation":"STEP",
					"output":88
				},
				{
					"input":103,
					"interpolation":"STEP",
					"output":89
				},
				{
					"input":103,
					"interpolation":"STEP",
					"output":90
				},
				{
					"input":103,
					"interpolation":"STEP",
					"output":73
				},
				{
					"input":103,
					"interpolation":"STEP",
					"output":91
				},
				{
					"input":103,
					"interpolation":"STEP",
					"output":92
				},
				{
					"input":103,
					"interpolation":"STEP",
					"output":93
				},
				{
					"input":103,
					"interpolation":"STEP",
					"output":94
				},
				{
					"input":103,
					"interpolation":"STEP",
					"output":95
				},
				{
					"input":103,
					"interpolation":"STEP",
					"output":73
				},
				{
					"input":103,
					"interpolation":"STEP",
					"output":96
				},
				{
					"input":103,
					"interpolation":"STEP",
					"output":97
				},
				{
					"input":103,
					"interpolation":"STEP",
					"output":98
				},
				{
					"input":103,
					"interpolation":"STEP",
					"output":99
				},
				{
					"input":103,
					"interpolation":"STEP",
					"output":67
				},
				{
					"input":103,
					"interpolation":"STEP",
					"output":101
				},
				{
					"input":103,
					"interpolation":"STEP",
					"output":102
				},
				{
					"input":103,
					"interpolation":"STEP",
					"output":107
				}
			]
		},
		{
			"channels":[
				{
					"sampler":0,
					"target":{
						"node":8,
						"path":"translation"
					}
				},
				{
					"sampler":1,
					"target":{
						"node":8,
						"path":"rotation"
					}
				},
				{
					"sampler":2,
					"target":{
						"node":8,
						"path":"scale"
					}
				},
				{
					"sampler":3,
					"target":{
						"node":3,
						"path":"translation"
					}
				},
				{
					"sampler":4,
					"target":{
						"node":3,
						"path":"rotation"
					}
				},
				{
					"sampler":5,
					"target":{
						"node":3,
						"path":"scale"
					}
				},
				{
					"sampler":6,
					"target":{
						"node":2,
						"path":"translation"
					}
				},
				{
					"sampler":7,
					"target":{
						"node":2,
						"path":"rotation"
					}
				},
				{
					"sampler":8,
					"target":{
						"node":2,
						"path":"scale"
					}
				},
				{
					"sampler":9,
					"target":{
						"node":5,
						"path":"translation"
					}
				},
				{
					"sampler":10,
					"target":{
						"node":5,
						"path":"rotation"
					}
				},
				{
					"sampler":11,
					"target":{
						"node":5,
						"path":"scale"
					}
				},
				{
					"sampler":12,
					"target":{
						"node":4,
						"path":"translation"
					}
				},
				{
					"sampler":13,
					"target":{
						"node":4,
						"path":"rotation"
					}
				},
				{
					"sampler":14,
					"target":{
						"node":4,
						"path":"scale"
					}
				},
				{
					"sampler":15,
					"target":{
						"node":7,
						"path":"translation"
					}
				},
				{
					"sampler":16,
					"target":{
						"node":7,
						"path":"rotation"
					}
				},
				{
					"sampler":17,
					"target":{
						"node":7,
						"path":"scale"
					}
				},
				{
					"sampler":18,
					"target":{
						"node":6,
						"path":"translation"
					}
				},
				{
					"sampler":19,
					"target":{
						"node":6,
						"path":"rotation"
					}
				},
				{
					"sampler":20,
					"target":{
						"node":6,
						"path":"scale"
					}
				},
				{
					"sampler":21,
					"target":{
						"node":10,
						"path":"translation"
					}
				},
				{
					"sampler":22,
					"target":{
						"node":10,
						"path":"rotation"
					}
				},
				{
					"sampler":23,
					"target":{
						"node":10,
						"path":"scale"
					}
				},
				{
					"sampler":24,
					"target":{
						"node":9,
						"path":"translation"
					}
				},
				{
					"sampler":25,
					"target":{
						"node":9,
						"path":"rotation"
					}
				},
				{
					"sampler":26,
					"target":{
						"node":9,
						"path":"scale"
					}
				},
				{
					"sampler":27,
					"target":{
						"node":12,
						"path":"translation"
					}
				},
				{
					"sampler":28,
					"target":{
						"node":12,
						"path":"rotation"
					}
				},
				{
					"sampler":29,
					"target":{
						"node":12,
						"path":"scale"
					}
				},
				{
					"sampler":30,
					"target":{
						"node":11,
						"path":"translation"
					}
				},
				{
					"sampler":31,
					"target":{
						"node":11,
						"path":"rotation"
					}
				},
				{
					"sampler":32,
					"target":{
						"node":11,
						"path":"scale"
					}
				},
				{
					"sampler":33,
					"target":{
						"node":19,
						"path":"rotation"
					}
				},
				{
					"sampler":34,
					"target":{
						"node":19,
						"path":"scale"
					}
				},
				{
					"sampler":35,
					"target":{
						"node":19,
						"path":"translation"
					}
				}
			],
			"name":"Armature.002Action.002",
			"samplers":[
				{
					"input":103,
					"interpolation":"STEP",
					"output":73
				},
				{
					"input":103,
					"interpolation":"STEP",
					"output":74
				},
				{
					"input":103,
					"interpolation":"STEP",
					"output":67
				},
				{
					"input":103,
					"interpolation":"STEP",
					"output":75
				},
				{
					"input":103,
					"interpolation":"STEP",
					"output":76
				},
				{
					"input":103,
					"interpolation":"STEP",
					"output":77
				},
				{
					"input":103,
					"interpolation":"STEP",
					"output":78
				},
				{
					"input":104,
					"interpolation":"LINEAR",
					"output":108
				},
				{
					"input":103,
					"interpolation":"STEP",
					"output":67
				},
				{
					"input":103,
					"interpolation":"STEP",
					"output":81
				},
				{
					"input":103,
					"interpolation":"STEP",
					"output":74
				},
				{
					"input":103,
					"interpolation":"STEP",
					"output":67
				},
				{
					"input":103,
					"interpolation":"STEP",
					"output":82
				},
				{
					"input":104,
					"interpolation":"LINEAR",
					"output":109
				},
				{
					"input":103,
					"interpolation":"STEP",
					"output":110
				},
				{
					"input":103,
					"interpolation":"STEP",
					"output":85
				},
				{
					"input":103,
					"interpolation":"STEP",
					"output":86
				},
				{
					"input":103,
					"interpolation":"STEP",
					"output":87
				},
				{
					"input":103,
					"interpolation":"STEP",
					"output":88
				},
				{
					"input":103,
					"interpolation":"STEP",
					"output":89
				},
				{
					"input":103,
					"interpolation":"STEP",
					"output":90
				},
				{
					"input":103,
					"interpolation":"STEP",
					"output":73
				},
				{
					"input":103,
					"interpolation":"STEP",
					"output":91
				},
				{
					"input":103,
					"interpolation":"STEP",
					"output":92
				},
				{
					"input":103,
					"interpolation":"STEP",
					"output":93
				},
				{
					"input":103,
					"interpolation":"STEP",
					"output":94
				},
				{
					"input":103,
					"interpolation":"STEP",
					"output":95
				},
				{
					"input":103,
					"interpolation":"STEP",
					"output":73
				},
				{
					"input":103,
					"interpolation":"STEP",
					"output":96
				},
				{
					"input":103,
					"interpolation":"STEP",
					"output":97
				},
				{
					"input":103,
					"interpolation":"STEP",
					"output":98
				},
				{
					"input":103,
					"interpolation":"STEP",
					"output":99
				},
				{
					"input":103,
					"interpolation":"STEP",
					"output":67
				},
				{
					"input":103,
					"interpolation":"STEP",
					"output":101
				},
				{
					"input":103,
					"interpolation":"STEP",
					"output":102
				},
				{
					"input":103,
					"interpolation":"STEP",
					"output":107
				}
			]
		},
		{
			"channels":[
				{
					"sampler":0,
					"target":{
						"node":8,
						"path":"translation"
					}
				},
				{
					"sampler":1,
					"target":{
						"node":8,
						"path":"rotation"
					}
				},
				{
					"sampler":2,
					"target":{
						"node":8,
						"path":"scale"
					}
				},
				{
					"sampler":3,
					"target":{
						"node":3,
						"path":"translation"
					}
				},
				{
					"sampler":4,
					"target":{
						"node":3,
						"path":"rotation"
					}
				},
				{
					"sampler":5,
					"target":{
						"node":3,
						"path":"scale"
					}
				},
				{
					"sampler":6,
					"target":{
						"node":2,
						"path":"translation"
					}
				},
				{
					"sampler":7,
					"target":{
						"node":2,
						"path":"rotation"
					}
				},
				{
					"sampler":8,
					"target":{
						"node":2,
						"path":"scale"
					}
				},
				{
					"sampler":9,
					"target":{
						"node":5,
						"path":"translation"
					}
				},
				{
					"sampler":10,
					"target":{
						"node":5,
						"path":"rotation"
					}
				},
				{
					"sampler":11,
					"target":{
						"node":5,
						"path":"scale"
					}
				},
				{
					"sampler":12,
					"target":{
						"node":4,
						"path":"translation"
					}
				},
				{
					"sampler":13,
					"target":{
						"node":4,
						"path":"rotation"
					}
				},
				{
					"sampler":14,
					"target":{
						"node":4,
						"path":"scale"
					}
				},
				{
					"sampler":15,
					"target":{
						"node":7,
						"path":"translation"
					}
				},
				{
					"sampler":16,
					"target":{
						"node":7,
						"path":"rotation"
					}
				},
				{
					"sampler":17,
					"target":{
						"node":7,
						"path":"scale"
					}
				},
				{
					"sampler":18,
					"target":{
						"node":6,
						"path":"translation"
					}
				},
				{
					"sampler":19,
					"target":{
						"node":6,
						"path":"rotation"
					}
				},
				{
					"sampler":20,
					"target":{
						"node":6,
						"path":"scale"
					}
				},
				{
					"sampler":21,
					"target":{
						"node":10,
						"path":"translation"
					}
				},
				{
					"sampler":22,
					"target":{
						"node":10,
						"path":"rotation"
					}
				},
				{
					"sampler":23,
					"target":{
						"node":10,
						"path":"scale"
					}
				},
				{
					"sampler":24,
					"target":{
						"node":9,
						"path":"translation"
					}
				},
				{
					"sampler":25,
					"target":{
						"node":9,
						"path":"rotation"
					}
				},
				{
					"sampler":26,
					"target":{
						"node":9,
						"path":"scale"
					}
				},
				{
					"sampler":27,
					"target":{
						"node":12,
						"path":"translation"
					}
				},
				{
					"sampler":28,
					"target":{
						"node":12,
						"path":"rotation"
					}
				},
				{
					"sampler":29,
					"target":{
						"node":12,
						"path":"scale"
					}
				},
				{
					"sampler":30,
					"target":{
						"node":11,
						"path":"translation"
					}
				},
				{
					"sampler":31,
					"target":{
						"node":11,
						"path":"rotation"
					}
				},
				{
					"sampler":32,
					"target":{
						"node":11,
						"path":"scale"
					}
				},
				{
					"sampler":33,
					"target":{
						"node":19,
						"path":"rotation"
					}
				},
				{
					"sampler":34,
					"target":{
						"node":19,
						"path":"scale"
					}
				},
				{
					"sampler":35,
					"target":{
						"node":19,
						"path":"translation"
					}
				}
			],
			"name":"Armature.002Action.003",
			"samplers":[
				{
					"input":103,
					"interpolation":"STEP",
					"output":73
				},
				{
					"input":103,
					"interpolation":"STEP",
					"output":74
				},
				{
					"input":103,
					"interpolation":"STEP",
					"output":67
				},
				{
					"input":103,
					"interpolation":"STEP",
					"output":75
				},
				{
					"input":103,
					"interpolation":"STEP",
					"output":76
				},
				{
					"input":103,
					"interpolation":"STEP",
					"output":77
				},
				{
					"input":103,
					"interpolation":"STEP",
					"output":78
				},
				{
					"input":104,
					"interpolation":"LINEAR",
					"output":105
				},
				{
					"input":103,
					"interpolation":"STEP",
					"output":67
				},
				{
					"input":103,
					"interpolation":"STEP",
					"output":81
				},
				{
					"input":103,
					"interpolation":"STEP",
					"output":74
				},
				{
					"input":103,
					"interpolation":"STEP",
					"output":67
				},
				{
					"input":103,
					"interpolation":"STEP",
					"output":82
				},
				{
					"input":104,
					"interpolation":"LINEAR",
					"output":106
				},
				{
					"input":103,
					"interpolation":"STEP",
					"output":84
				},
				{
					"input":103,
					"interpolation":"STEP",
					"output":85
				},
				{
					"input":103,
					"interpolation":"STEP",
					"output":86
				},
				{
					"input":103,
					"interpolation":"STEP",
					"output":87
				},
				{
					"input":103,
					"interpolation":"STEP",
					"output":88
				},
				{
					"input":103,
					"interpolation":"STEP",
					"output":89
				},
				{
					"input":103,
					"interpolation":"STEP",
					"output":90
				},
				{
					"input":103,
					"interpolation":"STEP",
					"output":73
				},
				{
					"input":103,
					"interpolation":"STEP",
					"output":91
				},
				{
					"input":103,
					"interpolation":"STEP",
					"output":92
				},
				{
					"input":103,
					"interpolation":"STEP",
					"output":93
				},
				{
					"input":103,
					"interpolation":"STEP",
					"output":94
				},
				{
					"input":103,
					"interpolation":"STEP",
					"output":95
				},
				{
					"input":103,
					"interpolation":"STEP",
					"output":73
				},
				{
					"input":103,
					"interpolation":"STEP",
					"output":96
				},
				{
					"input":103,
					"interpolation":"STEP",
					"output":97
				},
				{
					"input":103,
					"interpolation":"STEP",
					"output":98
				},
				{
					"input":103,
					"interpolation":"STEP",
					"output":99
				},
				{
					"input":103,
					"interpolation":"STEP",
					"output":67
				},
				{
					"input":103,
					"interpolation":"STEP",
					"output":101
				},
				{
					"input":103,
					"interpolation":"STEP",
					"output":102
				},
				{
					"input":103,
					"interpolation":"STEP",
					"output":107
				}
			]
		},
		{
			"channels":[
				{
					"sampler":0,
					"target":{
						"node":8,
						"path":"translation"
					}
				},
				{
					"sampler":1,
					"target":{
						"node":8,
						"path":"rotation"
					}
				},
				{
					"sampler":2,
					"target":{
						"node":8,
						"path":"scale"
					}
				},
				{
					"sampler":3,
					"target":{
						"node":3,
						"path":"translation"
					}
				},
				{
					"sampler":4,
					"target":{
						"node":3,
						"path":"rotation"
					}
				},
				{
					"sampler":5,
					"target":{
						"node":3,
						"path":"scale"
					}
				},
				{
					"sampler":6,
					"target":{
						"node":2,
						"path":"translation"
					}
				},
				{
					"sampler":7,
					"target":{
						"node":2,
						"path":"rotation"
					}
				},
				{
					"sampler":8,
					"target":{
						"node":2,
						"path":"scale"
					}
				},
				{
					"sampler":9,
					"target":{
						"node":5,
						"path":"translation"
					}
				},
				{
					"sampler":10,
					"target":{
						"node":5,
						"path":"rotation"
					}
				},
				{
					"sampler":11,
					"target":{
						"node":5,
						"path":"scale"
					}
				},
				{
					"sampler":12,
					"target":{
						"node":4,
						"path":"translation"
					}
				},
				{
					"sampler":13,
					"target":{
						"node":4,
						"path":"rotation"
					}
				},
				{
					"sampler":14,
					"target":{
						"node":4,
						"path":"scale"
					}
				},
				{
					"sampler":15,
					"target":{
						"node":7,
						"path":"translation"
					}
				},
				{
					"sampler":16,
					"target":{
						"node":7,
						"path":"rotation"
					}
				},
				{
					"sampler":17,
					"target":{
						"node":7,
						"path":"scale"
					}
				},
				{
					"sampler":18,
					"target":{
						"node":6,
						"path":"translation"
					}
				},
				{
					"sampler":19,
					"target":{
						"node":6,
						"path":"rotation"
					}
				},
				{
					"sampler":20,
					"target":{
						"node":6,
						"path":"scale"
					}
				},
				{
					"sampler":21,
					"target":{
						"node":10,
						"path":"translation"
					}
				},
				{
					"sampler":22,
					"target":{
						"node":10,
						"path":"rotation"
					}
				},
				{
					"sampler":23,
					"target":{
						"node":10,
						"path":"scale"
					}
				},
				{
					"sampler":24,
					"target":{
						"node":9,
						"path":"translation"
					}
				},
				{
					"sampler":25,
					"target":{
						"node":9,
						"path":"rotation"
					}
				},
				{
					"sampler":26,
					"target":{
						"node":9,
						"path":"scale"
					}
				},
				{
					"sampler":27,
					"target":{
						"node":12,
						"path":"translation"
					}
				},
				{
					"sampler":28,
					"target":{
						"node":12,
						"path":"rotation"
					}
				},
				{
					"sampler":29,
					"target":{
						"node":12,
						"path":"scale"
					}
				},
				{
					"sampler":30,
					"target":{
						"node":11,
						"path":"translation"
					}
				},
				{
					"sampler":31,
					"target":{
						"node":11,
						"path":"rotation"
					}
				},
				{
					"sampler":32,
					"target":{
						"node":11,
						"path":"scale"
					}
				},
				{
					"sampler":33,
					"target":{
						"node":19,
						"path":"translation"
					}
				},
				{
					"sampler":34,
					"target":{
						"node":19,
						"path":"rotation"
					}
				},
				{
					"sampler":35,
					"target":{
						"node":19,
						"path":"scale"
					}
				}
			],
			"name":"Armature.002Action.004",
			"samplers":[
				{
					"input":111,
					"interpolation":"STEP",
					"output":73
				},
				{
					"input":111,
					"interpolation":"STEP",
					"output":74
				},
				{
					"input":111,
					"interpolation":"STEP",
					"output":67
				},
				{
					"input":111,
					"interpolation":"STEP",
					"output":75
				},
				{
					"input":111,
					"interpolation":"STEP",
					"output":76
				},
				{
					"input":111,
					"interpolation":"STEP",
					"output":77
				},
				{
					"input":111,
					"interpolation":"STEP",
					"output":78
				},
				{
					"input":112,
					"interpolation":"LINEAR",
					"output":113
				},
				{
					"input":111,
					"interpolation":"STEP",
					"output":67
				},
				{
					"input":111,
					"interpolation":"STEP",
					"output":81
				},
				{
					"input":111,
					"interpolation":"STEP",
					"output":74
				},
				{
					"input":111,
					"interpolation":"STEP",
					"output":67
				},
				{
					"input":111,
					"interpolation":"STEP",
					"output":82
				},
				{
					"input":112,
					"interpolation":"LINEAR",
					"output":114
				},
				{
					"input":111,
					"interpolation":"STEP",
					"output":110
				},
				{
					"input":111,
					"interpolation":"STEP",
					"output":85
				},
				{
					"input":111,
					"interpolation":"STEP",
					"output":86
				},
				{
					"input":111,
					"interpolation":"STEP",
					"output":87
				},
				{
					"input":111,
					"interpolation":"STEP",
					"output":88
				},
				{
					"input":111,
					"interpolation":"STEP",
					"output":89
				},
				{
					"input":111,
					"interpolation":"STEP",
					"output":90
				},
				{
					"input":111,
					"interpolation":"STEP",
					"output":73
				},
				{
					"input":111,
					"interpolation":"STEP",
					"output":91
				},
				{
					"input":111,
					"interpolation":"STEP",
					"output":92
				},
				{
					"input":111,
					"interpolation":"STEP",
					"output":93
				},
				{
					"input":111,
					"interpolation":"STEP",
					"output":94
				},
				{
					"input":111,
					"interpolation":"STEP",
					"output":95
				},
				{
					"input":111,
					"interpolation":"STEP",
					"output":73
				},
				{
					"input":111,
					"interpolation":"STEP",
					"output":96
				},
				{
					"input":111,
					"interpolation":"STEP",
					"output":97
				},
				{
					"input":111,
					"interpolation":"STEP",
					"output":98
				},
				{
					"input":111,
					"interpolation":"STEP",
					"output":99
				},
				{
					"input":111,
					"interpolation":"STEP",
					"output":67
				},
				{
					"input":112,
					"interpolation":"LINEAR",
					"output":115
				},
				{
					"input":111,
					"interpolation":"STEP",
					"output":116
				},
				{
					"input":111,
					"interpolation":"STEP",
					"output":117
				}
			]
		},
		{
			"channels":[
				{
					"sampler":0,
					"target":{
						"node":13,
						"path":"translation"
					}
				},
				{
					"sampler":1,
					"target":{
						"node":13,
						"path":"rotation"
					}
				},
				{
					"sampler":2,
					"target":{
						"node":13,
						"path":"scale"
					}
				}
			],
			"name":"brwi.001Action.002",
			"samplers":[
				{
					"input":111,
					"interpolation":"STEP",
					"output":118
				},
				{
					"input":111,
					"interpolation":"STEP",
					"output":119
				},
				{
					"input":111,
					"interpolation":"STEP",
					"output":120
				}
			]
		},
		{
			"channels":[
				{
					"sampler":0,
					"target":{
						"node":14,
						"path":"translation"
					}
				},
				{
					"sampler":1,
					"target":{
						"node":14,
						"path":"rotation"
					}
				},
				{
					"sampler":2,
					"target":{
						"node":14,
						"path":"scale"
					}
				}
			],
			"name":"Cube.001Action.004",
			"samplers":[
				{
					"input":111,
					"interpolation":"STEP",
					"output":121
				},
				{
					"input":111,
					"interpolation":"STEP",
					"output":122
				},
				{
					"input":111,
					"interpolation":"STEP",
					"output":120
				}
			]
		},
		{
			"channels":[
				{
					"sampler":0,
					"target":{
						"node":15,
						"path":"translation"
					}
				},
				{
					"sampler":1,
					"target":{
						"node":15,
						"path":"rotation"
					}
				},
				{
					"sampler":2,
					"target":{
						"node":15,
						"path":"scale"
					}
				}
			],
			"name":"Sphere.003Action.002",
			"samplers":[
				{
					"input":111,
					"interpolation":"STEP",
					"output":121
				},
				{
					"input":111,
					"interpolation":"STEP",
					"output":122
				},
				{
					"input":111,
					"interpolation":"STEP",
					"output":120
				}
			]
		},
		{
			"channels":[
				{
					"sampler":0,
					"target":{
						"node":16,
						"path":"translation"
					}
				},
				{
					"sampler":1,
					"target":{
						"node":16,
						"path":"rotation"
					}
				},
				{
					"sampler":2,
					"target":{
						"node":16,
						"path":"scale"
					}
				}
			],
			"name":"Sphere.004Action.002",
			"samplers":[
				{
					"input":111,
					"interpolation":"STEP",
					"output":121
				},
				{
					"input":111,
					"interpolation":"STEP",
					"output":122
				},
				{
					"input":111,
					"interpolation":"STEP",
					"output":120
				}
			]
		},
		{
			"channels":[
				{
					"sampler":0,
					"target":{
						"node":17,
						"path":"translation"
					}
				},
				{
					"sampler":1,
					"target":{
						"node":17,
						"path":"rotation"
					}
				},
				{
					"sampler":2,
					"target":{
						"node":17,
						"path":"scale"
					}
				}
			],
			"name":"Sphere.005Action.002",
			"samplers":[
				{
					"input":111,
					"interpolation":"STEP",
					"output":121
				},
				{
					"input":111,
					"interpolation":"STEP",
					"output":122
				},
				{
					"input":111,
					"interpolation":"STEP",
					"output":120
				}
			]
		},
		{
			"channels":[
				{
					"sampler":0,
					"target":{
						"node":18,
						"path":"translation"
					}
				},
				{
					"sampler":1,
					"target":{
						"node":18,
						"path":"rotation"
					}
				},
				{
					"sampler":2,
					"target":{
						"node":18,
						"path":"scale"
					}
				}
			],
			"name":"usta.001Action.002",
			"samplers":[
				{
					"input":111,
					"interpolation":"STEP",
					"output":123
				},
				{
					"input":111,
					"interpolation":"STEP",
					"output":119
				},
				{
					"input":111,
					"interpolation":"STEP",
					"output":120
				}
			]
		}
	],
	"materials":[
		{
			"doubleSided":true,
			"name":"Material",
			"pbrMetallicRoughness":{
				"baseColorTexture":{
					"index":0
				},
				"metallicFactor":0,
				"roughnessFactor":0.5
			}
		},
		{
			"doubleSided":true,
			"name":"Material.012",
			"pbrMetallicRoughness":{
				"baseColorTexture":{
					"index":1
				},
				"metallicFactor":0,
				"roughnessFactor":0.5
			}
		},
		{
			"doubleSided":true,
			"name":"Material.002",
			"pbrMetallicRoughness":{
				"baseColorTexture":{
					"index":2
				},
				"metallicFactor":0,
				"roughnessFactor":0.5
			}
		},
		{
			"doubleSided":true,
			"name":"Material.011",
			"pbrMetallicRoughness":{
				"baseColorTexture":{
					"index":3
				},
				"metallicFactor":0,
				"roughnessFactor":0.5
			}
		},
		{
			"doubleSided":true,
			"name":"Material.009",
			"pbrMetallicRoughness":{
				"baseColorTexture":{
					"index":4
				},
				"metallicFactor":0,
				"roughnessFactor":0.5
			}
		},
		{
			"doubleSided":true,
			"emissiveFactor":[
				0.19999980926513672,
				0.19999980926513672,
				0.19999980926513672
			],
			"emissiveTexture":{
				"index":5
			},
			"name":"Material.013",
			"pbrMetallicRoughness":{
				"baseColorTexture":{
					"index":6
				},
				"metallicFactor":0,
				"roughnessFactor":0.5
			}
		},
		{
			"doubleSided":true,
			"emissiveFactor":[
				0.19999980926513672,
				0.19999980926513672,
				0.19999980926513672
			],
			"emissiveTexture":{
				"index":5,
				"texCoord":1
			},
			"name":"Material.013",
			"pbrMetallicRoughness":{
				"baseColorTexture":{
					"index":6
				},
				"metallicFactor":0,
				"roughnessFactor":0.5
			}
		}
	],
	"meshes":[
		{
			"name":"Cube.011",
			"primitives":[
				{
					"attributes":{
						"POSITION":0,
						"NORMAL":1,
						"TEXCOORD_0":2
					},
					"indices":3,
					"material":0
				}
			]
		},
		{
			"name":"Circle.007",
			"primitives":[
				{
					"attributes":{
						"POSITION":4,
						"NORMAL":5,
						"TEXCOORD_0":6
					},
					"indices":7,
					"material":1
				},
				{
					"attributes":{
						"POSITION":8,
						"NORMAL":9,
						"TEXCOORD_0":10
					},
					"indices":11,
					"material":2
				},
				{
					"attributes":{
						"POSITION":12,
						"NORMAL":13,
						"TEXCOORD_0":14
					},
					"indices":15,
					"material":3
				},
				{
					"attributes":{
						"POSITION":16,
						"NORMAL":17,
						"TEXCOORD_0":18
					},
					"indices":19,
					"material":0
				},
				{
					"attributes":{
						"POSITION":20,
						"NORMAL":21,
						"TEXCOORD_0":22
					},
					"indices":23,
					"material":4
				}
			]
		},
		{
			"name":"Sphere.012",
			"primitives":[
				{
					"attributes":{
						"POSITION":24,
						"NORMAL":25,
						"TEXCOORD_0":26,
						"JOINTS_0":27,
						"WEIGHTS_0":28
					},
					"indices":29,
					"material":5
				}
			]
		},
		{
			"name":"Cube.022",
			"primitives":[
				{
					"attributes":{
						"POSITION":31,
						"NORMAL":32,
						"TEXCOORD_0":33,
						"TEXCOORD_1":34,
						"JOINTS_0":35,
						"WEIGHTS_0":36
					},
					"indices":37,
					"material":6
				}
			]
		},
		{
			"name":"Sphere.011",
			"primitives":[
				{
					"attributes":{
						"POSITION":38,
						"NORMAL":39,
						"TEXCOORD_0":40,
						"JOINTS_0":41,
						"WEIGHTS_0":42
					},
					"indices":43,
					"material":5
				}
			]
		},
		{
			"name":"Sphere.010",
			"primitives":[
				{
					"attributes":{
						"POSITION":44,
						"NORMAL":45,
						"TEXCOORD_0":46,
						"JOINTS_0":47,
						"WEIGHTS_0":48
					},
					"indices":43,
					"material":5
				}
			]
		},
		{
			"name":"Sphere.009",
			"primitives":[
				{
					"attributes":{
						"POSITION":49,
						"NORMAL":50,
						"TEXCOORD_0":51,
						"JOINTS_0":52,
						"WEIGHTS_0":53
					},
					"indices":54,
					"material":5
				}
			]
		},
		{
			"name":"Cube.021",
			"primitives":[
				{
					"attributes":{
						"POSITION":55,
						"NORMAL":56,
						"TEXCOORD_0":57,
						"COLOR_0":58,
						"COLOR_1":59,
						"JOINTS_0":60,
						"WEIGHTS_0":61
					},
					"indices":62,
					"material":5
				}
			]
		}
	],
	"textures":[
		{
			"sampler":0,
			"source":0
		},
		{
			"sampler":0,
			"source":0
		},
		{
			"sampler":0,
			"source":0
		},
		{
			"sampler":0,
			"source":0
		},
		{
			"sampler":0,
			"source":0
		},
		{
			"sampler":1,
			"source":1
		},
		{
			"sampler":1,
			"source":0
		}
	],
	"images":[
		{
			"mimeType":"image/png",
			"name":"palette",
			"uri":"palette.png"
		},
		{
			"mimeType":"image/png",
			"name":"detal",
			"uri":"detal.png"
		}
	],
	"skins":[
		{
			"inverseBindMatrices":30,
			"joints":[
				8,
				3,
				2,
				5,
				4,
				7,
				6,
				10,
				9,
				12,
				11
			],
			"name":"Armature.002"
		}
	],
	"accessors":[
		{
			"bufferView":0,
			"componentType":5126,
			"count":32,
			"max":[
				1.5101624727249146,
				0.05726301670074463,
				1
			],
			"min":[
				1.1920928955078125e-07,
				-0.04273688793182373,
				-1
			],
			"type":"VEC3"
		},
		{
			"bufferView":1,
			"componentType":5126,
			"count":32,
			"type":"VEC3"
		},
		{
			"bufferView":2,
			"componentType":5126,
			"count":32,
			"type":"VEC2"
		},
		{
			"bufferView":3,
			"componentType":5123,
			"count":78,
			"type":"SCALAR"
		},
		{
			"bufferView":4,
			"componentType":5126,
			"count":2694,
			"max":[
				3.242464065551758,
				1.4244000911712646,
				1.1501190662384033
			],
			"min":[
				-3.0266036987304688,
				-1.9670610427856445,
				-1.1599829196929932
			],
			"type":"VEC3"
		},
		{
			"bufferView":5,
			"componentType":5126,
			"count":2694,
			"type":"VEC3"
		},
		{
			"bufferView":6,
			"componentType":5126,
			"count":2694,
			"type":"VEC2"
		},
		{
			"bufferView":7,
			"componentType":5123,
			"count":6825,
			"type":"SCALAR"
		},
		{
			"bufferView":8,
			"componentType":5126,
			"count":192,
			"max":[
				-2.9097611904144287,
				-0.679058313369751,
				0.6919175982475281
			],
			"min":[
				-3.100233316421509,
				-0.9448567628860474,
				-0.6919175982475281
			],
			"type":"VEC3"
		},
		{
			"bufferView":9,
			"componentType":5126,
			"count":192,
			"type":"VEC3"
		},
		{
			"bufferView":10,
			"componentType":5126,
			"count":192,
			"type":"VEC2"
		},
		{
			"bufferView":11,
			"componentType":5123,
			"count":648,
			"type":"SCALAR"
		},
		{
			"bufferView":12,
			"componentType":5126,
			"count":96,
			"max":[
				3.379767656326294,
				-0.679058313369751,
				0.3008921444416046
			],
			"min":[
				3.189295530319214,
				-0.9448567628860474,
				-0.3008921444416046
			],
			"type":"VEC3"
		},
		{
			"bufferView":13,
			"componentType":5126,
			"count":96,
			"type":"VEC3"
		},
		{
			"bufferView":14,
			"componentType":5126,
			"count":96,
			"type":"VEC2"
		},
		{
			"bufferView":15,
			"componentType":5123,
			"count":324,
			"type":"SCALAR"
		},
		{
			"bufferView":16,
			"componentType":5126,
			"count":64,
			"max":[
				3.293044090270996,
				1.4656115770339966,
				1
			],
			"min":[
				0.27271944284439087,
				-0.4343883991241455,
				-1
			],
			"type":"VEC3"
		},
		{
			"bufferView":17,
			"componentType":5126,
			"count":64,
			"type":"VEC3"
		},
		{
			"bufferView":18,
			"componentType":5126,
			"count":64,
			"type":"VEC2"
		},
		{
			"bufferView":19,
			"componentType":5123,
			"count":198,
			"type":"SCALAR"
		},
		{
			"bufferView":20,
			"componentType":5126,
			"count":32,
			"max":[
				1.7828818559646606,
				1.565611481666565,
				1
			],
			"min":[
				0.27271944284439087,
				1.4656115770339966,
				-1
			],
			"type":"VEC3"
		},
		{
			"bufferView":21,
			"componentType":5126,
			"count":32,
			"type":"VEC3"
		},
		{
			"bufferView":22,
			"componentType":5126,
			"count":32,
			"type":"VEC2"
		},
		{
			"bufferView":23,
			"componentType":5123,
			"count":78,
			"type":"SCALAR"
		},
		{
			"bufferView":24,
			"componentType":5126,
			"count":3968,
			"max":[
				2.6756114959716797,
				0.31677675247192383,
				-0.34294161200523376
			],
			"min":[
				2.3637936115264893,
				0.2784634828567505,
				-0.4003487229347229
			],
			"type":"VEC3"
		},
		{
			"bufferView":25,
			"componentType":5126,
			"count":3968,
			"type":"VEC3"
		},
		{
			"bufferView":26,
			"componentType":5126,
			"count":3968,
			"type":"VEC2"
		},
		{
			"bufferView":27,
			"componentType":5121,
			"count":3968,
			"type":"VEC4"
		},
		{
			"bufferView":28,
			"componentType":5126,
			"count":3968,
			"type":"VEC4"
		},
		{
			"bufferView":29,
			"componentType":5123,
			"count":5760,
			"type":"SCALAR"
		},
		{
			"bufferView":30,
			"componentType":5126,
			"count":11,
			"type":"MAT4"
		},
		{
			"bufferView":31,
			"componentType":5126,
			"count":1364,
			"max":[
				3.2308547496795654,
				1.358768105506897,
				0.46244192123413086
			],
			"min":[
				1.8360085487365723,
				-0.021579541265964508,
				-0.7947677373886108
			],
			"type":"VEC3"
		},
		{
			"bufferView":32,
			"componentType":5126,
			"count":1364,
			"type":"VEC3"
		},
		{
			"bufferView":33,
			"componentType":5126,
			"count":1364,
			"type":"VEC2"
		},
		{
			"bufferView":34,
			"componentType":5126,
			"count":1364,
			"type":"VEC2"
		},
		{
			"bufferView":35,
			"componentType":5121,
			"count":1364,
			"type":"VEC4"
		},
		{
			"bufferView":36,
			"componentType":5126,
			"count":1364,
			"type":"VEC4"
		},
		{
			"bufferView":37,
			"componentType":5123,
			"count":6240,
			"type":"SCALAR"
		},
		{
			"bufferView":38,
			"componentType":5126,
			"count":1192,
			"max":[
				3.0751919746398926,
				0.3140553832054138,
				-0.09505422413349152
			],
			"min":[
				1.9652233123779297,
				0.16928422451019287,
				-0.2335454225540161
			],
			"type":"VEC3"
		},
		{
			"bufferView":39,
			"componentType":5126,
			"count":1192,
			"type":"VEC3"
		},
		{
			"bufferView":40,
			"componentType":5126,
			"count":1192,
			"type":"VEC2"
		},
		{
			"bufferView":41,
			"componentType":5121,
			"count":1192,
			"type":"VEC4"
		},
		{
			"bufferView":42,
			"componentType":5126,
			"count":1192,
			"type":"VEC4"
		},
		{
			"bufferView":43,
			"componentType":5123,
			"count":5760,
			"type":"SCALAR"
		},
		{
			"bufferView":44,
			"componentType":5126,
			"count":1192,
			"max":[
				2.83322811126709,
				0.05430770665407181,
				-0.09924151003360748
			],
			"min":[
				2.2071871757507324,
				-0.2033197581768036,
				-0.22935813665390015
			],
			"type":"VEC3"
		},
		{
			"bufferView":45,
			"componentType":5126,
			"count":1192,
			"type":"VEC3"
		},
		{
			"bufferView":46,
			"componentType":5126,
			"count":1192,
			"type":"VEC2"
		},
		{
			"bufferView":47,
			"componentType":5121,
			"count":1192,
			"type":"VEC4"
		},
		{
			"bufferView":48,
			"componentType":5126,
			"count":1192,
			"type":"VEC4"
		},
		{
			"bufferView":49,
			"componentType":5126,
			"count":1208,
			"max":[
				2.659189462661743,
				0.266512930393219,
				-0.37354862689971924
			],
			"min":[
				2.40159010887146,
				0.2108340859413147,
				-0.4292275607585907
			],
			"type":"VEC3"
		},
		{
			"bufferView":50,
			"componentType":5126,
			"count":1208,
			"type":"VEC3"
		},
		{
			"bufferView":51,
			"componentType":5126,
			"count":1208,
			"type":"VEC2"
		},
		{
			"bufferView":52,
			"componentType":5121,
			"count":1208,
			"type":"VEC4"
		},
		{
			"bufferView":53,
			"componentType":5126,
			"count":1208,
			"type":"VEC4"
		},
		{
			"bufferView":54,
			"componentType":5123,
			"count":5760,
			"type":"SCALAR"
		},
		{
			"bufferView":55,
			"componentType":5126,
			"count":253,
			"max":[
				2.5650827884674072,
				0.20253875851631165,
				-0.4208333194255829
			],
			"min":[
				2.4862520694732666,
				0.1874735951423645,
				-0.4289511442184448
			],
			"type":"VEC3"
		},
		{
			"bufferView":56,
			"componentType":5126,
			"count":253,
			"type":"VEC3"
		},
		{
			"bufferView":57,
			"componentType":5126,
			"count":253,
			"type":"VEC2"
		},
		{
			"bufferView":58,
			"componentType":5121,
			"count":253,
			"normalized":true,
			"type":"VEC4"
		},
		{
			"bufferView":59,
			"componentType":5123,
			"count":253,
			"normalized":true,
			"type":"VEC4"
		},
		{
			"bufferView":60,
			"componentType":5121,
			"count":253,
			"type":"VEC4"
		},
		{
			"bufferView":61,
			"componentType":5126,
			"count":253,
			"type":"VEC4"
		},
		{
			"bufferView":62,
			"componentType":5123,
			"count":834,
			"type":"SCALAR"
		},
		{
			"bufferView":63,
			"componentType":5126,
			"count":2,
			"max":[
				6.041666666666667
			],
			"min":[
				0
			],
			"type":"SCALAR"
		},
		{
			"bufferView":64,
			"componentType":5126,
			"count":2,
			"type":"VEC3"
		},
		{
			"bufferView":65,
			"componentType":5126,
			"count":146,
			"max":[
				6.041666666666667
			],
			"min":[
				0
			],
			"type":"SCALAR"
		},
		{
			"bufferView":66,
			"componentType":5126,
			"count":146,
			"type":"VEC4"
		},
		{
			"bufferView":67,
			"componentType":5126,
			"count":2,
			"type":"VEC3"
		},
		{
			"bufferView":68,
			"componentType":5126,
			"count":1,
			"max":[
				2.0833333333333335
			],
			"min":[
				2.0833333333333335
			],
			"type":"SCALAR"
		},
		{
			"bufferView":69,
			"componentType":5126,
			"count":1,
			"type":"VEC3"
		},
		{
			"bufferView":70,
			"componentType":5126,
			"count":1,
			"type":"VEC4"
		},
		{
			"bufferView":71,
			"componentType":5126,
			"count":1,
			"type":"VEC3"
		},
		{
			"bufferView":72,
			"componentType":5126,
			"count":2,
			"max":[
				4.791666666666667
			],
			"min":[
				0.625
			],
			"type":"SCALAR"
		},
		{
			"bufferView":73,
			"componentType":5126,
			"count":2,
			"type":"VEC3"
		},
		{
			"bufferView":74,
			"componentType":5126,
			"count":2,
			"type":"VEC4"
		},
		{
			"bufferView":75,
			"componentType":5126,
			"count":2,
			"type":"VEC3"
		},
		{
			"bufferView":76,
			"componentType":5126,
			"count":2,
			"type":"VEC4"
		},
		{
			"bufferView":77,
			"componentType":5126,
			"count":2,
			"type":"VEC3"
		},
		{
			"bufferView":78,
			"componentType":5126,
			"count":2,
			"type":"VEC3"
		},
		{
			"bufferView":79,
			"componentType":5126,
			"count":101,
			"max":[
				4.791666666666667
			],
			"min":[
				0.625
			],
			"type":"SCALAR"
		},
		{
			"bufferView":80,
			"componentType":5126,
			"count":101,
			"type":"VEC4"
		},
		{
			"bufferView":81,
			"componentType":5126,
			"count":2,
			"type":"VEC3"
		},
		{
			"bufferView":82,
			"componentType":5126,
			"count":2,
			"type":"VEC3"
		},
		{
			"bufferView":83,
			"componentType":5126,
			"count":101,
			"type":"VEC4"
		},
		{
			"bufferView":84,
			"componentType":5126,
			"count":2,
			"type":"VEC3"
		},
		{
			"bufferView":85,
			"componentType":5126,
			"count":2,
			"type":"VEC3"
		},
		{
			"bufferView":86,
			"componentType":5126,
			"count":2,
			"type":"VEC4"
		},
		{
			"bufferView":87,
			"componentType":5126,
			"count":2,
			"type":"VEC3"
		},
		{
			"bufferView":88,
			"componentType":5126,
			"count":2,
			"type":"VEC3"
		},
		{
			"bufferView":89,
			"componentType":5126,
			"count":2,
			"type":"VEC4"
		},
		{
			"bufferView":90,
			"componentType":5126,
			"count":2,
			"type":"VEC3"
		},
		{
			"bufferView":91,
			"componentType":5126,
			"count":2,
			"type":"VEC4"
		},
		{
			"bufferView":92,
			"componentType":5126,
			"count":2,
			"type":"VEC3"
		},
		{
			"bufferView":93,
			"componentType":5126,
			"count":2,
			"type":"VEC3"
		},
		{
			"bufferView":94,
			"componentType":5126,
			"count":2,
			"type":"VEC4"
		},
		{
			"bufferView":95,
			"componentType":5126,
			"count":2,
			"type":"VEC3"
		},
		{
			"bufferView":96,
			"componentType":5126,
			"count":2,
			"type":"VEC4"
		},
		{
			"bufferView":97,
			"componentType":5126,
			"count":2,
			"type":"VEC3"
		},
		{
			"bufferView":98,
			"componentType":5126,
			"count":2,
			"type":"VEC3"
		},
		{
			"bufferView":99,
			"componentType":5126,
			"count":2,
			"type":"VEC4"
		},
		{
			"bufferView":100,
			"componentType":5126,
			"count":101,
			"type":"VEC3"
		},
		{
			"bufferView":101,
			"componentType":5126,
			"count":2,
			"type":"VEC4"
		},
		{
			"bufferView":102,
			"componentType":5126,
			"count":2,
			"type":"VEC3"
		},
		{
			"bufferView":103,
			"componentType":5126,
			"count":2,
			"max":[
				1.875
			],
			"min":[
				0
			],
			"type":"SCALAR"
		},
		{
			"bufferView":104,
			"componentType":5126,
			"count":46,
			"max":[
				1.875
			],
			"min":[
				0
			],
			"type":"SCALAR"
		},
		{
			"bufferView":105,
			"componentType":5126,
			"count":46,
			"type":"VEC4"
		},
		{
			"bufferView":106,
			"componentType":5126,
			"count":46,
			"type":"VEC4"
		},
		{
			"bufferView":107,
			"componentType":5126,
			"count":2,
			"type":"VEC3"
		},
		{
			"bufferView":108,
			"componentType":5126,
			"count":46,
			"type":"VEC4"
		},
		{
			"bufferView":109,
			"componentType":5126,
			"count":46,
			"type":"VEC4"
		},
		{
			"bufferView":110,
			"componentType":5126,
			"count":2,
			"type":"VEC3"
		},
		{
			"bufferView":111,
			"componentType":5126,
			"count":2,
			"max":[
				5.416666666666667
			],
			"min":[
				0.625
			],
			"type":"SCALAR"
		},
		{
			"bufferView":112,
			"componentType":5126,
			"count":116,
			"max":[
				5.416666666666667
			],
			"min":[
				0.625
			],
			"type":"SCALAR"
		},
		{
			"bufferView":113,
			"componentType":5126,
			"count":116,
			"type":"VEC4"
		},
		{
			"bufferView":114,
			"componentType":5126,
			"count":116,
			"type":"VEC4"
		},
		{
			"bufferView":115,
			"componentType":5126,
			"count":116,
			"type":"VEC3"
		},
		{
			"bufferView":116,
			"componentType":5126,
			"count":2,
			"type":"VEC4"
		},
		{
			"bufferView":117,
			"componentType":5126,
			"count":2,
			"type":"VEC3"
		},
		{
			"bufferView":118,
			"componentType":5126,
			"count":2,
			"type":"VEC3"
		},
		{
			"bufferView":119,
			"componentType":5126,
			"count":2,
			"type":"VEC4"
		},
		{
			"bufferView":120,
			"componentType":5126,
			"count":2,
			"type":"VEC3"
		},
		{
			"bufferView":121,
			"componentType":5126,
			"count":2,
			"type":"VEC3"
		},
		{
			"bufferView":122,
			"componentType":5126,
			"count":2,
			"type":"VEC4"
		},
		{
			"bufferView":123,
			"componentType":5126,
			"count":2,
			"type":"VEC3"
		}
	],
	"bufferViews":[
		{
			"buffer":0,
			"byteLength":384,
			"byteOffset":0,
			"target":34962
		},
		{
			"buffer":0,
			"byteLength":384,
			"byteOffset":384,
			"target":34962
		},
		{
			"buffer":0,
			"byteLength":256,
			"byteOffset":768,
			"target":34962
		},
		{
			"buffer":0,
			"byteLength":156,
			"byteOffset":1024,
			"target":34963
		},
		{
			"buffer":0,
			"byteLength":32328,
			"byteOffset":1180,
			"target":34962
		},
		{
			"buffer":0,
			"byteLength":32328,
			"byteOffset":33508,
			"target":34962
		},
		{
			"buffer":0,
			"byteLength":21552,
			"byteOffset":65836,
			"target":34962
		},
		{
			"buffer":0,
			"byteLength":13650,
			"byteOffset":87388,
			"target":34963
		},
		{
			"buffer":0,
			"byteLength":2304,
			"byteOffset":101040,
			"target":34962
		},
		{
			"buffer":0,
			"byteLength":2304,
			"byteOffset":103344,
			"target":34962
		},
		{
			"buffer":0,
			"byteLength":1536,
			"byteOffset":105648,
			"target":34962
		},
		{
			"buffer":0,
			"byteLength":1296,
			"byteOffset":107184,
			"target":34963
		},
		{
			"buffer":0,
			"byteLength":1152,
			"byteOffset":108480,
			"target":34962
		},
		{
			"buffer":0,
			"byteLength":1152,
			"byteOffset":109632,
			"target":34962
		},
		{
			"buffer":0,
			"byteLength":768,
			"byteOffset":110784,
			"target":34962
		},
		{
			"buffer":0,
			"byteLength":648,
			"byteOffset":111552,
			"target":34963
		},
		{
			"buffer":0,
			"byteLength":768,
			"byteOffset":112200,
			"target":34962
		},
		{
			"buffer":0,
			"byteLength":768,
			"byteOffset":112968,
			"target":34962
		},
		{
			"buffer":0,
			"byteLength":512,
			"byteOffset":113736,
			"target":34962
		},
		{
			"buffer":0,
			"byteLength":396,
			"byteOffset":114248,
			"target":34963
		},
		{
			"buffer":0,
			"byteLength":384,
			"byteOffset":114644,
			"target":34962
		},
		{
			"buffer":0,
			"byteLength":384,
			"byteOffset":115028,
			"target":34962
		},
		{
			"buffer":0,
			"byteLength":256,
			"byteOffset":115412,
			"target":34962
		},
		{
			"buffer":0,
			"byteLength":156,
			"byteOffset":115668,
			"target":34963
		},
		{
			"buffer":0,
			"byteLength":47616,
			"byteOffset":115824,
			"target":34962
		},
		{
			"buffer":0,
			"byteLength":47616,
			"byteOffset":163440,
			"target":34962
		},
		{
			"buffer":0,
			"byteLength":31744,
			"byteOffset":211056,
			"target":34962
		},
		{
			"buffer":0,
			"byteLength":15872,
			"byteOffset":242800,
			"target":34962
		},
		{
			"buffer":0,
			"byteLength":63488,
			"byteOffset":258672,
			"target":34962
		},
		{
			"buffer":0,
			"byteLength":11520,
			"byteOffset":322160,
			"target":34963
		},
		{
			"buffer":0,
			"byteLength":704,
			"byteOffset":333680
		},
		{
			"buffer":0,
			"byteLength":16368,
			"byteOffset":334384,
			"target":34962
		},
		{
			"buffer":0,
			"byteLength":16368,
			"byteOffset":350752,
			"target":34962
		},
		{
			"buffer":0,
			"byteLength":10912,
			"byteOffset":367120,
			"target":34962
		},
		{
			"buffer":0,
			"byteLength":10912,
			"byteOffset":378032,
			"target":34962
		},
		{
			"buffer":0,
			"byteLength":5456,
			"byteOffset":388944,
			"target":34962
		},
		{
			"buffer":0,
			"byteLength":21824,
			"byteOffset":394400,
			"target":34962
		},
		{
			"buffer":0,
			"byteLength":12480,
			"byteOffset":416224,
			"target":34963
		},
		{
			"buffer":0,
			"byteLength":14304,
			"byteOffset":428704,
			"target":34962
		},
		{
			"buffer":0,
			"byteLength":14304,
			"byteOffset":443008,
			"target":34962
		},
		{
			"buffer":0,
			"byteLength":9536,
			"byteOffset":457312,
			"target":34962
		},
		{
			"buffer":0,
			"byteLength":4768,
			"byteOffset":466848,
			"target":34962
		},
		{
			"buffer":0,
			"byteLength":19072,
			"byteOffset":471616,
			"target":34962
		},
		{
			"buffer":0,
			"byteLength":11520,
			"byteOffset":490688,
			"target":34963
		},
		{
			"buffer":0,
			"byteLength":14304,
			"byteOffset":502208,
			"target":34962
		},
		{
			"buffer":0,
			"byteLength":14304,
			"byteOffset":516512,
			"target":34962
		},
		{
			"buffer":0,
			"byteLength":9536,
			"byteOffset":530816,
			"target":34962
		},
		{
			"buffer":0,
			"byteLength":4768,
			"byteOffset":540352,
			"target":34962
		},
		{
			"buffer":0,
			"byteLength":19072,
			"byteOffset":545120,
			"target":34962
		},
		{
			"buffer":0,
			"byteLength":14496,
			"byteOffset":564192,
			"target":34962
		},
		{
			"buffer":0,
			"byteLength":14496,
			"byteOffset":578688,
			"target":34962
		},
		{
			"buffer":0,
			"byteLength":9664,
			"byteOffset":593184,
			"target":34962
		},
		{
			"buffer":0,
			"byteLength":4832,
			"byteOffset":602848,
			"target":34962
		},
		{
			"buffer":0,
			"byteLength":19328,
			"byteOffset":607680,
			"target":34962
		},
		{
			"buffer":0,
			"byteLength":11520,
			"byteOffset":627008,
			"target":34963
		},
		{
			"buffer":0,
			"byteLength":3036,
			"byteOffset":638528,
			"target":34962
		},
		{
			"buffer":0,
			"byteLength":3036,
			"byteOffset":641564,
			"target":34962
		},
		{
			"buffer":0,
			"byteLength":2024,
			"byteOffset":644600,
			"target":34962
		},
		{
			"buffer":0,
			"byteLength":1012,
			"byteOffset":646624,
			"target":34962
		},
		{
			"buffer":0,
			"byteLength":2024,
			"byteOffset":647636,
			"target":34962
		},
		{
			"buffer":0,
			"byteLength":1012,
			"byteOffset":649660,
			"target":34962
		},
		{
			"buffer":0,
			"byteLength":4048,
			"byteOffset":650672,
			"target":34962
		},
		{
			"buffer":0,
			"byteLength":1668,
			"byteOffset":654720,
			"target":34963
		},
		{
			"buffer":0,
			"byteLength":8,
			"byteOffset":656388
		},
		{
			"buffer":0,
			"byteLength":24,
			"byteOffset":656396
		},
		{
			"buffer":0,
			"byteLength":584,
			"byteOffset":656420
		},
		{
			"buffer":0,
			"byteLength":2336,
			"byteOffset":657004
		},
		{
			"buffer":0,
			"byteLength":24,
			"byteOffset":659340
		},
		{
			"buffer":0,
			"byteLength":4,
			"byteOffset":659364
		},
		{
			"buffer":0,
			"byteLength":12,
			"byteOffset":659368
		},
		{
			"buffer":0,
			"byteLength":16,
			"byteOffset":659380
		},
		{
			"buffer":0,
			"byteLength":12,
			"byteOffset":659396
		},
		{
			"buffer":0,
			"byteLength":8,
			"byteOffset":659408
		},
		{
			"buffer":0,
			"byteLength":24,
			"byteOffset":659416
		},
		{
			"buffer":0,
			"byteLength":32,
			"byteOffset":659440
		},
		{
			"buffer":0,
			"byteLength":24,
			"byteOffset":659472
		},
		{
			"buffer":0,
			"byteLength":32,
			"byteOffset":659496
		},
		{
			"buffer":0,
			"byteLength":24,
			"byteOffset":659528
		},
		{
			"buffer":0,
			"byteLength":24,
			"byteOffset":659552
		},
		{
			"buffer":0,
			"byteLength":404,
			"byteOffset":659576
		},
		{
			"buffer":0,
			"byteLength":1616,
			"byteOffset":659980
		},
		{
			"buffer":0,
			"byteLength":24,
			"byteOffset":661596
		},
		{
			"buffer":0,
			"byteLength":24,
			"byteOffset":661620
		},
		{
			"buffer":0,
			"byteLength":1616,
			"byteOffset":661644
		},
		{
			"buffer":0,
			"byteLength":24,
			"byteOffset":663260
		},
		{
			"buffer":0,
			"byteLength":24,
			"byteOffset":663284
		},
		{
			"buffer":0,
			"byteLength":32,
			"byteOffset":663308
		},
		{
			"buffer":0,
			"byteLength":24,
			"byteOffset":663340
		},
		{
			"buffer":0,
			"byteLength":24,
			"byteOffset":663364
		},
		{
			"buffer":0,
			"byteLength":32,
			"byteOffset":663388
		},
		{
			"buffer":0,
			"byteLength":24,
			"byteOffset":663420
		},
		{
			"buffer":0,
			"byteLength":32,
			"byteOffset":663444
		},
		{
			"buffer":0,
			"byteLength":24,
			"byteOffset":663476
		},
		{
			"buffer":0,
			"byteLength":24,
			"byteOffset":663500
		},
		{
			"buffer":0,
			"byteLength":32,
			"byteOffset":663524
		},
		{
			"buffer":0,
			"byteLength":24,
			"byteOffset":663556
		},
		{
			"buffer":0,
			"byteLength":32,
			"byteOffset":663580
		},
		{
			"buffer":0,
			"byteLength":24,
			"byteOffset":663612
		},
		{
			"buffer":0,
			"byteLength":24,
			"byteOffset":663636
		},
		{
			"buffer":0,
			"byteLength":32,
			"byteOffset":663660
		},
		{
			"buffer":0,
			"byteLength":1212,
			"byteOffset":663692
		},
		{
			"buffer":0,
			"byteLength":32,
			"byteOffset":664904
		},
		{
			"buffer":0,
			"byteLength":24,
			"byteOffset":664936
		},
		{
			"buffer":0,
			"byteLength":8,
			"byteOffset":664960
		},
		{
			"buffer":0,
			"byteLength":184,
			"byteOffset":664968
		},
		{
			"buffer":0,
			"byteLength":736,
			"byteOffset":665152
		},
		{
			"buffer":0,
			"byteLength":736,
			"byteOffset":665888
		},
		{
			"buffer":0,
			"byteLength":24,
			"byteOffset":666624
		},
		{
			"buffer":0,
			"byteLength":736,
			"byteOffset":666648
		},
		{
			"buffer":0,
			"byteLength":736,
			"byteOffset":667384
		},
		{
			"buffer":0,
			"byteLength":24,
			"byteOffset":668120
		},
		{
			"buffer":0,
			"byteLength":8,
			"byteOffset":668144
		},
		{
			"buffer":0,
			"byteLength":464,
			"byteOffset":668152
		},
		{
			"buffer":0,
			"byteLength":1856,
			"byteOffset":668616
		},
		{
			"buffer":0,
			"byteLength":1856,
			"byteOffset":670472
		},
		{
			"buffer":0,
			"byteLength":1392,
			"byteOffset":672328
		},
		{
			"buffer":0,
			"byteLength":32,
			"byteOffset":673720
		},
		{
			"buffer":0,
			"byteLength":24,
			"byteOffset":673752
		},
		{
			"buffer":0,
			"byteLength":24,
			"byteOffset":673776
		},
		{
			"buffer":0,
			"byteLength":32,
			"byteOffset":673800
		},
		{
			"buffer":0,
			"byteLength":24,
			"byteOffset":673832
		},
		{
			"buffer":0,
			"byteLength":24,
			"byteOffset":673856
		},
		{
			"buffer":0,
			"byteLength":32,
			"byteOffset":673880
		},
		{
			"buffer":0,
			"byteLength":24,
			"byteOffset":673912
		}
	],
	"samplers":[
		{
			"magFilter":9728,
			"minFilter":9984
		},
		{
			"magFilter":9729,
			"minFilter":9987
		}
	],
	"buffers":[
		{
			"byteLength":673936,
			"uri":"dostawczak-open.bin"
		}
	]
}
