{
	"asset":{
		"generator":"Khronos glTF Blender I/O v5.1.19",
		"version":"2.0"
	},
	"scene":0,
	"scenes":[
		{
			"name":"Scene",
			"nodes":[
				0
			]
		}
	],
	"nodes":[
		{
			"mesh":0,
			"name":"Circle.007"
		}
	],
	"materials":[
		{
			"doubleSided":true,
			"name":"Material.010",
			"pbrMetallicRoughness":{
				"baseColorTexture":{
					"index":0
				},
				"metallicFactor":0,
				"roughnessFactor":0.5
			}
		},
		{
			"doubleSided":true,
			"name":"Material.013",
			"pbrMetallicRoughness":{
				"baseColorTexture":{
					"index":1
				},
				"metallicFactor":0,
				"roughnessFactor":0.5
			}
		},
		{
			"doubleSided":true,
			"name":"Material.014",
			"pbrMetallicRoughness":{
				"baseColorTexture":{
					"index":2
				},
				"metallicFactor":0,
				"roughnessFactor":0.5
			}
		},
		{
			"doubleSided":true,
			"name":"Material.008",
			"pbrMetallicRoughness":{
				"baseColorTexture":{
					"index":3
				},
				"metallicFactor":0,
				"roughnessFactor":0.5
			}
		},
		{
			"doubleSided":true,
			"name":"Material.015",
			"pbrMetallicRoughness":{
				"baseColorTexture":{
					"index":4
				},
				"metallicFactor":0,
				"roughnessFactor":0.5
			}
		}
	],
	"meshes":[
		{
			"name":"Circle.002",
			"primitives":[
				{
					"attributes":{
						"POSITION":0,
						"NORMAL":1,
						"TEXCOORD_0":2
					},
					"indices":3,
					"material":0
				},
				{
					"attributes":{
						"POSITION":4,
						"NORMAL":5,
						"TEXCOORD_0":6
					},
					"indices":7,
					"material":1
				},
				{
					"attributes":{
						"POSITION":8,
						"NORMAL":9,
						"TEXCOORD_0":10
					},
					"indices":11,
					"material":2
				},
				{
					"attributes":{
						"POSITION":12,
						"NORMAL":13,
						"TEXCOORD_0":14
					},
					"indices":15,
					"material":3
				},
				{
					"attributes":{
						"POSITION":16,
						"NORMAL":17,
						"TEXCOORD_0":18
					},
					"indices":19,
					"material":4
				}
			]
		}
	],
	"textures":[
		{
			"sampler":0,
			"source":0
		},
		{
			"sampler":0,
			"source":0
		},
		{
			"sampler":0,
			"source":0
		},
		{
			"sampler":0,
			"source":0
		},
		{
			"sampler":0,
			"source":0
		}
	],
	"images":[
		{
			"mimeType":"image/png",
			"name":"palette",
			"uri":"palette.png"
		}
	],
	"accessors":[
		{
			"bufferView":0,
			"componentType":5126,
			"count":2774,
			"max":[
				3.242464065551758,
				1.4244000911712646,
				1.1501190662384033
			],
			"min":[
				-3.0266036987304688,
				-1.9670610427856445,
				-1.1599829196929932
			],
			"type":"VEC3"
		},
		{
			"bufferView":1,
			"componentType":5126,
			"count":2774,
			"type":"VEC3"
		},
		{
			"bufferView":2,
			"componentType":5126,
			"count":2774,
			"type":"VEC2"
		},
		{
			"bufferView":3,
			"componentType":5123,
			"count":6825,
			"type":"SCALAR"
		},
		{
			"bufferView":4,
			"componentType":5126,
			"count":192,
			"max":[
				-2.9097611904144287,
				-0.679058313369751,
				0.6919175982475281
			],
			"min":[
				-3.100233316421509,
				-0.9448567628860474,
				-0.6919175982475281
			],
			"type":"VEC3"
		},
		{
			"bufferView":5,
			"componentType":5126,
			"count":192,
			"type":"VEC3"
		},
		{
			"bufferView":6,
			"componentType":5126,
			"count":192,
			"type":"VEC2"
		},
		{
			"bufferView":7,
			"componentType":5123,
			"count":648,
			"type":"SCALAR"
		},
		{
			"bufferView":8,
			"componentType":5126,
			"count":96,
			"max":[
				3.379767656326294,
				-0.679058313369751,
				0.3008921444416046
			],
			"min":[
				3.189295530319214,
				-0.9448567628860474,
				-0.3008921444416046
			],
			"type":"VEC3"
		},
		{
			"bufferView":9,
			"componentType":5126,
			"count":96,
			"type":"VEC3"
		},
		{
			"bufferView":10,
			"componentType":5126,
			"count":96,
			"type":"VEC2"
		},
		{
			"bufferView":11,
			"componentType":5123,
			"count":324,
			"type":"SCALAR"
		},
		{
			"bufferView":12,
			"componentType":5126,
			"count":64,
			"max":[
				3.293044090270996,
				1.4656115770339966,
				1
			],
			"min":[
				0.27271944284439087,
				-0.4343883991241455,
				-1
			],
			"type":"VEC3"
		},
		{
			"bufferView":13,
			"componentType":5126,
			"count":64,
			"type":"VEC3"
		},
		{
			"bufferView":14,
			"componentType":5126,
			"count":64,
			"type":"VEC2"
		},
		{
			"bufferView":15,
			"componentType":5123,
			"count":198,
			"type":"SCALAR"
		},
		{
			"bufferView":16,
			"componentType":5126,
			"count":32,
			"max":[
				1.7828818559646606,
				1.565611481666565,
				1
			],
			"min":[
				0.27271944284439087,
				1.4656115770339966,
				-1
			],
			"type":"VEC3"
		},
		{
			"bufferView":17,
			"componentType":5126,
			"count":32,
			"type":"VEC3"
		},
		{
			"bufferView":18,
			"componentType":5126,
			"count":32,
			"type":"VEC2"
		},
		{
			"bufferView":19,
			"componentType":5123,
			"count":78,
			"type":"SCALAR"
		}
	],
	"bufferViews":[
		{
			"buffer":0,
			"byteLength":33288,
			"byteOffset":0,
			"target":34962
		},
		{
			"buffer":0,
			"byteLength":33288,
			"byteOffset":33288,
			"target":34962
		},
		{
			"buffer":0,
			"byteLength":22192,
			"byteOffset":66576,
			"target":34962
		},
		{
			"buffer":0,
			"byteLength":13650,
			"byteOffset":88768,
			"target":34963
		},
		{
			"buffer":0,
			"byteLength":2304,
			"byteOffset":102420,
			"target":34962
		},
		{
			"buffer":0,
			"byteLength":2304,
			"byteOffset":104724,
			"target":34962
		},
		{
			"buffer":0,
			"byteLength":1536,
			"byteOffset":107028,
			"target":34962
		},
		{
			"buffer":0,
			"byteLength":1296,
			"byteOffset":108564,
			"target":34963
		},
		{
			"buffer":0,
			"byteLength":1152,
			"byteOffset":109860,
			"target":34962
		},
		{
			"buffer":0,
			"byteLength":1152,
			"byteOffset":111012,
			"target":34962
		},
		{
			"buffer":0,
			"byteLength":768,
			"byteOffset":112164,
			"target":34962
		},
		{
			"buffer":0,
			"byteLength":648,
			"byteOffset":112932,
			"target":34963
		},
		{
			"buffer":0,
			"byteLength":768,
			"byteOffset":113580,
			"target":34962
		},
		{
			"buffer":0,
			"byteLength":768,
			"byteOffset":114348,
			"target":34962
		},
		{
			"buffer":0,
			"byteLength":512,
			"byteOffset":115116,
			"target":34962
		},
		{
			"buffer":0,
			"byteLength":396,
			"byteOffset":115628,
			"target":34963
		},
		{
			"buffer":0,
			"byteLength":384,
			"byteOffset":116024,
			"target":34962
		},
		{
			"buffer":0,
			"byteLength":384,
			"byteOffset":116408,
			"target":34962
		},
		{
			"buffer":0,
			"byteLength":256,
			"byteOffset":116792,
			"target":34962
		},
		{
			"buffer":0,
			"byteLength":156,
			"byteOffset":117048,
			"target":34963
		}
	],
	"samplers":[
		{
			"magFilter":9728,
			"minFilter":9984
		}
	],
	"buffers":[
		{
			"byteLength":117204,
			"uri":"dostawczak-otwarty.bin"
		}
	]
}
