{
	"asset":{
		"generator":"Khronos glTF Blender I/O v5.1.19",
		"version":"2.0"
	},
	"scene":0,
	"scenes":[
		{
			"name":"Scene",
			"nodes":[
				0,
				1,
				2,
				3,
				4,
				5,
				6,
				7,
				8,
				26,
				27
			]
		}
	],
	"nodes":[
		{
			"mesh":0,
			"name":"Cube.001"
		},
		{
			"mesh":1,
			"name":"Cube.002"
		},
		{
			"mesh":2,
			"name":"Cube.003"
		},
		{
			"mesh":3,
			"name":"Circle"
		},
		{
			"mesh":4,
			"name":"Circle.001"
		},
		{
			"mesh":5,
			"name":"Circle.002"
		},
		{
			"mesh":6,
			"name":"Circle.003"
		},
		{
			"mesh":7,
			"name":"Cube.004"
		},
		{
			"mesh":8,
			"name":"Cube.005"
		},
		{
			"name":"reka-p",
			"rotation":[
				1.4781031953958745e-10,
				-8.053022781950858e-08,
				0.004014520440250635,
				0.9999919533729553
			],
			"scale":[
				1,
				0.9999998807907104,
				0.9999998807907104
			],
			"translation":[
				-1.2526476211860427e-07,
				0.3771646022796631,
				-1.220001877300092e-08
			]
		},
		{
			"children":[
				9
			],
			"name":"klatka-p",
			"rotation":[
				1.54543009500685e-08,
				1.5454322266350573e-08,
				-0.7071067690849304,
				0.7071067690849304
			],
			"scale":[
				0.9999999403953552,
				0.9999999403953552,
				1
			],
			"translation":[
				7.406953983490894e-08,
				0.1919088363647461,
				-2.664705789356958e-09
			]
		},
		{
			"name":"kapelusz",
			"rotation":[
				0,
				1.4210854715202004e-14,
				0,
				1
			],
			"translation":[
				7.406953983490894e-08,
				0.4483776092529297,
				-2.664705789356958e-09
			]
		},
		{
			"children":[
				11
			],
			"name":"gora",
			"rotation":[
				0,
				1.4210854715202004e-14,
				0,
				1
			],
			"translation":[
				7.406953983490894e-08,
				0.1919088363647461,
				-2.664705789356958e-09
			]
		},
		{
			"name":"reka-l",
			"rotation":[
				-8.470329472543003e-22,
				5.9624518655709835e-09,
				7.105428204633949e-15,
				1
			],
			"translation":[
				-1.3633702167226147e-08,
				0.3771645724773407,
				-2.2569915714143463e-08
			]
		},
		{
			"children":[
				13
			],
			"name":"klatka-l",
			"rotation":[
				0.5000000596046448,
				-0.5,
				0.5,
				0.5
			],
			"scale":[
				0.9999999403953552,
				0.9999998211860657,
				0.9999999403953552
			],
			"translation":[
				7.406953983490894e-08,
				0.1919088363647461,
				-2.664705789356958e-09
			]
		},
		{
			"children":[
				10,
				12,
				14
			],
			"name":"glowna",
			"rotation":[
				0,
				1.4210854715202004e-14,
				0,
				1
			],
			"translation":[
				7.406953983490894e-08,
				0,
				-2.664705789356958e-09
			]
		},
		{
			"name":"noga-p",
			"rotation":[
				-0.3151664733886719,
				1.0115156356960142e-07,
				-7.576298344247334e-08,
				0.9490363597869873
			],
			"translation":[
				-4.615820614617405e-09,
				0.21892961859703064,
				-4.8881251046850593e-08
			]
		},
		{
			"children":[
				16
			],
			"name":"miednica-p",
			"rotation":[
				-0.585974931716919,
				-0.3957692086696625,
				-0.5859750509262085,
				0.39576926827430725
			],
			"scale":[
				1,
				1.0000001192092896,
				1
			],
			"translation":[
				7.406953983490894e-08,
				0,
				-2.664705789356958e-09
			]
		},
		{
			"name":"noga-l",
			"rotation":[
				0.31516656279563904,
				2.771401170775789e-07,
				5.925700463649264e-08,
				0.9490363597869873
			],
			"scale":[
				0.9999999403953552,
				0.9999999403953552,
				0.9999999403953552
			],
			"translation":[
				-4.5608601340063615e-09,
				0.21892952919006348,
				-1.380028606945416e-07
			]
		},
		{
			"children":[
				18
			],
			"name":"miednica-l",
			"rotation":[
				0.5859749913215637,
				-0.39576929807662964,
				0.5859750509262085,
				0.39576926827430725
			],
			"scale":[
				1,
				1.0000003576278687,
				1
			],
			"translation":[
				7.406953983490894e-08,
				0,
				-2.664705789356958e-09
			]
		},
		{
			"mesh":9,
			"name":"brwi.001",
			"skin":0
		},
		{
			"mesh":10,
			"name":"Cube.007",
			"skin":0
		},
		{
			"mesh":11,
			"name":"Sphere.003",
			"skin":0
		},
		{
			"mesh":12,
			"name":"Sphere.004",
			"skin":0
		},
		{
			"mesh":13,
			"name":"Sphere.005",
			"skin":0
		},
		{
			"mesh":14,
			"name":"usta.001",
			"skin":0
		},
		{
			"children":[
				20,
				21,
				22,
				23,
				24,
				25,
				15,
				17,
				19
			],
			"name":"Armature.002",
			"rotation":[
				0,
				-1,
				0,
				1.6292068494294654e-07
			],
			"scale":[
				1.199447751045227,
				1.199447751045227,
				1.199447751045227
			],
			"translation":[
				-0.8678285479545593,
				1.3592957258224487,
				-0.16616296768188477
			]
		},
		{
			"mesh":15,
			"name":"Cube",
			"rotation":[
				0,
				1,
				0,
				0
			],
			"scale":[
				-0.7680858373641968,
				-0.13612918555736542,
				-0.7680858373641968
			],
			"translation":[
				-0.8205793499946594,
				1.1392736434936523,
				0
			]
		}
	],
	"animations":[
		{
			"channels":[
				{
					"sampler":0,
					"target":{
						"node":15,
						"path":"translation"
					}
				},
				{
					"sampler":1,
					"target":{
						"node":15,
						"path":"rotation"
					}
				},
				{
					"sampler":2,
					"target":{
						"node":15,
						"path":"scale"
					}
				},
				{
					"sampler":3,
					"target":{
						"node":10,
						"path":"translation"
					}
				},
				{
					"sampler":4,
					"target":{
						"node":10,
						"path":"rotation"
					}
				},
				{
					"sampler":5,
					"target":{
						"node":10,
						"path":"scale"
					}
				},
				{
					"sampler":6,
					"target":{
						"node":9,
						"path":"translation"
					}
				},
				{
					"sampler":7,
					"target":{
						"node":9,
						"path":"rotation"
					}
				},
				{
					"sampler":8,
					"target":{
						"node":9,
						"path":"scale"
					}
				},
				{
					"sampler":9,
					"target":{
						"node":12,
						"path":"translation"
					}
				},
				{
					"sampler":10,
					"target":{
						"node":12,
						"path":"rotation"
					}
				},
				{
					"sampler":11,
					"target":{
						"node":12,
						"path":"scale"
					}
				},
				{
					"sampler":12,
					"target":{
						"node":11,
						"path":"translation"
					}
				},
				{
					"sampler":13,
					"target":{
						"node":11,
						"path":"rotation"
					}
				},
				{
					"sampler":14,
					"target":{
						"node":11,
						"path":"scale"
					}
				},
				{
					"sampler":15,
					"target":{
						"node":14,
						"path":"translation"
					}
				},
				{
					"sampler":16,
					"target":{
						"node":14,
						"path":"rotation"
					}
				},
				{
					"sampler":17,
					"target":{
						"node":14,
						"path":"scale"
					}
				},
				{
					"sampler":18,
					"target":{
						"node":13,
						"path":"translation"
					}
				},
				{
					"sampler":19,
					"target":{
						"node":13,
						"path":"rotation"
					}
				},
				{
					"sampler":20,
					"target":{
						"node":13,
						"path":"scale"
					}
				},
				{
					"sampler":21,
					"target":{
						"node":17,
						"path":"translation"
					}
				},
				{
					"sampler":22,
					"target":{
						"node":17,
						"path":"rotation"
					}
				},
				{
					"sampler":23,
					"target":{
						"node":17,
						"path":"scale"
					}
				},
				{
					"sampler":24,
					"target":{
						"node":16,
						"path":"translation"
					}
				},
				{
					"sampler":25,
					"target":{
						"node":16,
						"path":"rotation"
					}
				},
				{
					"sampler":26,
					"target":{
						"node":16,
						"path":"scale"
					}
				},
				{
					"sampler":27,
					"target":{
						"node":19,
						"path":"translation"
					}
				},
				{
					"sampler":28,
					"target":{
						"node":19,
						"path":"rotation"
					}
				},
				{
					"sampler":29,
					"target":{
						"node":19,
						"path":"scale"
					}
				},
				{
					"sampler":30,
					"target":{
						"node":18,
						"path":"translation"
					}
				},
				{
					"sampler":31,
					"target":{
						"node":18,
						"path":"rotation"
					}
				},
				{
					"sampler":32,
					"target":{
						"node":18,
						"path":"scale"
					}
				}
			],
			"name":"Armature.002Action",
			"samplers":[
				{
					"input":78,
					"interpolation":"STEP",
					"output":79
				},
				{
					"input":78,
					"interpolation":"STEP",
					"output":80
				},
				{
					"input":78,
					"interpolation":"STEP",
					"output":81
				},
				{
					"input":78,
					"interpolation":"STEP",
					"output":82
				},
				{
					"input":78,
					"interpolation":"STEP",
					"output":83
				},
				{
					"input":78,
					"interpolation":"STEP",
					"output":84
				},
				{
					"input":78,
					"interpolation":"STEP",
					"output":85
				},
				{
					"input":86,
					"interpolation":"LINEAR",
					"output":87
				},
				{
					"input":78,
					"interpolation":"STEP",
					"output":81
				},
				{
					"input":78,
					"interpolation":"STEP",
					"output":88
				},
				{
					"input":78,
					"interpolation":"STEP",
					"output":80
				},
				{
					"input":78,
					"interpolation":"STEP",
					"output":81
				},
				{
					"input":78,
					"interpolation":"STEP",
					"output":89
				},
				{
					"input":86,
					"interpolation":"LINEAR",
					"output":90
				},
				{
					"input":78,
					"interpolation":"STEP",
					"output":91
				},
				{
					"input":78,
					"interpolation":"STEP",
					"output":92
				},
				{
					"input":78,
					"interpolation":"STEP",
					"output":93
				},
				{
					"input":78,
					"interpolation":"STEP",
					"output":94
				},
				{
					"input":78,
					"interpolation":"STEP",
					"output":95
				},
				{
					"input":78,
					"interpolation":"STEP",
					"output":96
				},
				{
					"input":78,
					"interpolation":"STEP",
					"output":97
				},
				{
					"input":78,
					"interpolation":"STEP",
					"output":79
				},
				{
					"input":78,
					"interpolation":"STEP",
					"output":98
				},
				{
					"input":78,
					"interpolation":"STEP",
					"output":99
				},
				{
					"input":78,
					"interpolation":"STEP",
					"output":100
				},
				{
					"input":78,
					"interpolation":"STEP",
					"output":101
				},
				{
					"input":78,
					"interpolation":"STEP",
					"output":102
				},
				{
					"input":78,
					"interpolation":"STEP",
					"output":79
				},
				{
					"input":78,
					"interpolation":"STEP",
					"output":103
				},
				{
					"input":78,
					"interpolation":"STEP",
					"output":104
				},
				{
					"input":78,
					"interpolation":"STEP",
					"output":105
				},
				{
					"input":78,
					"interpolation":"STEP",
					"output":106
				},
				{
					"input":78,
					"interpolation":"STEP",
					"output":81
				}
			]
		},
		{
			"channels":[
				{
					"sampler":0,
					"target":{
						"node":21,
						"path":"translation"
					}
				},
				{
					"sampler":1,
					"target":{
						"node":21,
						"path":"rotation"
					}
				},
				{
					"sampler":2,
					"target":{
						"node":21,
						"path":"scale"
					}
				}
			],
			"name":"Cube.001Action",
			"samplers":[
				{
					"input":107,
					"interpolation":"LINEAR",
					"output":108
				},
				{
					"input":107,
					"interpolation":"LINEAR",
					"output":109
				},
				{
					"input":107,
					"interpolation":"LINEAR",
					"output":110
				}
			]
		},
		{
			"channels":[
				{
					"sampler":0,
					"target":{
						"node":22,
						"path":"translation"
					}
				},
				{
					"sampler":1,
					"target":{
						"node":22,
						"path":"rotation"
					}
				},
				{
					"sampler":2,
					"target":{
						"node":22,
						"path":"scale"
					}
				}
			],
			"name":"Sphere.003Action",
			"samplers":[
				{
					"input":107,
					"interpolation":"LINEAR",
					"output":108
				},
				{
					"input":107,
					"interpolation":"LINEAR",
					"output":109
				},
				{
					"input":107,
					"interpolation":"LINEAR",
					"output":110
				}
			]
		},
		{
			"channels":[
				{
					"sampler":0,
					"target":{
						"node":23,
						"path":"translation"
					}
				},
				{
					"sampler":1,
					"target":{
						"node":23,
						"path":"rotation"
					}
				},
				{
					"sampler":2,
					"target":{
						"node":23,
						"path":"scale"
					}
				}
			],
			"name":"Sphere.004Action",
			"samplers":[
				{
					"input":107,
					"interpolation":"LINEAR",
					"output":108
				},
				{
					"input":107,
					"interpolation":"LINEAR",
					"output":109
				},
				{
					"input":107,
					"interpolation":"LINEAR",
					"output":110
				}
			]
		},
		{
			"channels":[
				{
					"sampler":0,
					"target":{
						"node":24,
						"path":"translation"
					}
				},
				{
					"sampler":1,
					"target":{
						"node":24,
						"path":"rotation"
					}
				},
				{
					"sampler":2,
					"target":{
						"node":24,
						"path":"scale"
					}
				}
			],
			"name":"Sphere.005Action",
			"samplers":[
				{
					"input":107,
					"interpolation":"LINEAR",
					"output":108
				},
				{
					"input":107,
					"interpolation":"LINEAR",
					"output":109
				},
				{
					"input":107,
					"interpolation":"LINEAR",
					"output":110
				}
			]
		}
	],
	"materials":[
		{
			"doubleSided":true,
			"name":"Material",
			"pbrMetallicRoughness":{
				"baseColorTexture":{
					"index":0
				},
				"metallicFactor":0,
				"roughnessFactor":0.5
			}
		},
		{
			"doubleSided":true,
			"name":"Material.001",
			"pbrMetallicRoughness":{
				"baseColorTexture":{
					"index":1
				},
				"metallicFactor":0,
				"roughnessFactor":0.5
			}
		},
		{
			"doubleSided":true,
			"name":"Material.002",
			"pbrMetallicRoughness":{
				"baseColorTexture":{
					"index":2
				},
				"metallicFactor":0,
				"roughnessFactor":0.5
			}
		},
		{
			"doubleSided":true,
			"emissiveFactor":[
				0.19999980926513672,
				0.19999980926513672,
				0.19999980926513672
			],
			"emissiveTexture":{
				"index":3
			},
			"name":"Material.004",
			"pbrMetallicRoughness":{
				"baseColorTexture":{
					"index":4
				},
				"metallicFactor":0,
				"roughnessFactor":0.5
			}
		},
		{
			"doubleSided":true,
			"emissiveFactor":[
				0.19999980926513672,
				0.19999980926513672,
				0.19999980926513672
			],
			"emissiveTexture":{
				"index":3,
				"texCoord":1
			},
			"name":"Material.004",
			"pbrMetallicRoughness":{
				"baseColorTexture":{
					"index":4
				},
				"metallicFactor":0,
				"roughnessFactor":0.5
			}
		}
	],
	"meshes":[
		{
			"name":"Cube.002",
			"primitives":[
				{
					"attributes":{
						"POSITION":0,
						"NORMAL":1,
						"TEXCOORD_0":2
					},
					"indices":3,
					"material":0
				}
			]
		},
		{
			"name":"Cube.003",
			"primitives":[
				{
					"attributes":{
						"POSITION":4,
						"NORMAL":5,
						"TEXCOORD_0":6
					},
					"indices":7,
					"material":0
				}
			]
		},
		{
			"name":"Cube.004",
			"primitives":[
				{
					"attributes":{
						"POSITION":8,
						"NORMAL":9,
						"TEXCOORD_0":10
					},
					"indices":11,
					"material":0
				}
			]
		},
		{
			"name":"Circle",
			"primitives":[
				{
					"attributes":{
						"POSITION":12,
						"NORMAL":13,
						"TEXCOORD_0":14
					},
					"indices":15,
					"material":0
				}
			]
		},
		{
			"name":"Circle.001",
			"primitives":[
				{
					"attributes":{
						"POSITION":16,
						"NORMAL":17,
						"TEXCOORD_0":18
					},
					"indices":19,
					"material":0
				}
			]
		},
		{
			"name":"Circle.002",
			"primitives":[
				{
					"attributes":{
						"POSITION":20,
						"NORMAL":21,
						"TEXCOORD_0":22
					},
					"indices":23,
					"material":0
				}
			]
		},
		{
			"name":"Circle.003",
			"primitives":[
				{
					"attributes":{
						"POSITION":24,
						"NORMAL":25,
						"TEXCOORD_0":26
					},
					"indices":27,
					"material":0
				}
			]
		},
		{
			"name":"Cube.005",
			"primitives":[
				{
					"attributes":{
						"POSITION":28,
						"NORMAL":29,
						"TEXCOORD_0":30
					},
					"indices":7,
					"material":1
				}
			]
		},
		{
			"name":"Cube.006",
			"primitives":[
				{
					"attributes":{
						"POSITION":31,
						"NORMAL":32,
						"TEXCOORD_0":33
					},
					"indices":34,
					"material":2
				}
			]
		},
		{
			"name":"Sphere.006",
			"primitives":[
				{
					"attributes":{
						"POSITION":35,
						"NORMAL":36,
						"TEXCOORD_0":37,
						"JOINTS_0":38,
						"WEIGHTS_0":39
					},
					"indices":40,
					"material":3
				}
			]
		},
		{
			"name":"Cube.009",
			"primitives":[
				{
					"attributes":{
						"POSITION":42,
						"NORMAL":43,
						"TEXCOORD_0":44,
						"TEXCOORD_1":45,
						"JOINTS_0":46,
						"WEIGHTS_0":47
					},
					"indices":48,
					"material":4
				}
			]
		},
		{
			"name":"Sphere.003",
			"primitives":[
				{
					"attributes":{
						"POSITION":49,
						"NORMAL":50,
						"TEXCOORD_0":51,
						"JOINTS_0":52,
						"WEIGHTS_0":53
					},
					"indices":54,
					"material":3
				}
			]
		},
		{
			"name":"Sphere.004",
			"primitives":[
				{
					"attributes":{
						"POSITION":55,
						"NORMAL":56,
						"TEXCOORD_0":57,
						"JOINTS_0":58,
						"WEIGHTS_0":59
					},
					"indices":54,
					"material":3
				}
			]
		},
		{
			"name":"Sphere.005",
			"primitives":[
				{
					"attributes":{
						"POSITION":60,
						"NORMAL":61,
						"TEXCOORD_0":62,
						"JOINTS_0":63,
						"WEIGHTS_0":64
					},
					"indices":65,
					"material":3
				}
			]
		},
		{
			"name":"Cube.008",
			"primitives":[
				{
					"attributes":{
						"POSITION":66,
						"NORMAL":67,
						"TEXCOORD_0":68,
						"COLOR_0":69,
						"COLOR_1":70,
						"JOINTS_0":71,
						"WEIGHTS_0":72
					},
					"indices":73,
					"material":3
				}
			]
		},
		{
			"name":"Cube",
			"primitives":[
				{
					"attributes":{
						"POSITION":74,
						"NORMAL":75,
						"TEXCOORD_0":76
					},
					"indices":77,
					"material":0
				}
			]
		}
	],
	"textures":[
		{
			"sampler":0,
			"source":0
		},
		{
			"sampler":0,
			"source":0
		},
		{
			"sampler":0,
			"source":0
		},
		{
			"sampler":1,
			"source":1
		},
		{
			"sampler":1,
			"source":0
		}
	],
	"images":[
		{
			"mimeType":"image/png",
			"name":"palette",
			"uri":"palette.png"
		},
		{
			"mimeType":"image/png",
			"name":"detal",
			"uri":"detal.png"
		}
	],
	"skins":[
		{
			"inverseBindMatrices":41,
			"joints":[
				15,
				10,
				9,
				12,
				11,
				14,
				13,
				17,
				16,
				19,
				18
			],
			"name":"Armature.002"
		}
	],
	"accessors":[
		{
			"bufferView":0,
			"componentType":5126,
			"count":1338,
			"max":[
				3.242464065551758,
				-0.4085875153541565,
				1.0879597663879395
			],
			"min":[
				-3.0266036987304688,
				-1.5841058492660522,
				-1.0881123542785645
			],
			"type":"VEC3"
		},
		{
			"bufferView":1,
			"componentType":5126,
			"count":1338,
			"type":"VEC3"
		},
		{
			"bufferView":2,
			"componentType":5126,
			"count":1338,
			"type":"VEC2"
		},
		{
			"bufferView":3,
			"componentType":5123,
			"count":2952,
			"type":"SCALAR"
		},
		{
			"bufferView":4,
			"componentType":5126,
			"count":96,
			"max":[
				3.3259212970733643,
				1.6508290767669678,
				1
			],
			"min":[
				0.30559659004211426,
				-0.34917086362838745,
				-1
			],
			"type":"VEC3"
		},
		{
			"bufferView":5,
			"componentType":5126,
			"count":96,
			"type":"VEC3"
		},
		{
			"bufferView":6,
			"componentType":5126,
			"count":96,
			"type":"VEC2"
		},
		{
			"bufferView":7,
			"componentType":5123,
			"count":324,
			"type":"SCALAR"
		},
		{
			"bufferView":8,
			"componentType":5126,
			"count":550,
			"max":[
				0.25772643089294434,
				1.4463181495666504,
				1.0599085092544556
			],
			"min":[
				-2.394838571548462,
				-0.38745492696762085,
				-1.0765105485916138
			],
			"type":"VEC3"
		},
		{
			"bufferView":9,
			"componentType":5126,
			"count":550,
			"type":"VEC3"
		},
		{
			"bufferView":10,
			"componentType":5126,
			"count":550,
			"type":"VEC2"
		},
		{
			"bufferView":11,
			"componentType":5123,
			"count":1587,
			"type":"SCALAR"
		},
		{
			"bufferView":12,
			"componentType":5126,
			"count":200,
			"max":[
				-0.6807385683059692,
				-0.7689740657806396,
				1.1501190662384033
			],
			"min":[
				-1.8788255453109741,
				-1.9670610427856445,
				0.790692925453186
			],
			"type":"VEC3"
		},
		{
			"bufferView":13,
			"componentType":5126,
			"count":200,
			"type":"VEC3"
		},
		{
			"bufferView":14,
			"componentType":5126,
			"count":200,
			"type":"VEC2"
		},
		{
			"bufferView":15,
			"componentType":5123,
			"count":564,
			"type":"SCALAR"
		},
		{
			"bufferView":16,
			"componentType":5126,
			"count":200,
			"max":[
				2.500485897064209,
				-0.7689740657806396,
				1.1501190662384033
			],
			"min":[
				1.3023988008499146,
				-1.9670610427856445,
				0.790692925453186
			],
			"type":"VEC3"
		},
		{
			"bufferView":17,
			"componentType":5126,
			"count":200,
			"type":"VEC3"
		},
		{
			"bufferView":18,
			"componentType":5126,
			"count":200,
			"type":"VEC2"
		},
		{
			"bufferView":19,
			"componentType":5123,
			"count":564,
			"type":"SCALAR"
		},
		{
			"bufferView":20,
			"componentType":5126,
			"count":200,
			"max":[
				2.500485897064209,
				-0.7689740657806396,
				-0.8005567789077759
			],
			"min":[
				1.3023988008499146,
				-1.9670610427856445,
				-1.1599829196929932
			],
			"type":"VEC3"
		},
		{
			"bufferView":21,
			"componentType":5126,
			"count":200,
			"type":"VEC3"
		},
		{
			"bufferView":22,
			"componentType":5126,
			"count":200,
			"type":"VEC2"
		},
		{
			"bufferView":23,
			"componentType":5123,
			"count":564,
			"type":"SCALAR"
		},
		{
			"bufferView":24,
			"componentType":5126,
			"count":200,
			"max":[
				-0.6807385683059692,
				-0.7689740657806396,
				-0.8005567789077759
			],
			"min":[
				-1.8788255453109741,
				-1.9670610427856445,
				-1.1599829196929932
			],
			"type":"VEC3"
		},
		{
			"bufferView":25,
			"componentType":5126,
			"count":200,
			"type":"VEC3"
		},
		{
			"bufferView":26,
			"componentType":5126,
			"count":200,
			"type":"VEC2"
		},
		{
			"bufferView":27,
			"componentType":5123,
			"count":564,
			"type":"SCALAR"
		},
		{
			"bufferView":28,
			"componentType":5126,
			"count":96,
			"max":[
				3.379767656326294,
				-0.679058313369751,
				0.3008921444416046
			],
			"min":[
				3.189295530319214,
				-0.9448567628860474,
				-0.3008921444416046
			],
			"type":"VEC3"
		},
		{
			"bufferView":29,
			"componentType":5126,
			"count":96,
			"type":"VEC3"
		},
		{
			"bufferView":30,
			"componentType":5126,
			"count":96,
			"type":"VEC2"
		},
		{
			"bufferView":31,
			"componentType":5126,
			"count":192,
			"max":[
				-2.9097611904144287,
				-0.679058313369751,
				0.6919175982475281
			],
			"min":[
				-3.100233316421509,
				-0.9448567628860474,
				-0.6919175982475281
			],
			"type":"VEC3"
		},
		{
			"bufferView":32,
			"componentType":5126,
			"count":192,
			"type":"VEC3"
		},
		{
			"bufferView":33,
			"componentType":5126,
			"count":192,
			"type":"VEC2"
		},
		{
			"bufferView":34,
			"componentType":5123,
			"count":648,
			"type":"SCALAR"
		},
		{
			"bufferView":35,
			"componentType":5126,
			"count":3968,
			"max":[
				-0.6454164981842041,
				1.7003839015960693,
				-0.42737963795661926
			],
			"min":[
				-1.1061739921569824,
				1.643770456314087,
				-0.5122071504592896
			],
			"type":"VEC3"
		},
		{
			"bufferView":36,
			"componentType":5126,
			"count":3968,
			"type":"VEC3"
		},
		{
			"bufferView":37,
			"componentType":5126,
			"count":3968,
			"type":"VEC2"
		},
		{
			"bufferView":38,
			"componentType":5121,
			"count":3968,
			"type":"VEC4"
		},
		{
			"bufferView":39,
			"componentType":5126,
			"count":3968,
			"type":"VEC4"
		},
		{
			"bufferView":40,
			"componentType":5123,
			"count":5760,
			"type":"SCALAR"
		},
		{
			"bufferView":41,
			"componentType":5126,
			"count":11,
			"type":"MAT4"
		},
		{
			"bufferView":42,
			"componentType":5126,
			"count":1364,
			"max":[
				0.1750374436378479,
				3.2400808334350586,
				0.7626939415931702
			],
			"min":[
				-1.886054515838623,
				1.200412392616272,
				-1.095019817352295
			],
			"type":"VEC3"
		},
		{
			"bufferView":43,
			"componentType":5126,
			"count":1364,
			"type":"VEC3"
		},
		{
			"bufferView":44,
			"componentType":5126,
			"count":1364,
			"type":"VEC2"
		},
		{
			"bufferView":45,
			"componentType":5126,
			"count":1364,
			"type":"VEC2"
		},
		{
			"bufferView":46,
			"componentType":5121,
			"count":1364,
			"type":"VEC4"
		},
		{
			"bufferView":47,
			"componentType":5126,
			"count":1364,
			"type":"VEC4"
		},
		{
			"bufferView":48,
			"componentType":5123,
			"count":6240,
			"type":"SCALAR"
		},
		{
			"bufferView":49,
			"componentType":5126,
			"count":1192,
			"max":[
				-0.05497711896896362,
				1.6963627338409424,
				-0.061089254915714264
			],
			"min":[
				-1.6951205730438232,
				1.4824419021606445,
				-0.26573053002357483
			],
			"type":"VEC3"
		},
		{
			"bufferView":50,
			"componentType":5126,
			"count":1192,
			"type":"VEC3"
		},
		{
			"bufferView":51,
			"componentType":5126,
			"count":1192,
			"type":"VEC2"
		},
		{
			"bufferView":52,
			"componentType":5121,
			"count":1192,
			"type":"VEC4"
		},
		{
			"bufferView":53,
			"componentType":5126,
			"count":1192,
			"type":"VEC4"
		},
		{
			"bufferView":54,
			"componentType":5123,
			"count":5760,
			"type":"SCALAR"
		},
		{
			"bufferView":55,
			"componentType":5126,
			"count":1192,
			"max":[
				-0.4125146269798279,
				1.3125470876693726,
				-0.06727659702301025
			],
			"min":[
				-1.337583065032959,
				0.9318642616271973,
				-0.25954318046569824
			],
			"type":"VEC3"
		},
		{
			"bufferView":56,
			"componentType":5126,
			"count":1192,
			"type":"VEC3"
		},
		{
			"bufferView":57,
			"componentType":5126,
			"count":1192,
			"type":"VEC2"
		},
		{
			"bufferView":58,
			"componentType":5121,
			"count":1192,
			"type":"VEC4"
		},
		{
			"bufferView":59,
			"componentType":5126,
			"count":1192,
			"type":"VEC4"
		},
		{
			"bufferView":60,
			"componentType":5126,
			"count":1208,
			"max":[
				-0.6696826219558716,
				1.6261117458343506,
				-0.47260600328445435
			],
			"min":[
				-1.0503239631652832,
				1.5438380241394043,
				-0.554879903793335
			],
			"type":"VEC3"
		},
		{
			"bufferView":61,
			"componentType":5126,
			"count":1208,
			"type":"VEC3"
		},
		{
			"bufferView":62,
			"componentType":5126,
			"count":1208,
			"type":"VEC2"
		},
		{
			"bufferView":63,
			"componentType":5121,
			"count":1208,
			"type":"VEC4"
		},
		{
			"bufferView":64,
			"componentType":5126,
			"count":1208,
			"type":"VEC4"
		},
		{
			"bufferView":65,
			"componentType":5123,
			"count":5760,
			"type":"SCALAR"
		},
		{
			"bufferView":66,
			"componentType":5126,
			"count":253,
			"max":[
				-0.8087392449378967,
				1.5315803289413452,
				-0.5424761176109314
			],
			"min":[
				-0.9252233505249023,
				1.5093193054199219,
				-0.5544713735580444
			],
			"type":"VEC3"
		},
		{
			"bufferView":67,
			"componentType":5126,
			"count":253,
			"type":"VEC3"
		},
		{
			"bufferView":68,
			"componentType":5126,
			"count":253,
			"type":"VEC2"
		},
		{
			"bufferView":69,
			"componentType":5121,
			"count":253,
			"normalized":true,
			"type":"VEC4"
		},
		{
			"bufferView":70,
			"componentType":5123,
			"count":253,
			"normalized":true,
			"type":"VEC4"
		},
		{
			"bufferView":71,
			"componentType":5121,
			"count":253,
			"type":"VEC4"
		},
		{
			"bufferView":72,
			"componentType":5126,
			"count":253,
			"type":"VEC4"
		},
		{
			"bufferView":73,
			"componentType":5123,
			"count":834,
			"type":"SCALAR"
		},
		{
			"bufferView":74,
			"componentType":5126,
			"count":48,
			"max":[
				1,
				1.5029962062835693,
				1
			],
			"min":[
				-1,
				-1.9106003046035767,
				-1
			],
			"type":"VEC3"
		},
		{
			"bufferView":75,
			"componentType":5126,
			"count":48,
			"type":"VEC3"
		},
		{
			"bufferView":76,
			"componentType":5126,
			"count":48,
			"type":"VEC2"
		},
		{
			"bufferView":77,
			"componentType":5123,
			"count":84,
			"type":"SCALAR"
		},
		{
			"bufferView":78,
			"componentType":5126,
			"count":2,
			"max":[
				1.875
			],
			"min":[
				0
			],
			"type":"SCALAR"
		},
		{
			"bufferView":79,
			"componentType":5126,
			"count":2,
			"type":"VEC3"
		},
		{
			"bufferView":80,
			"componentType":5126,
			"count":2,
			"type":"VEC4"
		},
		{
			"bufferView":81,
			"componentType":5126,
			"count":2,
			"type":"VEC3"
		},
		{
			"bufferView":82,
			"componentType":5126,
			"count":2,
			"type":"VEC3"
		},
		{
			"bufferView":83,
			"componentType":5126,
			"count":2,
			"type":"VEC4"
		},
		{
			"bufferView":84,
			"componentType":5126,
			"count":2,
			"type":"VEC3"
		},
		{
			"bufferView":85,
			"componentType":5126,
			"count":2,
			"type":"VEC3"
		},
		{
			"bufferView":86,
			"componentType":5126,
			"count":46,
			"max":[
				1.875
			],
			"min":[
				0
			],
			"type":"SCALAR"
		},
		{
			"bufferView":87,
			"componentType":5126,
			"count":46,
			"type":"VEC4"
		},
		{
			"bufferView":88,
			"componentType":5126,
			"count":2,
			"type":"VEC3"
		},
		{
			"bufferView":89,
			"componentType":5126,
			"count":2,
			"type":"VEC3"
		},
		{
			"bufferView":90,
			"componentType":5126,
			"count":46,
			"type":"VEC4"
		},
		{
			"bufferView":91,
			"componentType":5126,
			"count":2,
			"type":"VEC3"
		},
		{
			"bufferView":92,
			"componentType":5126,
			"count":2,
			"type":"VEC3"
		},
		{
			"bufferView":93,
			"componentType":5126,
			"count":2,
			"type":"VEC4"
		},
		{
			"bufferView":94,
			"componentType":5126,
			"count":2,
			"type":"VEC3"
		},
		{
			"bufferView":95,
			"componentType":5126,
			"count":2,
			"type":"VEC3"
		},
		{
			"bufferView":96,
			"componentType":5126,
			"count":2,
			"type":"VEC4"
		},
		{
			"bufferView":97,
			"componentType":5126,
			"count":2,
			"type":"VEC3"
		},
		{
			"bufferView":98,
			"componentType":5126,
			"count":2,
			"type":"VEC4"
		},
		{
			"bufferView":99,
			"componentType":5126,
			"count":2,
			"type":"VEC3"
		},
		{
			"bufferView":100,
			"componentType":5126,
			"count":2,
			"type":"VEC3"
		},
		{
			"bufferView":101,
			"componentType":5126,
			"count":2,
			"type":"VEC4"
		},
		{
			"bufferView":102,
			"componentType":5126,
			"count":2,
			"type":"VEC3"
		},
		{
			"bufferView":103,
			"componentType":5126,
			"count":2,
			"type":"VEC4"
		},
		{
			"bufferView":104,
			"componentType":5126,
			"count":2,
			"type":"VEC3"
		},
		{
			"bufferView":105,
			"componentType":5126,
			"count":2,
			"type":"VEC3"
		},
		{
			"bufferView":106,
			"componentType":5126,
			"count":2,
			"type":"VEC4"
		},
		{
			"bufferView":107,
			"componentType":5126,
			"count":1,
			"max":[
				0.041666666666666664
			],
			"min":[
				0.041666666666666664
			],
			"type":"SCALAR"
		},
		{
			"bufferView":108,
			"componentType":5126,
			"count":1,
			"type":"VEC3"
		},
		{
			"bufferView":109,
			"componentType":5126,
			"count":1,
			"type":"VEC4"
		},
		{
			"bufferView":110,
			"componentType":5126,
			"count":1,
			"type":"VEC3"
		}
	],
	"bufferViews":[
		{
			"buffer":0,
			"byteLength":16056,
			"byteOffset":0,
			"target":34962
		},
		{
			"buffer":0,
			"byteLength":16056,
			"byteOffset":16056,
			"target":34962
		},
		{
			"buffer":0,
			"byteLength":10704,
			"byteOffset":32112,
			"target":34962
		},
		{
			"buffer":0,
			"byteLength":5904,
			"byteOffset":42816,
			"target":34963
		},
		{
			"buffer":0,
			"byteLength":1152,
			"byteOffset":48720,
			"target":34962
		},
		{
			"buffer":0,
			"byteLength":1152,
			"byteOffset":49872,
			"target":34962
		},
		{
			"buffer":0,
			"byteLength":768,
			"byteOffset":51024,
			"target":34962
		},
		{
			"buffer":0,
			"byteLength":648,
			"byteOffset":51792,
			"target":34963
		},
		{
			"buffer":0,
			"byteLength":6600,
			"byteOffset":52440,
			"target":34962
		},
		{
			"buffer":0,
			"byteLength":6600,
			"byteOffset":59040,
			"target":34962
		},
		{
			"buffer":0,
			"byteLength":4400,
			"byteOffset":65640,
			"target":34962
		},
		{
			"buffer":0,
			"byteLength":3174,
			"byteOffset":70040,
			"target":34963
		},
		{
			"buffer":0,
			"byteLength":2400,
			"byteOffset":73216,
			"target":34962
		},
		{
			"buffer":0,
			"byteLength":2400,
			"byteOffset":75616,
			"target":34962
		},
		{
			"buffer":0,
			"byteLength":1600,
			"byteOffset":78016,
			"target":34962
		},
		{
			"buffer":0,
			"byteLength":1128,
			"byteOffset":79616,
			"target":34963
		},
		{
			"buffer":0,
			"byteLength":2400,
			"byteOffset":80744,
			"target":34962
		},
		{
			"buffer":0,
			"byteLength":2400,
			"byteOffset":83144,
			"target":34962
		},
		{
			"buffer":0,
			"byteLength":1600,
			"byteOffset":85544,
			"target":34962
		},
		{
			"buffer":0,
			"byteLength":1128,
			"byteOffset":87144,
			"target":34963
		},
		{
			"buffer":0,
			"byteLength":2400,
			"byteOffset":88272,
			"target":34962
		},
		{
			"buffer":0,
			"byteLength":2400,
			"byteOffset":90672,
			"target":34962
		},
		{
			"buffer":0,
			"byteLength":1600,
			"byteOffset":93072,
			"target":34962
		},
		{
			"buffer":0,
			"byteLength":1128,
			"byteOffset":94672,
			"target":34963
		},
		{
			"buffer":0,
			"byteLength":2400,
			"byteOffset":95800,
			"target":34962
		},
		{
			"buffer":0,
			"byteLength":2400,
			"byteOffset":98200,
			"target":34962
		},
		{
			"buffer":0,
			"byteLength":1600,
			"byteOffset":100600,
			"target":34962
		},
		{
			"buffer":0,
			"byteLength":1128,
			"byteOffset":102200,
			"target":34963
		},
		{
			"buffer":0,
			"byteLength":1152,
			"byteOffset":103328,
			"target":34962
		},
		{
			"buffer":0,
			"byteLength":1152,
			"byteOffset":104480,
			"target":34962
		},
		{
			"buffer":0,
			"byteLength":768,
			"byteOffset":105632,
			"target":34962
		},
		{
			"buffer":0,
			"byteLength":2304,
			"byteOffset":106400,
			"target":34962
		},
		{
			"buffer":0,
			"byteLength":2304,
			"byteOffset":108704,
			"target":34962
		},
		{
			"buffer":0,
			"byteLength":1536,
			"byteOffset":111008,
			"target":34962
		},
		{
			"buffer":0,
			"byteLength":1296,
			"byteOffset":112544,
			"target":34963
		},
		{
			"buffer":0,
			"byteLength":47616,
			"byteOffset":113840,
			"target":34962
		},
		{
			"buffer":0,
			"byteLength":47616,
			"byteOffset":161456,
			"target":34962
		},
		{
			"buffer":0,
			"byteLength":31744,
			"byteOffset":209072,
			"target":34962
		},
		{
			"buffer":0,
			"byteLength":15872,
			"byteOffset":240816,
			"target":34962
		},
		{
			"buffer":0,
			"byteLength":63488,
			"byteOffset":256688,
			"target":34962
		},
		{
			"buffer":0,
			"byteLength":11520,
			"byteOffset":320176,
			"target":34963
		},
		{
			"buffer":0,
			"byteLength":704,
			"byteOffset":331696
		},
		{
			"buffer":0,
			"byteLength":16368,
			"byteOffset":332400,
			"target":34962
		},
		{
			"buffer":0,
			"byteLength":16368,
			"byteOffset":348768,
			"target":34962
		},
		{
			"buffer":0,
			"byteLength":10912,
			"byteOffset":365136,
			"target":34962
		},
		{
			"buffer":0,
			"byteLength":10912,
			"byteOffset":376048,
			"target":34962
		},
		{
			"buffer":0,
			"byteLength":5456,
			"byteOffset":386960,
			"target":34962
		},
		{
			"buffer":0,
			"byteLength":21824,
			"byteOffset":392416,
			"target":34962
		},
		{
			"buffer":0,
			"byteLength":12480,
			"byteOffset":414240,
			"target":34963
		},
		{
			"buffer":0,
			"byteLength":14304,
			"byteOffset":426720,
			"target":34962
		},
		{
			"buffer":0,
			"byteLength":14304,
			"byteOffset":441024,
			"target":34962
		},
		{
			"buffer":0,
			"byteLength":9536,
			"byteOffset":455328,
			"target":34962
		},
		{
			"buffer":0,
			"byteLength":4768,
			"byteOffset":464864,
			"target":34962
		},
		{
			"buffer":0,
			"byteLength":19072,
			"byteOffset":469632,
			"target":34962
		},
		{
			"buffer":0,
			"byteLength":11520,
			"byteOffset":488704,
			"target":34963
		},
		{
			"buffer":0,
			"byteLength":14304,
			"byteOffset":500224,
			"target":34962
		},
		{
			"buffer":0,
			"byteLength":14304,
			"byteOffset":514528,
			"target":34962
		},
		{
			"buffer":0,
			"byteLength":9536,
			"byteOffset":528832,
			"target":34962
		},
		{
			"buffer":0,
			"byteLength":4768,
			"byteOffset":538368,
			"target":34962
		},
		{
			"buffer":0,
			"byteLength":19072,
			"byteOffset":543136,
			"target":34962
		},
		{
			"buffer":0,
			"byteLength":14496,
			"byteOffset":562208,
			"target":34962
		},
		{
			"buffer":0,
			"byteLength":14496,
			"byteOffset":576704,
			"target":34962
		},
		{
			"buffer":0,
			"byteLength":9664,
			"byteOffset":591200,
			"target":34962
		},
		{
			"buffer":0,
			"byteLength":4832,
			"byteOffset":600864,
			"target":34962
		},
		{
			"buffer":0,
			"byteLength":19328,
			"byteOffset":605696,
			"target":34962
		},
		{
			"buffer":0,
			"byteLength":11520,
			"byteOffset":625024,
			"target":34963
		},
		{
			"buffer":0,
			"byteLength":3036,
			"byteOffset":636544,
			"target":34962
		},
		{
			"buffer":0,
			"byteLength":3036,
			"byteOffset":639580,
			"target":34962
		},
		{
			"buffer":0,
			"byteLength":2024,
			"byteOffset":642616,
			"target":34962
		},
		{
			"buffer":0,
			"byteLength":1012,
			"byteOffset":644640,
			"target":34962
		},
		{
			"buffer":0,
			"byteLength":2024,
			"byteOffset":645652,
			"target":34962
		},
		{
			"buffer":0,
			"byteLength":1012,
			"byteOffset":647676,
			"target":34962
		},
		{
			"buffer":0,
			"byteLength":4048,
			"byteOffset":648688,
			"target":34962
		},
		{
			"buffer":0,
			"byteLength":1668,
			"byteOffset":652736,
			"target":34963
		},
		{
			"buffer":0,
			"byteLength":576,
			"byteOffset":654404,
			"target":34962
		},
		{
			"buffer":0,
			"byteLength":576,
			"byteOffset":654980,
			"target":34962
		},
		{
			"buffer":0,
			"byteLength":384,
			"byteOffset":655556,
			"target":34962
		},
		{
			"buffer":0,
			"byteLength":168,
			"byteOffset":655940,
			"target":34963
		},
		{
			"buffer":0,
			"byteLength":8,
			"byteOffset":656108
		},
		{
			"buffer":0,
			"byteLength":24,
			"byteOffset":656116
		},
		{
			"buffer":0,
			"byteLength":32,
			"byteOffset":656140
		},
		{
			"buffer":0,
			"byteLength":24,
			"byteOffset":656172
		},
		{
			"buffer":0,
			"byteLength":24,
			"byteOffset":656196
		},
		{
			"buffer":0,
			"byteLength":32,
			"byteOffset":656220
		},
		{
			"buffer":0,
			"byteLength":24,
			"byteOffset":656252
		},
		{
			"buffer":0,
			"byteLength":24,
			"byteOffset":656276
		},
		{
			"buffer":0,
			"byteLength":184,
			"byteOffset":656300
		},
		{
			"buffer":0,
			"byteLength":736,
			"byteOffset":656484
		},
		{
			"buffer":0,
			"byteLength":24,
			"byteOffset":657220
		},
		{
			"buffer":0,
			"byteLength":24,
			"byteOffset":657244
		},
		{
			"buffer":0,
			"byteLength":736,
			"byteOffset":657268
		},
		{
			"buffer":0,
			"byteLength":24,
			"byteOffset":658004
		},
		{
			"buffer":0,
			"byteLength":24,
			"byteOffset":658028
		},
		{
			"buffer":0,
			"byteLength":32,
			"byteOffset":658052
		},
		{
			"buffer":0,
			"byteLength":24,
			"byteOffset":658084
		},
		{
			"buffer":0,
			"byteLength":24,
			"byteOffset":658108
		},
		{
			"buffer":0,
			"byteLength":32,
			"byteOffset":658132
		},
		{
			"buffer":0,
			"byteLength":24,
			"byteOffset":658164
		},
		{
			"buffer":0,
			"byteLength":32,
			"byteOffset":658188
		},
		{
			"buffer":0,
			"byteLength":24,
			"byteOffset":658220
		},
		{
			"buffer":0,
			"byteLength":24,
			"byteOffset":658244
		},
		{
			"buffer":0,
			"byteLength":32,
			"byteOffset":658268
		},
		{
			"buffer":0,
			"byteLength":24,
			"byteOffset":658300
		},
		{
			"buffer":0,
			"byteLength":32,
			"byteOffset":658324
		},
		{
			"buffer":0,
			"byteLength":24,
			"byteOffset":658356
		},
		{
			"buffer":0,
			"byteLength":24,
			"byteOffset":658380
		},
		{
			"buffer":0,
			"byteLength":32,
			"byteOffset":658404
		},
		{
			"buffer":0,
			"byteLength":4,
			"byteOffset":658436
		},
		{
			"buffer":0,
			"byteLength":12,
			"byteOffset":658440
		},
		{
			"buffer":0,
			"byteLength":16,
			"byteOffset":658452
		},
		{
			"buffer":0,
			"byteLength":12,
			"byteOffset":658468
		}
	],
	"samplers":[
		{
			"magFilter":9728,
			"minFilter":9984
		},
		{
			"magFilter":9729,
			"minFilter":9987
		}
	],
	"buffers":[
		{
			"byteLength":658480,
			"uri":"dostawa-grzybek.bin"
		}
	]
}
