{
	"asset":{
		"generator":"Khronos glTF Blender I/O v5.1.19",
		"version":"2.0"
	},
	"scene":0,
	"scenes":[
		{
			"name":"Scene",
			"nodes":[
				0,
				1
			]
		}
	],
	"nodes":[
		{
			"mesh":0,
			"name":"Cube.008",
			"rotation":[
				0,
				0,
				0.7071068286895752,
				0.7071068286895752
			],
			"translation":[
				1.782881736755371,
				1.5083484649658203,
				0
			]
		},
		{
			"mesh":1,
			"name":"Circle.007"
		}
	],
	"animations":[
		{
			"channels":[
				{
					"sampler":0,
					"target":{
						"node":0,
						"path":"translation"
					}
				},
				{
					"sampler":1,
					"target":{
						"node":0,
						"path":"rotation"
					}
				},
				{
					"sampler":2,
					"target":{
						"node":0,
						"path":"scale"
					}
				}
			],
			"name":"Cube.008Action",
			"samplers":[
				{
					"input":24,
					"interpolation":"STEP",
					"output":25
				},
				{
					"input":26,
					"interpolation":"LINEAR",
					"output":27
				},
				{
					"input":24,
					"interpolation":"STEP",
					"output":28
				}
			]
		}
	],
	"materials":[
		{
			"doubleSided":true,
			"name":"Material",
			"pbrMetallicRoughness":{
				"baseColorTexture":{
					"index":0
				},
				"metallicFactor":0,
				"roughnessFactor":0.5
			}
		},
		{
			"doubleSided":true,
			"name":"Material.012",
			"pbrMetallicRoughness":{
				"baseColorTexture":{
					"index":1
				},
				"metallicFactor":0,
				"roughnessFactor":0.5
			}
		},
		{
			"doubleSided":true,
			"name":"Material.002",
			"pbrMetallicRoughness":{
				"baseColorTexture":{
					"index":2
				},
				"metallicFactor":0,
				"roughnessFactor":0.5
			}
		},
		{
			"doubleSided":true,
			"name":"Material.011",
			"pbrMetallicRoughness":{
				"baseColorTexture":{
					"index":3
				},
				"metallicFactor":0,
				"roughnessFactor":0.5
			}
		},
		{
			"doubleSided":true,
			"name":"Material.009",
			"pbrMetallicRoughness":{
				"baseColorTexture":{
					"index":4
				},
				"metallicFactor":0,
				"roughnessFactor":0.5
			}
		}
	],
	"meshes":[
		{
			"name":"Cube.011",
			"primitives":[
				{
					"attributes":{
						"POSITION":0,
						"NORMAL":1,
						"TEXCOORD_0":2
					},
					"indices":3,
					"material":0
				}
			]
		},
		{
			"name":"Circle.007",
			"primitives":[
				{
					"attributes":{
						"POSITION":4,
						"NORMAL":5,
						"TEXCOORD_0":6
					},
					"indices":7,
					"material":1
				},
				{
					"attributes":{
						"POSITION":8,
						"NORMAL":9,
						"TEXCOORD_0":10
					},
					"indices":11,
					"material":2
				},
				{
					"attributes":{
						"POSITION":12,
						"NORMAL":13,
						"TEXCOORD_0":14
					},
					"indices":15,
					"material":3
				},
				{
					"attributes":{
						"POSITION":16,
						"NORMAL":17,
						"TEXCOORD_0":18
					},
					"indices":19,
					"material":0
				},
				{
					"attributes":{
						"POSITION":20,
						"NORMAL":21,
						"TEXCOORD_0":22
					},
					"indices":23,
					"material":4
				}
			]
		}
	],
	"textures":[
		{
			"sampler":0,
			"source":0
		},
		{
			"sampler":0,
			"source":0
		},
		{
			"sampler":0,
			"source":0
		},
		{
			"sampler":0,
			"source":0
		},
		{
			"sampler":0,
			"source":0
		}
	],
	"images":[
		{
			"mimeType":"image/png",
			"name":"palette",
			"uri":"palette.png"
		}
	],
	"accessors":[
		{
			"bufferView":0,
			"componentType":5126,
			"count":32,
			"max":[
				1.5101624727249146,
				0.05726301670074463,
				1
			],
			"min":[
				1.1920928955078125e-07,
				-0.04273688793182373,
				-1
			],
			"type":"VEC3"
		},
		{
			"bufferView":1,
			"componentType":5126,
			"count":32,
			"type":"VEC3"
		},
		{
			"bufferView":2,
			"componentType":5126,
			"count":32,
			"type":"VEC2"
		},
		{
			"bufferView":3,
			"componentType":5123,
			"count":78,
			"type":"SCALAR"
		},
		{
			"bufferView":4,
			"componentType":5126,
			"count":2694,
			"max":[
				3.242464065551758,
				1.4244000911712646,
				1.1501190662384033
			],
			"min":[
				-3.0266036987304688,
				-1.9670610427856445,
				-1.1599829196929932
			],
			"type":"VEC3"
		},
		{
			"bufferView":5,
			"componentType":5126,
			"count":2694,
			"type":"VEC3"
		},
		{
			"bufferView":6,
			"componentType":5126,
			"count":2694,
			"type":"VEC2"
		},
		{
			"bufferView":7,
			"componentType":5123,
			"count":6825,
			"type":"SCALAR"
		},
		{
			"bufferView":8,
			"componentType":5126,
			"count":192,
			"max":[
				-2.9097611904144287,
				-0.679058313369751,
				0.6919175982475281
			],
			"min":[
				-3.100233316421509,
				-0.9448567628860474,
				-0.6919175982475281
			],
			"type":"VEC3"
		},
		{
			"bufferView":9,
			"componentType":5126,
			"count":192,
			"type":"VEC3"
		},
		{
			"bufferView":10,
			"componentType":5126,
			"count":192,
			"type":"VEC2"
		},
		{
			"bufferView":11,
			"componentType":5123,
			"count":648,
			"type":"SCALAR"
		},
		{
			"bufferView":12,
			"componentType":5126,
			"count":96,
			"max":[
				3.379767656326294,
				-0.679058313369751,
				0.3008921444416046
			],
			"min":[
				3.189295530319214,
				-0.9448567628860474,
				-0.3008921444416046
			],
			"type":"VEC3"
		},
		{
			"bufferView":13,
			"componentType":5126,
			"count":96,
			"type":"VEC3"
		},
		{
			"bufferView":14,
			"componentType":5126,
			"count":96,
			"type":"VEC2"
		},
		{
			"bufferView":15,
			"componentType":5123,
			"count":324,
			"type":"SCALAR"
		},
		{
			"bufferView":16,
			"componentType":5126,
			"count":64,
			"max":[
				3.293044090270996,
				1.4656115770339966,
				1
			],
			"min":[
				0.27271944284439087,
				-0.4343883991241455,
				-1
			],
			"type":"VEC3"
		},
		{
			"bufferView":17,
			"componentType":5126,
			"count":64,
			"type":"VEC3"
		},
		{
			"bufferView":18,
			"componentType":5126,
			"count":64,
			"type":"VEC2"
		},
		{
			"bufferView":19,
			"componentType":5123,
			"count":198,
			"type":"SCALAR"
		},
		{
			"bufferView":20,
			"componentType":5126,
			"count":32,
			"max":[
				1.7828818559646606,
				1.565611481666565,
				1
			],
			"min":[
				0.27271944284439087,
				1.4656115770339966,
				-1
			],
			"type":"VEC3"
		},
		{
			"bufferView":21,
			"componentType":5126,
			"count":32,
			"type":"VEC3"
		},
		{
			"bufferView":22,
			"componentType":5126,
			"count":32,
			"type":"VEC2"
		},
		{
			"bufferView":23,
			"componentType":5123,
			"count":78,
			"type":"SCALAR"
		},
		{
			"bufferView":24,
			"componentType":5126,
			"count":2,
			"max":[
				0.625
			],
			"min":[
				0
			],
			"type":"SCALAR"
		},
		{
			"bufferView":25,
			"componentType":5126,
			"count":2,
			"type":"VEC3"
		},
		{
			"bufferView":26,
			"componentType":5126,
			"count":16,
			"max":[
				0.625
			],
			"min":[
				0
			],
			"type":"SCALAR"
		},
		{
			"bufferView":27,
			"componentType":5126,
			"count":16,
			"type":"VEC4"
		},
		{
			"bufferView":28,
			"componentType":5126,
			"count":2,
			"type":"VEC3"
		}
	],
	"bufferViews":[
		{
			"buffer":0,
			"byteLength":384,
			"byteOffset":0,
			"target":34962
		},
		{
			"buffer":0,
			"byteLength":384,
			"byteOffset":384,
			"target":34962
		},
		{
			"buffer":0,
			"byteLength":256,
			"byteOffset":768,
			"target":34962
		},
		{
			"buffer":0,
			"byteLength":156,
			"byteOffset":1024,
			"target":34963
		},
		{
			"buffer":0,
			"byteLength":32328,
			"byteOffset":1180,
			"target":34962
		},
		{
			"buffer":0,
			"byteLength":32328,
			"byteOffset":33508,
			"target":34962
		},
		{
			"buffer":0,
			"byteLength":21552,
			"byteOffset":65836,
			"target":34962
		},
		{
			"buffer":0,
			"byteLength":13650,
			"byteOffset":87388,
			"target":34963
		},
		{
			"buffer":0,
			"byteLength":2304,
			"byteOffset":101040,
			"target":34962
		},
		{
			"buffer":0,
			"byteLength":2304,
			"byteOffset":103344,
			"target":34962
		},
		{
			"buffer":0,
			"byteLength":1536,
			"byteOffset":105648,
			"target":34962
		},
		{
			"buffer":0,
			"byteLength":1296,
			"byteOffset":107184,
			"target":34963
		},
		{
			"buffer":0,
			"byteLength":1152,
			"byteOffset":108480,
			"target":34962
		},
		{
			"buffer":0,
			"byteLength":1152,
			"byteOffset":109632,
			"target":34962
		},
		{
			"buffer":0,
			"byteLength":768,
			"byteOffset":110784,
			"target":34962
		},
		{
			"buffer":0,
			"byteLength":648,
			"byteOffset":111552,
			"target":34963
		},
		{
			"buffer":0,
			"byteLength":768,
			"byteOffset":112200,
			"target":34962
		},
		{
			"buffer":0,
			"byteLength":768,
			"byteOffset":112968,
			"target":34962
		},
		{
			"buffer":0,
			"byteLength":512,
			"byteOffset":113736,
			"target":34962
		},
		{
			"buffer":0,
			"byteLength":396,
			"byteOffset":114248,
			"target":34963
		},
		{
			"buffer":0,
			"byteLength":384,
			"byteOffset":114644,
			"target":34962
		},
		{
			"buffer":0,
			"byteLength":384,
			"byteOffset":115028,
			"target":34962
		},
		{
			"buffer":0,
			"byteLength":256,
			"byteOffset":115412,
			"target":34962
		},
		{
			"buffer":0,
			"byteLength":156,
			"byteOffset":115668,
			"target":34963
		},
		{
			"buffer":0,
			"byteLength":8,
			"byteOffset":115824
		},
		{
			"buffer":0,
			"byteLength":24,
			"byteOffset":115832
		},
		{
			"buffer":0,
			"byteLength":64,
			"byteOffset":115856
		},
		{
			"buffer":0,
			"byteLength":256,
			"byteOffset":115920
		},
		{
			"buffer":0,
			"byteLength":24,
			"byteOffset":116176
		}
	],
	"samplers":[
		{
			"magFilter":9728,
			"minFilter":9984
		}
	],
	"buffers":[
		{
			"byteLength":116200,
			"uri":"dostawczak-zamykanie.bin"
		}
	]
}
