{
	"asset":{
		"generator":"Khronos glTF Blender I/O v5.1.19",
		"version":"2.0"
	},
	"scene":0,
	"scenes":[
		{
			"name":"Scene",
			"nodes":[
				17
			]
		}
	],
	"nodes":[
		{
			"name":"reka-p",
			"rotation":[
				1.4780318635665424e-10,
				-8.053022781950858e-08,
				0.004014520440250635,
				0.9999919533729553
			],
			"translation":[
				-3.8750126662989715e-08,
				0.3771648108959198,
				2.0134987011033445e-08
			]
		},
		{
			"children":[
				0
			],
			"name":"klatka-p",
			"rotation":[
				1.5454320489993734e-08,
				1.54543009500685e-08,
				-0.7071067690849304,
				0.7071067690849304
			],
			"scale":[
				0.9999998211860657,
				0.9999998211860657,
				0.9999999403953552
			],
			"translation":[
				1.7171791455439234e-07,
				0.19190877676010132,
				-3.3708147384459153e-10
			]
		},
		{
			"name":"kapelusz",
			"rotation":[
				0,
				-1.4210856409267898e-14,
				0,
				1
			],
			"scale":[
				0.9999999403953552,
				0.9999999403953552,
				0.9999999403953552
			],
			"translation":[
				1.7171791455439234e-07,
				0.448377400636673,
				-3.3708147384459153e-10
			]
		},
		{
			"children":[
				2
			],
			"name":"gora",
			"rotation":[
				0,
				-1.4210856409267898e-14,
				0,
				1
			],
			"scale":[
				0.9999999403953552,
				0.9999999403953552,
				0.9999999403953552
			],
			"translation":[
				1.7171791455439234e-07,
				0.19190877676010132,
				-3.3708147384459153e-10
			]
		},
		{
			"name":"reka-l",
			"rotation":[
				-1.0097419586828951e-28,
				5.962445648322046e-09,
				7.331474333958223e-22,
				1
			],
			"scale":[
				0.9999999403953552,
				1,
				0.9999999403953552
			],
			"translation":[
				7.065128926342368e-09,
				0.37716493010520935,
				-3.547849569685013e-09
			]
		},
		{
			"children":[
				4
			],
			"name":"klatka-l",
			"rotation":[
				0.5000000596046448,
				-0.5,
				0.5,
				0.5
			],
			"scale":[
				0.9999997615814209,
				0.9999997019767761,
				0.9999998211860657
			],
			"translation":[
				1.7171791455439234e-07,
				0.19190874695777893,
				-3.3708147384459153e-10
			]
		},
		{
			"children":[
				1,
				3,
				5
			],
			"name":"glowna",
			"rotation":[
				0,
				-1.4210856409267898e-14,
				0,
				1
			],
			"scale":[
				0.9999999403953552,
				0.9999999403953552,
				0.9999999403953552
			],
			"translation":[
				1.7171791455439234e-07,
				0,
				-3.3708147384459153e-10
			]
		},
		{
			"name":"noga-p",
			"rotation":[
				-0.3151664733886719,
				1.0115155646417406e-07,
				-7.576296212619127e-08,
				0.9490364193916321
			],
			"scale":[
				1,
				0.9999999403953552,
				1
			],
			"translation":[
				2.8709754573696955e-08,
				0.21892942488193512,
				8.476327195694466e-08
			]
		},
		{
			"children":[
				7
			],
			"name":"miednica-p",
			"rotation":[
				-0.585974931716919,
				-0.3957692086696625,
				-0.5859750509262085,
				0.39576929807662964
			],
			"scale":[
				0.9999999403953552,
				0.9999999403953552,
				0.9999998807907104
			],
			"translation":[
				1.7171791455439234e-07,
				0,
				-3.3708147384459153e-10
			]
		},
		{
			"name":"noga-l",
			"rotation":[
				0.31516656279563904,
				2.7714006023416005e-07,
				5.9256954898501135e-08,
				0.9490363597869873
			],
			"scale":[
				1,
				0.9999998807907104,
				0.9999998807907104
			],
			"translation":[
				2.9453035566007202e-08,
				0.21892976760864258,
				1.5403639253008805e-08
			]
		},
		{
			"children":[
				9
			],
			"name":"miednica-l",
			"rotation":[
				0.5859749913215637,
				-0.39576929807662964,
				0.5859749913215637,
				0.39576926827430725
			],
			"scale":[
				0.9999999403953552,
				1.000000238418579,
				0.9999998807907104
			],
			"translation":[
				1.7171791455439234e-07,
				0,
				-3.3708147384459153e-10
			]
		},
		{
			"mesh":0,
			"name":"brwi.001",
			"skin":0
		},
		{
			"mesh":1,
			"name":"Cube.007",
			"skin":0
		},
		{
			"mesh":2,
			"name":"Sphere.003",
			"skin":0
		},
		{
			"mesh":3,
			"name":"Sphere.004",
			"skin":0
		},
		{
			"mesh":4,
			"name":"Sphere.005",
			"skin":0
		},
		{
			"mesh":5,
			"name":"usta.001",
			"skin":0
		},
		{
			"children":[
				11,
				12,
				13,
				14,
				15,
				16,
				6,
				8,
				10
			],
			"name":"Armature.002",
			"rotation":[
				0,
				-1,
				0,
				1.6292069915380125e-07
			],
			"scale":[
				0.8117275238037109,
				0.8117275238037109,
				0.8117275238037109
			],
			"translation":[
				2.5250940322875977,
				0.08594492077827454,
				-0.16616296768188477
			]
		}
	],
	"animations":[
		{
			"channels":[
				{
					"sampler":0,
					"target":{
						"node":6,
						"path":"translation"
					}
				},
				{
					"sampler":1,
					"target":{
						"node":6,
						"path":"rotation"
					}
				},
				{
					"sampler":2,
					"target":{
						"node":6,
						"path":"scale"
					}
				},
				{
					"sampler":3,
					"target":{
						"node":1,
						"path":"translation"
					}
				},
				{
					"sampler":4,
					"target":{
						"node":1,
						"path":"rotation"
					}
				},
				{
					"sampler":5,
					"target":{
						"node":1,
						"path":"scale"
					}
				},
				{
					"sampler":6,
					"target":{
						"node":0,
						"path":"translation"
					}
				},
				{
					"sampler":7,
					"target":{
						"node":0,
						"path":"rotation"
					}
				},
				{
					"sampler":8,
					"target":{
						"node":0,
						"path":"scale"
					}
				},
				{
					"sampler":9,
					"target":{
						"node":3,
						"path":"translation"
					}
				},
				{
					"sampler":10,
					"target":{
						"node":3,
						"path":"rotation"
					}
				},
				{
					"sampler":11,
					"target":{
						"node":3,
						"path":"scale"
					}
				},
				{
					"sampler":12,
					"target":{
						"node":2,
						"path":"translation"
					}
				},
				{
					"sampler":13,
					"target":{
						"node":2,
						"path":"rotation"
					}
				},
				{
					"sampler":14,
					"target":{
						"node":2,
						"path":"scale"
					}
				},
				{
					"sampler":15,
					"target":{
						"node":5,
						"path":"translation"
					}
				},
				{
					"sampler":16,
					"target":{
						"node":5,
						"path":"rotation"
					}
				},
				{
					"sampler":17,
					"target":{
						"node":5,
						"path":"scale"
					}
				},
				{
					"sampler":18,
					"target":{
						"node":4,
						"path":"translation"
					}
				},
				{
					"sampler":19,
					"target":{
						"node":4,
						"path":"rotation"
					}
				},
				{
					"sampler":20,
					"target":{
						"node":4,
						"path":"scale"
					}
				},
				{
					"sampler":21,
					"target":{
						"node":8,
						"path":"translation"
					}
				},
				{
					"sampler":22,
					"target":{
						"node":8,
						"path":"rotation"
					}
				},
				{
					"sampler":23,
					"target":{
						"node":8,
						"path":"scale"
					}
				},
				{
					"sampler":24,
					"target":{
						"node":7,
						"path":"translation"
					}
				},
				{
					"sampler":25,
					"target":{
						"node":7,
						"path":"rotation"
					}
				},
				{
					"sampler":26,
					"target":{
						"node":7,
						"path":"scale"
					}
				},
				{
					"sampler":27,
					"target":{
						"node":10,
						"path":"translation"
					}
				},
				{
					"sampler":28,
					"target":{
						"node":10,
						"path":"rotation"
					}
				},
				{
					"sampler":29,
					"target":{
						"node":10,
						"path":"scale"
					}
				},
				{
					"sampler":30,
					"target":{
						"node":9,
						"path":"translation"
					}
				},
				{
					"sampler":31,
					"target":{
						"node":9,
						"path":"rotation"
					}
				},
				{
					"sampler":32,
					"target":{
						"node":9,
						"path":"scale"
					}
				},
				{
					"sampler":33,
					"target":{
						"node":17,
						"path":"translation"
					}
				},
				{
					"sampler":34,
					"target":{
						"node":17,
						"path":"rotation"
					}
				},
				{
					"sampler":35,
					"target":{
						"node":17,
						"path":"scale"
					}
				}
			],
			"name":"Armature.002Action",
			"samplers":[
				{
					"input":39,
					"interpolation":"STEP",
					"output":40
				},
				{
					"input":39,
					"interpolation":"STEP",
					"output":41
				},
				{
					"input":39,
					"interpolation":"STEP",
					"output":42
				},
				{
					"input":39,
					"interpolation":"STEP",
					"output":43
				},
				{
					"input":39,
					"interpolation":"STEP",
					"output":44
				},
				{
					"input":39,
					"interpolation":"STEP",
					"output":45
				},
				{
					"input":39,
					"interpolation":"STEP",
					"output":46
				},
				{
					"input":47,
					"interpolation":"LINEAR",
					"output":48
				},
				{
					"input":39,
					"interpolation":"STEP",
					"output":42
				},
				{
					"input":39,
					"interpolation":"STEP",
					"output":49
				},
				{
					"input":39,
					"interpolation":"STEP",
					"output":41
				},
				{
					"input":39,
					"interpolation":"STEP",
					"output":42
				},
				{
					"input":39,
					"interpolation":"STEP",
					"output":50
				},
				{
					"input":47,
					"interpolation":"LINEAR",
					"output":51
				},
				{
					"input":39,
					"interpolation":"STEP",
					"output":52
				},
				{
					"input":39,
					"interpolation":"STEP",
					"output":53
				},
				{
					"input":39,
					"interpolation":"STEP",
					"output":54
				},
				{
					"input":39,
					"interpolation":"STEP",
					"output":55
				},
				{
					"input":39,
					"interpolation":"STEP",
					"output":56
				},
				{
					"input":39,
					"interpolation":"STEP",
					"output":57
				},
				{
					"input":39,
					"interpolation":"STEP",
					"output":58
				},
				{
					"input":39,
					"interpolation":"STEP",
					"output":40
				},
				{
					"input":39,
					"interpolation":"STEP",
					"output":59
				},
				{
					"input":39,
					"interpolation":"STEP",
					"output":60
				},
				{
					"input":39,
					"interpolation":"STEP",
					"output":61
				},
				{
					"input":39,
					"interpolation":"STEP",
					"output":62
				},
				{
					"input":39,
					"interpolation":"STEP",
					"output":63
				},
				{
					"input":39,
					"interpolation":"STEP",
					"output":40
				},
				{
					"input":39,
					"interpolation":"STEP",
					"output":64
				},
				{
					"input":39,
					"interpolation":"STEP",
					"output":65
				},
				{
					"input":39,
					"interpolation":"STEP",
					"output":66
				},
				{
					"input":39,
					"interpolation":"STEP",
					"output":67
				},
				{
					"input":39,
					"interpolation":"STEP",
					"output":42
				},
				{
					"input":47,
					"interpolation":"LINEAR",
					"output":68
				},
				{
					"input":39,
					"interpolation":"STEP",
					"output":69
				},
				{
					"input":39,
					"interpolation":"STEP",
					"output":70
				}
			]
		},
		{
			"channels":[
				{
					"sampler":0,
					"target":{
						"node":6,
						"path":"translation"
					}
				},
				{
					"sampler":1,
					"target":{
						"node":6,
						"path":"rotation"
					}
				},
				{
					"sampler":2,
					"target":{
						"node":6,
						"path":"scale"
					}
				},
				{
					"sampler":3,
					"target":{
						"node":1,
						"path":"translation"
					}
				},
				{
					"sampler":4,
					"target":{
						"node":1,
						"path":"rotation"
					}
				},
				{
					"sampler":5,
					"target":{
						"node":1,
						"path":"scale"
					}
				},
				{
					"sampler":6,
					"target":{
						"node":0,
						"path":"translation"
					}
				},
				{
					"sampler":7,
					"target":{
						"node":0,
						"path":"rotation"
					}
				},
				{
					"sampler":8,
					"target":{
						"node":0,
						"path":"scale"
					}
				},
				{
					"sampler":9,
					"target":{
						"node":3,
						"path":"translation"
					}
				},
				{
					"sampler":10,
					"target":{
						"node":3,
						"path":"rotation"
					}
				},
				{
					"sampler":11,
					"target":{
						"node":3,
						"path":"scale"
					}
				},
				{
					"sampler":12,
					"target":{
						"node":2,
						"path":"translation"
					}
				},
				{
					"sampler":13,
					"target":{
						"node":2,
						"path":"rotation"
					}
				},
				{
					"sampler":14,
					"target":{
						"node":2,
						"path":"scale"
					}
				},
				{
					"sampler":15,
					"target":{
						"node":5,
						"path":"translation"
					}
				},
				{
					"sampler":16,
					"target":{
						"node":5,
						"path":"rotation"
					}
				},
				{
					"sampler":17,
					"target":{
						"node":5,
						"path":"scale"
					}
				},
				{
					"sampler":18,
					"target":{
						"node":4,
						"path":"translation"
					}
				},
				{
					"sampler":19,
					"target":{
						"node":4,
						"path":"rotation"
					}
				},
				{
					"sampler":20,
					"target":{
						"node":4,
						"path":"scale"
					}
				},
				{
					"sampler":21,
					"target":{
						"node":8,
						"path":"translation"
					}
				},
				{
					"sampler":22,
					"target":{
						"node":8,
						"path":"rotation"
					}
				},
				{
					"sampler":23,
					"target":{
						"node":8,
						"path":"scale"
					}
				},
				{
					"sampler":24,
					"target":{
						"node":7,
						"path":"translation"
					}
				},
				{
					"sampler":25,
					"target":{
						"node":7,
						"path":"rotation"
					}
				},
				{
					"sampler":26,
					"target":{
						"node":7,
						"path":"scale"
					}
				},
				{
					"sampler":27,
					"target":{
						"node":10,
						"path":"translation"
					}
				},
				{
					"sampler":28,
					"target":{
						"node":10,
						"path":"rotation"
					}
				},
				{
					"sampler":29,
					"target":{
						"node":10,
						"path":"scale"
					}
				},
				{
					"sampler":30,
					"target":{
						"node":9,
						"path":"translation"
					}
				},
				{
					"sampler":31,
					"target":{
						"node":9,
						"path":"rotation"
					}
				},
				{
					"sampler":32,
					"target":{
						"node":9,
						"path":"scale"
					}
				},
				{
					"sampler":33,
					"target":{
						"node":17,
						"path":"translation"
					}
				},
				{
					"sampler":34,
					"target":{
						"node":17,
						"path":"rotation"
					}
				},
				{
					"sampler":35,
					"target":{
						"node":17,
						"path":"scale"
					}
				}
			],
			"name":"Armature.002Action.001",
			"samplers":[
				{
					"input":71,
					"interpolation":"STEP",
					"output":40
				},
				{
					"input":71,
					"interpolation":"STEP",
					"output":41
				},
				{
					"input":71,
					"interpolation":"STEP",
					"output":42
				},
				{
					"input":71,
					"interpolation":"STEP",
					"output":43
				},
				{
					"input":71,
					"interpolation":"STEP",
					"output":44
				},
				{
					"input":71,
					"interpolation":"STEP",
					"output":45
				},
				{
					"input":71,
					"interpolation":"STEP",
					"output":46
				},
				{
					"input":72,
					"interpolation":"LINEAR",
					"output":73
				},
				{
					"input":71,
					"interpolation":"STEP",
					"output":42
				},
				{
					"input":71,
					"interpolation":"STEP",
					"output":49
				},
				{
					"input":71,
					"interpolation":"STEP",
					"output":41
				},
				{
					"input":71,
					"interpolation":"STEP",
					"output":42
				},
				{
					"input":71,
					"interpolation":"STEP",
					"output":50
				},
				{
					"input":72,
					"interpolation":"LINEAR",
					"output":74
				},
				{
					"input":71,
					"interpolation":"STEP",
					"output":52
				},
				{
					"input":71,
					"interpolation":"STEP",
					"output":53
				},
				{
					"input":71,
					"interpolation":"STEP",
					"output":54
				},
				{
					"input":71,
					"interpolation":"STEP",
					"output":55
				},
				{
					"input":71,
					"interpolation":"STEP",
					"output":56
				},
				{
					"input":71,
					"interpolation":"STEP",
					"output":57
				},
				{
					"input":71,
					"interpolation":"STEP",
					"output":58
				},
				{
					"input":71,
					"interpolation":"STEP",
					"output":40
				},
				{
					"input":71,
					"interpolation":"STEP",
					"output":59
				},
				{
					"input":71,
					"interpolation":"STEP",
					"output":60
				},
				{
					"input":71,
					"interpolation":"STEP",
					"output":61
				},
				{
					"input":71,
					"interpolation":"STEP",
					"output":62
				},
				{
					"input":71,
					"interpolation":"STEP",
					"output":63
				},
				{
					"input":71,
					"interpolation":"STEP",
					"output":40
				},
				{
					"input":71,
					"interpolation":"STEP",
					"output":64
				},
				{
					"input":71,
					"interpolation":"STEP",
					"output":65
				},
				{
					"input":71,
					"interpolation":"STEP",
					"output":66
				},
				{
					"input":71,
					"interpolation":"STEP",
					"output":67
				},
				{
					"input":71,
					"interpolation":"STEP",
					"output":42
				},
				{
					"input":71,
					"interpolation":"STEP",
					"output":75
				},
				{
					"input":71,
					"interpolation":"STEP",
					"output":69
				},
				{
					"input":71,
					"interpolation":"STEP",
					"output":70
				}
			]
		},
		{
			"channels":[
				{
					"sampler":0,
					"target":{
						"node":6,
						"path":"translation"
					}
				},
				{
					"sampler":1,
					"target":{
						"node":6,
						"path":"rotation"
					}
				},
				{
					"sampler":2,
					"target":{
						"node":6,
						"path":"scale"
					}
				},
				{
					"sampler":3,
					"target":{
						"node":1,
						"path":"translation"
					}
				},
				{
					"sampler":4,
					"target":{
						"node":1,
						"path":"rotation"
					}
				},
				{
					"sampler":5,
					"target":{
						"node":1,
						"path":"scale"
					}
				},
				{
					"sampler":6,
					"target":{
						"node":0,
						"path":"translation"
					}
				},
				{
					"sampler":7,
					"target":{
						"node":0,
						"path":"rotation"
					}
				},
				{
					"sampler":8,
					"target":{
						"node":0,
						"path":"scale"
					}
				},
				{
					"sampler":9,
					"target":{
						"node":3,
						"path":"translation"
					}
				},
				{
					"sampler":10,
					"target":{
						"node":3,
						"path":"rotation"
					}
				},
				{
					"sampler":11,
					"target":{
						"node":3,
						"path":"scale"
					}
				},
				{
					"sampler":12,
					"target":{
						"node":2,
						"path":"translation"
					}
				},
				{
					"sampler":13,
					"target":{
						"node":2,
						"path":"rotation"
					}
				},
				{
					"sampler":14,
					"target":{
						"node":2,
						"path":"scale"
					}
				},
				{
					"sampler":15,
					"target":{
						"node":5,
						"path":"translation"
					}
				},
				{
					"sampler":16,
					"target":{
						"node":5,
						"path":"rotation"
					}
				},
				{
					"sampler":17,
					"target":{
						"node":5,
						"path":"scale"
					}
				},
				{
					"sampler":18,
					"target":{
						"node":4,
						"path":"translation"
					}
				},
				{
					"sampler":19,
					"target":{
						"node":4,
						"path":"rotation"
					}
				},
				{
					"sampler":20,
					"target":{
						"node":4,
						"path":"scale"
					}
				},
				{
					"sampler":21,
					"target":{
						"node":8,
						"path":"translation"
					}
				},
				{
					"sampler":22,
					"target":{
						"node":8,
						"path":"rotation"
					}
				},
				{
					"sampler":23,
					"target":{
						"node":8,
						"path":"scale"
					}
				},
				{
					"sampler":24,
					"target":{
						"node":7,
						"path":"translation"
					}
				},
				{
					"sampler":25,
					"target":{
						"node":7,
						"path":"rotation"
					}
				},
				{
					"sampler":26,
					"target":{
						"node":7,
						"path":"scale"
					}
				},
				{
					"sampler":27,
					"target":{
						"node":10,
						"path":"translation"
					}
				},
				{
					"sampler":28,
					"target":{
						"node":10,
						"path":"rotation"
					}
				},
				{
					"sampler":29,
					"target":{
						"node":10,
						"path":"scale"
					}
				},
				{
					"sampler":30,
					"target":{
						"node":9,
						"path":"translation"
					}
				},
				{
					"sampler":31,
					"target":{
						"node":9,
						"path":"rotation"
					}
				},
				{
					"sampler":32,
					"target":{
						"node":9,
						"path":"scale"
					}
				},
				{
					"sampler":33,
					"target":{
						"node":17,
						"path":"translation"
					}
				},
				{
					"sampler":34,
					"target":{
						"node":17,
						"path":"rotation"
					}
				},
				{
					"sampler":35,
					"target":{
						"node":17,
						"path":"scale"
					}
				}
			],
			"name":"Armature.002Action.002",
			"samplers":[
				{
					"input":71,
					"interpolation":"STEP",
					"output":40
				},
				{
					"input":71,
					"interpolation":"STEP",
					"output":41
				},
				{
					"input":71,
					"interpolation":"STEP",
					"output":42
				},
				{
					"input":71,
					"interpolation":"STEP",
					"output":43
				},
				{
					"input":71,
					"interpolation":"STEP",
					"output":44
				},
				{
					"input":71,
					"interpolation":"STEP",
					"output":45
				},
				{
					"input":71,
					"interpolation":"STEP",
					"output":46
				},
				{
					"input":72,
					"interpolation":"LINEAR",
					"output":76
				},
				{
					"input":71,
					"interpolation":"STEP",
					"output":42
				},
				{
					"input":71,
					"interpolation":"STEP",
					"output":49
				},
				{
					"input":71,
					"interpolation":"STEP",
					"output":41
				},
				{
					"input":71,
					"interpolation":"STEP",
					"output":42
				},
				{
					"input":71,
					"interpolation":"STEP",
					"output":50
				},
				{
					"input":72,
					"interpolation":"LINEAR",
					"output":77
				},
				{
					"input":71,
					"interpolation":"STEP",
					"output":78
				},
				{
					"input":71,
					"interpolation":"STEP",
					"output":53
				},
				{
					"input":71,
					"interpolation":"STEP",
					"output":54
				},
				{
					"input":71,
					"interpolation":"STEP",
					"output":55
				},
				{
					"input":71,
					"interpolation":"STEP",
					"output":56
				},
				{
					"input":71,
					"interpolation":"STEP",
					"output":57
				},
				{
					"input":71,
					"interpolation":"STEP",
					"output":58
				},
				{
					"input":71,
					"interpolation":"STEP",
					"output":40
				},
				{
					"input":71,
					"interpolation":"STEP",
					"output":59
				},
				{
					"input":71,
					"interpolation":"STEP",
					"output":60
				},
				{
					"input":71,
					"interpolation":"STEP",
					"output":61
				},
				{
					"input":71,
					"interpolation":"STEP",
					"output":62
				},
				{
					"input":71,
					"interpolation":"STEP",
					"output":63
				},
				{
					"input":71,
					"interpolation":"STEP",
					"output":40
				},
				{
					"input":71,
					"interpolation":"STEP",
					"output":64
				},
				{
					"input":71,
					"interpolation":"STEP",
					"output":65
				},
				{
					"input":71,
					"interpolation":"STEP",
					"output":66
				},
				{
					"input":71,
					"interpolation":"STEP",
					"output":67
				},
				{
					"input":71,
					"interpolation":"STEP",
					"output":42
				},
				{
					"input":71,
					"interpolation":"STEP",
					"output":75
				},
				{
					"input":71,
					"interpolation":"STEP",
					"output":69
				},
				{
					"input":71,
					"interpolation":"STEP",
					"output":70
				}
			]
		},
		{
			"channels":[
				{
					"sampler":0,
					"target":{
						"node":6,
						"path":"translation"
					}
				},
				{
					"sampler":1,
					"target":{
						"node":6,
						"path":"rotation"
					}
				},
				{
					"sampler":2,
					"target":{
						"node":6,
						"path":"scale"
					}
				},
				{
					"sampler":3,
					"target":{
						"node":1,
						"path":"translation"
					}
				},
				{
					"sampler":4,
					"target":{
						"node":1,
						"path":"rotation"
					}
				},
				{
					"sampler":5,
					"target":{
						"node":1,
						"path":"scale"
					}
				},
				{
					"sampler":6,
					"target":{
						"node":0,
						"path":"translation"
					}
				},
				{
					"sampler":7,
					"target":{
						"node":0,
						"path":"rotation"
					}
				},
				{
					"sampler":8,
					"target":{
						"node":0,
						"path":"scale"
					}
				},
				{
					"sampler":9,
					"target":{
						"node":3,
						"path":"translation"
					}
				},
				{
					"sampler":10,
					"target":{
						"node":3,
						"path":"rotation"
					}
				},
				{
					"sampler":11,
					"target":{
						"node":3,
						"path":"scale"
					}
				},
				{
					"sampler":12,
					"target":{
						"node":2,
						"path":"translation"
					}
				},
				{
					"sampler":13,
					"target":{
						"node":2,
						"path":"rotation"
					}
				},
				{
					"sampler":14,
					"target":{
						"node":2,
						"path":"scale"
					}
				},
				{
					"sampler":15,
					"target":{
						"node":5,
						"path":"translation"
					}
				},
				{
					"sampler":16,
					"target":{
						"node":5,
						"path":"rotation"
					}
				},
				{
					"sampler":17,
					"target":{
						"node":5,
						"path":"scale"
					}
				},
				{
					"sampler":18,
					"target":{
						"node":4,
						"path":"translation"
					}
				},
				{
					"sampler":19,
					"target":{
						"node":4,
						"path":"rotation"
					}
				},
				{
					"sampler":20,
					"target":{
						"node":4,
						"path":"scale"
					}
				},
				{
					"sampler":21,
					"target":{
						"node":8,
						"path":"translation"
					}
				},
				{
					"sampler":22,
					"target":{
						"node":8,
						"path":"rotation"
					}
				},
				{
					"sampler":23,
					"target":{
						"node":8,
						"path":"scale"
					}
				},
				{
					"sampler":24,
					"target":{
						"node":7,
						"path":"translation"
					}
				},
				{
					"sampler":25,
					"target":{
						"node":7,
						"path":"rotation"
					}
				},
				{
					"sampler":26,
					"target":{
						"node":7,
						"path":"scale"
					}
				},
				{
					"sampler":27,
					"target":{
						"node":10,
						"path":"translation"
					}
				},
				{
					"sampler":28,
					"target":{
						"node":10,
						"path":"rotation"
					}
				},
				{
					"sampler":29,
					"target":{
						"node":10,
						"path":"scale"
					}
				},
				{
					"sampler":30,
					"target":{
						"node":9,
						"path":"translation"
					}
				},
				{
					"sampler":31,
					"target":{
						"node":9,
						"path":"rotation"
					}
				},
				{
					"sampler":32,
					"target":{
						"node":9,
						"path":"scale"
					}
				},
				{
					"sampler":33,
					"target":{
						"node":17,
						"path":"translation"
					}
				},
				{
					"sampler":34,
					"target":{
						"node":17,
						"path":"rotation"
					}
				},
				{
					"sampler":35,
					"target":{
						"node":17,
						"path":"scale"
					}
				}
			],
			"name":"Armature.002Action.003",
			"samplers":[
				{
					"input":71,
					"interpolation":"STEP",
					"output":40
				},
				{
					"input":71,
					"interpolation":"STEP",
					"output":41
				},
				{
					"input":71,
					"interpolation":"STEP",
					"output":42
				},
				{
					"input":71,
					"interpolation":"STEP",
					"output":43
				},
				{
					"input":71,
					"interpolation":"STEP",
					"output":44
				},
				{
					"input":71,
					"interpolation":"STEP",
					"output":45
				},
				{
					"input":71,
					"interpolation":"STEP",
					"output":46
				},
				{
					"input":72,
					"interpolation":"LINEAR",
					"output":73
				},
				{
					"input":71,
					"interpolation":"STEP",
					"output":42
				},
				{
					"input":71,
					"interpolation":"STEP",
					"output":49
				},
				{
					"input":71,
					"interpolation":"STEP",
					"output":41
				},
				{
					"input":71,
					"interpolation":"STEP",
					"output":42
				},
				{
					"input":71,
					"interpolation":"STEP",
					"output":50
				},
				{
					"input":72,
					"interpolation":"LINEAR",
					"output":74
				},
				{
					"input":71,
					"interpolation":"STEP",
					"output":52
				},
				{
					"input":71,
					"interpolation":"STEP",
					"output":53
				},
				{
					"input":71,
					"interpolation":"STEP",
					"output":54
				},
				{
					"input":71,
					"interpolation":"STEP",
					"output":55
				},
				{
					"input":71,
					"interpolation":"STEP",
					"output":56
				},
				{
					"input":71,
					"interpolation":"STEP",
					"output":57
				},
				{
					"input":71,
					"interpolation":"STEP",
					"output":58
				},
				{
					"input":71,
					"interpolation":"STEP",
					"output":40
				},
				{
					"input":71,
					"interpolation":"STEP",
					"output":59
				},
				{
					"input":71,
					"interpolation":"STEP",
					"output":60
				},
				{
					"input":71,
					"interpolation":"STEP",
					"output":61
				},
				{
					"input":71,
					"interpolation":"STEP",
					"output":62
				},
				{
					"input":71,
					"interpolation":"STEP",
					"output":63
				},
				{
					"input":71,
					"interpolation":"STEP",
					"output":40
				},
				{
					"input":71,
					"interpolation":"STEP",
					"output":64
				},
				{
					"input":71,
					"interpolation":"STEP",
					"output":65
				},
				{
					"input":71,
					"interpolation":"STEP",
					"output":66
				},
				{
					"input":71,
					"interpolation":"STEP",
					"output":67
				},
				{
					"input":71,
					"interpolation":"STEP",
					"output":42
				},
				{
					"input":71,
					"interpolation":"STEP",
					"output":75
				},
				{
					"input":71,
					"interpolation":"STEP",
					"output":69
				},
				{
					"input":71,
					"interpolation":"STEP",
					"output":70
				}
			]
		},
		{
			"channels":[
				{
					"sampler":0,
					"target":{
						"node":6,
						"path":"translation"
					}
				},
				{
					"sampler":1,
					"target":{
						"node":6,
						"path":"rotation"
					}
				},
				{
					"sampler":2,
					"target":{
						"node":6,
						"path":"scale"
					}
				},
				{
					"sampler":3,
					"target":{
						"node":1,
						"path":"translation"
					}
				},
				{
					"sampler":4,
					"target":{
						"node":1,
						"path":"rotation"
					}
				},
				{
					"sampler":5,
					"target":{
						"node":1,
						"path":"scale"
					}
				},
				{
					"sampler":6,
					"target":{
						"node":0,
						"path":"translation"
					}
				},
				{
					"sampler":7,
					"target":{
						"node":0,
						"path":"rotation"
					}
				},
				{
					"sampler":8,
					"target":{
						"node":0,
						"path":"scale"
					}
				},
				{
					"sampler":9,
					"target":{
						"node":3,
						"path":"translation"
					}
				},
				{
					"sampler":10,
					"target":{
						"node":3,
						"path":"rotation"
					}
				},
				{
					"sampler":11,
					"target":{
						"node":3,
						"path":"scale"
					}
				},
				{
					"sampler":12,
					"target":{
						"node":2,
						"path":"translation"
					}
				},
				{
					"sampler":13,
					"target":{
						"node":2,
						"path":"rotation"
					}
				},
				{
					"sampler":14,
					"target":{
						"node":2,
						"path":"scale"
					}
				},
				{
					"sampler":15,
					"target":{
						"node":5,
						"path":"translation"
					}
				},
				{
					"sampler":16,
					"target":{
						"node":5,
						"path":"rotation"
					}
				},
				{
					"sampler":17,
					"target":{
						"node":5,
						"path":"scale"
					}
				},
				{
					"sampler":18,
					"target":{
						"node":4,
						"path":"translation"
					}
				},
				{
					"sampler":19,
					"target":{
						"node":4,
						"path":"rotation"
					}
				},
				{
					"sampler":20,
					"target":{
						"node":4,
						"path":"scale"
					}
				},
				{
					"sampler":21,
					"target":{
						"node":8,
						"path":"translation"
					}
				},
				{
					"sampler":22,
					"target":{
						"node":8,
						"path":"rotation"
					}
				},
				{
					"sampler":23,
					"target":{
						"node":8,
						"path":"scale"
					}
				},
				{
					"sampler":24,
					"target":{
						"node":7,
						"path":"translation"
					}
				},
				{
					"sampler":25,
					"target":{
						"node":7,
						"path":"rotation"
					}
				},
				{
					"sampler":26,
					"target":{
						"node":7,
						"path":"scale"
					}
				},
				{
					"sampler":27,
					"target":{
						"node":10,
						"path":"translation"
					}
				},
				{
					"sampler":28,
					"target":{
						"node":10,
						"path":"rotation"
					}
				},
				{
					"sampler":29,
					"target":{
						"node":10,
						"path":"scale"
					}
				},
				{
					"sampler":30,
					"target":{
						"node":9,
						"path":"translation"
					}
				},
				{
					"sampler":31,
					"target":{
						"node":9,
						"path":"rotation"
					}
				},
				{
					"sampler":32,
					"target":{
						"node":9,
						"path":"scale"
					}
				},
				{
					"sampler":33,
					"target":{
						"node":17,
						"path":"translation"
					}
				},
				{
					"sampler":34,
					"target":{
						"node":17,
						"path":"rotation"
					}
				},
				{
					"sampler":35,
					"target":{
						"node":17,
						"path":"scale"
					}
				}
			],
			"name":"Armature.002Action.004",
			"samplers":[
				{
					"input":79,
					"interpolation":"STEP",
					"output":40
				},
				{
					"input":79,
					"interpolation":"STEP",
					"output":41
				},
				{
					"input":79,
					"interpolation":"STEP",
					"output":42
				},
				{
					"input":79,
					"interpolation":"STEP",
					"output":43
				},
				{
					"input":79,
					"interpolation":"STEP",
					"output":44
				},
				{
					"input":79,
					"interpolation":"STEP",
					"output":45
				},
				{
					"input":79,
					"interpolation":"STEP",
					"output":46
				},
				{
					"input":80,
					"interpolation":"LINEAR",
					"output":81
				},
				{
					"input":79,
					"interpolation":"STEP",
					"output":42
				},
				{
					"input":79,
					"interpolation":"STEP",
					"output":49
				},
				{
					"input":79,
					"interpolation":"STEP",
					"output":41
				},
				{
					"input":79,
					"interpolation":"STEP",
					"output":42
				},
				{
					"input":79,
					"interpolation":"STEP",
					"output":50
				},
				{
					"input":80,
					"interpolation":"LINEAR",
					"output":82
				},
				{
					"input":79,
					"interpolation":"STEP",
					"output":78
				},
				{
					"input":79,
					"interpolation":"STEP",
					"output":53
				},
				{
					"input":79,
					"interpolation":"STEP",
					"output":54
				},
				{
					"input":79,
					"interpolation":"STEP",
					"output":55
				},
				{
					"input":79,
					"interpolation":"STEP",
					"output":56
				},
				{
					"input":79,
					"interpolation":"STEP",
					"output":57
				},
				{
					"input":79,
					"interpolation":"STEP",
					"output":58
				},
				{
					"input":79,
					"interpolation":"STEP",
					"output":40
				},
				{
					"input":79,
					"interpolation":"STEP",
					"output":59
				},
				{
					"input":79,
					"interpolation":"STEP",
					"output":60
				},
				{
					"input":79,
					"interpolation":"STEP",
					"output":61
				},
				{
					"input":79,
					"interpolation":"STEP",
					"output":62
				},
				{
					"input":79,
					"interpolation":"STEP",
					"output":63
				},
				{
					"input":79,
					"interpolation":"STEP",
					"output":40
				},
				{
					"input":79,
					"interpolation":"STEP",
					"output":64
				},
				{
					"input":79,
					"interpolation":"STEP",
					"output":65
				},
				{
					"input":79,
					"interpolation":"STEP",
					"output":66
				},
				{
					"input":79,
					"interpolation":"STEP",
					"output":67
				},
				{
					"input":79,
					"interpolation":"STEP",
					"output":42
				},
				{
					"input":80,
					"interpolation":"LINEAR",
					"output":83
				},
				{
					"input":79,
					"interpolation":"STEP",
					"output":84
				},
				{
					"input":79,
					"interpolation":"STEP",
					"output":85
				}
			]
		},
		{
			"channels":[
				{
					"sampler":0,
					"target":{
						"node":11,
						"path":"translation"
					}
				},
				{
					"sampler":1,
					"target":{
						"node":11,
						"path":"rotation"
					}
				},
				{
					"sampler":2,
					"target":{
						"node":11,
						"path":"scale"
					}
				}
			],
			"name":"brwi.001Action.002",
			"samplers":[
				{
					"input":79,
					"interpolation":"STEP",
					"output":86
				},
				{
					"input":79,
					"interpolation":"STEP",
					"output":87
				},
				{
					"input":79,
					"interpolation":"STEP",
					"output":42
				}
			]
		},
		{
			"channels":[
				{
					"sampler":0,
					"target":{
						"node":12,
						"path":"translation"
					}
				},
				{
					"sampler":1,
					"target":{
						"node":12,
						"path":"rotation"
					}
				},
				{
					"sampler":2,
					"target":{
						"node":12,
						"path":"scale"
					}
				}
			],
			"name":"Cube.001Action.004",
			"samplers":[
				{
					"input":79,
					"interpolation":"STEP",
					"output":88
				},
				{
					"input":79,
					"interpolation":"STEP",
					"output":89
				},
				{
					"input":79,
					"interpolation":"STEP",
					"output":42
				}
			]
		},
		{
			"channels":[
				{
					"sampler":0,
					"target":{
						"node":13,
						"path":"translation"
					}
				},
				{
					"sampler":1,
					"target":{
						"node":13,
						"path":"rotation"
					}
				},
				{
					"sampler":2,
					"target":{
						"node":13,
						"path":"scale"
					}
				}
			],
			"name":"Sphere.003Action.002",
			"samplers":[
				{
					"input":79,
					"interpolation":"STEP",
					"output":88
				},
				{
					"input":79,
					"interpolation":"STEP",
					"output":89
				},
				{
					"input":79,
					"interpolation":"STEP",
					"output":42
				}
			]
		},
		{
			"channels":[
				{
					"sampler":0,
					"target":{
						"node":14,
						"path":"translation"
					}
				},
				{
					"sampler":1,
					"target":{
						"node":14,
						"path":"rotation"
					}
				},
				{
					"sampler":2,
					"target":{
						"node":14,
						"path":"scale"
					}
				}
			],
			"name":"Sphere.004Action.002",
			"samplers":[
				{
					"input":79,
					"interpolation":"STEP",
					"output":88
				},
				{
					"input":79,
					"interpolation":"STEP",
					"output":89
				},
				{
					"input":79,
					"interpolation":"STEP",
					"output":42
				}
			]
		},
		{
			"channels":[
				{
					"sampler":0,
					"target":{
						"node":15,
						"path":"translation"
					}
				},
				{
					"sampler":1,
					"target":{
						"node":15,
						"path":"rotation"
					}
				},
				{
					"sampler":2,
					"target":{
						"node":15,
						"path":"scale"
					}
				}
			],
			"name":"Sphere.005Action.002",
			"samplers":[
				{
					"input":79,
					"interpolation":"STEP",
					"output":88
				},
				{
					"input":79,
					"interpolation":"STEP",
					"output":89
				},
				{
					"input":79,
					"interpolation":"STEP",
					"output":42
				}
			]
		},
		{
			"channels":[
				{
					"sampler":0,
					"target":{
						"node":16,
						"path":"translation"
					}
				},
				{
					"sampler":1,
					"target":{
						"node":16,
						"path":"rotation"
					}
				},
				{
					"sampler":2,
					"target":{
						"node":16,
						"path":"scale"
					}
				}
			],
			"name":"usta.001Action.002",
			"samplers":[
				{
					"input":79,
					"interpolation":"STEP",
					"output":90
				},
				{
					"input":79,
					"interpolation":"STEP",
					"output":87
				},
				{
					"input":79,
					"interpolation":"STEP",
					"output":42
				}
			]
		}
	],
	"materials":[
		{
			"doubleSided":true,
			"emissiveFactor":[
				0.19999980926513672,
				0.19999980926513672,
				0.19999980926513672
			],
			"emissiveTexture":{
				"index":0
			},
			"name":"Material.013",
			"pbrMetallicRoughness":{
				"baseColorTexture":{
					"index":1
				},
				"metallicFactor":0,
				"roughnessFactor":0.5
			}
		},
		{
			"doubleSided":true,
			"emissiveFactor":[
				0.19999980926513672,
				0.19999980926513672,
				0.19999980926513672
			],
			"emissiveTexture":{
				"index":0,
				"texCoord":1
			},
			"name":"Material.013",
			"pbrMetallicRoughness":{
				"baseColorTexture":{
					"index":1
				},
				"metallicFactor":0,
				"roughnessFactor":0.5
			}
		}
	],
	"meshes":[
		{
			"name":"Sphere.012",
			"primitives":[
				{
					"attributes":{
						"POSITION":0,
						"NORMAL":1,
						"TEXCOORD_0":2,
						"JOINTS_0":3,
						"WEIGHTS_0":4
					},
					"indices":5,
					"material":0
				}
			]
		},
		{
			"name":"Cube.022",
			"primitives":[
				{
					"attributes":{
						"POSITION":7,
						"NORMAL":8,
						"TEXCOORD_0":9,
						"TEXCOORD_1":10,
						"JOINTS_0":11,
						"WEIGHTS_0":12
					},
					"indices":13,
					"material":1
				}
			]
		},
		{
			"name":"Sphere.011",
			"primitives":[
				{
					"attributes":{
						"POSITION":14,
						"NORMAL":15,
						"TEXCOORD_0":16,
						"JOINTS_0":17,
						"WEIGHTS_0":18
					},
					"indices":19,
					"material":0
				}
			]
		},
		{
			"name":"Sphere.010",
			"primitives":[
				{
					"attributes":{
						"POSITION":20,
						"NORMAL":21,
						"TEXCOORD_0":22,
						"JOINTS_0":23,
						"WEIGHTS_0":24
					},
					"indices":19,
					"material":0
				}
			]
		},
		{
			"name":"Sphere.009",
			"primitives":[
				{
					"attributes":{
						"POSITION":25,
						"NORMAL":26,
						"TEXCOORD_0":27,
						"JOINTS_0":28,
						"WEIGHTS_0":29
					},
					"indices":30,
					"material":0
				}
			]
		},
		{
			"name":"Cube.021",
			"primitives":[
				{
					"attributes":{
						"POSITION":31,
						"NORMAL":32,
						"TEXCOORD_0":33,
						"COLOR_0":34,
						"COLOR_1":35,
						"JOINTS_0":36,
						"WEIGHTS_0":37
					},
					"indices":38,
					"material":0
				}
			]
		}
	],
	"textures":[
		{
			"sampler":0,
			"source":0
		},
		{
			"sampler":0,
			"source":1
		}
	],
	"images":[
		{
			"mimeType":"image/png",
			"name":"detal",
			"uri":"detal.png"
		},
		{
			"mimeType":"image/png",
			"name":"palette",
			"uri":"palette.png"
		}
	],
	"skins":[
		{
			"inverseBindMatrices":6,
			"joints":[
				6,
				1,
				0,
				3,
				2,
				5,
				4,
				8,
				7,
				10,
				9
			],
			"name":"Armature.002"
		}
	],
	"accessors":[
		{
			"bufferView":0,
			"componentType":5126,
			"count":3968,
			"max":[
				2.6756114959716797,
				0.31677675247192383,
				-0.34294161200523376
			],
			"min":[
				2.3637936115264893,
				0.2784634828567505,
				-0.4003487229347229
			],
			"type":"VEC3"
		},
		{
			"bufferView":1,
			"componentType":5126,
			"count":3968,
			"type":"VEC3"
		},
		{
			"bufferView":2,
			"componentType":5126,
			"count":3968,
			"type":"VEC2"
		},
		{
			"bufferView":3,
			"componentType":5121,
			"count":3968,
			"type":"VEC4"
		},
		{
			"bufferView":4,
			"componentType":5126,
			"count":3968,
			"type":"VEC4"
		},
		{
			"bufferView":5,
			"componentType":5123,
			"count":5760,
			"type":"SCALAR"
		},
		{
			"bufferView":6,
			"componentType":5126,
			"count":11,
			"type":"MAT4"
		},
		{
			"bufferView":7,
			"componentType":5126,
			"count":1364,
			"max":[
				3.2308547496795654,
				1.358768105506897,
				0.46244192123413086
			],
			"min":[
				1.8360085487365723,
				-0.021579541265964508,
				-0.7947677373886108
			],
			"type":"VEC3"
		},
		{
			"bufferView":8,
			"componentType":5126,
			"count":1364,
			"type":"VEC3"
		},
		{
			"bufferView":9,
			"componentType":5126,
			"count":1364,
			"type":"VEC2"
		},
		{
			"bufferView":10,
			"componentType":5126,
			"count":1364,
			"type":"VEC2"
		},
		{
			"bufferView":11,
			"componentType":5121,
			"count":1364,
			"type":"VEC4"
		},
		{
			"bufferView":12,
			"componentType":5126,
			"count":1364,
			"type":"VEC4"
		},
		{
			"bufferView":13,
			"componentType":5123,
			"count":6240,
			"type":"SCALAR"
		},
		{
			"bufferView":14,
			"componentType":5126,
			"count":1192,
			"max":[
				3.0751919746398926,
				0.3140553832054138,
				-0.09505422413349152
			],
			"min":[
				1.9652233123779297,
				0.16928422451019287,
				-0.2335454225540161
			],
			"type":"VEC3"
		},
		{
			"bufferView":15,
			"componentType":5126,
			"count":1192,
			"type":"VEC3"
		},
		{
			"bufferView":16,
			"componentType":5126,
			"count":1192,
			"type":"VEC2"
		},
		{
			"bufferView":17,
			"componentType":5121,
			"count":1192,
			"type":"VEC4"
		},
		{
			"bufferView":18,
			"componentType":5126,
			"count":1192,
			"type":"VEC4"
		},
		{
			"bufferView":19,
			"componentType":5123,
			"count":5760,
			"type":"SCALAR"
		},
		{
			"bufferView":20,
			"componentType":5126,
			"count":1192,
			"max":[
				2.83322811126709,
				0.05430770665407181,
				-0.09924151003360748
			],
			"min":[
				2.2071871757507324,
				-0.2033197581768036,
				-0.22935813665390015
			],
			"type":"VEC3"
		},
		{
			"bufferView":21,
			"componentType":5126,
			"count":1192,
			"type":"VEC3"
		},
		{
			"bufferView":22,
			"componentType":5126,
			"count":1192,
			"type":"VEC2"
		},
		{
			"bufferView":23,
			"componentType":5121,
			"count":1192,
			"type":"VEC4"
		},
		{
			"bufferView":24,
			"componentType":5126,
			"count":1192,
			"type":"VEC4"
		},
		{
			"bufferView":25,
			"componentType":5126,
			"count":1208,
			"max":[
				2.659189462661743,
				0.266512930393219,
				-0.37354862689971924
			],
			"min":[
				2.40159010887146,
				0.2108340859413147,
				-0.4292275607585907
			],
			"type":"VEC3"
		},
		{
			"bufferView":26,
			"componentType":5126,
			"count":1208,
			"type":"VEC3"
		},
		{
			"bufferView":27,
			"componentType":5126,
			"count":1208,
			"type":"VEC2"
		},
		{
			"bufferView":28,
			"componentType":5121,
			"count":1208,
			"type":"VEC4"
		},
		{
			"bufferView":29,
			"componentType":5126,
			"count":1208,
			"type":"VEC4"
		},
		{
			"bufferView":30,
			"componentType":5123,
			"count":5760,
			"type":"SCALAR"
		},
		{
			"bufferView":31,
			"componentType":5126,
			"count":253,
			"max":[
				2.5650827884674072,
				0.20253875851631165,
				-0.4208333194255829
			],
			"min":[
				2.4862520694732666,
				0.1874735951423645,
				-0.4289511442184448
			],
			"type":"VEC3"
		},
		{
			"bufferView":32,
			"componentType":5126,
			"count":253,
			"type":"VEC3"
		},
		{
			"bufferView":33,
			"componentType":5126,
			"count":253,
			"type":"VEC2"
		},
		{
			"bufferView":34,
			"componentType":5121,
			"count":253,
			"normalized":true,
			"type":"VEC4"
		},
		{
			"bufferView":35,
			"componentType":5123,
			"count":253,
			"normalized":true,
			"type":"VEC4"
		},
		{
			"bufferView":36,
			"componentType":5121,
			"count":253,
			"type":"VEC4"
		},
		{
			"bufferView":37,
			"componentType":5126,
			"count":253,
			"type":"VEC4"
		},
		{
			"bufferView":38,
			"componentType":5123,
			"count":834,
			"type":"SCALAR"
		},
		{
			"bufferView":39,
			"componentType":5126,
			"count":2,
			"max":[
				4.791666666666667
			],
			"min":[
				0.625
			],
			"type":"SCALAR"
		},
		{
			"bufferView":40,
			"componentType":5126,
			"count":2,
			"type":"VEC3"
		},
		{
			"bufferView":41,
			"componentType":5126,
			"count":2,
			"type":"VEC4"
		},
		{
			"bufferView":42,
			"componentType":5126,
			"count":2,
			"type":"VEC3"
		},
		{
			"bufferView":43,
			"componentType":5126,
			"count":2,
			"type":"VEC3"
		},
		{
			"bufferView":44,
			"componentType":5126,
			"count":2,
			"type":"VEC4"
		},
		{
			"bufferView":45,
			"componentType":5126,
			"count":2,
			"type":"VEC3"
		},
		{
			"bufferView":46,
			"componentType":5126,
			"count":2,
			"type":"VEC3"
		},
		{
			"bufferView":47,
			"componentType":5126,
			"count":101,
			"max":[
				4.791666666666667
			],
			"min":[
				0.625
			],
			"type":"SCALAR"
		},
		{
			"bufferView":48,
			"componentType":5126,
			"count":101,
			"type":"VEC4"
		},
		{
			"bufferView":49,
			"componentType":5126,
			"count":2,
			"type":"VEC3"
		},
		{
			"bufferView":50,
			"componentType":5126,
			"count":2,
			"type":"VEC3"
		},
		{
			"bufferView":51,
			"componentType":5126,
			"count":101,
			"type":"VEC4"
		},
		{
			"bufferView":52,
			"componentType":5126,
			"count":2,
			"type":"VEC3"
		},
		{
			"bufferView":53,
			"componentType":5126,
			"count":2,
			"type":"VEC3"
		},
		{
			"bufferView":54,
			"componentType":5126,
			"count":2,
			"type":"VEC4"
		},
		{
			"bufferView":55,
			"componentType":5126,
			"count":2,
			"type":"VEC3"
		},
		{
			"bufferView":56,
			"componentType":5126,
			"count":2,
			"type":"VEC3"
		},
		{
			"bufferView":57,
			"componentType":5126,
			"count":2,
			"type":"VEC4"
		},
		{
			"bufferView":58,
			"componentType":5126,
			"count":2,
			"type":"VEC3"
		},
		{
			"bufferView":59,
			"componentType":5126,
			"count":2,
			"type":"VEC4"
		},
		{
			"bufferView":60,
			"componentType":5126,
			"count":2,
			"type":"VEC3"
		},
		{
			"bufferView":61,
			"componentType":5126,
			"count":2,
			"type":"VEC3"
		},
		{
			"bufferView":62,
			"componentType":5126,
			"count":2,
			"type":"VEC4"
		},
		{
			"bufferView":63,
			"componentType":5126,
			"count":2,
			"type":"VEC3"
		},
		{
			"bufferView":64,
			"componentType":5126,
			"count":2,
			"type":"VEC4"
		},
		{
			"bufferView":65,
			"componentType":5126,
			"count":2,
			"type":"VEC3"
		},
		{
			"bufferView":66,
			"componentType":5126,
			"count":2,
			"type":"VEC3"
		},
		{
			"bufferView":67,
			"componentType":5126,
			"count":2,
			"type":"VEC4"
		},
		{
			"bufferView":68,
			"componentType":5126,
			"count":101,
			"type":"VEC3"
		},
		{
			"bufferView":69,
			"componentType":5126,
			"count":2,
			"type":"VEC4"
		},
		{
			"bufferView":70,
			"componentType":5126,
			"count":2,
			"type":"VEC3"
		},
		{
			"bufferView":71,
			"componentType":5126,
			"count":2,
			"max":[
				1.875
			],
			"min":[
				0
			],
			"type":"SCALAR"
		},
		{
			"bufferView":72,
			"componentType":5126,
			"count":46,
			"max":[
				1.875
			],
			"min":[
				0
			],
			"type":"SCALAR"
		},
		{
			"bufferView":73,
			"componentType":5126,
			"count":46,
			"type":"VEC4"
		},
		{
			"bufferView":74,
			"componentType":5126,
			"count":46,
			"type":"VEC4"
		},
		{
			"bufferView":75,
			"componentType":5126,
			"count":2,
			"type":"VEC3"
		},
		{
			"bufferView":76,
			"componentType":5126,
			"count":46,
			"type":"VEC4"
		},
		{
			"bufferView":77,
			"componentType":5126,
			"count":46,
			"type":"VEC4"
		},
		{
			"bufferView":78,
			"componentType":5126,
			"count":2,
			"type":"VEC3"
		},
		{
			"bufferView":79,
			"componentType":5126,
			"count":2,
			"max":[
				5.416666666666667
			],
			"min":[
				0.625
			],
			"type":"SCALAR"
		},
		{
			"bufferView":80,
			"componentType":5126,
			"count":116,
			"max":[
				5.416666666666667
			],
			"min":[
				0.625
			],
			"type":"SCALAR"
		},
		{
			"bufferView":81,
			"componentType":5126,
			"count":116,
			"type":"VEC4"
		},
		{
			"bufferView":82,
			"componentType":5126,
			"count":116,
			"type":"VEC4"
		},
		{
			"bufferView":83,
			"componentType":5126,
			"count":116,
			"type":"VEC3"
		},
		{
			"bufferView":84,
			"componentType":5126,
			"count":2,
			"type":"VEC4"
		},
		{
			"bufferView":85,
			"componentType":5126,
			"count":2,
			"type":"VEC3"
		},
		{
			"bufferView":86,
			"componentType":5126,
			"count":2,
			"type":"VEC3"
		},
		{
			"bufferView":87,
			"componentType":5126,
			"count":2,
			"type":"VEC4"
		},
		{
			"bufferView":88,
			"componentType":5126,
			"count":2,
			"type":"VEC3"
		},
		{
			"bufferView":89,
			"componentType":5126,
			"count":2,
			"type":"VEC4"
		},
		{
			"bufferView":90,
			"componentType":5126,
			"count":2,
			"type":"VEC3"
		}
	],
	"bufferViews":[
		{
			"buffer":0,
			"byteLength":47616,
			"byteOffset":0,
			"target":34962
		},
		{
			"buffer":0,
			"byteLength":47616,
			"byteOffset":47616,
			"target":34962
		},
		{
			"buffer":0,
			"byteLength":31744,
			"byteOffset":95232,
			"target":34962
		},
		{
			"buffer":0,
			"byteLength":15872,
			"byteOffset":126976,
			"target":34962
		},
		{
			"buffer":0,
			"byteLength":63488,
			"byteOffset":142848,
			"target":34962
		},
		{
			"buffer":0,
			"byteLength":11520,
			"byteOffset":206336,
			"target":34963
		},
		{
			"buffer":0,
			"byteLength":704,
			"byteOffset":217856
		},
		{
			"buffer":0,
			"byteLength":16368,
			"byteOffset":218560,
			"target":34962
		},
		{
			"buffer":0,
			"byteLength":16368,
			"byteOffset":234928,
			"target":34962
		},
		{
			"buffer":0,
			"byteLength":10912,
			"byteOffset":251296,
			"target":34962
		},
		{
			"buffer":0,
			"byteLength":10912,
			"byteOffset":262208,
			"target":34962
		},
		{
			"buffer":0,
			"byteLength":5456,
			"byteOffset":273120,
			"target":34962
		},
		{
			"buffer":0,
			"byteLength":21824,
			"byteOffset":278576,
			"target":34962
		},
		{
			"buffer":0,
			"byteLength":12480,
			"byteOffset":300400,
			"target":34963
		},
		{
			"buffer":0,
			"byteLength":14304,
			"byteOffset":312880,
			"target":34962
		},
		{
			"buffer":0,
			"byteLength":14304,
			"byteOffset":327184,
			"target":34962
		},
		{
			"buffer":0,
			"byteLength":9536,
			"byteOffset":341488,
			"target":34962
		},
		{
			"buffer":0,
			"byteLength":4768,
			"byteOffset":351024,
			"target":34962
		},
		{
			"buffer":0,
			"byteLength":19072,
			"byteOffset":355792,
			"target":34962
		},
		{
			"buffer":0,
			"byteLength":11520,
			"byteOffset":374864,
			"target":34963
		},
		{
			"buffer":0,
			"byteLength":14304,
			"byteOffset":386384,
			"target":34962
		},
		{
			"buffer":0,
			"byteLength":14304,
			"byteOffset":400688,
			"target":34962
		},
		{
			"buffer":0,
			"byteLength":9536,
			"byteOffset":414992,
			"target":34962
		},
		{
			"buffer":0,
			"byteLength":4768,
			"byteOffset":424528,
			"target":34962
		},
		{
			"buffer":0,
			"byteLength":19072,
			"byteOffset":429296,
			"target":34962
		},
		{
			"buffer":0,
			"byteLength":14496,
			"byteOffset":448368,
			"target":34962
		},
		{
			"buffer":0,
			"byteLength":14496,
			"byteOffset":462864,
			"target":34962
		},
		{
			"buffer":0,
			"byteLength":9664,
			"byteOffset":477360,
			"target":34962
		},
		{
			"buffer":0,
			"byteLength":4832,
			"byteOffset":487024,
			"target":34962
		},
		{
			"buffer":0,
			"byteLength":19328,
			"byteOffset":491856,
			"target":34962
		},
		{
			"buffer":0,
			"byteLength":11520,
			"byteOffset":511184,
			"target":34963
		},
		{
			"buffer":0,
			"byteLength":3036,
			"byteOffset":522704,
			"target":34962
		},
		{
			"buffer":0,
			"byteLength":3036,
			"byteOffset":525740,
			"target":34962
		},
		{
			"buffer":0,
			"byteLength":2024,
			"byteOffset":528776,
			"target":34962
		},
		{
			"buffer":0,
			"byteLength":1012,
			"byteOffset":530800,
			"target":34962
		},
		{
			"buffer":0,
			"byteLength":2024,
			"byteOffset":531812,
			"target":34962
		},
		{
			"buffer":0,
			"byteLength":1012,
			"byteOffset":533836,
			"target":34962
		},
		{
			"buffer":0,
			"byteLength":4048,
			"byteOffset":534848,
			"target":34962
		},
		{
			"buffer":0,
			"byteLength":1668,
			"byteOffset":538896,
			"target":34963
		},
		{
			"buffer":0,
			"byteLength":8,
			"byteOffset":540564
		},
		{
			"buffer":0,
			"byteLength":24,
			"byteOffset":540572
		},
		{
			"buffer":0,
			"byteLength":32,
			"byteOffset":540596
		},
		{
			"buffer":0,
			"byteLength":24,
			"byteOffset":540628
		},
		{
			"buffer":0,
			"byteLength":24,
			"byteOffset":540652
		},
		{
			"buffer":0,
			"byteLength":32,
			"byteOffset":540676
		},
		{
			"buffer":0,
			"byteLength":24,
			"byteOffset":540708
		},
		{
			"buffer":0,
			"byteLength":24,
			"byteOffset":540732
		},
		{
			"buffer":0,
			"byteLength":404,
			"byteOffset":540756
		},
		{
			"buffer":0,
			"byteLength":1616,
			"byteOffset":541160
		},
		{
			"buffer":0,
			"byteLength":24,
			"byteOffset":542776
		},
		{
			"buffer":0,
			"byteLength":24,
			"byteOffset":542800
		},
		{
			"buffer":0,
			"byteLength":1616,
			"byteOffset":542824
		},
		{
			"buffer":0,
			"byteLength":24,
			"byteOffset":544440
		},
		{
			"buffer":0,
			"byteLength":24,
			"byteOffset":544464
		},
		{
			"buffer":0,
			"byteLength":32,
			"byteOffset":544488
		},
		{
			"buffer":0,
			"byteLength":24,
			"byteOffset":544520
		},
		{
			"buffer":0,
			"byteLength":24,
			"byteOffset":544544
		},
		{
			"buffer":0,
			"byteLength":32,
			"byteOffset":544568
		},
		{
			"buffer":0,
			"byteLength":24,
			"byteOffset":544600
		},
		{
			"buffer":0,
			"byteLength":32,
			"byteOffset":544624
		},
		{
			"buffer":0,
			"byteLength":24,
			"byteOffset":544656
		},
		{
			"buffer":0,
			"byteLength":24,
			"byteOffset":544680
		},
		{
			"buffer":0,
			"byteLength":32,
			"byteOffset":544704
		},
		{
			"buffer":0,
			"byteLength":24,
			"byteOffset":544736
		},
		{
			"buffer":0,
			"byteLength":32,
			"byteOffset":544760
		},
		{
			"buffer":0,
			"byteLength":24,
			"byteOffset":544792
		},
		{
			"buffer":0,
			"byteLength":24,
			"byteOffset":544816
		},
		{
			"buffer":0,
			"byteLength":32,
			"byteOffset":544840
		},
		{
			"buffer":0,
			"byteLength":1212,
			"byteOffset":544872
		},
		{
			"buffer":0,
			"byteLength":32,
			"byteOffset":546084
		},
		{
			"buffer":0,
			"byteLength":24,
			"byteOffset":546116
		},
		{
			"buffer":0,
			"byteLength":8,
			"byteOffset":546140
		},
		{
			"buffer":0,
			"byteLength":184,
			"byteOffset":546148
		},
		{
			"buffer":0,
			"byteLength":736,
			"byteOffset":546332
		},
		{
			"buffer":0,
			"byteLength":736,
			"byteOffset":547068
		},
		{
			"buffer":0,
			"byteLength":24,
			"byteOffset":547804
		},
		{
			"buffer":0,
			"byteLength":736,
			"byteOffset":547828
		},
		{
			"buffer":0,
			"byteLength":736,
			"byteOffset":548564
		},
		{
			"buffer":0,
			"byteLength":24,
			"byteOffset":549300
		},
		{
			"buffer":0,
			"byteLength":8,
			"byteOffset":549324
		},
		{
			"buffer":0,
			"byteLength":464,
			"byteOffset":549332
		},
		{
			"buffer":0,
			"byteLength":1856,
			"byteOffset":549796
		},
		{
			"buffer":0,
			"byteLength":1856,
			"byteOffset":551652
		},
		{
			"buffer":0,
			"byteLength":1392,
			"byteOffset":553508
		},
		{
			"buffer":0,
			"byteLength":32,
			"byteOffset":554900
		},
		{
			"buffer":0,
			"byteLength":24,
			"byteOffset":554932
		},
		{
			"buffer":0,
			"byteLength":24,
			"byteOffset":554956
		},
		{
			"buffer":0,
			"byteLength":32,
			"byteOffset":554980
		},
		{
			"buffer":0,
			"byteLength":24,
			"byteOffset":555012
		},
		{
			"buffer":0,
			"byteLength":32,
			"byteOffset":555036
		},
		{
			"buffer":0,
			"byteLength":24,
			"byteOffset":555068
		}
	],
	"samplers":[
		{
			"magFilter":9729,
			"minFilter":9987
		}
	],
	"buffers":[
		{
			"byteLength":555092,
			"uri":"grzyb-dostawa.bin"
		}
	]
}
