{
	"asset":{
		"generator":"Khronos glTF Blender I/O v4.5.48",
		"version":"2.0"
	},
	"scene":0,
	"scenes":[
		{
			"name":"Scene",
			"nodes":[
				0,
				1,
				2
			]
		}
	],
	"nodes":[
		{
			"mesh":0,
			"name":"Sphere.001"
		},
		{
			"mesh":1,
			"name":"Sphere.008"
		},
		{
			"mesh":2,
			"name":"Sphere.009"
		}
	],
	"materials":[
		{
			"doubleSided":true,
			"name":"Material.001",
			"pbrMetallicRoughness":{
				"baseColorTexture":{
					"index":0
				},
				"metallicFactor":0,
				"roughnessFactor":0.5
			}
		}
	],
	"meshes":[
		{
			"name":"Sphere.009",
			"primitives":[
				{
					"attributes":{
						"POSITION":0,
						"NORMAL":1,
						"TEXCOORD_0":2
					},
					"indices":3,
					"material":0
				}
			]
		},
		{
			"name":"Sphere.018",
			"primitives":[
				{
					"attributes":{
						"POSITION":4,
						"NORMAL":5,
						"TEXCOORD_0":6
					},
					"indices":7,
					"material":0
				}
			]
		},
		{
			"name":"Sphere.019",
			"primitives":[
				{
					"attributes":{
						"POSITION":8,
						"NORMAL":9,
						"TEXCOORD_0":10
					},
					"indices":11,
					"material":0
				}
			]
		}
	],
	"textures":[
		{
			"sampler":0,
			"source":0
		}
	],
	"images":[
		{
			"mimeType":"image/png",
			"name":"palette",
			"uri": "../../../textures/palette.png"
		}
	],
	"accessors":[
		{
			"bufferView":0,
			"componentType":5126,
			"count":1104,
			"max":[
				0.14014334976673126,
				0.08928187191486359,
				0.06162654608488083
			],
			"min":[
				-0.1481860727071762,
				0.00020072981715202332,
				-0.06162658706307411
			],
			"type":"VEC3"
		},
		{
			"bufferView":1,
			"componentType":5126,
			"count":1104,
			"type":"VEC3"
		},
		{
			"bufferView":2,
			"componentType":5126,
			"count":1104,
			"type":"VEC2"
		},
		{
			"bufferView":3,
			"componentType":5123,
			"count":4320,
			"type":"SCALAR"
		},
		{
			"bufferView":4,
			"componentType":5126,
			"count":1105,
			"max":[
				0.017889946699142456,
				0.09260494261980057,
				0.03690831735730171
			],
			"min":[
				-0.01366470381617546,
				0.06979883462190628,
				-0.0369083397090435
			],
			"type":"VEC3"
		},
		{
			"bufferView":5,
			"componentType":5126,
			"count":1105,
			"type":"VEC3"
		},
		{
			"bufferView":6,
			"componentType":5126,
			"count":1105,
			"type":"VEC2"
		},
		{
			"bufferView":7,
			"componentType":5123,
			"count":4320,
			"type":"SCALAR"
		},
		{
			"bufferView":8,
			"componentType":5126,
			"count":2179,
			"max":[
				0.08266380429267883,
				0.08556808531284332,
				0.03690831735730171
			],
			"min":[
				-0.09070655703544617,
				0.06252291798591614,
				-0.0369083397090435
			],
			"type":"VEC3"
		},
		{
			"bufferView":9,
			"componentType":5126,
			"count":2179,
			"type":"VEC3"
		},
		{
			"bufferView":10,
			"componentType":5126,
			"count":2179,
			"type":"VEC2"
		},
		{
			"bufferView":11,
			"componentType":5123,
			"count":8640,
			"type":"SCALAR"
		}
	],
	"bufferViews":[
		{
			"buffer":0,
			"byteLength":13248,
			"byteOffset":0,
			"target":34962
		},
		{
			"buffer":0,
			"byteLength":13248,
			"byteOffset":13248,
			"target":34962
		},
		{
			"buffer":0,
			"byteLength":8832,
			"byteOffset":26496,
			"target":34962
		},
		{
			"buffer":0,
			"byteLength":8640,
			"byteOffset":35328,
			"target":34963
		},
		{
			"buffer":0,
			"byteLength":13260,
			"byteOffset":43968,
			"target":34962
		},
		{
			"buffer":0,
			"byteLength":13260,
			"byteOffset":57228,
			"target":34962
		},
		{
			"buffer":0,
			"byteLength":8840,
			"byteOffset":70488,
			"target":34962
		},
		{
			"buffer":0,
			"byteLength":8640,
			"byteOffset":79328,
			"target":34963
		},
		{
			"buffer":0,
			"byteLength":26148,
			"byteOffset":87968,
			"target":34962
		},
		{
			"buffer":0,
			"byteLength":26148,
			"byteOffset":114116,
			"target":34962
		},
		{
			"buffer":0,
			"byteLength":17432,
			"byteOffset":140264,
			"target":34962
		},
		{
			"buffer":0,
			"byteLength":17280,
			"byteOffset":157696,
			"target":34963
		}
	],
	"samplers":[
		{
			"magFilter":9729,
			"minFilter":9987
		}
	],
	"buffers":[
		{
			"byteLength":174976,
			"uri":"bagietka.bin"
		}
	]
}
