{
	"asset":{
		"generator":"Khronos glTF Blender I/O v4.4.56",
		"version":"2.0"
	},
	"scene":0,
	"scenes":[
		{
			"name":"Scene",
			"nodes":[
				0,
				1,
				2,
				3,
				4,
				5,
				6
			]
		}
	],
	"nodes":[
		{
			"mesh":0,
			"name":"Cube"
		},
		{
			"mesh":1,
			"name":"Cube.001"
		},
		{
			"mesh":2,
			"name":"Circle"
		},
		{
			"mesh":3,
			"name":"Circle.001"
		},
		{
			"mesh":4,
			"name":"Circle.002"
		},
		{
			"mesh":5,
			"name":"Circle.003"
		},
		{
			"mesh":6,
			"name":"Circle.006"
		}
	],
	"materials":[
		{
			"doubleSided":true,
			"name":"Material",
			"pbrMetallicRoughness":{
				"baseColorTexture":{
					"index":0
				},
				"metallicFactor":0,
				"roughnessFactor":0.5
			}
		},
		{
			"doubleSided":true,
			"name":"Material.001",
			"pbrMetallicRoughness":{
				"baseColorTexture":{
					"index":1
				},
				"metallicFactor":0,
				"roughnessFactor":0.5
			}
		},
		{
			"doubleSided":true,
			"name":"Material.005",
			"pbrMetallicRoughness":{
				"baseColorTexture":{
					"index":2
				},
				"metallicFactor":0,
				"roughnessFactor":0.5
			}
		}
	],
	"meshes":[
		{
			"name":"Cube.001",
			"primitives":[
				{
					"attributes":{
						"POSITION":0,
						"NORMAL":1,
						"TEXCOORD_0":2
					},
					"indices":3,
					"material":0
				}
			]
		},
		{
			"name":"Cube.002",
			"primitives":[
				{
					"attributes":{
						"POSITION":4,
						"NORMAL":5,
						"TEXCOORD_0":6
					},
					"indices":7,
					"material":0
				}
			]
		},
		{
			"name":"Circle",
			"primitives":[
				{
					"attributes":{
						"POSITION":8,
						"NORMAL":9,
						"TEXCOORD_0":10
					},
					"indices":11,
					"material":0
				}
			]
		},
		{
			"name":"Circle.001",
			"primitives":[
				{
					"attributes":{
						"POSITION":12,
						"NORMAL":13,
						"TEXCOORD_0":14
					},
					"indices":15,
					"material":0
				}
			]
		},
		{
			"name":"Circle.002",
			"primitives":[
				{
					"attributes":{
						"POSITION":16,
						"NORMAL":17,
						"TEXCOORD_0":18
					},
					"indices":15,
					"material":0
				}
			]
		},
		{
			"name":"Circle.003",
			"primitives":[
				{
					"attributes":{
						"POSITION":19,
						"NORMAL":20,
						"TEXCOORD_0":21
					},
					"indices":22,
					"material":1
				}
			]
		},
		{
			"name":"Circle.007",
			"primitives":[
				{
					"attributes":{
						"POSITION":23,
						"NORMAL":24,
						"TEXCOORD_0":25
					},
					"indices":22,
					"material":2
				}
			]
		}
	],
	"textures":[
		{
			"sampler":0,
			"source":0
		},
		{
			"sampler":0,
			"source":0
		},
		{
			"sampler":0,
			"source":0
		}
	],
	"images":[
		{
			"mimeType": "image/png",
			"name": "palette",
			"uri": "../../../textures/palette.png"
		}
	],
	"accessors":[
		{
			"bufferView":0,
			"componentType":5126,
			"count":216,
			"max":[
				1.6054811477661133,
				1.8524928092956543,
				1
			],
			"min":[
				-1.6054811477661133,
				-1.7560553550720215,
				-1
			],
			"type":"VEC3"
		},
		{
			"bufferView":1,
			"componentType":5126,
			"count":216,
			"type":"VEC3"
		},
		{
			"bufferView":2,
			"componentType":5126,
			"count":216,
			"type":"VEC2"
		},
		{
			"bufferView":3,
			"componentType":5123,
			"count":492,
			"type":"SCALAR"
		},
		{
			"bufferView":4,
			"componentType":5126,
			"count":136,
			"max":[
				1.0477007627487183,
				1.0685780048370361,
				1.1155502796173096
			],
			"min":[
				-1.0477007627487183,
				0.7881503701210022,
				0.22038215398788452
			],
			"type":"VEC3"
		},
		{
			"bufferView":5,
			"componentType":5126,
			"count":136,
			"type":"VEC3"
		},
		{
			"bufferView":6,
			"componentType":5126,
			"count":136,
			"type":"VEC2"
		},
		{
			"bufferView":7,
			"componentType":5123,
			"count":324,
			"type":"SCALAR"
		},
		{
			"bufferView":8,
			"componentType":5126,
			"count":136,
			"max":[
				-0.7450098395347595,
				1.5765509605407715,
				1.04474937915802
			],
			"min":[
				-1.082123875617981,
				1.2394368648529053,
				0.9604708552360535
			],
			"type":"VEC3"
		},
		{
			"bufferView":9,
			"componentType":5126,
			"count":136,
			"type":"VEC3"
		},
		{
			"bufferView":10,
			"componentType":5126,
			"count":136,
			"type":"VEC2"
		},
		{
			"bufferView":11,
			"componentType":5123,
			"count":372,
			"type":"SCALAR"
		},
		{
			"bufferView":12,
			"componentType":5126,
			"count":136,
			"max":[
				0.17643271386623383,
				1.5765509605407715,
				1.04474937915802
			],
			"min":[
				-0.16068135201931,
				1.2394368648529053,
				0.9604708552360535
			],
			"type":"VEC3"
		},
		{
			"bufferView":13,
			"componentType":5126,
			"count":136,
			"type":"VEC3"
		},
		{
			"bufferView":14,
			"componentType":5126,
			"count":136,
			"type":"VEC2"
		},
		{
			"bufferView":15,
			"componentType":5123,
			"count":372,
			"type":"SCALAR"
		},
		{
			"bufferView":16,
			"componentType":5126,
			"count":136,
			"max":[
				1.0978753566741943,
				1.5765509605407715,
				1.04474937915802
			],
			"min":[
				0.7607613205909729,
				1.2394368648529053,
				0.9604708552360535
			],
			"type":"VEC3"
		},
		{
			"bufferView":17,
			"componentType":5126,
			"count":136,
			"type":"VEC3"
		},
		{
			"bufferView":18,
			"componentType":5126,
			"count":136,
			"type":"VEC2"
		},
		{
			"bufferView":19,
			"componentType":5126,
			"count":136,
			"max":[
				1.1139904260635376,
				1.7308844327926636,
				0.482882559299469
			],
			"min":[
				0.12036454677581787,
				1.4824776649475098,
				-0.5107433795928955
			],
			"type":"VEC3"
		},
		{
			"bufferView":20,
			"componentType":5126,
			"count":136,
			"type":"VEC3"
		},
		{
			"bufferView":21,
			"componentType":5126,
			"count":136,
			"type":"VEC2"
		},
		{
			"bufferView":22,
			"componentType":5123,
			"count":372,
			"type":"SCALAR"
		},
		{
			"bufferView":23,
			"componentType":5126,
			"count":136,
			"max":[
				-0.14540481567382812,
				1.7308844327926636,
				0.482882559299469
			],
			"min":[
				-1.1390306949615479,
				1.4824776649475098,
				-0.5107433795928955
			],
			"type":"VEC3"
		},
		{
			"bufferView":24,
			"componentType":5126,
			"count":136,
			"type":"VEC3"
		},
		{
			"bufferView":25,
			"componentType":5126,
			"count":136,
			"type":"VEC2"
		}
	],
	"bufferViews":[
		{
			"buffer":0,
			"byteLength":2592,
			"byteOffset":0,
			"target":34962
		},
		{
			"buffer":0,
			"byteLength":2592,
			"byteOffset":2592,
			"target":34962
		},
		{
			"buffer":0,
			"byteLength":1728,
			"byteOffset":5184,
			"target":34962
		},
		{
			"buffer":0,
			"byteLength":984,
			"byteOffset":6912,
			"target":34963
		},
		{
			"buffer":0,
			"byteLength":1632,
			"byteOffset":7896,
			"target":34962
		},
		{
			"buffer":0,
			"byteLength":1632,
			"byteOffset":9528,
			"target":34962
		},
		{
			"buffer":0,
			"byteLength":1088,
			"byteOffset":11160,
			"target":34962
		},
		{
			"buffer":0,
			"byteLength":648,
			"byteOffset":12248,
			"target":34963
		},
		{
			"buffer":0,
			"byteLength":1632,
			"byteOffset":12896,
			"target":34962
		},
		{
			"buffer":0,
			"byteLength":1632,
			"byteOffset":14528,
			"target":34962
		},
		{
			"buffer":0,
			"byteLength":1088,
			"byteOffset":16160,
			"target":34962
		},
		{
			"buffer":0,
			"byteLength":744,
			"byteOffset":17248,
			"target":34963
		},
		{
			"buffer":0,
			"byteLength":1632,
			"byteOffset":17992,
			"target":34962
		},
		{
			"buffer":0,
			"byteLength":1632,
			"byteOffset":19624,
			"target":34962
		},
		{
			"buffer":0,
			"byteLength":1088,
			"byteOffset":21256,
			"target":34962
		},
		{
			"buffer":0,
			"byteLength":744,
			"byteOffset":22344,
			"target":34963
		},
		{
			"buffer":0,
			"byteLength":1632,
			"byteOffset":23088,
			"target":34962
		},
		{
			"buffer":0,
			"byteLength":1632,
			"byteOffset":24720,
			"target":34962
		},
		{
			"buffer":0,
			"byteLength":1088,
			"byteOffset":26352,
			"target":34962
		},
		{
			"buffer":0,
			"byteLength":1632,
			"byteOffset":27440,
			"target":34962
		},
		{
			"buffer":0,
			"byteLength":1632,
			"byteOffset":29072,
			"target":34962
		},
		{
			"buffer":0,
			"byteLength":1088,
			"byteOffset":30704,
			"target":34962
		},
		{
			"buffer":0,
			"byteLength":744,
			"byteOffset":31792,
			"target":34963
		},
		{
			"buffer":0,
			"byteLength":1632,
			"byteOffset":32536,
			"target":34962
		},
		{
			"buffer":0,
			"byteLength":1632,
			"byteOffset":34168,
			"target":34962
		},
		{
			"buffer":0,
			"byteLength":1088,
			"byteOffset":35800,
			"target":34962
		}
	],
	"samplers":[
		{
			"magFilter":9729,
			"minFilter":9987
		}
	],
	"buffers":[
		{
			"byteLength":36888,
			"uri":"piekarnik.bin"
		}
	]
}
