{
	"asset":{
		"generator":"Khronos glTF Blender I/O v5.1.19",
		"version":"2.0"
	},
	"scene":0,
	"scenes":[
		{
			"name":"Scene",
			"nodes":[
				0
			]
		}
	],
	"nodes":[
		{
			"mesh":0,
			"name":"Plane.003",
			"rotation":[
				0,
				-0.7071068286895752,
				0,
				0.7071068286895752
			]
		}
	],
	"materials":[
		{
			"doubleSided":true,
			"name":"Material.011",
			"pbrMetallicRoughness":{
				"baseColorTexture":{
					"index":0
				},
				"metallicFactor":0,
				"roughnessFactor":0.5
			}
		}
	],
	"meshes":[
		{
			"name":"Plane.005",
			"primitives":[
				{
					"attributes":{
						"POSITION":0,
						"NORMAL":1,
						"TEXCOORD_0":2
					},
					"indices":3,
					"material":0
				}
			]
		}
	],
	"textures":[
		{
			"sampler":0,
			"source":0
		}
	],
	"images":[
		{
			"mimeType":"image/png",
			"name":"a",
			"uri":"../../texture/a.png"
		}
	],
	"accessors":[
		{
			"bufferView":0,
			"componentType":5126,
			"count":121,
			"max":[
				0.9608210325241089,
				1.0034219026565552,
				1
			],
			"min":[
				-1,
				0.9601471424102783,
				-0.9619248509407043
			],
			"type":"VEC3"
		},
		{
			"bufferView":1,
			"componentType":5126,
			"count":121,
			"type":"VEC3"
		},
		{
			"bufferView":2,
			"componentType":5126,
			"count":121,
			"type":"VEC2"
		},
		{
			"bufferView":3,
			"componentType":5123,
			"count":195,
			"type":"SCALAR"
		}
	],
	"bufferViews":[
		{
			"buffer":0,
			"byteLength":1452,
			"byteOffset":0,
			"target":34962
		},
		{
			"buffer":0,
			"byteLength":1452,
			"byteOffset":1452,
			"target":34962
		},
		{
			"buffer":0,
			"byteLength":968,
			"byteOffset":2904,
			"target":34962
		},
		{
			"buffer":0,
			"byteLength":390,
			"byteOffset":3872,
			"target":34963
		}
	],
	"samplers":[
		{
			"magFilter":9729,
			"minFilter":9987
		}
	],
	"buffers":[
		{
			"byteLength":4264,
			"uri":"beltAR.bin"
		}
	]
}
