{
	"asset":{
		"generator":"Khronos glTF Blender I/O v4.5.48",
		"version":"2.0"
	},
	"scene":0,
	"scenes":[
		{
			"name":"Scene",
			"nodes":[
				0,
				1,
				2,
				3,
				4,
				5,
				6,
				7,
				8,
				9,
				10,
				11,
				12,
				13,
				14,
				15,
				16,
				17,
				18
			]
		}
	],
	"nodes":[
		{
			"mesh":0,
			"name":"Cube"
		},
		{
			"mesh":1,
			"name":"Cube.001"
		},
		{
			"mesh":2,
			"name":"Cube.002"
		},
		{
			"mesh":3,
			"name":"Cube.003"
		},
		{
			"mesh":4,
			"name":"Cube.004"
		},
		{
			"mesh":5,
			"name":"Cube.005"
		},
		{
			"mesh":6,
			"name":"Cube.006"
		},
		{
			"mesh":7,
			"name":"Cube.007"
		},
		{
			"mesh":8,
			"name":"Cube.008"
		},
		{
			"mesh":9,
			"name":"Cube.009"
		},
		{
			"mesh":10,
			"name":"Cube.010"
		},
		{
			"mesh":11,
			"name":"Cube.011"
		},
		{
			"mesh":12,
			"name":"Cube.012"
		},
		{
			"mesh":13,
			"name":"Cube.013"
		},
		{
			"mesh":14,
			"name":"Cube.014"
		},
		{
			"mesh":15,
			"name":"Cube.015"
		},
		{
			"mesh":16,
			"name":"Cube.016"
		},
		{
			"mesh":17,
			"name":"Cube.017"
		},
		{
			"mesh":18,
			"name":"Plane"
		}
	],
	"materials":[
		{
			"doubleSided":true,
			"name":"Material",
			"pbrMetallicRoughness":{
				"baseColorTexture":{
					"index":0
				},
				"metallicFactor":0,
				"roughnessFactor":0.5
			}
		}
	],
	"meshes":[
		{
			"name":"Cube.001",
			"primitives":[
				{
					"attributes":{
						"POSITION":0,
						"NORMAL":1,
						"TEXCOORD_0":2
					},
					"indices":3,
					"material":0
				}
			]
		},
		{
			"name":"Cube.002",
			"primitives":[
				{
					"attributes":{
						"POSITION":4,
						"NORMAL":5,
						"TEXCOORD_0":6
					},
					"indices":3,
					"material":0
				}
			]
		},
		{
			"name":"Cube.003",
			"primitives":[
				{
					"attributes":{
						"POSITION":7,
						"NORMAL":8,
						"TEXCOORD_0":9
					},
					"indices":3,
					"material":0
				}
			]
		},
		{
			"name":"Cube.004",
			"primitives":[
				{
					"attributes":{
						"POSITION":10,
						"NORMAL":11,
						"TEXCOORD_0":12
					},
					"indices":13,
					"material":0
				}
			]
		},
		{
			"name":"Cube.005",
			"primitives":[
				{
					"attributes":{
						"POSITION":14,
						"NORMAL":15,
						"TEXCOORD_0":16
					},
					"indices":13,
					"material":0
				}
			]
		},
		{
			"name":"Cube.006",
			"primitives":[
				{
					"attributes":{
						"POSITION":17,
						"NORMAL":18,
						"TEXCOORD_0":19
					},
					"indices":13,
					"material":0
				}
			]
		},
		{
			"name":"Cube.007",
			"primitives":[
				{
					"attributes":{
						"POSITION":20,
						"NORMAL":21,
						"TEXCOORD_0":22
					},
					"indices":23,
					"material":0
				}
			]
		},
		{
			"name":"Cube.008",
			"primitives":[
				{
					"attributes":{
						"POSITION":24,
						"NORMAL":25,
						"TEXCOORD_0":26
					},
					"indices":23,
					"material":0
				}
			]
		},
		{
			"name":"Cube.009",
			"primitives":[
				{
					"attributes":{
						"POSITION":27,
						"NORMAL":28,
						"TEXCOORD_0":29
					},
					"indices":23,
					"material":0
				}
			]
		},
		{
			"name":"Cube.010",
			"primitives":[
				{
					"attributes":{
						"POSITION":30,
						"NORMAL":31,
						"TEXCOORD_0":32
					},
					"indices":23,
					"material":0
				}
			]
		},
		{
			"name":"Cube.011",
			"primitives":[
				{
					"attributes":{
						"POSITION":33,
						"NORMAL":34,
						"TEXCOORD_0":35
					},
					"indices":23,
					"material":0
				}
			]
		},
		{
			"name":"Cube.012",
			"primitives":[
				{
					"attributes":{
						"POSITION":36,
						"NORMAL":37,
						"TEXCOORD_0":38
					},
					"indices":23,
					"material":0
				}
			]
		},
		{
			"name":"Cube.013",
			"primitives":[
				{
					"attributes":{
						"POSITION":39,
						"NORMAL":40,
						"TEXCOORD_0":41
					},
					"indices":3,
					"material":0
				}
			]
		},
		{
			"name":"Cube.014",
			"primitives":[
				{
					"attributes":{
						"POSITION":42,
						"NORMAL":43,
						"TEXCOORD_0":44
					},
					"indices":3,
					"material":0
				}
			]
		},
		{
			"name":"Cube.015",
			"primitives":[
				{
					"attributes":{
						"POSITION":45,
						"NORMAL":46,
						"TEXCOORD_0":47
					},
					"indices":3,
					"material":0
				}
			]
		},
		{
			"name":"Cube.016",
			"primitives":[
				{
					"attributes":{
						"POSITION":48,
						"NORMAL":49,
						"TEXCOORD_0":50
					},
					"indices":13,
					"material":0
				}
			]
		},
		{
			"name":"Cube.017",
			"primitives":[
				{
					"attributes":{
						"POSITION":51,
						"NORMAL":52,
						"TEXCOORD_0":53
					},
					"indices":13,
					"material":0
				}
			]
		},
		{
			"name":"Cube.018",
			"primitives":[
				{
					"attributes":{
						"POSITION":54,
						"NORMAL":55,
						"TEXCOORD_0":56
					},
					"indices":13,
					"material":0
				}
			]
		},
		{
			"name":"Plane",
			"primitives":[
				{
					"attributes":{
						"POSITION":57,
						"NORMAL":58,
						"TEXCOORD_0":59
					},
					"indices":60,
					"material":0
				}
			]
		}
	],
	"textures":[
		{
			"sampler":0,
			"source":0
		}
	],
	"images":[
		{
			"mimeType":"image/png",
			"name":"palette",
			"uri":"palette.png"
		}
	],
	"accessors":[
		{
			"bufferView":0,
			"componentType":5126,
			"count":24,
			"max":[
				0.9718045592308044,
				1.038270354270935,
				1.079495906829834
			],
			"min":[
				-1.055405616760254,
				0.740036129951477,
				0.9444546103477478
			],
			"type":"VEC3"
		},
		{
			"bufferView":1,
			"componentType":5126,
			"count":24,
			"type":"VEC3"
		},
		{
			"bufferView":2,
			"componentType":5126,
			"count":24,
			"type":"VEC2"
		},
		{
			"bufferView":3,
			"componentType":5123,
			"count":36,
			"type":"SCALAR"
		},
		{
			"bufferView":4,
			"componentType":5126,
			"count":24,
			"max":[
				0.9718045592308044,
				0.7036224603652954,
				1.079495906829834
			],
			"min":[
				-1.055405616760254,
				0.4053882658481598,
				0.9444546103477478
			],
			"type":"VEC3"
		},
		{
			"bufferView":5,
			"componentType":5126,
			"count":24,
			"type":"VEC3"
		},
		{
			"bufferView":6,
			"componentType":5126,
			"count":24,
			"type":"VEC2"
		},
		{
			"bufferView":7,
			"componentType":5126,
			"count":24,
			"max":[
				0.9718045592308044,
				0.35756614804267883,
				1.079495906829834
			],
			"min":[
				-1.055405616760254,
				0.05933189392089844,
				0.9444546103477478
			],
			"type":"VEC3"
		},
		{
			"bufferView":8,
			"componentType":5126,
			"count":24,
			"type":"VEC3"
		},
		{
			"bufferView":9,
			"componentType":5126,
			"count":24,
			"type":"VEC2"
		},
		{
			"bufferView":10,
			"componentType":5126,
			"count":48,
			"max":[
				1.1537439823150635,
				1.0929057598114014,
				1.1079025268554688
			],
			"min":[
				-1.2373449802398682,
				0.7411737442016602,
				0.9160480499267578
			],
			"type":"VEC3"
		},
		{
			"bufferView":11,
			"componentType":5126,
			"count":48,
			"type":"VEC3"
		},
		{
			"bufferView":12,
			"componentType":5126,
			"count":48,
			"type":"VEC2"
		},
		{
			"bufferView":13,
			"componentType":5123,
			"count":72,
			"type":"SCALAR"
		},
		{
			"bufferView":14,
			"componentType":5126,
			"count":48,
			"max":[
				1.1537439823150635,
				0.7227186560630798,
				1.1079025268554688
			],
			"min":[
				-1.2373449802398682,
				0.3950013220310211,
				0.9160480499267578
			],
			"type":"VEC3"
		},
		{
			"bufferView":15,
			"componentType":5126,
			"count":48,
			"type":"VEC3"
		},
		{
			"bufferView":16,
			"componentType":5126,
			"count":48,
			"type":"VEC2"
		},
		{
			"bufferView":17,
			"componentType":5126,
			"count":48,
			"max":[
				1.1537439823150635,
				0.3624347746372223,
				1.1079025268554688
			],
			"min":[
				-1.2373449802398682,
				0.010702788829803467,
				0.9160480499267578
			],
			"type":"VEC3"
		},
		{
			"bufferView":18,
			"componentType":5126,
			"count":48,
			"type":"VEC3"
		},
		{
			"bufferView":19,
			"componentType":5126,
			"count":48,
			"type":"VEC2"
		},
		{
			"bufferView":20,
			"componentType":5126,
			"count":24,
			"max":[
				-1.0504770278930664,
				1.0496788024902344,
				0.9912141561508179
			],
			"min":[
				-1.1855182647705078,
				0.7514445781707764,
				-1.0359960794448853
			],
			"type":"VEC3"
		},
		{
			"bufferView":21,
			"componentType":5126,
			"count":24,
			"type":"VEC3"
		},
		{
			"bufferView":22,
			"componentType":5126,
			"count":24,
			"type":"VEC2"
		},
		{
			"bufferView":23,
			"componentType":5123,
			"count":36,
			"type":"SCALAR"
		},
		{
			"bufferView":24,
			"componentType":5126,
			"count":24,
			"max":[
				-1.0504770278930664,
				0.7074252367019653,
				0.9912141561508179
			],
			"min":[
				-1.1855182647705078,
				0.4091910421848297,
				-1.0359960794448853
			],
			"type":"VEC3"
		},
		{
			"bufferView":25,
			"componentType":5126,
			"count":24,
			"type":"VEC3"
		},
		{
			"bufferView":26,
			"componentType":5126,
			"count":24,
			"type":"VEC2"
		},
		{
			"bufferView":27,
			"componentType":5126,
			"count":24,
			"max":[
				-1.0504770278930664,
				0.35756608843803406,
				0.9912141561508179
			],
			"min":[
				-1.1855182647705078,
				0.05933183431625366,
				-1.0359960794448853
			],
			"type":"VEC3"
		},
		{
			"bufferView":28,
			"componentType":5126,
			"count":24,
			"type":"VEC3"
		},
		{
			"bufferView":29,
			"componentType":5126,
			"count":24,
			"type":"VEC2"
		},
		{
			"bufferView":30,
			"componentType":5126,
			"count":24,
			"max":[
				1.105720043182373,
				0.35756608843803406,
				0.9912142157554626
			],
			"min":[
				0.9706786870956421,
				0.05933183431625366,
				-1.0359960794448853
			],
			"type":"VEC3"
		},
		{
			"bufferView":31,
			"componentType":5126,
			"count":24,
			"type":"VEC3"
		},
		{
			"bufferView":32,
			"componentType":5126,
			"count":24,
			"type":"VEC2"
		},
		{
			"bufferView":33,
			"componentType":5126,
			"count":24,
			"max":[
				1.105720043182373,
				0.7074252367019653,
				0.9912142157554626
			],
			"min":[
				0.9706786870956421,
				0.4091910421848297,
				-1.0359960794448853
			],
			"type":"VEC3"
		},
		{
			"bufferView":34,
			"componentType":5126,
			"count":24,
			"type":"VEC3"
		},
		{
			"bufferView":35,
			"componentType":5126,
			"count":24,
			"type":"VEC2"
		},
		{
			"bufferView":36,
			"componentType":5126,
			"count":24,
			"max":[
				1.105720043182373,
				1.0496788024902344,
				0.9912142157554626
			],
			"min":[
				0.9706786870956421,
				0.7514445781707764,
				-1.0359960794448853
			],
			"type":"VEC3"
		},
		{
			"bufferView":37,
			"componentType":5126,
			"count":24,
			"type":"VEC3"
		},
		{
			"bufferView":38,
			"componentType":5126,
			"count":24,
			"type":"VEC2"
		},
		{
			"bufferView":39,
			"componentType":5126,
			"count":24,
			"max":[
				0.9718045592308044,
				0.35756614804267883,
				-0.8751521110534668
			],
			"min":[
				-1.055405616760254,
				0.05933189392089844,
				-1.0101934671401978
			],
			"type":"VEC3"
		},
		{
			"bufferView":40,
			"componentType":5126,
			"count":24,
			"type":"VEC3"
		},
		{
			"bufferView":41,
			"componentType":5126,
			"count":24,
			"type":"VEC2"
		},
		{
			"bufferView":42,
			"componentType":5126,
			"count":24,
			"max":[
				0.9718045592308044,
				0.7036224603652954,
				-0.8751521110534668
			],
			"min":[
				-1.055405616760254,
				0.4053882658481598,
				-1.0101934671401978
			],
			"type":"VEC3"
		},
		{
			"bufferView":43,
			"componentType":5126,
			"count":24,
			"type":"VEC3"
		},
		{
			"bufferView":44,
			"componentType":5126,
			"count":24,
			"type":"VEC2"
		},
		{
			"bufferView":45,
			"componentType":5126,
			"count":24,
			"max":[
				0.9718045592308044,
				1.038270354270935,
				-0.8751521110534668
			],
			"min":[
				-1.055405616760254,
				0.740036129951477,
				-1.0101934671401978
			],
			"type":"VEC3"
		},
		{
			"bufferView":46,
			"componentType":5126,
			"count":24,
			"type":"VEC3"
		},
		{
			"bufferView":47,
			"componentType":5126,
			"count":24,
			"type":"VEC2"
		},
		{
			"bufferView":48,
			"componentType":5126,
			"count":48,
			"max":[
				1.1537439823150635,
				0.3624347746372223,
				-0.8657596111297607
			],
			"min":[
				-1.2373449802398682,
				0.010702788829803467,
				-1.0576142072677612
			],
			"type":"VEC3"
		},
		{
			"bufferView":49,
			"componentType":5126,
			"count":48,
			"type":"VEC3"
		},
		{
			"bufferView":50,
			"componentType":5126,
			"count":48,
			"type":"VEC2"
		},
		{
			"bufferView":51,
			"componentType":5126,
			"count":48,
			"max":[
				1.1537439823150635,
				0.7123116850852966,
				-0.8657596111297607
			],
			"min":[
				-1.2373449802398682,
				0.3890520930290222,
				-1.0576142072677612
			],
			"type":"VEC3"
		},
		{
			"bufferView":52,
			"componentType":5126,
			"count":48,
			"type":"VEC3"
		},
		{
			"bufferView":53,
			"componentType":5126,
			"count":48,
			"type":"VEC2"
		},
		{
			"bufferView":54,
			"componentType":5126,
			"count":48,
			"max":[
				1.1537439823150635,
				1.0929057598114014,
				-0.8657596111297607
			],
			"min":[
				-1.2373449802398682,
				0.7411737442016602,
				-1.0576142072677612
			],
			"type":"VEC3"
		},
		{
			"bufferView":55,
			"componentType":5126,
			"count":48,
			"type":"VEC3"
		},
		{
			"bufferView":56,
			"componentType":5126,
			"count":48,
			"type":"VEC2"
		},
		{
			"bufferView":57,
			"componentType":5126,
			"count":24,
			"max":[
				0.9533993601799011,
				0.20520316064357758,
				0.9759751558303833
			],
			"min":[
				-1.0226672887802124,
				0.06687851250171661,
				-1.0000914335250854
			],
			"type":"VEC3"
		},
		{
			"bufferView":58,
			"componentType":5126,
			"count":24,
			"type":"VEC3"
		},
		{
			"bufferView":59,
			"componentType":5126,
			"count":24,
			"type":"VEC2"
		},
		{
			"bufferView":60,
			"componentType":5123,
			"count":36,
			"type":"SCALAR"
		}
	],
	"bufferViews":[
		{
			"buffer":0,
			"byteLength":288,
			"byteOffset":0,
			"target":34962
		},
		{
			"buffer":0,
			"byteLength":288,
			"byteOffset":288,
			"target":34962
		},
		{
			"buffer":0,
			"byteLength":192,
			"byteOffset":576,
			"target":34962
		},
		{
			"buffer":0,
			"byteLength":72,
			"byteOffset":768,
			"target":34963
		},
		{
			"buffer":0,
			"byteLength":288,
			"byteOffset":840,
			"target":34962
		},
		{
			"buffer":0,
			"byteLength":288,
			"byteOffset":1128,
			"target":34962
		},
		{
			"buffer":0,
			"byteLength":192,
			"byteOffset":1416,
			"target":34962
		},
		{
			"buffer":0,
			"byteLength":288,
			"byteOffset":1608,
			"target":34962
		},
		{
			"buffer":0,
			"byteLength":288,
			"byteOffset":1896,
			"target":34962
		},
		{
			"buffer":0,
			"byteLength":192,
			"byteOffset":2184,
			"target":34962
		},
		{
			"buffer":0,
			"byteLength":576,
			"byteOffset":2376,
			"target":34962
		},
		{
			"buffer":0,
			"byteLength":576,
			"byteOffset":2952,
			"target":34962
		},
		{
			"buffer":0,
			"byteLength":384,
			"byteOffset":3528,
			"target":34962
		},
		{
			"buffer":0,
			"byteLength":144,
			"byteOffset":3912,
			"target":34963
		},
		{
			"buffer":0,
			"byteLength":576,
			"byteOffset":4056,
			"target":34962
		},
		{
			"buffer":0,
			"byteLength":576,
			"byteOffset":4632,
			"target":34962
		},
		{
			"buffer":0,
			"byteLength":384,
			"byteOffset":5208,
			"target":34962
		},
		{
			"buffer":0,
			"byteLength":576,
			"byteOffset":5592,
			"target":34962
		},
		{
			"buffer":0,
			"byteLength":576,
			"byteOffset":6168,
			"target":34962
		},
		{
			"buffer":0,
			"byteLength":384,
			"byteOffset":6744,
			"target":34962
		},
		{
			"buffer":0,
			"byteLength":288,
			"byteOffset":7128,
			"target":34962
		},
		{
			"buffer":0,
			"byteLength":288,
			"byteOffset":7416,
			"target":34962
		},
		{
			"buffer":0,
			"byteLength":192,
			"byteOffset":7704,
			"target":34962
		},
		{
			"buffer":0,
			"byteLength":72,
			"byteOffset":7896,
			"target":34963
		},
		{
			"buffer":0,
			"byteLength":288,
			"byteOffset":7968,
			"target":34962
		},
		{
			"buffer":0,
			"byteLength":288,
			"byteOffset":8256,
			"target":34962
		},
		{
			"buffer":0,
			"byteLength":192,
			"byteOffset":8544,
			"target":34962
		},
		{
			"buffer":0,
			"byteLength":288,
			"byteOffset":8736,
			"target":34962
		},
		{
			"buffer":0,
			"byteLength":288,
			"byteOffset":9024,
			"target":34962
		},
		{
			"buffer":0,
			"byteLength":192,
			"byteOffset":9312,
			"target":34962
		},
		{
			"buffer":0,
			"byteLength":288,
			"byteOffset":9504,
			"target":34962
		},
		{
			"buffer":0,
			"byteLength":288,
			"byteOffset":9792,
			"target":34962
		},
		{
			"buffer":0,
			"byteLength":192,
			"byteOffset":10080,
			"target":34962
		},
		{
			"buffer":0,
			"byteLength":288,
			"byteOffset":10272,
			"target":34962
		},
		{
			"buffer":0,
			"byteLength":288,
			"byteOffset":10560,
			"target":34962
		},
		{
			"buffer":0,
			"byteLength":192,
			"byteOffset":10848,
			"target":34962
		},
		{
			"buffer":0,
			"byteLength":288,
			"byteOffset":11040,
			"target":34962
		},
		{
			"buffer":0,
			"byteLength":288,
			"byteOffset":11328,
			"target":34962
		},
		{
			"buffer":0,
			"byteLength":192,
			"byteOffset":11616,
			"target":34962
		},
		{
			"buffer":0,
			"byteLength":288,
			"byteOffset":11808,
			"target":34962
		},
		{
			"buffer":0,
			"byteLength":288,
			"byteOffset":12096,
			"target":34962
		},
		{
			"buffer":0,
			"byteLength":192,
			"byteOffset":12384,
			"target":34962
		},
		{
			"buffer":0,
			"byteLength":288,
			"byteOffset":12576,
			"target":34962
		},
		{
			"buffer":0,
			"byteLength":288,
			"byteOffset":12864,
			"target":34962
		},
		{
			"buffer":0,
			"byteLength":192,
			"byteOffset":13152,
			"target":34962
		},
		{
			"buffer":0,
			"byteLength":288,
			"byteOffset":13344,
			"target":34962
		},
		{
			"buffer":0,
			"byteLength":288,
			"byteOffset":13632,
			"target":34962
		},
		{
			"buffer":0,
			"byteLength":192,
			"byteOffset":13920,
			"target":34962
		},
		{
			"buffer":0,
			"byteLength":576,
			"byteOffset":14112,
			"target":34962
		},
		{
			"buffer":0,
			"byteLength":576,
			"byteOffset":14688,
			"target":34962
		},
		{
			"buffer":0,
			"byteLength":384,
			"byteOffset":15264,
			"target":34962
		},
		{
			"buffer":0,
			"byteLength":576,
			"byteOffset":15648,
			"target":34962
		},
		{
			"buffer":0,
			"byteLength":576,
			"byteOffset":16224,
			"target":34962
		},
		{
			"buffer":0,
			"byteLength":384,
			"byteOffset":16800,
			"target":34962
		},
		{
			"buffer":0,
			"byteLength":576,
			"byteOffset":17184,
			"target":34962
		},
		{
			"buffer":0,
			"byteLength":576,
			"byteOffset":17760,
			"target":34962
		},
		{
			"buffer":0,
			"byteLength":384,
			"byteOffset":18336,
			"target":34962
		},
		{
			"buffer":0,
			"byteLength":288,
			"byteOffset":18720,
			"target":34962
		},
		{
			"buffer":0,
			"byteLength":288,
			"byteOffset":19008,
			"target":34962
		},
		{
			"buffer":0,
			"byteLength":192,
			"byteOffset":19296,
			"target":34962
		},
		{
			"buffer":0,
			"byteLength":72,
			"byteOffset":19488,
			"target":34963
		}
	],
	"samplers":[
		{
			"magFilter":9729,
			"minFilter":9987
		}
	],
	"buffers":[
		{
			"byteLength":19560,
			"uri":"skrzynka.bin"
		}
	]
}
