{
	"asset":{
		"generator":"Khronos glTF Blender I/O v5.1.19",
		"version":"2.0"
	},
	"scene":0,
	"scenes":[
		{
			"name":"Scene",
			"nodes":[
				13
			]
		}
	],
	"nodes":[
		{
			"name":"taca",
			"rotation":[
				-1.6696036220231747e-10,
				9.47668041817451e-08,
				-0.007393853273242712,
				0.9999727010726929
			],
			"translation":[
				-9.313225746154785e-09,
				0.2723177671432495,
				-7.46922758493025e-16
			]
		},
		{
			"children":[
				0
			],
			"name":"reka-p",
			"rotation":[
				1.4781262325236355e-10,
				-8.053022781950858e-08,
				0.004014520440250635,
				0.9999919533729553
			],
			"translation":[
				-1.4901161193847656e-08,
				0.3771646320819855,
				0
			]
		},
		{
			"children":[
				1
			],
			"name":"klatka-p",
			"rotation":[
				1.5454309831852697e-08,
				1.5454309831852697e-08,
				-0.7071067690849304,
				0.7071067690849304
			],
			"scale":[
				0.9999999403953552,
				0.9999999403953552,
				1
			],
			"translation":[
				0,
				0.19190877676010132,
				0
			]
		},
		{
			"name":"kapelusz",
			"translation":[
				0,
				0.44837749004364014,
				0
			]
		},
		{
			"children":[
				3
			],
			"name":"gora",
			"translation":[
				0,
				0.19190877676010132,
				0
			]
		},
		{
			"name":"reka-l",
			"rotation":[
				4.764560328305439e-22,
				5.962448312857305e-09,
				3.552714525833448e-15,
				1
			],
			"translation":[
				0,
				0.3771646022796631,
				-2.9802322387695312e-08
			]
		},
		{
			"children":[
				5
			],
			"name":"klatka-l",
			"rotation":[
				0.5000000596046448,
				-0.5,
				0.5,
				0.5
			],
			"scale":[
				0.9999998807907104,
				0.9999997615814209,
				0.9999999403953552
			],
			"translation":[
				0,
				0.19190876185894012,
				0
			]
		},
		{
			"children":[
				2,
				4,
				6
			],
			"name":"glowna"
		},
		{
			"name":"noga-p",
			"rotation":[
				-0.3151664733886719,
				1.011515493587467e-07,
				-7.576297633704598e-08,
				0.9490364193916321
			],
			"scale":[
				1,
				1,
				1.0000001192092896
			],
			"translation":[
				0,
				0.21892961859703064,
				0
			]
		},
		{
			"children":[
				8
			],
			"name":"miednica-p",
			"rotation":[
				-0.585974931716919,
				-0.3957692086696625,
				-0.5859750509262085,
				0.39576929807662964
			]
		},
		{
			"name":"noga-l",
			"rotation":[
				0.31516656279563904,
				2.7714006023416005e-07,
				5.925697976749689e-08,
				0.9490363597869873
			],
			"translation":[
				0,
				0.21892961859703064,
				0
			]
		},
		{
			"children":[
				10
			],
			"name":"miednica-l",
			"rotation":[
				0.5859749913215637,
				-0.3957693576812744,
				0.5859750509262085,
				0.39576929807662964
			],
			"scale":[
				1,
				1.000000238418579,
				0.9999999403953552
			]
		},
		{
			"mesh":0,
			"name":"Circle",
			"skin":0
		},
		{
			"children":[
				12,
				7,
				9,
				11
			],
			"name":"Armature.002"
		}
	],
	"animations":[
		{
			"channels":[
				{
					"sampler":0,
					"target":{
						"node":7,
						"path":"translation"
					}
				},
				{
					"sampler":1,
					"target":{
						"node":7,
						"path":"rotation"
					}
				},
				{
					"sampler":2,
					"target":{
						"node":7,
						"path":"scale"
					}
				},
				{
					"sampler":3,
					"target":{
						"node":2,
						"path":"translation"
					}
				},
				{
					"sampler":4,
					"target":{
						"node":2,
						"path":"rotation"
					}
				},
				{
					"sampler":5,
					"target":{
						"node":2,
						"path":"scale"
					}
				},
				{
					"sampler":6,
					"target":{
						"node":1,
						"path":"translation"
					}
				},
				{
					"sampler":7,
					"target":{
						"node":1,
						"path":"rotation"
					}
				},
				{
					"sampler":8,
					"target":{
						"node":1,
						"path":"scale"
					}
				},
				{
					"sampler":9,
					"target":{
						"node":0,
						"path":"translation"
					}
				},
				{
					"sampler":10,
					"target":{
						"node":0,
						"path":"rotation"
					}
				},
				{
					"sampler":11,
					"target":{
						"node":0,
						"path":"scale"
					}
				},
				{
					"sampler":12,
					"target":{
						"node":4,
						"path":"translation"
					}
				},
				{
					"sampler":13,
					"target":{
						"node":4,
						"path":"rotation"
					}
				},
				{
					"sampler":14,
					"target":{
						"node":4,
						"path":"scale"
					}
				},
				{
					"sampler":15,
					"target":{
						"node":3,
						"path":"translation"
					}
				},
				{
					"sampler":16,
					"target":{
						"node":3,
						"path":"rotation"
					}
				},
				{
					"sampler":17,
					"target":{
						"node":3,
						"path":"scale"
					}
				},
				{
					"sampler":18,
					"target":{
						"node":6,
						"path":"translation"
					}
				},
				{
					"sampler":19,
					"target":{
						"node":6,
						"path":"rotation"
					}
				},
				{
					"sampler":20,
					"target":{
						"node":6,
						"path":"scale"
					}
				},
				{
					"sampler":21,
					"target":{
						"node":5,
						"path":"translation"
					}
				},
				{
					"sampler":22,
					"target":{
						"node":5,
						"path":"rotation"
					}
				},
				{
					"sampler":23,
					"target":{
						"node":5,
						"path":"scale"
					}
				},
				{
					"sampler":24,
					"target":{
						"node":9,
						"path":"translation"
					}
				},
				{
					"sampler":25,
					"target":{
						"node":9,
						"path":"rotation"
					}
				},
				{
					"sampler":26,
					"target":{
						"node":9,
						"path":"scale"
					}
				},
				{
					"sampler":27,
					"target":{
						"node":8,
						"path":"translation"
					}
				},
				{
					"sampler":28,
					"target":{
						"node":8,
						"path":"rotation"
					}
				},
				{
					"sampler":29,
					"target":{
						"node":8,
						"path":"scale"
					}
				},
				{
					"sampler":30,
					"target":{
						"node":11,
						"path":"translation"
					}
				},
				{
					"sampler":31,
					"target":{
						"node":11,
						"path":"rotation"
					}
				},
				{
					"sampler":32,
					"target":{
						"node":11,
						"path":"scale"
					}
				},
				{
					"sampler":33,
					"target":{
						"node":10,
						"path":"translation"
					}
				},
				{
					"sampler":34,
					"target":{
						"node":10,
						"path":"rotation"
					}
				},
				{
					"sampler":35,
					"target":{
						"node":10,
						"path":"scale"
					}
				}
			],
			"name":"Armature.002Action",
			"samplers":[
				{
					"input":10,
					"interpolation":"STEP",
					"output":11
				},
				{
					"input":10,
					"interpolation":"STEP",
					"output":12
				},
				{
					"input":10,
					"interpolation":"STEP",
					"output":13
				},
				{
					"input":10,
					"interpolation":"STEP",
					"output":14
				},
				{
					"input":10,
					"interpolation":"STEP",
					"output":15
				},
				{
					"input":10,
					"interpolation":"STEP",
					"output":16
				},
				{
					"input":10,
					"interpolation":"STEP",
					"output":17
				},
				{
					"input":10,
					"interpolation":"STEP",
					"output":18
				},
				{
					"input":10,
					"interpolation":"STEP",
					"output":19
				},
				{
					"input":10,
					"interpolation":"STEP",
					"output":20
				},
				{
					"input":10,
					"interpolation":"STEP",
					"output":21
				},
				{
					"input":10,
					"interpolation":"STEP",
					"output":22
				},
				{
					"input":10,
					"interpolation":"STEP",
					"output":23
				},
				{
					"input":24,
					"interpolation":"LINEAR",
					"output":25
				},
				{
					"input":10,
					"interpolation":"STEP",
					"output":26
				},
				{
					"input":10,
					"interpolation":"STEP",
					"output":27
				},
				{
					"input":24,
					"interpolation":"LINEAR",
					"output":28
				},
				{
					"input":10,
					"interpolation":"STEP",
					"output":13
				},
				{
					"input":10,
					"interpolation":"STEP",
					"output":29
				},
				{
					"input":10,
					"interpolation":"STEP",
					"output":30
				},
				{
					"input":10,
					"interpolation":"STEP",
					"output":31
				},
				{
					"input":10,
					"interpolation":"STEP",
					"output":32
				},
				{
					"input":24,
					"interpolation":"LINEAR",
					"output":33
				},
				{
					"input":10,
					"interpolation":"STEP",
					"output":34
				},
				{
					"input":10,
					"interpolation":"STEP",
					"output":35
				},
				{
					"input":10,
					"interpolation":"STEP",
					"output":36
				},
				{
					"input":10,
					"interpolation":"STEP",
					"output":37
				},
				{
					"input":10,
					"interpolation":"STEP",
					"output":38
				},
				{
					"input":10,
					"interpolation":"STEP",
					"output":39
				},
				{
					"input":10,
					"interpolation":"STEP",
					"output":40
				},
				{
					"input":10,
					"interpolation":"STEP",
					"output":41
				},
				{
					"input":10,
					"interpolation":"STEP",
					"output":42
				},
				{
					"input":10,
					"interpolation":"STEP",
					"output":43
				},
				{
					"input":10,
					"interpolation":"STEP",
					"output":44
				},
				{
					"input":10,
					"interpolation":"STEP",
					"output":45
				},
				{
					"input":10,
					"interpolation":"STEP",
					"output":13
				}
			]
		},
		{
			"channels":[
				{
					"sampler":0,
					"target":{
						"node":12,
						"path":"translation"
					}
				},
				{
					"sampler":1,
					"target":{
						"node":12,
						"path":"rotation"
					}
				},
				{
					"sampler":2,
					"target":{
						"node":12,
						"path":"scale"
					}
				}
			],
			"name":"CircleAction",
			"samplers":[
				{
					"input":46,
					"interpolation":"LINEAR",
					"output":47
				},
				{
					"input":46,
					"interpolation":"LINEAR",
					"output":48
				},
				{
					"input":46,
					"interpolation":"LINEAR",
					"output":49
				}
			]
		}
	],
	"materials":[
		{
			"doubleSided":true,
			"emissiveFactor":[
				0.19999980926513672,
				0.19999980926513672,
				0.19999980926513672
			],
			"emissiveTexture":{
				"index":0,
				"texCoord":1
			},
			"name":"Material.003",
			"pbrMetallicRoughness":{
				"baseColorTexture":{
					"index":1
				},
				"metallicFactor":0,
				"roughnessFactor":0.5
			}
		}
	],
	"meshes":[
		{
			"name":"Circle",
			"primitives":[
				{
					"attributes":{
						"POSITION":0,
						"NORMAL":1,
						"TEXCOORD_0":2,
						"TEXCOORD_1":3,
						"COLOR_0":4,
						"COLOR_1":5,
						"JOINTS_0":6,
						"WEIGHTS_0":7
					},
					"indices":8,
					"material":0
				}
			]
		}
	],
	"textures":[
		{
			"sampler":0,
			"source":0
		},
		{
			"sampler":0,
			"source":1
		}
	],
	"images":[
		{
			"mimeType":"image/png",
			"name":"detal",
			"uri":"detal.png"
		},
		{
			"mimeType": "image/png",
			"name": "palette",
			"uri": "../../../textures/palette.png"
		}
	],
	"skins":[
		{
			"inverseBindMatrices":9,
			"joints":[
				7,
				2,
				1,
				0,
				4,
				3,
				6,
				5,
				9,
				8,
				11,
				10
			],
			"name":"Armature.002"
		}
	],
	"accessors":[
		{
			"bufferView":0,
			"componentType":5126,
			"count":9887,
			"max":[
				0.8489122986793518,
				1.568042516708374,
				0.7744036912918091
			],
			"min":[
				-0.8895615935325623,
				-0.3563568592071533,
				-0.7744038105010986
			],
			"type":"VEC3"
		},
		{
			"bufferView":1,
			"componentType":5126,
			"count":9887,
			"type":"VEC3"
		},
		{
			"bufferView":2,
			"componentType":5126,
			"count":9887,
			"type":"VEC2"
		},
		{
			"bufferView":3,
			"componentType":5126,
			"count":9887,
			"type":"VEC2"
		},
		{
			"bufferView":4,
			"componentType":5121,
			"count":9887,
			"normalized":true,
			"type":"VEC4"
		},
		{
			"bufferView":5,
			"componentType":5123,
			"count":9887,
			"normalized":true,
			"type":"VEC4"
		},
		{
			"bufferView":6,
			"componentType":5121,
			"count":9887,
			"type":"VEC4"
		},
		{
			"bufferView":7,
			"componentType":5126,
			"count":9887,
			"type":"VEC4"
		},
		{
			"bufferView":8,
			"componentType":5123,
			"count":31626,
			"type":"SCALAR"
		},
		{
			"bufferView":9,
			"componentType":5126,
			"count":12,
			"type":"MAT4"
		},
		{
			"bufferView":10,
			"componentType":5126,
			"count":2,
			"max":[
				1.6666666666666667
			],
			"min":[
				0.041666666666666664
			],
			"type":"SCALAR"
		},
		{
			"bufferView":11,
			"componentType":5126,
			"count":2,
			"type":"VEC3"
		},
		{
			"bufferView":12,
			"componentType":5126,
			"count":2,
			"type":"VEC4"
		},
		{
			"bufferView":13,
			"componentType":5126,
			"count":2,
			"type":"VEC3"
		},
		{
			"bufferView":14,
			"componentType":5126,
			"count":2,
			"type":"VEC3"
		},
		{
			"bufferView":15,
			"componentType":5126,
			"count":2,
			"type":"VEC4"
		},
		{
			"bufferView":16,
			"componentType":5126,
			"count":2,
			"type":"VEC3"
		},
		{
			"bufferView":17,
			"componentType":5126,
			"count":2,
			"type":"VEC3"
		},
		{
			"bufferView":18,
			"componentType":5126,
			"count":2,
			"type":"VEC4"
		},
		{
			"bufferView":19,
			"componentType":5126,
			"count":2,
			"type":"VEC3"
		},
		{
			"bufferView":20,
			"componentType":5126,
			"count":2,
			"type":"VEC3"
		},
		{
			"bufferView":21,
			"componentType":5126,
			"count":2,
			"type":"VEC4"
		},
		{
			"bufferView":22,
			"componentType":5126,
			"count":2,
			"type":"VEC3"
		},
		{
			"bufferView":23,
			"componentType":5126,
			"count":2,
			"type":"VEC3"
		},
		{
			"bufferView":24,
			"componentType":5126,
			"count":40,
			"max":[
				1.6666666666666667
			],
			"min":[
				0.041666666666666664
			],
			"type":"SCALAR"
		},
		{
			"bufferView":25,
			"componentType":5126,
			"count":40,
			"type":"VEC4"
		},
		{
			"bufferView":26,
			"componentType":5126,
			"count":2,
			"type":"VEC3"
		},
		{
			"bufferView":27,
			"componentType":5126,
			"count":2,
			"type":"VEC3"
		},
		{
			"bufferView":28,
			"componentType":5126,
			"count":40,
			"type":"VEC4"
		},
		{
			"bufferView":29,
			"componentType":5126,
			"count":2,
			"type":"VEC3"
		},
		{
			"bufferView":30,
			"componentType":5126,
			"count":2,
			"type":"VEC4"
		},
		{
			"bufferView":31,
			"componentType":5126,
			"count":2,
			"type":"VEC3"
		},
		{
			"bufferView":32,
			"componentType":5126,
			"count":2,
			"type":"VEC3"
		},
		{
			"bufferView":33,
			"componentType":5126,
			"count":40,
			"type":"VEC4"
		},
		{
			"bufferView":34,
			"componentType":5126,
			"count":2,
			"type":"VEC3"
		},
		{
			"bufferView":35,
			"componentType":5126,
			"count":2,
			"type":"VEC3"
		},
		{
			"bufferView":36,
			"componentType":5126,
			"count":2,
			"type":"VEC4"
		},
		{
			"bufferView":37,
			"componentType":5126,
			"count":2,
			"type":"VEC3"
		},
		{
			"bufferView":38,
			"componentType":5126,
			"count":2,
			"type":"VEC3"
		},
		{
			"bufferView":39,
			"componentType":5126,
			"count":2,
			"type":"VEC4"
		},
		{
			"bufferView":40,
			"componentType":5126,
			"count":2,
			"type":"VEC3"
		},
		{
			"bufferView":41,
			"componentType":5126,
			"count":2,
			"type":"VEC3"
		},
		{
			"bufferView":42,
			"componentType":5126,
			"count":2,
			"type":"VEC4"
		},
		{
			"bufferView":43,
			"componentType":5126,
			"count":2,
			"type":"VEC3"
		},
		{
			"bufferView":44,
			"componentType":5126,
			"count":2,
			"type":"VEC3"
		},
		{
			"bufferView":45,
			"componentType":5126,
			"count":2,
			"type":"VEC4"
		},
		{
			"bufferView":46,
			"componentType":5126,
			"count":1,
			"max":[
				0.041666666666666664
			],
			"min":[
				0.041666666666666664
			],
			"type":"SCALAR"
		},
		{
			"bufferView":47,
			"componentType":5126,
			"count":1,
			"type":"VEC3"
		},
		{
			"bufferView":48,
			"componentType":5126,
			"count":1,
			"type":"VEC4"
		},
		{
			"bufferView":49,
			"componentType":5126,
			"count":1,
			"type":"VEC3"
		}
	],
	"bufferViews":[
		{
			"buffer":0,
			"byteLength":118644,
			"byteOffset":0,
			"target":34962
		},
		{
			"buffer":0,
			"byteLength":118644,
			"byteOffset":118644,
			"target":34962
		},
		{
			"buffer":0,
			"byteLength":79096,
			"byteOffset":237288,
			"target":34962
		},
		{
			"buffer":0,
			"byteLength":79096,
			"byteOffset":316384,
			"target":34962
		},
		{
			"buffer":0,
			"byteLength":39548,
			"byteOffset":395480,
			"target":34962
		},
		{
			"buffer":0,
			"byteLength":79096,
			"byteOffset":435028,
			"target":34962
		},
		{
			"buffer":0,
			"byteLength":39548,
			"byteOffset":514124,
			"target":34962
		},
		{
			"buffer":0,
			"byteLength":158192,
			"byteOffset":553672,
			"target":34962
		},
		{
			"buffer":0,
			"byteLength":63252,
			"byteOffset":711864,
			"target":34963
		},
		{
			"buffer":0,
			"byteLength":768,
			"byteOffset":775116
		},
		{
			"buffer":0,
			"byteLength":8,
			"byteOffset":775884
		},
		{
			"buffer":0,
			"byteLength":24,
			"byteOffset":775892
		},
		{
			"buffer":0,
			"byteLength":32,
			"byteOffset":775916
		},
		{
			"buffer":0,
			"byteLength":24,
			"byteOffset":775948
		},
		{
			"buffer":0,
			"byteLength":24,
			"byteOffset":775972
		},
		{
			"buffer":0,
			"byteLength":32,
			"byteOffset":775996
		},
		{
			"buffer":0,
			"byteLength":24,
			"byteOffset":776028
		},
		{
			"buffer":0,
			"byteLength":24,
			"byteOffset":776052
		},
		{
			"buffer":0,
			"byteLength":32,
			"byteOffset":776076
		},
		{
			"buffer":0,
			"byteLength":24,
			"byteOffset":776108
		},
		{
			"buffer":0,
			"byteLength":24,
			"byteOffset":776132
		},
		{
			"buffer":0,
			"byteLength":32,
			"byteOffset":776156
		},
		{
			"buffer":0,
			"byteLength":24,
			"byteOffset":776188
		},
		{
			"buffer":0,
			"byteLength":24,
			"byteOffset":776212
		},
		{
			"buffer":0,
			"byteLength":160,
			"byteOffset":776236
		},
		{
			"buffer":0,
			"byteLength":640,
			"byteOffset":776396
		},
		{
			"buffer":0,
			"byteLength":24,
			"byteOffset":777036
		},
		{
			"buffer":0,
			"byteLength":24,
			"byteOffset":777060
		},
		{
			"buffer":0,
			"byteLength":640,
			"byteOffset":777084
		},
		{
			"buffer":0,
			"byteLength":24,
			"byteOffset":777724
		},
		{
			"buffer":0,
			"byteLength":32,
			"byteOffset":777748
		},
		{
			"buffer":0,
			"byteLength":24,
			"byteOffset":777780
		},
		{
			"buffer":0,
			"byteLength":24,
			"byteOffset":777804
		},
		{
			"buffer":0,
			"byteLength":640,
			"byteOffset":777828
		},
		{
			"buffer":0,
			"byteLength":24,
			"byteOffset":778468
		},
		{
			"buffer":0,
			"byteLength":24,
			"byteOffset":778492
		},
		{
			"buffer":0,
			"byteLength":32,
			"byteOffset":778516
		},
		{
			"buffer":0,
			"byteLength":24,
			"byteOffset":778548
		},
		{
			"buffer":0,
			"byteLength":24,
			"byteOffset":778572
		},
		{
			"buffer":0,
			"byteLength":32,
			"byteOffset":778596
		},
		{
			"buffer":0,
			"byteLength":24,
			"byteOffset":778628
		},
		{
			"buffer":0,
			"byteLength":24,
			"byteOffset":778652
		},
		{
			"buffer":0,
			"byteLength":32,
			"byteOffset":778676
		},
		{
			"buffer":0,
			"byteLength":24,
			"byteOffset":778708
		},
		{
			"buffer":0,
			"byteLength":24,
			"byteOffset":778732
		},
		{
			"buffer":0,
			"byteLength":32,
			"byteOffset":778756
		},
		{
			"buffer":0,
			"byteLength":4,
			"byteOffset":778788
		},
		{
			"buffer":0,
			"byteLength":12,
			"byteOffset":778792
		},
		{
			"buffer":0,
			"byteLength":16,
			"byteOffset":778804
		},
		{
			"buffer":0,
			"byteLength":12,
			"byteOffset":778820
		}
	],
	"samplers":[
		{
			"magFilter":9729,
			"minFilter":9987
		}
	],
	"buffers":[
		{
			"byteLength":778832,
			"uri":"grzybek-zamowienia.bin"
		}
	]
}
