{
	"asset":{
		"generator":"Khronos glTF Blender I/O v5.1.19",
		"version":"2.0"
	},
	"scene":0,
	"scenes":[
		{
			"name":"Scene",
			"nodes":[
				14
			]
		}
	],
	"nodes":[
		{
			"name":"taca",
			"rotation":[
				-1.6696036220231747e-10,
				9.47668041817451e-08,
				-0.007393853273242712,
				0.9999727010726929
			],
			"translation":[
				3.5390257835388184e-08,
				0.2723177373409271,
				-2.5232795978932755e-15
			]
		},
		{
			"children":[
				0
			],
			"name":"reka-p",
			"rotation":[
				1.4781262325236355e-10,
				-8.053022781950858e-08,
				0.004014520440250635,
				0.9999919533729553
			],
			"translation":[
				-5.960464477539063e-08,
				0.3771646320819855,
				0
			]
		},
		{
			"children":[
				1
			],
			"name":"klatka-p",
			"rotation":[
				1.5454309831852697e-08,
				1.5454309831852697e-08,
				-0.7071067690849304,
				0.7071067690849304
			],
			"scale":[
				0.9999999403953552,
				0.9999999403953552,
				1
			],
			"translation":[
				0,
				0.1919088065624237,
				0
			]
		},
		{
			"name":"kapelusz",
			"translation":[
				0,
				0.44837749004364014,
				0
			]
		},
		{
			"children":[
				3
			],
			"name":"gora",
			"translation":[
				0,
				0.1919088065624237,
				0
			]
		},
		{
			"name":"reka-l",
			"rotation":[
				4.764560328305439e-22,
				5.962448312857305e-09,
				3.552714525833448e-15,
				1
			],
			"translation":[
				0,
				0.3771646022796631,
				0
			]
		},
		{
			"children":[
				5
			],
			"name":"klatka-l",
			"rotation":[
				0.5000000596046448,
				-0.5,
				0.5,
				0.5
			],
			"scale":[
				0.9999998807907104,
				0.9999997615814209,
				0.9999999403953552
			],
			"translation":[
				0,
				0.19190874695777893,
				0
			]
		},
		{
			"children":[
				2,
				4,
				6
			],
			"name":"glowna"
		},
		{
			"name":"noga-p",
			"rotation":[
				-0.3151664733886719,
				1.011515493587467e-07,
				-7.576297633704598e-08,
				0.9490364193916321
			],
			"scale":[
				1,
				1,
				1.0000001192092896
			],
			"translation":[
				8.881784197001252e-16,
				0.21892961859703064,
				-7.450580596923828e-09
			]
		},
		{
			"children":[
				8
			],
			"name":"miednica-p",
			"rotation":[
				-0.585974931716919,
				-0.3957692086696625,
				-0.5859750509262085,
				0.39576929807662964
			]
		},
		{
			"name":"noga-l",
			"rotation":[
				0.31516656279563904,
				2.7714006023416005e-07,
				5.925697976749689e-08,
				0.9490363597869873
			],
			"translation":[
				1.7763568394002505e-15,
				0.21892961859703064,
				2.2351741790771484e-08
			]
		},
		{
			"children":[
				10
			],
			"name":"miednica-l",
			"rotation":[
				0.5859749913215637,
				-0.3957693576812744,
				0.5859750509262085,
				0.39576929807662964
			],
			"scale":[
				1,
				1.000000238418579,
				0.9999999403953552
			]
		},
		{
			"mesh":0,
			"name":"Circle",
			"skin":0
		},
		{
			"children":[
				12,
				7,
				9,
				11
			],
			"name":"Armature.002",
			"translation":[
				0,
				0.3577231466770172,
				0
			]
		},
		{
			"children":[
				13
			],
			"name":"Empty"
		}
	],
	"materials":[
		{
			"doubleSided":true,
			"emissiveFactor":[
				0.19999980926513672,
				0.19999980926513672,
				0.19999980926513672
			],
			"emissiveTexture":{
				"index":0,
				"texCoord":1
			},
			"name":"Material.003",
			"pbrMetallicRoughness":{
				"baseColorTexture":{
					"index":1
				},
				"metallicFactor":0,
				"roughnessFactor":0.5
			}
		}
	],
	"meshes":[
		{
			"name":"Circle",
			"primitives":[
				{
					"attributes":{
						"POSITION":0,
						"NORMAL":1,
						"TEXCOORD_0":2,
						"TEXCOORD_1":3,
						"COLOR_0":4,
						"COLOR_1":5,
						"JOINTS_0":6,
						"WEIGHTS_0":7
					},
					"indices":8,
					"material":0
				}
			]
		}
	],
	"textures":[
		{
			"sampler":0,
			"source":0
		},
		{
			"sampler":0,
			"source":1
		}
	],
	"images":[
		{
			"mimeType":"image/png",
			"name":"detal",
			"uri":"detal.png"
		},
		{
			"mimeType": "image/png",
			"name": "palette",
			"uri": "../../../textures/palette.png"
		}
	],
	"skins":[
		{
			"inverseBindMatrices":9,
			"joints":[
				7,
				2,
				1,
				0,
				4,
				3,
				6,
				5,
				9,
				8,
				11,
				10
			],
			"name":"Armature.002"
		}
	],
	"accessors":[
		{
			"bufferView":0,
			"componentType":5126,
			"count":9887,
			"max":[
				0.8489122986793518,
				1.9257656335830688,
				0.7744036912918091
			],
			"min":[
				-0.8895615935325623,
				0.0013662874698638916,
				-0.7744038105010986
			],
			"type":"VEC3"
		},
		{
			"bufferView":1,
			"componentType":5126,
			"count":9887,
			"type":"VEC3"
		},
		{
			"bufferView":2,
			"componentType":5126,
			"count":9887,
			"type":"VEC2"
		},
		{
			"bufferView":3,
			"componentType":5126,
			"count":9887,
			"type":"VEC2"
		},
		{
			"bufferView":4,
			"componentType":5121,
			"count":9887,
			"normalized":true,
			"type":"VEC4"
		},
		{
			"bufferView":5,
			"componentType":5123,
			"count":9887,
			"normalized":true,
			"type":"VEC4"
		},
		{
			"bufferView":6,
			"componentType":5121,
			"count":9887,
			"type":"VEC4"
		},
		{
			"bufferView":7,
			"componentType":5126,
			"count":9887,
			"type":"VEC4"
		},
		{
			"bufferView":8,
			"componentType":5123,
			"count":31626,
			"type":"SCALAR"
		},
		{
			"bufferView":9,
			"componentType":5126,
			"count":12,
			"type":"MAT4"
		}
	],
	"bufferViews":[
		{
			"buffer":0,
			"byteLength":118644,
			"byteOffset":0,
			"target":34962
		},
		{
			"buffer":0,
			"byteLength":118644,
			"byteOffset":118644,
			"target":34962
		},
		{
			"buffer":0,
			"byteLength":79096,
			"byteOffset":237288,
			"target":34962
		},
		{
			"buffer":0,
			"byteLength":79096,
			"byteOffset":316384,
			"target":34962
		},
		{
			"buffer":0,
			"byteLength":39548,
			"byteOffset":395480,
			"target":34962
		},
		{
			"buffer":0,
			"byteLength":79096,
			"byteOffset":435028,
			"target":34962
		},
		{
			"buffer":0,
			"byteLength":39548,
			"byteOffset":514124,
			"target":34962
		},
		{
			"buffer":0,
			"byteLength":158192,
			"byteOffset":553672,
			"target":34962
		},
		{
			"buffer":0,
			"byteLength":63252,
			"byteOffset":711864,
			"target":34963
		},
		{
			"buffer":0,
			"byteLength":768,
			"byteOffset":775116
		}
	],
	"samplers":[
		{
			"magFilter":9729,
			"minFilter":9987
		}
	],
	"buffers":[
		{
			"byteLength":775884,
			"uri":"grzybek-kartka.bin"
		}
	]
}
