{
	"asset":{
		"generator":"Khronos glTF Blender I/O v4.5.48",
		"version":"2.0"
	},
	"scene":0,
	"scenes":[
		{
			"name":"Scene",
			"nodes":[
				0
			]
		}
	],
	"nodes":[
		{
			"mesh":0,
			"name":"Cylinder.003"
		}
	],
	"materials":[
		{
			"doubleSided":true,
			"name":"Material.003",
			"pbrMetallicRoughness":{
				"baseColorTexture":{
					"index":0
				},
				"metallicFactor":0
			}
		},
		{
			"doubleSided":true,
			"name":"Material.002",
			"pbrMetallicRoughness":{
				"baseColorTexture":{
					"index":1
				},
				"metallicFactor":0,
				"roughnessFactor":0.5
			}
		},
		{
			"doubleSided":true,
			"name":"Material.001",
			"pbrMetallicRoughness":{
				"baseColorTexture":{
					"index":2
				},
				"metallicFactor":0
			}
		}
	],
	"meshes":[
		{
			"name":"Cylinder.003",
			"primitives":[
				{
					"attributes":{
						"POSITION":0,
						"NORMAL":1,
						"TEXCOORD_0":2
					},
					"indices":3,
					"material":0
				},
				{
					"attributes":{
						"POSITION":4,
						"NORMAL":5,
						"TEXCOORD_0":6
					},
					"indices":7,
					"material":1
				},
				{
					"attributes":{
						"POSITION":8,
						"NORMAL":9,
						"TEXCOORD_0":10
					},
					"indices":11,
					"material":2
				}
			]
		}
	],
	"textures":[
		{
			"sampler":0,
			"source":0
		},
		{
			"sampler":0,
			"source":0
		},
		{
			"sampler":0,
			"source":0
		}
	],
	"images":[
		{
			"mimeType":"image/png",
			"name":"palette",
			"uri":"../../../textures/palette.png"
		}
	],
	"accessors":[
		{
			"bufferView":0,
			"componentType":5126,
			"count":580,
			"max":[
				0.4825090765953064,
				0.09364430606365204,
				0.4825090765953064
			],
			"min":[
				-0.4825090765953064,
				-0.0848599523305893,
				-0.4825090765953064
			],
			"type":"VEC3"
		},
		{
			"bufferView":1,
			"componentType":5126,
			"count":580,
			"type":"VEC3"
		},
		{
			"bufferView":2,
			"componentType":5126,
			"count":580,
			"type":"VEC2"
		},
		{
			"bufferView":3,
			"componentType":5123,
			"count":960,
			"type":"SCALAR"
		},
		{
			"bufferView":4,
			"componentType":5126,
			"count":1934,
			"max":[
				0.4825090765953064,
				0.09364429861307144,
				0.4825090765953064
			],
			"min":[
				-0.4825090765953064,
				0.0779099389910698,
				-0.4825090765953064
			],
			"type":"VEC3"
		},
		{
			"bufferView":5,
			"componentType":5126,
			"count":1934,
			"type":"VEC3"
		},
		{
			"bufferView":6,
			"componentType":5126,
			"count":1934,
			"type":"VEC2"
		},
		{
			"bufferView":7,
			"componentType":5123,
			"count":3450,
			"type":"SCALAR"
		},
		{
			"bufferView":8,
			"componentType":5126,
			"count":256,
			"max":[
				0.4028896689414978,
				0.07790994644165039,
				0.4550888240337372
			],
			"min":[
				-0.4550888240337372,
				0.07790994644165039,
				-0.40662476420402527
			],
			"type":"VEC3"
		},
		{
			"bufferView":9,
			"componentType":5126,
			"count":256,
			"type":"VEC3"
		},
		{
			"bufferView":10,
			"componentType":5126,
			"count":256,
			"type":"VEC2"
		},
		{
			"bufferView":11,
			"componentType":5123,
			"count":384,
			"type":"SCALAR"
		}
	],
	"bufferViews":[
		{
			"buffer":0,
			"byteLength":6960,
			"byteOffset":0,
			"target":34962
		},
		{
			"buffer":0,
			"byteLength":6960,
			"byteOffset":6960,
			"target":34962
		},
		{
			"buffer":0,
			"byteLength":4640,
			"byteOffset":13920,
			"target":34962
		},
		{
			"buffer":0,
			"byteLength":1920,
			"byteOffset":18560,
			"target":34963
		},
		{
			"buffer":0,
			"byteLength":23208,
			"byteOffset":20480,
			"target":34962
		},
		{
			"buffer":0,
			"byteLength":23208,
			"byteOffset":43688,
			"target":34962
		},
		{
			"buffer":0,
			"byteLength":15472,
			"byteOffset":66896,
			"target":34962
		},
		{
			"buffer":0,
			"byteLength":6900,
			"byteOffset":82368,
			"target":34963
		},
		{
			"buffer":0,
			"byteLength":3072,
			"byteOffset":89268,
			"target":34962
		},
		{
			"buffer":0,
			"byteLength":3072,
			"byteOffset":92340,
			"target":34962
		},
		{
			"buffer":0,
			"byteLength":2048,
			"byteOffset":95412,
			"target":34962
		},
		{
			"buffer":0,
			"byteLength":768,
			"byteOffset":97460,
			"target":34963
		}
	],
	"samplers":[
		{
			"magFilter":9729,
			"minFilter":9987
		}
	],
	"buffers":[
		{
			"byteLength":98228,
			"uri":"apple_pie.bin"
		}
	]
}
