{
	"asset":{
		"generator":"Khronos glTF Blender I/O v4.5.48",
		"version":"2.0"
	},
	"scene":0,
	"scenes":[
		{
			"name":"Scene",
			"nodes":[
				0
			]
		}
	],
	"nodes":[
		{
			"mesh":0,
			"name":"Sphere"
		}
	],
	"materials":[
		{
			"doubleSided":true,
			"name":"Material.001",
			"pbrMetallicRoughness":{
				"baseColorTexture":{
					"index":0
				},
				"metallicFactor":0
			}
		}
	],
	"meshes":[
		{
			"name":"Sphere",
			"primitives":[
				{
					"attributes":{
						"POSITION":0,
						"NORMAL":1,
						"TEXCOORD_0":2
					},
					"indices":3,
					"material":0
				}
			]
		}
	],
	"textures":[
		{
			"sampler":0,
			"source":0
		}
	],
	"images":[
		{
			"mimeType":"image/png",
			"name":"palette",
			"uri": "../../../textures/palette.png"
		}
	],
	"accessors":[
		{
			"bufferView":0,
			"componentType":5126,
			"count":2490,
			"max":[
				0.683464765548706,
				1.0407875776290894,
				0.6050600409507751
			],
			"min":[
				-0.615126371383667,
				-0.0019374191761016846,
				-0.6661919951438904
			],
			"type":"VEC3"
		},
		{
			"bufferView":1,
			"componentType":5126,
			"count":2490,
			"type":"VEC3"
		},
		{
			"bufferView":2,
			"componentType":5126,
			"count":2490,
			"type":"VEC2"
		},
		{
			"bufferView":3,
			"componentType":5123,
			"count":12114,
			"type":"SCALAR"
		}
	],
	"bufferViews":[
		{
			"buffer":0,
			"byteLength":29880,
			"byteOffset":0,
			"target":34962
		},
		{
			"buffer":0,
			"byteLength":29880,
			"byteOffset":29880,
			"target":34962
		},
		{
			"buffer":0,
			"byteLength":19920,
			"byteOffset":59760,
			"target":34962
		},
		{
			"buffer":0,
			"byteLength":24228,
			"byteOffset":79680,
			"target":34963
		}
	],
	"samplers":[
		{
			"magFilter":9728,
			"minFilter":9984
		}
	],
	"buffers":[
		{
			"byteLength":103908,
			"uri":"ciasto.bin"
		}
	]
}
