{
	"asset":{
		"generator":"Khronos glTF Blender I/O v5.1.19",
		"version":"2.0"
	},
	"scene":0,
	"scenes":[
		{
			"name":"Scene",
			"nodes":[
				0
			]
		}
	],
	"nodes":[
		{
			"mesh":0,
			"name":"Cube.002"
		}
	],
	"materials":[
		{
			"doubleSided":true,
			"name":"Material.004",
			"pbrMetallicRoughness":{
				"baseColorTexture":{
					"index":0
				},
				"metallicFactor":0,
				"roughnessFactor":0.5
			}
		},
		{
			"doubleSided":true,
			"name":"Material.016",
			"pbrMetallicRoughness":{
				"baseColorTexture":{
					"index":1
				},
				"metallicFactor":0,
				"roughnessFactor":0.5
			}
		}
	],
	"meshes":[
		{
			"name":"Cube.002",
			"primitives":[
				{
					"attributes":{
						"POSITION":0,
						"NORMAL":1,
						"TEXCOORD_0":2
					},
					"indices":3,
					"material":0
				},
				{
					"attributes":{
						"POSITION":4,
						"NORMAL":5,
						"TEXCOORD_0":6
					},
					"indices":7,
					"material":1
				}
			]
		}
	],
	"textures":[
		{
			"sampler":0,
			"source":0
		},
		{
			"sampler":0,
			"source":0
		}
	],
	"images":[
		{
			"mimeType":"image/png",
			"name":"belt",
			"uri":"../../texture/belt.png"
		}
	],
	"accessors":[
		{
			"bufferView":0,
			"componentType":5126,
			"count":84,
			"max":[
				1,
				1,
				1
			],
			"min":[
				-1,
				0,
				-1
			],
			"type":"VEC3"
		},
		{
			"bufferView":1,
			"componentType":5126,
			"count":84,
			"type":"VEC3"
		},
		{
			"bufferView":2,
			"componentType":5126,
			"count":84,
			"type":"VEC2"
		},
		{
			"bufferView":3,
			"componentType":5123,
			"count":144,
			"type":"SCALAR"
		},
		{
			"bufferView":4,
			"componentType":5126,
			"count":50,
			"max":[
				0.7565855979919434,
				1.0097496509552002,
				0.8063588738441467
			],
			"min":[
				-0.8083847165107727,
				0.9442154765129089,
				-0.7559323310852051
			],
			"type":"VEC3"
		},
		{
			"bufferView":5,
			"componentType":5126,
			"count":50,
			"type":"VEC3"
		},
		{
			"bufferView":6,
			"componentType":5126,
			"count":50,
			"type":"VEC2"
		},
		{
			"bufferView":7,
			"componentType":5123,
			"count":84,
			"type":"SCALAR"
		}
	],
	"bufferViews":[
		{
			"buffer":0,
			"byteLength":1008,
			"byteOffset":0,
			"target":34962
		},
		{
			"buffer":0,
			"byteLength":1008,
			"byteOffset":1008,
			"target":34962
		},
		{
			"buffer":0,
			"byteLength":672,
			"byteOffset":2016,
			"target":34962
		},
		{
			"buffer":0,
			"byteLength":288,
			"byteOffset":2688,
			"target":34963
		},
		{
			"buffer":0,
			"byteLength":600,
			"byteOffset":2976,
			"target":34962
		},
		{
			"buffer":0,
			"byteLength":600,
			"byteOffset":3576,
			"target":34962
		},
		{
			"buffer":0,
			"byteLength":400,
			"byteOffset":4176,
			"target":34962
		},
		{
			"buffer":0,
			"byteLength":168,
			"byteOffset":4576,
			"target":34963
		}
	],
	"samplers":[
		{
			"magFilter":9729,
			"minFilter":9987
		}
	],
	"buffers":[
		{
			"byteLength":4744,
			"uri":"baseR.bin"
		}
	]
}
