{
	"asset":{
		"generator":"Khronos glTF Blender I/O v4.5.48",
		"version":"2.0"
	},
	"scene":0,
	"scenes":[
		{
			"name":"Scene",
			"nodes":[
				0,
				1,
				2,
				3,
				4,
				5,
				6
			]
		}
	],
	"nodes":[
		{
			"mesh":0,
			"name":"Circle"
		},
		{
			"mesh":1,
			"name":"Circle.001"
		},
		{
			"mesh":2,
			"name":"Circle.002"
		},
		{
			"mesh":3,
			"name":"Circle.003"
		},
		{
			"mesh":4,
			"name":"Circle.004"
		},
		{
			"mesh":5,
			"name":"roslina.001"
		},
		{
			"mesh":6,
			"name":"roslina.002"
		}
	],
	"materials":[
		{
			"doubleSided":true,
			"name":"Material.001",
			"pbrMetallicRoughness":{
				"baseColorTexture":{
					"index":0
				},
				"metallicFactor":0,
				"roughnessFactor":0.5
			}
		},
		{
			"doubleSided":true,
			"name":"Material",
			"pbrMetallicRoughness":{
				"baseColorTexture":{
					"index":1
				},
				"metallicFactor":0,
				"roughnessFactor":0.5
			}
		},
		{
			"doubleSided":true,
			"name":"kwiat",
			"pbrMetallicRoughness":{
				"baseColorTexture":{
					"index":2
				},
				"metallicFactor":0,
				"roughnessFactor":0.5
			}
		}
	],
	"meshes":[
		{
			"name":"Circle.001",
			"primitives":[
				{
					"attributes":{
						"POSITION":0,
						"NORMAL":1,
						"TEXCOORD_0":2
					},
					"indices":3,
					"material":0
				}
			]
		},
		{
			"name":"Circle.004",
			"primitives":[
				{
					"attributes":{
						"POSITION":4,
						"NORMAL":5,
						"TEXCOORD_0":6
					},
					"indices":7,
					"material":1
				}
			]
		},
		{
			"name":"Circle.005",
			"primitives":[
				{
					"attributes":{
						"POSITION":8,
						"NORMAL":9,
						"TEXCOORD_0":10
					},
					"indices":7,
					"material":1
				}
			]
		},
		{
			"name":"Circle.006",
			"primitives":[
				{
					"attributes":{
						"POSITION":11,
						"NORMAL":12,
						"TEXCOORD_0":13
					},
					"indices":14,
					"material":0
				}
			]
		},
		{
			"name":"Circle.007",
			"primitives":[
				{
					"attributes":{
						"POSITION":15,
						"NORMAL":16,
						"TEXCOORD_0":17
					},
					"indices":14,
					"material":0
				}
			]
		},
		{
			"name":"Cylinder.001",
			"primitives":[
				{
					"attributes":{
						"POSITION":18,
						"NORMAL":19,
						"TEXCOORD_0":20
					},
					"indices":21,
					"material":2
				}
			]
		},
		{
			"name":"Cylinder.003",
			"primitives":[
				{
					"attributes":{
						"POSITION":22,
						"NORMAL":23,
						"TEXCOORD_0":24
					},
					"indices":25,
					"material":2
				}
			]
		}
	],
	"textures":[
		{
			"sampler":0,
			"source":0
		},
		{
			"sampler":0,
			"source":1
		},
		{
			"sampler":0,
			"source":2
		}
	],
	"images":[
		{
			"mimeType":"image/png",
			"name":"pomidor",
			"uri":"pomidor.png"
		},
		{
			"mimeType": "image/png",
			"name": "palette",
			"uri": "../../../textures/palette.png"
		},
		{
			"mimeType": "image/jpeg",
			"name": "lisc",
			"uri": "lisc.jpg"
		}
	],
	"accessors":[
		{
			"bufferView":0,
			"componentType":5126,
			"count":132,
			"max":[
				0.9336933493614197,
				0.1037551686167717,
				-0.1967504620552063
			],
			"min":[
				-1.0033390522003174,
				-0.006247073411941528,
				-1.924537181854248
			],
			"type":"VEC3"
		},
		{
			"bufferView":1,
			"componentType":5126,
			"count":132,
			"type":"VEC3"
		},
		{
			"bufferView":2,
			"componentType":5126,
			"count":132,
			"type":"VEC2"
		},
		{
			"bufferView":3,
			"componentType":5123,
			"count":372,
			"type":"SCALAR"
		},
		{
			"bufferView":4,
			"componentType":5126,
			"count":136,
			"max":[
				0.9336933493614197,
				0.31909704208374023,
				0.19944356381893158
			],
			"min":[
				-1.0033390522003174,
				0.0512203574180603,
				-1.5311530828475952
			],
			"type":"VEC3"
		},
		{
			"bufferView":5,
			"componentType":5126,
			"count":136,
			"type":"VEC3"
		},
		{
			"bufferView":6,
			"componentType":5126,
			"count":136,
			"type":"VEC2"
		},
		{
			"bufferView":7,
			"componentType":5123,
			"count":372,
			"type":"SCALAR"
		},
		{
			"bufferView":8,
			"componentType":5126,
			"count":136,
			"max":[
				0.9336933493614197,
				0.4094627797603607,
				1.2647693157196045
			],
			"min":[
				-1.0033390522003174,
				0.02192259579896927,
				-0.45810645818710327
			],
			"type":"VEC3"
		},
		{
			"bufferView":9,
			"componentType":5126,
			"count":136,
			"type":"VEC3"
		},
		{
			"bufferView":10,
			"componentType":5126,
			"count":136,
			"type":"VEC2"
		},
		{
			"bufferView":11,
			"componentType":5126,
			"count":132,
			"max":[
				0.9336933493614197,
				0.42923247814178467,
				0.7602319717407227
			],
			"min":[
				-1.0033390522003174,
				-0.04948998987674713,
				-0.9508271217346191
			],
			"type":"VEC3"
		},
		{
			"bufferView":12,
			"componentType":5126,
			"count":132,
			"type":"VEC3"
		},
		{
			"bufferView":13,
			"componentType":5126,
			"count":132,
			"type":"VEC2"
		},
		{
			"bufferView":14,
			"componentType":5123,
			"count":372,
			"type":"SCALAR"
		},
		{
			"bufferView":15,
			"componentType":5126,
			"count":132,
			"max":[
				0.9336933493614197,
				0.4776165187358856,
				1.6878736019134521
			],
			"min":[
				-1.0033390522003174,
				-0.001105964183807373,
				-0.023185372352600098
			],
			"type":"VEC3"
		},
		{
			"bufferView":16,
			"componentType":5126,
			"count":132,
			"type":"VEC3"
		},
		{
			"bufferView":17,
			"componentType":5126,
			"count":132,
			"type":"VEC2"
		},
		{
			"bufferView":18,
			"componentType":5126,
			"count":34,
			"max":[
				0.2740212380886078,
				0.5533779859542847,
				-0.13172435760498047
			],
			"min":[
				-0.2726577818393707,
				0.4547373652458191,
				-1.0737395286560059
			],
			"type":"VEC3"
		},
		{
			"bufferView":19,
			"componentType":5126,
			"count":34,
			"type":"VEC3"
		},
		{
			"bufferView":20,
			"componentType":5126,
			"count":34,
			"type":"VEC2"
		},
		{
			"bufferView":21,
			"componentType":5123,
			"count":90,
			"type":"SCALAR"
		},
		{
			"bufferView":22,
			"componentType":5126,
			"count":34,
			"max":[
				0.29691413044929504,
				0.5039770603179932,
				0.8049608469009399
			],
			"min":[
				-0.23707735538482666,
				0.43628787994384766,
				-0.1375439167022705
			],
			"type":"VEC3"
		},
		{
			"bufferView":23,
			"componentType":5126,
			"count":34,
			"type":"VEC3"
		},
		{
			"bufferView":24,
			"componentType":5126,
			"count":34,
			"type":"VEC2"
		},
		{
			"bufferView":25,
			"componentType":5123,
			"count":90,
			"type":"SCALAR"
		}
	],
	"bufferViews":[
		{
			"buffer":0,
			"byteLength":1584,
			"byteOffset":0,
			"target":34962
		},
		{
			"buffer":0,
			"byteLength":1584,
			"byteOffset":1584,
			"target":34962
		},
		{
			"buffer":0,
			"byteLength":1056,
			"byteOffset":3168,
			"target":34962
		},
		{
			"buffer":0,
			"byteLength":744,
			"byteOffset":4224,
			"target":34963
		},
		{
			"buffer":0,
			"byteLength":1632,
			"byteOffset":4968,
			"target":34962
		},
		{
			"buffer":0,
			"byteLength":1632,
			"byteOffset":6600,
			"target":34962
		},
		{
			"buffer":0,
			"byteLength":1088,
			"byteOffset":8232,
			"target":34962
		},
		{
			"buffer":0,
			"byteLength":744,
			"byteOffset":9320,
			"target":34963
		},
		{
			"buffer":0,
			"byteLength":1632,
			"byteOffset":10064,
			"target":34962
		},
		{
			"buffer":0,
			"byteLength":1632,
			"byteOffset":11696,
			"target":34962
		},
		{
			"buffer":0,
			"byteLength":1088,
			"byteOffset":13328,
			"target":34962
		},
		{
			"buffer":0,
			"byteLength":1584,
			"byteOffset":14416,
			"target":34962
		},
		{
			"buffer":0,
			"byteLength":1584,
			"byteOffset":16000,
			"target":34962
		},
		{
			"buffer":0,
			"byteLength":1056,
			"byteOffset":17584,
			"target":34962
		},
		{
			"buffer":0,
			"byteLength":744,
			"byteOffset":18640,
			"target":34963
		},
		{
			"buffer":0,
			"byteLength":1584,
			"byteOffset":19384,
			"target":34962
		},
		{
			"buffer":0,
			"byteLength":1584,
			"byteOffset":20968,
			"target":34962
		},
		{
			"buffer":0,
			"byteLength":1056,
			"byteOffset":22552,
			"target":34962
		},
		{
			"buffer":0,
			"byteLength":408,
			"byteOffset":23608,
			"target":34962
		},
		{
			"buffer":0,
			"byteLength":408,
			"byteOffset":24016,
			"target":34962
		},
		{
			"buffer":0,
			"byteLength":272,
			"byteOffset":24424,
			"target":34962
		},
		{
			"buffer":0,
			"byteLength":180,
			"byteOffset":24696,
			"target":34963
		},
		{
			"buffer":0,
			"byteLength":408,
			"byteOffset":24876,
			"target":34962
		},
		{
			"buffer":0,
			"byteLength":408,
			"byteOffset":25284,
			"target":34962
		},
		{
			"buffer":0,
			"byteLength":272,
			"byteOffset":25692,
			"target":34962
		},
		{
			"buffer":0,
			"byteLength":180,
			"byteOffset":25964,
			"target":34963
		}
	],
	"samplers":[
		{
			"magFilter":9729,
			"minFilter":9987
		}
	],
	"buffers":[
		{
			"byteLength":26144,
			"uri":"caprese.bin"
		}
	]
}
