{
	"asset":{
		"generator":"Khronos glTF Blender I/O v4.4.56",
		"version":"2.0"
	},
	"scene":0,
	"scenes":[
		{
			"name":"Scene",
			"nodes":[
				0,
				1,
				2,
				3
			]
		}
	],
	"nodes":[
		{
			"mesh":0,
			"name":"ogonek.003"
		},
		{
			"mesh":1,
			"name":"listek1.006"
		},
		{
			"mesh":2,
			"name":"cialo.003"
		},
		{
			"mesh":3,
			"name":"listek1.001"
		}
	],
	"materials":[
		{
			"doubleSided":true,
			"name":"Material",
			"pbrMetallicRoughness":{
				"baseColorTexture":{
					"index":0,
					"texCoord":1
				},
				"metallicFactor":0,
				"roughnessFactor":0.5
			}
		},
		{
			"doubleSided":true,
			"name":"Material",
			"pbrMetallicRoughness":{
				"baseColorTexture":{
					"index":0
				},
				"metallicFactor":0,
				"roughnessFactor":0.5
			}
		}
	],
	"meshes":[
		{
			"name":"Plane.009",
			"primitives":[
				{
					"attributes":{
						"POSITION":0,
						"NORMAL":1,
						"TEXCOORD_0":2,
						"TEXCOORD_1":3
					},
					"indices":4,
					"material":0
				}
			]
		},
		{
			"name":"Plane.010",
			"primitives":[
				{
					"attributes":{
						"POSITION":5,
						"NORMAL":6,
						"TEXCOORD_0":7,
						"TEXCOORD_1":8
					},
					"indices":9,
					"material":0
				}
			]
		},
		{
			"name":"Sphere.023",
			"primitives":[
				{
					"attributes":{
						"POSITION":10,
						"NORMAL":11,
						"TEXCOORD_0":12,
						"TEXCOORD_1":13
					},
					"indices":14,
					"material":1
				}
			]
		},
		{
			"name":"Plane.001",
			"primitives":[
				{
					"attributes":{
						"POSITION":15,
						"NORMAL":16,
						"TEXCOORD_0":17,
						"TEXCOORD_1":18
					},
					"indices":9,
					"material":0
				}
			]
		}
	],
	"textures":[
		{
			"sampler":0,
			"source":0
		}
	],
	"images":[
		{
			"mimeType": "image/png",
			"name": "palette",
			"uri": "../../../textures/palette.png"
		}
	],
	"accessors":[
		{
			"bufferView":0,
			"componentType":5126,
			"count":598,
			"max":[
				0.05190420150756836,
				2.160723924636841,
				0.012216567993164062
			],
			"min":[
				-0.04290342330932617,
				1.6599193811416626,
				-0.33704662322998047
			],
			"type":"VEC3"
		},
		{
			"bufferView":1,
			"componentType":5126,
			"count":598,
			"type":"VEC3"
		},
		{
			"bufferView":2,
			"componentType":5126,
			"count":598,
			"type":"VEC2"
		},
		{
			"bufferView":3,
			"componentType":5126,
			"count":598,
			"type":"VEC2"
		},
		{
			"bufferView":4,
			"componentType":5123,
			"count":2496,
			"type":"SCALAR"
		},
		{
			"bufferView":5,
			"componentType":5126,
			"count":1253,
			"max":[
				0.44343990087509155,
				1.9280718564987183,
				0.4744632840156555
			],
			"min":[
				-0.39778172969818115,
				1.664136528968811,
				-0.6607807874679565
			],
			"type":"VEC3"
		},
		{
			"bufferView":6,
			"componentType":5126,
			"count":1253,
			"type":"VEC3"
		},
		{
			"bufferView":7,
			"componentType":5126,
			"count":1253,
			"type":"VEC2"
		},
		{
			"bufferView":8,
			"componentType":5126,
			"count":1253,
			"type":"VEC2"
		},
		{
			"bufferView":9,
			"componentType":5123,
			"count":5568,
			"type":"SCALAR"
		},
		{
			"bufferView":10,
			"componentType":5126,
			"count":596,
			"max":[
				1.083725929260254,
				1.7113679647445679,
				0.9852319955825806
			],
			"min":[
				-1.1780589818954468,
				-0.030635088682174683,
				-1.139521837234497
			],
			"type":"VEC3"
		},
		{
			"bufferView":11,
			"componentType":5126,
			"count":596,
			"type":"VEC3"
		},
		{
			"bufferView":12,
			"componentType":5126,
			"count":596,
			"type":"VEC2"
		},
		{
			"bufferView":13,
			"componentType":5126,
			"count":596,
			"type":"VEC2"
		},
		{
			"bufferView":14,
			"componentType":5123,
			"count":2880,
			"type":"SCALAR"
		},
		{
			"bufferView":15,
			"componentType":5126,
			"count":1253,
			"max":[
				0.3167979121208191,
				1.9280718564987183,
				0.5495951175689697
			],
			"min":[
				-0.26999619603157043,
				1.664136528968811,
				-0.7229181528091431
			],
			"type":"VEC3"
		},
		{
			"bufferView":16,
			"componentType":5126,
			"count":1253,
			"type":"VEC3"
		},
		{
			"bufferView":17,
			"componentType":5126,
			"count":1253,
			"type":"VEC2"
		},
		{
			"bufferView":18,
			"componentType":5126,
			"count":1253,
			"type":"VEC2"
		}
	],
	"bufferViews":[
		{
			"buffer":0,
			"byteLength":7176,
			"byteOffset":0,
			"target":34962
		},
		{
			"buffer":0,
			"byteLength":7176,
			"byteOffset":7176,
			"target":34962
		},
		{
			"buffer":0,
			"byteLength":4784,
			"byteOffset":14352,
			"target":34962
		},
		{
			"buffer":0,
			"byteLength":4784,
			"byteOffset":19136,
			"target":34962
		},
		{
			"buffer":0,
			"byteLength":4992,
			"byteOffset":23920,
			"target":34963
		},
		{
			"buffer":0,
			"byteLength":15036,
			"byteOffset":28912,
			"target":34962
		},
		{
			"buffer":0,
			"byteLength":15036,
			"byteOffset":43948,
			"target":34962
		},
		{
			"buffer":0,
			"byteLength":10024,
			"byteOffset":58984,
			"target":34962
		},
		{
			"buffer":0,
			"byteLength":10024,
			"byteOffset":69008,
			"target":34962
		},
		{
			"buffer":0,
			"byteLength":11136,
			"byteOffset":79032,
			"target":34963
		},
		{
			"buffer":0,
			"byteLength":7152,
			"byteOffset":90168,
			"target":34962
		},
		{
			"buffer":0,
			"byteLength":7152,
			"byteOffset":97320,
			"target":34962
		},
		{
			"buffer":0,
			"byteLength":4768,
			"byteOffset":104472,
			"target":34962
		},
		{
			"buffer":0,
			"byteLength":4768,
			"byteOffset":109240,
			"target":34962
		},
		{
			"buffer":0,
			"byteLength":5760,
			"byteOffset":114008,
			"target":34963
		},
		{
			"buffer":0,
			"byteLength":15036,
			"byteOffset":119768,
			"target":34962
		},
		{
			"buffer":0,
			"byteLength":15036,
			"byteOffset":134804,
			"target":34962
		},
		{
			"buffer":0,
			"byteLength":10024,
			"byteOffset":149840,
			"target":34962
		},
		{
			"buffer":0,
			"byteLength":10024,
			"byteOffset":159864,
			"target":34962
		}
	],
	"samplers":[
		{
			"magFilter":9729,
			"minFilter":9987
		}
	],
	"buffers":[
		{
			"byteLength":169888,
			"uri":"pomidor.bin"
		}
	]
}
