{
	"asset":{
		"generator":"Khronos glTF Blender I/O v4.5.48",
		"version":"2.0"
	},
	"scene":0,
	"scenes":[
		{
			"name":"Scene",
			"nodes":[
				0,
				1,
				2,
				3
			]
		}
	],
	"nodes":[
		{
			"mesh":0,
			"name":"Sphere"
		},
		{
			"mesh":1,
			"name":"roslina.001"
		},
		{
			"mesh":2,
			"name":"Sphere.001"
		},
		{
			"mesh":3,
			"name":"roslina.002"
		}
	],
	"materials":[
		{
			"doubleSided":true,
			"name":"Material.001",
			"pbrMetallicRoughness":{
				"baseColorTexture":{
					"index":0
				},
				"metallicFactor":0,
				"roughnessFactor":0.4954545497894287
			}
		},
		{
			"doubleSided":true,
			"name":"kwiat",
			"pbrMetallicRoughness":{
				"baseColorTexture":{
					"index":1
				},
				"metallicFactor":0,
				"roughnessFactor":0.5
			}
		}
	],
	"meshes":[
		{
			"name":"Sphere",
			"primitives":[
				{
					"attributes":{
						"POSITION":0,
						"NORMAL":1,
						"TEXCOORD_0":2
					},
					"indices":3,
					"material":0
				}
			]
		},
		{
			"name":"Cylinder.001",
			"primitives":[
				{
					"attributes":{
						"POSITION":4,
						"NORMAL":5,
						"TEXCOORD_0":6
					},
					"indices":7,
					"material":1
				}
			]
		},
		{
			"name":"Sphere.001",
			"primitives":[
				{
					"attributes":{
						"POSITION":8,
						"NORMAL":9,
						"TEXCOORD_0":10
					},
					"indices":11,
					"material":0
				}
			]
		},
		{
			"name":"Cylinder.002",
			"primitives":[
				{
					"attributes":{
						"POSITION":12,
						"NORMAL":13,
						"TEXCOORD_0":14
					},
					"indices":7,
					"material":1
				}
			]
		}
	],
	"textures":[
		{
			"sampler":0,
			"source":0
		},
		{
			"sampler":1,
			"source":1
		}
	],
	"images":[
		{
			"mimeType": "image/png",
			"name": "palette",
			"uri": "../../../textures/palette.png"
		},
		{
			"mimeType":"image/jpeg",
			"name":"lisc",
			"uri":"lisc.jpg"
		}
	],
	"accessors":[
		{
			"bufferView":0,
			"componentType":5126,
			"count":1446,
			"max":[
				1.0606743097305298,
				1.0914769172668457,
				1.0606741905212402
			],
			"min":[
				-1.0606741905212402,
				0.00546872615814209,
				-1.0606744289398193
			],
			"type":"VEC3"
		},
		{
			"bufferView":1,
			"componentType":5126,
			"count":1446,
			"type":"VEC3"
		},
		{
			"bufferView":2,
			"componentType":5126,
			"count":1446,
			"type":"VEC2"
		},
		{
			"bufferView":3,
			"componentType":5123,
			"count":6528,
			"type":"SCALAR"
		},
		{
			"bufferView":4,
			"componentType":5126,
			"count":34,
			"max":[
				0.20660236477851868,
				1.0895678997039795,
				0.015329211950302124
			],
			"min":[
				-0.20468810200691223,
				1.013216495513916,
				-0.7148864269256592
			],
			"type":"VEC3"
		},
		{
			"bufferView":5,
			"componentType":5126,
			"count":34,
			"type":"VEC3"
		},
		{
			"bufferView":6,
			"componentType":5126,
			"count":34,
			"type":"VEC2"
		},
		{
			"bufferView":7,
			"componentType":5123,
			"count":90,
			"type":"SCALAR"
		},
		{
			"bufferView":8,
			"componentType":5126,
			"count":352,
			"max":[
				0.9498900771141052,
				1.014266014099121,
				0.9498897790908813
			],
			"min":[
				-0.9498894810676575,
				0.06437563896179199,
				-0.9498903751373291
			],
			"type":"VEC3"
		},
		{
			"bufferView":9,
			"componentType":5126,
			"count":352,
			"type":"VEC3"
		},
		{
			"bufferView":10,
			"componentType":5126,
			"count":352,
			"type":"VEC2"
		},
		{
			"bufferView":11,
			"componentType":5123,
			"count":1530,
			"type":"SCALAR"
		},
		{
			"bufferView":12,
			"componentType":5126,
			"count":34,
			"max":[
				0.20469172298908234,
				1.0895678997039795,
				0.7544618248939514
			],
			"min":[
				-0.2069593369960785,
				1.013216495513916,
				0.02416139841079712
			],
			"type":"VEC3"
		},
		{
			"bufferView":13,
			"componentType":5126,
			"count":34,
			"type":"VEC3"
		},
		{
			"bufferView":14,
			"componentType":5126,
			"count":34,
			"type":"VEC2"
		}
	],
	"bufferViews":[
		{
			"buffer":0,
			"byteLength":17352,
			"byteOffset":0,
			"target":34962
		},
		{
			"buffer":0,
			"byteLength":17352,
			"byteOffset":17352,
			"target":34962
		},
		{
			"buffer":0,
			"byteLength":11568,
			"byteOffset":34704,
			"target":34962
		},
		{
			"buffer":0,
			"byteLength":13056,
			"byteOffset":46272,
			"target":34963
		},
		{
			"buffer":0,
			"byteLength":408,
			"byteOffset":59328,
			"target":34962
		},
		{
			"buffer":0,
			"byteLength":408,
			"byteOffset":59736,
			"target":34962
		},
		{
			"buffer":0,
			"byteLength":272,
			"byteOffset":60144,
			"target":34962
		},
		{
			"buffer":0,
			"byteLength":180,
			"byteOffset":60416,
			"target":34963
		},
		{
			"buffer":0,
			"byteLength":4224,
			"byteOffset":60596,
			"target":34962
		},
		{
			"buffer":0,
			"byteLength":4224,
			"byteOffset":64820,
			"target":34962
		},
		{
			"buffer":0,
			"byteLength":2816,
			"byteOffset":69044,
			"target":34962
		},
		{
			"buffer":0,
			"byteLength":3060,
			"byteOffset":71860,
			"target":34963
		},
		{
			"buffer":0,
			"byteLength":408,
			"byteOffset":74920,
			"target":34962
		},
		{
			"buffer":0,
			"byteLength":408,
			"byteOffset":75328,
			"target":34962
		},
		{
			"buffer":0,
			"byteLength":272,
			"byteOffset":75736,
			"target":34962
		}
	],
	"samplers":[
		{
			"magFilter":9728,
			"minFilter":9984
		},
		{
			"magFilter":9729,
			"minFilter":9987
		}
	],
	"buffers":[
		{
			"byteLength":76008,
			"uri":"pomidorowa.bin"
		}
	]
}
