{
	"asset":{
		"generator":"Khronos glTF Blender I/O v4.4.56",
		"version":"2.0"
	},
	"scene":0,
	"scenes":[
		{
			"name":"Scene",
			"nodes":[
				0,
				1,
				2,
				3
			]
		}
	],
	"nodes":[
		{
			"mesh":0,
			"name":"Circle"
		},
		{
			"mesh":1,
			"name":"Circle.001"
		},
		{
			"mesh":2,
			"name":"Circle.002"
		},
		{
			"mesh":3,
			"name":"cialo.003"
		}
	],
	"materials":[
		{
			"doubleSided":true,
			"name":"Material.001",
			"pbrMetallicRoughness":{
				"baseColorTexture":{
					"index":0
				},
				"metallicFactor":0,
				"roughnessFactor":0.5
			}
		}
	],
	"meshes":[
		{
			"name":"Circle.001",
			"primitives":[
				{
					"attributes":{
						"POSITION":0,
						"NORMAL":1,
						"TEXCOORD_0":2
					},
					"indices":3,
					"material":0
				}
			]
		},
		{
			"name":"Circle.002",
			"primitives":[
				{
					"attributes":{
						"POSITION":4,
						"NORMAL":5,
						"TEXCOORD_0":6
					},
					"indices":3,
					"material":0
				}
			]
		},
		{
			"name":"Circle.003",
			"primitives":[
				{
					"attributes":{
						"POSITION":7,
						"NORMAL":8,
						"TEXCOORD_0":9
					},
					"indices":3,
					"material":0
				}
			]
		},
		{
			"name":"Sphere.001",
			"primitives":[
				{
					"attributes":{
						"POSITION":10,
						"NORMAL":11,
						"TEXCOORD_0":12,
						"TEXCOORD_1":13
					},
					"indices":14,
					"material":0
				}
			]
		}
	],
	"textures":[
		{
			"sampler":0,
			"source":0
		}
	],
	"images":[
		{
			"mimeType":"image/png",
			"name":"pomidor",
			"uri":"pomidor.png"
		}
	],
	"accessors":[
		{
			"bufferView":0,
			"componentType":5126,
			"count":136,
			"max":[
				0.9336933493614197,
				0.1037551686167717,
				0.42038124799728394
			],
			"min":[
				-1.0033390522003174,
				-0.006247073411941528,
				-1.3074054718017578
			],
			"type":"VEC3"
		},
		{
			"bufferView":1,
			"componentType":5126,
			"count":136,
			"type":"VEC3"
		},
		{
			"bufferView":2,
			"componentType":5126,
			"count":136,
			"type":"VEC2"
		},
		{
			"bufferView":3,
			"componentType":5123,
			"count":372,
			"type":"SCALAR"
		},
		{
			"bufferView":4,
			"componentType":5126,
			"count":136,
			"max":[
				0.9336933493614197,
				0.28422510623931885,
				1.2105770111083984
			],
			"min":[
				-1.0033390522003174,
				0.05598209798336029,
				-0.5206853151321411
			],
			"type":"VEC3"
		},
		{
			"bufferView":5,
			"componentType":5126,
			"count":136,
			"type":"VEC3"
		},
		{
			"bufferView":6,
			"componentType":5126,
			"count":136,
			"type":"VEC2"
		},
		{
			"bufferView":7,
			"componentType":5126,
			"count":136,
			"max":[
				0.9335246682167053,
				0.4405261278152466,
				1.941962718963623
			],
			"min":[
				-1.0048809051513672,
				-0.10547885298728943,
				0.24313676357269287
			],
			"type":"VEC3"
		},
		{
			"bufferView":8,
			"componentType":5126,
			"count":136,
			"type":"VEC3"
		},
		{
			"bufferView":9,
			"componentType":5126,
			"count":136,
			"type":"VEC2"
		},
		{
			"bufferView":10,
			"componentType":5126,
			"count":402,
			"max":[
				0.9115965366363525,
				1.2500503063201904,
				-1.4939720630645752
			],
			"min":[
				-0.9546262621879578,
				-0.3377513289451599,
				-3.0281589031219482
			],
			"type":"VEC3"
		},
		{
			"bufferView":11,
			"componentType":5126,
			"count":402,
			"type":"VEC3"
		},
		{
			"bufferView":12,
			"componentType":5126,
			"count":402,
			"type":"VEC2"
		},
		{
			"bufferView":13,
			"componentType":5126,
			"count":402,
			"type":"VEC2"
		},
		{
			"bufferView":14,
			"componentType":5123,
			"count":1530,
			"type":"SCALAR"
		}
	],
	"bufferViews":[
		{
			"buffer":0,
			"byteLength":1632,
			"byteOffset":0,
			"target":34962
		},
		{
			"buffer":0,
			"byteLength":1632,
			"byteOffset":1632,
			"target":34962
		},
		{
			"buffer":0,
			"byteLength":1088,
			"byteOffset":3264,
			"target":34962
		},
		{
			"buffer":0,
			"byteLength":744,
			"byteOffset":4352,
			"target":34963
		},
		{
			"buffer":0,
			"byteLength":1632,
			"byteOffset":5096,
			"target":34962
		},
		{
			"buffer":0,
			"byteLength":1632,
			"byteOffset":6728,
			"target":34962
		},
		{
			"buffer":0,
			"byteLength":1088,
			"byteOffset":8360,
			"target":34962
		},
		{
			"buffer":0,
			"byteLength":1632,
			"byteOffset":9448,
			"target":34962
		},
		{
			"buffer":0,
			"byteLength":1632,
			"byteOffset":11080,
			"target":34962
		},
		{
			"buffer":0,
			"byteLength":1088,
			"byteOffset":12712,
			"target":34962
		},
		{
			"buffer":0,
			"byteLength":4824,
			"byteOffset":13800,
			"target":34962
		},
		{
			"buffer":0,
			"byteLength":4824,
			"byteOffset":18624,
			"target":34962
		},
		{
			"buffer":0,
			"byteLength":3216,
			"byteOffset":23448,
			"target":34962
		},
		{
			"buffer":0,
			"byteLength":3216,
			"byteOffset":26664,
			"target":34962
		},
		{
			"buffer":0,
			"byteLength":3060,
			"byteOffset":29880,
			"target":34963
		}
	],
	"samplers":[
		{
			"magFilter":9729,
			"minFilter":9987
		}
	],
	"buffers":[
		{
			"byteLength":32940,
			"uri":"pomidor-pokrojony.bin"
		}
	]
}
