{
	"asset":{
		"generator":"Khronos glTF Blender I/O v5.1.19",
		"version":"2.0"
	},
	"scene":0,
	"scenes":[
		{
			"name":"Scene",
			"nodes":[
				0
			]
		}
	],
	"nodes":[
		{
			"mesh":0,
			"name":"Cone",
			"scale":[
				1,
				1.3317103385925293,
				1
			]
		}
	],
	"materials":[
		{
			"doubleSided":true,
			"name":"Material",
			"pbrMetallicRoughness":{
				"baseColorTexture":{
					"index":0
				},
				"metallicFactor":0.3181818127632141,
				"roughnessFactor":0.40909093618392944
			}
		}
	],
	"meshes":[
		{
			"name":"Cone.001",
			"primitives":[
				{
					"attributes":{
						"POSITION":0,
						"NORMAL":1,
						"TEXCOORD_0":2
					},
					"indices":3,
					"material":0
				}
			]
		}
	],
	"textures":[
		{
			"sampler":0,
			"source":0
		}
	],
	"images":[
		{
			"mimeType": "image/png",
			"name": "palette",
			"uri": "../../../textures/palette.png"
		}
	],
	"accessors":[
		{
			"bufferView":0,
			"componentType":5126,
			"count":503,
			"max":[
				0.20765812695026398,
				0.2734266519546509,
				0.21610185503959656
			],
			"min":[
				-0.20864088833332062,
				-0.09991874545812607,
				-0.20019716024398804
			],
			"type":"VEC3"
		},
		{
			"bufferView":1,
			"componentType":5126,
			"count":503,
			"type":"VEC3"
		},
		{
			"bufferView":2,
			"componentType":5126,
			"count":503,
			"type":"VEC2"
		},
		{
			"bufferView":3,
			"componentType":5123,
			"count":1776,
			"type":"SCALAR"
		}
	],
	"bufferViews":[
		{
			"buffer":0,
			"byteLength":6036,
			"byteOffset":0,
			"target":34962
		},
		{
			"buffer":0,
			"byteLength":6036,
			"byteOffset":6036,
			"target":34962
		},
		{
			"buffer":0,
			"byteLength":4024,
			"byteOffset":12072,
			"target":34962
		},
		{
			"buffer":0,
			"byteLength":3552,
			"byteOffset":16096,
			"target":34963
		}
	],
	"samplers":[
		{
			"magFilter":9729,
			"minFilter":9987
		}
	],
	"buffers":[
		{
			"byteLength":19648,
			"uri":"woda.bin"
		}
	]
}
