{
	"asset":{
		"generator":"Khronos glTF Blender I/O v5.1.19",
		"version":"2.0"
	},
	"scene":0,
	"scenes":[
		{
			"name":"Scene",
			"nodes":[
				0,
				1,
				2,
				3,
				4,
				5,
				6,
				7,
				8
			]
		}
	],
	"nodes":[
		{
			"mesh":0,
			"name":"Sphere"
		},
		{
			"mesh":1,
			"name":"Sphere.001"
		},
		{
			"mesh":2,
			"name":"Sphere.002"
		},
		{
			"mesh":3,
			"name":"Sphere.003"
		},
		{
			"mesh":4,
			"name":"Sphere.004"
		},
		{
			"mesh":5,
			"name":"Sphere.005"
		},
		{
			"mesh":6,
			"name":"Sphere.006"
		},
		{
			"mesh":7,
			"name":"Sphere.007"
		},
		{
			"mesh":8,
			"name":"Sphere.008"
		}
	],
	"materials":[
		{
			"doubleSided":true,
			"name":"Material.057",
			"pbrMetallicRoughness":{
				"baseColorTexture":{
					"index":0
				},
				"metallicFactor":0.19545455276966095,
				"roughnessFactor":0.3909090757369995
			}
		}
	],
	"meshes":[
		{
			"name":"Sphere.002",
			"primitives":[
				{
					"attributes":{
						"POSITION":0,
						"NORMAL":1,
						"TEXCOORD_0":2
					},
					"indices":3,
					"material":0
				}
			]
		},
		{
			"name":"Sphere.003",
			"primitives":[
				{
					"attributes":{
						"POSITION":4,
						"NORMAL":5,
						"TEXCOORD_0":6
					},
					"indices":7,
					"material":0
				}
			]
		},
		{
			"name":"Sphere.004",
			"primitives":[
				{
					"attributes":{
						"POSITION":8,
						"NORMAL":9,
						"TEXCOORD_0":10
					},
					"indices":11,
					"material":0
				}
			]
		},
		{
			"name":"Sphere.005",
			"primitives":[
				{
					"attributes":{
						"POSITION":12,
						"NORMAL":13,
						"TEXCOORD_0":14
					},
					"indices":15,
					"material":0
				}
			]
		},
		{
			"name":"Sphere.006",
			"primitives":[
				{
					"attributes":{
						"POSITION":16,
						"NORMAL":17,
						"TEXCOORD_0":18
					},
					"indices":19,
					"material":0
				}
			]
		},
		{
			"name":"Sphere.007",
			"primitives":[
				{
					"attributes":{
						"POSITION":20,
						"NORMAL":21,
						"TEXCOORD_0":22
					},
					"indices":23,
					"material":0
				}
			]
		},
		{
			"name":"Sphere.008",
			"primitives":[
				{
					"attributes":{
						"POSITION":24,
						"NORMAL":25,
						"TEXCOORD_0":26
					},
					"indices":27,
					"material":0
				}
			]
		},
		{
			"name":"Sphere.009",
			"primitives":[
				{
					"attributes":{
						"POSITION":28,
						"NORMAL":29,
						"TEXCOORD_0":30
					},
					"indices":31,
					"material":0
				}
			]
		},
		{
			"name":"Sphere.010",
			"primitives":[
				{
					"attributes":{
						"POSITION":32,
						"NORMAL":33,
						"TEXCOORD_0":34
					},
					"indices":35,
					"material":0
				}
			]
		}
	],
	"textures":[
		{
			"sampler":0,
			"source":0
		}
	],
	"images":[
		{
			"mimeType":"image/png",
			"name":"palette",
			"uri": "../../../textures/palette.png"
		}
	],
	"accessors":[
		{
			"bufferView":0,
			"componentType":5126,
			"count":224,
			"max":[
				0.014496684074401855,
				0.09008218348026276,
				0.10119913518428802
			],
			"min":[
				-0.050897806882858276,
				0.015683837234973907,
				-0.07740771770477295
			],
			"type":"VEC3"
		},
		{
			"bufferView":1,
			"componentType":5126,
			"count":224,
			"type":"VEC3"
		},
		{
			"bufferView":2,
			"componentType":5126,
			"count":224,
			"type":"VEC2"
		},
		{
			"bufferView":3,
			"componentType":5123,
			"count":858,
			"type":"SCALAR"
		},
		{
			"bufferView":4,
			"componentType":5126,
			"count":224,
			"max":[
				0.1385696679353714,
				0.10204373300075531,
				0.04573945328593254
			],
			"min":[
				0.06839340925216675,
				0.022171657532453537,
				-0.12373214960098267
			],
			"type":"VEC3"
		},
		{
			"bufferView":5,
			"componentType":5126,
			"count":224,
			"type":"VEC3"
		},
		{
			"bufferView":6,
			"componentType":5126,
			"count":224,
			"type":"VEC2"
		},
		{
			"bufferView":7,
			"componentType":5123,
			"count":858,
			"type":"SCALAR"
		},
		{
			"bufferView":8,
			"componentType":5126,
			"count":224,
			"max":[
				0.09281374514102936,
				0.10344187915325165,
				-0.06607834994792938
			],
			"min":[
				-0.03548215329647064,
				0.021755296736955643,
				-0.19615651667118073
			],
			"type":"VEC3"
		},
		{
			"bufferView":9,
			"componentType":5126,
			"count":224,
			"type":"VEC3"
		},
		{
			"bufferView":10,
			"componentType":5126,
			"count":224,
			"type":"VEC2"
		},
		{
			"bufferView":11,
			"componentType":5123,
			"count":858,
			"type":"SCALAR"
		},
		{
			"bufferView":12,
			"componentType":5126,
			"count":224,
			"max":[
				-0.024583354592323303,
				0.09327708184719086,
				-0.03570924699306488
			],
			"min":[
				-0.09901930391788483,
				0.009281430393457413,
				-0.20415499806404114
			],
			"type":"VEC3"
		},
		{
			"bufferView":13,
			"componentType":5126,
			"count":224,
			"type":"VEC3"
		},
		{
			"bufferView":14,
			"componentType":5126,
			"count":224,
			"type":"VEC2"
		},
		{
			"bufferView":15,
			"componentType":5123,
			"count":858,
			"type":"SCALAR"
		},
		{
			"bufferView":16,
			"componentType":5126,
			"count":224,
			"max":[
				-0.05222567915916443,
				0.10097109526395798,
				0.07321041822433472
			],
			"min":[
				-0.13198642432689667,
				0.01373186707496643,
				-0.08910639584064484
			],
			"type":"VEC3"
		},
		{
			"bufferView":17,
			"componentType":5126,
			"count":224,
			"type":"VEC3"
		},
		{
			"bufferView":18,
			"componentType":5126,
			"count":224,
			"type":"VEC2"
		},
		{
			"bufferView":19,
			"componentType":5123,
			"count":858,
			"type":"SCALAR"
		},
		{
			"bufferView":20,
			"componentType":5126,
			"count":224,
			"max":[
				0.0015069842338562012,
				0.08831427991390228,
				0.17868787050247192
			],
			"min":[
				-0.1036967784166336,
				0.0014970097690820694,
				0.03242826461791992
			],
			"type":"VEC3"
		},
		{
			"bufferView":21,
			"componentType":5126,
			"count":224,
			"type":"VEC3"
		},
		{
			"bufferView":22,
			"componentType":5126,
			"count":224,
			"type":"VEC2"
		},
		{
			"bufferView":23,
			"componentType":5123,
			"count":858,
			"type":"SCALAR"
		},
		{
			"bufferView":24,
			"componentType":5126,
			"count":224,
			"max":[
				0.1265331208705902,
				0.095511794090271,
				0.16370567679405212
			],
			"min":[
				0.0006539821624755859,
				0.01144133135676384,
				0.033438555896282196
			],
			"type":"VEC3"
		},
		{
			"bufferView":25,
			"componentType":5126,
			"count":224,
			"type":"VEC3"
		},
		{
			"bufferView":26,
			"componentType":5126,
			"count":224,
			"type":"VEC2"
		},
		{
			"bufferView":27,
			"componentType":5123,
			"count":858,
			"type":"SCALAR"
		},
		{
			"bufferView":28,
			"componentType":5126,
			"count":224,
			"max":[
				0.07975472509860992,
				0.14602656662464142,
				0.019217900931835175
			],
			"min":[
				-0.020726822316646576,
				0.046247296035289764,
				-0.11900756508111954
			],
			"type":"VEC3"
		},
		{
			"bufferView":29,
			"componentType":5126,
			"count":224,
			"type":"VEC3"
		},
		{
			"bufferView":30,
			"componentType":5126,
			"count":224,
			"type":"VEC2"
		},
		{
			"bufferView":31,
			"componentType":5123,
			"count":858,
			"type":"SCALAR"
		},
		{
			"bufferView":32,
			"componentType":5126,
			"count":224,
			"max":[
				0.10271858423948288,
				0.14525841176509857,
				0.07904182374477386
			],
			"min":[
				-0.06816665828227997,
				0.0666104331612587,
				0.004379477351903915
			],
			"type":"VEC3"
		},
		{
			"bufferView":33,
			"componentType":5126,
			"count":224,
			"type":"VEC3"
		},
		{
			"bufferView":34,
			"componentType":5126,
			"count":224,
			"type":"VEC2"
		},
		{
			"bufferView":35,
			"componentType":5123,
			"count":858,
			"type":"SCALAR"
		}
	],
	"bufferViews":[
		{
			"buffer":0,
			"byteLength":2688,
			"byteOffset":0,
			"target":34962
		},
		{
			"buffer":0,
			"byteLength":2688,
			"byteOffset":2688,
			"target":34962
		},
		{
			"buffer":0,
			"byteLength":1792,
			"byteOffset":5376,
			"target":34962
		},
		{
			"buffer":0,
			"byteLength":1716,
			"byteOffset":7168,
			"target":34963
		},
		{
			"buffer":0,
			"byteLength":2688,
			"byteOffset":8884,
			"target":34962
		},
		{
			"buffer":0,
			"byteLength":2688,
			"byteOffset":11572,
			"target":34962
		},
		{
			"buffer":0,
			"byteLength":1792,
			"byteOffset":14260,
			"target":34962
		},
		{
			"buffer":0,
			"byteLength":1716,
			"byteOffset":16052,
			"target":34963
		},
		{
			"buffer":0,
			"byteLength":2688,
			"byteOffset":17768,
			"target":34962
		},
		{
			"buffer":0,
			"byteLength":2688,
			"byteOffset":20456,
			"target":34962
		},
		{
			"buffer":0,
			"byteLength":1792,
			"byteOffset":23144,
			"target":34962
		},
		{
			"buffer":0,
			"byteLength":1716,
			"byteOffset":24936,
			"target":34963
		},
		{
			"buffer":0,
			"byteLength":2688,
			"byteOffset":26652,
			"target":34962
		},
		{
			"buffer":0,
			"byteLength":2688,
			"byteOffset":29340,
			"target":34962
		},
		{
			"buffer":0,
			"byteLength":1792,
			"byteOffset":32028,
			"target":34962
		},
		{
			"buffer":0,
			"byteLength":1716,
			"byteOffset":33820,
			"target":34963
		},
		{
			"buffer":0,
			"byteLength":2688,
			"byteOffset":35536,
			"target":34962
		},
		{
			"buffer":0,
			"byteLength":2688,
			"byteOffset":38224,
			"target":34962
		},
		{
			"buffer":0,
			"byteLength":1792,
			"byteOffset":40912,
			"target":34962
		},
		{
			"buffer":0,
			"byteLength":1716,
			"byteOffset":42704,
			"target":34963
		},
		{
			"buffer":0,
			"byteLength":2688,
			"byteOffset":44420,
			"target":34962
		},
		{
			"buffer":0,
			"byteLength":2688,
			"byteOffset":47108,
			"target":34962
		},
		{
			"buffer":0,
			"byteLength":1792,
			"byteOffset":49796,
			"target":34962
		},
		{
			"buffer":0,
			"byteLength":1716,
			"byteOffset":51588,
			"target":34963
		},
		{
			"buffer":0,
			"byteLength":2688,
			"byteOffset":53304,
			"target":34962
		},
		{
			"buffer":0,
			"byteLength":2688,
			"byteOffset":55992,
			"target":34962
		},
		{
			"buffer":0,
			"byteLength":1792,
			"byteOffset":58680,
			"target":34962
		},
		{
			"buffer":0,
			"byteLength":1716,
			"byteOffset":60472,
			"target":34963
		},
		{
			"buffer":0,
			"byteLength":2688,
			"byteOffset":62188,
			"target":34962
		},
		{
			"buffer":0,
			"byteLength":2688,
			"byteOffset":64876,
			"target":34962
		},
		{
			"buffer":0,
			"byteLength":1792,
			"byteOffset":67564,
			"target":34962
		},
		{
			"buffer":0,
			"byteLength":1716,
			"byteOffset":69356,
			"target":34963
		},
		{
			"buffer":0,
			"byteLength":2688,
			"byteOffset":71072,
			"target":34962
		},
		{
			"buffer":0,
			"byteLength":2688,
			"byteOffset":73760,
			"target":34962
		},
		{
			"buffer":0,
			"byteLength":1792,
			"byteOffset":76448,
			"target":34962
		},
		{
			"buffer":0,
			"byteLength":1716,
			"byteOffset":78240,
			"target":34963
		}
	],
	"samplers":[
		{
			"magFilter":9728,
			"minFilter":9984
		}
	],
	"buffers":[
		{
			"byteLength":79956,
			"uri":"kopytka.bin"
		}
	]
}
