{
	"asset":{
		"generator":"Khronos glTF Blender I/O v4.4.56",
		"version":"2.0"
	},
	"extensionsUsed":[
		"KHR_materials_sheen"
	],
	"scene":0,
	"scenes":[
		{
			"name":"Scene",
			"nodes":[
				0,
				1,
				2,
				3,
				4,
				5,
				6,
				7,
				8,
				9
			]
		}
	],
	"nodes":[
		{
			"mesh":0,
			"name":"Sphere"
		},
		{
			"mesh":1,
			"name":"Sphere.001"
		},
		{
			"mesh":2,
			"name":"Sphere.002"
		},
		{
			"mesh":3,
			"name":"Sphere.003"
		},
		{
			"mesh":4,
			"name":"Sphere.004"
		},
		{
			"mesh":5,
			"name":"Sphere.005"
		},
		{
			"mesh":6,
			"name":"Sphere.006"
		},
		{
			"mesh":7,
			"name":"Sphere.007"
		},
		{
			"mesh":8,
			"name":"Sphere.008"
		},
		{
			"mesh":9,
			"name":"Circle"
		}
	],
	"materials":[
		{
			"doubleSided":true,
			"name":"Material.057",
			"pbrMetallicRoughness":{
				"baseColorTexture":{
					"index":0
				},
				"metallicFactor":0.7363636493682861,
				"roughnessFactor":0.22272726893424988
			}
		},
		{
			"doubleSided":true,
			"extensions":{
				"KHR_materials_sheen":{
					"sheenColorFactor":[
						1.0,
						0.9646124839782715,
						0.11480027437210083
					],
					"sheenRoughnessFactor":0.5
				}
			},
			"name":"Material.001",
			"pbrMetallicRoughness":{
				"baseColorTexture":{
					"index":1
				},
				"metallicFactor":0.531818151473999,
				"roughnessFactor":0.145454540848732
			}
		}
	],
	"meshes":[
		{
			"name":"Sphere.002",
			"primitives":[
				{
					"attributes":{
						"POSITION":0,
						"NORMAL":1,
						"TEXCOORD_0":2
					},
					"indices":3,
					"material":0
				}
			]
		},
		{
			"name":"Sphere.003",
			"primitives":[
				{
					"attributes":{
						"POSITION":4,
						"NORMAL":5,
						"TEXCOORD_0":6
					},
					"indices":7,
					"material":0
				}
			]
		},
		{
			"name":"Sphere.004",
			"primitives":[
				{
					"attributes":{
						"POSITION":8,
						"NORMAL":9,
						"TEXCOORD_0":10
					},
					"indices":11,
					"material":0
				}
			]
		},
		{
			"name":"Sphere.005",
			"primitives":[
				{
					"attributes":{
						"POSITION":12,
						"NORMAL":13,
						"TEXCOORD_0":14
					},
					"indices":15,
					"material":0
				}
			]
		},
		{
			"name":"Sphere.006",
			"primitives":[
				{
					"attributes":{
						"POSITION":16,
						"NORMAL":17,
						"TEXCOORD_0":18
					},
					"indices":19,
					"material":0
				}
			]
		},
		{
			"name":"Sphere.007",
			"primitives":[
				{
					"attributes":{
						"POSITION":20,
						"NORMAL":21,
						"TEXCOORD_0":22
					},
					"indices":23,
					"material":0
				}
			]
		},
		{
			"name":"Sphere.008",
			"primitives":[
				{
					"attributes":{
						"POSITION":24,
						"NORMAL":25,
						"TEXCOORD_0":26
					},
					"indices":27,
					"material":0
				}
			]
		},
		{
			"name":"Sphere.009",
			"primitives":[
				{
					"attributes":{
						"POSITION":28,
						"NORMAL":29,
						"TEXCOORD_0":30
					},
					"indices":31,
					"material":0
				}
			]
		},
		{
			"name":"Sphere.010",
			"primitives":[
				{
					"attributes":{
						"POSITION":32,
						"NORMAL":33,
						"TEXCOORD_0":34
					},
					"indices":35,
					"material":0
				}
			]
		},
		{
			"name":"Circle",
			"primitives":[
				{
					"attributes":{
						"POSITION":36,
						"NORMAL":37,
						"TEXCOORD_0":38
					},
					"indices":39,
					"material":1
				}
			]
		}
	],
	"textures":[
		{
			"sampler":0,
			"source":0
		},
		{
			"sampler":1,
			"source":0
		}
	],
	"images":[
		{
			"mimeType": "image/png",
			"name": "palette",
			"uri": "../../../textures/palette.png"
		}
	],
	"accessors":[
		{
			"bufferView":0,
			"componentType":5126,
			"count":224,
			"max":[
				-0.0736466497182846,
				0.07415266335010529,
				0.10119913518428802
			],
			"min":[
				-0.13904114067554474,
				-0.00024568289518356323,
				-0.07740771770477295
			],
			"type":"VEC3"
		},
		{
			"bufferView":1,
			"componentType":5126,
			"count":224,
			"type":"VEC3"
		},
		{
			"bufferView":2,
			"componentType":5126,
			"count":224,
			"type":"VEC2"
		},
		{
			"bufferView":3,
			"componentType":5123,
			"count":858,
			"type":"SCALAR"
		},
		{
			"bufferView":4,
			"componentType":5126,
			"count":224,
			"max":[
				0.05042633041739464,
				0.08611421287059784,
				0.04573945328593254
			],
			"min":[
				-0.019749924540519714,
				0.006242137402296066,
				-0.12373214960098267
			],
			"type":"VEC3"
		},
		{
			"bufferView":5,
			"componentType":5126,
			"count":224,
			"type":"VEC3"
		},
		{
			"bufferView":6,
			"componentType":5126,
			"count":224,
			"type":"VEC2"
		},
		{
			"bufferView":7,
			"componentType":5123,
			"count":858,
			"type":"SCALAR"
		},
		{
			"bufferView":8,
			"componentType":5126,
			"count":224,
			"max":[
				0.004670407623052597,
				0.08751235902309418,
				-0.06607834994792938
			],
			"min":[
				-0.1236254870891571,
				0.005825776606798172,
				-0.19615651667118073
			],
			"type":"VEC3"
		},
		{
			"bufferView":9,
			"componentType":5126,
			"count":224,
			"type":"VEC3"
		},
		{
			"bufferView":10,
			"componentType":5126,
			"count":224,
			"type":"VEC2"
		},
		{
			"bufferView":11,
			"componentType":5123,
			"count":858,
			"type":"SCALAR"
		},
		{
			"bufferView":12,
			"componentType":5126,
			"count":224,
			"max":[
				-0.11272668838500977,
				0.07734756171703339,
				-0.03570924699306488
			],
			"min":[
				-0.1871626377105713,
				-0.006648089736700058,
				-0.20415499806404114
			],
			"type":"VEC3"
		},
		{
			"bufferView":13,
			"componentType":5126,
			"count":224,
			"type":"VEC3"
		},
		{
			"bufferView":14,
			"componentType":5126,
			"count":224,
			"type":"VEC2"
		},
		{
			"bufferView":15,
			"componentType":5123,
			"count":858,
			"type":"SCALAR"
		},
		{
			"bufferView":16,
			"componentType":5126,
			"count":224,
			"max":[
				-0.1403690129518509,
				0.0850415751338005,
				0.07321041822433472
			],
			"min":[
				-0.22012975811958313,
				-0.00219765305519104,
				-0.08910639584064484
			],
			"type":"VEC3"
		},
		{
			"bufferView":17,
			"componentType":5126,
			"count":224,
			"type":"VEC3"
		},
		{
			"bufferView":18,
			"componentType":5126,
			"count":224,
			"type":"VEC2"
		},
		{
			"bufferView":19,
			"componentType":5123,
			"count":858,
			"type":"SCALAR"
		},
		{
			"bufferView":20,
			"componentType":5126,
			"count":224,
			"max":[
				-0.08663634955883026,
				0.07238475978374481,
				0.17868787050247192
			],
			"min":[
				-0.19184011220932007,
				-0.014432510361075401,
				0.03242826461791992
			],
			"type":"VEC3"
		},
		{
			"bufferView":21,
			"componentType":5126,
			"count":224,
			"type":"VEC3"
		},
		{
			"bufferView":22,
			"componentType":5126,
			"count":224,
			"type":"VEC2"
		},
		{
			"bufferView":23,
			"componentType":5123,
			"count":858,
			"type":"SCALAR"
		},
		{
			"bufferView":24,
			"componentType":5126,
			"count":224,
			"max":[
				0.038389794528484344,
				0.07958227396011353,
				0.16370567679405212
			],
			"min":[
				-0.08748935163021088,
				-0.004488188773393631,
				0.033438555896282196
			],
			"type":"VEC3"
		},
		{
			"bufferView":25,
			"componentType":5126,
			"count":224,
			"type":"VEC3"
		},
		{
			"bufferView":26,
			"componentType":5126,
			"count":224,
			"type":"VEC2"
		},
		{
			"bufferView":27,
			"componentType":5123,
			"count":858,
			"type":"SCALAR"
		},
		{
			"bufferView":28,
			"componentType":5126,
			"count":224,
			"max":[
				-0.00838860496878624,
				0.13009704649448395,
				0.019217900931835175
			],
			"min":[
				-0.10887015610933304,
				0.030317775905132294,
				-0.11900756508111954
			],
			"type":"VEC3"
		},
		{
			"bufferView":29,
			"componentType":5126,
			"count":224,
			"type":"VEC3"
		},
		{
			"bufferView":30,
			"componentType":5126,
			"count":224,
			"type":"VEC2"
		},
		{
			"bufferView":31,
			"componentType":5123,
			"count":858,
			"type":"SCALAR"
		},
		{
			"bufferView":32,
			"componentType":5126,
			"count":224,
			"max":[
				0.014575250446796417,
				0.1293288916349411,
				0.07904182374477386
			],
			"min":[
				-0.15630999207496643,
				0.05068091303110123,
				0.004379477351903915
			],
			"type":"VEC3"
		},
		{
			"bufferView":33,
			"componentType":5126,
			"count":224,
			"type":"VEC3"
		},
		{
			"bufferView":34,
			"componentType":5126,
			"count":224,
			"type":"VEC2"
		},
		{
			"bufferView":35,
			"componentType":5123,
			"count":858,
			"type":"SCALAR"
		},
		{
			"bufferView":36,
			"componentType":5126,
			"count":192,
			"max":[
				0.06835179775953293,
				-0.005546510219573975,
				0.21582701802253723
			],
			"min":[
				-0.25434550642967224,
				-0.017300384119153023,
				-0.21582701802253723
			],
			"type":"VEC3"
		},
		{
			"bufferView":37,
			"componentType":5126,
			"count":192,
			"type":"VEC3"
		},
		{
			"bufferView":38,
			"componentType":5126,
			"count":192,
			"type":"VEC2"
		},
		{
			"bufferView":39,
			"componentType":5123,
			"count":372,
			"type":"SCALAR"
		}
	],
	"bufferViews":[
		{
			"buffer":0,
			"byteLength":2688,
			"byteOffset":0,
			"target":34962
		},
		{
			"buffer":0,
			"byteLength":2688,
			"byteOffset":2688,
			"target":34962
		},
		{
			"buffer":0,
			"byteLength":1792,
			"byteOffset":5376,
			"target":34962
		},
		{
			"buffer":0,
			"byteLength":1716,
			"byteOffset":7168,
			"target":34963
		},
		{
			"buffer":0,
			"byteLength":2688,
			"byteOffset":8884,
			"target":34962
		},
		{
			"buffer":0,
			"byteLength":2688,
			"byteOffset":11572,
			"target":34962
		},
		{
			"buffer":0,
			"byteLength":1792,
			"byteOffset":14260,
			"target":34962
		},
		{
			"buffer":0,
			"byteLength":1716,
			"byteOffset":16052,
			"target":34963
		},
		{
			"buffer":0,
			"byteLength":2688,
			"byteOffset":17768,
			"target":34962
		},
		{
			"buffer":0,
			"byteLength":2688,
			"byteOffset":20456,
			"target":34962
		},
		{
			"buffer":0,
			"byteLength":1792,
			"byteOffset":23144,
			"target":34962
		},
		{
			"buffer":0,
			"byteLength":1716,
			"byteOffset":24936,
			"target":34963
		},
		{
			"buffer":0,
			"byteLength":2688,
			"byteOffset":26652,
			"target":34962
		},
		{
			"buffer":0,
			"byteLength":2688,
			"byteOffset":29340,
			"target":34962
		},
		{
			"buffer":0,
			"byteLength":1792,
			"byteOffset":32028,
			"target":34962
		},
		{
			"buffer":0,
			"byteLength":1716,
			"byteOffset":33820,
			"target":34963
		},
		{
			"buffer":0,
			"byteLength":2688,
			"byteOffset":35536,
			"target":34962
		},
		{
			"buffer":0,
			"byteLength":2688,
			"byteOffset":38224,
			"target":34962
		},
		{
			"buffer":0,
			"byteLength":1792,
			"byteOffset":40912,
			"target":34962
		},
		{
			"buffer":0,
			"byteLength":1716,
			"byteOffset":42704,
			"target":34963
		},
		{
			"buffer":0,
			"byteLength":2688,
			"byteOffset":44420,
			"target":34962
		},
		{
			"buffer":0,
			"byteLength":2688,
			"byteOffset":47108,
			"target":34962
		},
		{
			"buffer":0,
			"byteLength":1792,
			"byteOffset":49796,
			"target":34962
		},
		{
			"buffer":0,
			"byteLength":1716,
			"byteOffset":51588,
			"target":34963
		},
		{
			"buffer":0,
			"byteLength":2688,
			"byteOffset":53304,
			"target":34962
		},
		{
			"buffer":0,
			"byteLength":2688,
			"byteOffset":55992,
			"target":34962
		},
		{
			"buffer":0,
			"byteLength":1792,
			"byteOffset":58680,
			"target":34962
		},
		{
			"buffer":0,
			"byteLength":1716,
			"byteOffset":60472,
			"target":34963
		},
		{
			"buffer":0,
			"byteLength":2688,
			"byteOffset":62188,
			"target":34962
		},
		{
			"buffer":0,
			"byteLength":2688,
			"byteOffset":64876,
			"target":34962
		},
		{
			"buffer":0,
			"byteLength":1792,
			"byteOffset":67564,
			"target":34962
		},
		{
			"buffer":0,
			"byteLength":1716,
			"byteOffset":69356,
			"target":34963
		},
		{
			"buffer":0,
			"byteLength":2688,
			"byteOffset":71072,
			"target":34962
		},
		{
			"buffer":0,
			"byteLength":2688,
			"byteOffset":73760,
			"target":34962
		},
		{
			"buffer":0,
			"byteLength":1792,
			"byteOffset":76448,
			"target":34962
		},
		{
			"buffer":0,
			"byteLength":1716,
			"byteOffset":78240,
			"target":34963
		},
		{
			"buffer":0,
			"byteLength":2304,
			"byteOffset":79956,
			"target":34962
		},
		{
			"buffer":0,
			"byteLength":2304,
			"byteOffset":82260,
			"target":34962
		},
		{
			"buffer":0,
			"byteLength":1536,
			"byteOffset":84564,
			"target":34962
		},
		{
			"buffer":0,
			"byteLength":744,
			"byteOffset":86100,
			"target":34963
		}
	],
	"samplers":[
		{
			"magFilter":9728,
			"minFilter":9984
		},
		{
			"magFilter":9729,
			"minFilter":9987
		}
	],
	"buffers":[
		{
			"byteLength":86844,
			"uri":"kopytka-zlote.bin"
		}
	]
}
