{
	"asset":{
		"generator":"Khronos glTF Blender I/O v4.5.48",
		"version":"2.0"
	},
	"scene":0,
	"scenes":[
		{
			"name":"Scene",
			"nodes":[
				0,
				1,
				2,
				3,
				4,
				5
			]
		}
	],
	"nodes":[
		{
			"mesh":0,
			"name":"Plane"
		},
		{
			"mesh":1,
			"name":"Plane.001"
		},
		{
			"mesh":2,
			"name":"Plane.002"
		},
		{
			"mesh":3,
			"name":"Plane.003"
		},
		{
			"mesh":4,
			"name":"Plane.004"
		},
		{
			"mesh":5,
			"name":"Cone"
		}
	],
	"materials":[
		{
			"doubleSided":true,
			"emissiveFactor":[
				0.29999998211860657,
				0.20396760678484327,
				0
			],
			"name":"Material",
			"pbrMetallicRoughness":{
				"baseColorTexture":{
					"index":0
				},
				"metallicFactor":0.3181818127632141,
				"roughnessFactor":0.40909093618392944
			}
		}
	],
	"meshes":[
		{
			"name":"Plane",
			"primitives":[
				{
					"attributes":{
						"POSITION":0,
						"NORMAL":1,
						"TEXCOORD_0":2
					},
					"indices":3,
					"material":0
				}
			]
		},
		{
			"name":"Plane.001",
			"primitives":[
				{
					"attributes":{
						"POSITION":4,
						"NORMAL":5,
						"TEXCOORD_0":6
					},
					"indices":7,
					"material":0
				}
			]
		},
		{
			"name":"Plane.002",
			"primitives":[
				{
					"attributes":{
						"POSITION":8,
						"NORMAL":9,
						"TEXCOORD_0":10
					},
					"indices":11,
					"material":0
				}
			]
		},
		{
			"name":"Plane.003",
			"primitives":[
				{
					"attributes":{
						"POSITION":12,
						"NORMAL":13,
						"TEXCOORD_0":14
					},
					"indices":15,
					"material":0
				}
			]
		},
		{
			"name":"Plane.004",
			"primitives":[
				{
					"attributes":{
						"POSITION":16,
						"NORMAL":17,
						"TEXCOORD_0":18
					},
					"indices":19,
					"material":0
				}
			]
		},
		{
			"name":"Cone.001",
			"primitives":[
				{
					"attributes":{
						"POSITION":20,
						"NORMAL":21,
						"TEXCOORD_0":22
					},
					"indices":23,
					"material":0
				}
			]
		}
	],
	"textures":[
		{
			"sampler":0,
			"source":0
		}
	],
	"images":[
		{
			"mimeType":"image/png",
			"name":"palette",
			"uri":"palette.png"
		}
	],
	"accessors":[
		{
			"bufferView":0,
			"componentType":5126,
			"count":52,
			"max":[
				0.01905476674437523,
				0.35548391938209534,
				2.373149898815541e-09
			],
			"min":[
				-0.019054768607020378,
				0.2804909646511078,
				-0.012728435918688774
			],
			"type":"VEC3"
		},
		{
			"bufferView":1,
			"componentType":5126,
			"count":52,
			"type":"VEC3"
		},
		{
			"bufferView":2,
			"componentType":5126,
			"count":52,
			"type":"VEC2"
		},
		{
			"bufferView":3,
			"componentType":5123,
			"count":132,
			"type":"SCALAR"
		},
		{
			"bufferView":4,
			"componentType":5126,
			"count":52,
			"max":[
				0.09881232678890228,
				0.27550217509269714,
				2.373149898815541e-09
			],
			"min":[
				0.06070278584957123,
				0.2005092203617096,
				-0.012728435918688774
			],
			"type":"VEC3"
		},
		{
			"bufferView":5,
			"componentType":5126,
			"count":52,
			"type":"VEC3"
		},
		{
			"bufferView":6,
			"componentType":5126,
			"count":52,
			"type":"VEC2"
		},
		{
			"bufferView":7,
			"componentType":5123,
			"count":132,
			"type":"SCALAR"
		},
		{
			"bufferView":8,
			"componentType":5126,
			"count":52,
			"max":[
				-0.05993090197443962,
				0.2750953435897827,
				2.373149898815541e-09
			],
			"min":[
				-0.09804043918848038,
				0.20010235905647278,
				-0.012728435918688774
			],
			"type":"VEC3"
		},
		{
			"bufferView":9,
			"componentType":5126,
			"count":52,
			"type":"VEC3"
		},
		{
			"bufferView":10,
			"componentType":5126,
			"count":52,
			"type":"VEC2"
		},
		{
			"bufferView":11,
			"componentType":5123,
			"count":132,
			"type":"SCALAR"
		},
		{
			"bufferView":12,
			"componentType":5126,
			"count":52,
			"max":[
				0.05106955021619797,
				0.2924768626689911,
				1.350509259978594e-09
			],
			"min":[
				0.029382221400737762,
				0.2497999519109726,
				-0.0072434828616678715
			],
			"type":"VEC3"
		},
		{
			"bufferView":13,
			"componentType":5126,
			"count":52,
			"type":"VEC3"
		},
		{
			"bufferView":14,
			"componentType":5126,
			"count":52,
			"type":"VEC2"
		},
		{
			"bufferView":15,
			"componentType":5123,
			"count":132,
			"type":"SCALAR"
		},
		{
			"bufferView":16,
			"componentType":5126,
			"count":52,
			"max":[
				-0.028526796028017998,
				0.2924768626689911,
				1.350509259978594e-09
			],
			"min":[
				-0.050214122980833054,
				0.2497999519109726,
				-0.0072434828616678715
			],
			"type":"VEC3"
		},
		{
			"bufferView":17,
			"componentType":5126,
			"count":52,
			"type":"VEC3"
		},
		{
			"bufferView":18,
			"componentType":5126,
			"count":52,
			"type":"VEC2"
		},
		{
			"bufferView":19,
			"componentType":5123,
			"count":132,
			"type":"SCALAR"
		},
		{
			"bufferView":20,
			"componentType":5126,
			"count":661,
			"max":[
				0.07407118380069733,
				0.2668934762477875,
				0.07407118380069733
			],
			"min":[
				-0.07407118380069733,
				0.13411226868629456,
				-0.07407117635011673
			],
			"type":"VEC3"
		},
		{
			"bufferView":21,
			"componentType":5126,
			"count":661,
			"type":"VEC3"
		},
		{
			"bufferView":22,
			"componentType":5126,
			"count":661,
			"type":"VEC2"
		},
		{
			"bufferView":23,
			"componentType":5123,
			"count":3072,
			"type":"SCALAR"
		}
	],
	"bufferViews":[
		{
			"buffer":0,
			"byteLength":624,
			"byteOffset":0,
			"target":34962
		},
		{
			"buffer":0,
			"byteLength":624,
			"byteOffset":624,
			"target":34962
		},
		{
			"buffer":0,
			"byteLength":416,
			"byteOffset":1248,
			"target":34962
		},
		{
			"buffer":0,
			"byteLength":264,
			"byteOffset":1664,
			"target":34963
		},
		{
			"buffer":0,
			"byteLength":624,
			"byteOffset":1928,
			"target":34962
		},
		{
			"buffer":0,
			"byteLength":624,
			"byteOffset":2552,
			"target":34962
		},
		{
			"buffer":0,
			"byteLength":416,
			"byteOffset":3176,
			"target":34962
		},
		{
			"buffer":0,
			"byteLength":264,
			"byteOffset":3592,
			"target":34963
		},
		{
			"buffer":0,
			"byteLength":624,
			"byteOffset":3856,
			"target":34962
		},
		{
			"buffer":0,
			"byteLength":624,
			"byteOffset":4480,
			"target":34962
		},
		{
			"buffer":0,
			"byteLength":416,
			"byteOffset":5104,
			"target":34962
		},
		{
			"buffer":0,
			"byteLength":264,
			"byteOffset":5520,
			"target":34963
		},
		{
			"buffer":0,
			"byteLength":624,
			"byteOffset":5784,
			"target":34962
		},
		{
			"buffer":0,
			"byteLength":624,
			"byteOffset":6408,
			"target":34962
		},
		{
			"buffer":0,
			"byteLength":416,
			"byteOffset":7032,
			"target":34962
		},
		{
			"buffer":0,
			"byteLength":264,
			"byteOffset":7448,
			"target":34963
		},
		{
			"buffer":0,
			"byteLength":624,
			"byteOffset":7712,
			"target":34962
		},
		{
			"buffer":0,
			"byteLength":624,
			"byteOffset":8336,
			"target":34962
		},
		{
			"buffer":0,
			"byteLength":416,
			"byteOffset":8960,
			"target":34962
		},
		{
			"buffer":0,
			"byteLength":264,
			"byteOffset":9376,
			"target":34963
		},
		{
			"buffer":0,
			"byteLength":7932,
			"byteOffset":9640,
			"target":34962
		},
		{
			"buffer":0,
			"byteLength":7932,
			"byteOffset":17572,
			"target":34962
		},
		{
			"buffer":0,
			"byteLength":5288,
			"byteOffset":25504,
			"target":34962
		},
		{
			"buffer":0,
			"byteLength":6144,
			"byteOffset":30792,
			"target":34963
		}
	],
	"samplers":[
		{
			"magFilter":9729,
			"minFilter":9987
		}
	],
	"buffers":[
		{
			"byteLength":36936,
			"uri":"pyl.bin"
		}
	]
}
