{
	"asset":{
		"generator":"Khronos glTF Blender I/O v4.4.56",
		"version":"2.0"
	},
	"extensionsUsed":[
		"KHR_materials_emissive_strength"
	],
	"scene":0,
	"scenes":[
		{
			"name":"Scene",
			"nodes":[
				0
			]
		}
	],
	"nodes":[
		{
			"mesh":0,
			"name":"Cube",
			"scale":[
				0.2939279079437256,
				0.15562954545021057,
				0.5028272867202759
			],
			"translation":[
				0,
				-0.7284815907478333,
				0
			]
		}
	],
	"materials":[
		{
			"doubleSided":true,
			"emissiveFactor":[
				1,
				1,
				1
			],
			"emissiveTexture":{
				"index":0,
				"texCoord":1
			},
			"extensions":{
				"KHR_materials_emissive_strength":{
					"emissiveStrength":3.0999999046325684
				}
			},
			"name":"Material.001",
			"pbrMetallicRoughness":{
				"baseColorTexture":{
					"index":1
				},
				"metallicFactor":0,
				"roughnessFactor":0.5
			}
		}
	],
	"meshes":[
		{
			"name":"Cube.001",
			"primitives":[
				{
					"attributes":{
						"POSITION":0,
						"NORMAL":1,
						"TEXCOORD_0":2,
						"TEXCOORD_1":3
					},
					"indices":4,
					"material":0
				}
			]
		}
	],
	"textures":[
		{
			"sampler":0,
			"source":0
		},
		{
			"sampler":0,
			"source":1
		}
	],
	"images":[
		{
			"mimeType":"image/png",
			"name":"Material",
			"uri":"Material.png"
		},
		{
			"mimeType":"image/png",
			"name":"palette",
			"uri":"palette.png"
		}
	],
	"accessors":[
		{
			"bufferView":0,
			"componentType":5126,
			"count":1172,
			"max":[
				1.9982680082321167,
				10.311171531677246,
				1.1322882175445557
			],
			"min":[
				-2.0548503398895264,
				-0.9388747215270996,
				-1.1322884559631348
			],
			"type":"VEC3"
		},
		{
			"bufferView":1,
			"componentType":5126,
			"count":1172,
			"type":"VEC3"
		},
		{
			"bufferView":2,
			"componentType":5126,
			"count":1172,
			"type":"VEC2"
		},
		{
			"bufferView":3,
			"componentType":5126,
			"count":1172,
			"type":"VEC2"
		},
		{
			"bufferView":4,
			"componentType":5123,
			"count":5568,
			"type":"SCALAR"
		}
	],
	"bufferViews":[
		{
			"buffer":0,
			"byteLength":14064,
			"byteOffset":0,
			"target":34962
		},
		{
			"buffer":0,
			"byteLength":14064,
			"byteOffset":14064,
			"target":34962
		},
		{
			"buffer":0,
			"byteLength":9376,
			"byteOffset":28128,
			"target":34962
		},
		{
			"buffer":0,
			"byteLength":9376,
			"byteOffset":37504,
			"target":34962
		},
		{
			"buffer":0,
			"byteLength":11136,
			"byteOffset":46880,
			"target":34963
		}
	],
	"samplers":[
		{
			"magFilter":9729,
			"minFilter":9987
		}
	],
	"buffers":[
		{
			"byteLength":58016,
			"uri":"ziewniecie.bin"
		}
	]
}
