{
	"asset":{
		"generator":"Khronos glTF Blender I/O v5.1.19",
		"version":"2.0"
	},
	"extensionsUsed":[
		"KHR_materials_emissive_strength"
	],
	"scene":0,
	"scenes":[
		{
			"name":"Scene",
			"nodes":[
				0
			]
		}
	],
	"nodes":[
		{
			"mesh":0,
			"name":"Cube.001"
		}
	],
	"materials":[
		{
			"doubleSided":true,
			"emissiveFactor":[
				1,
				1,
				1
			],
			"emissiveTexture":{
				"index":0,
				"texCoord":1
			},
			"extensions":{
				"KHR_materials_emissive_strength":{
					"emissiveStrength":3.0999999046325684
				}
			},
			"name":"Material.001",
			"pbrMetallicRoughness":{
				"baseColorTexture":{
					"index":1
				},
				"metallicFactor":0,
				"roughnessFactor":0.5
			}
		}
	],
	"meshes":[
		{
			"name":"Cube.001",
			"primitives":[
				{
					"attributes":{
						"POSITION":0,
						"NORMAL":1,
						"TEXCOORD_0":2,
						"TEXCOORD_1":3
					},
					"indices":4,
					"material":0
				}
			]
		}
	],
	"textures":[
		{
			"sampler":0,
			"source":0
		},
		{
			"sampler":0,
			"source":1
		}
	],
	"images":[
		{
			"mimeType":"image/png",
			"name":"Material",
			"uri":"Material.png"
		},
		{
			"mimeType":"image/png",
			"name":"palette",
			"uri": "../../../textures/palette.png"
		}
	],
	"accessors":[
		{
			"bufferView":0,
			"componentType":5126,
			"count":1172,
			"max":[
				0.5873467326164246,
				1.7766265869140625,
				0.5693454146385193
			],
			"min":[
				-0.6039778590202332,
				0.025786906480789185,
				-0.5693455338478088
			],
			"type":"VEC3"
		},
		{
			"bufferView":1,
			"componentType":5126,
			"count":1172,
			"type":"VEC3"
		},
		{
			"bufferView":2,
			"componentType":5126,
			"count":1172,
			"type":"VEC2"
		},
		{
			"bufferView":3,
			"componentType":5126,
			"count":1172,
			"type":"VEC2"
		},
		{
			"bufferView":4,
			"componentType":5123,
			"count":5568,
			"type":"SCALAR"
		}
	],
	"bufferViews":[
		{
			"buffer":0,
			"byteLength":14064,
			"byteOffset":0,
			"target":34962
		},
		{
			"buffer":0,
			"byteLength":14064,
			"byteOffset":14064,
			"target":34962
		},
		{
			"buffer":0,
			"byteLength":9376,
			"byteOffset":28128,
			"target":34962
		},
		{
			"buffer":0,
			"byteLength":9376,
			"byteOffset":37504,
			"target":34962
		},
		{
			"buffer":0,
			"byteLength":11136,
			"byteOffset":46880,
			"target":34963
		}
	],
	"samplers":[
		{
			"magFilter":9729,
			"minFilter":9987
		}
	],
	"buffers":[
		{
			"byteLength":58016,
			"uri":"ziewniecie.bin"
		}
	]
}
