{
	"asset":{
		"generator":"Khronos glTF Blender I/O v5.1.19",
		"version":"2.0"
	},
	"scene":0,
	"scenes":[
		{
			"name":"Scene",
			"nodes":[
				15
			]
		}
	],
	"nodes":[
		{
			"name":"lisc-s",
			"rotation":[
				-1.6697685012445618e-08,
				1.1658529697200493e-10,
				0.05397960543632507,
				0.998542070388794
			],
			"translation":[
				2.3283064365386963e-10,
				1.6352769136428833,
				-1.4937540981918573e-08
			]
		},
		{
			"name":"lisc-p",
			"rotation":[
				1.3371182205901277e-07,
				1.400586739919163e-07,
				-0.3443846106529236,
				0.9388286471366882
			],
			"translation":[
				2.3283064365386963e-10,
				1.6352769136428833,
				-1.4937540981918573e-08
			]
		},
		{
			"name":"lisc-l",
			"rotation":[
				-3.565976314234831e-08,
				-1.0429825891833389e-07,
				0.3750985562801361,
				0.926984965801239
			],
			"scale":[
				0.9999999403953552,
				1,
				1
			],
			"translation":[
				2.3283064365386963e-10,
				1.6352769136428833,
				-1.4937540981918573e-08
			]
		},
		{
			"children":[
				0,
				1,
				2
			],
			"name":"kregoslup",
			"rotation":[
				0,
				1.1920928955078125e-07,
				0,
				1
			],
			"translation":[
				4.656612873077393e-10,
				0.9179629683494568,
				-1.3162207324057817e-08
			]
		},
		{
			"name":"reka-p",
			"rotation":[
				-1.3004304832975322e-07,
				1.3762004869022348e-08,
				-0.44627586007118225,
				0.8948954343795776
			],
			"scale":[
				1,
				1.0000001192092896,
				1
			],
			"translation":[
				1.9720755517482758e-07,
				0.9061316251754761,
				-3.926965064238175e-08
			]
		},
		{
			"children":[
				4
			],
			"name":"tlow-p",
			"rotation":[
				-3.050197960874357e-08,
				-6.396814455911226e-08,
				-0.6743383407592773,
				0.7384225130081177
			],
			"scale":[
				1,
				0.9999998807907104,
				1
			],
			"translation":[
				4.656612873077393e-10,
				0.9179629683494568,
				-1.3162207324057817e-08
			]
		},
		{
			"name":"reka-l",
			"rotation":[
				-1.3570928381057001e-08,
				7.945525482000448e-08,
				0.4462757408618927,
				0.8948954939842224
			],
			"scale":[
				0.9999999403953552,
				1,
				1
			],
			"translation":[
				-1.0256189852952957e-07,
				0.9061316251754761,
				-4.7640270395277184e-08
			]
		},
		{
			"children":[
				6
			],
			"name":"tlow-l",
			"rotation":[
				4.1721730070776175e-08,
				-2.7215035558469935e-08,
				0.6743384003639221,
				0.7384225130081177
			],
			"scale":[
				1,
				0.9999999403953552,
				1
			],
			"translation":[
				4.656612873077393e-10,
				0.9179629683494568,
				-1.3162207324057817e-08
			]
		},
		{
			"children":[
				3,
				5,
				7
			],
			"name":"gl",
			"rotation":[
				0,
				0.7083740830421448,
				0,
				0.7058371901512146
			],
			"scale":[
				1,
				0.9999999403953552,
				1
			],
			"translation":[
				-0.9400467276573181,
				0.8534359931945801,
				0.007446690928190947
			]
		},
		{
			"name":"stopa-p",
			"rotation":[
				-0.5504910945892334,
				-4.2890057727618114e-08,
				1.4261735792331365e-08,
				0.8348410725593567
			],
			"translation":[
				1.903995716645568e-08,
				0.3748664855957031,
				-5.5530108511447906e-08
			]
		},
		{
			"children":[
				9
			],
			"name":"noga-p",
			"rotation":[
				-0.8348397612571716,
				0.0009874867973849177,
				0.0014975408557802439,
				0.550490140914917
			],
			"scale":[
				1,
				0.9999999403953552,
				0.9999999403953552
			],
			"translation":[
				-0.9400467276573181,
				0.8534359931945801,
				0.007446690928190947
			]
		},
		{
			"name":"stopa-l",
			"rotation":[
				0.5504910945892334,
				-6.225874216170268e-08,
				4.610006598682048e-09,
				0.8348410725593567
			],
			"scale":[
				1,
				0.9999999403953552,
				1
			],
			"translation":[
				1.046014830308195e-09,
				0.37486645579338074,
				-9.313225746154785e-10
			]
		},
		{
			"children":[
				11
			],
			"name":"noga-l",
			"rotation":[
				0.8348398208618164,
				0.0009874945972114801,
				-0.0014975189696997404,
				0.5504900813102722
			],
			"scale":[
				0.9999999403953552,
				0.9999998807907104,
				0.9999984502792358
			],
			"translation":[
				-0.9400467276573181,
				0.8534359931945801,
				0.007446690928190947
			]
		},
		{
			"mesh":0,
			"name":"brwi.003",
			"skin":0
		},
		{
			"children":[
				13,
				8,
				10,
				12
			],
			"name":"Armature.003"
		},
		{
			"children":[
				14
			],
			"name":"Empty"
		}
	],
	"animations":[
		{
			"channels":[
				{
					"sampler":0,
					"target":{
						"node":8,
						"path":"translation"
					}
				},
				{
					"sampler":1,
					"target":{
						"node":8,
						"path":"rotation"
					}
				},
				{
					"sampler":2,
					"target":{
						"node":8,
						"path":"scale"
					}
				},
				{
					"sampler":3,
					"target":{
						"node":3,
						"path":"translation"
					}
				},
				{
					"sampler":4,
					"target":{
						"node":3,
						"path":"rotation"
					}
				},
				{
					"sampler":5,
					"target":{
						"node":3,
						"path":"scale"
					}
				},
				{
					"sampler":6,
					"target":{
						"node":0,
						"path":"translation"
					}
				},
				{
					"sampler":7,
					"target":{
						"node":0,
						"path":"rotation"
					}
				},
				{
					"sampler":8,
					"target":{
						"node":0,
						"path":"scale"
					}
				},
				{
					"sampler":9,
					"target":{
						"node":1,
						"path":"translation"
					}
				},
				{
					"sampler":10,
					"target":{
						"node":1,
						"path":"rotation"
					}
				},
				{
					"sampler":11,
					"target":{
						"node":1,
						"path":"scale"
					}
				},
				{
					"sampler":12,
					"target":{
						"node":2,
						"path":"translation"
					}
				},
				{
					"sampler":13,
					"target":{
						"node":2,
						"path":"rotation"
					}
				},
				{
					"sampler":14,
					"target":{
						"node":2,
						"path":"scale"
					}
				},
				{
					"sampler":15,
					"target":{
						"node":5,
						"path":"translation"
					}
				},
				{
					"sampler":16,
					"target":{
						"node":5,
						"path":"rotation"
					}
				},
				{
					"sampler":17,
					"target":{
						"node":5,
						"path":"scale"
					}
				},
				{
					"sampler":18,
					"target":{
						"node":4,
						"path":"translation"
					}
				},
				{
					"sampler":19,
					"target":{
						"node":4,
						"path":"rotation"
					}
				},
				{
					"sampler":20,
					"target":{
						"node":4,
						"path":"scale"
					}
				},
				{
					"sampler":21,
					"target":{
						"node":7,
						"path":"translation"
					}
				},
				{
					"sampler":22,
					"target":{
						"node":7,
						"path":"rotation"
					}
				},
				{
					"sampler":23,
					"target":{
						"node":7,
						"path":"scale"
					}
				},
				{
					"sampler":24,
					"target":{
						"node":6,
						"path":"translation"
					}
				},
				{
					"sampler":25,
					"target":{
						"node":6,
						"path":"rotation"
					}
				},
				{
					"sampler":26,
					"target":{
						"node":6,
						"path":"scale"
					}
				},
				{
					"sampler":27,
					"target":{
						"node":10,
						"path":"translation"
					}
				},
				{
					"sampler":28,
					"target":{
						"node":10,
						"path":"rotation"
					}
				},
				{
					"sampler":29,
					"target":{
						"node":10,
						"path":"scale"
					}
				},
				{
					"sampler":30,
					"target":{
						"node":9,
						"path":"translation"
					}
				},
				{
					"sampler":31,
					"target":{
						"node":9,
						"path":"rotation"
					}
				},
				{
					"sampler":32,
					"target":{
						"node":9,
						"path":"scale"
					}
				},
				{
					"sampler":33,
					"target":{
						"node":12,
						"path":"translation"
					}
				},
				{
					"sampler":34,
					"target":{
						"node":12,
						"path":"rotation"
					}
				},
				{
					"sampler":35,
					"target":{
						"node":12,
						"path":"scale"
					}
				},
				{
					"sampler":36,
					"target":{
						"node":11,
						"path":"translation"
					}
				},
				{
					"sampler":37,
					"target":{
						"node":11,
						"path":"rotation"
					}
				},
				{
					"sampler":38,
					"target":{
						"node":11,
						"path":"scale"
					}
				}
			],
			"name":"Armature.003Action",
			"samplers":[
				{
					"input":10,
					"interpolation":"STEP",
					"output":11
				},
				{
					"input":10,
					"interpolation":"STEP",
					"output":12
				},
				{
					"input":10,
					"interpolation":"STEP",
					"output":13
				},
				{
					"input":10,
					"interpolation":"STEP",
					"output":14
				},
				{
					"input":15,
					"interpolation":"LINEAR",
					"output":16
				},
				{
					"input":10,
					"interpolation":"STEP",
					"output":13
				},
				{
					"input":10,
					"interpolation":"STEP",
					"output":17
				},
				{
					"input":10,
					"interpolation":"STEP",
					"output":18
				},
				{
					"input":10,
					"interpolation":"STEP",
					"output":19
				},
				{
					"input":10,
					"interpolation":"STEP",
					"output":20
				},
				{
					"input":10,
					"interpolation":"STEP",
					"output":21
				},
				{
					"input":10,
					"interpolation":"STEP",
					"output":22
				},
				{
					"input":10,
					"interpolation":"STEP",
					"output":23
				},
				{
					"input":10,
					"interpolation":"STEP",
					"output":24
				},
				{
					"input":10,
					"interpolation":"STEP",
					"output":25
				},
				{
					"input":10,
					"interpolation":"STEP",
					"output":26
				},
				{
					"input":10,
					"interpolation":"STEP",
					"output":27
				},
				{
					"input":10,
					"interpolation":"STEP",
					"output":28
				},
				{
					"input":10,
					"interpolation":"STEP",
					"output":29
				},
				{
					"input":15,
					"interpolation":"LINEAR",
					"output":30
				},
				{
					"input":10,
					"interpolation":"STEP",
					"output":31
				},
				{
					"input":10,
					"interpolation":"STEP",
					"output":32
				},
				{
					"input":10,
					"interpolation":"STEP",
					"output":33
				},
				{
					"input":10,
					"interpolation":"STEP",
					"output":13
				},
				{
					"input":10,
					"interpolation":"STEP",
					"output":34
				},
				{
					"input":10,
					"interpolation":"STEP",
					"output":35
				},
				{
					"input":10,
					"interpolation":"STEP",
					"output":22
				},
				{
					"input":10,
					"interpolation":"STEP",
					"output":36
				},
				{
					"input":10,
					"interpolation":"STEP",
					"output":37
				},
				{
					"input":10,
					"interpolation":"STEP",
					"output":38
				},
				{
					"input":10,
					"interpolation":"STEP",
					"output":39
				},
				{
					"input":10,
					"interpolation":"STEP",
					"output":40
				},
				{
					"input":10,
					"interpolation":"STEP",
					"output":19
				},
				{
					"input":10,
					"interpolation":"STEP",
					"output":41
				},
				{
					"input":10,
					"interpolation":"STEP",
					"output":42
				},
				{
					"input":10,
					"interpolation":"STEP",
					"output":43
				},
				{
					"input":10,
					"interpolation":"STEP",
					"output":44
				},
				{
					"input":10,
					"interpolation":"STEP",
					"output":45
				},
				{
					"input":10,
					"interpolation":"STEP",
					"output":13
				}
			]
		}
	],
	"materials":[
		{
			"doubleSided":true,
			"emissiveFactor":[
				0.4999999701976776,
				0.4999999701976776,
				0.4999999701976776
			],
			"emissiveTexture":{
				"index":0,
				"texCoord":1
			},
			"name":"Material.014",
			"pbrMetallicRoughness":{
				"baseColorTexture":{
					"index":1
				},
				"metallicFactor":0,
				"roughnessFactor":0.5
			}
		}
	],
	"meshes":[
		{
			"name":"Sphere.019",
			"primitives":[
				{
					"attributes":{
						"POSITION":0,
						"NORMAL":1,
						"TEXCOORD_0":2,
						"TEXCOORD_1":3,
						"COLOR_0":4,
						"COLOR_1":5,
						"JOINTS_0":6,
						"WEIGHTS_0":7
					},
					"indices":8,
					"material":0
				}
			]
		}
	],
	"textures":[
		{
			"sampler":0,
			"source":0
		},
		{
			"sampler":0,
			"source":1
		}
	],
	"images":[
		{
			"mimeType":"image/png",
			"name":"detal-marchewka",
			"uri":"../detal-marchewka.png"
		},
		{
			"mimeType": "image/png",
			"name": "palette",
			"uri": "../../../../textures/palette.png"
		}
	],
	"skins":[
		{
			"inverseBindMatrices":9,
			"joints":[
				8,
				3,
				0,
				1,
				2,
				5,
				4,
				7,
				6,
				10,
				9,
				12,
				11
			],
			"name":"Armature.003"
		}
	],
	"accessors":[
		{
			"bufferView":0,
			"componentType":5126,
			"count":5019,
			"max":[
				0.03489316999912262,
				4.977636337280273,
				1.323351263999939
			],
			"min":[
				-1.907512903213501,
				0.25870609283447266,
				-1.5750726461410522
			],
			"type":"VEC3"
		},
		{
			"bufferView":1,
			"componentType":5126,
			"count":5019,
			"type":"VEC3"
		},
		{
			"bufferView":2,
			"componentType":5126,
			"count":5019,
			"type":"VEC2"
		},
		{
			"bufferView":3,
			"componentType":5126,
			"count":5019,
			"type":"VEC2"
		},
		{
			"bufferView":4,
			"componentType":5121,
			"count":5019,
			"normalized":true,
			"type":"VEC4"
		},
		{
			"bufferView":5,
			"componentType":5123,
			"count":5019,
			"normalized":true,
			"type":"VEC4"
		},
		{
			"bufferView":6,
			"componentType":5121,
			"count":5019,
			"type":"VEC4"
		},
		{
			"bufferView":7,
			"componentType":5126,
			"count":5019,
			"type":"VEC4"
		},
		{
			"bufferView":8,
			"componentType":5123,
			"count":15864,
			"type":"SCALAR"
		},
		{
			"bufferView":9,
			"componentType":5126,
			"count":13,
			"type":"MAT4"
		},
		{
			"bufferView":10,
			"componentType":5126,
			"count":2,
			"max":[
				1.7083333333333333
			],
			"min":[
				0.041666666666666664
			],
			"type":"SCALAR"
		},
		{
			"bufferView":11,
			"componentType":5126,
			"count":2,
			"type":"VEC3"
		},
		{
			"bufferView":12,
			"componentType":5126,
			"count":2,
			"type":"VEC4"
		},
		{
			"bufferView":13,
			"componentType":5126,
			"count":2,
			"type":"VEC3"
		},
		{
			"bufferView":14,
			"componentType":5126,
			"count":2,
			"type":"VEC3"
		},
		{
			"bufferView":15,
			"componentType":5126,
			"count":41,
			"max":[
				1.7083333333333333
			],
			"min":[
				0.041666666666666664
			],
			"type":"SCALAR"
		},
		{
			"bufferView":16,
			"componentType":5126,
			"count":41,
			"type":"VEC4"
		},
		{
			"bufferView":17,
			"componentType":5126,
			"count":2,
			"type":"VEC3"
		},
		{
			"bufferView":18,
			"componentType":5126,
			"count":2,
			"type":"VEC4"
		},
		{
			"bufferView":19,
			"componentType":5126,
			"count":2,
			"type":"VEC3"
		},
		{
			"bufferView":20,
			"componentType":5126,
			"count":2,
			"type":"VEC3"
		},
		{
			"bufferView":21,
			"componentType":5126,
			"count":2,
			"type":"VEC4"
		},
		{
			"bufferView":22,
			"componentType":5126,
			"count":2,
			"type":"VEC3"
		},
		{
			"bufferView":23,
			"componentType":5126,
			"count":2,
			"type":"VEC3"
		},
		{
			"bufferView":24,
			"componentType":5126,
			"count":2,
			"type":"VEC4"
		},
		{
			"bufferView":25,
			"componentType":5126,
			"count":2,
			"type":"VEC3"
		},
		{
			"bufferView":26,
			"componentType":5126,
			"count":2,
			"type":"VEC3"
		},
		{
			"bufferView":27,
			"componentType":5126,
			"count":2,
			"type":"VEC4"
		},
		{
			"bufferView":28,
			"componentType":5126,
			"count":2,
			"type":"VEC3"
		},
		{
			"bufferView":29,
			"componentType":5126,
			"count":2,
			"type":"VEC3"
		},
		{
			"bufferView":30,
			"componentType":5126,
			"count":41,
			"type":"VEC4"
		},
		{
			"bufferView":31,
			"componentType":5126,
			"count":2,
			"type":"VEC3"
		},
		{
			"bufferView":32,
			"componentType":5126,
			"count":2,
			"type":"VEC3"
		},
		{
			"bufferView":33,
			"componentType":5126,
			"count":2,
			"type":"VEC4"
		},
		{
			"bufferView":34,
			"componentType":5126,
			"count":2,
			"type":"VEC3"
		},
		{
			"bufferView":35,
			"componentType":5126,
			"count":2,
			"type":"VEC4"
		},
		{
			"bufferView":36,
			"componentType":5126,
			"count":2,
			"type":"VEC3"
		},
		{
			"bufferView":37,
			"componentType":5126,
			"count":2,
			"type":"VEC4"
		},
		{
			"bufferView":38,
			"componentType":5126,
			"count":2,
			"type":"VEC3"
		},
		{
			"bufferView":39,
			"componentType":5126,
			"count":2,
			"type":"VEC3"
		},
		{
			"bufferView":40,
			"componentType":5126,
			"count":2,
			"type":"VEC4"
		},
		{
			"bufferView":41,
			"componentType":5126,
			"count":2,
			"type":"VEC3"
		},
		{
			"bufferView":42,
			"componentType":5126,
			"count":2,
			"type":"VEC4"
		},
		{
			"bufferView":43,
			"componentType":5126,
			"count":2,
			"type":"VEC3"
		},
		{
			"bufferView":44,
			"componentType":5126,
			"count":2,
			"type":"VEC3"
		},
		{
			"bufferView":45,
			"componentType":5126,
			"count":2,
			"type":"VEC4"
		}
	],
	"bufferViews":[
		{
			"buffer":0,
			"byteLength":60228,
			"byteOffset":0,
			"target":34962
		},
		{
			"buffer":0,
			"byteLength":60228,
			"byteOffset":60228,
			"target":34962
		},
		{
			"buffer":0,
			"byteLength":40152,
			"byteOffset":120456,
			"target":34962
		},
		{
			"buffer":0,
			"byteLength":40152,
			"byteOffset":160608,
			"target":34962
		},
		{
			"buffer":0,
			"byteLength":20076,
			"byteOffset":200760,
			"target":34962
		},
		{
			"buffer":0,
			"byteLength":40152,
			"byteOffset":220836,
			"target":34962
		},
		{
			"buffer":0,
			"byteLength":20076,
			"byteOffset":260988,
			"target":34962
		},
		{
			"buffer":0,
			"byteLength":80304,
			"byteOffset":281064,
			"target":34962
		},
		{
			"buffer":0,
			"byteLength":31728,
			"byteOffset":361368,
			"target":34963
		},
		{
			"buffer":0,
			"byteLength":832,
			"byteOffset":393096
		},
		{
			"buffer":0,
			"byteLength":8,
			"byteOffset":393928
		},
		{
			"buffer":0,
			"byteLength":24,
			"byteOffset":393936
		},
		{
			"buffer":0,
			"byteLength":32,
			"byteOffset":393960
		},
		{
			"buffer":0,
			"byteLength":24,
			"byteOffset":393992
		},
		{
			"buffer":0,
			"byteLength":24,
			"byteOffset":394016
		},
		{
			"buffer":0,
			"byteLength":164,
			"byteOffset":394040
		},
		{
			"buffer":0,
			"byteLength":656,
			"byteOffset":394204
		},
		{
			"buffer":0,
			"byteLength":24,
			"byteOffset":394860
		},
		{
			"buffer":0,
			"byteLength":32,
			"byteOffset":394884
		},
		{
			"buffer":0,
			"byteLength":24,
			"byteOffset":394916
		},
		{
			"buffer":0,
			"byteLength":24,
			"byteOffset":394940
		},
		{
			"buffer":0,
			"byteLength":32,
			"byteOffset":394964
		},
		{
			"buffer":0,
			"byteLength":24,
			"byteOffset":394996
		},
		{
			"buffer":0,
			"byteLength":24,
			"byteOffset":395020
		},
		{
			"buffer":0,
			"byteLength":32,
			"byteOffset":395044
		},
		{
			"buffer":0,
			"byteLength":24,
			"byteOffset":395076
		},
		{
			"buffer":0,
			"byteLength":24,
			"byteOffset":395100
		},
		{
			"buffer":0,
			"byteLength":32,
			"byteOffset":395124
		},
		{
			"buffer":0,
			"byteLength":24,
			"byteOffset":395156
		},
		{
			"buffer":0,
			"byteLength":24,
			"byteOffset":395180
		},
		{
			"buffer":0,
			"byteLength":656,
			"byteOffset":395204
		},
		{
			"buffer":0,
			"byteLength":24,
			"byteOffset":395860
		},
		{
			"buffer":0,
			"byteLength":24,
			"byteOffset":395884
		},
		{
			"buffer":0,
			"byteLength":32,
			"byteOffset":395908
		},
		{
			"buffer":0,
			"byteLength":24,
			"byteOffset":395940
		},
		{
			"buffer":0,
			"byteLength":32,
			"byteOffset":395964
		},
		{
			"buffer":0,
			"byteLength":24,
			"byteOffset":395996
		},
		{
			"buffer":0,
			"byteLength":32,
			"byteOffset":396020
		},
		{
			"buffer":0,
			"byteLength":24,
			"byteOffset":396052
		},
		{
			"buffer":0,
			"byteLength":24,
			"byteOffset":396076
		},
		{
			"buffer":0,
			"byteLength":32,
			"byteOffset":396100
		},
		{
			"buffer":0,
			"byteLength":24,
			"byteOffset":396132
		},
		{
			"buffer":0,
			"byteLength":32,
			"byteOffset":396156
		},
		{
			"buffer":0,
			"byteLength":24,
			"byteOffset":396188
		},
		{
			"buffer":0,
			"byteLength":24,
			"byteOffset":396212
		},
		{
			"buffer":0,
			"byteLength":32,
			"byteOffset":396236
		}
	],
	"samplers":[
		{
			"magFilter":9728,
			"minFilter":9984
		}
	],
	"buffers":[
		{
			"byteLength":396268,
			"uri":"marchewka-kroi.bin"
		}
	]
}
