{
	"asset":{
		"generator":"Khronos glTF Blender I/O v4.5.48",
		"version":"2.0"
	},
	"extensionsUsed":[
		"KHR_materials_emissive_strength"
	],
	"scene":0,
	"scenes":[
		{
			"name":"Scene",
			"nodes":[
				0,
				1,
				2,
				3,
				4,
				5,
				6
			]
		}
	],
	"nodes":[
		{
			"mesh":0,
			"name":"Cylinder"
		},
		{
			"mesh":1,
			"name":"Cylinder.001"
		},
		{
			"mesh":2,
			"name":"Cylinder.002"
		},
		{
			"mesh":3,
			"name":"Cylinder.003"
		},
		{
			"mesh":4,
			"name":"Cube"
		},
		{
			"mesh":5,
			"name":"Cylinder.004"
		},
		{
			"mesh":6,
			"name":"Circle.001"
		}
	],
	"materials":[
		{
			"doubleSided":true,
			"name":"Material.001",
			"pbrMetallicRoughness":{
				"baseColorTexture":{
					"index":0
				},
				"metallicFactor":0.6000000238418579,
				"roughnessFactor":0.4000000059604645
			}
		},
		{
			"doubleSided":true,
			"name":"Material.009",
			"pbrMetallicRoughness":{
				"baseColorTexture":{
					"index":1
				},
				"metallicFactor":0,
				"roughnessFactor":0.5
			}
		},
		{
			"doubleSided":true,
			"name":"Material.008",
			"pbrMetallicRoughness":{
				"baseColorTexture":{
					"index":2
				},
				"metallicFactor":0,
				"roughnessFactor":0.5
			}
		},
		{
			"doubleSided":true,
			"name":"Material.007",
			"pbrMetallicRoughness":{
				"baseColorTexture":{
					"index":3
				},
				"metallicFactor":0,
				"roughnessFactor":0.5
			}
		},
		{
			"doubleSided":true,
			"name":"Material.005",
			"pbrMetallicRoughness":{
				"baseColorTexture":{
					"index":4
				},
				"metallicFactor":0,
				"roughnessFactor":0.5
			}
		},
		{
			"doubleSided":true,
			"name":"Material.006",
			"pbrMetallicRoughness":{
				"baseColorTexture":{
					"index":5
				},
				"metallicFactor":0,
				"roughnessFactor":0.5
			}
		},
		{
			"doubleSided":true,
			"name":"Material.002",
			"pbrMetallicRoughness":{
				"baseColorTexture":{
					"index":6
				},
				"metallicFactor":0,
				"roughnessFactor":0.5
			}
		},
		{
			"doubleSided":true,
			"emissiveFactor":[
				1,
				1,
				1
			],
			"emissiveTexture":{
				"index":7,
				"texCoord":1
			},
			"extensions":{
				"KHR_materials_emissive_strength":{
					"emissiveStrength":2
				}
			},
			"name":"Material.003",
			"pbrMetallicRoughness":{
				"baseColorTexture":{
					"index":8
				},
				"metallicFactor":0,
				"roughnessFactor":0.5
			}
		},
		{
			"doubleSided":true,
			"name":"Material.004",
			"pbrMetallicRoughness":{
				"baseColorTexture":{
					"index":9
				},
				"metallicFactor":0,
				"roughnessFactor":0.5
			}
		}
	],
	"meshes":[
		{
			"name":"Cylinder",
			"primitives":[
				{
					"attributes":{
						"POSITION":0,
						"NORMAL":1,
						"TEXCOORD_0":2
					},
					"indices":3,
					"material":0
				}
			]
		},
		{
			"name":"Cylinder.001",
			"primitives":[
				{
					"attributes":{
						"POSITION":4,
						"NORMAL":5,
						"TEXCOORD_0":6
					},
					"indices":7,
					"material":1
				}
			]
		},
		{
			"name":"Cylinder.002",
			"primitives":[
				{
					"attributes":{
						"POSITION":8,
						"NORMAL":9,
						"TEXCOORD_0":10
					},
					"indices":7,
					"material":2
				}
			]
		},
		{
			"name":"Cylinder.003",
			"primitives":[
				{
					"attributes":{
						"POSITION":11,
						"NORMAL":12,
						"TEXCOORD_0":13
					},
					"indices":14,
					"material":3
				}
			]
		},
		{
			"name":"Cube.002",
			"primitives":[
				{
					"attributes":{
						"POSITION":15,
						"NORMAL":16,
						"TEXCOORD_0":17
					},
					"indices":18,
					"material":4
				}
			]
		},
		{
			"name":"Cylinder.005",
			"primitives":[
				{
					"attributes":{
						"POSITION":19,
						"NORMAL":20,
						"TEXCOORD_0":21
					},
					"indices":22,
					"material":5
				}
			]
		},
		{
			"name":"Circle.002",
			"primitives":[
				{
					"attributes":{
						"POSITION":23,
						"NORMAL":24,
						"TEXCOORD_0":25,
						"TEXCOORD_1":26
					},
					"indices":27,
					"material":6
				},
				{
					"attributes":{
						"POSITION":28,
						"NORMAL":29,
						"TEXCOORD_0":30,
						"TEXCOORD_1":31
					},
					"indices":32,
					"material":7
				},
				{
					"attributes":{
						"POSITION":33,
						"NORMAL":34,
						"TEXCOORD_0":35,
						"TEXCOORD_1":36
					},
					"indices":37,
					"material":8
				}
			]
		}
	],
	"textures":[
		{
			"sampler":0,
			"source":0
		},
		{
			"sampler":1,
			"source":0
		},
		{
			"sampler":1,
			"source":0
		},
		{
			"sampler":1,
			"source":0
		},
		{
			"sampler":1,
			"source":0
		},
		{
			"sampler":1,
			"source":0
		},
		{
			"sampler":0,
			"source":0
		},
		{
			"sampler":1,
			"source":1
		},
		{
			"sampler":1,
			"source":0
		},
		{
			"sampler":0,
			"source":0
		}
	],
	"images":[
		{
			"mimeType":"image/png",
			"name":"palette",
			"uri":"../../../textures/palette.png"
		},
		{
			"mimeType":"image/png",
			"name":"pestki",
			"uri":"pestki.png"
		}
	],
	"accessors":[
		{
			"bufferView":0,
			"componentType":5126,
			"count":1048,
			"max":[
				1,
				0.102706179022789,
				1
			],
			"min":[
				-1,
				0.02960212156176567,
				-1
			],
			"type":"VEC3"
		},
		{
			"bufferView":1,
			"componentType":5126,
			"count":1048,
			"type":"VEC3"
		},
		{
			"bufferView":2,
			"componentType":5126,
			"count":1048,
			"type":"VEC2"
		},
		{
			"bufferView":3,
			"componentType":5123,
			"count":3060,
			"type":"SCALAR"
		},
		{
			"bufferView":4,
			"componentType":5126,
			"count":920,
			"max":[
				0.6133757829666138,
				0.2553715109825134,
				0.5844621658325195
			],
			"min":[
				-0.6113163232803345,
				0.055007316172122955,
				-0.6406627893447876
			],
			"type":"VEC3"
		},
		{
			"bufferView":5,
			"componentType":5126,
			"count":920,
			"type":"VEC3"
		},
		{
			"bufferView":6,
			"componentType":5126,
			"count":920,
			"type":"VEC2"
		},
		{
			"bufferView":7,
			"componentType":5123,
			"count":4608,
			"type":"SCALAR"
		},
		{
			"bufferView":8,
			"componentType":5126,
			"count":920,
			"max":[
				0.5785928964614868,
				0.45136985182762146,
				0.7134016752243042
			],
			"min":[
				-0.6460992097854614,
				0.2510056793689728,
				-0.5117232799530029
			],
			"type":"VEC3"
		},
		{
			"bufferView":9,
			"componentType":5126,
			"count":920,
			"type":"VEC3"
		},
		{
			"bufferView":10,
			"componentType":5126,
			"count":920,
			"type":"VEC2"
		},
		{
			"bufferView":11,
			"componentType":5126,
			"count":917,
			"max":[
				0.6014475226402283,
				0.6476515531539917,
				0.6304001212120056
			],
			"min":[
				-0.6238002777099609,
				0.44728735089302063,
				-0.5954016447067261
			],
			"type":"VEC3"
		},
		{
			"bufferView":12,
			"componentType":5126,
			"count":917,
			"type":"VEC3"
		},
		{
			"bufferView":13,
			"componentType":5126,
			"count":917,
			"type":"VEC2"
		},
		{
			"bufferView":14,
			"componentType":5123,
			"count":4608,
			"type":"SCALAR"
		},
		{
			"bufferView":15,
			"componentType":5126,
			"count":386,
			"max":[
				0.11008800566196442,
				0.733038067817688,
				0.13963502645492554
			],
			"min":[
				-0.13324594497680664,
				0.6420004367828369,
				-0.10382935404777527
			],
			"type":"VEC3"
		},
		{
			"bufferView":16,
			"componentType":5126,
			"count":386,
			"type":"VEC3"
		},
		{
			"bufferView":17,
			"componentType":5126,
			"count":386,
			"type":"VEC2"
		},
		{
			"bufferView":18,
			"componentType":5123,
			"count":1842,
			"type":"SCALAR"
		},
		{
			"bufferView":19,
			"componentType":5126,
			"count":1997,
			"max":[
				0.5752155184745789,
				0.6555714011192322,
				0.7329632043838501
			],
			"min":[
				-0.6549001336097717,
				0.26549020409584045,
				-0.3803207278251648
			],
			"type":"VEC3"
		},
		{
			"bufferView":20,
			"componentType":5126,
			"count":1997,
			"type":"VEC3"
		},
		{
			"bufferView":21,
			"componentType":5126,
			"count":1997,
			"type":"VEC2"
		},
		{
			"bufferView":22,
			"componentType":5123,
			"count":8736,
			"type":"SCALAR"
		},
		{
			"bufferView":23,
			"componentType":5126,
			"count":392,
			"max":[
				-0.15191271901130676,
				0.8961389660835266,
				0.3211750388145447
			],
			"min":[
				-0.35582399368286133,
				0.6671912670135498,
				-0.03965696692466736
			],
			"type":"VEC3"
		},
		{
			"bufferView":24,
			"componentType":5126,
			"count":392,
			"type":"VEC3"
		},
		{
			"bufferView":25,
			"componentType":5126,
			"count":392,
			"type":"VEC2"
		},
		{
			"bufferView":26,
			"componentType":5126,
			"count":392,
			"type":"VEC2"
		},
		{
			"bufferView":27,
			"componentType":5123,
			"count":900,
			"type":"SCALAR"
		},
		{
			"bufferView":28,
			"componentType":5126,
			"count":382,
			"max":[
				-0.1597805917263031,
				0.861921489238739,
				0.3685981035232544
			],
			"min":[
				-0.4289524257183075,
				0.6369747519493103,
				-0.04692798852920532
			],
			"type":"VEC3"
		},
		{
			"bufferView":29,
			"componentType":5126,
			"count":382,
			"type":"VEC3"
		},
		{
			"bufferView":30,
			"componentType":5126,
			"count":382,
			"type":"VEC2"
		},
		{
			"bufferView":31,
			"componentType":5126,
			"count":382,
			"type":"VEC2"
		},
		{
			"bufferView":32,
			"componentType":5123,
			"count":1536,
			"type":"SCALAR"
		},
		{
			"bufferView":33,
			"componentType":5126,
			"count":9742,
			"max":[
				0.3462233245372772,
				0.7720052003860474,
				-0.11674267053604126
			],
			"min":[
				0.06446817517280579,
				0.6392641067504883,
				-0.3954801559448242
			],
			"type":"VEC3"
		},
		{
			"bufferView":34,
			"componentType":5126,
			"count":9742,
			"type":"VEC3"
		},
		{
			"bufferView":35,
			"componentType":5126,
			"count":9742,
			"type":"VEC2"
		},
		{
			"bufferView":36,
			"componentType":5126,
			"count":9742,
			"type":"VEC2"
		},
		{
			"bufferView":37,
			"componentType":5123,
			"count":23466,
			"type":"SCALAR"
		}
	],
	"bufferViews":[
		{
			"buffer":0,
			"byteLength":12576,
			"byteOffset":0,
			"target":34962
		},
		{
			"buffer":0,
			"byteLength":12576,
			"byteOffset":12576,
			"target":34962
		},
		{
			"buffer":0,
			"byteLength":8384,
			"byteOffset":25152,
			"target":34962
		},
		{
			"buffer":0,
			"byteLength":6120,
			"byteOffset":33536,
			"target":34963
		},
		{
			"buffer":0,
			"byteLength":11040,
			"byteOffset":39656,
			"target":34962
		},
		{
			"buffer":0,
			"byteLength":11040,
			"byteOffset":50696,
			"target":34962
		},
		{
			"buffer":0,
			"byteLength":7360,
			"byteOffset":61736,
			"target":34962
		},
		{
			"buffer":0,
			"byteLength":9216,
			"byteOffset":69096,
			"target":34963
		},
		{
			"buffer":0,
			"byteLength":11040,
			"byteOffset":78312,
			"target":34962
		},
		{
			"buffer":0,
			"byteLength":11040,
			"byteOffset":89352,
			"target":34962
		},
		{
			"buffer":0,
			"byteLength":7360,
			"byteOffset":100392,
			"target":34962
		},
		{
			"buffer":0,
			"byteLength":11004,
			"byteOffset":107752,
			"target":34962
		},
		{
			"buffer":0,
			"byteLength":11004,
			"byteOffset":118756,
			"target":34962
		},
		{
			"buffer":0,
			"byteLength":7336,
			"byteOffset":129760,
			"target":34962
		},
		{
			"buffer":0,
			"byteLength":9216,
			"byteOffset":137096,
			"target":34963
		},
		{
			"buffer":0,
			"byteLength":4632,
			"byteOffset":146312,
			"target":34962
		},
		{
			"buffer":0,
			"byteLength":4632,
			"byteOffset":150944,
			"target":34962
		},
		{
			"buffer":0,
			"byteLength":3088,
			"byteOffset":155576,
			"target":34962
		},
		{
			"buffer":0,
			"byteLength":3684,
			"byteOffset":158664,
			"target":34963
		},
		{
			"buffer":0,
			"byteLength":23964,
			"byteOffset":162348,
			"target":34962
		},
		{
			"buffer":0,
			"byteLength":23964,
			"byteOffset":186312,
			"target":34962
		},
		{
			"buffer":0,
			"byteLength":15976,
			"byteOffset":210276,
			"target":34962
		},
		{
			"buffer":0,
			"byteLength":17472,
			"byteOffset":226252,
			"target":34963
		},
		{
			"buffer":0,
			"byteLength":4704,
			"byteOffset":243724,
			"target":34962
		},
		{
			"buffer":0,
			"byteLength":4704,
			"byteOffset":248428,
			"target":34962
		},
		{
			"buffer":0,
			"byteLength":3136,
			"byteOffset":253132,
			"target":34962
		},
		{
			"buffer":0,
			"byteLength":3136,
			"byteOffset":256268,
			"target":34962
		},
		{
			"buffer":0,
			"byteLength":1800,
			"byteOffset":259404,
			"target":34963
		},
		{
			"buffer":0,
			"byteLength":4584,
			"byteOffset":261204,
			"target":34962
		},
		{
			"buffer":0,
			"byteLength":4584,
			"byteOffset":265788,
			"target":34962
		},
		{
			"buffer":0,
			"byteLength":3056,
			"byteOffset":270372,
			"target":34962
		},
		{
			"buffer":0,
			"byteLength":3056,
			"byteOffset":273428,
			"target":34962
		},
		{
			"buffer":0,
			"byteLength":3072,
			"byteOffset":276484,
			"target":34963
		},
		{
			"buffer":0,
			"byteLength":116904,
			"byteOffset":279556,
			"target":34962
		},
		{
			"buffer":0,
			"byteLength":116904,
			"byteOffset":396460,
			"target":34962
		},
		{
			"buffer":0,
			"byteLength":77936,
			"byteOffset":513364,
			"target":34962
		},
		{
			"buffer":0,
			"byteLength":77936,
			"byteOffset":591300,
			"target":34962
		},
		{
			"buffer":0,
			"byteLength":46932,
			"byteOffset":669236,
			"target":34963
		}
	],
	"samplers":[
		{
			"magFilter":9728,
			"minFilter":9984
		},
		{
			"magFilter":9729,
			"minFilter":9987
		}
	],
	"buffers":[
		{
			"byteLength":716168,
			"uri":"pancakes.bin"
		}
	]
}
