{
	"asset":{
		"generator":"Khronos glTF Blender I/O v4.4.56",
		"version":"2.0"
	},
	"scene":0,
	"scenes":[
		{
			"name":"Scene",
			"nodes":[
				22
			]
		}
	],
	"nodes":[
		{
			"name":"lisc-s",
			"rotation":[
				-1.3478819838042e-08,
				1.1266972244072804e-08,
				0.05397962033748627,
				0.9985420107841492
			],
			"translation":[
				0,
				1.6352765560150146,
				0
			]
		},
		{
			"name":"lisc-p",
			"rotation":[
				1.1425409240928275e-07,
				8.763439041103993e-08,
				-0.34438470005989075,
				0.9388285875320435
			],
			"translation":[
				0,
				1.6352765560150146,
				0
			]
		},
		{
			"name":"lisc-l",
			"rotation":[
				-6.240104966082072e-08,
				-6.679807995624287e-08,
				0.3750985860824585,
				0.926984965801239
			],
			"translation":[
				0,
				1.6352765560150146,
				0
			]
		},
		{
			"children":[
				0,
				1,
				2
			],
			"name":"kregoslup",
			"rotation":[
				0,
				1.1920928955078125e-07,
				0,
				1
			],
			"translation":[
				0,
				0.9179627299308777,
				0
			]
		},
		{
			"name":"reka-p",
			"rotation":[
				-5.374085532139361e-08,
				-4.7399357328004044e-08,
				-0.4462757706642151,
				0.8948954939842224
			],
			"translation":[
				-5.21540641784668e-08,
				0.9061315059661865,
				5.329070518200751e-15
			]
		},
		{
			"children":[
				4
			],
			"name":"tlow-p",
			"rotation":[
				-2.274354216069696e-08,
				-2.4904924345037216e-08,
				-0.6743383407592773,
				0.7384225130081177
			],
			"translation":[
				0,
				0.9179627299308777,
				0
			]
		},
		{
			"name":"reka-l",
			"rotation":[
				1.5244797424429635e-08,
				1.1672005229002025e-07,
				0.4462757706642151,
				0.8948954939842224
			],
			"translation":[
				0,
				0.9061315655708313,
				-8.881784197001252e-16
			]
		},
		{
			"children":[
				6
			],
			"name":"tlow-l",
			"rotation":[
				5.549423676143306e-08,
				-6.076801639665064e-08,
				0.6743383407592773,
				0.7384225130081177
			],
			"translation":[
				0,
				0.9179627299308777,
				0
			]
		},
		{
			"children":[
				3,
				5,
				7
			],
			"name":"gl"
		},
		{
			"name":"stopa-p",
			"rotation":[
				-0.5504910945892334,
				-4.395448272020985e-08,
				1.257750348315767e-08,
				0.8348410725593567
			],
			"translation":[
				-1.6653345369377348e-16,
				0.3748664855957031,
				5.587935447692871e-09
			]
		},
		{
			"children":[
				9
			],
			"name":"noga-p",
			"rotation":[
				-0.5903217792510986,
				-0.38925597071647644,
				-0.5903217792510986,
				0.38925597071647644
			]
		},
		{
			"name":"stopa-l",
			"rotation":[
				0.5504910945892334,
				-5.639457256734204e-08,
				-4.374542506013768e-09,
				0.8348410725593567
			],
			"scale":[
				1,
				0.9999999403953552,
				1
			],
			"translation":[
				5.412337245047638e-16,
				0.37486645579338074,
				-9.080395102500916e-09
			]
		},
		{
			"children":[
				11
			],
			"name":"noga-l",
			"rotation":[
				0.5903217792510986,
				-0.38925597071647644,
				0.5903217792510986,
				0.3892560303211212
			],
			"scale":[
				1,
				0.9999999403953552,
				1
			]
		},
		{
			"mesh":0,
			"name":"brwi.003",
			"skin":0
		},
		{
			"mesh":1,
			"name":"cialo.003",
			"skin":0
		},
		{
			"mesh":2,
			"name":"lisc1.003",
			"skin":0
		},
		{
			"mesh":3,
			"name":"lisc2.003",
			"skin":0
		},
		{
			"mesh":4,
			"name":"lisc3.003",
			"skin":0
		},
		{
			"mesh":5,
			"name":"nogi.003",
			"skin":0
		},
		{
			"mesh":6,
			"name":"rece.003",
			"skin":0
		},
		{
			"mesh":7,
			"name":"Sphere",
			"skin":0
		},
		{
			"mesh":8,
			"name":"usta.003",
			"skin":0
		},
		{
			"children":[
				13,
				14,
				15,
				16,
				17,
				18,
				19,
				20,
				21,
				8,
				10,
				12
			],
			"name":"Armature.003",
			"translation":[
				0.009562969207763672,
				0,
				0
			]
		}
	],
	"materials":[
		{
			"doubleSided":true,
			"emissiveFactor":[
				0.7999992370605469,
				0.7999992370605469,
				0.7999992370605469
			],
			"emissiveTexture":{
				"index":0
			},
			"name":"Material.014",
			"pbrMetallicRoughness":{
				"baseColorTexture":{
					"index":1
				},
				"metallicFactor":0,
				"roughnessFactor":0.5
			}
		},
		{
			"doubleSided":true,
			"emissiveFactor":[
				0.7999992370605469,
				0.7999992370605469,
				0.7999992370605469
			],
			"emissiveTexture":{
				"index":0,
				"texCoord":1
			},
			"name":"Material.014",
			"pbrMetallicRoughness":{
				"baseColorTexture":{
					"index":1
				},
				"metallicFactor":0,
				"roughnessFactor":0.5
			}
		}
	],
	"meshes":[
		{
			"name":"Sphere.019",
			"primitives":[
				{
					"attributes":{
						"POSITION":0,
						"NORMAL":1,
						"TEXCOORD_0":2,
						"JOINTS_0":3,
						"WEIGHTS_0":4
					},
					"indices":5,
					"material":0
				}
			]
		},
		{
			"name":"Sphere.018",
			"primitives":[
				{
					"attributes":{
						"POSITION":7,
						"NORMAL":8,
						"TEXCOORD_0":9,
						"TEXCOORD_1":10,
						"JOINTS_0":11,
						"WEIGHTS_0":12
					},
					"indices":13,
					"material":1
				}
			]
		},
		{
			"name":"Circle.011",
			"primitives":[
				{
					"attributes":{
						"POSITION":14,
						"NORMAL":15,
						"TEXCOORD_0":16,
						"TEXCOORD_1":17,
						"JOINTS_0":18,
						"WEIGHTS_0":19
					},
					"indices":20,
					"material":1
				}
			]
		},
		{
			"name":"Circle.010",
			"primitives":[
				{
					"attributes":{
						"POSITION":21,
						"NORMAL":22,
						"TEXCOORD_0":23,
						"TEXCOORD_1":24,
						"JOINTS_0":25,
						"WEIGHTS_0":26
					},
					"indices":20,
					"material":1
				}
			]
		},
		{
			"name":"Circle.009",
			"primitives":[
				{
					"attributes":{
						"POSITION":27,
						"NORMAL":28,
						"TEXCOORD_0":29,
						"TEXCOORD_1":30,
						"JOINTS_0":31,
						"WEIGHTS_0":32
					},
					"indices":20,
					"material":1
				}
			]
		},
		{
			"name":"Sphere.017",
			"primitives":[
				{
					"attributes":{
						"POSITION":33,
						"NORMAL":34,
						"TEXCOORD_0":35,
						"JOINTS_0":36,
						"WEIGHTS_0":37
					},
					"indices":38,
					"material":0
				}
			]
		},
		{
			"name":"Sphere.015",
			"primitives":[
				{
					"attributes":{
						"POSITION":39,
						"NORMAL":40,
						"TEXCOORD_0":41,
						"JOINTS_0":42,
						"WEIGHTS_0":43
					},
					"indices":44,
					"material":0
				}
			]
		},
		{
			"name":"Sphere.020",
			"primitives":[
				{
					"attributes":{
						"POSITION":45,
						"NORMAL":46,
						"TEXCOORD_0":47,
						"JOINTS_0":48,
						"WEIGHTS_0":49
					},
					"indices":50,
					"material":0
				}
			]
		},
		{
			"name":"Cube.004",
			"primitives":[
				{
					"attributes":{
						"POSITION":51,
						"NORMAL":52,
						"TEXCOORD_0":53,
						"COLOR_0":54,
						"COLOR_1":55,
						"JOINTS_0":56,
						"WEIGHTS_0":57
					},
					"indices":58,
					"material":0
				}
			]
		}
	],
	"textures":[
		{
			"sampler":0,
			"source":0
		},
		{
			"sampler":0,
			"source":1
		}
	],
	"images":[
		{
			"mimeType":"image/png",
			"name":"detal",
			"uri":"detal.png"
		},
		{
			"mimeType":"image/png",
			"name":"palette",
			"uri":"palette.png"
		}
	],
	"skins":[
		{
			"inverseBindMatrices":6,
			"joints":[
				8,
				3,
				0,
				1,
				2,
				5,
				4,
				7,
				6,
				10,
				9,
				12,
				11
			],
			"name":"Armature.003"
		}
	],
	"accessors":[
		{
			"bufferView":0,
			"componentType":5126,
			"count":3968,
			"max":[
				0.6634947061538696,
				1.7226474285125732,
				0.9319789409637451
			],
			"min":[
				-0.6443687677383423,
				1.5619497299194336,
				0.691195547580719
			],
			"type":"VEC3"
		},
		{
			"bufferView":1,
			"componentType":5126,
			"count":3968,
			"type":"VEC3"
		},
		{
			"bufferView":2,
			"componentType":5126,
			"count":3968,
			"type":"VEC2"
		},
		{
			"bufferView":3,
			"componentType":5121,
			"count":3968,
			"type":"VEC4"
		},
		{
			"bufferView":4,
			"componentType":5126,
			"count":3968,
			"type":"VEC4"
		},
		{
			"bufferView":5,
			"componentType":5123,
			"count":5760,
			"type":"SCALAR"
		},
		{
			"bufferView":6,
			"componentType":5126,
			"count":13,
			"type":"MAT4"
		},
		{
			"bufferView":7,
			"componentType":5126,
			"count":2395,
			"max":[
				1.021453619003296,
				2.650498151779175,
				0.9674423336982727
			],
			"min":[
				-1.0023270845413208,
				-0.32508862018585205,
				-0.9674420952796936
			],
			"type":"VEC3"
		},
		{
			"bufferView":8,
			"componentType":5126,
			"count":2395,
			"type":"VEC3"
		},
		{
			"bufferView":9,
			"componentType":5126,
			"count":2395,
			"type":"VEC2"
		},
		{
			"bufferView":10,
			"componentType":5126,
			"count":2395,
			"type":"VEC2"
		},
		{
			"bufferView":11,
			"componentType":5121,
			"count":2395,
			"type":"VEC4"
		},
		{
			"bufferView":12,
			"componentType":5126,
			"count":2395,
			"type":"VEC4"
		},
		{
			"bufferView":13,
			"componentType":5123,
			"count":11904,
			"type":"SCALAR"
		},
		{
			"bufferView":14,
			"componentType":5126,
			"count":334,
			"max":[
				-0.09874662011861801,
				3.8217008113861084,
				0.10446548461914062
			],
			"min":[
				-1.1100738048553467,
				2.5184731483459473,
				-0.046604935079813004
			],
			"type":"VEC3"
		},
		{
			"bufferView":15,
			"componentType":5126,
			"count":334,
			"type":"VEC3"
		},
		{
			"bufferView":16,
			"componentType":5126,
			"count":334,
			"type":"VEC2"
		},
		{
			"bufferView":17,
			"componentType":5126,
			"count":334,
			"type":"VEC2"
		},
		{
			"bufferView":18,
			"componentType":5121,
			"count":334,
			"type":"VEC4"
		},
		{
			"bufferView":19,
			"componentType":5126,
			"count":334,
			"type":"VEC4"
		},
		{
			"bufferView":20,
			"componentType":5123,
			"count":1152,
			"type":"SCALAR"
		},
		{
			"bufferView":21,
			"componentType":5126,
			"count":334,
			"max":[
				0.3118125796318054,
				4.124200344085693,
				0.18454612791538239
			],
			"min":[
				-0.5027323961257935,
				2.5355985164642334,
				-0.02048582397401333
			],
			"type":"VEC3"
		},
		{
			"bufferView":22,
			"componentType":5126,
			"count":334,
			"type":"VEC3"
		},
		{
			"bufferView":23,
			"componentType":5126,
			"count":334,
			"type":"VEC2"
		},
		{
			"bufferView":24,
			"componentType":5126,
			"count":334,
			"type":"VEC2"
		},
		{
			"bufferView":25,
			"componentType":5121,
			"count":334,
			"type":"VEC4"
		},
		{
			"bufferView":26,
			"componentType":5126,
			"count":334,
			"type":"VEC4"
		},
		{
			"bufferView":27,
			"componentType":5126,
			"count":334,
			"max":[
				1.0731992721557617,
				3.833482503890991,
				0.22890673577785492
			],
			"min":[
				0.11958150565624237,
				2.4840099811553955,
				0.003405868774279952
			],
			"type":"VEC3"
		},
		{
			"bufferView":28,
			"componentType":5126,
			"count":334,
			"type":"VEC3"
		},
		{
			"bufferView":29,
			"componentType":5126,
			"count":334,
			"type":"VEC2"
		},
		{
			"bufferView":30,
			"componentType":5126,
			"count":334,
			"type":"VEC2"
		},
		{
			"bufferView":31,
			"componentType":5121,
			"count":334,
			"type":"VEC4"
		},
		{
			"bufferView":32,
			"componentType":5126,
			"count":334,
			"type":"VEC4"
		},
		{
			"bufferView":33,
			"componentType":5126,
			"count":1190,
			"max":[
				0.529205858707428,
				0.04781466722488403,
				0.17856758832931519
			],
			"min":[
				-0.5100799202919006,
				-0.5947296619415283,
				-0.17856770753860474
			],
			"type":"VEC3"
		},
		{
			"bufferView":34,
			"componentType":5126,
			"count":1190,
			"type":"VEC3"
		},
		{
			"bufferView":35,
			"componentType":5126,
			"count":1190,
			"type":"VEC2"
		},
		{
			"bufferView":36,
			"componentType":5121,
			"count":1190,
			"type":"VEC4"
		},
		{
			"bufferView":37,
			"componentType":5126,
			"count":1190,
			"type":"VEC4"
		},
		{
			"bufferView":38,
			"componentType":5123,
			"count":5760,
			"type":"SCALAR"
		},
		{
			"bufferView":39,
			"componentType":5126,
			"count":1205,
			"max":[
				1.3256779909133911,
				1.1331173181533813,
				0.17856758832931519
			],
			"min":[
				-1.3065520524978638,
				0.6060724258422852,
				-0.17856770753860474
			],
			"type":"VEC3"
		},
		{
			"bufferView":40,
			"componentType":5126,
			"count":1205,
			"type":"VEC3"
		},
		{
			"bufferView":41,
			"componentType":5126,
			"count":1205,
			"type":"VEC2"
		},
		{
			"bufferView":42,
			"componentType":5121,
			"count":1205,
			"type":"VEC4"
		},
		{
			"bufferView":43,
			"componentType":5126,
			"count":1205,
			"type":"VEC4"
		},
		{
			"bufferView":44,
			"componentType":5123,
			"count":5760,
			"type":"SCALAR"
		},
		{
			"bufferView":45,
			"componentType":5126,
			"count":1208,
			"max":[
				0.5494418740272522,
				1.5243339538574219,
				0.9731667637825012
			],
			"min":[
				-0.5303148627281189,
				1.2909495830535889,
				0.7397825717926025
			],
			"type":"VEC3"
		},
		{
			"bufferView":46,
			"componentType":5126,
			"count":1208,
			"type":"VEC3"
		},
		{
			"bufferView":47,
			"componentType":5126,
			"count":1208,
			"type":"VEC2"
		},
		{
			"bufferView":48,
			"componentType":5121,
			"count":1208,
			"type":"VEC4"
		},
		{
			"bufferView":49,
			"componentType":5126,
			"count":1208,
			"type":"VEC4"
		},
		{
			"bufferView":50,
			"componentType":5123,
			"count":5760,
			"type":"SCALAR"
		},
		{
			"bufferView":51,
			"componentType":5126,
			"count":253,
			"max":[
				0.19990117847919464,
				1.2690685987472534,
				0.9627041816711426
			],
			"min":[
				-0.13073976337909698,
				1.2058805227279663,
				0.9286554455757141
			],
			"type":"VEC3"
		},
		{
			"bufferView":52,
			"componentType":5126,
			"count":253,
			"type":"VEC3"
		},
		{
			"bufferView":53,
			"componentType":5126,
			"count":253,
			"type":"VEC2"
		},
		{
			"bufferView":54,
			"componentType":5121,
			"count":253,
			"normalized":true,
			"type":"VEC4"
		},
		{
			"bufferView":55,
			"componentType":5123,
			"count":253,
			"normalized":true,
			"type":"VEC4"
		},
		{
			"bufferView":56,
			"componentType":5121,
			"count":253,
			"type":"VEC4"
		},
		{
			"bufferView":57,
			"componentType":5126,
			"count":253,
			"type":"VEC4"
		},
		{
			"bufferView":58,
			"componentType":5123,
			"count":834,
			"type":"SCALAR"
		}
	],
	"bufferViews":[
		{
			"buffer":0,
			"byteLength":47616,
			"byteOffset":0,
			"target":34962
		},
		{
			"buffer":0,
			"byteLength":47616,
			"byteOffset":47616,
			"target":34962
		},
		{
			"buffer":0,
			"byteLength":31744,
			"byteOffset":95232,
			"target":34962
		},
		{
			"buffer":0,
			"byteLength":15872,
			"byteOffset":126976,
			"target":34962
		},
		{
			"buffer":0,
			"byteLength":63488,
			"byteOffset":142848,
			"target":34962
		},
		{
			"buffer":0,
			"byteLength":11520,
			"byteOffset":206336,
			"target":34963
		},
		{
			"buffer":0,
			"byteLength":832,
			"byteOffset":217856
		},
		{
			"buffer":0,
			"byteLength":28740,
			"byteOffset":218688,
			"target":34962
		},
		{
			"buffer":0,
			"byteLength":28740,
			"byteOffset":247428,
			"target":34962
		},
		{
			"buffer":0,
			"byteLength":19160,
			"byteOffset":276168,
			"target":34962
		},
		{
			"buffer":0,
			"byteLength":19160,
			"byteOffset":295328,
			"target":34962
		},
		{
			"buffer":0,
			"byteLength":9580,
			"byteOffset":314488,
			"target":34962
		},
		{
			"buffer":0,
			"byteLength":38320,
			"byteOffset":324068,
			"target":34962
		},
		{
			"buffer":0,
			"byteLength":23808,
			"byteOffset":362388,
			"target":34963
		},
		{
			"buffer":0,
			"byteLength":4008,
			"byteOffset":386196,
			"target":34962
		},
		{
			"buffer":0,
			"byteLength":4008,
			"byteOffset":390204,
			"target":34962
		},
		{
			"buffer":0,
			"byteLength":2672,
			"byteOffset":394212,
			"target":34962
		},
		{
			"buffer":0,
			"byteLength":2672,
			"byteOffset":396884,
			"target":34962
		},
		{
			"buffer":0,
			"byteLength":1336,
			"byteOffset":399556,
			"target":34962
		},
		{
			"buffer":0,
			"byteLength":5344,
			"byteOffset":400892,
			"target":34962
		},
		{
			"buffer":0,
			"byteLength":2304,
			"byteOffset":406236,
			"target":34963
		},
		{
			"buffer":0,
			"byteLength":4008,
			"byteOffset":408540,
			"target":34962
		},
		{
			"buffer":0,
			"byteLength":4008,
			"byteOffset":412548,
			"target":34962
		},
		{
			"buffer":0,
			"byteLength":2672,
			"byteOffset":416556,
			"target":34962
		},
		{
			"buffer":0,
			"byteLength":2672,
			"byteOffset":419228,
			"target":34962
		},
		{
			"buffer":0,
			"byteLength":1336,
			"byteOffset":421900,
			"target":34962
		},
		{
			"buffer":0,
			"byteLength":5344,
			"byteOffset":423236,
			"target":34962
		},
		{
			"buffer":0,
			"byteLength":4008,
			"byteOffset":428580,
			"target":34962
		},
		{
			"buffer":0,
			"byteLength":4008,
			"byteOffset":432588,
			"target":34962
		},
		{
			"buffer":0,
			"byteLength":2672,
			"byteOffset":436596,
			"target":34962
		},
		{
			"buffer":0,
			"byteLength":2672,
			"byteOffset":439268,
			"target":34962
		},
		{
			"buffer":0,
			"byteLength":1336,
			"byteOffset":441940,
			"target":34962
		},
		{
			"buffer":0,
			"byteLength":5344,
			"byteOffset":443276,
			"target":34962
		},
		{
			"buffer":0,
			"byteLength":14280,
			"byteOffset":448620,
			"target":34962
		},
		{
			"buffer":0,
			"byteLength":14280,
			"byteOffset":462900,
			"target":34962
		},
		{
			"buffer":0,
			"byteLength":9520,
			"byteOffset":477180,
			"target":34962
		},
		{
			"buffer":0,
			"byteLength":4760,
			"byteOffset":486700,
			"target":34962
		},
		{
			"buffer":0,
			"byteLength":19040,
			"byteOffset":491460,
			"target":34962
		},
		{
			"buffer":0,
			"byteLength":11520,
			"byteOffset":510500,
			"target":34963
		},
		{
			"buffer":0,
			"byteLength":14460,
			"byteOffset":522020,
			"target":34962
		},
		{
			"buffer":0,
			"byteLength":14460,
			"byteOffset":536480,
			"target":34962
		},
		{
			"buffer":0,
			"byteLength":9640,
			"byteOffset":550940,
			"target":34962
		},
		{
			"buffer":0,
			"byteLength":4820,
			"byteOffset":560580,
			"target":34962
		},
		{
			"buffer":0,
			"byteLength":19280,
			"byteOffset":565400,
			"target":34962
		},
		{
			"buffer":0,
			"byteLength":11520,
			"byteOffset":584680,
			"target":34963
		},
		{
			"buffer":0,
			"byteLength":14496,
			"byteOffset":596200,
			"target":34962
		},
		{
			"buffer":0,
			"byteLength":14496,
			"byteOffset":610696,
			"target":34962
		},
		{
			"buffer":0,
			"byteLength":9664,
			"byteOffset":625192,
			"target":34962
		},
		{
			"buffer":0,
			"byteLength":4832,
			"byteOffset":634856,
			"target":34962
		},
		{
			"buffer":0,
			"byteLength":19328,
			"byteOffset":639688,
			"target":34962
		},
		{
			"buffer":0,
			"byteLength":11520,
			"byteOffset":659016,
			"target":34963
		},
		{
			"buffer":0,
			"byteLength":3036,
			"byteOffset":670536,
			"target":34962
		},
		{
			"buffer":0,
			"byteLength":3036,
			"byteOffset":673572,
			"target":34962
		},
		{
			"buffer":0,
			"byteLength":2024,
			"byteOffset":676608,
			"target":34962
		},
		{
			"buffer":0,
			"byteLength":1012,
			"byteOffset":678632,
			"target":34962
		},
		{
			"buffer":0,
			"byteLength":2024,
			"byteOffset":679644,
			"target":34962
		},
		{
			"buffer":0,
			"byteLength":1012,
			"byteOffset":681668,
			"target":34962
		},
		{
			"buffer":0,
			"byteLength":4048,
			"byteOffset":682680,
			"target":34962
		},
		{
			"buffer":0,
			"byteLength":1668,
			"byteOffset":686728,
			"target":34963
		}
	],
	"samplers":[
		{
			"magFilter":9728,
			"minFilter":9984
		}
	],
	"buffers":[
		{
			"byteLength":688396,
			"uri":"test.bin"
		}
	]
}
