{
	"asset":{
		"generator":"Khronos glTF Blender I/O v5.1.19",
		"version":"2.0"
	},
	"scene":0,
	"scenes":[
		{
			"name":"Scene",
			"nodes":[
				31
			]
		}
	],
	"nodes":[
		{
			"name":"stopa-palce-p",
			"rotation":[
				2.7008354663848877e-08,
				-5.598299601672352e-14,
				-7.310988701372464e-15,
				1
			],
			"translation":[
				1.2860296827454931e-08,
				0.5633232593536377,
				-5.589413376583252e-09
			]
		},
		{
			"children":[
				0
			],
			"name":"stopa-spod-p",
			"rotation":[
				-1.682351893350642e-07,
				-5.364844568589433e-08,
				-0.7071067690849304,
				0.7071067690849304
			],
			"translation":[
				1.7462298274040222e-09,
				0.42659425735473633,
				-7.8580342233181e-09
			]
		},
		{
			"children":[
				1
			],
			"name":"stopa-p",
			"rotation":[
				2.8472234310433016e-16,
				9.313225746154785e-10,
				1.0408714079753226e-16,
				1
			],
			"translation":[
				1.7462298274040222e-09,
				0.7382897734642029,
				-7.8580342233181e-09
			]
		},
		{
			"children":[
				2
			],
			"name":"lydka-p",
			"rotation":[
				3.7232843475010213e-09,
				9.313225746154785e-10,
				1.2224113388192848e-10,
				1
			],
			"translation":[
				2.080660310710414e-09,
				0.6270244121551514,
				-1.8044314487042357e-08
			]
		},
		{
			"children":[
				3
			],
			"name":"udo-p",
			"rotation":[
				-0.6674326658248901,
				-6.679075426063719e-08,
				-4.154264843236888e-08,
				0.7446701526641846
			],
			"scale":[
				1,
				0.9999998807907104,
				0.9999999403953552
			],
			"translation":[
				9.925997801474296e-10,
				0.7702773213386536,
				-2.705928636714816e-08
			]
		},
		{
			"children":[
				4
			],
			"name":"miednica-p",
			"rotation":[
				-0.5265612602233887,
				-0.47194617986679077,
				-0.5265613198280334,
				0.47194626927375793
			],
			"scale":[
				0.9999999403953552,
				0.9999999403953552,
				0.9999999403953552
			]
		},
		{
			"name":"stopa-palce-l",
			"rotation":[
				2.421438694000244e-08,
				-6.322720125240266e-14,
				-1.176170977019303e-14,
				1
			],
			"translation":[
				1.2286287542906393e-09,
				0.5633232593536377,
				-3.968104067553213e-08
			]
		},
		{
			"children":[
				6
			],
			"name":"stopa-spod-l",
			"rotation":[
				-2.2881997097101703e-07,
				-1.2345284972070658e-07,
				-0.7071067690849304,
				0.7071067690849304
			],
			"translation":[
				-2.3283064365386963e-10,
				0.4265943765640259,
				-5.4191332310438156e-08
			]
		},
		{
			"children":[
				7
			],
			"name":"stopa-l",
			"rotation":[
				-1.942034260421705e-16,
				5.874705709451184e-26,
				1.127033171013194e-17,
				1
			],
			"translation":[
				-2.3283064365386963e-10,
				0.738290011882782,
				-5.4191332310438156e-08
			]
		},
		{
			"children":[
				8
			],
			"name":"lydka-l",
			"rotation":[
				-3.8206638373894375e-12,
				-1.3107360263883845e-18,
				1.1635255953157397e-10,
				1
			],
			"translation":[
				8.549067009866462e-11,
				0.6270244121551514,
				-5.4180880226795125e-08
			]
		},
		{
			"children":[
				9
			],
			"name":"udo-l",
			"rotation":[
				0.6674326658248901,
				-1.3466129189509957e-07,
				4.341724491041532e-08,
				0.7446701526641846
			],
			"scale":[
				1,
				0.9999998807907104,
				0.9999999403953552
			],
			"translation":[
				1.730882104311604e-10,
				0.7702773809432983,
				3.914465196430683e-08
			]
		},
		{
			"children":[
				10
			],
			"name":"miednica-l",
			"rotation":[
				0.5265612006187439,
				-0.47194617986679077,
				0.5265613794326782,
				0.47194620966911316
			],
			"scale":[
				0.9999999403953552,
				0.9999998807907104,
				0.9999999403953552
			]
		},
		{
			"name":"glowa",
			"translation":[
				0,
				0.7031326293945312,
				0
			]
		},
		{
			"children":[
				12
			],
			"name":"szyja",
			"translation":[
				0,
				0.8959269523620605,
				0
			]
		},
		{
			"name":"palce-p",
			"rotation":[
				6.611051706073567e-09,
				-2.0192285887787875e-07,
				-0.007370344828814268,
				0.9999728798866272
			],
			"scale":[
				0.9999999403953552,
				1,
				1
			],
			"translation":[
				-2.0546576706692576e-07,
				0.38583463430404663,
				1.7541310626256745e-09
			]
		},
		{
			"children":[
				14
			],
			"name":"dlon-p",
			"rotation":[
				-2.5648345669537775e-09,
				-1.7704914867522348e-08,
				-0.013430380262434483,
				0.9999098181724548
			],
			"scale":[
				1,
				0.9999999403953552,
				1
			],
			"translation":[
				3.838067641481757e-09,
				1.1998682022094727,
				8.457504918624181e-09
			]
		},
		{
			"name":"kciuk-p",
			"rotation":[
				0.32091233134269714,
				-0.0008348528645001352,
				-0.024252954870462418,
				0.9467979669570923
			],
			"scale":[
				0.9999999403953552,
				0.9999998807907104,
				0.9999999403953552
			],
			"translation":[
				-6.994232535362244e-07,
				0.42380592226982117,
				3.3712524327711435e-08
			]
		},
		{
			"children":[
				16
			],
			"name":"palce-kciuk-p",
			"rotation":[
				0.3356979489326477,
				-0.00639355881139636,
				0.005513652227818966,
				0.9419318437576294
			],
			"scale":[
				0.9999998211860657,
				0.9999998807907104,
				0.9999998807907104
			],
			"translation":[
				3.838067641481757e-09,
				1.1998682022094727,
				8.457504918624181e-09
			]
		},
		{
			"children":[
				15,
				17
			],
			"name":"przedramie-p",
			"rotation":[
				-3.3233036322855014e-09,
				1.8561211456713522e-09,
				0.015484368428587914,
				0.9998801350593567
			],
			"translation":[
				5.444235284812748e-07,
				1.1867636442184448,
				1.1962868029513629e-08
			]
		},
		{
			"children":[
				18
			],
			"name":"ramie-p",
			"rotation":[
				1.6183895112931168e-08,
				2.245349151053233e-08,
				-0.055728729814291,
				0.998445987701416
			],
			"scale":[
				0.9999999403953552,
				0.9999999403953552,
				1
			],
			"translation":[
				1.7535057850182056e-08,
				0.9017390608787537,
				1.339799382549245e-09
			]
		},
		{
			"children":[
				19
			],
			"name":"klatka-p",
			"rotation":[
				4.3599385435300064e-08,
				5.683339665552012e-08,
				-0.6732022762298584,
				0.7394583821296692
			],
			"scale":[
				1,
				1.0000001192092896,
				1
			],
			"translation":[
				0,
				0.8959269523620605,
				0
			]
		},
		{
			"name":"palce-l",
			"rotation":[
				-3.724701613805337e-08,
				-1.3814704402648204e-07,
				0.007370347157120705,
				0.9999728798866272
			],
			"scale":[
				0.9999999403953552,
				1,
				1
			],
			"translation":[
				1.9409708329476416e-07,
				0.38583484292030334,
				-1.07170308183413e-08
			]
		},
		{
			"children":[
				21
			],
			"name":"dlon-l",
			"rotation":[
				-1.1972843827479096e-09,
				-6.986137179865182e-08,
				0.013430380262434483,
				0.9999098181724548
			],
			"scale":[
				1,
				0.9999999403953552,
				1
			],
			"translation":[
				-1.1315933079458773e-07,
				1.1998679637908936,
				-4.323510438553058e-09
			]
		},
		{
			"name":"kciuk-l",
			"rotation":[
				-0.3202897310256958,
				-0.035665202885866165,
				-0.03143005073070526,
				0.9461261630058289
			],
			"translation":[
				-7.059425115585327e-07,
				0.4238058924674988,
				-7.450580596923828e-09
			]
		},
		{
			"children":[
				23
			],
			"name":"dlon-kciuk-l",
			"rotation":[
				0.004717044532299042,
				-0.9412997961044312,
				-0.3357100486755371,
				0.03508907929062843
			],
			"scale":[
				1,
				0.9999999403953552,
				1
			],
			"translation":[
				-1.1315933079458773e-07,
				1.1998679637908936,
				-4.323510438553058e-09
			]
		},
		{
			"children":[
				22,
				24
			],
			"name":"przedramie-l",
			"rotation":[
				5.712236017529904e-09,
				1.024598272891808e-08,
				-0.015484368428587914,
				0.9998801350593567
			],
			"translation":[
				-5.917972885072231e-07,
				1.186763882637024,
				-4.920821083942428e-09
			]
		},
		{
			"children":[
				25
			],
			"name":"ramie-l",
			"rotation":[
				-1.0654303217449979e-08,
				5.129677660420384e-08,
				0.055728729814291,
				0.998445987701416
			],
			"scale":[
				0.9999999403953552,
				0.9999999403953552,
				1
			],
			"translation":[
				2.5414919946342707e-07,
				0.9017390608787537,
				-3.462105269136373e-09
			]
		},
		{
			"children":[
				26
			],
			"name":"klatka-l",
			"rotation":[
				-9.229604103211386e-08,
				9.233458797552885e-08,
				0.6732022762298584,
				0.7394583821296692
			],
			"scale":[
				1,
				1.0000001192092896,
				1
			],
			"translation":[
				0,
				0.8959269523620605,
				0
			]
		},
		{
			"children":[
				13,
				20,
				27
			],
			"name":"klatka",
			"translation":[
				0,
				1,
				0
			]
		},
		{
			"children":[
				5,
				11,
				28
			],
			"name":"kregoslup",
			"rotation":[
				0,
				-0.016409138217568398,
				0,
				0.9998653531074524
			]
		},
		{
			"mesh":0,
			"name":"Sphere.002",
			"skin":0
		},
		{
			"children":[
				30,
				29
			],
			"name":"postac",
			"translation":[
				-0.0335005521774292,
				2.0789525508880615,
				0
			]
		}
	],
	"materials":[
		{
			"doubleSided":true,
			"name":"Material.001",
			"pbrMetallicRoughness":{
				"baseColorTexture":{
					"index":0
				},
				"metallicFactor":0,
				"roughnessFactor":0.8409091234207153
			}
		}
	],
	"meshes":[
		{
			"name":"Sphere.002",
			"primitives":[
				{
					"attributes":{
						"POSITION":0,
						"NORMAL":1,
						"TEXCOORD_0":2,
						"COLOR_0":3,
						"COLOR_1":4,
						"JOINTS_0":5,
						"WEIGHTS_0":6
					},
					"indices":7,
					"material":0
				}
			]
		}
	],
	"textures":[
		{
			"sampler":0,
			"source":0
		}
	],
	"images":[
		{
			"mimeType":"image/png",
			"name":"babcia",
			"uri":"babcia.png"
		}
	],
	"skins":[
		{
			"inverseBindMatrices":8,
			"joints":[
				29,
				5,
				4,
				3,
				2,
				1,
				0,
				11,
				10,
				9,
				8,
				7,
				6,
				28,
				13,
				12,
				20,
				19,
				18,
				15,
				14,
				17,
				16,
				27,
				26,
				25,
				22,
				21,
				24,
				23
			],
			"name":"postac"
		}
	],
	"accessors":[
		{
			"bufferView":0,
			"componentType":5126,
			"count":3983,
			"max":[
				3.978017568588257,
				11.100573539733887,
				3.09865665435791
			],
			"min":[
				-3.995405912399292,
				0.07110977172851562,
				-3.600276470184326
			],
			"type":"VEC3"
		},
		{
			"bufferView":1,
			"componentType":5126,
			"count":3983,
			"type":"VEC3"
		},
		{
			"bufferView":2,
			"componentType":5126,
			"count":3983,
			"type":"VEC2"
		},
		{
			"bufferView":3,
			"componentType":5121,
			"count":3983,
			"normalized":true,
			"type":"VEC4"
		},
		{
			"bufferView":4,
			"componentType":5123,
			"count":3983,
			"normalized":true,
			"type":"VEC4"
		},
		{
			"bufferView":5,
			"componentType":5121,
			"count":3983,
			"type":"VEC4"
		},
		{
			"bufferView":6,
			"componentType":5126,
			"count":3983,
			"type":"VEC4"
		},
		{
			"bufferView":7,
			"componentType":5123,
			"count":13170,
			"type":"SCALAR"
		},
		{
			"bufferView":8,
			"componentType":5126,
			"count":30,
			"type":"MAT4"
		}
	],
	"bufferViews":[
		{
			"buffer":0,
			"byteLength":47796,
			"byteOffset":0,
			"target":34962
		},
		{
			"buffer":0,
			"byteLength":47796,
			"byteOffset":47796,
			"target":34962
		},
		{
			"buffer":0,
			"byteLength":31864,
			"byteOffset":95592,
			"target":34962
		},
		{
			"buffer":0,
			"byteLength":15932,
			"byteOffset":127456,
			"target":34962
		},
		{
			"buffer":0,
			"byteLength":31864,
			"byteOffset":143388,
			"target":34962
		},
		{
			"buffer":0,
			"byteLength":15932,
			"byteOffset":175252,
			"target":34962
		},
		{
			"buffer":0,
			"byteLength":63728,
			"byteOffset":191184,
			"target":34962
		},
		{
			"buffer":0,
			"byteLength":26340,
			"byteOffset":254912,
			"target":34963
		},
		{
			"buffer":0,
			"byteLength":1920,
			"byteOffset":281252
		}
	],
	"samplers":[
		{
			"magFilter":9729,
			"minFilter":9987
		}
	],
	"buffers":[
		{
			"byteLength":283172,
			"uri":"babcia.bin"
		}
	]
}
