{
	"asset":{
		"generator":"Khronos glTF Blender I/O v4.4.56",
		"version":"2.0"
	},
	"scene":0,
	"scenes":[
		{
			"name":"Scene",
			"nodes":[
				31
			]
		}
	],
	"nodes":[
		{
			"name":"stopa-palce-p",
			"rotation":[
				9.083590192697308e-22,
				-5.960465188081798e-08,
				1.1102272597898928e-16,
				1
			],
			"translation":[
				8.116862737495012e-11,
				0.5633231997489929,
				-7.265656165600376e-08
			]
		},
		{
			"children":[
				0
			],
			"name":"stopa-spod-p",
			"rotation":[
				-1.0765054270223118e-07,
				-2.730810777507031e-08,
				-0.7071067690849304,
				0.7071067690849304
			],
			"translation":[
				3.4924596548080444e-09,
				0.4265943765640259,
				-6.746267899870872e-08
			]
		},
		{
			"children":[
				1
			],
			"name":"stopa-p",
			"rotation":[
				5.689893001203927e-16,
				-5.359220729889504e-25,
				1.7784384747611905e-23,
				1
			],
			"translation":[
				3.4924596548080444e-09,
				0.738290011882782,
				-6.746267899870872e-08
			]
		},
		{
			"children":[
				2
			],
			"name":"lydka-p",
			"rotation":[
				3.725290742551124e-09,
				-8.991291958231963e-18,
				-2.706168887221615e-16,
				1
			],
			"translation":[
				1.6298137284209702e-09,
				0.6270244121551514,
				-1.8049803429676103e-08
			]
		},
		{
			"children":[
				3
			],
			"name":"udo-p",
			"rotation":[
				-0.6674326658248901,
				-2.230780182799208e-08,
				1.6618977305427052e-09,
				0.7446701526641846
			],
			"scale":[
				1,
				0.9999998807907104,
				0.9999998807907104
			],
			"translation":[
				2.7083828513241315e-09,
				0.7702773213386536,
				-2.267915988340974e-08
			]
		},
		{
			"children":[
				4
			],
			"name":"miednica-p",
			"rotation":[
				-0.5265613198280334,
				-0.47194617986679077,
				-0.5265612602233887,
				0.47194623947143555
			],
			"scale":[
				0.9999999403953552,
				0.9999999403953552,
				0.9999999403953552
			]
		},
		{
			"name":"stopa-palce-l",
			"rotation":[
				-9.313225746154785e-10,
				-5.960465898624534e-08,
				-4.440885745753522e-16,
				1
			],
			"translation":[
				2.199053206197732e-08,
				0.5633231997489929,
				-1.011609853662776e-07
			]
		},
		{
			"children":[
				6
			],
			"name":"stopa-spod-l",
			"rotation":[
				-1.7350501479995728e-07,
				-9.316255500380066e-08,
				-0.7071067690849304,
				0.7071067690849304
			],
			"translation":[
				-2.0954757928848267e-09,
				0.4265943169593811,
				-5.3958501666784286e-08
			]
		},
		{
			"children":[
				7
			],
			"name":"stopa-l",
			"rotation":[
				-4.961309141293668e-16,
				9.313225746154785e-10,
				-1.387736429134083e-17,
				1
			],
			"translation":[
				-2.0954757928848267e-09,
				0.7382898926734924,
				-5.3958501666784286e-08
			]
		},
		{
			"children":[
				8
			],
			"name":"lydka-l",
			"rotation":[
				-7.285830128773117e-16,
				9.313225746154785e-10,
				1.419697692739419e-14,
				1
			],
			"translation":[
				-2.0954369350789648e-09,
				0.6270244121551514,
				-5.3958501666784286e-08
			]
		},
		{
			"children":[
				9
			],
			"name":"udo-l",
			"rotation":[
				0.6674326658248901,
				-1.339338524530831e-07,
				4.132125397404707e-08,
				0.7446701526641846
			],
			"scale":[
				1,
				0.9999998807907104,
				0.9999998807907104
			],
			"translation":[
				6.529035090352409e-10,
				0.7702773213386536,
				4.668254405260086e-08
			]
		},
		{
			"children":[
				10
			],
			"name":"miednica-l",
			"rotation":[
				0.5265612006187439,
				-0.47194617986679077,
				0.5265613794326782,
				0.47194620966911316
			],
			"scale":[
				0.9999999403953552,
				0.9999998807907104,
				0.9999999403953552
			]
		},
		{
			"name":"glowa",
			"translation":[
				0,
				0.7031326293945312,
				0
			]
		},
		{
			"children":[
				12
			],
			"name":"szyja",
			"translation":[
				0,
				0.8959269523620605,
				0
			]
		},
		{
			"name":"palce-p",
			"rotation":[
				2.746307403711512e-09,
				-1.7558340914547443e-07,
				-0.007370340637862682,
				0.9999728798866272
			],
			"scale":[
				0.9999999403953552,
				1,
				1
			],
			"translation":[
				-2.1439700503833592e-07,
				0.38583460450172424,
				2.234514795418363e-09
			]
		},
		{
			"children":[
				14
			],
			"name":"dlon-p",
			"rotation":[
				2.644968688514382e-09,
				4.9343441332894145e-08,
				-0.013430381193757057,
				0.9999098181724548
			],
			"scale":[
				1,
				0.9999999403953552,
				1
			],
			"translation":[
				-4.635840014088899e-07,
				1.1998682022094727,
				5.9893068282690365e-09
			]
		},
		{
			"name":"kciuk-p",
			"rotation":[
				0.32091253995895386,
				-0.0008347058319486678,
				-0.02425287291407585,
				0.9467979073524475
			],
			"scale":[
				0.9999999403953552,
				0.9999999403953552,
				0.9999999403953552
			],
			"translation":[
				-4.6193599700927734e-07,
				0.4238055944442749,
				3.585898298297252e-07
			]
		},
		{
			"children":[
				16
			],
			"name":"palce-kciuk-p",
			"rotation":[
				0.3356979489326477,
				-0.00639344984665513,
				0.005513649433851242,
				0.9419318437576294
			],
			"scale":[
				0.9999998807907104,
				1,
				1
			],
			"translation":[
				-4.635840014088899e-07,
				1.1998682022094727,
				5.9893068282690365e-09
			]
		},
		{
			"children":[
				15,
				17
			],
			"name":"przedramie-p",
			"rotation":[
				-6.510703087769798e-09,
				-6.00289737917592e-08,
				0.01548437587916851,
				0.9998801350593567
			],
			"translation":[
				5.032852641306818e-07,
				1.186763882637024,
				-8.689369224157417e-09
			]
		},
		{
			"children":[
				18
			],
			"name":"ramie-p",
			"rotation":[
				1.719825348800441e-08,
				1.892029288796948e-08,
				-0.0557287372648716,
				0.998445987701416
			],
			"scale":[
				0.9999999403953552,
				0.9999998807907104,
				1
			],
			"translation":[
				1.728767529129982e-08,
				0.9017390608787537,
				-1.0335270417272113e-09
			]
		},
		{
			"children":[
				19
			],
			"name":"klatka-p",
			"rotation":[
				4.646514284445402e-08,
				5.974591488211445e-08,
				-0.6732022762298584,
				0.7394583821296692
			],
			"scale":[
				1,
				1.0000001192092896,
				1
			],
			"translation":[
				0,
				0.8959269523620605,
				0
			]
		},
		{
			"name":"palce-l",
			"rotation":[
				-1.3390530906320919e-09,
				-6.283528364292579e-08,
				0.007370341569185257,
				0.9999728798866272
			],
			"scale":[
				0.9999999403953552,
				1,
				1
			],
			"translation":[
				2.091364876832813e-07,
				0.38583484292030334,
				-3.455284058873076e-09
			]
		},
		{
			"children":[
				21
			],
			"name":"dlon-l",
			"rotation":[
				-3.1427436208986137e-09,
				-8.099478776557589e-08,
				0.013430381193757057,
				0.9999098181724548
			],
			"scale":[
				1,
				0.9999999403953552,
				1
			],
			"translation":[
				3.6245182855054736e-07,
				1.1998682022094727,
				-3.4166305340477265e-09
			]
		},
		{
			"name":"kciuk-l",
			"rotation":[
				-0.32028913497924805,
				-0.035665083676576614,
				-0.03143008425831795,
				0.9461263418197632
			],
			"scale":[
				1.0000001192092896,
				1,
				1.0000001192092896
			],
			"translation":[
				-7.450580596923828e-07,
				0.42380571365356445,
				1.7881393432617188e-07
			]
		},
		{
			"children":[
				23
			],
			"name":"dlon-kciuk-l",
			"rotation":[
				0.00471704825758934,
				-0.9412997961044312,
				-0.3357101082801819,
				0.035089075565338135
			],
			"scale":[
				1.0000001192092896,
				0.9999999403953552,
				1
			],
			"translation":[
				3.6245182855054736e-07,
				1.1998682022094727,
				-3.4166305340477265e-09
			]
		},
		{
			"children":[
				22,
				24
			],
			"name":"przedramie-l",
			"rotation":[
				5.342725817314431e-09,
				9.360962849314092e-08,
				-0.01548437587916851,
				0.9998801350593567
			],
			"translation":[
				-5.643232725560665e-07,
				1.1867636442184448,
				4.388141405797796e-09
			]
		},
		{
			"children":[
				25
			],
			"name":"ramie-l",
			"rotation":[
				-7.557948045189278e-09,
				-5.023487048561037e-08,
				0.0557287335395813,
				0.998445987701416
			],
			"scale":[
				0.9999999403953552,
				0.9999998807907104,
				1
			],
			"translation":[
				2.5591725716367364e-07,
				0.9017390608787537,
				-1.7914771888172254e-09
			]
		},
		{
			"children":[
				26
			],
			"name":"klatka-l",
			"rotation":[
				-1.1248044273770574e-07,
				1.1508369368584681e-07,
				0.6732022762298584,
				0.7394583821296692
			],
			"scale":[
				1,
				1.0000001192092896,
				1
			],
			"translation":[
				0,
				0.8959269523620605,
				0
			]
		},
		{
			"children":[
				13,
				20,
				27
			],
			"name":"klatka",
			"translation":[
				0,
				1,
				0
			]
		},
		{
			"children":[
				5,
				11,
				28
			],
			"name":"kregoslup"
		},
		{
			"mesh":0,
			"name":"Cylinder.004",
			"skin":0
		},
		{
			"children":[
				30,
				29
			],
			"name":"postac",
			"rotation":[
				0,
				-0.016409140080213547,
				0,
				0.9998654723167419
			],
			"translation":[
				-0.0335005521774292,
				2.0789525508880615,
				0
			]
		}
	],
	"materials":[
		{
			"doubleSided":true,
			"name":"Material.001",
			"pbrMetallicRoughness":{
				"baseColorTexture":{
					"index":0
				},
				"metallicFactor":0,
				"roughnessFactor":0.8409091234207153
			}
		}
	],
	"meshes":[
		{
			"name":"Cylinder.001",
			"primitives":[
				{
					"attributes":{
						"POSITION":0,
						"NORMAL":1,
						"TEXCOORD_0":2,
						"COLOR_0":3,
						"COLOR_1":4,
						"JOINTS_0":5,
						"WEIGHTS_0":6
					},
					"indices":7,
					"material":0
				}
			]
		}
	],
	"textures":[
		{
			"sampler":0,
			"source":0
		}
	],
	"images":[
		{
			"mimeType":"image/png",
			"name":"klient2",
			"uri":"klient2.png"
		}
	],
	"skins":[
		{
			"inverseBindMatrices":8,
			"joints":[
				29,
				5,
				4,
				3,
				2,
				1,
				0,
				11,
				10,
				9,
				8,
				7,
				6,
				28,
				13,
				12,
				20,
				19,
				18,
				15,
				14,
				17,
				16,
				27,
				26,
				25,
				22,
				21,
				24,
				23
			],
			"name":"postac"
		}
	],
	"accessors":[
		{
			"bufferView":0,
			"componentType":5126,
			"count":2642,
			"max":[
				3.9780173301696777,
				10.313277244567871,
				3.098656415939331
			],
			"min":[
				-3.995405673980713,
				0.0711095929145813,
				-2.9430387020111084
			],
			"type":"VEC3"
		},
		{
			"bufferView":1,
			"componentType":5126,
			"count":2642,
			"type":"VEC3"
		},
		{
			"bufferView":2,
			"componentType":5126,
			"count":2642,
			"type":"VEC2"
		},
		{
			"bufferView":3,
			"componentType":5121,
			"count":2642,
			"normalized":true,
			"type":"VEC4"
		},
		{
			"bufferView":4,
			"componentType":5123,
			"count":2642,
			"normalized":true,
			"type":"VEC4"
		},
		{
			"bufferView":5,
			"componentType":5121,
			"count":2642,
			"type":"VEC4"
		},
		{
			"bufferView":6,
			"componentType":5126,
			"count":2642,
			"type":"VEC4"
		},
		{
			"bufferView":7,
			"componentType":5123,
			"count":9756,
			"type":"SCALAR"
		},
		{
			"bufferView":8,
			"componentType":5126,
			"count":30,
			"type":"MAT4"
		}
	],
	"bufferViews":[
		{
			"buffer":0,
			"byteLength":31704,
			"byteOffset":0,
			"target":34962
		},
		{
			"buffer":0,
			"byteLength":31704,
			"byteOffset":31704,
			"target":34962
		},
		{
			"buffer":0,
			"byteLength":21136,
			"byteOffset":63408,
			"target":34962
		},
		{
			"buffer":0,
			"byteLength":10568,
			"byteOffset":84544,
			"target":34962
		},
		{
			"buffer":0,
			"byteLength":21136,
			"byteOffset":95112,
			"target":34962
		},
		{
			"buffer":0,
			"byteLength":10568,
			"byteOffset":116248,
			"target":34962
		},
		{
			"buffer":0,
			"byteLength":42272,
			"byteOffset":126816,
			"target":34962
		},
		{
			"buffer":0,
			"byteLength":19512,
			"byteOffset":169088,
			"target":34963
		},
		{
			"buffer":0,
			"byteLength":1920,
			"byteOffset":188600
		}
	],
	"samplers":[
		{
			"magFilter":9729,
			"minFilter":9987
		}
	],
	"buffers":[
		{
			"byteLength":190520,
			"uri":"klient2.bin"
		}
	]
}
