{
	"asset":{
		"generator":"Khronos glTF Blender I/O v4.4.56",
		"version":"2.0"
	},
	"scene":0,
	"scenes":[
		{
			"name":"Scene",
			"nodes":[
				32
			]
		}
	],
	"nodes":[
		{
			"name":"stopa-palce-p",
			"rotation":[
				2.514570951461792e-08,
				-5.960465898624534e-08,
				-6.172202455216472e-15,
				1
			],
			"translation":[
				1.497967083707863e-08,
				0.5633232593536377,
				1.48877639105649e-08
			]
		},
		{
			"children":[
				0
			],
			"name":"stopa-spod-p",
			"rotation":[
				-1.2608978749995003e-07,
				-1.1503044738958579e-08,
				-0.7071067690849304,
				0.7071067690849304
			],
			"translation":[
				1.7462298274040222e-09,
				0.42659425735473633,
				-7.916241884231567e-09
			]
		},
		{
			"children":[
				1
			],
			"name":"stopa-p",
			"rotation":[
				1.1206911871829172e-15,
				9.313225746154785e-10,
				1.0737924022615451e-16,
				1
			],
			"translation":[
				1.7462298274040222e-09,
				0.7382897734642029,
				-7.916241884231567e-09
			]
		},
		{
			"children":[
				2
			],
			"name":"lydka-p",
			"rotation":[
				3.727103958794942e-09,
				9.313225746154785e-10,
				5.888318044960927e-12,
				1
			],
			"translation":[
				1.7623390524690308e-09,
				0.6270244121551514,
				-1.8112974231598855e-08
			]
		},
		{
			"children":[
				3
			],
			"name":"udo-p",
			"rotation":[
				-0.6674326658248901,
				-2.301656287784226e-08,
				-4.531072184121854e-10,
				0.7446701526641846
			],
			"scale":[
				1,
				0.9999998807907104,
				0.9999999403953552
			],
			"translation":[
				-1.003954253064876e-09,
				0.7702773213386536,
				-2.262095222249627e-08
			]
		},
		{
			"children":[
				4
			],
			"name":"miednica-p",
			"rotation":[
				-0.5265613198280334,
				-0.47194617986679077,
				-0.5265612602233887,
				0.47194623947143555
			],
			"scale":[
				0.9999999403953552,
				0.9999999403953552,
				0.9999999403953552
			]
		},
		{
			"name":"stopa-palce-l",
			"rotation":[
				2.421438694000244e-08,
				-5.960463056453591e-08,
				-1.1132445605546021e-14,
				1
			],
			"translation":[
				7.0832619769589655e-09,
				0.5633232593536377,
				-7.508396038247156e-08
			]
		},
		{
			"children":[
				6
			],
			"name":"stopa-spod-l",
			"rotation":[
				-1.8931005740796536e-07,
				-7.867458151622486e-08,
				-0.7071067690849304,
				0.7071067690849304
			],
			"translation":[
				-2.3283064365386963e-10,
				0.4265943765640259,
				-5.4016709327697754e-08
			]
		},
		{
			"children":[
				7
			],
			"name":"stopa-l",
			"rotation":[
				-1.9420386279353393e-16,
				5.844188502073193e-26,
				-3.03494882851421e-17,
				1
			],
			"translation":[
				-2.3283064365386963e-10,
				0.738290011882782,
				-5.4016709327697754e-08
			]
		},
		{
			"children":[
				8
			],
			"name":"lydka-l",
			"rotation":[
				-3.8206634037085685e-12,
				-1.3107360263883845e-18,
				1.1635251789821055e-10,
				1
			],
			"translation":[
				8.549067009866462e-11,
				0.6270244121551514,
				-5.400625724405472e-08
			]
		},
		{
			"children":[
				9
			],
			"name":"udo-l",
			"rotation":[
				0.6674326658248901,
				-1.3489578520875511e-07,
				4.091594263400111e-08,
				0.7446701526641846
			],
			"scale":[
				1,
				0.9999998807907104,
				0.9999999403953552
			],
			"translation":[
				1.730882104311604e-10,
				0.7702773809432983,
				3.914465196430683e-08
			]
		},
		{
			"children":[
				10
			],
			"name":"miednica-l",
			"rotation":[
				0.5265612006187439,
				-0.47194617986679077,
				0.5265613794326782,
				0.47194620966911316
			],
			"scale":[
				0.9999999403953552,
				0.9999998807907104,
				0.9999999403953552
			]
		},
		{
			"name":"glowa",
			"translation":[
				0,
				0.7031326293945312,
				0
			]
		},
		{
			"children":[
				12
			],
			"name":"szyja",
			"translation":[
				0,
				0.8959269523620605,
				0
			]
		},
		{
			"name":"palce-p",
			"rotation":[
				6.477162362017452e-09,
				-1.756559129262314e-07,
				-0.00737034622579813,
				0.9999728798866272
			],
			"scale":[
				0.9999999403953552,
				1,
				1
			],
			"translation":[
				-1.9576691556721926e-07,
				0.38583463430404663,
				2.548347310948884e-09
			]
		},
		{
			"children":[
				14
			],
			"name":"dlon-p",
			"rotation":[
				-2.00929117788462e-09,
				4.9417156589015576e-08,
				-0.013430380262434483,
				0.9999098181724548
			],
			"scale":[
				1,
				0.9999999403953552,
				1
			],
			"translation":[
				2.0700099412351847e-09,
				1.1998682022094727,
				1.352333356408053e-08
			]
		},
		{
			"name":"kciuk-p",
			"rotation":[
				0.32091233134269714,
				-0.0008347023976966739,
				-0.02425287663936615,
				0.9467979669570923
			],
			"scale":[
				0.9999999403953552,
				1,
				0.9999999403953552
			],
			"translation":[
				-4.614703357219696e-07,
				0.42380595207214355,
				7.522726974684701e-08
			]
		},
		{
			"children":[
				16
			],
			"name":"palce-kciuk-p",
			"rotation":[
				0.3356979489326477,
				-0.006393450777977705,
				0.005513650830835104,
				0.9419318437576294
			],
			"scale":[
				0.9999998211860657,
				0.9999998807907104,
				0.9999998807907104
			],
			"translation":[
				2.0700099412351847e-09,
				1.1998682022094727,
				1.352333356408053e-08
			]
		},
		{
			"children":[
				15,
				17
			],
			"name":"przedramie-p",
			"rotation":[
				-2.787669872716947e-09,
				-6.006087005516747e-08,
				0.015484368428587914,
				0.9998801350593567
			],
			"translation":[
				5.442961992230266e-07,
				1.1867636442184448,
				1.1887323125847615e-08
			]
		},
		{
			"children":[
				18
			],
			"name":"ramie-p",
			"rotation":[
				1.6266184843516385e-08,
				1.9160964370712463e-08,
				-0.055728729814291,
				0.998445987701416
			],
			"scale":[
				0.9999999403953552,
				0.9999999403953552,
				1
			],
			"translation":[
				1.728767529129982e-08,
				0.9017390608787537,
				8.291181075037457e-10
			]
		},
		{
			"children":[
				19
			],
			"name":"klatka-p",
			"rotation":[
				4.6470908898754715e-08,
				5.974591488211445e-08,
				-0.6732022762298584,
				0.7394583821296692
			],
			"scale":[
				1,
				1.0000001192092896,
				1
			],
			"translation":[
				0,
				0.8959269523620605,
				0
			]
		},
		{
			"name":"palce-l",
			"rotation":[
				-3.766871969901331e-08,
				-6.311509537226812e-08,
				0.007370347157120705,
				0.9999728798866272
			],
			"scale":[
				0.9999999403953552,
				1,
				1
			],
			"translation":[
				1.9419894670136273e-07,
				0.38583484292030334,
				-1.079092726286035e-08
			]
		},
		{
			"children":[
				21
			],
			"name":"dlon-l",
			"rotation":[
				-1.2793470727245904e-09,
				-8.101630299961471e-08,
				0.013430379331111908,
				0.9999098181724548
			],
			"scale":[
				1,
				0.9999999403953552,
				1
			],
			"translation":[
				-1.1065640137530863e-07,
				1.1998679637908936,
				-3.188802111253608e-09
			]
		},
		{
			"name":"kciuk-l",
			"rotation":[
				-0.3202897310256958,
				-0.03566507250070572,
				-0.03143009915947914,
				0.9461261630058289
			],
			"scale":[
				1.0000001192092896,
				1,
				1
			],
			"translation":[
				-7.413327693939209e-07,
				0.4238058924674988,
				-1.4156103134155273e-07
			]
		},
		{
			"children":[
				23
			],
			"name":"dlon-kciuk-l",
			"rotation":[
				0.004717052448540926,
				-0.9412997961044312,
				-0.3357100486755371,
				0.03508907929062843
			],
			"scale":[
				1,
				0.9999999403953552,
				1
			],
			"translation":[
				-1.1065640137530863e-07,
				1.1998679637908936,
				-3.188802111253608e-09
			]
		},
		{
			"children":[
				22,
				24
			],
			"name":"przedramie-l",
			"rotation":[
				6.273283670310548e-09,
				9.35674506763462e-08,
				-0.015484368428587914,
				0.9998801350593567
			],
			"translation":[
				-5.941583367530257e-07,
				1.1867640018463135,
				3.09114511765074e-10
			]
		},
		{
			"children":[
				25
			],
			"name":"ramie-l",
			"rotation":[
				-8.49011616566031e-09,
				-5.0255859918024726e-08,
				0.055728729814291,
				0.998445987701416
			],
			"scale":[
				0.9999999403953552,
				0.9999999403953552,
				1
			],
			"translation":[
				2.5591725716367364e-07,
				0.9017390608787537,
				-1.7914771888172254e-09
			]
		},
		{
			"children":[
				26
			],
			"name":"klatka-l",
			"rotation":[
				-1.1247468023611873e-07,
				1.1508369368584681e-07,
				0.6732022762298584,
				0.7394583821296692
			],
			"scale":[
				1,
				1.0000001192092896,
				1
			],
			"translation":[
				0,
				0.8959269523620605,
				0
			]
		},
		{
			"children":[
				13,
				20,
				27
			],
			"name":"klatka",
			"translation":[
				0,
				1,
				0
			]
		},
		{
			"children":[
				5,
				11,
				28
			],
			"name":"kregoslup",
			"rotation":[
				0,
				-0.016409138217568398,
				0,
				0.9998653531074524
			]
		},
		{
			"mesh":0,
			"name":"Cylinder.004",
			"skin":0
		},
		{
			"mesh":1,
			"name":"Sphere.002",
			"skin":0
		},
		{
			"children":[
				30,
				31,
				29
			],
			"name":"postac",
			"translation":[
				-0.0335005521774292,
				2.0789525508880615,
				0
			]
		}
	],
	"materials":[
		{
			"doubleSided":true,
			"name":"Material.001",
			"pbrMetallicRoughness":{
				"baseColorTexture":{
					"index":0
				},
				"metallicFactor":0,
				"roughnessFactor":0.8409091234207153
			}
		}
	],
	"meshes":[
		{
			"name":"Cylinder.001",
			"primitives":[
				{
					"attributes":{
						"POSITION":0,
						"NORMAL":1,
						"TEXCOORD_0":2,
						"COLOR_0":3,
						"COLOR_1":4,
						"JOINTS_0":5,
						"WEIGHTS_0":6
					},
					"indices":7,
					"material":0
				}
			]
		},
		{
			"name":"Sphere.002",
			"primitives":[
				{
					"attributes":{
						"POSITION":9,
						"NORMAL":10,
						"TEXCOORD_0":11,
						"JOINTS_0":12,
						"WEIGHTS_0":13
					},
					"indices":14,
					"material":0
				}
			]
		}
	],
	"textures":[
		{
			"sampler":0,
			"source":0
		}
	],
	"images":[
		{
			"mimeType":"image/png",
			"name":"klientka2",
			"uri":"klientka2.png"
		}
	],
	"skins":[
		{
			"inverseBindMatrices":8,
			"joints":[
				29,
				5,
				4,
				3,
				2,
				1,
				0,
				11,
				10,
				9,
				8,
				7,
				6,
				28,
				13,
				12,
				20,
				19,
				18,
				15,
				14,
				17,
				16,
				27,
				26,
				25,
				22,
				21,
				24,
				23
			],
			"name":"postac"
		}
	],
	"accessors":[
		{
			"bufferView":0,
			"componentType":5126,
			"count":2642,
			"max":[
				3.9780170917510986,
				10.313277244567871,
				3.09865665435791
			],
			"min":[
				-3.995405912399292,
				0.0711095929145813,
				-2.9430387020111084
			],
			"type":"VEC3"
		},
		{
			"bufferView":1,
			"componentType":5126,
			"count":2642,
			"type":"VEC3"
		},
		{
			"bufferView":2,
			"componentType":5126,
			"count":2642,
			"type":"VEC2"
		},
		{
			"bufferView":3,
			"componentType":5121,
			"count":2642,
			"normalized":true,
			"type":"VEC4"
		},
		{
			"bufferView":4,
			"componentType":5123,
			"count":2642,
			"normalized":true,
			"type":"VEC4"
		},
		{
			"bufferView":5,
			"componentType":5121,
			"count":2642,
			"type":"VEC4"
		},
		{
			"bufferView":6,
			"componentType":5126,
			"count":2642,
			"type":"VEC4"
		},
		{
			"bufferView":7,
			"componentType":5123,
			"count":9756,
			"type":"SCALAR"
		},
		{
			"bufferView":8,
			"componentType":5126,
			"count":30,
			"type":"MAT4"
		},
		{
			"bufferView":9,
			"componentType":5126,
			"count":454,
			"max":[
				3.5834197998046875,
				11.100573539733887,
				3.0859551429748535
			],
			"min":[
				-3.6791434288024902,
				4.155574798583984,
				-3.600276470184326
			],
			"type":"VEC3"
		},
		{
			"bufferView":10,
			"componentType":5126,
			"count":454,
			"type":"VEC3"
		},
		{
			"bufferView":11,
			"componentType":5126,
			"count":454,
			"type":"VEC2"
		},
		{
			"bufferView":12,
			"componentType":5121,
			"count":454,
			"type":"VEC4"
		},
		{
			"bufferView":13,
			"componentType":5126,
			"count":454,
			"type":"VEC4"
		},
		{
			"bufferView":14,
			"componentType":5123,
			"count":1770,
			"type":"SCALAR"
		}
	],
	"bufferViews":[
		{
			"buffer":0,
			"byteLength":31704,
			"byteOffset":0,
			"target":34962
		},
		{
			"buffer":0,
			"byteLength":31704,
			"byteOffset":31704,
			"target":34962
		},
		{
			"buffer":0,
			"byteLength":21136,
			"byteOffset":63408,
			"target":34962
		},
		{
			"buffer":0,
			"byteLength":10568,
			"byteOffset":84544,
			"target":34962
		},
		{
			"buffer":0,
			"byteLength":21136,
			"byteOffset":95112,
			"target":34962
		},
		{
			"buffer":0,
			"byteLength":10568,
			"byteOffset":116248,
			"target":34962
		},
		{
			"buffer":0,
			"byteLength":42272,
			"byteOffset":126816,
			"target":34962
		},
		{
			"buffer":0,
			"byteLength":19512,
			"byteOffset":169088,
			"target":34963
		},
		{
			"buffer":0,
			"byteLength":1920,
			"byteOffset":188600
		},
		{
			"buffer":0,
			"byteLength":5448,
			"byteOffset":190520,
			"target":34962
		},
		{
			"buffer":0,
			"byteLength":5448,
			"byteOffset":195968,
			"target":34962
		},
		{
			"buffer":0,
			"byteLength":3632,
			"byteOffset":201416,
			"target":34962
		},
		{
			"buffer":0,
			"byteLength":1816,
			"byteOffset":205048,
			"target":34962
		},
		{
			"buffer":0,
			"byteLength":7264,
			"byteOffset":206864,
			"target":34962
		},
		{
			"buffer":0,
			"byteLength":3540,
			"byteOffset":214128,
			"target":34963
		}
	],
	"samplers":[
		{
			"magFilter":9729,
			"minFilter":9987
		}
	],
	"buffers":[
		{
			"byteLength":217668,
			"uri":"klientka2.bin"
		}
	]
}
