{
	"asset":{
		"generator":"Khronos glTF Blender I/O v5.1.19",
		"version":"2.0"
	},
	"scene":0,
	"scenes":[
		{
			"name":"Scene",
			"nodes":[
				0,
				1,
				2,
				3
			]
		}
	],
	"nodes":[
		{
			"mesh":0,
			"name":"Plane"
		},
		{
			"mesh":1,
			"name":"Circle"
		},
		{
			"mesh":2,
			"name":"Plane.002",
			"rotation":[
				0,
				0,
				-0.48510316014289856,
				0.8744569420814514
			],
			"scale":[
				0.7006774544715881,
				0.7006774544715881,
				0.7006773352622986
			],
			"translation":[
				0.46906521916389465,
				0.6360116004943848,
				0.7547429203987122
			]
		},
		{
			"mesh":3,
			"name":"Plane.003",
			"rotation":[
				0,
				0,
				-0.48510316014289856,
				0.8744569420814514
			],
			"scale":[
				0.7006774544715881,
				0.7006774544715881,
				0.7006773352622986
			],
			"translation":[
				0.46906521916389465,
				0.6360116004943848,
				0.7547429203987122
			]
		}
	],
	"animations":[
		{
			"channels":[
				{
					"sampler":0,
					"target":{
						"node":2,
						"path":"translation"
					}
				},
				{
					"sampler":1,
					"target":{
						"node":2,
						"path":"rotation"
					}
				},
				{
					"sampler":2,
					"target":{
						"node":2,
						"path":"scale"
					}
				}
			],
			"name":"Plane.002Action",
			"samplers":[
				{
					"input":15,
					"interpolation":"LINEAR",
					"output":16
				},
				{
					"input":15,
					"interpolation":"LINEAR",
					"output":17
				},
				{
					"input":18,
					"interpolation":"STEP",
					"output":19
				}
			]
		},
		{
			"channels":[
				{
					"sampler":0,
					"target":{
						"node":3,
						"path":"translation"
					}
				},
				{
					"sampler":1,
					"target":{
						"node":3,
						"path":"rotation"
					}
				},
				{
					"sampler":2,
					"target":{
						"node":3,
						"path":"scale"
					}
				}
			],
			"name":"Plane.002Action.002",
			"samplers":[
				{
					"input":20,
					"interpolation":"LINEAR",
					"output":21
				},
				{
					"input":20,
					"interpolation":"LINEAR",
					"output":22
				},
				{
					"input":20,
					"interpolation":"LINEAR",
					"output":23
				}
			]
		}
	],
	"materials":[
		{
			"doubleSided":true,
			"name":"Material",
			"pbrMetallicRoughness":{
				"baseColorTexture":{
					"index":0
				},
				"metallicFactor":0,
				"roughnessFactor":0.5
			}
		}
	],
	"meshes":[
		{
			"name":"Plane",
			"primitives":[
				{
					"attributes":{
						"POSITION":0,
						"NORMAL":1,
						"TEXCOORD_0":2
					},
					"indices":3,
					"material":0
				}
			]
		},
		{
			"name":"Circle",
			"primitives":[
				{
					"attributes":{
						"POSITION":4,
						"NORMAL":5,
						"TEXCOORD_0":6
					},
					"indices":7,
					"material":0
				}
			]
		},
		{
			"name":"Plane.002",
			"primitives":[
				{
					"attributes":{
						"POSITION":8,
						"NORMAL":9,
						"TEXCOORD_0":10
					},
					"indices":11
				}
			]
		},
		{
			"name":"Plane.004",
			"primitives":[
				{
					"attributes":{
						"POSITION":12,
						"NORMAL":13,
						"TEXCOORD_0":14
					},
					"indices":11
				}
			]
		}
	],
	"textures":[
		{
			"sampler":0,
			"source":0
		}
	],
	"images":[
		{
			"mimeType":"image/png",
			"name":"palette",
			"uri":"palette.png"
		}
	],
	"accessors":[
		{
			"bufferView":0,
			"componentType":5126,
			"count":48,
			"max":[
				0.8782592415809631,
				1.2761422395706177,
				1.559999942779541
			],
			"min":[
				-0.8514145016670227,
				-0.13876207172870636,
				-6.065479674077778e-09
			],
			"type":"VEC3"
		},
		{
			"bufferView":1,
			"componentType":5126,
			"count":48,
			"type":"VEC3"
		},
		{
			"bufferView":2,
			"componentType":5126,
			"count":48,
			"type":"VEC2"
		},
		{
			"bufferView":3,
			"componentType":5123,
			"count":96,
			"type":"SCALAR"
		},
		{
			"bufferView":4,
			"componentType":5126,
			"count":1632,
			"max":[
				0.16553887724876404,
				1.3601436614990234,
				1.1836163997650146
			],
			"min":[
				-0.16553887724876404,
				1.0290658473968506,
				0.3625591993331909
			],
			"type":"VEC3"
		},
		{
			"bufferView":5,
			"componentType":5126,
			"count":1632,
			"type":"VEC3"
		},
		{
			"bufferView":6,
			"componentType":5126,
			"count":1632,
			"type":"VEC2"
		},
		{
			"bufferView":7,
			"componentType":5123,
			"count":4608,
			"type":"SCALAR"
		},
		{
			"bufferView":8,
			"componentType":5126,
			"count":576,
			"max":[
				1,
				-1.7881393432617188e-07,
				1.0000007152557373
			],
			"min":[
				-1,
				-0.0700005367398262,
				-1.0000007152557373
			],
			"type":"VEC3"
		},
		{
			"bufferView":9,
			"componentType":5126,
			"count":576,
			"type":"VEC3"
		},
		{
			"bufferView":10,
			"componentType":5126,
			"count":576,
			"type":"VEC2"
		},
		{
			"bufferView":11,
			"componentType":5123,
			"count":1140,
			"type":"SCALAR"
		},
		{
			"bufferView":12,
			"componentType":5126,
			"count":576,
			"max":[
				1,
				-1.7881393432617188e-07,
				1.0000007152557373
			],
			"min":[
				-1,
				-0.0700005367398262,
				-1.0000007152557373
			],
			"type":"VEC3"
		},
		{
			"bufferView":13,
			"componentType":5126,
			"count":576,
			"type":"VEC3"
		},
		{
			"bufferView":14,
			"componentType":5126,
			"count":576,
			"type":"VEC2"
		},
		{
			"bufferView":15,
			"componentType":5126,
			"count":40,
			"max":[
				1.6666666666666667
			],
			"min":[
				0.041666666666666664
			],
			"type":"SCALAR"
		},
		{
			"bufferView":16,
			"componentType":5126,
			"count":40,
			"type":"VEC3"
		},
		{
			"bufferView":17,
			"componentType":5126,
			"count":40,
			"type":"VEC4"
		},
		{
			"bufferView":18,
			"componentType":5126,
			"count":2,
			"max":[
				1.6666666666666667
			],
			"min":[
				0.041666666666666664
			],
			"type":"SCALAR"
		},
		{
			"bufferView":19,
			"componentType":5126,
			"count":2,
			"type":"VEC3"
		},
		{
			"bufferView":20,
			"componentType":5126,
			"count":1,
			"max":[
				0.041666666666666664
			],
			"min":[
				0.041666666666666664
			],
			"type":"SCALAR"
		},
		{
			"bufferView":21,
			"componentType":5126,
			"count":1,
			"type":"VEC3"
		},
		{
			"bufferView":22,
			"componentType":5126,
			"count":1,
			"type":"VEC4"
		},
		{
			"bufferView":23,
			"componentType":5126,
			"count":1,
			"type":"VEC3"
		}
	],
	"bufferViews":[
		{
			"buffer":0,
			"byteLength":576,
			"byteOffset":0,
			"target":34962
		},
		{
			"buffer":0,
			"byteLength":576,
			"byteOffset":576,
			"target":34962
		},
		{
			"buffer":0,
			"byteLength":384,
			"byteOffset":1152,
			"target":34962
		},
		{
			"buffer":0,
			"byteLength":192,
			"byteOffset":1536,
			"target":34963
		},
		{
			"buffer":0,
			"byteLength":19584,
			"byteOffset":1728,
			"target":34962
		},
		{
			"buffer":0,
			"byteLength":19584,
			"byteOffset":21312,
			"target":34962
		},
		{
			"buffer":0,
			"byteLength":13056,
			"byteOffset":40896,
			"target":34962
		},
		{
			"buffer":0,
			"byteLength":9216,
			"byteOffset":53952,
			"target":34963
		},
		{
			"buffer":0,
			"byteLength":6912,
			"byteOffset":63168,
			"target":34962
		},
		{
			"buffer":0,
			"byteLength":6912,
			"byteOffset":70080,
			"target":34962
		},
		{
			"buffer":0,
			"byteLength":4608,
			"byteOffset":76992,
			"target":34962
		},
		{
			"buffer":0,
			"byteLength":2280,
			"byteOffset":81600,
			"target":34963
		},
		{
			"buffer":0,
			"byteLength":6912,
			"byteOffset":83880,
			"target":34962
		},
		{
			"buffer":0,
			"byteLength":6912,
			"byteOffset":90792,
			"target":34962
		},
		{
			"buffer":0,
			"byteLength":4608,
			"byteOffset":97704,
			"target":34962
		},
		{
			"buffer":0,
			"byteLength":160,
			"byteOffset":102312
		},
		{
			"buffer":0,
			"byteLength":480,
			"byteOffset":102472
		},
		{
			"buffer":0,
			"byteLength":640,
			"byteOffset":102952
		},
		{
			"buffer":0,
			"byteLength":8,
			"byteOffset":103592
		},
		{
			"buffer":0,
			"byteLength":24,
			"byteOffset":103600
		},
		{
			"buffer":0,
			"byteLength":4,
			"byteOffset":103624
		},
		{
			"buffer":0,
			"byteLength":12,
			"byteOffset":103628
		},
		{
			"buffer":0,
			"byteLength":16,
			"byteOffset":103640
		},
		{
			"buffer":0,
			"byteLength":12,
			"byteOffset":103656
		}
	],
	"samplers":[
		{
			"magFilter":9729,
			"minFilter":9987
		}
	],
	"buffers":[
		{
			"byteLength":103668,
			"uri":"notatnik-anima.bin"
		}
	]
}
