{
	"asset":{
		"generator":"Khronos glTF Blender I/O v4.4.56",
		"version":"2.0"
	},
	"scene":0,
	"scenes":[
		{
			"name":"Scene",
			"nodes":[
				0,
				1,
				2,
				3,
				4
			]
		}
	],
	"nodes":[
		{
			"mesh":0,
			"name":"Plane",
			"rotation":[
				0.7071068286895752,
				0,
				0,
				0.7071068286895752
			]
		},
		{
			"mesh":1,
			"name":"Plane.001",
			"rotation":[
				0,
				0,
				-0.48510316014289856,
				0.8744569420814514
			],
			"scale":[
				0.7006774544715881,
				0.7006774544715881,
				0.7006773352622986
			],
			"translation":[
				0.46906521916389465,
				0.6360116004943848,
				0.7547429203987122
			]
		},
		{
			"mesh":2,
			"name":"Circle",
			"rotation":[
				0.7071068286895752,
				0,
				0,
				0.7071068286895752
			],
			"scale":[
				0.15880432724952698,
				0.15880432724952698,
				0.15880432724952698
			],
			"translation":[
				0,
				1.194604754447937,
				0.40544283390045166
			]
		},
		{
			"mesh":3,
			"name":"Plane.002",
			"rotation":[
				0,
				0,
				-0.48510316014289856,
				0.8744569420814514
			],
			"scale":[
				0.7006774544715881,
				0.7006774544715881,
				0.7006773352622986
			],
			"translation":[
				0.46906521916389465,
				0.6360116004943848,
				0.7547429203987122
			]
		},
		{
			"mesh":4,
			"name":"Plane.003",
			"rotation":[
				0,
				0,
				-0.48510316014289856,
				0.8744569420814514
			],
			"scale":[
				0.7006774544715881,
				0.7006774544715881,
				0.7006773352622986
			],
			"translation":[
				0.46906521916389465,
				0.6360116004943848,
				0.7547429203987122
			]
		}
	],
	"materials":[
		{
			"doubleSided":true,
			"name":"Material",
			"pbrMetallicRoughness":{
				"baseColorTexture":{
					"index":0
				},
				"metallicFactor":0,
				"roughnessFactor":0.5
			}
		}
	],
	"meshes":[
		{
			"name":"Plane",
			"primitives":[
				{
					"attributes":{
						"POSITION":0,
						"NORMAL":1,
						"TEXCOORD_0":2
					},
					"indices":3,
					"material":0
				}
			]
		},
		{
			"name":"Plane.001",
			"primitives":[
				{
					"attributes":{
						"POSITION":4,
						"NORMAL":5,
						"TEXCOORD_0":6
					},
					"indices":7
				}
			]
		},
		{
			"name":"Circle",
			"primitives":[
				{
					"attributes":{
						"POSITION":8,
						"NORMAL":9,
						"TEXCOORD_0":10
					},
					"indices":11,
					"material":0
				}
			]
		},
		{
			"name":"Plane.002",
			"primitives":[
				{
					"attributes":{
						"POSITION":12,
						"NORMAL":13,
						"TEXCOORD_0":14
					},
					"indices":15
				}
			]
		},
		{
			"name":"Plane.004",
			"primitives":[
				{
					"attributes":{
						"POSITION":16,
						"NORMAL":17,
						"TEXCOORD_0":18
					},
					"indices":15
				}
			]
		}
	],
	"textures":[
		{
			"sampler":0,
			"source":0
		}
	],
	"images":[
		{
			"mimeType": "image/png",
			"name": "palette",
			"uri": "../../../textures/palette.png"
		}
	],
	"accessors":[
		{
			"bufferView":0,
			"componentType":5126,
			"count":48,
			"max":[
				0.8782592415809631,
				1.559999942779541,
				0.1387619972229004
			],
			"min":[
				-0.8514145016670227,
				-5.508037581591907e-09,
				-1.2761422395706177
			],
			"type":"VEC3"
		},
		{
			"bufferView":1,
			"componentType":5126,
			"count":48,
			"type":"VEC3"
		},
		{
			"bufferView":2,
			"componentType":5126,
			"count":48,
			"type":"VEC2"
		},
		{
			"bufferView":3,
			"componentType":5123,
			"count":96,
			"type":"SCALAR"
		},
		{
			"bufferView":4,
			"componentType":5126,
			"count":24,
			"max":[
				1,
				0,
				1
			],
			"min":[
				-1,
				-0.07000000029802322,
				-1
			],
			"type":"VEC3"
		},
		{
			"bufferView":5,
			"componentType":5126,
			"count":24,
			"type":"VEC3"
		},
		{
			"bufferView":6,
			"componentType":5126,
			"count":24,
			"type":"VEC2"
		},
		{
			"bufferView":7,
			"componentType":5123,
			"count":36,
			"type":"SCALAR"
		},
		{
			"bufferView":8,
			"componentType":5126,
			"count":1632,
			"max":[
				1.0424078702926636,
				4.900203704833984,
				1.0424078702926636
			],
			"min":[
				-1.0424078702926636,
				-0.27004075050354004,
				-1.0424078702926636
			],
			"type":"VEC3"
		},
		{
			"bufferView":9,
			"componentType":5126,
			"count":1632,
			"type":"VEC3"
		},
		{
			"bufferView":10,
			"componentType":5126,
			"count":1632,
			"type":"VEC2"
		},
		{
			"bufferView":11,
			"componentType":5123,
			"count":4608,
			"type":"SCALAR"
		},
		{
			"bufferView":12,
			"componentType":5126,
			"count":576,
			"max":[
				1,
				-1.7881393432617188e-07,
				1.0000007152557373
			],
			"min":[
				-1,
				-0.0700005367398262,
				-1.0000007152557373
			],
			"type":"VEC3"
		},
		{
			"bufferView":13,
			"componentType":5126,
			"count":576,
			"type":"VEC3"
		},
		{
			"bufferView":14,
			"componentType":5126,
			"count":576,
			"type":"VEC2"
		},
		{
			"bufferView":15,
			"componentType":5123,
			"count":1140,
			"type":"SCALAR"
		},
		{
			"bufferView":16,
			"componentType":5126,
			"count":576,
			"max":[
				1,
				-1.7881393432617188e-07,
				1.0000007152557373
			],
			"min":[
				-1,
				-0.0700005367398262,
				-1.0000007152557373
			],
			"type":"VEC3"
		},
		{
			"bufferView":17,
			"componentType":5126,
			"count":576,
			"type":"VEC3"
		},
		{
			"bufferView":18,
			"componentType":5126,
			"count":576,
			"type":"VEC2"
		}
	],
	"bufferViews":[
		{
			"buffer":0,
			"byteLength":576,
			"byteOffset":0,
			"target":34962
		},
		{
			"buffer":0,
			"byteLength":576,
			"byteOffset":576,
			"target":34962
		},
		{
			"buffer":0,
			"byteLength":384,
			"byteOffset":1152,
			"target":34962
		},
		{
			"buffer":0,
			"byteLength":192,
			"byteOffset":1536,
			"target":34963
		},
		{
			"buffer":0,
			"byteLength":288,
			"byteOffset":1728,
			"target":34962
		},
		{
			"buffer":0,
			"byteLength":288,
			"byteOffset":2016,
			"target":34962
		},
		{
			"buffer":0,
			"byteLength":192,
			"byteOffset":2304,
			"target":34962
		},
		{
			"buffer":0,
			"byteLength":72,
			"byteOffset":2496,
			"target":34963
		},
		{
			"buffer":0,
			"byteLength":19584,
			"byteOffset":2568,
			"target":34962
		},
		{
			"buffer":0,
			"byteLength":19584,
			"byteOffset":22152,
			"target":34962
		},
		{
			"buffer":0,
			"byteLength":13056,
			"byteOffset":41736,
			"target":34962
		},
		{
			"buffer":0,
			"byteLength":9216,
			"byteOffset":54792,
			"target":34963
		},
		{
			"buffer":0,
			"byteLength":6912,
			"byteOffset":64008,
			"target":34962
		},
		{
			"buffer":0,
			"byteLength":6912,
			"byteOffset":70920,
			"target":34962
		},
		{
			"buffer":0,
			"byteLength":4608,
			"byteOffset":77832,
			"target":34962
		},
		{
			"buffer":0,
			"byteLength":2280,
			"byteOffset":82440,
			"target":34963
		},
		{
			"buffer":0,
			"byteLength":6912,
			"byteOffset":84720,
			"target":34962
		},
		{
			"buffer":0,
			"byteLength":6912,
			"byteOffset":91632,
			"target":34962
		},
		{
			"buffer":0,
			"byteLength":4608,
			"byteOffset":98544,
			"target":34962
		}
	],
	"samplers":[
		{
			"magFilter":9729,
			"minFilter":9987
		}
	],
	"buffers":[
		{
			"byteLength":103152,
			"uri":"notatnik.bin"
		}
	]
}
