{
	"asset":{
		"generator":"Khronos glTF Blender I/O v5.1.19",
		"version":"2.0"
	},
	"scene":0,
	"scenes":[
		{
			"name":"Scene",
			"nodes":[
				0,
				1,
				2,
				3,
				4
			]
		}
	],
	"nodes":[
		{
			"mesh":0,
			"name":"Cylinder"
		},
		{
			"mesh":1,
			"name":"Cylinder.001"
		},
		{
			"mesh":2,
			"name":"Cylinder.002"
		},
		{
			"mesh":3,
			"name":"Sphere.002"
		},
		{
			"mesh":4,
			"name":"Cylinder.003"
		}
	],
	"materials":[
		{
			"doubleSided":true,
			"name":"Material.001",
			"pbrMetallicRoughness":{
				"baseColorTexture":{
					"index":0
				},
				"metallicFactor":0,
				"roughnessFactor":0.5
			}
		}
	],
	"meshes":[
		{
			"name":"Cylinder",
			"primitives":[
				{
					"attributes":{
						"POSITION":0,
						"NORMAL":1,
						"TEXCOORD_0":2
					},
					"indices":3,
					"material":0
				}
			]
		},
		{
			"name":"Cylinder.001",
			"primitives":[
				{
					"attributes":{
						"POSITION":4,
						"NORMAL":5,
						"TEXCOORD_0":6
					},
					"indices":7,
					"material":0
				}
			]
		},
		{
			"name":"Cylinder.002",
			"primitives":[
				{
					"attributes":{
						"POSITION":8,
						"NORMAL":9,
						"TEXCOORD_0":10
					},
					"indices":11,
					"material":0
				}
			]
		},
		{
			"name":"Sphere.002",
			"primitives":[
				{
					"attributes":{
						"POSITION":12,
						"NORMAL":13,
						"TEXCOORD_0":14
					},
					"indices":15,
					"material":0
				}
			]
		},
		{
			"name":"Cylinder.003",
			"primitives":[
				{
					"attributes":{
						"POSITION":16,
						"NORMAL":17,
						"TEXCOORD_0":18
					},
					"indices":19,
					"material":0
				}
			]
		}
	],
	"textures":[
		{
			"sampler":0,
			"source":0
		}
	],
	"images":[
		{
			"mimeType": "image/png",
			"name": "palette",
			"uri": "../../../textures/palette.png"
		}
	],
	"accessors":[
		{
			"bufferView":0,
			"componentType":5126,
			"count":544,
			"max":[
				0.6980624794960022,
				1.3464016914367676,
				0.7047061920166016
			],
			"min":[
				-0.670735776424408,
				0.0055901408195495605,
				-0.6511987447738647
			],
			"type":"VEC3"
		},
		{
			"bufferView":1,
			"componentType":5126,
			"count":544,
			"type":"VEC3"
		},
		{
			"bufferView":2,
			"componentType":5126,
			"count":544,
			"type":"VEC2"
		},
		{
			"bufferView":3,
			"componentType":5123,
			"count":1524,
			"type":"SCALAR"
		},
		{
			"bufferView":4,
			"componentType":5126,
			"count":312,
			"max":[
				0.6316916346549988,
				1.6880820989608765,
				0.6362951397895813
			],
			"min":[
				-0.6022812724113464,
				0.12335765361785889,
				-0.5998995900154114
			],
			"type":"VEC3"
		},
		{
			"bufferView":5,
			"componentType":5126,
			"count":312,
			"type":"VEC3"
		},
		{
			"bufferView":6,
			"componentType":5126,
			"count":312,
			"type":"VEC2"
		},
		{
			"bufferView":7,
			"componentType":5123,
			"count":1332,
			"type":"SCALAR"
		},
		{
			"bufferView":8,
			"componentType":5126,
			"count":192,
			"max":[
				0.07436587661504745,
				2.2151060104370117,
				0.0815570205450058
			],
			"min":[
				-0.044190727174282074,
				1.4976372718811035,
				-0.03699958324432373
			],
			"type":"VEC3"
		},
		{
			"bufferView":9,
			"componentType":5126,
			"count":192,
			"type":"VEC3"
		},
		{
			"bufferView":10,
			"componentType":5126,
			"count":192,
			"type":"VEC2"
		},
		{
			"bufferView":11,
			"componentType":5123,
			"count":372,
			"type":"SCALAR"
		},
		{
			"bufferView":12,
			"componentType":5126,
			"count":568,
			"max":[
				0.20366159081459045,
				1.9565147161483765,
				0.523216724395752
			],
			"min":[
				-0.2842329144477844,
				1.5219929218292236,
				0.032509297132492065
			],
			"type":"VEC3"
		},
		{
			"bufferView":13,
			"componentType":5126,
			"count":568,
			"type":"VEC3"
		},
		{
			"bufferView":14,
			"componentType":5126,
			"count":568,
			"type":"VEC2"
		},
		{
			"bufferView":15,
			"componentType":5123,
			"count":2784,
			"type":"SCALAR"
		},
		{
			"bufferView":16,
			"componentType":5126,
			"count":383,
			"max":[
				-0.01300773024559021,
				2.026346445083618,
				0.3628085255622864
			],
			"min":[
				-0.10171407461166382,
				1.7178890705108643,
				0.2553567886352539
			],
			"type":"VEC3"
		},
		{
			"bufferView":17,
			"componentType":5126,
			"count":383,
			"type":"VEC3"
		},
		{
			"bufferView":18,
			"componentType":5126,
			"count":383,
			"type":"VEC2"
		},
		{
			"bufferView":19,
			"componentType":5123,
			"count":1350,
			"type":"SCALAR"
		}
	],
	"bufferViews":[
		{
			"buffer":0,
			"byteLength":6528,
			"byteOffset":0,
			"target":34962
		},
		{
			"buffer":0,
			"byteLength":6528,
			"byteOffset":6528,
			"target":34962
		},
		{
			"buffer":0,
			"byteLength":4352,
			"byteOffset":13056,
			"target":34962
		},
		{
			"buffer":0,
			"byteLength":3048,
			"byteOffset":17408,
			"target":34963
		},
		{
			"buffer":0,
			"byteLength":3744,
			"byteOffset":20456,
			"target":34962
		},
		{
			"buffer":0,
			"byteLength":3744,
			"byteOffset":24200,
			"target":34962
		},
		{
			"buffer":0,
			"byteLength":2496,
			"byteOffset":27944,
			"target":34962
		},
		{
			"buffer":0,
			"byteLength":2664,
			"byteOffset":30440,
			"target":34963
		},
		{
			"buffer":0,
			"byteLength":2304,
			"byteOffset":33104,
			"target":34962
		},
		{
			"buffer":0,
			"byteLength":2304,
			"byteOffset":35408,
			"target":34962
		},
		{
			"buffer":0,
			"byteLength":1536,
			"byteOffset":37712,
			"target":34962
		},
		{
			"buffer":0,
			"byteLength":744,
			"byteOffset":39248,
			"target":34963
		},
		{
			"buffer":0,
			"byteLength":6816,
			"byteOffset":39992,
			"target":34962
		},
		{
			"buffer":0,
			"byteLength":6816,
			"byteOffset":46808,
			"target":34962
		},
		{
			"buffer":0,
			"byteLength":4544,
			"byteOffset":53624,
			"target":34962
		},
		{
			"buffer":0,
			"byteLength":5568,
			"byteOffset":58168,
			"target":34963
		},
		{
			"buffer":0,
			"byteLength":4596,
			"byteOffset":63736,
			"target":34962
		},
		{
			"buffer":0,
			"byteLength":4596,
			"byteOffset":68332,
			"target":34962
		},
		{
			"buffer":0,
			"byteLength":3064,
			"byteOffset":72928,
			"target":34962
		},
		{
			"buffer":0,
			"byteLength":2700,
			"byteOffset":75992,
			"target":34963
		}
	],
	"samplers":[
		{
			"magFilter":9729,
			"minFilter":9987
		}
	],
	"buffers":[
		{
			"byteLength":78692,
			"uri":"shake-jablko.bin"
		}
	]
}
