{
	"asset":{
		"generator":"Khronos glTF Blender I/O v5.1.19",
		"version":"2.0"
	},
	"scene":0,
	"scenes":[
		{
			"name":"Scene",
			"nodes":[
				18
			]
		}
	],
	"nodes":[
		{
			"name":"taca",
			"rotation":[
				-1.6696036220231747e-10,
				9.47668041817451e-08,
				-0.007393853273242712,
				0.9999727010726929
			],
			"translation":[
				-9.313225746154785e-09,
				0.2723177671432495,
				-7.46922758493025e-16
			]
		},
		{
			"children":[
				0
			],
			"name":"reka-p",
			"rotation":[
				1.4781262325236355e-10,
				-8.053022781950858e-08,
				0.004014520440250635,
				0.9999919533729553
			],
			"translation":[
				-1.4901161193847656e-08,
				0.3771646320819855,
				0
			]
		},
		{
			"children":[
				1
			],
			"name":"klatka-p",
			"rotation":[
				1.5454309831852697e-08,
				1.5454309831852697e-08,
				-0.7071067690849304,
				0.7071067690849304
			],
			"scale":[
				0.9999999403953552,
				0.9999999403953552,
				1
			],
			"translation":[
				0,
				0.19190877676010132,
				0
			]
		},
		{
			"name":"kapelusz",
			"translation":[
				0,
				0.44837749004364014,
				0
			]
		},
		{
			"children":[
				3
			],
			"name":"gora",
			"translation":[
				0,
				0.19190877676010132,
				0
			]
		},
		{
			"name":"reka-l",
			"rotation":[
				4.764560328305439e-22,
				5.962448312857305e-09,
				3.552714525833448e-15,
				1
			],
			"translation":[
				0,
				0.3771646022796631,
				-2.9802322387695312e-08
			]
		},
		{
			"children":[
				5
			],
			"name":"klatka-l",
			"rotation":[
				0.5000000596046448,
				-0.5,
				0.5,
				0.5
			],
			"scale":[
				0.9999998807907104,
				0.9999997615814209,
				0.9999999403953552
			],
			"translation":[
				0,
				0.19190876185894012,
				0
			]
		},
		{
			"children":[
				2,
				4,
				6
			],
			"name":"glowna"
		},
		{
			"name":"noga-p",
			"rotation":[
				-0.3151664733886719,
				1.011515493587467e-07,
				-7.576297633704598e-08,
				0.9490364193916321
			],
			"scale":[
				1,
				1,
				1.0000001192092896
			],
			"translation":[
				0,
				0.21892961859703064,
				0
			]
		},
		{
			"children":[
				8
			],
			"name":"miednica-p",
			"rotation":[
				-0.585974931716919,
				-0.3957692086696625,
				-0.5859750509262085,
				0.39576929807662964
			]
		},
		{
			"name":"noga-l",
			"rotation":[
				0.31516656279563904,
				2.7714006023416005e-07,
				5.925697976749689e-08,
				0.9490363597869873
			],
			"translation":[
				0,
				0.21892961859703064,
				0
			]
		},
		{
			"children":[
				10
			],
			"name":"miednica-l",
			"rotation":[
				0.5859749913215637,
				-0.3957693576812744,
				0.5859750509262085,
				0.39576929807662964
			],
			"scale":[
				1,
				1.000000238418579,
				0.9999999403953552
			]
		},
		{
			"mesh":0,
			"name":"brwi.001",
			"skin":0
		},
		{
			"mesh":1,
			"name":"Cube.001",
			"skin":0
		},
		{
			"mesh":2,
			"name":"Sphere.003",
			"skin":0
		},
		{
			"mesh":3,
			"name":"Sphere.004",
			"skin":0
		},
		{
			"mesh":4,
			"name":"Sphere.005",
			"skin":0
		},
		{
			"mesh":5,
			"name":"usta.001",
			"skin":0
		},
		{
			"children":[
				12,
				13,
				14,
				15,
				16,
				17,
				7,
				9,
				11
			],
			"name":"Armature.002"
		}
	],
	"materials":[
		{
			"doubleSided":true,
			"emissiveFactor":[
				0.19999980926513672,
				0.19999980926513672,
				0.19999980926513672
			],
			"emissiveTexture":{
				"index":0
			},
			"name":"Material.003",
			"pbrMetallicRoughness":{
				"baseColorTexture":{
					"index":1
				},
				"metallicFactor":0,
				"roughnessFactor":0.5
			}
		},
		{
			"doubleSided":true,
			"emissiveFactor":[
				0.19999980926513672,
				0.19999980926513672,
				0.19999980926513672
			],
			"emissiveTexture":{
				"index":0,
				"texCoord":1
			},
			"name":"Material.003",
			"pbrMetallicRoughness":{
				"baseColorTexture":{
					"index":1
				},
				"metallicFactor":0,
				"roughnessFactor":0.5
			}
		}
	],
	"meshes":[
		{
			"name":"Sphere.006",
			"primitives":[
				{
					"attributes":{
						"POSITION":0,
						"NORMAL":1,
						"TEXCOORD_0":2,
						"JOINTS_0":3,
						"WEIGHTS_0":4
					},
					"indices":5,
					"material":0
				}
			]
		},
		{
			"name":"Cube.003",
			"primitives":[
				{
					"attributes":{
						"POSITION":7,
						"NORMAL":8,
						"TEXCOORD_0":9,
						"TEXCOORD_1":10,
						"JOINTS_0":11,
						"WEIGHTS_0":12
					},
					"indices":13,
					"material":1
				}
			]
		},
		{
			"name":"Sphere.003",
			"primitives":[
				{
					"attributes":{
						"POSITION":14,
						"NORMAL":15,
						"TEXCOORD_0":16,
						"JOINTS_0":17,
						"WEIGHTS_0":18
					},
					"indices":19,
					"material":0
				}
			]
		},
		{
			"name":"Sphere.004",
			"primitives":[
				{
					"attributes":{
						"POSITION":20,
						"NORMAL":21,
						"TEXCOORD_0":22,
						"JOINTS_0":23,
						"WEIGHTS_0":24
					},
					"indices":19,
					"material":0
				}
			]
		},
		{
			"name":"Sphere.005",
			"primitives":[
				{
					"attributes":{
						"POSITION":25,
						"NORMAL":26,
						"TEXCOORD_0":27,
						"JOINTS_0":28,
						"WEIGHTS_0":29
					},
					"indices":30,
					"material":0
				}
			]
		},
		{
			"name":"Cube.001",
			"primitives":[
				{
					"attributes":{
						"POSITION":31,
						"NORMAL":32,
						"TEXCOORD_0":33,
						"COLOR_0":34,
						"COLOR_1":35,
						"JOINTS_0":36,
						"WEIGHTS_0":37
					},
					"indices":38,
					"material":0
				}
			]
		}
	],
	"textures":[
		{
			"sampler":0,
			"source":0
		},
		{
			"sampler":0,
			"source":1
		}
	],
	"images":[
		{
			"mimeType":"image/png",
			"name":"detal",
			"uri":"detal.png"
		},
		{
			"mimeType":"image/png",
			"name":"palette",
			"uri": "../../../textures/palette.png"
		}
	],
	"skins":[
		{
			"inverseBindMatrices":6,
			"joints":[
				7,
				2,
				1,
				0,
				4,
				3,
				6,
				5,
				9,
				8,
				11,
				10
			],
			"name":"Armature.002"
		}
	],
	"accessors":[
		{
			"bufferView":0,
			"componentType":5126,
			"count":3968,
			"max":[
				0.18542872369289398,
				0.2864695191383362,
				0.28850290179252625
			],
			"min":[
				-0.19871258735656738,
				0.23926995694637299,
				0.21778082847595215
			],
			"type":"VEC3"
		},
		{
			"bufferView":1,
			"componentType":5126,
			"count":3968,
			"type":"VEC3"
		},
		{
			"bufferView":2,
			"componentType":5126,
			"count":3968,
			"type":"VEC2"
		},
		{
			"bufferView":3,
			"componentType":5121,
			"count":3968,
			"type":"VEC4"
		},
		{
			"bufferView":4,
			"componentType":5126,
			"count":3968,
			"type":"VEC4"
		},
		{
			"bufferView":5,
			"componentType":5123,
			"count":5760,
			"type":"SCALAR"
		},
		{
			"bufferView":6,
			"componentType":5126,
			"count":12,
			"type":"MAT4"
		},
		{
			"bufferView":7,
			"componentType":5126,
			"count":1364,
			"max":[
				0.8489122986793518,
				1.568042516708374,
				0.7744036912918091
			],
			"min":[
				-0.8694551587104797,
				-0.132463738322258,
				-0.7744038105010986
			],
			"type":"VEC3"
		},
		{
			"bufferView":8,
			"componentType":5126,
			"count":1364,
			"type":"VEC3"
		},
		{
			"bufferView":9,
			"componentType":5126,
			"count":1364,
			"type":"VEC2"
		},
		{
			"bufferView":10,
			"componentType":5126,
			"count":1364,
			"type":"VEC2"
		},
		{
			"bufferView":11,
			"componentType":5121,
			"count":1364,
			"type":"VEC4"
		},
		{
			"bufferView":12,
			"componentType":5126,
			"count":1364,
			"type":"VEC4"
		},
		{
			"bufferView":13,
			"componentType":5123,
			"count":6240,
			"type":"SCALAR"
		},
		{
			"bufferView":14,
			"componentType":5126,
			"count":1192,
			"max":[
				0.6897274255752563,
				0.28101852536201477,
				0.08301100134849548
			],
			"min":[
				-0.6776880621910095,
				0.10266905277967453,
				-0.08760157227516174
			],
			"type":"VEC3"
		},
		{
			"bufferView":15,
			"componentType":5126,
			"count":1192,
			"type":"VEC3"
		},
		{
			"bufferView":16,
			"componentType":5126,
			"count":1192,
			"type":"VEC2"
		},
		{
			"bufferView":17,
			"componentType":5121,
			"count":1192,
			"type":"VEC4"
		},
		{
			"bufferView":18,
			"componentType":5126,
			"count":1192,
			"type":"VEC4"
		},
		{
			"bufferView":19,
			"componentType":5123,
			"count":5760,
			"type":"SCALAR"
		},
		{
			"bufferView":20,
			"componentType":5126,
			"count":1192,
			"max":[
				0.3916422724723816,
				-0.03897516429424286,
				0.07785259932279587
			],
			"min":[
				-0.37960296869277954,
				-0.3563568592071533,
				-0.08244316279888153
			],
			"type":"VEC3"
		},
		{
			"bufferView":21,
			"componentType":5126,
			"count":1192,
			"type":"VEC3"
		},
		{
			"bufferView":22,
			"componentType":5126,
			"count":1192,
			"type":"VEC2"
		},
		{
			"bufferView":23,
			"componentType":5121,
			"count":1192,
			"type":"VEC4"
		},
		{
			"bufferView":24,
			"componentType":5126,
			"count":1192,
			"type":"VEC4"
		},
		{
			"bufferView":25,
			"componentType":5126,
			"count":1208,
			"max":[
				0.15214942395687103,
				0.22244906425476074,
				0.32407987117767334
			],
			"min":[
				-0.1651977300643921,
				0.15385600924491882,
				0.2554868161678314
			],
			"type":"VEC3"
		},
		{
			"bufferView":26,
			"componentType":5126,
			"count":1208,
			"type":"VEC3"
		},
		{
			"bufferView":27,
			"componentType":5126,
			"count":1208,
			"type":"VEC2"
		},
		{
			"bufferView":28,
			"componentType":5121,
			"count":1208,
			"type":"VEC4"
		},
		{
			"bufferView":29,
			"componentType":5126,
			"count":1208,
			"type":"VEC4"
		},
		{
			"bufferView":30,
			"componentType":5123,
			"count":5760,
			"type":"SCALAR"
		},
		{
			"bufferView":31,
			"componentType":5126,
			"count":253,
			"max":[
				0.04926368594169617,
				0.15324589610099792,
				0.3237393796443939
			],
			"min":[
				-0.04785105958580971,
				0.13468651473522186,
				0.31373870372772217
			],
			"type":"VEC3"
		},
		{
			"bufferView":32,
			"componentType":5126,
			"count":253,
			"type":"VEC3"
		},
		{
			"bufferView":33,
			"componentType":5126,
			"count":253,
			"type":"VEC2"
		},
		{
			"bufferView":34,
			"componentType":5121,
			"count":253,
			"normalized":true,
			"type":"VEC4"
		},
		{
			"bufferView":35,
			"componentType":5123,
			"count":253,
			"normalized":true,
			"type":"VEC4"
		},
		{
			"bufferView":36,
			"componentType":5121,
			"count":253,
			"type":"VEC4"
		},
		{
			"bufferView":37,
			"componentType":5126,
			"count":253,
			"type":"VEC4"
		},
		{
			"bufferView":38,
			"componentType":5123,
			"count":834,
			"type":"SCALAR"
		}
	],
	"bufferViews":[
		{
			"buffer":0,
			"byteLength":47616,
			"byteOffset":0,
			"target":34962
		},
		{
			"buffer":0,
			"byteLength":47616,
			"byteOffset":47616,
			"target":34962
		},
		{
			"buffer":0,
			"byteLength":31744,
			"byteOffset":95232,
			"target":34962
		},
		{
			"buffer":0,
			"byteLength":15872,
			"byteOffset":126976,
			"target":34962
		},
		{
			"buffer":0,
			"byteLength":63488,
			"byteOffset":142848,
			"target":34962
		},
		{
			"buffer":0,
			"byteLength":11520,
			"byteOffset":206336,
			"target":34963
		},
		{
			"buffer":0,
			"byteLength":768,
			"byteOffset":217856
		},
		{
			"buffer":0,
			"byteLength":16368,
			"byteOffset":218624,
			"target":34962
		},
		{
			"buffer":0,
			"byteLength":16368,
			"byteOffset":234992,
			"target":34962
		},
		{
			"buffer":0,
			"byteLength":10912,
			"byteOffset":251360,
			"target":34962
		},
		{
			"buffer":0,
			"byteLength":10912,
			"byteOffset":262272,
			"target":34962
		},
		{
			"buffer":0,
			"byteLength":5456,
			"byteOffset":273184,
			"target":34962
		},
		{
			"buffer":0,
			"byteLength":21824,
			"byteOffset":278640,
			"target":34962
		},
		{
			"buffer":0,
			"byteLength":12480,
			"byteOffset":300464,
			"target":34963
		},
		{
			"buffer":0,
			"byteLength":14304,
			"byteOffset":312944,
			"target":34962
		},
		{
			"buffer":0,
			"byteLength":14304,
			"byteOffset":327248,
			"target":34962
		},
		{
			"buffer":0,
			"byteLength":9536,
			"byteOffset":341552,
			"target":34962
		},
		{
			"buffer":0,
			"byteLength":4768,
			"byteOffset":351088,
			"target":34962
		},
		{
			"buffer":0,
			"byteLength":19072,
			"byteOffset":355856,
			"target":34962
		},
		{
			"buffer":0,
			"byteLength":11520,
			"byteOffset":374928,
			"target":34963
		},
		{
			"buffer":0,
			"byteLength":14304,
			"byteOffset":386448,
			"target":34962
		},
		{
			"buffer":0,
			"byteLength":14304,
			"byteOffset":400752,
			"target":34962
		},
		{
			"buffer":0,
			"byteLength":9536,
			"byteOffset":415056,
			"target":34962
		},
		{
			"buffer":0,
			"byteLength":4768,
			"byteOffset":424592,
			"target":34962
		},
		{
			"buffer":0,
			"byteLength":19072,
			"byteOffset":429360,
			"target":34962
		},
		{
			"buffer":0,
			"byteLength":14496,
			"byteOffset":448432,
			"target":34962
		},
		{
			"buffer":0,
			"byteLength":14496,
			"byteOffset":462928,
			"target":34962
		},
		{
			"buffer":0,
			"byteLength":9664,
			"byteOffset":477424,
			"target":34962
		},
		{
			"buffer":0,
			"byteLength":4832,
			"byteOffset":487088,
			"target":34962
		},
		{
			"buffer":0,
			"byteLength":19328,
			"byteOffset":491920,
			"target":34962
		},
		{
			"buffer":0,
			"byteLength":11520,
			"byteOffset":511248,
			"target":34963
		},
		{
			"buffer":0,
			"byteLength":3036,
			"byteOffset":522768,
			"target":34962
		},
		{
			"buffer":0,
			"byteLength":3036,
			"byteOffset":525804,
			"target":34962
		},
		{
			"buffer":0,
			"byteLength":2024,
			"byteOffset":528840,
			"target":34962
		},
		{
			"buffer":0,
			"byteLength":1012,
			"byteOffset":530864,
			"target":34962
		},
		{
			"buffer":0,
			"byteLength":2024,
			"byteOffset":531876,
			"target":34962
		},
		{
			"buffer":0,
			"byteLength":1012,
			"byteOffset":533900,
			"target":34962
		},
		{
			"buffer":0,
			"byteLength":4048,
			"byteOffset":534912,
			"target":34962
		},
		{
			"buffer":0,
			"byteLength":1668,
			"byteOffset":538960,
			"target":34963
		}
	],
	"samplers":[
		{
			"magFilter":9729,
			"minFilter":9987
		}
	],
	"buffers":[
		{
			"byteLength":540628,
			"uri":"grzybek.bin"
		}
	]
}
