{
	"asset":{
		"generator":"Khronos glTF Blender I/O v5.1.19",
		"version":"2.0"
	},
	"scene":0,
	"scenes":[
		{
			"name":"Scene",
			"nodes":[
				0
			]
		}
	],
	"nodes":[
		{
			"mesh":0,
			"name":"Plane"
		}
	],
	"materials":[
		{
			"doubleSided":true,
			"name":"Material.001",
			"pbrMetallicRoughness":{
				"baseColorTexture":{
					"index":0
				},
				"metallicFactor":0,
				"roughnessFactor":0.5
			}
		}
	],
	"meshes":[
		{
			"name":"Plane.001",
			"primitives":[
				{
					"attributes":{
						"POSITION":0,
						"NORMAL":1,
						"TEXCOORD_0":2
					},
					"indices":3,
					"material":0
				}
			]
		}
	],
	"textures":[
		{
			"sampler":0,
			"source":0
		}
	],
	"images":[
		{
			"mimeType":"image/png",
			"name":"palette",
			"uri": "../../../textures/palette.png"
		}
	],
	"accessors":[
		{
			"bufferView":0,
			"componentType":5126,
			"count":573,
			"max":[
				0.08464283496141434,
				0.08646693825721741,
				0.08189991861581802
			],
			"min":[
				-0.07915698736906052,
				-0.008884243667125702,
				-0.08189990371465683
			],
			"type":"VEC3"
		},
		{
			"bufferView":1,
			"componentType":5126,
			"count":573,
			"type":"VEC3"
		},
		{
			"bufferView":2,
			"componentType":5126,
			"count":573,
			"type":"VEC2"
		},
		{
			"bufferView":3,
			"componentType":5123,
			"count":2178,
			"type":"SCALAR"
		}
	],
	"bufferViews":[
		{
			"buffer":0,
			"byteLength":6876,
			"byteOffset":0,
			"target":34962
		},
		{
			"buffer":0,
			"byteLength":6876,
			"byteOffset":6876,
			"target":34962
		},
		{
			"buffer":0,
			"byteLength":4584,
			"byteOffset":13752,
			"target":34962
		},
		{
			"buffer":0,
			"byteLength":4356,
			"byteOffset":18336,
			"target":34963
		}
	],
	"samplers":[
		{
			"magFilter":9729,
			"minFilter":9987
		}
	],
	"buffers":[
		{
			"byteLength":22692,
			"uri":"ciasto-babeczka.bin"
		}
	]
}
