{
	"asset":{
		"generator":"Khronos glTF Blender I/O v5.1.19",
		"version":"2.0"
	},
	"scene":0,
	"scenes":[
		{
			"name":"Scene",
			"nodes":[
				0,
				1,
				2,
				3,
				4
			]
		}
	],
	"nodes":[
		{
			"mesh":0,
			"name":"Sphere.009"
		},
		{
			"mesh":1,
			"name":"Sphere.010"
		},
		{
			"mesh":2,
			"name":"Sphere.011"
		},
		{
			"mesh":3,
			"name":"Sphere.012"
		},
		{
			"mesh":4,
			"name":"Sphere.001"
		}
	],
	"materials":[
		{
			"doubleSided":true,
			"name":"Material",
			"pbrMetallicRoughness":{
				"baseColorTexture":{
					"index":0
				},
				"metallicFactor":0,
				"roughnessFactor":0.5
			}
		}
	],
	"meshes":[
		{
			"name":"Sphere",
			"primitives":[
				{
					"attributes":{
						"POSITION":0,
						"NORMAL":1,
						"TEXCOORD_0":2
					},
					"indices":3,
					"material":0
				}
			]
		},
		{
			"name":"Sphere.001",
			"primitives":[
				{
					"attributes":{
						"POSITION":4,
						"NORMAL":5,
						"TEXCOORD_0":6
					},
					"indices":7,
					"material":0
				}
			]
		},
		{
			"name":"Sphere.011",
			"primitives":[
				{
					"attributes":{
						"POSITION":8,
						"NORMAL":9,
						"TEXCOORD_0":10
					},
					"indices":7,
					"material":0
				}
			]
		},
		{
			"name":"Sphere.012",
			"primitives":[
				{
					"attributes":{
						"POSITION":11,
						"NORMAL":12,
						"TEXCOORD_0":13
					},
					"indices":14,
					"material":0
				}
			]
		},
		{
			"name":"Sphere.013",
			"primitives":[
				{
					"attributes":{
						"POSITION":15,
						"NORMAL":16,
						"TEXCOORD_0":17
					},
					"indices":18,
					"material":0
				}
			]
		}
	],
	"textures":[
		{
			"sampler":0,
			"source":0
		}
	],
	"images":[
		{
			"mimeType":"image/png",
			"name":"palette",
			"uri": "../../../textures/palette.png"
		}
	],
	"accessors":[
		{
			"bufferView":0,
			"componentType":5126,
			"count":596,
			"max":[
				0.07272185385227203,
				0.09744571149349213,
				0.0623462051153183
			],
			"min":[
				-0.05197055637836456,
				-0.027246776968240738,
				-0.06234624609351158
			],
			"type":"VEC3"
		},
		{
			"bufferView":1,
			"componentType":5126,
			"count":596,
			"type":"VEC3"
		},
		{
			"bufferView":2,
			"componentType":5126,
			"count":596,
			"type":"VEC2"
		},
		{
			"bufferView":3,
			"componentType":5123,
			"count":2880,
			"type":"SCALAR"
		},
		{
			"bufferView":4,
			"componentType":5126,
			"count":596,
			"max":[
				-0.009420439600944519,
				0.09744571149349213,
				-0.03585024178028107
			],
			"min":[
				-0.13411284983158112,
				-0.027246776968240738,
				-0.16054269671440125
			],
			"type":"VEC3"
		},
		{
			"bufferView":5,
			"componentType":5126,
			"count":596,
			"type":"VEC3"
		},
		{
			"bufferView":6,
			"componentType":5126,
			"count":596,
			"type":"VEC2"
		},
		{
			"bufferView":7,
			"componentType":5123,
			"count":2880,
			"type":"SCALAR"
		},
		{
			"bufferView":8,
			"componentType":5126,
			"count":596,
			"max":[
				-0.009420439600944519,
				0.09744571149349213,
				0.1483944207429886
			],
			"min":[
				-0.13411284983158112,
				-0.027246776968240738,
				0.023701969534158707
			],
			"type":"VEC3"
		},
		{
			"bufferView":9,
			"componentType":5126,
			"count":596,
			"type":"VEC3"
		},
		{
			"bufferView":10,
			"componentType":5126,
			"count":596,
			"type":"VEC2"
		},
		{
			"bufferView":11,
			"componentType":5126,
			"count":596,
			"max":[
				-0.09193279594182968,
				0.09744571149349213,
				0.05927189439535141
			],
			"min":[
				-0.21662521362304688,
				-0.027246776968240738,
				-0.06542055308818817
			],
			"type":"VEC3"
		},
		{
			"bufferView":12,
			"componentType":5126,
			"count":596,
			"type":"VEC3"
		},
		{
			"bufferView":13,
			"componentType":5126,
			"count":596,
			"type":"VEC2"
		},
		{
			"bufferView":14,
			"componentType":5123,
			"count":2880,
			"type":"SCALAR"
		},
		{
			"bufferView":15,
			"componentType":5126,
			"count":596,
			"max":[
				-0.006136149168014526,
				0.16296814382076263,
				0.0623462051153183
			],
			"min":[
				-0.13082855939865112,
				0.03827565535902977,
				-0.06234624609351158
			],
			"type":"VEC3"
		},
		{
			"bufferView":16,
			"componentType":5126,
			"count":596,
			"type":"VEC3"
		},
		{
			"bufferView":17,
			"componentType":5126,
			"count":596,
			"type":"VEC2"
		},
		{
			"bufferView":18,
			"componentType":5123,
			"count":2880,
			"type":"SCALAR"
		}
	],
	"bufferViews":[
		{
			"buffer":0,
			"byteLength":7152,
			"byteOffset":0,
			"target":34962
		},
		{
			"buffer":0,
			"byteLength":7152,
			"byteOffset":7152,
			"target":34962
		},
		{
			"buffer":0,
			"byteLength":4768,
			"byteOffset":14304,
			"target":34962
		},
		{
			"buffer":0,
			"byteLength":5760,
			"byteOffset":19072,
			"target":34963
		},
		{
			"buffer":0,
			"byteLength":7152,
			"byteOffset":24832,
			"target":34962
		},
		{
			"buffer":0,
			"byteLength":7152,
			"byteOffset":31984,
			"target":34962
		},
		{
			"buffer":0,
			"byteLength":4768,
			"byteOffset":39136,
			"target":34962
		},
		{
			"buffer":0,
			"byteLength":5760,
			"byteOffset":43904,
			"target":34963
		},
		{
			"buffer":0,
			"byteLength":7152,
			"byteOffset":49664,
			"target":34962
		},
		{
			"buffer":0,
			"byteLength":7152,
			"byteOffset":56816,
			"target":34962
		},
		{
			"buffer":0,
			"byteLength":4768,
			"byteOffset":63968,
			"target":34962
		},
		{
			"buffer":0,
			"byteLength":7152,
			"byteOffset":68736,
			"target":34962
		},
		{
			"buffer":0,
			"byteLength":7152,
			"byteOffset":75888,
			"target":34962
		},
		{
			"buffer":0,
			"byteLength":4768,
			"byteOffset":83040,
			"target":34962
		},
		{
			"buffer":0,
			"byteLength":5760,
			"byteOffset":87808,
			"target":34963
		},
		{
			"buffer":0,
			"byteLength":7152,
			"byteOffset":93568,
			"target":34962
		},
		{
			"buffer":0,
			"byteLength":7152,
			"byteOffset":100720,
			"target":34962
		},
		{
			"buffer":0,
			"byteLength":4768,
			"byteOffset":107872,
			"target":34962
		},
		{
			"buffer":0,
			"byteLength":5760,
			"byteOffset":112640,
			"target":34963
		}
	],
	"samplers":[
		{
			"magFilter":9729,
			"minFilter":9987
		}
	],
	"buffers":[
		{
			"byteLength":118400,
			"uri":"ciasto-kopytka.bin"
		}
	]
}
