{
	"asset":{
		"generator":"Khronos glTF Blender I/O v5.1.19",
		"version":"2.0"
	},
	"scene":0,
	"scenes":[
		{
			"name":"Scene",
			"nodes":[
				0
			]
		}
	],
	"nodes":[
		{
			"mesh":0,
			"name":"Plane"
		}
	],
	"materials":[
		{
			"doubleSided":true,
			"name":"Material.002",
			"pbrMetallicRoughness":{
				"baseColorTexture":{
					"index":0,
					"texCoord":1
				},
				"metallicFactor":0,
				"roughnessFactor":0.5
			}
		}
	],
	"meshes":[
		{
			"name":"Plane",
			"primitives":[
				{
					"attributes":{
						"POSITION":0,
						"NORMAL":1,
						"TEXCOORD_0":2,
						"TEXCOORD_1":3
					},
					"indices":4,
					"material":0
				}
			]
		}
	],
	"textures":[
		{
			"sampler":0,
			"source":0
		}
	],
	"images":[
		{
			"mimeType":"image/png",
			"name":"palette",
			"uri": "../../../textures/palette.png"
		}
	],
	"accessors":[
		{
			"bufferView":0,
			"componentType":5126,
			"count":4714,
			"max":[
				0.3959112763404846,
				0.5204160213470459,
				0.7992311120033264
			],
			"min":[
				-0.35564878582954407,
				-0.2477044016122818,
				-0.7992311716079712
			],
			"type":"VEC3"
		},
		{
			"bufferView":1,
			"componentType":5126,
			"count":4714,
			"type":"VEC3"
		},
		{
			"bufferView":2,
			"componentType":5126,
			"count":4714,
			"type":"VEC2"
		},
		{
			"bufferView":3,
			"componentType":5126,
			"count":4714,
			"type":"VEC2"
		},
		{
			"bufferView":4,
			"componentType":5123,
			"count":20928,
			"type":"SCALAR"
		}
	],
	"bufferViews":[
		{
			"buffer":0,
			"byteLength":56568,
			"byteOffset":0,
			"target":34962
		},
		{
			"buffer":0,
			"byteLength":56568,
			"byteOffset":56568,
			"target":34962
		},
		{
			"buffer":0,
			"byteLength":37712,
			"byteOffset":113136,
			"target":34962
		},
		{
			"buffer":0,
			"byteLength":37712,
			"byteOffset":150848,
			"target":34962
		},
		{
			"buffer":0,
			"byteLength":41856,
			"byteOffset":188560,
			"target":34963
		}
	],
	"samplers":[
		{
			"magFilter":9729,
			"minFilter":9987
		}
	],
	"buffers":[
		{
			"byteLength":230416,
			"uri":"ciasto-croissant.bin"
		}
	]
}
