{
	"asset":{
		"generator":"Khronos glTF Blender I/O v4.5.48",
		"version":"2.0"
	},
	"scene":0,
	"scenes":[
		{
			"name":"Scene",
			"nodes":[
				0,
				1
			]
		}
	],
	"nodes":[
		{
			"mesh":0,
			"name":"Sphere.002"
		},
		{
			"mesh":1,
			"name":"Cylinder"
		}
	],
	"materials":[
		{
			"doubleSided":true,
			"name":"Material.001",
			"pbrMetallicRoughness":{
				"baseColorTexture":{
					"index":0
				},
				"metallicFactor":0,
				"roughnessFactor":0.5
			}
		}
	],
	"meshes":[
		{
			"name":"Sphere.010",
			"primitives":[
				{
					"attributes":{
						"POSITION":0,
						"NORMAL":1,
						"TEXCOORD_0":2
					},
					"indices":3,
					"material":0
				}
			]
		},
		{
			"name":"Cylinder.001",
			"primitives":[
				{
					"attributes":{
						"POSITION":4,
						"NORMAL":5,
						"TEXCOORD_0":6
					},
					"indices":7,
					"material":0
				}
			]
		}
	],
	"textures":[
		{
			"sampler":0,
			"source":0
		}
	],
	"images":[
		{
			"mimeType":"image/png",
			"name":"palette",
			"uri": "../../../textures/palette.png"
		}
	],
	"accessors":[
		{
			"bufferView":0,
			"componentType":5126,
			"count":537,
			"max":[
				0.0967244878411293,
				0.17633405327796936,
				0.07796375453472137
			],
			"min":[
				-0.08707372099161148,
				0.00037697702646255493,
				-0.05911271274089813
			],
			"type":"VEC3"
		},
		{
			"bufferView":1,
			"componentType":5126,
			"count":537,
			"type":"VEC3"
		},
		{
			"bufferView":2,
			"componentType":5126,
			"count":537,
			"type":"VEC2"
		},
		{
			"bufferView":3,
			"componentType":5123,
			"count":2106,
			"type":"SCALAR"
		},
		{
			"bufferView":4,
			"componentType":5126,
			"count":298,
			"max":[
				0.1309596300125122,
				0.05231577903032303,
				0.026866590604186058
			],
			"min":[
				0.07703471928834915,
				0.0006109178066253662,
				-0.008015509694814682
			],
			"type":"VEC3"
		},
		{
			"bufferView":5,
			"componentType":5126,
			"count":298,
			"type":"VEC3"
		},
		{
			"bufferView":6,
			"componentType":5126,
			"count":298,
			"type":"VEC2"
		},
		{
			"bufferView":7,
			"componentType":5123,
			"count":1104,
			"type":"SCALAR"
		}
	],
	"bufferViews":[
		{
			"buffer":0,
			"byteLength":6444,
			"byteOffset":0,
			"target":34962
		},
		{
			"buffer":0,
			"byteLength":6444,
			"byteOffset":6444,
			"target":34962
		},
		{
			"buffer":0,
			"byteLength":4296,
			"byteOffset":12888,
			"target":34962
		},
		{
			"buffer":0,
			"byteLength":4212,
			"byteOffset":17184,
			"target":34963
		},
		{
			"buffer":0,
			"byteLength":3576,
			"byteOffset":21396,
			"target":34962
		},
		{
			"buffer":0,
			"byteLength":3576,
			"byteOffset":24972,
			"target":34962
		},
		{
			"buffer":0,
			"byteLength":2384,
			"byteOffset":28548,
			"target":34962
		},
		{
			"buffer":0,
			"byteLength":2208,
			"byteOffset":30932,
			"target":34963
		}
	],
	"samplers":[
		{
			"magFilter":9729,
			"minFilter":9987
		}
	],
	"buffers":[
		{
			"byteLength":33140,
			"uri":"szynka.bin"
		}
	]
}
