{
	"asset":{
		"generator":"Khronos glTF Blender I/O v4.4.56",
		"version":"2.0"
	},
	"scene":0,
	"scenes":[
		{
			"name":"Scene",
			"nodes":[
				0,
				1,
				2
			]
		}
	],
	"nodes":[
		{
			"mesh":0,
			"name":"Sphere.005"
		},
		{
			"mesh":1,
			"name":"Sphere.006"
		},
		{
			"mesh":2,
			"name":"Sphere.007"
		}
	],
	"materials":[
		{
			"doubleSided":true,
			"name":"Material.005",
			"pbrMetallicRoughness":{
				"baseColorTexture":{
					"index":0
				},
				"metallicFactor":0,
				"roughnessFactor":0.5
			}
		},
		{
			"doubleSided":true,
			"name":"Material.006",
			"pbrMetallicRoughness":{
				"baseColorTexture":{
					"index":1
				},
				"metallicFactor":0,
				"roughnessFactor":0.5
			}
		},
		{
			"doubleSided":true,
			"name":"Material.007",
			"pbrMetallicRoughness":{
				"baseColorTexture":{
					"index":2
				},
				"metallicFactor":0,
				"roughnessFactor":0.5
			}
		}
	],
	"meshes":[
		{
			"name":"Sphere.013",
			"primitives":[
				{
					"attributes":{
						"POSITION":0,
						"NORMAL":1,
						"TEXCOORD_0":2
					},
					"indices":3,
					"material":0
				}
			]
		},
		{
			"name":"Sphere.014",
			"primitives":[
				{
					"attributes":{
						"POSITION":4,
						"NORMAL":5,
						"TEXCOORD_0":6
					},
					"indices":7,
					"material":1
				}
			]
		},
		{
			"name":"Sphere.015",
			"primitives":[
				{
					"attributes":{
						"POSITION":8,
						"NORMAL":9,
						"TEXCOORD_0":10
					},
					"indices":11,
					"material":2
				}
			]
		}
	],
	"textures":[
		{
			"sampler":0,
			"source":0
		},
		{
			"sampler":0,
			"source":0
		},
		{
			"sampler":0,
			"source":0
		}
	],
	"images":[
		{
			"mimeType": "image/png",
			"name": "palette",
			"uri": "../../../textures/palette.png"
		}
	],
	"accessors":[
		{
			"bufferView":0,
			"componentType":5126,
			"count":704,
			"max":[
				0.16076305508613586,
				0.002214759588241577,
				0.08583046495914459
			],
			"min":[
				-0.006743215024471283,
				-0.009008685126900673,
				-0.05124600604176521
			],
			"type":"VEC3"
		},
		{
			"bufferView":1,
			"componentType":5126,
			"count":704,
			"type":"VEC3"
		},
		{
			"bufferView":2,
			"componentType":5126,
			"count":704,
			"type":"VEC2"
		},
		{
			"bufferView":3,
			"componentType":5123,
			"count":2292,
			"type":"SCALAR"
		},
		{
			"bufferView":4,
			"componentType":5126,
			"count":704,
			"max":[
				0.07476932555437088,
				0.020837832242250443,
				0.08567255735397339
			],
			"min":[
				-0.09160172939300537,
				-0.020619727671146393,
				-0.051185984164476395
			],
			"type":"VEC3"
		},
		{
			"bufferView":5,
			"componentType":5126,
			"count":704,
			"type":"VEC3"
		},
		{
			"bufferView":6,
			"componentType":5126,
			"count":704,
			"type":"VEC2"
		},
		{
			"bufferView":7,
			"componentType":5123,
			"count":2292,
			"type":"SCALAR"
		},
		{
			"bufferView":8,
			"componentType":5126,
			"count":704,
			"max":[
				0.0022335052490234375,
				0.024045005440711975,
				0.10121385753154755
			],
			"min":[
				-0.13500913977622986,
				-0.023640070110559464,
				-0.0649595707654953
			],
			"type":"VEC3"
		},
		{
			"bufferView":9,
			"componentType":5126,
			"count":704,
			"type":"VEC3"
		},
		{
			"bufferView":10,
			"componentType":5126,
			"count":704,
			"type":"VEC2"
		},
		{
			"bufferView":11,
			"componentType":5123,
			"count":2292,
			"type":"SCALAR"
		}
	],
	"bufferViews":[
		{
			"buffer":0,
			"byteLength":8448,
			"byteOffset":0,
			"target":34962
		},
		{
			"buffer":0,
			"byteLength":8448,
			"byteOffset":8448,
			"target":34962
		},
		{
			"buffer":0,
			"byteLength":5632,
			"byteOffset":16896,
			"target":34962
		},
		{
			"buffer":0,
			"byteLength":4584,
			"byteOffset":22528,
			"target":34963
		},
		{
			"buffer":0,
			"byteLength":8448,
			"byteOffset":27112,
			"target":34962
		},
		{
			"buffer":0,
			"byteLength":8448,
			"byteOffset":35560,
			"target":34962
		},
		{
			"buffer":0,
			"byteLength":5632,
			"byteOffset":44008,
			"target":34962
		},
		{
			"buffer":0,
			"byteLength":4584,
			"byteOffset":49640,
			"target":34963
		},
		{
			"buffer":0,
			"byteLength":8448,
			"byteOffset":54224,
			"target":34962
		},
		{
			"buffer":0,
			"byteLength":8448,
			"byteOffset":62672,
			"target":34962
		},
		{
			"buffer":0,
			"byteLength":5632,
			"byteOffset":71120,
			"target":34962
		},
		{
			"buffer":0,
			"byteLength":4584,
			"byteOffset":76752,
			"target":34963
		}
	],
	"samplers":[
		{
			"magFilter":9729,
			"minFilter":9987
		}
	],
	"buffers":[
		{
			"byteLength":81336,
			"uri":"szynka-pokrojona.bin"
		}
	]
}
