{
	"asset":{
		"generator":"Khronos glTF Blender I/O v4.5.48",
		"version":"2.0"
	},
	"scene":0,
	"scenes":[
		{
			"name":"Scene",
			"nodes":[
				0,
				1,
				2
			]
		}
	],
	"nodes":[
		{
			"mesh":0,
			"name":"Sphere.005"
		},
		{
			"mesh":1,
			"name":"Sphere.006"
		},
		{
			"mesh":2,
			"name":"Sphere.001"
		}
	],
	"materials":[
		{
			"doubleSided":true,
			"name":"Material.005",
			"pbrMetallicRoughness":{
				"baseColorTexture":{
					"index":0
				},
				"metallicFactor":0,
				"roughnessFactor":0.5
			}
		},
		{
			"doubleSided":true,
			"name":"Material.006",
			"pbrMetallicRoughness":{
				"baseColorTexture":{
					"index":1
				},
				"metallicFactor":0,
				"roughnessFactor":0.5
			}
		}
	],
	"meshes":[
		{
			"name":"Sphere.013",
			"primitives":[
				{
					"attributes":{
						"POSITION":0,
						"NORMAL":1,
						"TEXCOORD_0":2
					},
					"indices":3,
					"material":0
				}
			]
		},
		{
			"name":"Sphere.014",
			"primitives":[
				{
					"attributes":{
						"POSITION":4,
						"NORMAL":5,
						"TEXCOORD_0":6
					},
					"indices":7,
					"material":1
				}
			]
		},
		{
			"name":"Sphere.001",
			"primitives":[
				{
					"attributes":{
						"POSITION":8,
						"NORMAL":9,
						"TEXCOORD_0":10
					},
					"indices":11,
					"material":0
				}
			]
		}
	],
	"textures":[
		{
			"sampler":0,
			"source":0
		},
		{
			"sampler":0,
			"source":0
		}
	],
	"images":[
		{
			"mimeType":"image/png",
			"name":"palette",
			"uri": "../../../textures/palette.png"
		}
	],
	"accessors":[
		{
			"bufferView":0,
			"componentType":5126,
			"count":712,
			"max":[
				0.11222393810749054,
				0.011674350127577782,
				0.0682690292596817
			],
			"min":[
				-0.0434674471616745,
				0.0004509054124355316,
				-0.08207304775714874
			],
			"type":"VEC3"
		},
		{
			"bufferView":1,
			"componentType":5126,
			"count":712,
			"type":"VEC3"
		},
		{
			"bufferView":2,
			"componentType":5126,
			"count":712,
			"type":"VEC2"
		},
		{
			"bufferView":3,
			"componentType":5123,
			"count":2292,
			"type":"SCALAR"
		},
		{
			"bufferView":4,
			"componentType":5126,
			"count":821,
			"max":[
				0.055081807076931,
				0.03145560249686241,
				0.11479580402374268
			],
			"min":[
				-0.11139512062072754,
				0.0004508504644036293,
				-0.022689776495099068
			],
			"type":"VEC3"
		},
		{
			"bufferView":5,
			"componentType":5126,
			"count":821,
			"type":"VEC3"
		},
		{
			"bufferView":6,
			"componentType":5126,
			"count":821,
			"type":"VEC2"
		},
		{
			"bufferView":7,
			"componentType":5123,
			"count":2292,
			"type":"SCALAR"
		},
		{
			"bufferView":8,
			"componentType":5126,
			"count":722,
			"max":[
				-0.05688909441232681,
				0.03115415759384632,
				0.08941411972045898
			],
			"min":[
				-0.20053674280643463,
				-7.81472772359848e-05,
				-0.07255803048610687
			],
			"type":"VEC3"
		},
		{
			"bufferView":9,
			"componentType":5126,
			"count":722,
			"type":"VEC3"
		},
		{
			"bufferView":10,
			"componentType":5126,
			"count":722,
			"type":"VEC2"
		},
		{
			"bufferView":11,
			"componentType":5123,
			"count":2292,
			"type":"SCALAR"
		}
	],
	"bufferViews":[
		{
			"buffer":0,
			"byteLength":8544,
			"byteOffset":0,
			"target":34962
		},
		{
			"buffer":0,
			"byteLength":8544,
			"byteOffset":8544,
			"target":34962
		},
		{
			"buffer":0,
			"byteLength":5696,
			"byteOffset":17088,
			"target":34962
		},
		{
			"buffer":0,
			"byteLength":4584,
			"byteOffset":22784,
			"target":34963
		},
		{
			"buffer":0,
			"byteLength":9852,
			"byteOffset":27368,
			"target":34962
		},
		{
			"buffer":0,
			"byteLength":9852,
			"byteOffset":37220,
			"target":34962
		},
		{
			"buffer":0,
			"byteLength":6568,
			"byteOffset":47072,
			"target":34962
		},
		{
			"buffer":0,
			"byteLength":4584,
			"byteOffset":53640,
			"target":34963
		},
		{
			"buffer":0,
			"byteLength":8664,
			"byteOffset":58224,
			"target":34962
		},
		{
			"buffer":0,
			"byteLength":8664,
			"byteOffset":66888,
			"target":34962
		},
		{
			"buffer":0,
			"byteLength":5776,
			"byteOffset":75552,
			"target":34962
		},
		{
			"buffer":0,
			"byteLength":4584,
			"byteOffset":81328,
			"target":34963
		}
	],
	"samplers":[
		{
			"magFilter":9729,
			"minFilter":9987
		}
	],
	"buffers":[
		{
			"byteLength":85912,
			"uri":"szynka-pokrojona.bin"
		}
	]
}
