{
	"asset":{
		"generator":"Khronos glTF Blender I/O v4.5.48",
		"version":"2.0"
	},
	"scene":0,
	"scenes":[
		{
			"name":"Scene",
			"nodes":[
				0,
				1,
				2,
				3
			]
		}
	],
	"nodes":[
		{
			"mesh":0,
			"name":"Sphere"
		},
		{
			"mesh":1,
			"name":"Torus Knot 2 x 3"
		},
		{
			"mesh":2,
			"name":"Icosphere.001"
		},
		{
			"mesh":3,
			"name":"Icosphere.004"
		}
	],
	"materials":[
		{
			"doubleSided":true,
			"name":"Material.001",
			"pbrMetallicRoughness":{
				"baseColorTexture":{
					"index":0
				},
				"metallicFactor":0.10000000149011612,
				"roughnessFactor":0.20000000298023224
			}
		},
		{
			"doubleSided":true,
			"name":"Material.008",
			"pbrMetallicRoughness":{
				"baseColorTexture":{
					"index":1
				},
				"metallicFactor":0.103448286652565,
				"roughnessFactor":0.45862066745758057
			}
		},
		{
			"doubleSided":true,
			"name":"Material.002",
			"pbrMetallicRoughness":{
				"baseColorTexture":{
					"index":2
				},
				"metallicFactor":0,
				"roughnessFactor":0.7931034564971924
			}
		}
	],
	"meshes":[
		{
			"name":"Sphere",
			"primitives":[
				{
					"attributes":{
						"POSITION":0,
						"NORMAL":1,
						"TEXCOORD_0":2
					},
					"indices":3,
					"material":0
				}
			]
		},
		{
			"name":"Mesh.002",
			"primitives":[
				{
					"attributes":{
						"POSITION":4,
						"NORMAL":5,
						"TEXCOORD_0":6
					},
					"indices":7,
					"material":1
				}
			]
		},
		{
			"name":"Icosphere.017",
			"primitives":[
				{
					"attributes":{
						"POSITION":8,
						"NORMAL":9,
						"TEXCOORD_0":10
					},
					"indices":11,
					"material":2
				}
			]
		},
		{
			"name":"Icosphere.021",
			"primitives":[
				{
					"attributes":{
						"POSITION":12,
						"NORMAL":13,
						"TEXCOORD_0":14
					},
					"indices":15,
					"material":2
				}
			]
		}
	],
	"textures":[
		{
			"sampler":0,
			"source":0
		},
		{
			"sampler":1,
			"source":1
		},
		{
			"sampler":1,
			"source":0
		}
	],
	"images":[
		{
			"mimeType":"image/png",
			"name":"palette",
			"uri":"../../../textures/palette.png"
		},
		{
			"mimeType":"image/png",
			"name":"palette.png",
			"uri":"../../../textures/palette.png"
		}
	],
	"accessors":[
		{
			"bufferView":0,
			"componentType":5126,
			"count":3438,
			"max":[
				0.7005897760391235,
				0.2335202544927597,
				0.7005897164344788
			],
			"min":[
				-0.700589656829834,
				0.011058644391596317,
				-0.7005895972251892
			],
			"type":"VEC3"
		},
		{
			"bufferView":1,
			"componentType":5126,
			"count":3438,
			"type":"VEC3"
		},
		{
			"bufferView":2,
			"componentType":5126,
			"count":3438,
			"type":"VEC2"
		},
		{
			"bufferView":3,
			"componentType":5123,
			"count":17664,
			"type":"SCALAR"
		},
		{
			"bufferView":4,
			"componentType":5126,
			"count":15351,
			"max":[
				0.5796345472335815,
				0.3408910632133484,
				0.5625693798065186
			],
			"min":[
				-0.5602767467498779,
				0.01389891654253006,
				-0.5913241505622864
			],
			"type":"VEC3"
		},
		{
			"bufferView":5,
			"componentType":5126,
			"count":15351,
			"type":"VEC3"
		},
		{
			"bufferView":6,
			"componentType":5126,
			"count":15351,
			"type":"VEC2"
		},
		{
			"bufferView":7,
			"componentType":5123,
			"count":49254,
			"type":"SCALAR"
		},
		{
			"bufferView":8,
			"componentType":5126,
			"count":39636,
			"max":[
				0.5537871718406677,
				0.3283695578575134,
				0.5773208737373352
			],
			"min":[
				-0.5565208792686462,
				0.07274194806814194,
				-0.5753402709960938
			],
			"type":"VEC3"
		},
		{
			"bufferView":9,
			"componentType":5126,
			"count":39636,
			"type":"VEC3"
		},
		{
			"bufferView":10,
			"componentType":5126,
			"count":39636,
			"type":"VEC2"
		},
		{
			"bufferView":11,
			"componentType":5123,
			"count":39636,
			"type":"SCALAR"
		},
		{
			"bufferView":12,
			"componentType":5126,
			"count":2667,
			"max":[
				0.4856313467025757,
				0.4262808859348297,
				0.45647311210632324
			],
			"min":[
				-0.3858906030654907,
				0.16049745678901672,
				-0.4385789632797241
			],
			"type":"VEC3"
		},
		{
			"bufferView":13,
			"componentType":5126,
			"count":2667,
			"type":"VEC3"
		},
		{
			"bufferView":14,
			"componentType":5126,
			"count":2667,
			"type":"VEC2"
		},
		{
			"bufferView":15,
			"componentType":5123,
			"count":6912,
			"type":"SCALAR"
		}
	],
	"bufferViews":[
		{
			"buffer":0,
			"byteLength":41256,
			"byteOffset":0,
			"target":34962
		},
		{
			"buffer":0,
			"byteLength":41256,
			"byteOffset":41256,
			"target":34962
		},
		{
			"buffer":0,
			"byteLength":27504,
			"byteOffset":82512,
			"target":34962
		},
		{
			"buffer":0,
			"byteLength":35328,
			"byteOffset":110016,
			"target":34963
		},
		{
			"buffer":0,
			"byteLength":184212,
			"byteOffset":145344,
			"target":34962
		},
		{
			"buffer":0,
			"byteLength":184212,
			"byteOffset":329556,
			"target":34962
		},
		{
			"buffer":0,
			"byteLength":122808,
			"byteOffset":513768,
			"target":34962
		},
		{
			"buffer":0,
			"byteLength":98508,
			"byteOffset":636576,
			"target":34963
		},
		{
			"buffer":0,
			"byteLength":475632,
			"byteOffset":735084,
			"target":34962
		},
		{
			"buffer":0,
			"byteLength":475632,
			"byteOffset":1210716,
			"target":34962
		},
		{
			"buffer":0,
			"byteLength":317088,
			"byteOffset":1686348,
			"target":34962
		},
		{
			"buffer":0,
			"byteLength":79272,
			"byteOffset":2003436,
			"target":34963
		},
		{
			"buffer":0,
			"byteLength":32004,
			"byteOffset":2082708,
			"target":34962
		},
		{
			"buffer":0,
			"byteLength":32004,
			"byteOffset":2114712,
			"target":34962
		},
		{
			"buffer":0,
			"byteLength":21336,
			"byteOffset":2146716,
			"target":34962
		},
		{
			"buffer":0,
			"byteLength":13824,
			"byteOffset":2168052,
			"target":34963
		}
	],
	"samplers":[
		{
			"magFilter":9728,
			"minFilter":9984
		},
		{
			"magFilter":9729,
			"minFilter":9987
		}
	],
	"buffers":[
		{
			"byteLength":2181876,
			"uri":"spagetti.bin"
		}
	]
}
