{
	"asset":{
		"generator":"Khronos glTF Blender I/O v4.4.56",
		"version":"2.0"
	},
	"extensionsUsed":[
		"KHR_materials_emissive_strength"
	],
	"scene":0,
	"scenes":[
		{
			"name":"Scene",
			"nodes":[
				21
			]
		}
	],
	"nodes":[
		{
			"name":"listek",
			"rotation":[
				3.4953860250652724e-08,
				4.730168257083278e-08,
				-0.12218325585126877,
				0.9925075769424438
			],
			"scale":[
				0.9999999403953552,
				1.0000001192092896,
				1
			],
			"translation":[
				0,
				1.6648149490356445,
				0
			]
		},
		{
			"children":[
				0
			],
			"name":"kregoslup",
			"rotation":[
				0,
				1.1920928955078125e-07,
				0,
				1
			],
			"translation":[
				0,
				0.7593566179275513,
				0
			]
		},
		{
			"name":"reka-p",
			"rotation":[
				-1.7253433404196272e-10,
				-8.119614314239243e-09,
				-0.2413964420557022,
				0.970426619052887
			],
			"scale":[
				0.9999999403953552,
				1,
				1
			],
			"translation":[
				-7.450580596923828e-09,
				1.5229450464248657,
				-1.5329251554828605e-16
			]
		},
		{
			"children":[
				2
			],
			"name":"prawo0tlow",
			"rotation":[
				2.782146069080227e-09,
				2.6266266939245497e-09,
				-0.7271378636360168,
				0.6864914298057556
			],
			"translation":[
				0,
				0.7593566179275513,
				0
			]
		},
		{
			"name":"reka-l",
			"rotation":[
				-7.539975399595278e-08,
				2.208409455306537e-08,
				0.3519849479198456,
				0.9360056519508362
			],
			"translation":[
				5.960464477539063e-08,
				1.5229451656341553,
				-1.7763568394002505e-15
			]
		},
		{
			"children":[
				4
			],
			"name":"tlow-l",
			"rotation":[
				-6.100292893052028e-08,
				5.759292420748352e-08,
				0.7271378636360168,
				0.6864914298057556
			],
			"translation":[
				0,
				0.7593566179275513,
				0
			]
		},
		{
			"children":[
				1,
				3,
				5
			],
			"name":"glowna"
		},
		{
			"name":"stopa-p",
			"rotation":[
				-0.40977418422698975,
				-3.0837323805599226e-08,
				4.9810306990139e-08,
				0.9121869802474976
			],
			"scale":[
				1,
				0.9999999403953552,
				0.9999999403953552
			],
			"translation":[
				4.718447854656915e-16,
				0.7324400544166565,
				2.3283064365386963e-10
			]
		},
		{
			"children":[
				7
			],
			"name":"miednica-p",
			"rotation":[
				-0.5631622076034546,
				-0.4276077151298523,
				-0.5631622076034546,
				0.4276076853275299
			]
		},
		{
			"name":"stopa-l",
			"rotation":[
				0.40245404839515686,
				-6.112050954243387e-08,
				8.03581983177537e-08,
				0.9154402017593384
			],
			"translation":[
				-5.10702591327572e-15,
				0.7388873100280762,
				1.1175870895385742e-08
			]
		},
		{
			"children":[
				9
			],
			"name":"miednica-l",
			"rotation":[
				0.5694523453712463,
				-0.4191943407058716,
				0.5694525241851807,
				0.41919443011283875
			],
			"scale":[
				1,
				0.9999998807907104,
				0.9999999403953552
			]
		},
		{
			"name":"neutral_bone",
			"rotation":[
				-0.7071067690849304,
				0,
				0,
				0.7071067690849304
			]
		},
		{
			"mesh":0,
			"name":"cialo.003",
			"skin":0
		},
		{
			"mesh":1,
			"name":"listek1.006",
			"skin":0
		},
		{
			"mesh":2,
			"name":"listek1.007",
			"skin":0
		},
		{
			"mesh":3,
			"name":"ogonek.003",
			"skin":0
		},
		{
			"mesh":4,
			"name":"Sphere.015",
			"skin":0
		},
		{
			"mesh":5,
			"name":"Sphere.016",
			"skin":0
		},
		{
			"mesh":6,
			"name":"Sphere.017",
			"skin":0
		},
		{
			"mesh":7,
			"name":"Sphere.019",
			"skin":0
		},
		{
			"mesh":8,
			"name":"Sphere.020",
			"skin":0
		},
		{
			"children":[
				12,
				13,
				14,
				15,
				16,
				17,
				18,
				19,
				20,
				6,
				8,
				10,
				11
			],
			"name":"Armature.003",
			"translation":[
				-0.008991073817014694,
				0.006556868553161621,
				0
			]
		}
	],
	"materials":[
		{
			"doubleSided":true,
			"emissiveFactor":[
				1,
				1,
				1
			],
			"emissiveTexture":{
				"index":0,
				"texCoord":1
			},
			"extensions":{
				"KHR_materials_emissive_strength":{
					"emissiveStrength":2.3999998569488525
				}
			},
			"name":"Material.026",
			"pbrMetallicRoughness":{
				"baseColorTexture":{
					"index":1
				},
				"metallicFactor":0,
				"roughnessFactor":0.5
			}
		},
		{
			"doubleSided":true,
			"name":"Material.017",
			"pbrMetallicRoughness":{
				"baseColorTexture":{
					"index":2
				},
				"metallicFactor":0,
				"roughnessFactor":0.5
			}
		},
		{
			"doubleSided":true,
			"emissiveFactor":[
				1,
				1,
				1
			],
			"emissiveTexture":{
				"index":0
			},
			"extensions":{
				"KHR_materials_emissive_strength":{
					"emissiveStrength":2.3999998569488525
				}
			},
			"name":"Material.026",
			"pbrMetallicRoughness":{
				"baseColorTexture":{
					"index":1
				},
				"metallicFactor":0,
				"roughnessFactor":0.5
			}
		}
	],
	"meshes":[
		{
			"name":"Sphere.023",
			"primitives":[
				{
					"attributes":{
						"POSITION":0,
						"NORMAL":1,
						"TEXCOORD_0":2,
						"TEXCOORD_1":3,
						"JOINTS_0":4,
						"WEIGHTS_0":5
					},
					"indices":6,
					"material":0
				}
			]
		},
		{
			"name":"Plane.010",
			"primitives":[
				{
					"attributes":{
						"POSITION":8,
						"NORMAL":9,
						"TEXCOORD_0":10,
						"TEXCOORD_1":11,
						"JOINTS_0":12,
						"WEIGHTS_0":13
					},
					"indices":14,
					"material":0
				}
			]
		},
		{
			"name":"Plane.011",
			"primitives":[
				{
					"attributes":{
						"POSITION":15,
						"NORMAL":16,
						"TEXCOORD_0":17,
						"TEXCOORD_1":18,
						"JOINTS_0":19,
						"WEIGHTS_0":20
					},
					"indices":21,
					"material":0
				}
			]
		},
		{
			"name":"Plane.009",
			"primitives":[
				{
					"attributes":{
						"POSITION":22,
						"NORMAL":23,
						"TEXCOORD_0":24,
						"TEXCOORD_1":25,
						"JOINTS_0":26,
						"WEIGHTS_0":27
					},
					"indices":28,
					"material":0
				}
			]
		},
		{
			"name":"Sphere.026",
			"primitives":[
				{
					"attributes":{
						"POSITION":29,
						"NORMAL":30,
						"TEXCOORD_0":31,
						"JOINTS_0":32,
						"WEIGHTS_0":33
					},
					"indices":34,
					"material":1
				}
			]
		},
		{
			"name":"Sphere.019",
			"primitives":[
				{
					"attributes":{
						"POSITION":35,
						"NORMAL":36,
						"TEXCOORD_0":37,
						"JOINTS_0":38,
						"WEIGHTS_0":39
					},
					"indices":40,
					"material":2
				}
			]
		},
		{
			"name":"Sphere.020",
			"primitives":[
				{
					"attributes":{
						"POSITION":41,
						"NORMAL":42,
						"TEXCOORD_0":43,
						"JOINTS_0":44,
						"WEIGHTS_0":45
					},
					"indices":46,
					"material":2
				}
			]
		},
		{
			"name":"Sphere.022",
			"primitives":[
				{
					"attributes":{
						"POSITION":47,
						"NORMAL":48,
						"TEXCOORD_0":49,
						"JOINTS_0":50,
						"WEIGHTS_0":51
					},
					"indices":52,
					"material":1
				}
			]
		},
		{
			"name":"Sphere.025",
			"primitives":[
				{
					"attributes":{
						"POSITION":53,
						"NORMAL":54,
						"TEXCOORD_0":55,
						"JOINTS_0":56,
						"WEIGHTS_0":57
					},
					"indices":58,
					"material":2
				}
			]
		}
	],
	"textures":[
		{
			"sampler":0,
			"source":0
		},
		{
			"sampler":1,
			"source":1
		},
		{
			"sampler":1,
			"source":1
		}
	],
	"images":[
		{
			"mimeType":"image/png",
			"name":"detal",
			"uri":"detal.png"
		},
		{
			"mimeType":"image/png",
			"name":"palette",
			"uri":"palette.png"
		}
	],
	"skins":[
		{
			"inverseBindMatrices":7,
			"joints":[
				6,
				1,
				0,
				3,
				2,
				5,
				4,
				8,
				7,
				10,
				9,
				11
			],
			"name":"Armature.003"
		}
	],
	"accessors":[
		{
			"bufferView":0,
			"componentType":5126,
			"count":596,
			"max":[
				1.6436659097671509,
				2.5820250511169434,
				1.1170649528503418
			],
			"min":[
				-1.6389739513397217,
				-0.36192476749420166,
				-1.117065668106079
			],
			"type":"VEC3"
		},
		{
			"bufferView":1,
			"componentType":5126,
			"count":596,
			"type":"VEC3"
		},
		{
			"bufferView":2,
			"componentType":5126,
			"count":596,
			"type":"VEC2"
		},
		{
			"bufferView":3,
			"componentType":5126,
			"count":596,
			"type":"VEC2"
		},
		{
			"bufferView":4,
			"componentType":5121,
			"count":596,
			"type":"VEC4"
		},
		{
			"bufferView":5,
			"componentType":5126,
			"count":596,
			"type":"VEC4"
		},
		{
			"bufferView":6,
			"componentType":5123,
			"count":2880,
			"type":"SCALAR"
		},
		{
			"bufferView":7,
			"componentType":5126,
			"count":12,
			"type":"MAT4"
		},
		{
			"bufferView":8,
			"componentType":5126,
			"count":1253,
			"max":[
				0.9000632762908936,
				2.8485703468322754,
				0.15777188539505005
			],
			"min":[
				-0.8644190430641174,
				2.5074682235717773,
				0.007483805064111948
			],
			"type":"VEC3"
		},
		{
			"bufferView":9,
			"componentType":5126,
			"count":1253,
			"type":"VEC3"
		},
		{
			"bufferView":10,
			"componentType":5126,
			"count":1253,
			"type":"VEC2"
		},
		{
			"bufferView":11,
			"componentType":5126,
			"count":1253,
			"type":"VEC2"
		},
		{
			"bufferView":12,
			"componentType":5121,
			"count":1253,
			"type":"VEC4"
		},
		{
			"bufferView":13,
			"componentType":5126,
			"count":1253,
			"type":"VEC4"
		},
		{
			"bufferView":14,
			"componentType":5123,
			"count":5568,
			"type":"SCALAR"
		},
		{
			"bufferView":15,
			"componentType":5126,
			"count":1247,
			"max":[
				0.6089696884155273,
				2.781439781188965,
				0.6554831862449646
			],
			"min":[
				-0.6042787432670593,
				2.4869847297668457,
				0.07341235876083374
			],
			"type":"VEC3"
		},
		{
			"bufferView":16,
			"componentType":5126,
			"count":1247,
			"type":"VEC3"
		},
		{
			"bufferView":17,
			"componentType":5126,
			"count":1247,
			"type":"VEC2"
		},
		{
			"bufferView":18,
			"componentType":5126,
			"count":1247,
			"type":"VEC2"
		},
		{
			"bufferView":19,
			"componentType":5121,
			"count":1247,
			"type":"VEC4"
		},
		{
			"bufferView":20,
			"componentType":5126,
			"count":1247,
			"type":"VEC4"
		},
		{
			"bufferView":21,
			"componentType":5123,
			"count":5568,
			"type":"SCALAR"
		},
		{
			"bufferView":22,
			"componentType":5126,
			"count":598,
			"max":[
				0.33823585510253906,
				3.149242877960205,
				0.12803666293621063
			],
			"min":[
				-0.11314138770103455,
				2.5020179748535156,
				0.00551014905795455
			],
			"type":"VEC3"
		},
		{
			"bufferView":23,
			"componentType":5126,
			"count":598,
			"type":"VEC3"
		},
		{
			"bufferView":24,
			"componentType":5126,
			"count":598,
			"type":"VEC2"
		},
		{
			"bufferView":25,
			"componentType":5126,
			"count":598,
			"type":"VEC2"
		},
		{
			"bufferView":26,
			"componentType":5121,
			"count":598,
			"type":"VEC4"
		},
		{
			"bufferView":27,
			"componentType":5126,
			"count":598,
			"type":"VEC4"
		},
		{
			"bufferView":28,
			"componentType":5123,
			"count":2496,
			"type":"SCALAR"
		},
		{
			"bufferView":29,
			"componentType":5126,
			"count":1214,
			"max":[
				1.0427683591842651,
				-0.07219504565000534,
				0.22242337465286255
			],
			"min":[
				-1.0380785465240479,
				-0.70224928855896,
				-0.2224232256412506
			],
			"type":"VEC3"
		},
		{
			"bufferView":30,
			"componentType":5126,
			"count":1214,
			"type":"VEC3"
		},
		{
			"bufferView":31,
			"componentType":5126,
			"count":1214,
			"type":"VEC2"
		},
		{
			"bufferView":32,
			"componentType":5121,
			"count":1214,
			"type":"VEC4"
		},
		{
			"bufferView":33,
			"componentType":5126,
			"count":1214,
			"type":"VEC4"
		},
		{
			"bufferView":34,
			"componentType":5123,
			"count":5760,
			"type":"SCALAR"
		},
		{
			"bufferView":35,
			"componentType":5126,
			"count":1170,
			"max":[
				0.8417149186134338,
				1.2879122495651245,
				1.0661851167678833
			],
			"min":[
				-0.8370238542556763,
				1.0958229303359985,
				0.9059407711029053
			],
			"type":"VEC3"
		},
		{
			"bufferView":36,
			"componentType":5126,
			"count":1170,
			"type":"VEC3"
		},
		{
			"bufferView":37,
			"componentType":5126,
			"count":1170,
			"type":"VEC2"
		},
		{
			"bufferView":38,
			"componentType":5121,
			"count":1170,
			"type":"VEC4"
		},
		{
			"bufferView":39,
			"componentType":5126,
			"count":1170,
			"type":"VEC4"
		},
		{
			"bufferView":40,
			"componentType":5123,
			"count":5760,
			"type":"SCALAR"
		},
		{
			"bufferView":41,
			"componentType":5126,
			"count":596,
			"max":[
				0.25108903646469116,
				0.7041904926300049,
				1.0948100090026855
			],
			"min":[
				-0.2483130842447281,
				0.6071470975875854,
				0.9345656633377075
			],
			"type":"VEC3"
		},
		{
			"bufferView":42,
			"componentType":5126,
			"count":596,
			"type":"VEC3"
		},
		{
			"bufferView":43,
			"componentType":5126,
			"count":596,
			"type":"VEC2"
		},
		{
			"bufferView":44,
			"componentType":5121,
			"count":596,
			"type":"VEC4"
		},
		{
			"bufferView":45,
			"componentType":5126,
			"count":596,
			"type":"VEC4"
		},
		{
			"bufferView":46,
			"componentType":5123,
			"count":2880,
			"type":"SCALAR"
		},
		{
			"bufferView":47,
			"componentType":5126,
			"count":1200,
			"max":[
				2.0735409259796143,
				0.7670959234237671,
				0.2413947880268097
			],
			"min":[
				-2.0360348224639893,
				0.2553209364414215,
				-0.24139462411403656
			],
			"type":"VEC3"
		},
		{
			"bufferView":48,
			"componentType":5126,
			"count":1200,
			"type":"VEC3"
		},
		{
			"bufferView":49,
			"componentType":5126,
			"count":1200,
			"type":"VEC2"
		},
		{
			"bufferView":50,
			"componentType":5121,
			"count":1200,
			"type":"VEC4"
		},
		{
			"bufferView":51,
			"componentType":5126,
			"count":1200,
			"type":"VEC4"
		},
		{
			"bufferView":52,
			"componentType":5123,
			"count":5760,
			"type":"SCALAR"
		},
		{
			"bufferView":53,
			"componentType":5126,
			"count":1208,
			"max":[
				0.7476156949996948,
				1.0179346799850464,
				1.1434895992279053
			],
			"min":[
				-0.7429258823394775,
				0.7230863571166992,
				0.8486413955688477
			],
			"type":"VEC3"
		},
		{
			"bufferView":54,
			"componentType":5126,
			"count":1208,
			"type":"VEC3"
		},
		{
			"bufferView":55,
			"componentType":5126,
			"count":1208,
			"type":"VEC2"
		},
		{
			"bufferView":56,
			"componentType":5121,
			"count":1208,
			"type":"VEC4"
		},
		{
			"bufferView":57,
			"componentType":5126,
			"count":1208,
			"type":"VEC4"
		},
		{
			"bufferView":58,
			"componentType":5123,
			"count":5760,
			"type":"SCALAR"
		}
	],
	"bufferViews":[
		{
			"buffer":0,
			"byteLength":7152,
			"byteOffset":0,
			"target":34962
		},
		{
			"buffer":0,
			"byteLength":7152,
			"byteOffset":7152,
			"target":34962
		},
		{
			"buffer":0,
			"byteLength":4768,
			"byteOffset":14304,
			"target":34962
		},
		{
			"buffer":0,
			"byteLength":4768,
			"byteOffset":19072,
			"target":34962
		},
		{
			"buffer":0,
			"byteLength":2384,
			"byteOffset":23840,
			"target":34962
		},
		{
			"buffer":0,
			"byteLength":9536,
			"byteOffset":26224,
			"target":34962
		},
		{
			"buffer":0,
			"byteLength":5760,
			"byteOffset":35760,
			"target":34963
		},
		{
			"buffer":0,
			"byteLength":768,
			"byteOffset":41520
		},
		{
			"buffer":0,
			"byteLength":15036,
			"byteOffset":42288,
			"target":34962
		},
		{
			"buffer":0,
			"byteLength":15036,
			"byteOffset":57324,
			"target":34962
		},
		{
			"buffer":0,
			"byteLength":10024,
			"byteOffset":72360,
			"target":34962
		},
		{
			"buffer":0,
			"byteLength":10024,
			"byteOffset":82384,
			"target":34962
		},
		{
			"buffer":0,
			"byteLength":5012,
			"byteOffset":92408,
			"target":34962
		},
		{
			"buffer":0,
			"byteLength":20048,
			"byteOffset":97420,
			"target":34962
		},
		{
			"buffer":0,
			"byteLength":11136,
			"byteOffset":117468,
			"target":34963
		},
		{
			"buffer":0,
			"byteLength":14964,
			"byteOffset":128604,
			"target":34962
		},
		{
			"buffer":0,
			"byteLength":14964,
			"byteOffset":143568,
			"target":34962
		},
		{
			"buffer":0,
			"byteLength":9976,
			"byteOffset":158532,
			"target":34962
		},
		{
			"buffer":0,
			"byteLength":9976,
			"byteOffset":168508,
			"target":34962
		},
		{
			"buffer":0,
			"byteLength":4988,
			"byteOffset":178484,
			"target":34962
		},
		{
			"buffer":0,
			"byteLength":19952,
			"byteOffset":183472,
			"target":34962
		},
		{
			"buffer":0,
			"byteLength":11136,
			"byteOffset":203424,
			"target":34963
		},
		{
			"buffer":0,
			"byteLength":7176,
			"byteOffset":214560,
			"target":34962
		},
		{
			"buffer":0,
			"byteLength":7176,
			"byteOffset":221736,
			"target":34962
		},
		{
			"buffer":0,
			"byteLength":4784,
			"byteOffset":228912,
			"target":34962
		},
		{
			"buffer":0,
			"byteLength":4784,
			"byteOffset":233696,
			"target":34962
		},
		{
			"buffer":0,
			"byteLength":2392,
			"byteOffset":238480,
			"target":34962
		},
		{
			"buffer":0,
			"byteLength":9568,
			"byteOffset":240872,
			"target":34962
		},
		{
			"buffer":0,
			"byteLength":4992,
			"byteOffset":250440,
			"target":34963
		},
		{
			"buffer":0,
			"byteLength":14568,
			"byteOffset":255432,
			"target":34962
		},
		{
			"buffer":0,
			"byteLength":14568,
			"byteOffset":270000,
			"target":34962
		},
		{
			"buffer":0,
			"byteLength":9712,
			"byteOffset":284568,
			"target":34962
		},
		{
			"buffer":0,
			"byteLength":4856,
			"byteOffset":294280,
			"target":34962
		},
		{
			"buffer":0,
			"byteLength":19424,
			"byteOffset":299136,
			"target":34962
		},
		{
			"buffer":0,
			"byteLength":11520,
			"byteOffset":318560,
			"target":34963
		},
		{
			"buffer":0,
			"byteLength":14040,
			"byteOffset":330080,
			"target":34962
		},
		{
			"buffer":0,
			"byteLength":14040,
			"byteOffset":344120,
			"target":34962
		},
		{
			"buffer":0,
			"byteLength":9360,
			"byteOffset":358160,
			"target":34962
		},
		{
			"buffer":0,
			"byteLength":4680,
			"byteOffset":367520,
			"target":34962
		},
		{
			"buffer":0,
			"byteLength":18720,
			"byteOffset":372200,
			"target":34962
		},
		{
			"buffer":0,
			"byteLength":11520,
			"byteOffset":390920,
			"target":34963
		},
		{
			"buffer":0,
			"byteLength":7152,
			"byteOffset":402440,
			"target":34962
		},
		{
			"buffer":0,
			"byteLength":7152,
			"byteOffset":409592,
			"target":34962
		},
		{
			"buffer":0,
			"byteLength":4768,
			"byteOffset":416744,
			"target":34962
		},
		{
			"buffer":0,
			"byteLength":2384,
			"byteOffset":421512,
			"target":34962
		},
		{
			"buffer":0,
			"byteLength":9536,
			"byteOffset":423896,
			"target":34962
		},
		{
			"buffer":0,
			"byteLength":5760,
			"byteOffset":433432,
			"target":34963
		},
		{
			"buffer":0,
			"byteLength":14400,
			"byteOffset":439192,
			"target":34962
		},
		{
			"buffer":0,
			"byteLength":14400,
			"byteOffset":453592,
			"target":34962
		},
		{
			"buffer":0,
			"byteLength":9600,
			"byteOffset":467992,
			"target":34962
		},
		{
			"buffer":0,
			"byteLength":4800,
			"byteOffset":477592,
			"target":34962
		},
		{
			"buffer":0,
			"byteLength":19200,
			"byteOffset":482392,
			"target":34962
		},
		{
			"buffer":0,
			"byteLength":11520,
			"byteOffset":501592,
			"target":34963
		},
		{
			"buffer":0,
			"byteLength":14496,
			"byteOffset":513112,
			"target":34962
		},
		{
			"buffer":0,
			"byteLength":14496,
			"byteOffset":527608,
			"target":34962
		},
		{
			"buffer":0,
			"byteLength":9664,
			"byteOffset":542104,
			"target":34962
		},
		{
			"buffer":0,
			"byteLength":4832,
			"byteOffset":551768,
			"target":34962
		},
		{
			"buffer":0,
			"byteLength":19328,
			"byteOffset":556600,
			"target":34962
		},
		{
			"buffer":0,
			"byteLength":11520,
			"byteOffset":575928,
			"target":34963
		}
	],
	"samplers":[
		{
			"magFilter":9729,
			"minFilter":9987
		},
		{
			"magFilter":9728,
			"minFilter":9984
		}
	],
	"buffers":[
		{
			"byteLength":587448,
			"uri":"pomidor.bin"
		}
	]
}
