{
	"asset":{
		"generator":"Khronos glTF Blender I/O v5.1.19",
		"version":"2.0"
	},
	"scene":0,
	"scenes":[
		{
			"name":"Scene",
			"nodes":[
				0,
				1,
				2,
				3
			]
		}
	],
	"nodes":[
		{
			"mesh":0,
			"name":"Sphere.003"
		},
		{
			"mesh":1,
			"name":"Plane.002"
		},
		{
			"mesh":2,
			"name":"Circle.005"
		},
		{
			"mesh":3,
			"name":"Circle.006"
		}
	],
	"materials":[
		{
			"doubleSided":true,
			"name":"Material.001",
			"pbrMetallicRoughness":{
				"baseColorTexture":{
					"index":0
				},
				"metallicFactor":0,
				"roughnessFactor":0.5
			}
		},
		{
			"doubleSided":true,
			"name":"Material.003",
			"pbrMetallicRoughness":{
				"baseColorTexture":{
					"index":1
				},
				"metallicFactor":0.20000000298023224,
				"roughnessFactor":0.5
			}
		}
	],
	"meshes":[
		{
			"name":"Sphere.003",
			"primitives":[
				{
					"attributes":{
						"POSITION":0,
						"NORMAL":1,
						"TEXCOORD_0":2
					},
					"indices":3,
					"material":0
				}
			]
		},
		{
			"name":"Plane.001",
			"primitives":[
				{
					"attributes":{
						"POSITION":4,
						"NORMAL":5,
						"TEXCOORD_0":6
					},
					"indices":7,
					"material":1
				}
			]
		},
		{
			"name":"Circle.007",
			"primitives":[
				{
					"attributes":{
						"POSITION":8,
						"NORMAL":9,
						"TEXCOORD_0":10
					},
					"indices":11,
					"material":1
				}
			]
		},
		{
			"name":"Circle.008",
			"primitives":[
				{
					"attributes":{
						"POSITION":12,
						"NORMAL":13,
						"TEXCOORD_0":14
					},
					"indices":15,
					"material":0
				}
			]
		}
	],
	"textures":[
		{
			"sampler":0,
			"source":0
		},
		{
			"sampler":1,
			"source":0
		}
	],
	"images":[
		{
			"mimeType": "image/png",
			"name": "palette",
			"uri": "../../../textures/palette.png"
		}
	],
	"accessors":[
		{
			"bufferView":0,
			"componentType":5126,
			"count":351,
			"max":[
				0.4155457615852356,
				0.2996380031108856,
				0.4011446237564087
			],
			"min":[
				-0.41974738240242004,
				0.07293453067541122,
				-0.43414875864982605
			],
			"type":"VEC3"
		},
		{
			"bufferView":1,
			"componentType":5126,
			"count":351,
			"type":"VEC3"
		},
		{
			"bufferView":2,
			"componentType":5126,
			"count":351,
			"type":"VEC2"
		},
		{
			"bufferView":3,
			"componentType":5123,
			"count":1530,
			"type":"SCALAR"
		},
		{
			"bufferView":4,
			"componentType":5126,
			"count":2226,
			"max":[
				5.5425190925598145,
				0.26449841260910034,
				0.4791359007358551
			],
			"min":[
				2.1181583404541016,
				0.006735384464263916,
				-0.4850602149963379
			],
			"type":"VEC3"
		},
		{
			"bufferView":5,
			"componentType":5126,
			"count":2226,
			"type":"VEC3"
		},
		{
			"bufferView":6,
			"componentType":5126,
			"count":2226,
			"type":"VEC2"
		},
		{
			"bufferView":7,
			"componentType":5123,
			"count":10944,
			"type":"SCALAR"
		},
		{
			"bufferView":8,
			"componentType":5126,
			"count":998,
			"max":[
				2.2819759845733643,
				0.3774014115333557,
				2.2819759845733643
			],
			"min":[
				-2.2819759845733643,
				-0.6637908816337585,
				-2.2819759845733643
			],
			"type":"VEC3"
		},
		{
			"bufferView":9,
			"componentType":5126,
			"count":998,
			"type":"VEC3"
		},
		{
			"bufferView":10,
			"componentType":5126,
			"count":998,
			"type":"VEC2"
		},
		{
			"bufferView":11,
			"componentType":5123,
			"count":5760,
			"type":"SCALAR"
		},
		{
			"bufferView":12,
			"componentType":5126,
			"count":168,
			"max":[
				0.8779311180114746,
				0.07293453067541122,
				0.9281414747238159
			],
			"min":[
				-0.8798913359642029,
				-0.061062149703502655,
				-1.03445303440094
			],
			"type":"VEC3"
		},
		{
			"bufferView":13,
			"componentType":5126,
			"count":168,
			"type":"VEC3"
		},
		{
			"bufferView":14,
			"componentType":5126,
			"count":168,
			"type":"VEC2"
		},
		{
			"bufferView":15,
			"componentType":5123,
			"count":468,
			"type":"SCALAR"
		}
	],
	"bufferViews":[
		{
			"buffer":0,
			"byteLength":4212,
			"byteOffset":0,
			"target":34962
		},
		{
			"buffer":0,
			"byteLength":4212,
			"byteOffset":4212,
			"target":34962
		},
		{
			"buffer":0,
			"byteLength":2808,
			"byteOffset":8424,
			"target":34962
		},
		{
			"buffer":0,
			"byteLength":3060,
			"byteOffset":11232,
			"target":34963
		},
		{
			"buffer":0,
			"byteLength":26712,
			"byteOffset":14292,
			"target":34962
		},
		{
			"buffer":0,
			"byteLength":26712,
			"byteOffset":41004,
			"target":34962
		},
		{
			"buffer":0,
			"byteLength":17808,
			"byteOffset":67716,
			"target":34962
		},
		{
			"buffer":0,
			"byteLength":21888,
			"byteOffset":85524,
			"target":34963
		},
		{
			"buffer":0,
			"byteLength":11976,
			"byteOffset":107412,
			"target":34962
		},
		{
			"buffer":0,
			"byteLength":11976,
			"byteOffset":119388,
			"target":34962
		},
		{
			"buffer":0,
			"byteLength":7984,
			"byteOffset":131364,
			"target":34962
		},
		{
			"buffer":0,
			"byteLength":11520,
			"byteOffset":139348,
			"target":34963
		},
		{
			"buffer":0,
			"byteLength":2016,
			"byteOffset":150868,
			"target":34962
		},
		{
			"buffer":0,
			"byteLength":2016,
			"byteOffset":152884,
			"target":34962
		},
		{
			"buffer":0,
			"byteLength":1344,
			"byteOffset":154900,
			"target":34962
		},
		{
			"buffer":0,
			"byteLength":936,
			"byteOffset":156244,
			"target":34963
		}
	],
	"samplers":[
		{
			"magFilter":9729,
			"minFilter":9987
		},
		{
			"magFilter":9728,
			"minFilter":9984
		}
	],
	"buffers":[
		{
			"byteLength":157180,
			"uri":"jajo.bin"
		}
	]
}
