{
	"asset":{
		"generator":"Khronos glTF Blender I/O v5.1.19",
		"version":"2.0"
	},
	"scene":0,
	"scenes":[
		{
			"name":"Scene",
			"nodes":[
				0,
				1,
				2,
				3,
				4,
				5,
				6,
				7
			]
		}
	],
	"nodes":[
		{
			"mesh":0,
			"name":"Sphere.002"
		},
		{
			"mesh":1,
			"name":"Sphere.003"
		},
		{
			"mesh":2,
			"name":"Plane.002"
		},
		{
			"mesh":3,
			"name":"Circle.004"
		},
		{
			"mesh":4,
			"name":"Circle.005"
		},
		{
			"mesh":5,
			"name":"Circle.006"
		},
		{
			"mesh":6,
			"name":"Plane"
		},
		{
			"mesh":7,
			"name":"Plane.003"
		}
	],
	"materials":[
		{
			"doubleSided":true,
			"name":"Material.001",
			"pbrMetallicRoughness":{
				"baseColorTexture":{
					"index":0
				},
				"metallicFactor":0,
				"roughnessFactor":0.5
			}
		},
		{
			"doubleSided":true,
			"name":"Material.003",
			"pbrMetallicRoughness":{
				"baseColorTexture":{
					"index":1
				},
				"metallicFactor":0.20000000298023224,
				"roughnessFactor":0.5
			}
		},
		{
			"doubleSided":true,
			"name":"Material.006",
			"pbrMetallicRoughness":{
				"baseColorTexture":{
					"index":2
				},
				"metallicFactor":0,
				"roughnessFactor":0.5
			}
		}
	],
	"meshes":[
		{
			"name":"Sphere.002",
			"primitives":[
				{
					"attributes":{
						"POSITION":0,
						"NORMAL":1,
						"TEXCOORD_0":2
					},
					"indices":3,
					"material":0
				}
			]
		},
		{
			"name":"Sphere.003",
			"primitives":[
				{
					"attributes":{
						"POSITION":4,
						"NORMAL":5,
						"TEXCOORD_0":6
					},
					"indices":3,
					"material":0
				}
			]
		},
		{
			"name":"Plane.001",
			"primitives":[
				{
					"attributes":{
						"POSITION":7,
						"NORMAL":8,
						"TEXCOORD_0":9
					},
					"indices":10,
					"material":1
				}
			]
		},
		{
			"name":"Circle.005",
			"primitives":[
				{
					"attributes":{
						"POSITION":11,
						"NORMAL":12,
						"TEXCOORD_0":13
					},
					"indices":14,
					"material":0
				}
			]
		},
		{
			"name":"Circle.007",
			"primitives":[
				{
					"attributes":{
						"POSITION":15,
						"NORMAL":16,
						"TEXCOORD_0":17
					},
					"indices":18,
					"material":1
				}
			]
		},
		{
			"name":"Circle.008",
			"primitives":[
				{
					"attributes":{
						"POSITION":19,
						"NORMAL":20,
						"TEXCOORD_0":21
					},
					"indices":14,
					"material":0
				}
			]
		},
		{
			"name":"Plane.003",
			"primitives":[
				{
					"attributes":{
						"POSITION":22,
						"NORMAL":23,
						"TEXCOORD_0":24
					},
					"indices":25,
					"material":0
				}
			]
		},
		{
			"name":"Plane.004",
			"primitives":[
				{
					"attributes":{
						"POSITION":26,
						"NORMAL":27,
						"TEXCOORD_0":28
					},
					"indices":25,
					"material":2
				}
			]
		}
	],
	"textures":[
		{
			"sampler":0,
			"source":0
		},
		{
			"sampler":1,
			"source":0
		},
		{
			"sampler":0,
			"source":0
		}
	],
	"images":[
		{
			"mimeType": "image/png",
			"name": "palette",
			"uri": "../../../textures/palette.png"
		}
	],
	"accessors":[
		{
			"bufferView":0,
			"componentType":5126,
			"count":351,
			"max":[
				0.8631261587142944,
				0.25401216745376587,
				1.2601535320281982
			],
			"min":[
				0.19594228267669678,
				0.07293453067541122,
				0.5929694175720215
			],
			"type":"VEC3"
		},
		{
			"bufferView":1,
			"componentType":5126,
			"count":351,
			"type":"VEC3"
		},
		{
			"bufferView":2,
			"componentType":5126,
			"count":351,
			"type":"VEC2"
		},
		{
			"bufferView":3,
			"componentType":5123,
			"count":1530,
			"type":"SCALAR"
		},
		{
			"bufferView":4,
			"componentType":5126,
			"count":351,
			"max":[
				-0.5735080242156982,
				0.25401216745376587,
				0.9263100624084473
			],
			"min":[
				-1.240691900253296,
				0.07293453067541122,
				0.2591259777545929
			],
			"type":"VEC3"
		},
		{
			"bufferView":5,
			"componentType":5126,
			"count":351,
			"type":"VEC3"
		},
		{
			"bufferView":6,
			"componentType":5126,
			"count":351,
			"type":"VEC2"
		},
		{
			"bufferView":7,
			"componentType":5126,
			"count":2226,
			"max":[
				5.5425190925598145,
				0.26449841260910034,
				0.4791359007358551
			],
			"min":[
				2.1181583404541016,
				0.006735384464263916,
				-0.4850602149963379
			],
			"type":"VEC3"
		},
		{
			"bufferView":8,
			"componentType":5126,
			"count":2226,
			"type":"VEC3"
		},
		{
			"bufferView":9,
			"componentType":5126,
			"count":2226,
			"type":"VEC2"
		},
		{
			"bufferView":10,
			"componentType":5123,
			"count":10944,
			"type":"SCALAR"
		},
		{
			"bufferView":11,
			"componentType":5126,
			"count":168,
			"max":[
				1.2324528694152832,
				0.07293453067541122,
				1.6810880899429321
			],
			"min":[
				-0.17159414291381836,
				-0.034094274044036865,
				0.11348098516464233
			],
			"type":"VEC3"
		},
		{
			"bufferView":12,
			"componentType":5126,
			"count":168,
			"type":"VEC3"
		},
		{
			"bufferView":13,
			"componentType":5126,
			"count":168,
			"type":"VEC2"
		},
		{
			"bufferView":14,
			"componentType":5123,
			"count":468,
			"type":"SCALAR"
		},
		{
			"bufferView":15,
			"componentType":5126,
			"count":998,
			"max":[
				2.2819759845733643,
				0.3774014115333557,
				2.2819759845733643
			],
			"min":[
				-2.2819759845733643,
				-0.6637908816337585,
				-2.2819759845733643
			],
			"type":"VEC3"
		},
		{
			"bufferView":16,
			"componentType":5126,
			"count":998,
			"type":"VEC3"
		},
		{
			"bufferView":17,
			"componentType":5126,
			"count":998,
			"type":"VEC2"
		},
		{
			"bufferView":18,
			"componentType":5123,
			"count":5760,
			"type":"SCALAR"
		},
		{
			"bufferView":19,
			"componentType":5126,
			"count":168,
			"max":[
				-0.20418131351470947,
				0.07293453067541122,
				1.3472447395324707
			],
			"min":[
				-1.608228325843811,
				-0.034094274044036865,
				-0.22036242485046387
			],
			"type":"VEC3"
		},
		{
			"bufferView":20,
			"componentType":5126,
			"count":168,
			"type":"VEC3"
		},
		{
			"bufferView":21,
			"componentType":5126,
			"count":168,
			"type":"VEC2"
		},
		{
			"bufferView":22,
			"componentType":5126,
			"count":352,
			"max":[
				1.66103196144104,
				0.027901729568839073,
				0.20328611135482788
			],
			"min":[
				-0.17145609855651855,
				-0.10554248839616776,
				-1.5522162914276123
			],
			"type":"VEC3"
		},
		{
			"bufferView":23,
			"componentType":5126,
			"count":352,
			"type":"VEC3"
		},
		{
			"bufferView":24,
			"componentType":5126,
			"count":352,
			"type":"VEC2"
		},
		{
			"bufferView":25,
			"componentType":5123,
			"count":948,
			"type":"SCALAR"
		},
		{
			"bufferView":26,
			"componentType":5126,
			"count":352,
			"max":[
				0.5662245750427246,
				0.027901729568839073,
				0.2634298801422119
			],
			"min":[
				-1.266263484954834,
				-0.10554248839616776,
				-1.492072582244873
			],
			"type":"VEC3"
		},
		{
			"bufferView":27,
			"componentType":5126,
			"count":352,
			"type":"VEC3"
		},
		{
			"bufferView":28,
			"componentType":5126,
			"count":352,
			"type":"VEC2"
		}
	],
	"bufferViews":[
		{
			"buffer":0,
			"byteLength":4212,
			"byteOffset":0,
			"target":34962
		},
		{
			"buffer":0,
			"byteLength":4212,
			"byteOffset":4212,
			"target":34962
		},
		{
			"buffer":0,
			"byteLength":2808,
			"byteOffset":8424,
			"target":34962
		},
		{
			"buffer":0,
			"byteLength":3060,
			"byteOffset":11232,
			"target":34963
		},
		{
			"buffer":0,
			"byteLength":4212,
			"byteOffset":14292,
			"target":34962
		},
		{
			"buffer":0,
			"byteLength":4212,
			"byteOffset":18504,
			"target":34962
		},
		{
			"buffer":0,
			"byteLength":2808,
			"byteOffset":22716,
			"target":34962
		},
		{
			"buffer":0,
			"byteLength":26712,
			"byteOffset":25524,
			"target":34962
		},
		{
			"buffer":0,
			"byteLength":26712,
			"byteOffset":52236,
			"target":34962
		},
		{
			"buffer":0,
			"byteLength":17808,
			"byteOffset":78948,
			"target":34962
		},
		{
			"buffer":0,
			"byteLength":21888,
			"byteOffset":96756,
			"target":34963
		},
		{
			"buffer":0,
			"byteLength":2016,
			"byteOffset":118644,
			"target":34962
		},
		{
			"buffer":0,
			"byteLength":2016,
			"byteOffset":120660,
			"target":34962
		},
		{
			"buffer":0,
			"byteLength":1344,
			"byteOffset":122676,
			"target":34962
		},
		{
			"buffer":0,
			"byteLength":936,
			"byteOffset":124020,
			"target":34963
		},
		{
			"buffer":0,
			"byteLength":11976,
			"byteOffset":124956,
			"target":34962
		},
		{
			"buffer":0,
			"byteLength":11976,
			"byteOffset":136932,
			"target":34962
		},
		{
			"buffer":0,
			"byteLength":7984,
			"byteOffset":148908,
			"target":34962
		},
		{
			"buffer":0,
			"byteLength":11520,
			"byteOffset":156892,
			"target":34963
		},
		{
			"buffer":0,
			"byteLength":2016,
			"byteOffset":168412,
			"target":34962
		},
		{
			"buffer":0,
			"byteLength":2016,
			"byteOffset":170428,
			"target":34962
		},
		{
			"buffer":0,
			"byteLength":1344,
			"byteOffset":172444,
			"target":34962
		},
		{
			"buffer":0,
			"byteLength":4224,
			"byteOffset":173788,
			"target":34962
		},
		{
			"buffer":0,
			"byteLength":4224,
			"byteOffset":178012,
			"target":34962
		},
		{
			"buffer":0,
			"byteLength":2816,
			"byteOffset":182236,
			"target":34962
		},
		{
			"buffer":0,
			"byteLength":1896,
			"byteOffset":185052,
			"target":34963
		},
		{
			"buffer":0,
			"byteLength":4224,
			"byteOffset":186948,
			"target":34962
		},
		{
			"buffer":0,
			"byteLength":4224,
			"byteOffset":191172,
			"target":34962
		},
		{
			"buffer":0,
			"byteLength":2816,
			"byteOffset":195396,
			"target":34962
		}
	],
	"samplers":[
		{
			"magFilter":9729,
			"minFilter":9987
		},
		{
			"magFilter":9728,
			"minFilter":9984
		}
	],
	"buffers":[
		{
			"byteLength":198212,
			"uri":"jajo-bekon.bin"
		}
	]
}
