{
	"asset":{
		"generator":"Khronos glTF Blender I/O v5.1.19",
		"version":"2.0"
	},
	"scene":0,
	"scenes":[
		{
			"name":"Scene",
			"nodes":[
				0,
				1,
				2,
				3,
				4,
				5,
				6,
				7,
				8,
				9,
				10,
				11,
				12
			]
		}
	],
	"nodes":[
		{
			"mesh":0,
			"name":"Circle.001"
		},
		{
			"mesh":1,
			"name":"Sphere"
		},
		{
			"mesh":2,
			"name":"Plane.001"
		},
		{
			"mesh":3,
			"name":"Circle.002"
		},
		{
			"mesh":4,
			"name":"Circle"
		},
		{
			"mesh":5,
			"name":"Sphere.001"
		},
		{
			"mesh":6,
			"name":"Circle.003"
		},
		{
			"mesh":7,
			"name":"roslina.001"
		},
		{
			"mesh":8,
			"name":"roslina.002"
		},
		{
			"mesh":9,
			"name":"roslina.003"
		},
		{
			"mesh":10,
			"name":"roslina.004"
		},
		{
			"mesh":11,
			"name":"roslina.005"
		},
		{
			"mesh":12,
			"name":"roslina.006"
		}
	],
	"materials":[
		{
			"doubleSided":true,
			"name":"Material.001",
			"pbrMetallicRoughness":{
				"baseColorTexture":{
					"index":0
				},
				"metallicFactor":0,
				"roughnessFactor":0.5
			}
		},
		{
			"doubleSided":true,
			"name":"Material.009",
			"pbrMetallicRoughness":{
				"baseColorTexture":{
					"index":1
				},
				"metallicFactor":0.20000000298023224,
				"roughnessFactor":0.5
			}
		},
		{
			"doubleSided":true,
			"name":"Material.002",
			"pbrMetallicRoughness":{
				"baseColorTexture":{
					"index":2
				},
				"metallicFactor":0,
				"roughnessFactor":0.5
			}
		},
		{
			"doubleSided":true,
			"name":"kwiat",
			"pbrMetallicRoughness":{
				"baseColorTexture":{
					"index":3
				},
				"metallicFactor":0,
				"roughnessFactor":0.5
			}
		},
		{
			"doubleSided":true,
			"name":"kwiat.001",
			"pbrMetallicRoughness":{
				"baseColorTexture":{
					"index":4
				},
				"metallicFactor":0,
				"roughnessFactor":0.5
			}
		},
		{
			"doubleSided":true,
			"name":"kwiat.002",
			"pbrMetallicRoughness":{
				"baseColorTexture":{
					"index":5
				},
				"metallicFactor":0,
				"roughnessFactor":0.5
			}
		},
		{
			"doubleSided":true,
			"name":"kwiat.003",
			"pbrMetallicRoughness":{
				"baseColorTexture":{
					"index":6
				},
				"metallicFactor":0,
				"roughnessFactor":0.5
			}
		},
		{
			"doubleSided":true,
			"name":"kwiat.004",
			"pbrMetallicRoughness":{
				"baseColorTexture":{
					"index":7
				},
				"metallicFactor":0,
				"roughnessFactor":0.5
			}
		},
		{
			"doubleSided":true,
			"name":"kwiat.005",
			"pbrMetallicRoughness":{
				"baseColorTexture":{
					"index":8
				},
				"metallicFactor":0,
				"roughnessFactor":0.5
			}
		}
	],
	"meshes":[
		{
			"name":"Circle.001",
			"primitives":[
				{
					"attributes":{
						"POSITION":0,
						"NORMAL":1,
						"TEXCOORD_0":2
					},
					"indices":3,
					"material":0
				}
			]
		},
		{
			"name":"Sphere",
			"primitives":[
				{
					"attributes":{
						"POSITION":4,
						"NORMAL":5,
						"TEXCOORD_0":6
					},
					"indices":7,
					"material":0
				}
			]
		},
		{
			"name":"Plane.002",
			"primitives":[
				{
					"attributes":{
						"POSITION":8,
						"NORMAL":9,
						"TEXCOORD_0":10
					},
					"indices":11,
					"material":1
				}
			]
		},
		{
			"name":"Circle.002",
			"primitives":[
				{
					"attributes":{
						"POSITION":12,
						"NORMAL":13,
						"TEXCOORD_0":14
					},
					"indices":15,
					"material":1
				}
			]
		},
		{
			"name":"Circle.003",
			"primitives":[
				{
					"attributes":{
						"POSITION":16,
						"NORMAL":17,
						"TEXCOORD_0":18
					},
					"indices":19,
					"material":0
				}
			]
		},
		{
			"name":"Sphere.001",
			"primitives":[
				{
					"attributes":{
						"POSITION":20,
						"NORMAL":21,
						"TEXCOORD_0":22
					},
					"indices":7,
					"material":2
				}
			]
		},
		{
			"name":"Circle.004",
			"primitives":[
				{
					"attributes":{
						"POSITION":23,
						"NORMAL":24,
						"TEXCOORD_0":25
					},
					"indices":3,
					"material":2
				}
			]
		},
		{
			"name":"Cylinder.001",
			"primitives":[
				{
					"attributes":{
						"POSITION":26,
						"NORMAL":27,
						"TEXCOORD_0":28
					},
					"indices":29,
					"material":3
				}
			]
		},
		{
			"name":"Cylinder.002",
			"primitives":[
				{
					"attributes":{
						"POSITION":30,
						"NORMAL":31,
						"TEXCOORD_0":32
					},
					"indices":29,
					"material":4
				}
			]
		},
		{
			"name":"Cylinder.003",
			"primitives":[
				{
					"attributes":{
						"POSITION":33,
						"NORMAL":34,
						"TEXCOORD_0":35
					},
					"indices":29,
					"material":5
				}
			]
		},
		{
			"name":"Cylinder.004",
			"primitives":[
				{
					"attributes":{
						"POSITION":36,
						"NORMAL":37,
						"TEXCOORD_0":38
					},
					"indices":29,
					"material":6
				}
			]
		},
		{
			"name":"Cylinder.005",
			"primitives":[
				{
					"attributes":{
						"POSITION":39,
						"NORMAL":40,
						"TEXCOORD_0":41
					},
					"indices":29,
					"material":7
				}
			]
		},
		{
			"name":"Cylinder.006",
			"primitives":[
				{
					"attributes":{
						"POSITION":42,
						"NORMAL":43,
						"TEXCOORD_0":44
					},
					"indices":29,
					"material":8
				}
			]
		}
	],
	"textures":[
		{
			"sampler":0,
			"source":0
		},
		{
			"sampler":1,
			"source":0
		},
		{
			"sampler":0,
			"source":0
		},
		{
			"sampler":0,
			"source":1
		},
		{
			"sampler":0,
			"source":1
		},
		{
			"sampler":0,
			"source":1
		},
		{
			"sampler":0,
			"source":1
		},
		{
			"sampler":0,
			"source":1
		},
		{
			"sampler":0,
			"source":1
		}
	],
	"images":[
		{
			"mimeType": "image/png",
			"name": "palette",
			"uri": "../../../textures/palette.png"
		},
		{
			"mimeType":"image/jpeg",
			"name":"lisc",
			"uri":"lisc.jpg"
		}
	],
	"accessors":[
		{
			"bufferView":0,
			"componentType":5126,
			"count":168,
			"max":[
				0.2183581292629242,
				0.07293453067541122,
				1.6120359897613525
			],
			"min":[
				-1.185688853263855,
				-0.034094274044036865,
				0.04442894458770752
			],
			"type":"VEC3"
		},
		{
			"bufferView":1,
			"componentType":5126,
			"count":168,
			"type":"VEC3"
		},
		{
			"bufferView":2,
			"componentType":5126,
			"count":168,
			"type":"VEC2"
		},
		{
			"bufferView":3,
			"componentType":5123,
			"count":468,
			"type":"SCALAR"
		},
		{
			"bufferView":4,
			"componentType":5126,
			"count":351,
			"max":[
				-0.1509685516357422,
				0.25401216745376587,
				1.1911014318466187
			],
			"min":[
				-0.8181524276733398,
				0.07293453067541122,
				0.5239173173904419
			],
			"type":"VEC3"
		},
		{
			"bufferView":5,
			"componentType":5126,
			"count":351,
			"type":"VEC3"
		},
		{
			"bufferView":6,
			"componentType":5126,
			"count":351,
			"type":"VEC2"
		},
		{
			"bufferView":7,
			"componentType":5123,
			"count":1530,
			"type":"SCALAR"
		},
		{
			"bufferView":8,
			"componentType":5126,
			"count":2226,
			"max":[
				5.5425190925598145,
				0.26449841260910034,
				0.4791359007358551
			],
			"min":[
				2.1181583404541016,
				0.006735384464263916,
				-0.4850602149963379
			],
			"type":"VEC3"
		},
		{
			"bufferView":9,
			"componentType":5126,
			"count":2226,
			"type":"VEC3"
		},
		{
			"bufferView":10,
			"componentType":5126,
			"count":2226,
			"type":"VEC2"
		},
		{
			"bufferView":11,
			"componentType":5123,
			"count":10944,
			"type":"SCALAR"
		},
		{
			"bufferView":12,
			"componentType":5126,
			"count":998,
			"max":[
				2.2819759845733643,
				0.3774014115333557,
				2.2819759845733643
			],
			"min":[
				-2.2819759845733643,
				-0.6637908816337585,
				-2.2819759845733643
			],
			"type":"VEC3"
		},
		{
			"bufferView":13,
			"componentType":5126,
			"count":998,
			"type":"VEC3"
		},
		{
			"bufferView":14,
			"componentType":5126,
			"count":998,
			"type":"VEC2"
		},
		{
			"bufferView":15,
			"componentType":5123,
			"count":5760,
			"type":"SCALAR"
		},
		{
			"bufferView":16,
			"componentType":5126,
			"count":32,
			"max":[
				1.827713131904602,
				0.0074513196013867855,
				1.827713131904602
			],
			"min":[
				-1.827713131904602,
				0.0074513196013867855,
				-1.827713131904602
			],
			"type":"VEC3"
		},
		{
			"bufferView":17,
			"componentType":5126,
			"count":32,
			"type":"VEC3"
		},
		{
			"bufferView":18,
			"componentType":5126,
			"count":32,
			"type":"VEC2"
		},
		{
			"bufferView":19,
			"componentType":5123,
			"count":90,
			"type":"SCALAR"
		},
		{
			"bufferView":20,
			"componentType":5126,
			"count":351,
			"max":[
				0.8631261587142944,
				0.25401216745376587,
				-0.27370190620422363
			],
			"min":[
				0.19594228267669678,
				0.07293453067541122,
				-0.9408860206604004
			],
			"type":"VEC3"
		},
		{
			"bufferView":21,
			"componentType":5126,
			"count":351,
			"type":"VEC3"
		},
		{
			"bufferView":22,
			"componentType":5126,
			"count":351,
			"type":"VEC2"
		},
		{
			"bufferView":23,
			"componentType":5126,
			"count":168,
			"max":[
				1.2324528694152832,
				0.07293453067541122,
				0.14723271131515503
			],
			"min":[
				-0.17159414291381836,
				-0.034094274044036865,
				-1.4203743934631348
			],
			"type":"VEC3"
		},
		{
			"bufferView":24,
			"componentType":5126,
			"count":168,
			"type":"VEC3"
		},
		{
			"bufferView":25,
			"componentType":5126,
			"count":168,
			"type":"VEC2"
		},
		{
			"bufferView":26,
			"componentType":5126,
			"count":34,
			"max":[
				0.14389556646347046,
				0.12833808362483978,
				0.4010483920574188
			],
			"min":[
				-0.14256231486797333,
				0.07516040652990341,
				-0.10753627121448517
			],
			"type":"VEC3"
		},
		{
			"bufferView":27,
			"componentType":5126,
			"count":34,
			"type":"VEC3"
		},
		{
			"bufferView":28,
			"componentType":5126,
			"count":34,
			"type":"VEC2"
		},
		{
			"bufferView":29,
			"componentType":5123,
			"count":90,
			"type":"SCALAR"
		},
		{
			"bufferView":30,
			"componentType":5126,
			"count":34,
			"max":[
				1.365126132965088,
				0.12833808362483978,
				0.8565192818641663
			],
			"min":[
				1.0475443601608276,
				0.07516040652990341,
				0.39885979890823364
			],
			"type":"VEC3"
		},
		{
			"bufferView":31,
			"componentType":5126,
			"count":34,
			"type":"VEC3"
		},
		{
			"bufferView":32,
			"componentType":5126,
			"count":34,
			"type":"VEC2"
		},
		{
			"bufferView":33,
			"componentType":5126,
			"count":34,
			"max":[
				-0.9134721159934998,
				0.12833808362483978,
				-0.6447553038597107
			],
			"min":[
				-1.2310539484024048,
				0.07516040652990341,
				-1.102414846420288
			],
			"type":"VEC3"
		},
		{
			"bufferView":34,
			"componentType":5126,
			"count":34,
			"type":"VEC3"
		},
		{
			"bufferView":35,
			"componentType":5126,
			"count":34,
			"type":"VEC2"
		},
		{
			"bufferView":36,
			"componentType":5126,
			"count":34,
			"max":[
				-1.2437502145767212,
				0.12833808362483978,
				0.5633700489997864
			],
			"min":[
				-1.5811285972595215,
				0.07516040652990341,
				0.11421257257461548
			],
			"type":"VEC3"
		},
		{
			"bufferView":37,
			"componentType":5126,
			"count":34,
			"type":"VEC3"
		},
		{
			"bufferView":38,
			"componentType":5126,
			"count":34,
			"type":"VEC2"
		},
		{
			"bufferView":39,
			"componentType":5126,
			"count":34,
			"max":[
				0.822862446308136,
				0.12833808362483978,
				1.3518433570861816
			],
			"min":[
				0.3868635296821594,
				0.07516040652990341,
				1.0163472890853882
			],
			"type":"VEC3"
		},
		{
			"bufferView":40,
			"componentType":5126,
			"count":34,
			"type":"VEC3"
		},
		{
			"bufferView":41,
			"componentType":5126,
			"count":34,
			"type":"VEC2"
		},
		{
			"bufferView":42,
			"componentType":5126,
			"count":34,
			"max":[
				1.601383924484253,
				0.12833808362483978,
				-0.10815809667110443
			],
			"min":[
				1.293504238128662,
				0.07516040652990341,
				-0.6022347211837769
			],
			"type":"VEC3"
		},
		{
			"bufferView":43,
			"componentType":5126,
			"count":34,
			"type":"VEC3"
		},
		{
			"bufferView":44,
			"componentType":5126,
			"count":34,
			"type":"VEC2"
		}
	],
	"bufferViews":[
		{
			"buffer":0,
			"byteLength":2016,
			"byteOffset":0,
			"target":34962
		},
		{
			"buffer":0,
			"byteLength":2016,
			"byteOffset":2016,
			"target":34962
		},
		{
			"buffer":0,
			"byteLength":1344,
			"byteOffset":4032,
			"target":34962
		},
		{
			"buffer":0,
			"byteLength":936,
			"byteOffset":5376,
			"target":34963
		},
		{
			"buffer":0,
			"byteLength":4212,
			"byteOffset":6312,
			"target":34962
		},
		{
			"buffer":0,
			"byteLength":4212,
			"byteOffset":10524,
			"target":34962
		},
		{
			"buffer":0,
			"byteLength":2808,
			"byteOffset":14736,
			"target":34962
		},
		{
			"buffer":0,
			"byteLength":3060,
			"byteOffset":17544,
			"target":34963
		},
		{
			"buffer":0,
			"byteLength":26712,
			"byteOffset":20604,
			"target":34962
		},
		{
			"buffer":0,
			"byteLength":26712,
			"byteOffset":47316,
			"target":34962
		},
		{
			"buffer":0,
			"byteLength":17808,
			"byteOffset":74028,
			"target":34962
		},
		{
			"buffer":0,
			"byteLength":21888,
			"byteOffset":91836,
			"target":34963
		},
		{
			"buffer":0,
			"byteLength":11976,
			"byteOffset":113724,
			"target":34962
		},
		{
			"buffer":0,
			"byteLength":11976,
			"byteOffset":125700,
			"target":34962
		},
		{
			"buffer":0,
			"byteLength":7984,
			"byteOffset":137676,
			"target":34962
		},
		{
			"buffer":0,
			"byteLength":11520,
			"byteOffset":145660,
			"target":34963
		},
		{
			"buffer":0,
			"byteLength":384,
			"byteOffset":157180,
			"target":34962
		},
		{
			"buffer":0,
			"byteLength":384,
			"byteOffset":157564,
			"target":34962
		},
		{
			"buffer":0,
			"byteLength":256,
			"byteOffset":157948,
			"target":34962
		},
		{
			"buffer":0,
			"byteLength":180,
			"byteOffset":158204,
			"target":34963
		},
		{
			"buffer":0,
			"byteLength":4212,
			"byteOffset":158384,
			"target":34962
		},
		{
			"buffer":0,
			"byteLength":4212,
			"byteOffset":162596,
			"target":34962
		},
		{
			"buffer":0,
			"byteLength":2808,
			"byteOffset":166808,
			"target":34962
		},
		{
			"buffer":0,
			"byteLength":2016,
			"byteOffset":169616,
			"target":34962
		},
		{
			"buffer":0,
			"byteLength":2016,
			"byteOffset":171632,
			"target":34962
		},
		{
			"buffer":0,
			"byteLength":1344,
			"byteOffset":173648,
			"target":34962
		},
		{
			"buffer":0,
			"byteLength":408,
			"byteOffset":174992,
			"target":34962
		},
		{
			"buffer":0,
			"byteLength":408,
			"byteOffset":175400,
			"target":34962
		},
		{
			"buffer":0,
			"byteLength":272,
			"byteOffset":175808,
			"target":34962
		},
		{
			"buffer":0,
			"byteLength":180,
			"byteOffset":176080,
			"target":34963
		},
		{
			"buffer":0,
			"byteLength":408,
			"byteOffset":176260,
			"target":34962
		},
		{
			"buffer":0,
			"byteLength":408,
			"byteOffset":176668,
			"target":34962
		},
		{
			"buffer":0,
			"byteLength":272,
			"byteOffset":177076,
			"target":34962
		},
		{
			"buffer":0,
			"byteLength":408,
			"byteOffset":177348,
			"target":34962
		},
		{
			"buffer":0,
			"byteLength":408,
			"byteOffset":177756,
			"target":34962
		},
		{
			"buffer":0,
			"byteLength":272,
			"byteOffset":178164,
			"target":34962
		},
		{
			"buffer":0,
			"byteLength":408,
			"byteOffset":178436,
			"target":34962
		},
		{
			"buffer":0,
			"byteLength":408,
			"byteOffset":178844,
			"target":34962
		},
		{
			"buffer":0,
			"byteLength":272,
			"byteOffset":179252,
			"target":34962
		},
		{
			"buffer":0,
			"byteLength":408,
			"byteOffset":179524,
			"target":34962
		},
		{
			"buffer":0,
			"byteLength":408,
			"byteOffset":179932,
			"target":34962
		},
		{
			"buffer":0,
			"byteLength":272,
			"byteOffset":180340,
			"target":34962
		},
		{
			"buffer":0,
			"byteLength":408,
			"byteOffset":180612,
			"target":34962
		},
		{
			"buffer":0,
			"byteLength":408,
			"byteOffset":181020,
			"target":34962
		},
		{
			"buffer":0,
			"byteLength":272,
			"byteOffset":181428,
			"target":34962
		}
	],
	"samplers":[
		{
			"magFilter":9729,
			"minFilter":9987
		},
		{
			"magFilter":9728,
			"minFilter":9984
		}
	],
	"buffers":[
		{
			"byteLength":181700,
			"uri":"szakszuka.bin"
		}
	]
}
