{
	"asset":{
		"generator":"Khronos glTF Blender I/O v4.4.56",
		"version":"2.0"
	},
	"scene":0,
	"scenes":[
		{
			"name":"Scene",
			"nodes":[
				0,
				1,
				2
			]
		}
	],
	"nodes":[
		{
			"mesh":0,
			"name":"Plane"
		},
		{
			"mesh":1,
			"name":"Cube"
		},
		{
			"mesh":2,
			"name":"Cube.001"
		}
	],
	"materials":[
		{
			"doubleSided":true,
			"name":"Material.001",
			"pbrMetallicRoughness":{
				"baseColorTexture":{
					"index":0
				},
				"metallicFactor":0,
				"roughnessFactor":0.5
			}
		},
		{
			"doubleSided":true,
			"name":"Material.003",
			"pbrMetallicRoughness":{
				"baseColorTexture":{
					"index":1
				},
				"metallicFactor":0,
				"roughnessFactor":0.5
			}
		}
	],
	"meshes":[
		{
			"name":"Plane",
			"primitives":[
				{
					"attributes":{
						"POSITION":0,
						"NORMAL":1,
						"TEXCOORD_0":2
					},
					"indices":3,
					"material":0
				}
			]
		},
		{
			"name":"Cube",
			"primitives":[
				{
					"attributes":{
						"POSITION":4,
						"NORMAL":5,
						"TEXCOORD_0":6
					},
					"indices":7,
					"material":0
				}
			]
		},
		{
			"name":"Cube.001",
			"primitives":[
				{
					"attributes":{
						"POSITION":8,
						"NORMAL":9,
						"TEXCOORD_0":10
					},
					"indices":11,
					"material":1
				}
			]
		}
	],
	"textures":[
		{
			"sampler":0,
			"source":0
		},
		{
			"sampler":0,
			"source":0
		}
	],
	"images":[
		{
			"mimeType": "image/png",
			"name": "palette",
			"uri": "../../../textures/palette.png"
		}
	],
	"accessors":[
		{
			"bufferView":0,
			"componentType":5126,
			"count":819,
			"max":[
				-0.014870472252368927,
				0.0789373517036438,
				0.05930143967270851
			],
			"min":[
				-0.10848359763622284,
				0.0008655637502670288,
				-0.04601164162158966
			],
			"type":"VEC3"
		},
		{
			"bufferView":1,
			"componentType":5126,
			"count":819,
			"type":"VEC3"
		},
		{
			"bufferView":2,
			"componentType":5126,
			"count":819,
			"type":"VEC2"
		},
		{
			"bufferView":3,
			"componentType":5123,
			"count":3000,
			"type":"SCALAR"
		},
		{
			"bufferView":4,
			"componentType":5126,
			"count":511,
			"max":[
				0.1585177332162857,
				0.0064750416204333305,
				0.049446020275354385
			],
			"min":[
				0.059625688940286636,
				-0.0005424318369477987,
				-0.049446020275354385
			],
			"type":"VEC3"
		},
		{
			"bufferView":5,
			"componentType":5126,
			"count":511,
			"type":"VEC3"
		},
		{
			"bufferView":6,
			"componentType":5126,
			"count":511,
			"type":"VEC2"
		},
		{
			"bufferView":7,
			"componentType":5123,
			"count":1974,
			"type":"SCALAR"
		},
		{
			"bufferView":8,
			"componentType":5126,
			"count":511,
			"max":[
				0.08830343931913376,
				0.0198997613042593,
				0.04987625032663345
			],
			"min":[
				-0.010763026773929596,
				-0.007925067096948624,
				-0.04987625032663345
			],
			"type":"VEC3"
		},
		{
			"bufferView":9,
			"componentType":5126,
			"count":511,
			"type":"VEC3"
		},
		{
			"bufferView":10,
			"componentType":5126,
			"count":511,
			"type":"VEC2"
		},
		{
			"bufferView":11,
			"componentType":5123,
			"count":1974,
			"type":"SCALAR"
		}
	],
	"bufferViews":[
		{
			"buffer":0,
			"byteLength":9828,
			"byteOffset":0,
			"target":34962
		},
		{
			"buffer":0,
			"byteLength":9828,
			"byteOffset":9828,
			"target":34962
		},
		{
			"buffer":0,
			"byteLength":6552,
			"byteOffset":19656,
			"target":34962
		},
		{
			"buffer":0,
			"byteLength":6000,
			"byteOffset":26208,
			"target":34963
		},
		{
			"buffer":0,
			"byteLength":6132,
			"byteOffset":32208,
			"target":34962
		},
		{
			"buffer":0,
			"byteLength":6132,
			"byteOffset":38340,
			"target":34962
		},
		{
			"buffer":0,
			"byteLength":4088,
			"byteOffset":44472,
			"target":34962
		},
		{
			"buffer":0,
			"byteLength":3948,
			"byteOffset":48560,
			"target":34963
		},
		{
			"buffer":0,
			"byteLength":6132,
			"byteOffset":52508,
			"target":34962
		},
		{
			"buffer":0,
			"byteLength":6132,
			"byteOffset":58640,
			"target":34962
		},
		{
			"buffer":0,
			"byteLength":4088,
			"byteOffset":64772,
			"target":34962
		},
		{
			"buffer":0,
			"byteLength":3948,
			"byteOffset":68860,
			"target":34963
		}
	],
	"samplers":[
		{
			"magFilter":9729,
			"minFilter":9987
		}
	],
	"buffers":[
		{
			"byteLength":72808,
			"uri":"ser-pokrojony.bin"
		}
	]
}
