{
	"asset":{
		"generator":"Khronos glTF Blender I/O v4.4.56",
		"version":"2.0"
	},
	"scene":0,
	"scenes":[
		{
			"name":"Scene",
			"nodes":[
				0,
				1,
				2,
				3,
				4,
				5
			]
		}
	],
	"nodes":[
		{
			"mesh":0,
			"name":"Cube"
		},
		{
			"mesh":1,
			"name":"Torus"
		},
		{
			"mesh":2,
			"name":"Plane"
		},
		{
			"mesh":3,
			"name":"Plane.001"
		},
		{
			"mesh":4,
			"name":"Sphere"
		},
		{
			"mesh":5,
			"name":"Sphere.001"
		}
	],
	"materials":[
		{
			"doubleSided":true,
			"name":"Material.001",
			"pbrMetallicRoughness":{
				"baseColorTexture":{
					"index":0
				},
				"metallicFactor":0,
				"roughnessFactor":0.5
			}
		}
	],
	"meshes":[
		{
			"name":"Cube.001",
			"primitives":[
				{
					"attributes":{
						"POSITION":0,
						"NORMAL":1,
						"TEXCOORD_0":2
					},
					"indices":3,
					"material":0
				}
			]
		},
		{
			"name":"Torus",
			"primitives":[
				{
					"attributes":{
						"POSITION":4,
						"NORMAL":5,
						"TEXCOORD_0":6
					},
					"indices":7,
					"material":0
				}
			]
		},
		{
			"name":"Plane",
			"primitives":[
				{
					"attributes":{
						"POSITION":8,
						"NORMAL":9,
						"TEXCOORD_0":10
					},
					"indices":11,
					"material":0
				}
			]
		},
		{
			"name":"Plane.002",
			"primitives":[
				{
					"attributes":{
						"POSITION":12,
						"NORMAL":13,
						"TEXCOORD_0":14
					},
					"indices":15,
					"material":0
				}
			]
		},
		{
			"name":"Sphere",
			"primitives":[
				{
					"attributes":{
						"POSITION":16,
						"NORMAL":17,
						"TEXCOORD_0":18
					},
					"indices":19,
					"material":0
				}
			]
		},
		{
			"name":"Sphere.001",
			"primitives":[
				{
					"attributes":{
						"POSITION":20,
						"NORMAL":21,
						"TEXCOORD_0":22
					},
					"indices":23,
					"material":0
				}
			]
		}
	],
	"textures":[
		{
			"sampler":0,
			"source":0
		}
	],
	"images":[
		{
			"mimeType": "image/png",
			"name": "palette",
			"uri": "../../../textures/palette.png"
		}
	],
	"accessors":[
		{
			"bufferView":0,
			"componentType":5126,
			"count":825,
			"max":[
				0.10742660611867905,
				0.19103163480758667,
				0.14294664561748505
			],
			"min":[
				-0.10824377089738846,
				-0.01924840174615383,
				-0.05104061961174011
			],
			"type":"VEC3"
		},
		{
			"bufferView":1,
			"componentType":5126,
			"count":825,
			"type":"VEC3"
		},
		{
			"bufferView":2,
			"componentType":5126,
			"count":825,
			"type":"VEC2"
		},
		{
			"bufferView":3,
			"componentType":5123,
			"count":3648,
			"type":"SCALAR"
		},
		{
			"bufferView":4,
			"componentType":5126,
			"count":870,
			"max":[
				0.08614728599786758,
				0.14286069571971893,
				0.12561365962028503
			],
			"min":[
				-0.086964450776577,
				0.11765410006046295,
				-0.033707644790410995
			],
			"type":"VEC3"
		},
		{
			"bufferView":5,
			"componentType":5126,
			"count":870,
			"type":"VEC3"
		},
		{
			"bufferView":6,
			"componentType":5126,
			"count":870,
			"type":"VEC2"
		},
		{
			"bufferView":7,
			"componentType":5123,
			"count":3456,
			"type":"SCALAR"
		},
		{
			"bufferView":8,
			"componentType":5126,
			"count":80,
			"max":[
				0.012977811507880688,
				0.08736711740493774,
				0.13555960357189178
			],
			"min":[
				-0.013985739089548588,
				0.036451492458581924,
				0.12417721748352051
			],
			"type":"VEC3"
		},
		{
			"bufferView":9,
			"componentType":5126,
			"count":80,
			"type":"VEC3"
		},
		{
			"bufferView":10,
			"componentType":5126,
			"count":80,
			"type":"VEC2"
		},
		{
			"bufferView":11,
			"componentType":5123,
			"count":468,
			"type":"SCALAR"
		},
		{
			"bufferView":12,
			"componentType":5126,
			"count":160,
			"max":[
				0.04293704777956009,
				0.06417343765497208,
				0.13555960357189178
			],
			"min":[
				-0.0437542125582695,
				0.02843269519507885,
				0.12417721748352051
			],
			"type":"VEC3"
		},
		{
			"bufferView":13,
			"componentType":5126,
			"count":160,
			"type":"VEC3"
		},
		{
			"bufferView":14,
			"componentType":5126,
			"count":160,
			"type":"VEC2"
		},
		{
			"bufferView":15,
			"componentType":5123,
			"count":936,
			"type":"SCALAR"
		},
		{
			"bufferView":16,
			"componentType":5126,
			"count":295,
			"max":[
				0.022649772465229034,
				0.18084436655044556,
				0.08682214468717575
			],
			"min":[
				-0.0009623579680919647,
				0.16517989337444305,
				0.06798312813043594
			],
			"type":"VEC3"
		},
		{
			"bufferView":17,
			"componentType":5126,
			"count":295,
			"type":"VEC3"
		},
		{
			"bufferView":18,
			"componentType":5126,
			"count":295,
			"type":"VEC2"
		},
		{
			"bufferView":19,
			"componentType":5123,
			"count":1212,
			"type":"SCALAR"
		},
		{
			"bufferView":20,
			"componentType":5126,
			"count":219,
			"max":[
				0.047231025993824005,
				0.165874183177948,
				0.08638373017311096
			],
			"min":[
				0.030010845512151718,
				0.15178585052490234,
				0.06810024380683899
			],
			"type":"VEC3"
		},
		{
			"bufferView":21,
			"componentType":5126,
			"count":219,
			"type":"VEC3"
		},
		{
			"bufferView":22,
			"componentType":5126,
			"count":219,
			"type":"VEC2"
		},
		{
			"bufferView":23,
			"componentType":5123,
			"count":882,
			"type":"SCALAR"
		}
	],
	"bufferViews":[
		{
			"buffer":0,
			"byteLength":9900,
			"byteOffset":0,
			"target":34962
		},
		{
			"buffer":0,
			"byteLength":9900,
			"byteOffset":9900,
			"target":34962
		},
		{
			"buffer":0,
			"byteLength":6600,
			"byteOffset":19800,
			"target":34962
		},
		{
			"buffer":0,
			"byteLength":7296,
			"byteOffset":26400,
			"target":34963
		},
		{
			"buffer":0,
			"byteLength":10440,
			"byteOffset":33696,
			"target":34962
		},
		{
			"buffer":0,
			"byteLength":10440,
			"byteOffset":44136,
			"target":34962
		},
		{
			"buffer":0,
			"byteLength":6960,
			"byteOffset":54576,
			"target":34962
		},
		{
			"buffer":0,
			"byteLength":6912,
			"byteOffset":61536,
			"target":34963
		},
		{
			"buffer":0,
			"byteLength":960,
			"byteOffset":68448,
			"target":34962
		},
		{
			"buffer":0,
			"byteLength":960,
			"byteOffset":69408,
			"target":34962
		},
		{
			"buffer":0,
			"byteLength":640,
			"byteOffset":70368,
			"target":34962
		},
		{
			"buffer":0,
			"byteLength":936,
			"byteOffset":71008,
			"target":34963
		},
		{
			"buffer":0,
			"byteLength":1920,
			"byteOffset":71944,
			"target":34962
		},
		{
			"buffer":0,
			"byteLength":1920,
			"byteOffset":73864,
			"target":34962
		},
		{
			"buffer":0,
			"byteLength":1280,
			"byteOffset":75784,
			"target":34962
		},
		{
			"buffer":0,
			"byteLength":1872,
			"byteOffset":77064,
			"target":34963
		},
		{
			"buffer":0,
			"byteLength":3540,
			"byteOffset":78936,
			"target":34962
		},
		{
			"buffer":0,
			"byteLength":3540,
			"byteOffset":82476,
			"target":34962
		},
		{
			"buffer":0,
			"byteLength":2360,
			"byteOffset":86016,
			"target":34962
		},
		{
			"buffer":0,
			"byteLength":2424,
			"byteOffset":88376,
			"target":34963
		},
		{
			"buffer":0,
			"byteLength":2628,
			"byteOffset":90800,
			"target":34962
		},
		{
			"buffer":0,
			"byteLength":2628,
			"byteOffset":93428,
			"target":34962
		},
		{
			"buffer":0,
			"byteLength":1752,
			"byteOffset":96056,
			"target":34962
		},
		{
			"buffer":0,
			"byteLength":1764,
			"byteOffset":97808,
			"target":34963
		}
	],
	"samplers":[
		{
			"magFilter":9729,
			"minFilter":9987
		}
	],
	"buffers":[
		{
			"byteLength":99572,
			"uri":"maka.bin"
		}
	]
}
