{
	"asset":{
		"generator":"Khronos glTF Blender I/O v4.5.48",
		"version":"2.0"
	},
	"scene":0,
	"scenes":[
		{
			"name":"Scene",
			"nodes":[
				0,
				1
			]
		}
	],
	"nodes":[
		{
			"mesh":0,
			"name":"Cylinder"
		},
		{
			"mesh":1,
			"name":"Cylinder.001"
		}
	],
	"materials":[
		{
			"alphaMode":"BLEND",
			"doubleSided":true,
			"name":"Material.001",
			"pbrMetallicRoughness":{
				"baseColorFactor":[
					1,
					1,
					1,
					0.10000000149011612
				],
				"baseColorTexture":{
					"index":0
				},
				"metallicFactor":0.6000000238418579,
				"roughnessFactor":0.20000000298023224
			}
		},
		{
			"doubleSided":true,
			"name":"Material.003",
			"pbrMetallicRoughness":{
				"baseColorTexture":{
					"index":1
				},
				"metallicFactor":0,
				"roughnessFactor":0.5
			}
		}
	],
	"meshes":[
		{
			"name":"Cylinder",
			"primitives":[
				{
					"attributes":{
						"POSITION":0,
						"NORMAL":1,
						"TEXCOORD_0":2
					},
					"indices":3,
					"material":0
				}
			]
		},
		{
			"name":"Cylinder.005",
			"primitives":[
				{
					"attributes":{
						"POSITION":4,
						"NORMAL":5,
						"TEXCOORD_0":6
					},
					"indices":7,
					"material":1
				}
			]
		}
	],
	"textures":[
		{
			"sampler":0,
			"source":0
		},
		{
			"sampler":1,
			"source":1
		}
	],
	"images":[
		{
			"mimeType":"image/png",
			"name":"palette",
			"uri":"../../../textures/palette.png"
		},
		{
			"mimeType":"image/png",
			"name":"milk",
			"uri":"milk.png"
		}
	],
	"accessors":[
		{
			"bufferView":0,
			"componentType":5126,
			"count":440,
			"max":[
				1,
				1,
				1
			],
			"min":[
				-1,
				-1,
				-1.8545430898666382
			],
			"type":"VEC3"
		},
		{
			"bufferView":1,
			"componentType":5126,
			"count":440,
			"type":"VEC3"
		},
		{
			"bufferView":2,
			"componentType":5126,
			"count":440,
			"type":"VEC2"
		},
		{
			"bufferView":3,
			"componentType":5123,
			"count":1200,
			"type":"SCALAR"
		},
		{
			"bufferView":4,
			"componentType":5126,
			"count":193,
			"max":[
				0.8692212104797363,
				0.7870500087738037,
				0.8692212104797363
			],
			"min":[
				-0.8692212104797363,
				-0.8936774730682373,
				-0.8692211508750916
			],
			"type":"VEC3"
		},
		{
			"bufferView":5,
			"componentType":5126,
			"count":193,
			"type":"VEC3"
		},
		{
			"bufferView":6,
			"componentType":5126,
			"count":193,
			"type":"VEC2"
		},
		{
			"bufferView":7,
			"componentType":5123,
			"count":744,
			"type":"SCALAR"
		}
	],
	"bufferViews":[
		{
			"buffer":0,
			"byteLength":5280,
			"byteOffset":0,
			"target":34962
		},
		{
			"buffer":0,
			"byteLength":5280,
			"byteOffset":5280,
			"target":34962
		},
		{
			"buffer":0,
			"byteLength":3520,
			"byteOffset":10560,
			"target":34962
		},
		{
			"buffer":0,
			"byteLength":2400,
			"byteOffset":14080,
			"target":34963
		},
		{
			"buffer":0,
			"byteLength":2316,
			"byteOffset":16480,
			"target":34962
		},
		{
			"buffer":0,
			"byteLength":2316,
			"byteOffset":18796,
			"target":34962
		},
		{
			"buffer":0,
			"byteLength":1544,
			"byteOffset":21112,
			"target":34962
		},
		{
			"buffer":0,
			"byteLength":1488,
			"byteOffset":22656,
			"target":34963
		}
	],
	"samplers":[
		{
			"magFilter":9729,
			"minFilter":9987
		},
		{
			"magFilter":9728,
			"minFilter":9984
		}
	],
	"buffers":[
		{
			"byteLength":24144,
			"uri":"milk_with_honey.bin"
		}
	]
}
